<?xml version="1.0" encoding="UTF-8" standalone="no"?><!DOCTYPE svg PUBLIC "-//W3C//DTD SVG 1.1//EN" "http://www.w3.org/Graphics/SVG/1.1/DTD/svg11.dtd"><svg width="1772px" height="788px" viewBox="0 0 1772 788" version="1.1" xmlns="http://www.w3.org/2000/svg" xmlns:xlink="http://www.w3.org/1999/xlink" xml:space="preserve" xmlns:serif="http://www.serif.com/" style="fill-rule:evenodd;clip-rule:evenodd;stroke-linecap:round;stroke-linejoin:round;stroke-miterlimit:1.5;"><g><g id="_1-japanesenames" serif:id="1-japanesenames"><rect x="0" y="0" width="1771.17" height="787.418" style="fill:none;"/><g id="大譜表"><g id="外枠"><rect x="71.557" y="109.165" width="1637.89" height="239.038" style="fill:#fff;fill-opacity:0.78;stroke:#000;stroke-width:2px;"/></g><g id="_--G線" serif:id="↑ G線"><path d="M71.577,289.163l1637.89,-0" style="fill:none;stroke:#000;stroke-width:2px;"/></g><g id="_--B線" serif:id="↑ B線"><path d="M71.577,229.162l1637.89,0" style="fill:none;stroke:#000;stroke-width:2px;"/></g><g id="_--D線" serif:id="↑ D線"><path d="M71.577,169.163l1637.89,-0" style="fill:none;stroke:#000;stroke-width:2px;"/></g></g><g id="_2分音符-Ba." serif:id="2分音符 Ba."><g id="onpu"><path d="M1234.39,236.489c-17.818,9.549 -27.309,26.832 -21.469,39.833c6.228,13.873 27.634,17.787 47.777,8.741c20.147,-9.045 31.438,-27.65 25.21,-41.517c-6.228,-13.872 -27.634,-17.786 -47.777,-8.741c-1.259,0.567 -2.555,1.044 -3.741,1.684Z"/></g><g id="しっぽ"><rect x="1211.2" y="269.94" width="5" height="180"/></g></g><g id="_2分音符-Ba.1" serif:id="2分音符 Ba."><g id="onpu1" serif:id="onpu"><path d="M1064.39,266.49c-17.818,9.549 -27.309,26.832 -21.469,39.833c6.228,13.872 27.634,17.786 47.777,8.741c20.147,-9.045 31.438,-27.65 25.21,-41.517c-6.228,-13.873 -27.634,-17.787 -47.777,-8.741c-1.259,0.566 -2.555,1.044 -3.741,1.684Z"/></g><g id="しっぽ1" serif:id="しっぽ"><rect x="1041.19" y="299.941" width="5" height="180"/></g></g><g id="_2分音符-Ba.2" serif:id="2分音符 Ba."><g id="onpu2" serif:id="onpu"><path d="M1594.3,176.49c-17.818,9.549 -27.31,26.832 -21.47,39.833c6.228,13.872 27.635,17.786 47.777,8.741c20.147,-9.045 31.438,-27.65 25.21,-41.517c-6.228,-13.873 -27.634,-17.787 -47.776,-8.741c-1.26,0.566 -2.556,1.044 -3.741,1.684Z"/></g><g id="しっぽ2" serif:id="しっぽ"><rect x="1571.11" y="209.941" width="5" height="180"/></g></g><g id="_2分音符-Ba.3" serif:id="2分音符 Ba."><g id="onpu3" serif:id="onpu"><path d="M1412.06,206.408c-17.818,9.549 -27.309,26.832 -21.469,39.833c6.228,13.872 27.634,17.786 47.777,8.741c20.147,-9.045 31.438,-27.65 25.21,-41.517c-6.228,-13.873 -27.634,-17.787 -47.777,-8.741c-1.259,0.566 -2.555,1.044 -3.741,1.684Z"/></g><g id="しっぽ3" serif:id="しっぽ"><rect x="1388.87" y="239.859" width="5" height="180"/></g></g><g id="G"><path d="M177.362,263.706c-5.53,1.134 -10.655,4.169 -15.546,9.002c-4.898,4.923 -7.52,10.537 -7.949,16.749c-0.269,3.904 0.759,8.432 3.014,13.314c2.249,4.969 5.924,8.7 10.841,11.269c1.666,0.471 2.405,1.414 2.319,2.655c-0.03,0.444 -0.683,0.845 -2.22,1.096c-7.954,-2.599 -14.325,-7.408 -19.038,-14.241c-4.706,-6.923 -6.86,-14.561 -6.45,-23.092c0.898,-9.121 4.243,-17.449 10.03,-24.896c5.882,-7.529 13.117,-12.647 21.705,-15.354l-3.965,-31.924c-14.481,10.413 -26.415,21.448 -35.9,33.275c-9.48,11.739 -14.851,24.831 -16.205,39.271c-0.27,6.49 0.63,12.882 2.704,19.088c2.069,6.295 5.425,12.054 10.057,17.455c9.36,10.721 22.075,16.858 37.96,18.49c5.45,0.019 11.3,-0.558 17.636,-1.726l-8.993,-70.431Zm6.466,-0.445l9.168,69.195c14.078,-4.557 21.754,-16.064 23.015,-34.343c-0.378,-6.178 -1.778,-11.803 -4.465,-16.891c-2.593,-5.172 -6.237,-9.346 -11.022,-12.529c-4.786,-3.184 -10.292,-4.99 -16.696,-5.432Zm-11.868,-93.543c3.058,-1.573 6.652,-4.445 10.599,-8.541c3.941,-4.008 7.849,-8.82 11.62,-14.266c3.868,-5.529 7.029,-11.194 9.486,-16.999c2.449,-5.715 3.814,-11.238 4.169,-16.385c0.152,-2.218 0.128,-4.448 -0.182,-6.432c-0.136,-3.218 -0.943,-5.771 -2.517,-7.573c-1.579,-1.714 -3.653,-2.749 -6.321,-2.933c-5.337,-0.368 -10.367,2.584 -15.09,8.855c-3.683,5.453 -6.906,12.006 -9.389,19.502c-2.579,7.579 -4.261,15.13 -4.972,22.838c-0.162,8.816 0.766,16.101 2.597,21.934Zm-5.959,4.76c-3.011,-14.651 -4.224,-29.446 -3.64,-44.384c0.75,-9.577 2.347,-18.472 4.791,-26.684c2.354,-8.219 5.429,-15.229 9.239,-21.207c3.719,-5.984 7.868,-10.423 12.359,-13.323c4.02,-2.576 6.882,-3.894 8.394,-3.789c1.156,0.079 2.104,0.59 2.939,1.451c0.834,0.86 1.898,2.27 3.199,4.143c9.551,15.726 13.639,34.197 12.182,55.316c-0.692,10.027 -2.7,19.696 -6.042,29.273c-3.247,9.494 -7.708,18.459 -13.373,26.716c-5.759,8.34 -12.328,15.465 -19.803,21.458l4.794,35.459c3.944,-0.174 6.637,-0.344 8.149,-0.24c6.76,0.466 12.711,2.304 18.12,5.529c5.407,3.227 9.947,7.374 13.524,12.524c3.583,5.062 6.228,10.772 7.934,17.131c1.618,6.353 2.328,12.91 1.862,19.654c-0.722,10.471 -4.141,19.864 -10.25,28.091c-6.109,8.226 -14.816,13.956 -26.217,17.271c0.412,4.397 1.223,10.782 2.533,18.987c1.216,8.286 2.103,14.856 2.662,19.709c0.559,4.853 0.597,9.491 0.284,14.017c-0.483,7.01 -2.602,13.105 -6.362,18.373c-3.848,5.263 -8.768,9.203 -14.847,11.814c-5.99,2.619 -12.498,3.685 -19.437,3.207c-9.784,-0.675 -18.134,-4.015 -25.054,-9.931c-6.915,-6.006 -10.32,-13.641 -10.027,-23.071c0.555,-4.152 1.802,-7.989 3.839,-11.593c2.036,-3.604 4.645,-6.455 7.918,-8.548c3.19,-2.187 6.923,-3.178 11.122,-3.155c3.469,0.239 6.692,1.442 9.677,3.52c2.89,2.162 5.203,4.906 6.844,8.319c1.553,3.406 2.28,7.111 2.011,11.016c-0.361,5.235 -2.446,9.549 -6.256,12.941c-3.809,3.393 -8.474,4.943 -13.9,4.569l-2.045,-0.141c3.101,5.564 8.604,8.707 16.521,9.253c4.003,0.277 8.155,-0.329 12.358,-1.644c4.297,-1.397 7.919,-3.376 11.05,-6.013c3.131,-2.637 5.297,-5.519 6.318,-8.658c1.763,-3.534 2.823,-8.543 3.258,-14.843c0.294,-4.259 0.143,-8.55 -0.364,-12.863c-0.512,-4.226 -1.372,-9.903 -2.585,-16.94c-1.218,-6.95 -2.096,-12.36 -2.557,-16.048c-5.429,0.963 -10.992,1.293 -16.775,0.894c-9.695,-0.669 -18.722,-3.253 -27.075,-7.842c-8.353,-4.588 -15.534,-10.611 -21.627,-18.164c-6.003,-7.547 -10.522,-15.884 -13.545,-25.186c-2.94,-9.208 -4.159,-18.743 -3.574,-28.51c0.98,-9.026 3.27,-17.606 7.036,-25.548c3.772,-8.032 8.402,-15.558 13.974,-22.484c5.572,-6.927 11.28,-13.22 17.116,-18.791c5.919,-5.476 13.645,-12.521 23.348,-21.035Z" style="fill:#131516;stroke:#131516;stroke-width:0.27px;stroke-linecap:butt;stroke-linejoin:miter;stroke-miterlimit:4;"/></g><g id="bar-0" serif:id="bar 0"><path d="M68.002,111.165l-0,237.037" style="fill:none;stroke:#000;stroke-width:6.01px;"/></g><g id="_2分音符-Ba.4" serif:id="2分音符 Ba."><g id="onpu4" serif:id="onpu"><path d="M360.852,432.448c17.818,-9.549 27.309,-26.831 21.469,-39.833c-6.227,-13.872 -27.634,-17.786 -47.776,-8.741c-20.148,9.046 -31.439,27.65 -25.211,41.518c6.228,13.872 27.635,17.786 47.777,8.741c1.259,-0.567 2.555,-1.045 3.741,-1.685Z"/></g><g id="しっぽ4" serif:id="しっぽ"><rect x="379.044" y="218.998" width="5" height="180"/></g></g><g id="_2分音符-Ba.5" serif:id="2分音符 Ba."><g id="onpu5" serif:id="onpu"><path d="M540.853,402.448c17.818,-9.549 27.309,-26.832 21.47,-39.833c-6.228,-13.873 -27.635,-17.787 -47.777,-8.741c-20.148,9.045 -31.439,27.65 -25.211,41.517c6.228,13.872 27.635,17.786 47.777,8.741c1.259,-0.567 2.555,-1.044 3.741,-1.684Z"/></g><g id="しっぽ5" serif:id="しっぽ"><rect x="559.045" y="188.997" width="5" height="180"/></g></g><g id="_2分音符-Ba.6" serif:id="2分音符 Ba."><g id="onpu6" serif:id="onpu"><path d="M720.853,372.448c17.818,-9.549 27.309,-26.832 21.469,-39.833c-6.228,-13.872 -27.634,-17.787 -47.776,-8.741c-20.148,9.045 -31.439,27.65 -25.211,41.517c6.228,13.873 27.634,17.787 47.777,8.741c1.259,-0.566 2.555,-1.044 3.741,-1.684Z"/></g><g id="しっぽ6" serif:id="しっぽ"><rect x="739.045" y="158.997" width="5" height="180"/></g></g><g id="_2分音符-Ba.7" serif:id="2分音符 Ba."><g id="onpu7" serif:id="onpu"><path d="M910.853,342.448c17.818,-9.549 27.309,-26.831 21.47,-39.833c-6.228,-13.872 -27.635,-17.786 -47.777,-8.741c-20.148,9.046 -31.439,27.65 -25.211,41.518c6.228,13.872 27.635,17.786 47.777,8.741c1.259,-0.567 2.555,-1.044 3.741,-1.685Z"/></g><g id="しっぽ7" serif:id="しっぽ"><rect x="929.045" y="128.998" width="5" height="180"/></g></g><g><rect x="292.735" y="412.256" width="111.117" height="2.334"/></g><g><g transform="matrix(1,0,0,0.999999,0,0.000349648)"><text x="309.759px" y="567.391px" style="font-family:'HiraKakuProN-W3', 'Hiragino Kaku Gothic ProN', sans-serif;font-weight:300;font-size:72px;fill:#0e1517;">主</text></g><g transform="matrix(1,0,0,0.999999,0,0.000394018)"><text x="309.759px" y="639.392px" style="font-family:'HiraKakuProN-W3', 'Hiragino Kaku Gothic ProN', sans-serif;font-weight:300;font-size:72px;fill:#0e1517;">音</text></g></g><g><g transform="matrix(1,0,0,0.999999,0,0.000349648)"><text x="1389.76px" y="567.391px" style="font-family:'STHeitiSC-Light', 'Heiti SC';font-weight:300;font-size:72px;fill:#0e1517;">导</text></g><g transform="matrix(1,0,0,0.999999,0,0.000394018)"><text x="1389.76px" y="639.392px" style="font-family:'HiraKakuProN-W3', 'Hiragino Kaku Gothic ProN', sans-serif;font-weight:300;font-size:72px;fill:#0e1517;">音</text></g></g><g><g transform="matrix(1,0,0,0.999999,2.27374e-13,0.000349648)"><text x="1569.76px" y="567.391px" style="font-family:'HiraKakuProN-W3', 'Hiragino Kaku Gothic ProN', sans-serif;font-weight:300;font-size:72px;fill:#0e1517;">主</text></g><g transform="matrix(1,0,0,0.999999,2.27374e-13,0.000394018)"><text x="1569.76px" y="639.392px" style="font-family:'HiraKakuProN-W3', 'Hiragino Kaku Gothic ProN', sans-serif;font-weight:300;font-size:72px;fill:#0e1517;">音</text></g></g><g><g transform="matrix(1,0,0,0.999999,5.68434e-14,0.000349648)"><text x="489.759px" y="567.391px" style="font-family:'HiraKakuProN-W3', 'Hiragino Kaku Gothic ProN', sans-serif;font-weight:300;font-size:72px;fill:#0e1517;">上</text></g><g transform="matrix(1,0,0,0.999999,5.68434e-14,0.000394018)"><text x="489.759px" y="639.392px" style="font-family:'HiraKakuProN-W3', 'Hiragino Kaku Gothic ProN', sans-serif;font-weight:300;font-size:72px;fill:#0e1517;">主</text></g><g transform="matrix(1,0,0,0.999999,5.68434e-14,0.000438387)"><text x="489.759px" y="711.392px" style="font-family:'HiraKakuProN-W3', 'Hiragino Kaku Gothic ProN', sans-serif;font-weight:300;font-size:72px;fill:#0e1517;">音</text></g></g><g><g transform="matrix(1,0,0,0.999999,1.13687e-13,0.000349648)"><text x="669.76px" y="567.391px" style="font-family:'HiraKakuProN-W3', 'Hiragino Kaku Gothic ProN', sans-serif;font-weight:300;font-size:72px;fill:#0e1517;">中</text></g><g transform="matrix(1,0,0,0.999999,1.13687e-13,0.000394018)"><text x="669.76px" y="639.392px" style="font-family:'HiraKakuProN-W3', 'Hiragino Kaku Gothic ProN', sans-serif;font-weight:300;font-size:72px;fill:#0e1517;">音</text></g></g><g><g transform="matrix(1,0,0,0.999999,0,0.000349648)"><text x="1209.76px" y="567.391px" style="font-family:'HiraKakuProN-W3', 'Hiragino Kaku Gothic ProN', sans-serif;font-weight:300;font-size:72px;fill:#0e1517;">下</text></g><g transform="matrix(1,0,0,0.999999,0,0.000394018)"><text x="1209.76px" y="639.392px" style="font-family:'HiraKakuProN-W3', 'Hiragino Kaku Gothic ProN', sans-serif;font-weight:300;font-size:72px;fill:#0e1517;">中</text></g><g transform="matrix(1,0,0,0.999999,0,0.000438387)"><text x="1209.76px" y="711.392px" style="font-family:'HiraKakuProN-W3', 'Hiragino Kaku Gothic ProN', sans-serif;font-weight:300;font-size:72px;fill:#0e1517;">音</text></g></g><g><g transform="matrix(1,0,0,0.999999,0,0.000349648)"><text x="859.76px" y="567.391px" style="font-family:'HiraKakuProN-W3', 'Hiragino Kaku Gothic ProN', sans-serif;font-weight:300;font-size:72px;fill:#0e1517;">下</text></g><g transform="matrix(1,0,0,0.999999,0,0.000394018)"><text x="859.76px" y="639.392px" style="font-family:'HiraKakuProN-W3', 'Hiragino Kaku Gothic ProN', sans-serif;font-weight:300;font-size:72px;fill:#0e1517;">属</text></g><g transform="matrix(1,0,0,0.999999,0,0.000438387)"><text x="859.76px" y="711.392px" style="font-family:'HiraKakuProN-W3', 'Hiragino Kaku Gothic ProN', sans-serif;font-weight:300;font-size:72px;fill:#0e1517;">音</text></g></g><g><g transform="matrix(1,0,0,0.999999,2.27374e-13,0.000349648)"><text x="1039.76px" y="567.391px" style="font-family:'HiraKakuProN-W3', 'Hiragino Kaku Gothic ProN', sans-serif;font-weight:300;font-size:72px;fill:#0e1517;">属</text></g><g transform="matrix(1,0,0,0.999999,2.27374e-13,0.000394018)"><text x="1039.76px" y="639.392px" style="font-family:'HiraKakuProN-W3', 'Hiragino Kaku Gothic ProN', sans-serif;font-weight:300;font-size:72px;fill:#0e1517;">音</text></g></g></g></g></svg>