<?xml version="1.0" encoding="UTF-8" standalone="no"?><!DOCTYPE svg PUBLIC "-//W3C//DTD SVG 1.1//EN" "http://www.w3.org/Graphics/SVG/1.1/DTD/svg11.dtd"><svg width="1561px" height="878px" viewBox="0 0 1561 878" version="1.1" xmlns="http://www.w3.org/2000/svg" xmlns:xlink="http://www.w3.org/1999/xlink" xml:space="preserve" xmlns:serif="http://www.serif.com/" style="fill-rule:evenodd;clip-rule:evenodd;stroke-linecap:round;stroke-linejoin:round;stroke-miterlimit:1.5;"><g><g id="_2-3_bunsu" serif:id="2-3_bunsu"><rect x="0" y="0" width="1560.69" height="877.344" style="fill:none;"/><g id="譜面"><g id="外枠"><rect x="256.398" y="219.515" width="1104.63" height="208.814" style="fill:#fff;fill-opacity:0.78;stroke:#000;stroke-width:1.5px;"/></g><path id="E線" d="M256.395,428.851l1104.63,0" style="fill:none;stroke:#000;stroke-width:0.99px;"/><g id="G線"><path d="M256.395,376.516l1104.63,0" style="fill:none;stroke:#000;stroke-width:0.99px;"/></g><g id="B線"><path d="M256.395,324.182l1104.63,-0" style="fill:none;stroke:#000;stroke-width:0.99px;"/></g><g id="D線"><path d="M256.395,271.847l1104.63,-0" style="fill:none;stroke:#000;stroke-width:0.99px;"/></g></g><g id="譜面1" serif:id="譜面"><g id="外枠1" serif:id="外枠"><rect x="256.398" y="619.513" width="1104.63" height="208.814" style="fill:#fff;fill-opacity:0.78;stroke:#000;stroke-width:1.5px;"/></g><path id="E線1" serif:id="E線" d="M256.395,828.85l1104.63,-0" style="fill:none;stroke:#000;stroke-width:0.99px;"/><g id="G線1" serif:id="G線"><path d="M256.395,776.515l1104.63,-0" style="fill:none;stroke:#000;stroke-width:0.99px;"/></g><g id="B線1" serif:id="B線"><path d="M256.395,724.18l1104.63,-0" style="fill:none;stroke:#000;stroke-width:0.99px;"/></g><g id="D線1" serif:id="D線"><path d="M256.395,671.845l1104.63,-0" style="fill:none;stroke:#000;stroke-width:0.99px;"/></g></g><g><g><path d="M559.752,110.958c13.92,0 21.12,5.568 21.12,5.568l-0,13.92l-9.408,0l-0,-1.44c-0.384,-5.184 -3.072,-9.792 -12.192,-9.792c-12.384,0 -20.352,10.56 -20.352,26.304c-0,14.976 6.72,27.456 20.832,27.456c14.208,0 17.952,-9.984 17.952,-9.984c-0,-0.096 3.648,-0.096 3.648,-0.096l-0,12.48c-0,0 -7.776,6.24 -23.232,6.24c-20.64,0 -31.872,-15.168 -31.968,-35.808c-0,-24.384 18.72,-34.848 33.6,-34.848Z" style="fill-rule:nonzero;"/></g></g><g><g><path d="M824.752,108.959c13.92,0 21.12,5.568 21.12,5.568l0,13.92l-9.408,0l0,-1.44c-0.384,-5.184 -3.072,-9.792 -12.192,-9.792c-12.384,0 -20.352,10.56 -20.352,26.304c0,14.976 6.72,27.456 20.832,27.456c14.208,-0 17.952,-9.984 17.952,-9.984c0,-0.096 3.648,-0.096 3.648,-0.096l0,12.48c0,-0 -7.776,6.24 -23.232,6.24c-20.64,-0 -31.872,-15.168 -31.968,-35.808c0,-24.384 18.72,-34.848 33.6,-34.848Z" style="fill-rule:nonzero;"/></g></g><g><g><path d="M853.09,183.047l3.24,1.512l1.44,-0l29.952,-67.464l-3.6,-1.656l-1.368,0l-29.664,67.608Z" style="fill-rule:nonzero;"/></g><g><path d="M891.683,124.799c-0,0 6.984,0.288 11.376,0.288c8.28,0 26.352,-0.288 26.352,-0.288l-0,12.312l-5.112,0c-0,-3.024 -0.288,-6.552 -6.984,-6.552l-10.152,0c-0,0 -0.144,8.928 -0.144,17.424l6.336,0c3.24,0 3.096,-1.368 3.168,-4.392l4.464,0l-0,13.464l-4.32,-0c-0,-2.52 0.216,-4.032 -3.168,-4.032l-6.48,-0c-0,7.632 0.144,16.416 0.144,16.416l11.592,-0c6.48,-0 7.128,-4.104 7.128,-6.48l5.688,-0l-0,12.24c-0,-0 -20.736,-0.288 -28.8,-0.288c-4.968,-0 -11.448,0.288 -11.448,0.288l-0,-4.32c5.184,-0 7.128,-1.512 7.128,-7.056c0.072,-2.736 0.216,-8.496 0.216,-14.328c-0,-6.336 -0.072,-12.816 -0.216,-15.624c-0,-3.168 -0.144,-4.68 -6.768,-4.752l-0,-4.32Z" style="fill-rule:nonzero;"/></g></g><g><g><path d="M1124.75,108.959c13.92,0 21.12,5.568 21.12,5.568l-0,13.92l-9.408,0l-0,-1.44c-0.384,-5.184 -3.072,-9.792 -12.192,-9.792c-12.384,0 -20.352,10.56 -20.352,26.304c-0,14.976 6.72,27.456 20.832,27.456c14.208,-0 17.952,-9.984 17.952,-9.984c-0,-0.096 3.648,-0.096 3.648,-0.096l-0,12.48c-0,-0 -7.776,6.24 -23.232,6.24c-20.64,-0 -31.872,-15.168 -31.968,-35.808c-0,-24.384 18.72,-34.848 33.6,-34.848Z" style="fill-rule:nonzero;"/></g></g><g><g><path d="M1150.5,183.047l3.24,1.512l1.44,-0l29.952,-67.464l-3.6,-1.656l-1.368,0l-29.664,67.608Z" style="fill-rule:nonzero;"/></g><g><path d="M1215.01,123.503c10.728,0 15.912,4.176 15.912,4.176l-0,10.44l-7.2,0l-0,-1.08c-0,-4.032 -2.592,-7.344 -9.576,-7.344c-9.505,0 -15.841,7.92 -15.841,19.656c0,13.392 5.04,20.952 15.769,20.952c5.76,-0 8.856,-2.16 8.856,-2.16l-0,-9.936c-0,-1.944 -0.288,-2.448 -3.384,-2.448l-5.688,-0l-0,-4.68c-0,-0 6.336,0.216 11.952,0.216c3.888,-0 7.992,-0.216 7.992,-0.216l-0,4.68c-2.88,-0 -2.88,0.864 -2.88,2.88l-0,13.176c-0,-0 -6.912,4.68 -17.28,4.68c-10.945,-0 -24.913,-6.408 -24.913,-26.136c0,-19.872 16.416,-26.856 26.281,-26.856Z" style="fill-rule:nonzero;"/></g></g><g id="path7229"><path d="M559.553,723.879c-24.503,0 -44.354,11.929 -44.354,26.557c-0,14.626 19.851,26.484 44.354,26.484c24.504,-0 44.428,-11.858 44.428,-26.484c0,-14.628 -19.924,-26.557 -44.428,-26.557Zm-10.838,4.809c6.373,-0.082 14.224,2.41 21.605,7.394c13.122,8.856 19.706,22.195 14.713,29.712c-4.993,7.517 -19.678,6.417 -32.799,-2.439c-13.124,-8.858 -19.706,-22.198 -14.716,-29.715c2.187,-3.289 6.243,-4.887 11.197,-4.952Z" style="fill-rule:nonzero;"/></g><g id="path72291" serif:id="path7229"><path d="M1143.96,619.512c-24.504,0 -44.355,11.93 -44.355,26.557c0,14.626 19.851,26.484 44.355,26.484c24.504,-0 44.428,-11.858 44.428,-26.484c-0,-14.627 -19.924,-26.557 -44.428,-26.557Zm-10.838,4.81c6.373,-0.083 14.223,2.409 21.605,7.393c13.121,8.856 19.706,22.195 14.713,29.713c-4.993,7.517 -19.679,6.417 -32.8,-2.44c-13.123,-8.858 -19.706,-22.197 -14.715,-29.715c2.187,-3.288 6.243,-4.887 11.197,-4.951Z" style="fill:#f15031;fill-rule:nonzero;"/></g><g id="path72292" serif:id="path7229"><path d="M848.425,670.879c-24.504,-0 -44.354,11.929 -44.354,26.557c-0,14.625 19.85,26.483 44.354,26.483c24.504,0 44.428,-11.858 44.428,-26.483c-0,-14.628 -19.924,-26.557 -44.428,-26.557Zm-10.838,4.809c6.373,-0.083 14.223,2.409 21.605,7.393c13.121,8.856 19.706,22.196 14.713,29.713c-4.993,7.517 -19.678,6.417 -32.8,-2.439c-13.123,-8.859 -19.706,-22.198 -14.715,-29.715c2.187,-3.289 6.243,-4.888 11.197,-4.952Z" style="fill:#f15031;fill-rule:nonzero;"/></g><g><path d="M256.396,219.513l-0,609.883" style="fill:none;stroke:#000;stroke-width:3px;"/></g><g><path d="M1361.03,219.513l-0,609.883" style="fill:none;stroke:#000;stroke-width:3px;"/></g><g id="｛"><path d="M245.548,826.587l-0,-598.89l-0,598.89Zm-16.073,-598.821c-1.813,0.107 -3.739,2.026 -7.016,6.74c-6.631,8.779 -16.144,29.339 -19.945,40.06c-5.698,22.492 -7.567,49.843 -5.668,76.248c0.931,8.769 2.802,28.296 5.668,43.931c4.732,37.165 5.703,52.801 5.703,68.436c-0.969,25.405 -7.574,45.906 -18.042,59.588c-1.9,1.953 -2.834,3.908 -2.834,4.909c-0,1 0.934,2.955 2.834,4.908c10.468,13.682 17.073,34.166 18.042,58.62c0,16.586 -0.971,32.203 -5.703,68.368c-2.866,16.635 -4.737,36.182 -5.668,44c-1.899,27.357 -0.03,54.721 5.668,76.213c4.732,17.587 21.847,47.906 26.615,47.906c1.9,-0 3.802,-1.979 3.802,-3.941c-0,-0.991 -1.902,-3.891 -3.802,-6.843c-11.399,-16.587 -16.177,-33.217 -18.077,-58.62c0,-15.637 0.972,-30.309 5.703,-67.435c1.9,-14.635 3.803,-32.226 4.77,-39.092c3.801,-46.895 -3.779,-86.964 -22.778,-116.273c-2.869,-3.913 -4.77,-7.811 -4.77,-7.811c-0,0 1.901,-3.933 4.77,-7.846c18.999,-29.309 26.579,-69.379 22.778,-117.275c-0.967,-5.867 -2.87,-23.433 -4.77,-39.058c-4.731,-36.136 -5.703,-50.832 -5.703,-66.467c1.9,-25.405 6.678,-42.033 18.077,-58.62c3.8,-5.866 4.769,-7.795 2.87,-9.747c-0.897,-0.614 -1.699,-0.948 -2.524,-0.899Z"/></g><g id="F"><path d="M275.261,802.385c15.622,-10.549 27.289,-18.534 34.804,-24.055c7.514,-5.422 15.424,-12.224 23.532,-20.308c8.107,-8.084 14.93,-17.252 20.467,-27.406c4.35,-7.493 8.107,-16.168 11.172,-26.026c3.065,-9.76 4.647,-19.224 4.944,-28.195c0,-8.38 -1.088,-16.365 -3.362,-23.858c-2.175,-7.59 -5.932,-13.801 -11.271,-18.829c-5.339,-4.929 -12.261,-7.394 -20.863,-7.394c-8.305,0 -16.116,1.676 -23.433,4.929c-7.218,3.352 -12.359,8.676 -15.226,16.168c-0,0.69 -0.396,1.577 -0.989,2.859c0.198,1.577 0.989,2.76 2.472,3.648c1.483,0.887 2.768,1.281 3.955,1.281c0.593,0 2.274,-0.296 4.845,-0.887c2.669,-0.592 4.844,-0.986 6.624,-0.986c5.24,0 9.887,1.873 14.139,5.521c4.153,3.647 6.229,8.084 6.229,13.309c0,3.746 -1.088,7.295 -3.164,10.548c-2.076,3.253 -4.944,5.915 -8.602,7.788c-3.658,1.972 -7.712,2.859 -12.063,2.859c-7.909,0 -14.633,-2.366 -20.17,-7.196c-5.438,-4.93 -8.206,-11.14 -8.206,-18.929c-0,-9.957 3.065,-18.533 9.096,-25.828c6.13,-7.296 13.842,-12.718 23.334,-16.365c9.393,-3.747 18.885,-5.521 28.575,-5.521c10.579,-0 20.665,2.662 30.058,8.084c9.491,5.323 16.907,12.717 22.444,21.885c5.537,9.267 8.404,19.126 8.404,29.773c0,18.928 -6.328,36.476 -18.984,52.742c-12.655,16.266 -28.278,30.364 -46.965,42.391c-12.458,8.182 -32.628,19.224 -60.412,33.124l-1.384,-5.126Zm137.336,-152.509c0,-3.549 1.285,-6.507 3.856,-8.873c2.472,-2.464 5.537,-3.647 9.195,-3.647c3.164,-0 6.131,1.38 8.8,4.042c2.67,2.563 3.955,5.619 3.955,8.971c0,3.549 -1.384,6.605 -3.955,9.069c-2.768,2.366 -5.833,3.549 -9.294,3.549c-3.658,0 -6.625,-1.183 -8.998,-3.844c-2.373,-2.564 -3.559,-5.62 -3.559,-9.267Zm0,51.658c0,-3.549 1.285,-6.606 3.658,-8.972c2.472,-2.464 5.537,-3.647 9.393,-3.647c3.164,-0 6.032,1.281 8.8,3.943c2.571,2.662 3.955,5.521 3.955,8.676c0,3.844 -1.285,6.9 -3.757,9.365c-2.571,2.465 -5.537,3.746 -8.998,3.746c-3.856,0 -6.921,-1.281 -9.393,-3.647c-2.373,-2.366 -3.658,-5.521 -3.658,-9.464Z" style="fill:#131516;stroke:#131516;stroke-width:0.3px;stroke-linecap:butt;stroke-linejoin:miter;stroke-miterlimit:4;"/></g><g id="G"><path d="M344.008,354.838c-4.823,0.989 -9.293,3.636 -13.559,7.852c-4.273,4.293 -6.56,9.191 -6.933,14.608c-0.235,3.406 0.662,7.355 2.629,11.613c1.961,4.334 5.167,7.589 9.456,9.829c1.452,0.411 2.097,1.233 2.022,2.316c-0.027,0.388 -0.596,0.737 -1.937,0.956c-6.937,-2.267 -12.494,-6.461 -16.605,-12.422c-4.104,-6.037 -5.983,-12.7 -5.625,-20.14c0.783,-7.956 3.701,-15.22 8.747,-21.715c5.131,-6.567 11.442,-11.031 18.932,-13.392l-3.458,-27.845c-12.631,9.082 -23.039,18.707 -31.313,29.023c-8.268,10.239 -12.953,21.658 -14.134,34.253c-0.235,5.661 0.55,11.236 2.359,16.648c1.804,5.491 4.731,10.515 8.771,15.226c8.164,9.35 19.254,14.704 33.11,16.127c4.754,0.016 9.856,-0.487 15.383,-1.506l-7.845,-61.431Zm5.64,-0.388l7.997,60.353c12.279,-3.974 18.974,-14.011 20.074,-29.955c-0.33,-5.388 -1.551,-10.294 -3.895,-14.732c-2.261,-4.511 -5.44,-8.152 -9.613,-10.929c-4.174,-2.776 -8.977,-4.351 -14.563,-4.737Zm-10.351,-81.59c2.667,-1.372 5.802,-3.877 9.245,-7.45c3.437,-3.496 6.845,-7.693 10.135,-12.442c3.373,-4.823 6.13,-9.765 8.273,-14.827c2.137,-4.985 3.327,-9.802 3.636,-14.292c0.134,-1.934 0.112,-3.88 -0.158,-5.61c-0.118,-2.807 -0.822,-5.033 -2.195,-6.605c-1.378,-1.495 -3.187,-2.398 -5.514,-2.559c-4.655,-0.32 -9.042,2.254 -13.162,7.724c-3.212,4.756 -6.023,10.472 -8.189,17.01c-2.249,6.611 -3.717,13.197 -4.337,19.92c-0.141,7.689 0.668,14.043 2.266,19.131Zm-5.198,4.152c-2.626,-12.779 -3.684,-25.684 -3.175,-38.713c0.654,-8.353 2.047,-16.112 4.179,-23.274c2.053,-7.169 4.736,-13.283 8.058,-18.497c3.244,-5.219 6.863,-9.091 10.78,-11.621c3.506,-2.247 6.003,-3.396 7.321,-3.305c1.009,0.069 1.836,0.515 2.564,1.266c0.727,0.75 1.656,1.98 2.79,3.613c8.331,13.718 11.896,29.828 10.626,48.248c-0.604,8.746 -2.355,17.18 -5.27,25.532c-2.833,8.281 -6.724,16.101 -11.664,23.302c-5.024,7.275 -10.753,13.49 -17.273,18.717l4.181,30.928c3.44,-0.152 5.79,-0.3 7.108,-0.21c5.897,0.407 11.087,2.01 15.804,4.823c4.717,2.815 8.677,6.432 11.797,10.924c3.125,4.415 5.432,9.395 6.92,14.942c1.411,5.541 2.03,11.26 1.624,17.143c-0.63,9.132 -3.612,17.325 -8.941,24.501c-5.327,7.175 -12.922,12.172 -22.866,15.064c0.359,3.835 1.066,9.405 2.209,16.56c1.061,7.228 1.834,12.958 2.322,17.191c0.487,4.233 0.52,8.279 0.248,12.226c-0.422,6.114 -2.27,11.431 -5.549,16.026c-3.357,4.59 -7.648,8.026 -12.95,10.304c-5.225,2.284 -10.902,3.214 -16.953,2.797c-8.535,-0.589 -15.818,-3.502 -21.853,-8.662c-6.032,-5.238 -9.002,-11.898 -8.746,-20.123c0.484,-3.622 1.572,-6.968 3.348,-10.111c1.776,-3.144 4.052,-5.631 6.907,-7.456c2.782,-1.908 6.038,-2.772 9.7,-2.752c3.026,0.209 5.838,1.258 8.441,3.07c2.521,1.885 4.538,4.279 5.969,7.256c1.355,2.971 1.989,6.202 1.754,9.608c-0.315,4.566 -2.133,8.329 -5.456,11.288c-3.322,2.959 -7.391,4.311 -12.124,3.985l-1.784,-0.123c2.705,4.853 7.505,7.594 14.41,8.071c3.492,0.241 7.114,-0.287 10.779,-1.434c3.748,-1.219 6.907,-2.945 9.638,-5.245c2.731,-2.3 4.62,-4.814 5.511,-7.552c1.537,-3.082 2.462,-7.451 2.842,-12.946c0.256,-3.715 0.125,-7.457 -0.318,-11.22c-0.447,-3.686 -1.197,-8.637 -2.254,-14.775c-1.063,-6.061 -1.829,-10.781 -2.231,-13.997c-4.735,0.84 -9.588,1.128 -14.631,0.78c-8.457,-0.584 -16.33,-2.838 -23.616,-6.84c-7.285,-4.002 -13.549,-9.256 -18.863,-15.844c-5.237,-6.582 -9.178,-13.853 -11.814,-21.967c-2.565,-8.031 -3.628,-16.348 -3.118,-24.867c0.855,-7.873 2.853,-15.356 6.137,-22.283c3.29,-7.006 7.329,-13.57 12.189,-19.612c4.86,-6.041 9.838,-11.53 14.928,-16.389c5.163,-4.776 11.902,-10.921 20.365,-18.347Z" style="fill:#131516;stroke:#131516;stroke-width:0.23px;stroke-linecap:butt;stroke-linejoin:miter;stroke-miterlimit:4;"/></g><g id="path72293" serif:id="path7229"><path d="M559.839,402.552c-24.504,-0 -44.355,11.929 -44.355,26.557c0,14.625 19.851,26.483 44.355,26.483c24.503,0 44.428,-11.858 44.428,-26.483c-0,-14.628 -19.925,-26.557 -44.428,-26.557Zm-10.839,4.809c6.374,-0.083 14.224,2.409 21.606,7.393c13.121,8.856 19.706,22.196 14.713,29.713c-4.994,7.517 -19.679,6.417 -32.8,-2.439c-13.124,-8.859 -19.706,-22.198 -14.715,-29.715c2.186,-3.289 6.242,-4.888 11.196,-4.952Z" style="fill-rule:nonzero;"/></g><g id="path72294" serif:id="path7229"><path d="M559.839,455.551c-24.504,0 -44.355,11.929 -44.355,26.557c0,14.626 19.851,26.484 44.355,26.484c24.503,-0 44.428,-11.858 44.428,-26.484c-0,-14.628 -19.925,-26.557 -44.428,-26.557Zm-10.839,4.809c6.374,-0.082 14.224,2.41 21.606,7.394c13.121,8.856 19.706,22.195 14.713,29.712c-4.994,7.517 -19.679,6.417 -32.8,-2.439c-13.124,-8.858 -19.706,-22.198 -14.715,-29.715c2.186,-3.289 6.242,-4.887 11.196,-4.952Z" style="fill-rule:nonzero;"/></g><g id="path72295" serif:id="path7229"><path d="M559.839,349.115c-24.504,-0 -44.355,11.929 -44.355,26.557c0,14.625 19.851,26.483 44.355,26.483c24.503,0 44.428,-11.858 44.428,-26.483c-0,-14.628 -19.925,-26.557 -44.428,-26.557Zm-10.839,4.809c6.374,-0.083 14.224,2.409 21.606,7.393c13.121,8.856 19.706,22.196 14.713,29.713c-4.994,7.517 -19.679,6.417 -32.8,-2.439c-13.124,-8.859 -19.706,-22.198 -14.715,-29.715c2.186,-3.289 6.242,-4.888 11.196,-4.952Z" style="fill-rule:nonzero;"/></g><g><path d="M499.575,482.072l119,0" style="fill:none;stroke:#000;stroke-width:2px;"/></g><g id="path72296" serif:id="path7229"><path d="M849.839,402.552c-24.503,-0 -44.354,11.929 -44.354,26.557c0,14.625 19.851,26.483 44.354,26.483c24.504,0 44.428,-11.858 44.428,-26.483c0,-14.628 -19.924,-26.557 -44.428,-26.557Zm-10.838,4.809c6.374,-0.083 14.224,2.409 21.605,7.393c13.122,8.856 19.706,22.196 14.713,29.713c-4.993,7.517 -19.678,6.417 -32.799,-2.439c-13.124,-8.859 -19.706,-22.198 -14.715,-29.715c2.186,-3.289 6.242,-4.888 11.196,-4.952Z" style="fill-rule:nonzero;"/></g><g id="path72297" serif:id="path7229"><path d="M849.839,455.551c-24.503,0 -44.354,11.929 -44.354,26.557c0,14.626 19.851,26.484 44.354,26.484c24.504,-0 44.428,-11.858 44.428,-26.484c0,-14.628 -19.924,-26.557 -44.428,-26.557Zm-10.838,4.809c6.374,-0.082 14.224,2.41 21.605,7.394c13.122,8.856 19.706,22.195 14.713,29.712c-4.993,7.517 -19.678,6.417 -32.799,-2.439c-13.124,-8.858 -19.706,-22.198 -14.715,-29.715c2.186,-3.289 6.242,-4.887 11.196,-4.952Z" style="fill-rule:nonzero;"/></g><g id="path72298" serif:id="path7229"><path d="M849.839,349.115c-24.503,-0 -44.354,11.929 -44.354,26.557c0,14.625 19.851,26.483 44.354,26.483c24.504,0 44.428,-11.858 44.428,-26.483c0,-14.628 -19.924,-26.557 -44.428,-26.557Zm-10.838,4.809c6.374,-0.083 14.224,2.409 21.605,7.393c13.122,8.856 19.706,22.196 14.713,29.713c-4.993,7.517 -19.678,6.417 -32.799,-2.439c-13.124,-8.859 -19.706,-22.198 -14.715,-29.715c2.186,-3.289 6.242,-4.888 11.196,-4.952Z" style="fill-rule:nonzero;"/></g><g><path d="M789.583,482.072l119.001,0" style="fill:none;stroke:#000;stroke-width:2px;"/></g><g id="path72299" serif:id="path7229"><path d="M1139.84,402.552c-24.504,-0 -44.354,11.929 -44.354,26.557c-0,14.625 19.85,26.483 44.354,26.483c24.504,0 44.428,-11.858 44.428,-26.483c-0,-14.628 -19.924,-26.557 -44.428,-26.557Zm-10.838,4.809c6.373,-0.083 14.223,2.409 21.605,7.393c13.121,8.856 19.706,22.196 14.713,29.713c-4.993,7.517 -19.678,6.417 -32.8,-2.439c-13.123,-8.859 -19.706,-22.198 -14.715,-29.715c2.187,-3.289 6.243,-4.888 11.197,-4.952Z" style="fill-rule:nonzero;"/></g><g id="path722910" serif:id="path7229"><path d="M1139.84,455.551c-24.504,0 -44.354,11.929 -44.354,26.557c-0,14.626 19.85,26.484 44.354,26.484c24.504,-0 44.428,-11.858 44.428,-26.484c-0,-14.628 -19.924,-26.557 -44.428,-26.557Zm-10.838,4.809c6.373,-0.082 14.223,2.41 21.605,7.394c13.121,8.856 19.706,22.195 14.713,29.712c-4.993,7.517 -19.678,6.417 -32.8,-2.439c-13.123,-8.858 -19.706,-22.198 -14.715,-29.715c2.187,-3.289 6.243,-4.887 11.197,-4.952Z" style="fill-rule:nonzero;"/></g><g id="path722911" serif:id="path7229"><path d="M1139.84,349.115c-24.504,-0 -44.354,11.929 -44.354,26.557c-0,14.625 19.85,26.483 44.354,26.483c24.504,0 44.428,-11.858 44.428,-26.483c-0,-14.628 -19.924,-26.557 -44.428,-26.557Zm-10.838,4.809c6.373,-0.083 14.223,2.409 21.605,7.393c13.121,8.856 19.706,22.196 14.713,29.713c-4.993,7.517 -19.678,6.417 -32.8,-2.439c-13.123,-8.859 -19.706,-22.198 -14.715,-29.715c2.187,-3.289 6.243,-4.888 11.197,-4.952Z" style="fill-rule:nonzero;"/></g><g><path d="M1079.58,482.072l119,0" style="fill:none;stroke:#000;stroke-width:2px;"/></g><g><path d="M958.707,73.67l6.315,5.488l-21.261,24.47l5.869,5.1l-16.867,1.18l-1.183,-16.863l5.865,5.096l21.262,-24.471Z" style="fill:#f15031;"/></g><g><path d="M1263.66,78.803l6.316,5.487l-21.262,24.471l5.87,5.099l-16.867,1.18l-1.183,-16.862l5.865,5.095l21.261,-24.47Z" style="fill:#f15031;"/></g></g><g><path d="M997.092,46.884c0.832,-0 1.512,0.232 2.04,0.696c0.528,0.464 0.776,1.4 0.744,2.808c-0.064,1.984 -0.224,3.624 -0.48,4.92c-0.256,1.296 -0.696,2.336 -1.32,3.12c-0.624,0.784 -1.448,1.352 -2.472,1.704c-1.024,0.352 -2.336,0.56 -3.936,0.624l0.048,-0c-1.824,0.128 -3.624,0.192 -5.4,0.192c-1.776,-0 -3.544,-0.048 -5.304,-0.144c-1.824,-0.096 -3.32,-0.296 -4.488,-0.6c-1.168,-0.304 -2.088,-0.768 -2.76,-1.392c-0.672,-0.624 -1.136,-1.432 -1.392,-2.424c-0.256,-0.992 -0.384,-2.208 -0.384,-3.648l-0,-29.952c-0,-1.824 0.376,-3.08 1.128,-3.768c0.752,-0.688 2.04,-1.032 3.864,-1.032l15.216,-0c1.888,-0 3.2,0.368 3.936,1.104c0.736,0.736 1.104,1.936 1.104,3.6l-0,14.256c-0,0.864 -0.072,1.608 -0.216,2.232c-0.144,0.624 -0.408,1.128 -0.792,1.512c-0.384,0.384 -0.904,0.664 -1.56,0.84c-0.656,0.176 -1.48,0.264 -2.472,0.264l-14.544,-0l-0,10.8c-0,0.928 0.24,1.592 0.72,1.992c0.48,0.4 1.536,0.632 3.168,0.696c1.696,0.064 3.288,0.08 4.776,0.048c1.488,-0.032 3.096,-0.08 4.824,-0.144c0.576,-0.032 1.048,-0.12 1.416,-0.264c0.368,-0.144 0.664,-0.392 0.888,-0.744c0.224,-0.352 0.392,-0.84 0.504,-1.464c0.112,-0.624 0.184,-1.448 0.216,-2.472c0.064,-1.344 0.304,-2.24 0.72,-2.688c0.416,-0.448 1.152,-0.672 2.208,-0.672Zm-31.488,-16.656l-0,5.76l1.008,-0.72c1.504,-1.088 2.896,-0.928 4.176,0.48c0.448,0.8 0.616,1.496 0.504,2.088c-0.112,0.592 -0.664,1.272 -1.656,2.04c-0.544,0.448 -1.16,0.912 -1.848,1.392c-0.688,0.48 -1.416,0.976 -2.184,1.488l-0,13.008c-0,1.824 -0.368,3.232 -1.104,4.224c-0.736,0.992 -1.968,1.488 -3.696,1.488c-1.088,-0 -2.384,-0.304 -3.888,-0.912c-0.992,-0.416 -1.624,-0.968 -1.896,-1.656c-0.272,-0.688 -0.248,-1.432 0.072,-2.232c0.352,-0.928 0.824,-1.528 1.416,-1.8c0.592,-0.272 1.496,-0.184 2.712,0.264c0.32,0.128 0.536,0.144 0.648,0.048c0.112,-0.096 0.168,-0.336 0.168,-0.72l-0,-8.592c-0.288,0.16 -0.568,0.304 -0.84,0.432c-0.272,0.128 -0.552,0.256 -0.84,0.384c-2.112,0.992 -3.52,0.656 -4.224,-1.008c-0.416,-1.024 -0.416,-1.872 -0,-2.544c0.416,-0.672 1.136,-1.232 2.16,-1.68c1.184,-0.512 2.432,-1.136 3.744,-1.872l-0,-9.36l-3.216,-0c-1.024,-0 -1.744,-0.232 -2.16,-0.696c-0.416,-0.464 -0.624,-1.16 -0.624,-2.088c-0,-0.928 0.208,-1.624 0.624,-2.088c0.416,-0.464 1.136,-0.696 2.16,-0.696l3.216,-0l-0,-6.24c-0,-1.024 0.248,-1.744 0.744,-2.16c0.496,-0.416 1.192,-0.624 2.088,-0.624c1.824,-0 2.736,0.928 2.736,2.784l-0,6.24l2.784,-0c1.024,-0 1.744,0.232 2.16,0.696c0.416,0.464 0.624,1.16 0.624,2.088c-0,0.928 -0.208,1.624 -0.624,2.088c-0.416,0.464 -1.136,0.696 -2.16,0.696l-2.784,-0Zm21.84,-6.672l-0,12.72l2.352,-0c0.768,-0 1.28,-0.088 1.536,-0.264c0.256,-0.176 0.384,-0.616 0.384,-1.32l-0,-9.552c-0,-0.704 -0.144,-1.144 -0.432,-1.32c-0.288,-0.176 -0.8,-0.264 -1.536,-0.264l-2.304,-0Zm-5.616,12.72l-0,-12.72l-2.304,-0c-0.768,-0 -1.272,0.12 -1.512,0.36c-0.24,0.24 -0.36,0.584 -0.36,1.032l-0,11.328l4.176,-0Z" style="fill:#f15031;fill-rule:nonzero;"/><path d="M1007.99,59.748c-0.544,1.216 -1.208,1.96 -1.992,2.232c-0.784,0.272 -1.592,0.152 -2.424,-0.36c-0.896,-0.448 -1.424,-1.024 -1.584,-1.728c-0.16,-0.704 0.08,-1.664 0.72,-2.88c0.608,-1.248 1.12,-2.424 1.536,-3.528c0.416,-1.104 0.76,-2.352 1.032,-3.744c0.272,-1.392 0.472,-3 0.6,-4.824c0.128,-1.824 0.192,-4.08 0.192,-6.768l-0,-15.216c-0,-1.792 0.328,-3.056 0.984,-3.792c0.656,-0.736 1.896,-1.104 3.72,-1.104l29.424,-0c1.728,-0 3.016,0.36 3.864,1.08c0.848,0.72 1.272,1.992 1.272,3.816l-0,32.496c-0,2.016 -0.488,3.528 -1.464,4.536c-0.976,1.008 -2.568,1.512 -4.776,1.512c-0.832,-0 -1.712,-0.104 -2.64,-0.312c-0.928,-0.208 -2.112,-0.504 -3.552,-0.888c-0.96,-0.288 -1.616,-0.784 -1.968,-1.488c-0.352,-0.704 -0.432,-1.408 -0.24,-2.112c0.256,-0.928 0.704,-1.576 1.344,-1.944c0.64,-0.368 1.664,-0.328 3.072,0.12l-0.048,-0c0.992,0.32 1.76,0.544 2.304,0.672c0.544,0.128 1.056,0.192 1.536,0.192c0.384,-0 0.576,-0.224 0.576,-0.672l-0,-7.056l-11.04,-0l-0,10.944c-0,1.12 -0.28,1.856 -0.84,2.208c-0.56,0.352 -1.272,0.528 -2.136,0.528c-0.928,-0 -1.664,-0.176 -2.208,-0.528c-0.544,-0.352 -0.816,-1.088 -0.816,-2.208l-0,-10.944l-11.04,-0c-0.128,1.184 -0.296,2.288 -0.504,3.312c-0.208,1.024 -0.456,2 -0.744,2.928c-0.288,0.928 -0.616,1.848 -0.984,2.76c-0.368,0.912 -0.776,1.848 -1.224,2.808l0.048,-0.048Zm20.448,-17.472l11.04,-0l-0,-6.624l-11.04,-0l-0,6.624Zm-16.56,-6.624l-0,4.584c-0,0.72 -0.016,1.4 -0.048,2.04l10.608,-0l-0,-6.624l-10.56,-0Zm16.56,-11.904l-0,6.192l11.04,-0l-0,-4.032c-0,-0.96 -0.088,-1.56 -0.264,-1.8c-0.176,-0.24 -0.6,-0.36 -1.272,-0.36l-9.504,-0Zm-16.56,6.192l10.56,-0l-0,-6.192l-9.12,-0c-0.608,-0 -1,0.128 -1.176,0.384c-0.176,0.256 -0.264,0.848 -0.264,1.776l-0,4.032Z" style="fill:#f15031;fill-rule:nonzero;"/><path d="M1053.59,26.436c-1.088,-0 -1.824,-0.248 -2.208,-0.744c-0.384,-0.496 -0.576,-1.192 -0.576,-2.088c-0,-0.864 0.192,-1.56 0.576,-2.088c0.384,-0.528 1.12,-0.792 2.208,-0.792l11.952,-0c0.096,-0.288 0.2,-0.584 0.312,-0.888c0.112,-0.304 0.216,-0.632 0.312,-0.984c0.288,-1.472 0.704,-2.408 1.248,-2.808c0.544,-0.4 1.328,-0.488 2.352,-0.264c1.056,0.192 1.752,0.672 2.088,1.44c0.336,0.768 0.328,1.68 -0.024,2.736c-0.064,0.16 -0.104,0.296 -0.12,0.408c-0.016,0.112 -0.04,0.232 -0.072,0.36l20.16,-0c1.088,-0 1.824,0.264 2.208,0.792c0.384,0.528 0.576,1.224 0.576,2.088c-0,0.896 -0.192,1.592 -0.576,2.088c-0.384,0.496 -1.12,0.744 -2.208,0.744l-21.984,-0c-0.8,2.112 -1.744,4.12 -2.832,6.024c-1.088,1.904 -2.384,3.944 -3.888,6.12l-0,20.832c-0,1.088 -0.264,1.824 -0.792,2.208c-0.528,0.384 -1.224,0.576 -2.088,0.576c-0.832,-0 -1.512,-0.192 -2.04,-0.576c-0.528,-0.384 -0.792,-1.12 -0.792,-2.208l-0,-13.632c-0.832,0.864 -1.632,1.664 -2.4,2.4c-1.056,0.928 -1.936,1.424 -2.64,1.488c-0.704,0.064 -1.424,-0.336 -2.16,-1.2c-0.672,-0.8 -0.904,-1.568 -0.696,-2.304c0.208,-0.736 0.696,-1.472 1.464,-2.208c0.608,-0.512 1.176,-1.032 1.704,-1.56c0.528,-0.528 1.072,-1.12 1.632,-1.776c0.56,-0.656 1.16,-1.4 1.8,-2.232c0.64,-0.832 1.376,-1.808 2.208,-2.928c0.896,-1.344 1.76,-2.752 2.592,-4.224c0.832,-1.472 1.632,-3.072 2.4,-4.8l-9.696,-0Zm38.592,27.648c1.088,-0 1.824,0.264 2.208,0.792c0.384,0.528 0.576,1.224 0.576,2.088c-0,0.896 -0.192,1.592 -0.576,2.088c-0.384,0.496 -1.12,0.744 -2.208,0.744l-24.864,-0c-1.088,-0 -1.816,-0.248 -2.184,-0.744c-0.368,-0.496 -0.552,-1.192 -0.552,-2.088c-0,-0.864 0.184,-1.56 0.552,-2.088c0.368,-0.528 1.096,-0.792 2.184,-0.792l9.552,-0l-0,-10.944l-8.16,-0c-1.12,-0 -1.904,-0.248 -2.352,-0.744c-0.448,-0.496 -0.672,-1.192 -0.672,-2.088c-0,-0.864 0.224,-1.56 0.672,-2.088c0.448,-0.528 1.232,-0.792 2.352,-0.792l8.16,-0l-0,-6.48c-0,-1.088 0.264,-1.824 0.792,-2.208c0.528,-0.384 1.224,-0.576 2.088,-0.576c0.832,-0 1.528,0.192 2.088,0.576c0.56,0.384 0.84,1.12 0.84,2.208l-0,6.48l8.016,-0c1.088,-0 1.848,0.264 2.28,0.792c0.432,0.528 0.648,1.224 0.648,2.088c-0,0.896 -0.216,1.592 -0.648,2.088c-0.432,0.496 -1.192,0.744 -2.28,0.744l-8.016,-0l-0,10.944l9.504,-0Z" style="fill:#f15031;fill-rule:nonzero;"/><path d="M1130.96,56.916c0.928,0.64 1.448,1.272 1.56,1.896c0.112,0.624 -0.12,1.304 -0.696,2.04c-0.512,0.64 -1.072,0.976 -1.68,1.008c-0.608,0.032 -1.472,-0.352 -2.592,-1.152c-0.416,-0.288 -0.784,-0.536 -1.104,-0.744c-0.32,-0.208 -0.632,-0.408 -0.936,-0.6c-0.304,-0.192 -0.624,-0.384 -0.96,-0.576c-0.336,-0.192 -0.728,-0.416 -1.176,-0.672c-0.576,-0.32 -0.912,-0.752 -1.008,-1.296c-0.352,0.256 -0.696,0.48 -1.032,0.672c-0.336,0.192 -0.68,0.4 -1.032,0.624c-0.96,0.544 -1.848,0.872 -2.664,0.984c-0.816,0.112 -1.528,0.024 -2.136,-0.264c-0.608,-0.288 -1.08,-0.76 -1.416,-1.416c-0.336,-0.656 -0.504,-1.48 -0.504,-2.472l-0,-29.904c-0,-1.088 0.08,-1.968 0.24,-2.64c0.16,-0.672 0.448,-1.2 0.864,-1.584c0.416,-0.384 1,-0.656 1.752,-0.816c0.752,-0.16 1.736,-0.272 2.952,-0.336c1.632,-0.096 3.256,-0.208 4.872,-0.336c1.616,-0.128 3.136,-0.28 4.56,-0.456c1.424,-0.176 2.704,-0.376 3.84,-0.6c1.136,-0.224 2.04,-0.464 2.712,-0.72c0.832,-0.288 1.536,-0.496 2.112,-0.624c0.576,-0.128 1.056,-0.152 1.44,-0.072c0.384,0.08 0.704,0.272 0.96,0.576c0.256,0.304 0.48,0.712 0.672,1.224c0.384,0.992 0.416,1.784 0.096,2.376c-0.32,0.592 -1.216,1.16 -2.688,1.704c-0.64,0.224 -1.448,0.424 -2.424,0.6c-0.976,0.176 -2.12,0.344 -3.432,0.504c0.064,1.888 0.152,3.64 0.264,5.256c0.112,1.616 0.248,3.192 0.408,4.728l7.248,-0c1.12,-0 1.896,0.264 2.328,0.792c0.432,0.528 0.648,1.208 0.648,2.04c-0,0.832 -0.216,1.472 -0.648,1.92c-0.432,0.448 -1.208,0.672 -2.328,0.672l-6.624,-0c0.416,2.688 0.896,5.056 1.44,7.104c0.544,2.048 1.136,3.936 1.776,5.664c0.32,0.736 0.648,1.128 0.984,1.176c0.336,0.048 0.584,-0.248 0.744,-0.888c0.192,-0.608 0.312,-1.16 0.36,-1.656c0.048,-0.496 0.104,-1.096 0.168,-1.8c0.096,-1.28 0.344,-2.104 0.744,-2.472c0.4,-0.368 1.112,-0.52 2.136,-0.456c1.728,0.16 2.432,1.376 2.112,3.648c-0.16,1.92 -0.424,3.56 -0.792,4.92c-0.368,1.36 -0.776,2.616 -1.224,3.768c-0.384,0.96 -0.912,1.68 -1.584,2.16c-0.672,0.48 -1.408,0.704 -2.208,0.672c-0.8,-0.032 -1.6,-0.312 -2.4,-0.84c-0.8,-0.528 -1.52,-1.32 -2.16,-2.376c-0.704,-1.152 -1.336,-2.376 -1.896,-3.672c-0.56,-1.296 -1.064,-2.704 -1.512,-4.224c-0.448,-1.52 -0.848,-3.168 -1.2,-4.944c-0.352,-1.776 -0.672,-3.704 -0.96,-5.784l-9.12,-0l-0,11.664c-0,0.832 0.24,1.184 0.72,1.056c0.48,-0.128 1.328,-0.896 2.544,-2.304c1.12,-1.248 2.064,-1.936 2.832,-2.064c0.768,-0.128 1.536,0.224 2.304,1.056c1.088,1.312 0.72,2.928 -1.104,4.848l-0.384,0.432c0.16,0.064 0.344,0.136 0.552,0.216c0.208,0.08 0.456,0.2 0.744,0.36c0.64,0.352 1.272,0.704 1.896,1.056c0.624,0.352 1.304,0.8 2.04,1.344Zm-18.624,-36.288c-0.544,1.92 -1.08,3.672 -1.608,5.256c-0.528,1.584 -1.112,3.096 -1.752,4.536l-0,28.512c-0,1.024 -0.248,1.776 -0.744,2.256c-0.496,0.48 -1.192,0.72 -2.088,0.72c-1.088,-0 -1.824,-0.24 -2.208,-0.72c-0.384,-0.48 -0.576,-1.232 -0.576,-2.256l-0,-18.096c-0.864,1.28 -1.696,1.976 -2.496,2.088c-0.8,0.112 -1.552,-0.104 -2.256,-0.648c-0.672,-0.48 -1.056,-1.152 -1.152,-2.016c-0.096,-0.864 0.336,-1.968 1.296,-3.312c2.016,-2.72 3.68,-5.576 4.992,-8.568c1.312,-2.992 2.288,-5.976 2.928,-8.952c0.288,-1.28 0.656,-2.216 1.104,-2.808c0.448,-0.592 1.264,-0.824 2.448,-0.696c2.24,0.288 2.944,1.856 2.112,4.704Zm7.92,4.368c-0.448,0.064 -0.8,0.144 -1.056,0.24c-0.256,0.096 -0.384,0.304 -0.384,0.624l-0,7.968l8.496,-0c-0.192,-2.816 -0.384,-5.936 -0.576,-9.36c-0.992,0.096 -2.064,0.184 -3.216,0.264c-1.152,0.08 -2.24,0.168 -3.264,0.264Z" style="fill:#f15031;fill-rule:nonzero;"/><path d="M1185.78,55.956c-0,1.728 -0.344,2.976 -1.032,3.744c-0.688,0.768 -1.912,1.152 -3.672,1.152l-24.912,-0c-1.792,-0 -3.008,-0.384 -3.648,-1.152c-0.64,-0.768 -0.96,-2.016 -0.96,-3.744l-0,-12.336c-0,-1.728 0.32,-2.92 0.96,-3.576c0.64,-0.656 1.856,-0.984 3.648,-0.984l24.912,-0c1.76,-0 2.984,0.328 3.672,0.984c0.688,0.656 1.032,1.848 1.032,3.576l-0,12.336Zm5.856,-21.504c-0,0.768 -0.184,1.392 -0.552,1.872c-0.368,0.48 -1.064,0.72 -2.088,0.72l-40.416,-0c-1.056,-0 -1.752,-0.24 -2.088,-0.72c-0.336,-0.48 -0.504,-1.104 -0.504,-1.872c-0,-0.832 0.168,-1.488 0.504,-1.968c0.336,-0.48 1.032,-0.72 2.088,-0.72l9.12,-0c-0.16,-0.448 -0.312,-0.896 -0.456,-1.344c-0.144,-0.448 -0.312,-0.912 -0.504,-1.392c-0.352,-0.864 -0.496,-1.6 -0.432,-2.208c0.064,-0.608 0.288,-1.072 0.672,-1.392l-5.952,-0c-1.824,-0 -2.736,-0.864 -2.736,-2.592c-0,-0.832 0.2,-1.488 0.6,-1.968c0.4,-0.48 1.112,-0.72 2.136,-0.72l14.448,-0l-0.144,-0.288c-0.352,-0.832 -0.416,-1.6 -0.192,-2.304c0.224,-0.704 0.864,-1.296 1.92,-1.776c0.832,-0.256 1.56,-0.264 2.184,-0.024c0.624,0.24 1.16,0.904 1.608,1.992c0.128,0.448 0.256,0.848 0.384,1.2c0.128,0.352 0.272,0.752 0.432,1.2l14.784,-0c1.824,-0 2.736,0.864 2.736,2.592c-0,0.832 -0.224,1.488 -0.672,1.968c-0.448,0.48 -1.136,0.72 -2.064,0.72l-5.088,-0c0.192,0.32 0.28,0.76 0.264,1.32c-0.016,0.56 -0.136,1.16 -0.36,1.8c-0.224,0.608 -0.432,1.192 -0.624,1.752c-0.192,0.56 -0.384,1.048 -0.576,1.464l8.928,-0c1.024,-0 1.72,0.24 2.088,0.72c0.368,0.48 0.552,1.136 0.552,1.968Zm-28.416,-2.928c-0,0.064 0.008,0.112 0.024,0.144c0.016,0.032 0.024,0.064 0.024,0.096l10.8,-0c0.48,-0.8 0.864,-1.616 1.152,-2.448c0.288,-0.832 0.56,-1.68 0.816,-2.544c0.128,-0.512 0.304,-0.96 0.528,-1.344l-15.552,-0c0.16,0.16 0.296,0.36 0.408,0.6c0.112,0.24 0.216,0.488 0.312,0.744c0.256,0.832 0.504,1.616 0.744,2.352c0.24,0.736 0.488,1.536 0.744,2.4Zm16.8,20.88l-22.704,-0l-0,2.688c-0,0.352 0.224,0.528 0.672,0.528l21.408,-0c0.224,-0 0.384,-0.032 0.48,-0.096c0.096,-0.064 0.144,-0.224 0.144,-0.48l-0,-2.64Zm-0,-7.68c-0,-0.288 -0.192,-0.432 -0.576,-0.432l-21.456,-0c-0.448,-0 -0.672,0.176 -0.672,0.528l-0,2.448l22.704,-0l-0,-2.544Z" style="fill:#f15031;fill-rule:nonzero;"/><path d="M1224.76,55.524c1.216,-4.448 2.288,-8.656 3.216,-12.624c0.928,-3.968 1.712,-7.792 2.352,-11.472c0.224,-1.184 0.552,-1.96 0.984,-2.328c0.432,-0.368 1.064,-0.52 1.896,-0.456c1.92,0.16 2.672,1.456 2.256,3.888c-0.64,3.552 -1.384,7.184 -2.232,10.896c-0.848,3.712 -1.88,7.744 -3.096,12.096l6.816,-0c0.928,-0 1.584,0.216 1.968,0.648c0.384,0.432 0.576,1.144 0.576,2.136c-0,0.864 -0.192,1.536 -0.576,2.016c-0.384,0.48 -1.04,0.72 -1.968,0.72l-27.984,-0c-0.928,-0 -1.584,-0.24 -1.968,-0.72c-0.384,-0.48 -0.576,-1.152 -0.576,-2.016c-0,-0.992 0.192,-1.704 0.576,-2.136c0.384,-0.432 1.04,-0.648 1.968,-0.648l15.792,-0Zm-20.208,3.408c-0,1.984 -0.864,2.976 -2.592,2.976c-0.992,-0 -1.68,-0.24 -2.064,-0.72c-0.384,-0.48 -0.576,-1.232 -0.576,-2.256l-0,-18.432c-0.032,0.032 -0.048,0.064 -0.048,0.096c-0.416,0.704 -0.824,1.24 -1.224,1.608c-0.4,0.368 -0.792,0.6 -1.176,0.696c-0.384,0.096 -0.76,0.08 -1.128,-0.048c-0.368,-0.128 -0.712,-0.336 -1.032,-0.624c-0.8,-0.544 -1.184,-1.224 -1.152,-2.04c0.032,-0.816 0.496,-1.896 1.392,-3.24c1.824,-2.72 3.304,-5.512 4.44,-8.376c1.136,-2.864 2.072,-5.944 2.808,-9.24c0.256,-1.216 0.584,-2.12 0.984,-2.712c0.4,-0.592 1.144,-0.824 2.232,-0.696c2.048,0.288 2.688,1.856 1.92,4.704c-0.448,1.728 -0.896,3.336 -1.344,4.824c-0.448,1.488 -0.928,2.904 -1.44,4.248l-0,29.232Zm15.984,-37.296c-0.096,-0.288 -0.192,-0.576 -0.288,-0.864c-0.096,-0.288 -0.176,-0.56 -0.24,-0.816c-0.352,-0.928 -0.456,-1.736 -0.312,-2.424c0.144,-0.688 0.632,-1.208 1.464,-1.56c0.832,-0.352 1.6,-0.424 2.304,-0.216c0.704,0.208 1.28,0.936 1.728,2.184c0.224,0.544 0.424,1.136 0.6,1.776c0.176,0.64 0.344,1.28 0.504,1.92l10.032,-0c1.728,-0 2.592,0.912 2.592,2.736c-0,1.856 -0.864,2.784 -2.592,2.784l-25.056,-0c-0.96,-0 -1.624,-0.232 -1.992,-0.696c-0.368,-0.464 -0.552,-1.16 -0.552,-2.088c-0,-0.928 0.184,-1.616 0.552,-2.064c0.368,-0.448 1.032,-0.672 1.992,-0.672l9.264,-0Zm-0.192,28.608c0.096,0.768 0.12,1.392 0.072,1.872c-0.048,0.48 -0.176,0.848 -0.384,1.104c-0.208,0.256 -0.488,0.44 -0.84,0.552c-0.352,0.112 -0.768,0.184 -1.248,0.216c-1.088,-0 -1.8,-0.256 -2.136,-0.768c-0.336,-0.512 -0.536,-1.28 -0.6,-2.304c-0.16,-1.92 -0.344,-3.672 -0.552,-5.256c-0.208,-1.584 -0.448,-3.08 -0.72,-4.488c-0.272,-1.408 -0.552,-2.768 -0.84,-4.08c-0.288,-1.312 -0.592,-2.656 -0.912,-4.032c-0.256,-1.12 -0.224,-2 0.096,-2.64c0.32,-0.64 0.848,-1.072 1.584,-1.296c1.856,-0.544 3.024,0.24 3.504,2.352c0.416,1.952 0.776,3.664 1.08,5.136c0.304,1.472 0.568,2.896 0.792,4.272c0.224,1.376 0.416,2.8 0.576,4.272c0.16,1.472 0.336,3.168 0.528,5.088Z" style="fill:#f15031;fill-rule:nonzero;"/><path d="M1248.08,56.628l-0,-16.32c-0,-0.8 0.064,-1.464 0.192,-1.992c0.128,-0.528 0.344,-0.936 0.648,-1.224c0.304,-0.288 0.704,-0.488 1.2,-0.6c0.496,-0.112 1.128,-0.168 1.896,-0.168l8.736,-0l0.144,-1.536l-14.832,-0c-0.8,-0 -1.368,-0.136 -1.704,-0.408c-0.336,-0.272 -0.504,-0.776 -0.504,-1.512c-0,-0.832 0.168,-1.336 0.504,-1.512c0.336,-0.176 0.904,-0.264 1.704,-0.264l15.312,-0l0.048,-0.384c0.032,-0.256 0.088,-0.536 0.168,-0.84c0.08,-0.304 0.184,-0.536 0.312,-0.696l-11.76,-0c-1.824,-0 -3.08,-0.256 -3.768,-0.768c-0.688,-0.512 -1.032,-1.44 -1.032,-2.784l-0,-3.456c-0,-1.504 0.344,-2.512 1.032,-3.024c0.688,-0.512 1.944,-0.768 3.768,-0.768l29.52,-0c1.024,-0 1.856,0.064 2.496,0.192c0.64,0.128 1.128,0.336 1.464,0.624c0.336,0.288 0.56,0.672 0.672,1.152c0.112,0.48 0.168,1.072 0.168,1.776l-0,3.408c-0,0.672 -0.064,1.24 -0.192,1.704c-0.128,0.464 -0.368,0.84 -0.72,1.128c-0.352,0.288 -0.84,0.496 -1.464,0.624c-0.624,0.128 -1.432,0.192 -2.424,0.192l-13.392,-0c0.16,0.224 0.288,0.512 0.384,0.864c0.096,0.352 0.144,0.704 0.144,1.056l16.176,-0c0.864,-0 1.448,0.088 1.752,0.264c0.304,0.176 0.456,0.68 0.456,1.512c-0,0.736 -0.152,1.24 -0.456,1.512c-0.304,0.272 -0.888,0.408 -1.752,0.408l-16.656,-0l-0.144,1.536l10.896,-0c1.472,-0 2.504,0.272 3.096,0.816c0.592,0.544 0.888,1.632 0.888,3.264l-0,16.224l4.08,-0c0.8,-0 1.368,0.136 1.704,0.408c0.336,0.272 0.504,0.792 0.504,1.56c-0,0.928 -0.168,1.528 -0.504,1.8c-0.336,0.272 -0.904,0.408 -1.704,0.408l-40.992,-0c-0.8,-0 -1.368,-0.136 -1.704,-0.408c-0.336,-0.272 -0.504,-0.872 -0.504,-1.8c-0,-0.768 0.168,-1.288 0.504,-1.56c0.336,-0.272 0.904,-0.408 1.704,-0.408l3.936,-0Zm5.28,-14.592l22.416,-0l-0,-1.2c-0,-0.256 -0.04,-0.416 -0.12,-0.48c-0.08,-0.064 -0.232,-0.096 -0.456,-0.096l-21.216,-0c-0.416,-0 -0.624,0.192 -0.624,0.576l-0,1.2Zm-0,4.944l22.416,-0l-0,-1.776l-22.416,-0l-0,1.776Zm-0,9.648l22.416,-0l-0,-1.584l-22.416,-0l-0,1.584Zm-0,-4.752l22.416,-0l-0,-1.728l-22.416,-0l-0,1.728Zm8.832,-26.352l5.376,-0l-0,-3.408l-5.376,-0l-0,3.408Zm-9.984,-3.408c-0.544,-0 -0.904,0.056 -1.08,0.168c-0.176,0.112 -0.264,0.36 -0.264,0.744l-0,1.584c-0,0.448 0.08,0.712 0.24,0.792c0.16,0.08 0.528,0.12 1.104,0.12l4.608,-0l-0,-3.408l-4.608,-0Zm20.784,-0l-0,3.408l4.608,-0c0.576,-0 0.944,-0.04 1.104,-0.12c0.16,-0.08 0.24,-0.344 0.24,-0.792l-0,-1.584c-0,-0.384 -0.088,-0.632 -0.264,-0.744c-0.176,-0.112 -0.536,-0.168 -1.08,-0.168l-4.608,-0Z" style="fill:#f15031;fill-rule:nonzero;"/><path d="M1314.32,32.916c-0.992,1.408 -2.032,2 -3.12,1.776l-0,18.96c-0,1.824 -0.376,3.128 -1.128,3.912c-0.752,0.784 -2.04,1.176 -3.864,1.176l-9.648,-0c-1.824,-0 -3.104,-0.392 -3.84,-1.176c-0.736,-0.784 -1.104,-2.088 -1.104,-3.912l-0,-26.736c-0,-1.76 0.368,-3.056 1.104,-3.888c0.736,-0.832 2.016,-1.248 3.84,-1.248l2.208,-0c0.096,-0.416 0.184,-0.832 0.264,-1.248c0.08,-0.416 0.152,-0.864 0.216,-1.344c0.16,-1.216 0.544,-2.072 1.152,-2.568c0.608,-0.496 1.376,-0.68 2.304,-0.552c1.12,0.16 1.824,0.544 2.112,1.152c0.288,0.608 0.352,1.552 0.192,2.832l-0.384,1.728l1.584,-0c1.824,-0 3.112,0.416 3.864,1.248c0.752,0.832 1.128,2.128 1.128,3.888l-0,0.528c0.8,-1.248 1.552,-2.544 2.256,-3.888c0.704,-1.344 1.328,-3.008 1.872,-4.992c0.256,-1.216 0.696,-2.024 1.32,-2.424c0.624,-0.4 1.416,-0.472 2.376,-0.216c0.928,0.192 1.536,0.656 1.824,1.392c0.288,0.736 0.272,1.616 -0.048,2.64c-0.16,0.448 -0.32,0.96 -0.48,1.536l7.824,-0c1.12,-0 2.064,0.168 2.832,0.504c0.768,0.336 1.392,0.8 1.872,1.392c0.48,0.592 0.84,1.296 1.08,2.112c0.24,0.816 0.392,1.704 0.456,2.664c0.064,1.728 0.08,3.616 0.048,5.664c-0.032,2.048 -0.08,4.08 -0.144,6.096c-0.064,2.016 -0.16,3.912 -0.288,5.688c-0.128,1.776 -0.256,3.256 -0.384,4.44c-0.256,2.304 -0.608,4.2 -1.056,5.688c-0.448,1.488 -1.04,2.656 -1.776,3.504c-0.736,0.848 -1.632,1.432 -2.688,1.752c-1.056,0.32 -2.304,0.448 -3.744,0.384c-0.96,-0.064 -2.08,-0.224 -3.36,-0.48c-1.28,-0.256 -2.704,-0.688 -4.272,-1.296c-1.344,-0.512 -2.184,-1.096 -2.52,-1.752c-0.336,-0.656 -0.296,-1.496 0.12,-2.52c0.352,-0.896 0.88,-1.448 1.584,-1.656c0.704,-0.208 1.664,-0.056 2.88,0.456c1.632,0.672 2.992,1.112 4.08,1.32c1.088,0.208 1.976,0.08 2.664,-0.384c0.688,-0.464 1.224,-1.304 1.608,-2.52c0.384,-1.216 0.704,-2.912 0.96,-5.088c0.224,-1.824 0.376,-4.256 0.456,-7.296c0.08,-3.04 0.12,-6.848 0.12,-11.424c-0,-0.576 -0.16,-0.992 -0.48,-1.248c-0.32,-0.256 -0.88,-0.384 -1.68,-0.384l-8.496,-0c-0.512,0.992 -1.096,1.968 -1.752,2.928c-0.656,0.96 -1.304,1.92 -1.944,2.88Zm-8.64,-3.936c-0,-0.576 -0.112,-0.976 -0.336,-1.2c-0.224,-0.224 -0.72,-0.336 -1.488,-0.336l-5.52,-0c-0.48,-0 -0.792,0.144 -0.936,0.432c-0.144,0.288 -0.216,0.704 -0.216,1.248l-0,8.304l8.496,-0l-0,-8.448Zm19.488,15.84c0.64,1.28 0.824,2.256 0.552,2.928c-0.272,0.672 -0.792,1.2 -1.56,1.584c-0.992,0.512 -1.824,0.56 -2.496,0.144c-0.672,-0.416 -1.264,-1.248 -1.776,-2.496c-0.704,-1.728 -1.44,-3.304 -2.208,-4.728c-0.768,-1.424 -1.616,-2.904 -2.544,-4.44c-0.512,-0.832 -0.72,-1.656 -0.624,-2.472c0.096,-0.816 0.464,-1.432 1.104,-1.848c0.832,-0.512 1.6,-0.696 2.304,-0.552c0.704,0.144 1.36,0.76 1.968,1.848c0.864,1.632 1.744,3.28 2.64,4.944c0.896,1.664 1.776,3.36 2.64,5.088Zm-19.488,-1.776l-8.496,-0l-0,8.304c-0,0.64 0.128,1.08 0.384,1.32c0.256,0.24 0.704,0.36 1.344,0.36l5.424,-0c0.64,-0 1.024,-0.112 1.152,-0.336c0.128,-0.224 0.192,-0.608 0.192,-1.152l-0,-8.496Z" style="fill:#f15031;fill-rule:nonzero;"/><path d="M1377.78,55.956c-0,1.728 -0.344,2.976 -1.032,3.744c-0.688,0.768 -1.912,1.152 -3.672,1.152l-24.912,-0c-1.792,-0 -3.008,-0.384 -3.648,-1.152c-0.64,-0.768 -0.96,-2.016 -0.96,-3.744l-0,-12.336c-0,-1.728 0.32,-2.92 0.96,-3.576c0.64,-0.656 1.856,-0.984 3.648,-0.984l24.912,-0c1.76,-0 2.984,0.328 3.672,0.984c0.688,0.656 1.032,1.848 1.032,3.576l-0,12.336Zm5.856,-21.504c-0,0.768 -0.184,1.392 -0.552,1.872c-0.368,0.48 -1.064,0.72 -2.088,0.72l-40.416,-0c-1.056,-0 -1.752,-0.24 -2.088,-0.72c-0.336,-0.48 -0.504,-1.104 -0.504,-1.872c-0,-0.832 0.168,-1.488 0.504,-1.968c0.336,-0.48 1.032,-0.72 2.088,-0.72l9.12,-0c-0.16,-0.448 -0.312,-0.896 -0.456,-1.344c-0.144,-0.448 -0.312,-0.912 -0.504,-1.392c-0.352,-0.864 -0.496,-1.6 -0.432,-2.208c0.064,-0.608 0.288,-1.072 0.672,-1.392l-5.952,-0c-1.824,-0 -2.736,-0.864 -2.736,-2.592c-0,-0.832 0.2,-1.488 0.6,-1.968c0.4,-0.48 1.112,-0.72 2.136,-0.72l14.448,-0l-0.144,-0.288c-0.352,-0.832 -0.416,-1.6 -0.192,-2.304c0.224,-0.704 0.864,-1.296 1.92,-1.776c0.832,-0.256 1.56,-0.264 2.184,-0.024c0.624,0.24 1.16,0.904 1.608,1.992c0.128,0.448 0.256,0.848 0.384,1.2c0.128,0.352 0.272,0.752 0.432,1.2l14.784,-0c1.824,-0 2.736,0.864 2.736,2.592c-0,0.832 -0.224,1.488 -0.672,1.968c-0.448,0.48 -1.136,0.72 -2.064,0.72l-5.088,-0c0.192,0.32 0.28,0.76 0.264,1.32c-0.016,0.56 -0.136,1.16 -0.36,1.8c-0.224,0.608 -0.432,1.192 -0.624,1.752c-0.192,0.56 -0.384,1.048 -0.576,1.464l8.928,-0c1.024,-0 1.72,0.24 2.088,0.72c0.368,0.48 0.552,1.136 0.552,1.968Zm-28.416,-2.928c-0,0.064 0.008,0.112 0.024,0.144c0.016,0.032 0.024,0.064 0.024,0.096l10.8,-0c0.48,-0.8 0.864,-1.616 1.152,-2.448c0.288,-0.832 0.56,-1.68 0.816,-2.544c0.128,-0.512 0.304,-0.96 0.528,-1.344l-15.552,-0c0.16,0.16 0.296,0.36 0.408,0.6c0.112,0.24 0.216,0.488 0.312,0.744c0.256,0.832 0.504,1.616 0.744,2.352c0.24,0.736 0.488,1.536 0.744,2.4Zm16.8,20.88l-22.704,-0l-0,2.688c-0,0.352 0.224,0.528 0.672,0.528l21.408,-0c0.224,-0 0.384,-0.032 0.48,-0.096c0.096,-0.064 0.144,-0.224 0.144,-0.48l-0,-2.64Zm-0,-7.68c-0,-0.288 -0.192,-0.432 -0.576,-0.432l-21.456,-0c-0.448,-0 -0.672,0.176 -0.672,0.528l-0,2.448l22.704,-0l-0,-2.544Z" style="fill:#f15031;fill-rule:nonzero;"/><path d="M1420.36,35.796l-0,18.96c-0,1.152 -0.08,2.12 -0.24,2.904c-0.16,0.784 -0.432,1.432 -0.816,1.944c-0.384,0.512 -0.896,0.904 -1.536,1.176c-0.64,0.272 -1.456,0.472 -2.448,0.6c-0.832,0.096 -1.608,0.12 -2.328,0.072c-0.72,-0.048 -1.56,-0.2 -2.52,-0.456c-1.248,-0.352 -2.024,-0.864 -2.328,-1.536c-0.304,-0.672 -0.216,-1.6 0.264,-2.784c0.384,-0.864 0.88,-1.36 1.488,-1.488c0.608,-0.128 1.392,-0.048 2.352,0.24c0.8,0.256 1.44,0.336 1.92,0.24c0.48,-0.096 0.72,-0.464 0.72,-1.104l-0,-18.768l-8.352,-0c-1.024,-0 -1.736,-0.208 -2.136,-0.624c-0.4,-0.416 -0.6,-1.136 -0.6,-2.16c-0,-1.024 0.184,-1.76 0.552,-2.208c0.368,-0.448 1.096,-0.672 2.184,-0.672l22.368,-0c1.12,-0 1.856,0.224 2.208,0.672c0.352,0.448 0.528,1.184 0.528,2.208c-0,1.024 -0.2,1.744 -0.6,2.16c-0.4,0.416 -1.112,0.624 -2.136,0.624l-8.544,-0Zm8.592,-14.688c-0,0.896 -0.192,1.592 -0.576,2.088c-0.384,0.496 -1.088,0.744 -2.112,0.744l-16.704,-0c-0.928,-0 -1.64,-0.264 -2.136,-0.792c-0.496,-0.528 -0.744,-1.224 -0.744,-2.088c-0,-1.024 0.28,-1.752 0.84,-2.184c0.56,-0.432 1.24,-0.648 2.04,-0.648l16.704,-0c0.992,-0 1.688,0.224 2.088,0.672c0.4,0.448 0.6,1.184 0.6,2.208Zm-17.472,21.888c-0.352,1.504 -0.68,2.784 -0.984,3.84c-0.304,1.056 -0.624,2.04 -0.96,2.952c-0.336,0.912 -0.712,1.832 -1.128,2.76c-0.416,0.928 -0.912,2.016 -1.488,3.264c-0.544,1.12 -1.136,1.776 -1.776,1.968c-0.64,0.192 -1.376,0.048 -2.208,-0.432c-0.8,-0.448 -1.224,-1.024 -1.272,-1.728c-0.048,-0.704 0.056,-1.36 0.312,-1.968c0.64,-1.248 1.16,-2.312 1.56,-3.192c0.4,-0.88 0.752,-1.736 1.056,-2.568c0.304,-0.832 0.576,-1.728 0.816,-2.688c0.24,-0.96 0.536,-2.16 0.888,-3.6c0.256,-0.896 0.6,-1.576 1.032,-2.04c0.432,-0.464 1.144,-0.632 2.136,-0.504c1.088,0.096 1.76,0.528 2.016,1.296c0.256,0.768 0.256,1.648 -0,2.64Zm19.92,10.416c0.288,1.152 0.28,2.04 -0.024,2.664c-0.304,0.624 -0.904,1.064 -1.8,1.32c-0.512,0.128 -0.952,0.144 -1.32,0.048c-0.368,-0.096 -0.688,-0.264 -0.96,-0.504c-0.272,-0.24 -0.496,-0.544 -0.672,-0.912c-0.176,-0.368 -0.312,-0.776 -0.408,-1.224c-0.352,-1.408 -0.656,-2.592 -0.912,-3.552c-0.256,-0.96 -0.512,-1.864 -0.768,-2.712c-0.256,-0.848 -0.528,-1.704 -0.816,-2.568c-0.288,-0.864 -0.64,-1.888 -1.056,-3.072c-0.352,-0.96 -0.448,-1.784 -0.288,-2.472c0.16,-0.688 0.736,-1.24 1.728,-1.656c0.8,-0.256 1.528,-0.216 2.184,0.12c0.656,0.336 1.144,0.968 1.464,1.896c0.384,1.248 0.712,2.328 0.984,3.24c0.272,0.912 0.544,1.824 0.816,2.736c0.272,0.912 0.552,1.872 0.84,2.88c0.288,1.008 0.624,2.232 1.008,3.672l-0,0.096Zm-42.912,-24.24c-0.928,-0 -1.608,-0.248 -2.04,-0.744c-0.432,-0.496 -0.648,-1.16 -0.648,-1.992c-0,-1.824 0.896,-2.736 2.688,-2.736l4.176,-0l-0,-4.896c-0,-2.144 0.928,-3.216 2.784,-3.216c1.024,-0 1.72,0.28 2.088,0.84c0.368,0.56 0.552,1.352 0.552,2.376l-0,4.896l3.504,-0c1.088,-0 1.808,0.272 2.16,0.816c0.352,0.544 0.528,1.184 0.528,1.92c-0,0.832 -0.176,1.496 -0.528,1.992c-0.352,0.496 -1.072,0.744 -2.16,0.744l-3.504,-0l-0,0.336c1.088,1.6 2.04,3.032 2.856,4.296c0.816,1.264 1.688,2.6 2.616,4.008c0.768,1.152 1.128,2.16 1.08,3.024c-0.048,0.864 -0.408,1.52 -1.08,1.968c-0.864,0.576 -1.632,0.776 -2.304,0.6c-0.672,-0.176 -1.36,-0.936 -2.064,-2.28c-0.224,-0.448 -0.416,-0.856 -0.576,-1.224c-0.16,-0.368 -0.336,-0.712 -0.528,-1.032l-0,20.4c-0,1.024 -0.184,1.744 -0.552,2.16c-0.368,0.416 -1.064,0.624 -2.088,0.624c-0.928,-0 -1.624,-0.208 -2.088,-0.624c-0.464,-0.416 -0.696,-1.136 -0.696,-2.16l-0,-17.76c-0.288,0.928 -0.584,1.808 -0.888,2.64c-0.304,0.832 -0.616,1.616 -0.936,2.352c-0.576,1.344 -1.232,2.128 -1.968,2.352c-0.736,0.224 -1.488,0.112 -2.256,-0.336c-1.472,-0.832 -1.632,-2.352 -0.48,-4.56c0.512,-1.088 1.016,-2.168 1.512,-3.24c0.496,-1.072 0.976,-2.2 1.44,-3.384c0.464,-1.184 0.928,-2.44 1.392,-3.768c0.464,-1.328 0.936,-2.792 1.416,-4.392l-3.408,-0Z" style="fill:#f15031;fill-rule:nonzero;"/><path d="M1467.11,54.756c1.088,0.384 1.952,0.64 2.592,0.768c0.64,0.128 1.128,0.152 1.464,0.072c0.336,-0.08 0.552,-0.256 0.648,-0.528c0.096,-0.272 0.144,-0.6 0.144,-0.984l-0,-7.2l-11.136,-0c-0.288,1.536 -0.656,2.936 -1.104,4.2c-0.448,1.264 -0.992,2.44 -1.632,3.528c-0.64,1.088 -1.376,2.112 -2.208,3.072c-0.832,0.96 -1.776,1.904 -2.832,2.832c-0.416,0.384 -0.864,0.696 -1.344,0.936c-0.48,0.24 -0.96,0.392 -1.44,0.456c-0.48,0.064 -0.936,0.008 -1.368,-0.168c-0.432,-0.176 -0.808,-0.504 -1.128,-0.984c-0.512,-0.8 -0.696,-1.56 -0.552,-2.28c0.144,-0.72 0.664,-1.432 1.56,-2.136c1.28,-0.992 2.368,-2.04 3.264,-3.144c0.896,-1.104 1.616,-2.36 2.16,-3.768c0.544,-1.408 0.944,-3.016 1.2,-4.824c0.256,-1.808 0.384,-3.912 0.384,-6.312l-0,-15.504c-0,-1.088 0.08,-1.976 0.24,-2.664c0.16,-0.688 0.448,-1.224 0.864,-1.608c0.416,-0.384 0.952,-0.64 1.608,-0.768c0.656,-0.128 1.496,-0.192 2.52,-0.192l11.472,-0c0.992,-0 1.824,0.072 2.496,0.216c0.672,0.144 1.208,0.408 1.608,0.792c0.4,0.384 0.68,0.928 0.84,1.632c0.16,0.704 0.24,1.6 0.24,2.688l-0,31.44c-0,2.368 -0.48,4.048 -1.44,5.04c-0.96,0.992 -2.208,1.568 -3.744,1.728c-0.608,0.064 -1.184,0.104 -1.728,0.12c-0.544,0.016 -1.104,-0.016 -1.68,-0.096c-0.576,-0.08 -1.2,-0.2 -1.872,-0.36c-0.672,-0.16 -1.408,-0.384 -2.208,-0.672c-1.024,-0.384 -1.664,-0.888 -1.92,-1.512c-0.256,-0.624 -0.208,-1.368 0.144,-2.232c0.384,-0.96 0.896,-1.552 1.536,-1.776c0.64,-0.224 1.424,-0.16 2.352,0.192Zm-15.744,-6.144c-0,1.76 -0.32,3.032 -0.96,3.816c-0.64,0.784 -1.808,1.176 -3.504,1.176l-7.488,-0c-1.696,-0 -2.856,-0.392 -3.48,-1.176c-0.624,-0.784 -0.936,-2.056 -0.936,-3.816l-0,-24.864c-0,-1.824 0.312,-3.112 0.936,-3.864c0.624,-0.752 1.784,-1.128 3.48,-1.128l7.488,-0c1.696,-0 2.864,0.376 3.504,1.128c0.64,0.752 0.96,2.04 0.96,3.864l-0,24.864Zm10.128,-10.224c-0,0.544 -0.008,1.064 -0.024,1.56c-0.016,0.496 -0.04,0.968 -0.072,1.416l10.56,-0l-0,-6.576l-10.464,-0l-0,3.6Zm-0,-9.168l10.464,-0l-0,-4.32c-0,-0.736 -0.088,-1.208 -0.264,-1.416c-0.176,-0.208 -0.648,-0.312 -1.416,-0.312l-7.152,-0c-0.736,-0 -1.192,0.08 -1.368,0.24c-0.176,0.16 -0.264,0.608 -0.264,1.344l-0,4.464Zm-21.216,18.048c-0,0.352 0.048,0.568 0.144,0.648c0.096,0.08 0.288,0.12 0.576,0.12l4.464,-0c0.256,-0 0.424,-0.04 0.504,-0.12c0.08,-0.08 0.12,-0.28 0.12,-0.6l-0,-9.12l-5.808,-0l-0,9.072Zm5.808,-22.128c-0,-0.352 -0.04,-0.576 -0.12,-0.672c-0.08,-0.096 -0.296,-0.144 -0.648,-0.144l-4.32,-0c-0.256,-0 -0.44,0.048 -0.552,0.144c-0.112,0.096 -0.168,0.32 -0.168,0.672l-0,7.344l5.808,-0l-0,-7.344Z" style="fill:#f15031;fill-rule:nonzero;"/></g></g></svg>