<?xml version="1.0" encoding="UTF-8" standalone="no"?><!DOCTYPE svg PUBLIC "-//W3C//DTD SVG 1.1//EN" "http://www.w3.org/Graphics/SVG/1.1/DTD/svg11.dtd"><svg width="2864.0px" height="662.0px" viewBox="0 0 2864 662" version="1.1" xmlns="http://www.w3.org/2000/svg" xmlns:xlink="http://www.w3.org/1999/xlink" xml:space="preserve" xmlns:serif="http://www.serif.com/" style="fill-rule:evenodd;clip-rule:evenodd;stroke-linecap:round;stroke-linejoin:round;stroke-miterlimit:1.5;"><rect id="_3-gravi_sezon" serif:id="3-gravi_sezon" x="0.673" y="0.202" width="2862.89" height="660.962" style="fill:none;"/><g id="大譜表"><rect id="外枠" x="72.25" y="155.366" width="2716.63" height="239.038" style="fill:#fff;fill-opacity:0.776471;stroke:#000;stroke-width:2px;"/><path id="_--G線" serif:id="↑ G線" d="M72.25,335.366l2716.63,0" style="fill:none;stroke:#000;stroke-width:2px;"/><path id="_--B線" serif:id="↑ B線" d="M72.25,275.366l2716.63,0" style="fill:none;stroke:#000;stroke-width:2px;"/><path id="_--D線" serif:id="↑ D線" d="M72.25,215.366l2716.63,0" style="fill:none;stroke:#000;stroke-width:2px;"/></g><text x="397.281px" y="249.575px" style="font-family:'Georgia-Italic', 'Georgia', serif;font-style:italic;font-size:48px;fill:#f15031;">s<tspan x="415.577px 429.841px 449.589px " y="249.575px 249.575px 249.575px ">tr.</tspan></text><text x="726.526px" y="245.695px" style="font-family:'Georgia-Italic', 'Georgia', serif;font-style:italic;font-size:48px;fill:#f15031;">s<tspan x="744.821px 759.085px 778.834px " y="245.695px 245.695px 245.695px ">tr.</tspan></text><text x="858.424px" y="247.947px" style="font-family:'Georgia-Italic', 'Georgia', serif;font-style:italic;font-size:48px;fill:#f15031;">s<tspan x="876.72px 890.984px 910.732px " y="247.947px 247.947px 247.947px ">tr.</tspan></text><text x="1175.66px" y="249.1px" style="font-family:'Georgia-Italic', 'Georgia', serif;font-style:italic;font-size:48px;fill:#f15031;">s<tspan x="1193.96px 1208.22px 1227.97px " y="249.1px 249.1px 249.1px ">tr.</tspan></text><text x="1349.58px" y="262.772px" style="font-family:'Georgia-Italic', 'Georgia', serif;font-style:italic;font-size:48px;fill:#f15031;">s<tspan x="1367.87px 1382.14px 1401.89px " y="262.772px 262.772px 262.772px ">tr.</tspan></text><text x="1663.28px" y="252.837px" style="font-family:'Georgia-Italic', 'Georgia', serif;font-style:italic;font-size:48px;fill:#f15031;">s<tspan x="1681.58px 1695.84px 1715.59px " y="252.837px 252.837px 252.837px ">tr.</tspan></text><text x="2120.62px" y="261.391px" style="font-family:'Georgia-Italic', 'Georgia', serif;font-style:italic;font-size:48px;fill:#f15031;">s<tspan x="2138.92px 2153.18px 2172.93px " y="261.391px 261.391px 261.391px ">tr.</tspan></text><path d="M431.864,288.295l-8.031,-13.215l86.919,-52.822l-7.457,-12.271l30.35,7.406l-7.405,30.35l-7.457,-12.27l-86.919,52.822Z" style="fill:#f15031;"/><path d="M652.52,217.281l8.812,-12.707l83.579,57.963l8.183,-11.799l5.563,30.742l-30.742,5.563l8.183,-11.799l-83.578,-57.963Z" style="fill:#f15031;"/><path d="M1109.01,220.899l9.633,-12.097l88.562,70.529l8.946,-11.232l3.518,31.042l-31.042,3.519l8.945,-11.233l-88.562,-70.528Z" style="fill:#f15031;"/><g id="_2分音符-Ba." serif:id="2分音符 Ba."><path id="onpu" d="M350.647,282.918c-17.817,9.549 -27.311,26.835 -21.471,39.838c6.229,13.871 27.635,17.785 47.78,8.738c20.145,-9.047 31.439,-27.647 25.21,-41.518c-6.229,-13.87 -27.635,-17.784 -47.78,-8.737c-1.259,0.565 -2.551,1.042 -3.739,1.679Z"/><rect id="しっぽ" x="327.456" y="316.366" width="5" height="180"/></g><g id="_2分音符-Ba.1" serif:id="2分音符 Ba."><path id="onpu1" serif:id="onpu" d="M592.668,163.399c-17.817,9.549 -27.31,26.835 -21.47,39.838c6.229,13.871 27.634,17.785 47.779,8.738c20.146,-9.047 31.44,-27.647 25.21,-41.517c-6.229,-13.871 -27.634,-17.785 -47.779,-8.738c-1.259,0.565 -2.552,1.043 -3.74,1.679Z" style="fill:#0d1419;"/><rect id="しっぽ1" serif:id="しっぽ" x="569.478" y="196.848" width="5" height="180" style="fill:#0d1419;"/></g><path id="bar-0" serif:id="bar 0" d="M68.673,157.366l0,237.038" style="fill:none;stroke:#000;stroke-width:6px;"/><path id="G" d="M173.65,307.988c-5.53,1.134 -10.655,4.168 -15.547,9.002c-4.898,4.922 -7.519,10.537 -7.948,16.748c-0.269,3.904 0.759,8.433 3.014,13.314c2.249,4.97 5.924,8.701 10.841,11.269c1.666,0.471 2.405,1.414 2.319,2.656c-0.03,0.444 -0.684,0.845 -2.22,1.095c-7.954,-2.599 -14.325,-7.408 -19.037,-14.241c-4.707,-6.923 -6.861,-14.56 -6.451,-23.091c0.898,-9.122 4.243,-17.45 10.03,-24.896c5.882,-7.53 13.117,-12.647 21.705,-15.354l-3.964,-31.924c-14.483,10.413 -26.416,21.447 -35.901,33.275c-9.479,11.739 -14.852,24.831 -16.205,39.27c-0.269,6.49 0.63,12.882 2.704,19.088c2.069,6.295 5.425,12.054 10.057,17.456c9.36,10.72 22.074,16.858 37.96,18.489c5.45,0.02 11.3,-0.558 17.636,-1.725l-8.993,-70.431l0,0Zm6.466,-0.446l9.168,69.195c14.078,-4.556 21.753,-16.063 23.015,-34.342c-0.378,-6.178 -1.778,-11.803 -4.465,-16.892c-2.593,-5.171 -6.237,-9.346 -11.023,-12.529c-4.785,-3.183 -10.291,-4.99 -16.695,-5.432l0,0Zm-11.868,-93.542c3.058,-1.573 6.652,-4.445 10.599,-8.541c3.941,-4.008 7.848,-8.821 11.62,-14.266c3.867,-5.529 7.029,-11.195 9.485,-16.999c2.45,-5.716 3.814,-11.238 4.169,-16.385c0.153,-2.218 0.129,-4.449 -0.181,-6.432c-0.136,-3.219 -0.943,-5.771 -2.517,-7.574c-1.58,-1.713 -3.653,-2.748 -6.322,-2.932c-5.337,-0.368 -10.367,2.583 -15.089,8.855c-3.683,5.452 -6.906,12.006 -9.39,19.502c-2.578,7.579 -4.261,15.13 -4.972,22.838c-0.161,8.815 0.766,16.101 2.598,21.934l0,0Zm-5.959,4.76c-3.011,-14.652 -4.224,-29.446 -3.64,-44.385c0.75,-9.577 2.347,-18.472 4.79,-26.684c2.355,-8.218 5.43,-15.228 9.239,-21.206c3.72,-5.984 7.869,-10.424 12.359,-13.323c4.021,-2.576 6.882,-3.894 8.395,-3.79c1.156,0.08 2.104,0.591 2.938,1.451c0.835,0.86 1.899,2.271 3.2,4.144c9.55,15.726 13.638,34.197 12.181,55.316c-0.692,10.027 -2.699,19.695 -6.041,29.272c-3.247,9.494 -7.709,18.459 -13.373,26.716c-5.759,8.341 -12.328,15.466 -19.802,21.459l4.792,35.458c3.945,-0.173 6.638,-0.344 8.15,-0.24c6.76,0.467 12.711,2.304 18.119,5.53c5.408,3.226 9.948,7.373 13.525,12.524c3.583,5.061 6.228,10.772 7.934,17.13c1.617,6.353 2.327,12.911 1.862,19.654c-0.723,10.471 -4.142,19.864 -10.25,28.091c-6.109,8.227 -14.816,13.956 -26.217,17.271c0.412,4.397 1.222,10.783 2.533,18.987c1.216,8.286 2.103,14.856 2.662,19.709c0.559,4.853 0.596,9.492 0.284,14.018c-0.484,7.01 -2.602,13.105 -6.362,18.373c-3.849,5.262 -8.768,9.202 -14.847,11.814c-5.99,2.618 -12.499,3.685 -19.437,3.206c-9.784,-0.675 -18.134,-4.015 -25.054,-9.931c-6.915,-6.005 -10.32,-13.64 -10.027,-23.071c0.554,-4.152 1.802,-7.989 3.839,-11.593c2.036,-3.604 4.646,-6.455 7.918,-8.547c3.19,-2.188 6.922,-3.178 11.121,-3.156c3.47,0.239 6.693,1.443 9.678,3.521c2.89,2.161 5.203,4.906 6.844,8.318c1.553,3.406 2.28,7.112 2.011,11.016c-0.361,5.235 -2.447,9.549 -6.256,12.942c-3.809,3.393 -8.474,4.943 -13.9,4.569l-2.046,-0.142c3.102,5.564 8.605,8.708 16.522,9.254c4.002,0.276 8.155,-0.329 12.357,-1.644c4.297,-1.397 7.92,-3.376 11.051,-6.013c3.131,-2.637 5.296,-5.519 6.317,-8.659c1.763,-3.533 2.824,-8.542 3.259,-14.842c0.294,-4.26 0.143,-8.55 -0.364,-12.864c-0.513,-4.226 -1.372,-9.902 -2.585,-16.94c-1.218,-6.949 -2.096,-12.36 -2.557,-16.047c-5.429,0.963 -10.993,1.292 -16.775,0.893c-9.695,-0.669 -18.722,-3.253 -27.075,-7.841c-8.353,-4.589 -15.534,-10.612 -21.627,-18.165c-6.003,-7.547 -10.522,-15.883 -13.545,-25.186c-2.94,-9.207 -4.159,-18.742 -3.574,-28.509c0.98,-9.026 3.27,-17.606 7.036,-25.549c3.772,-8.031 8.402,-15.557 13.974,-22.484c5.573,-6.926 11.28,-13.219 17.116,-18.79c5.919,-5.476 13.645,-12.522 23.348,-21.035l0,0Z" style="fill:#131516;stroke:#131516;stroke-width:0.27px;stroke-linecap:butt;stroke-linejoin:miter;stroke-miterlimit:4;"/><g><text x="339.475px" y="495.335px" style="font-family:'Courier';font-size:48px;fill:#0d1419;">3</text><path d="M374.243,463.46l8.576,17.098l-17.151,0l8.575,-17.098Z" style="fill:#0e1517;"/></g><text x="319.789px" y="591.552px" style="font-family:'HiraKakuProN-W6', 'Hiragino Kaku Gothic ProN', sans-serif;font-weight:600;font-size:48px;">き</text><text x="550.932px" y="590.736px" style="font-family:'HiraKakuProN-W6', 'Hiragino Kaku Gothic ProN', sans-serif;font-weight:600;font-size:48px;">み<tspan x="603.732px 656.532px " y="590.736px 590.736px ">はセ</tspan></text><text x="754.308px" y="589.284px" style="font-family:'HiraKakuProN-W6', 'Hiragino Kaku Gothic ProN', sans-serif;font-weight:600;font-size:48px;">ゾ<tspan x="807.108px " y="589.284px ">ン</tspan></text><text x="865.513px" y="588.228px" style="font-family:'HiraKakuProN-W6', 'Hiragino Kaku Gothic ProN', sans-serif;font-weight:600;font-size:48px;">き</text><text x="1000.93px" y="590.736px" style="font-family:'HiraKakuProN-W6', 'Hiragino Kaku Gothic ProN', sans-serif;font-weight:600;font-size:48px;">み<tspan x="1053.73px 1106.53px " y="590.736px 590.736px ">はセ</tspan></text><g transform="matrix(1,0,0,1,-12366.1,-33.9858)"><text x="13570.4px" y="623.27px" style="font-family:'HiraKakuProN-W6', 'Hiragino Kaku Gothic ProN', sans-serif;font-weight:600;font-size:48px;">ゾ<tspan x="13623.2px " y="623.27px ">ン</tspan></text><text x="13695.3px" y="623.27px" style="font-family:'HiraKakuProN-W6', 'Hiragino Kaku Gothic ProN', sans-serif;font-weight:600;font-size:48px;">僕</text></g><text x="1483.67px" y="590.227px" style="font-family:'HiraKakuProN-W6', 'Hiragino Kaku Gothic ProN', sans-serif;font-weight:600;font-size:48px;">の<tspan x="1536.47px " y="590.227px ">前</tspan></text><text x="1725.95px" y="587.587px" style="font-family:'HiraKakuProN-W6', 'Hiragino Kaku Gothic ProN', sans-serif;font-weight:600;font-size:48px;">に</text><text x="2020.06px" y="584.432px" style="font-family:'HiraKakuProN-W6', 'Hiragino Kaku Gothic ProN', sans-serif;font-weight:600;font-size:48px;">あ</text><text x="2256.13px" y="583.952px" style="font-family:'HiraKakuProN-W6', 'Hiragino Kaku Gothic ProN', sans-serif;font-weight:600;font-size:48px;">ら<tspan x="2308.93px 2361.73px " y="583.952px 583.952px ">われ</tspan></text><text x="2506.13px" y="583.952px" style="font-family:'HiraKakuProN-W6', 'Hiragino Kaku Gothic ProN', sans-serif;font-weight:600;font-size:48px;">て</text><g><text x="785.315px" y="488.3px" style="font-family:'Courier';font-size:48px;fill:#0d1419;">3</text><path d="M820.083,456.425l8.576,17.098l-17.152,0l8.576,-17.098Z" style="fill:#0e1517;"/></g><path d="M871.864,288.295l-8.031,-13.215l86.919,-52.822l-7.457,-12.271l30.35,7.406l-7.405,30.35l-7.457,-12.27l-86.919,52.822Z" style="fill:#f15031;"/><g id="_2分音符-Ba.2" serif:id="2分音符 Ba."><path id="onpu2" serif:id="onpu" d="M790.647,282.918c-17.817,9.549 -27.311,26.835 -21.471,39.838c6.229,13.871 27.635,17.785 47.78,8.738c20.145,-9.047 31.439,-27.647 25.21,-41.518c-6.229,-13.87 -27.635,-17.784 -47.78,-8.737c-1.259,0.565 -2.551,1.042 -3.739,1.679Z"/><rect id="しっぽ2" serif:id="しっぽ" x="767.456" y="316.366" width="5" height="180"/></g><g id="_2分音符-Ba.3" serif:id="2分音符 Ba."><path id="onpu3" serif:id="onpu" d="M1280.87,352.589c17.817,-9.549 27.311,-26.834 21.471,-39.838c-6.23,-13.87 -27.635,-17.785 -47.78,-8.738c-20.145,9.048 -31.439,27.647 -25.21,41.518c6.229,13.87 27.634,17.785 47.78,8.738c1.259,-0.566 2.551,-1.043 3.739,-1.68Z"/><rect id="しっぽ3" serif:id="しっぽ" x="1299.06" y="139.141" width="5" height="180"/></g><g id="_2分音符-Ba.4" serif:id="2分音符 Ba."><path id="onpu4" serif:id="onpu" d="M1032.67,163.399c-17.817,9.549 -27.31,26.835 -21.47,39.838c6.229,13.871 27.634,17.785 47.779,8.738c20.146,-9.047 31.44,-27.647 25.21,-41.517c-6.229,-13.871 -27.634,-17.785 -47.779,-8.738c-1.259,0.565 -2.552,1.043 -3.74,1.679Z" style="fill:#0d1419;"/><rect id="しっぽ4" serif:id="しっぽ" x="1009.48" y="196.848" width="5" height="180" style="fill:#0d1419;"/></g><g><text x="581.455px" y="131.924px" style="font-family:'Courier';font-size:48px;fill:#0d1419;">3</text><path d="M618.652,118.693l-8.576,-17.097l17.152,0l-8.576,17.097Z" style="fill:#0e1517;"/></g><g><text x="1027.29px" y="124.889px" style="font-family:'Courier';font-size:48px;fill:#0d1419;">3</text><path d="M1064.49,111.658l-8.576,-17.097l17.152,0l-8.576,17.097Z" style="fill:#0e1517;"/></g><g><text x="1458.61px" y="196.074px" style="font-family:'Courier';font-size:48px;fill:#0d1419;">2</text><path d="M1493.38,181.297l-8.575,-17.098l17.151,0l-8.576,17.098Z" style="fill:#0e1517;"/></g><path d="M1599.01,220.899l9.633,-12.097l94.748,75.455l8.945,-11.232l3.519,31.042l-31.042,3.519l8.945,-11.233l-94.748,-75.454Z" style="fill:#f15031;"/><path d="M1823.22,339.094l4.627,-14.755l141.053,44.232l4.296,-13.701l14.469,27.689l-27.689,14.468l4.297,-13.701l-141.053,-44.232Z" style="fill:#0d1419;"/><g id="_3-" serif:id="3▼"><text x="2075.25px" y="438.419px" style="font-family:'Courier';font-size:48px;fill:#0d1419;">3</text><path d="M2112.45,425.189l-8.576,-17.098l17.152,0l-8.576,17.098Z" style="fill:#0e1517;"/></g><path d="M1335.09,329.141l-8.03,-13.215l112.918,-68.623l-7.457,-12.271l30.351,7.406l-7.405,30.351l-7.458,-12.271l-112.919,68.623Z" style="fill:#f15031;"/><g id="_2分音符-Ba.5" serif:id="2分音符 Ba."><path id="onpu5" serif:id="onpu" d="M1770.87,352.589c17.817,-9.549 27.311,-26.834 21.471,-39.838c-6.23,-13.87 -27.635,-17.785 -47.78,-8.738c-20.145,9.048 -31.439,27.647 -25.21,41.518c6.229,13.87 27.634,17.785 47.78,8.738c1.259,-0.566 2.551,-1.043 3.739,-1.68Z"/><rect id="しっぽ5" serif:id="しっぽ" x="1789.06" y="139.141" width="5" height="180"/></g><g id="_2分音符-Ba.6" serif:id="2分音符 Ba."><path id="onpu6" serif:id="onpu" d="M2059.49,418.022c17.817,-9.548 27.311,-26.834 21.471,-39.838c-6.229,-13.87 -27.635,-17.785 -47.78,-8.738c-20.145,9.048 -31.439,27.648 -25.21,41.518c6.229,13.87 27.635,17.785 47.78,8.738c1.259,-0.566 2.551,-1.043 3.739,-1.68Z"/><rect id="しっぽ6" serif:id="しっぽ" x="2077.68" y="204.574" width="5" height="180"/></g><g id="_2分音符-Ba.7" serif:id="2分音符 Ba."><path id="onpu7" serif:id="onpu" d="M1522.67,193.399c-17.817,9.549 -27.31,26.835 -21.47,39.838c6.229,13.871 27.634,17.785 47.779,8.738c20.146,-9.047 31.44,-27.647 25.21,-41.517c-6.229,-13.871 -27.634,-17.785 -47.779,-8.738c-1.259,0.565 -2.552,1.043 -3.74,1.679Z" style="fill:#0d1419;"/><rect id="しっぽ7" serif:id="しっぽ" x="1499.48" y="226.848" width="5" height="180" style="fill:#0d1419;"/></g><g><text x="2510.98px" y="325.047px" style="font-family:'Courier';font-size:48px;fill:#0d1419;">1<tspan x="2537.39px " y="325.047px ">°</tspan></text></g><g><text x="2228.61px" y="196.074px" style="font-family:'Courier';font-size:48px;fill:#0d1419;">2</text><path d="M2263.38,181.297l-8.575,-17.098l17.151,0l-8.576,17.098Z" style="fill:#0e1517;"/></g><path d="M2353.22,230.008l3.273,-15.114l98.622,21.362l3.04,-14.034l16.914,26.267l-26.267,16.913l3.04,-14.033l-98.622,-21.361Z" style="fill:#0d1419;"/><path d="M2114.52,376.848l-10.649,-11.213l119.879,-113.852l-9.888,-10.412l31.231,0.805l-0.805,31.231l-9.889,-10.412l-119.879,113.853Z" style="fill:#f15031;"/><g id="_2分音符-Ba.8" serif:id="2分音符 Ba."><path id="onpu8" serif:id="onpu" d="M2540.87,272.589c17.817,-9.549 27.311,-26.834 21.471,-39.838c-6.23,-13.87 -27.635,-17.785 -47.78,-8.738c-20.145,9.048 -31.439,27.647 -25.21,41.518c6.229,13.87 27.634,17.785 47.78,8.738c1.259,-0.566 2.551,-1.043 3.739,-1.68Z"/><rect id="しっぽ8" serif:id="しっぽ" x="2559.06" y="59.141" width="5" height="180"/></g><g id="_2分音符-Ba.9" serif:id="2分音符 Ba."><path id="onpu9" serif:id="onpu" d="M2292.67,193.399c-17.817,9.549 -27.31,26.835 -21.47,39.838c6.229,13.871 27.634,17.785 47.779,8.738c20.146,-9.047 31.44,-27.647 25.21,-41.517c-6.229,-13.871 -27.634,-17.785 -47.779,-8.738c-1.259,0.565 -2.552,1.043 -3.74,1.679Z" style="fill:#0d1419;"/><rect id="しっぽ9" serif:id="しっぽ" x="2269.48" y="226.848" width="5" height="180" style="fill:#0d1419;"/></g></svg>