<?xml version="1.0" encoding="UTF-8" standalone="no"?><!DOCTYPE svg PUBLIC "-//W3C//DTD SVG 1.1//EN" "http://www.w3.org/Graphics/SVG/1.1/DTD/svg11.dtd"><svg width="1967.0px" height="620.0px" viewBox="0 0 1967 620" version="1.1" xmlns="http://www.w3.org/2000/svg" xmlns:xlink="http://www.w3.org/1999/xlink" xml:space="preserve" xmlns:serif="http://www.serif.com/" style="fill-rule:evenodd;clip-rule:evenodd;stroke-linecap:round;stroke-linejoin:round;stroke-miterlimit:1.5;"><rect id="_3-gravitation_stride" serif:id="3-gravitation_stride" x="0.839" y="0" width="1966.06" height="619.696" style="fill:none;"/><g id="大譜表"><rect id="外枠" x="62.417" y="175.164" width="1837.07" height="239.038" style="fill:#fff;fill-opacity:0.78;stroke:#000;stroke-width:2px;"/><path id="_--G線" serif:id="↑ G線" d="M62.417,355.164l1837.07,0" style="fill:none;stroke:#000;stroke-width:2px;"/><path id="_--B線" serif:id="↑ B線" d="M62.417,295.164l1837.07,0" style="fill:none;stroke:#000;stroke-width:2px;"/><path id="_--D線" serif:id="↑ D線" d="M62.417,235.164l1837.07,-0" style="fill:none;stroke:#000;stroke-width:2px;"/></g><path id="bar2" d="M1009.05,176.646l-0,237.037" style="fill:none;stroke:#000;stroke-width:4px;"/><g><text x="297.826px" y="101.02px" style="font-family:'NotoSansSC-Bold', 'Noto Sans SC', sans-serif;font-weight:700;font-size:64px;fill:#0d1419;">没有跨越的</text><text x="617.826px" y="101.02px" style="font-family:'NotoSansSC-Bold', 'Noto Sans SC', sans-serif;font-weight:700;font-size:64px;fill:#0d1419;">收敛・终止</text></g><g transform="matrix(1,0,0,1,340.998,564.02)"><text x="0px" y="0px" style="font-family:'HiraKakuProN-W3', 'Hiragino Kaku Gothic ProN', sans-serif;font-weight:300;font-size:48px;fill:#0d1419;">→平</text><text x="96px" y="0px" style="font-family:'STHeitiSC-Light', 'Heiti SC';font-weight:300;font-size:48px;fill:#0d1419;">稳</text><text x="144px" y="0px" style="font-family:'HiraKakuProN-W3', 'Hiragino Kaku Gothic ProN', sans-serif;font-weight:300;font-size:48px;fill:#0d1419;">和平静的印象</text></g><g><text x="1193px" y="564.02px" style="font-family:'HiraKakuProN-W3', 'Hiragino Kaku Gothic ProN', sans-serif;font-weight:300;font-size:48px;fill:#0d1419;">→</text><g transform="matrix(1,0,0,1,1241,564.02)"><text x="0px" y="0px" style="font-family:'HiraKakuProN-W3', 'Hiragino Kaku Gothic ProN', sans-serif;font-weight:300;font-size:48px;fill:#0d1419;">激</text><text x="48px" y="0px" style="font-family:'STHeitiSC-Light', 'Heiti SC';font-weight:300;font-size:48px;fill:#0d1419;">动</text><text x="96px" y="0px" style="font-family:'HiraKakuProN-W3', 'Hiragino Kaku Gothic ProN', sans-serif;font-weight:300;font-size:48px;fill:#0d1419;">和情</text><text x="192px" y="0px" style="font-family:'STHeitiSC-Light', 'Heiti SC';font-weight:300;font-size:48px;fill:#0d1419;">绪</text><text x="240px" y="0px" style="font-family:'HiraKakuProN-W3', 'Hiragino Kaku Gothic ProN', sans-serif;font-weight:300;font-size:48px;fill:#0d1419;">化的印象</text></g></g><path id="bar-0" serif:id="bar 0" d="M58.839,177.164l0,237.038" style="fill:none;stroke:#000;stroke-width:6px;"/><path id="G" d="M163.817,329.786c-5.53,1.134 -10.655,4.168 -15.547,9.002c-4.898,4.922 -7.52,10.537 -7.948,16.748c-0.269,3.904 0.759,8.433 3.014,13.314c2.249,4.97 5.924,8.701 10.841,11.269c1.665,0.471 2.405,1.414 2.319,2.656c-0.031,0.444 -0.684,0.845 -2.22,1.095c-7.954,-2.599 -14.326,-7.407 -19.038,-14.241c-4.706,-6.922 -6.86,-14.56 -6.45,-23.091c0.897,-9.121 4.243,-17.45 10.03,-24.896c5.882,-7.53 13.116,-12.647 21.704,-15.354l-3.964,-31.924c-14.482,10.413 -26.415,21.447 -35.9,33.275c-9.48,11.739 -14.852,24.831 -16.206,39.27c-0.269,6.49 0.631,12.882 2.705,19.088c2.068,6.295 5.425,12.054 10.057,17.456c9.36,10.721 22.074,16.858 37.96,18.489c5.45,0.02 11.299,-0.558 17.636,-1.725l-8.993,-70.431Zm6.465,-0.446l9.168,69.195c14.078,-4.556 21.754,-16.063 23.015,-34.342c-0.378,-6.178 -1.777,-11.803 -4.465,-16.892c-2.592,-5.171 -6.237,-9.346 -11.022,-12.529c-4.785,-3.183 -10.291,-4.99 -16.696,-5.432Zm-11.867,-93.542c3.058,-1.572 6.652,-4.445 10.599,-8.541c3.941,-4.008 7.848,-8.82 11.62,-14.266c3.867,-5.529 7.029,-11.195 9.485,-16.999c2.45,-5.715 3.814,-11.238 4.169,-16.385c0.153,-2.218 0.128,-4.449 -0.182,-6.432c-0.135,-3.219 -0.942,-5.771 -2.516,-7.573c-1.58,-1.714 -3.653,-2.749 -6.322,-2.933c-5.337,-0.368 -10.367,2.583 -15.09,8.855c-3.683,5.452 -6.905,12.006 -9.389,19.502c-2.578,7.579 -4.261,15.13 -4.972,22.838c-0.161,8.815 0.766,16.101 2.598,21.934Zm-5.959,4.76c-3.011,-14.652 -4.225,-29.446 -3.641,-44.385c0.751,-9.577 2.347,-18.472 4.791,-26.684c2.354,-8.218 5.43,-15.228 9.239,-21.206c3.719,-5.984 7.869,-10.423 12.359,-13.323c4.021,-2.576 6.882,-3.894 8.394,-3.79c1.157,0.08 2.105,0.591 2.939,1.451c0.834,0.86 1.899,2.271 3.2,4.144c9.55,15.727 13.638,34.197 12.181,55.316c-0.692,10.027 -2.7,19.696 -6.042,29.272c-3.247,9.495 -7.708,18.459 -13.372,26.717c-5.759,8.34 -12.329,15.465 -19.803,21.458l4.793,35.458c3.945,-0.173 6.638,-0.344 8.15,-0.24c6.76,0.467 12.711,2.304 18.119,5.53c5.408,3.226 9.948,7.373 13.525,12.524c3.583,5.062 6.228,10.772 7.934,17.131c1.617,6.352 2.327,12.91 1.861,19.654c-0.722,10.47 -4.141,19.863 -10.25,28.09c-6.109,8.227 -14.816,13.956 -26.216,17.271c0.411,4.397 1.222,10.783 2.533,18.987c1.215,8.287 2.103,14.856 2.662,19.709c0.559,4.853 0.596,9.492 0.284,14.018c-0.484,7.01 -2.603,13.105 -6.362,18.373c-3.849,5.262 -8.768,9.202 -14.847,11.814c-5.99,2.618 -12.499,3.685 -19.437,3.206c-9.785,-0.675 -18.134,-4.015 -25.055,-9.931c-6.914,-6.005 -10.32,-13.64 -10.026,-23.071c0.554,-4.152 1.802,-7.988 3.838,-11.593c2.036,-3.604 4.646,-6.455 7.919,-8.547c3.189,-2.188 6.922,-3.178 11.121,-3.156c3.469,0.239 6.693,1.443 9.678,3.521c2.89,2.161 5.203,4.906 6.844,8.318c1.552,3.406 2.28,7.112 2.011,11.016c-0.362,5.235 -2.447,9.549 -6.256,12.942c-3.809,3.393 -8.474,4.943 -13.9,4.569l-2.046,-0.141c3.102,5.563 8.605,8.707 16.521,9.253c4.003,0.276 8.156,-0.329 12.358,-1.644c4.297,-1.397 7.919,-3.376 11.051,-6.013c3.131,-2.637 5.296,-5.519 6.317,-8.659c1.763,-3.533 2.824,-8.542 3.259,-14.842c0.293,-4.26 0.143,-8.55 -0.364,-12.864c-0.513,-4.226 -1.373,-9.902 -2.585,-16.94c-1.219,-6.949 -2.097,-12.359 -2.557,-16.047c-5.429,0.963 -10.993,1.293 -16.775,0.894c-9.695,-0.669 -18.723,-3.254 -27.075,-7.842c-8.353,-4.589 -15.534,-10.612 -21.627,-18.165c-6.004,-7.547 -10.523,-15.883 -13.545,-25.185c-2.94,-9.208 -4.159,-18.743 -3.574,-28.51c0.98,-9.026 3.27,-17.606 7.036,-25.549c3.771,-8.031 8.402,-15.557 13.974,-22.484c5.572,-6.926 11.28,-13.219 17.116,-18.79c5.919,-5.476 13.644,-12.522 23.348,-21.035Z" style="fill:#131516;stroke:#131516;stroke-width:0.27px;stroke-linecap:butt;stroke-linejoin:miter;stroke-miterlimit:4;"/><path d="M1302.52,201.143l6.352,-7.404l83.122,71.304l5.898,-6.876l1.504,19.652l-19.652,1.504l5.898,-6.875l-83.122,-71.305Z" style="fill:#f15031;"/><g><text x="1349.9px" y="221.422px" style="font-family:'Georgia-Italic', 'Georgia', serif;font-style:italic;font-size:48px;fill:#f15031;">s</text><text x="1368.2px" y="221.422px" style="font-family:'Georgia-Italic', 'Georgia', serif;font-style:italic;font-size:48px;fill:#f15031;">tr.</text></g><path d="M1509.45,296.164l-1.958,-9.557l93.041,-19.058l-1.818,-8.875l16.45,10.857l-10.856,16.45l-1.818,-8.875l-93.041,19.058Z"/><g id="_2分音符-Ba." serif:id="2分音符 Ba."><path id="onpu" d="M1244.86,152.716c-17.817,9.549 -27.311,26.835 -21.471,39.838c6.23,13.871 27.635,17.785 47.78,8.738c20.145,-9.047 31.439,-27.647 25.21,-41.517c-6.229,-13.871 -27.634,-17.785 -47.78,-8.738c-1.259,0.565 -2.551,1.043 -3.739,1.679Z"/><rect id="しっぽ" x="1221.66" y="186.164" width="5" height="180"/></g><text x="1132.28px" y="90.564px" style="font-family:'NotoSansSC-Bold', 'Noto Sans SC', sans-serif;font-weight:700;font-size:64px;fill:#0d1419;">伴随跨越的收敛・终止</text><g id="_2分音符-Ba.1" serif:id="2分音符 Ba."><path id="onpu1" serif:id="onpu" d="M1434.86,272.716c-17.817,9.549 -27.311,26.835 -21.471,39.838c6.23,13.871 27.635,17.785 47.78,8.738c20.145,-9.047 31.439,-27.647 25.21,-41.517c-6.229,-13.871 -27.634,-17.785 -47.78,-8.738c-1.259,0.565 -2.551,1.043 -3.739,1.679Z"/><rect id="しっぽ1" serif:id="しっぽ" x="1411.66" y="306.164" width="5" height="180"/></g><g id="_2分音符-Ba.2" serif:id="2分音符 Ba."><path id="onpu2" serif:id="onpu" d="M1653.43,242.716c-17.817,9.549 -27.31,26.835 -21.47,39.838c6.229,13.871 27.634,17.785 47.779,8.738c20.145,-9.047 31.44,-27.647 25.21,-41.517c-6.229,-13.871 -27.634,-17.785 -47.779,-8.738c-1.259,0.565 -2.552,1.043 -3.74,1.679Z" style="fill:#0e1517;"/><rect id="しっぽ2" serif:id="しっぽ" x="1630.24" y="276.164" width="5" height="180" style="fill:#0e1517;"/></g><path d="M652.497,232.981l-1.958,9.557l93.041,19.058l-1.818,8.875l16.45,-10.857l-10.856,-16.45l-1.818,8.875l-93.041,-19.058Z"/><path d="M455.693,183.042l-3.211,9.212l81.712,28.479l-2.981,8.554l17.747,-8.574l-8.573,-17.747l-2.982,8.554l-81.712,-28.478Z"/><g id="_2分音符-Ba.3" serif:id="2分音符 Ba."><path id="onpu3" serif:id="onpu" d="M390.814,152.716c-17.817,9.549 -27.311,26.835 -21.471,39.838c6.229,13.871 27.635,17.785 47.78,8.738c20.145,-9.047 31.439,-27.647 25.21,-41.517c-6.23,-13.871 -27.635,-17.785 -47.78,-8.738c-1.259,0.565 -2.551,1.043 -3.739,1.679Z"/><rect id="しっぽ3" serif:id="しっぽ" x="367.623" y="186.164" width="5" height="180"/></g><g><text x="798.252px" y="222.102px" style="font-family:'Courier';font-size:48px;fill:#0e1517;">1</text><text x="824.657px" y="222.102px" style="font-family:'Courier';font-size:48px;fill:#0e1517;">°</text></g><g><text x="1652.45px" y="222.102px" style="font-family:'Courier';font-size:48px;fill:#0e1517;">1</text><text x="1678.85px" y="222.102px" style="font-family:'Courier';font-size:48px;fill:#0e1517;">°</text></g><g id="_2分音符-Ba.4" serif:id="2分音符 Ba."><path id="onpu4" serif:id="onpu" d="M580.814,212.716c-17.817,9.549 -27.311,26.835 -21.471,39.838c6.229,13.871 27.635,17.785 47.78,8.738c20.145,-9.047 31.439,-27.647 25.21,-41.517c-6.23,-13.871 -27.635,-17.785 -47.78,-8.738c-1.259,0.565 -2.551,1.043 -3.739,1.679Z"/><rect id="しっぽ4" serif:id="しっぽ" x="557.623" y="246.164" width="5" height="180"/></g><g id="_2分音符-Ba.5" serif:id="2分音符 Ba."><path id="onpu5" serif:id="onpu" d="M799.391,242.716c-17.817,9.549 -27.311,26.835 -21.471,39.838c6.229,13.871 27.635,17.785 47.78,8.738c20.145,-9.047 31.439,-27.647 25.21,-41.517c-6.229,-13.871 -27.635,-17.785 -47.78,-8.738c-1.259,0.565 -2.551,1.043 -3.739,1.679Z" style="fill:#0e1517;"/><rect id="しっぽ5" serif:id="しっぽ" x="776.2" y="276.164" width="5" height="180" style="fill:#0e1517;"/></g><g id="_2-" serif:id="2▼"><text x="310.36px" y="222.102px" style="font-family:'Courier';font-size:48px;fill:#0d1419;">4</text><path d="M345.128,207.325l-8.576,-17.098l17.152,-0l-8.576,17.098Z" style="fill:#0e1517;"/></g><g id="_2-1" serif:id="2▼"><text x="503.034px" y="279.764px" style="font-family:'Courier';font-size:48px;fill:#0d1419;">2</text><path d="M537.802,264.987l-8.576,-17.098l17.152,0l-8.576,17.098Z" style="fill:#0e1517;"/></g><g id="_4-" serif:id="4▼"><text x="1168.33px" y="216.642px" style="font-family:'Courier';font-size:48px;fill:#0d1419;">4</text><path d="M1203.1,201.864l-8.576,-17.097l17.152,0l-8.576,17.097Z" style="fill:#0e1517;"/></g><g id="_2-2" serif:id="2▲"><text x="1357.08px" y="339.764px" style="font-family:'Courier';font-size:48px;fill:#0d1419;">2</text><path d="M1391.84,307.889l8.576,17.098l-17.152,0l8.576,-17.098Z" style="fill:#0e1517;"/></g></svg>