<?xml version="1.0" encoding="UTF-8" standalone="no"?><!DOCTYPE svg PUBLIC "-//W3C//DTD SVG 1.1//EN" "http://www.w3.org/Graphics/SVG/1.1/DTD/svg11.dtd"><svg width="2546.0px" height="1201.0px" viewBox="0 0 2546 1201" version="1.1" xmlns="http://www.w3.org/2000/svg" xmlns:xlink="http://www.w3.org/1999/xlink" xml:space="preserve" xmlns:serif="http://www.serif.com/" style="fill-rule:evenodd;clip-rule:evenodd;stroke-linecap:round;stroke-linejoin:round;stroke-miterlimit:1.5;"><g><g id="c1-add-I672"><rect x="0" y="0" width="2545.5" height="1200.55" style="fill:none;"/><g id="大譜表"><g id="外枠"><rect x="114.97" y="233.196" width="2389.82" height="700.001" style="fill:#fff;fill-opacity:0.78;stroke:#000;stroke-width:1.98px;"/></g><g id="_--G線" serif:id="↑ G線"><path d="M115,413.195l2389.83,-0" style="fill:none;stroke:#000;stroke-width:2.01px;"/></g><g id="_--E線" serif:id="↑ E線"><path d="M115,473.194l2389.83,0" style="fill:none;stroke:#000;stroke-width:2.01px;"/></g><g id="_--B線" serif:id="↑ B線"><path d="M115,353.194l2389.83,0" style="fill:none;stroke:#000;stroke-width:2.01px;"/></g><g id="_--D線" serif:id="↑ D線"><path d="M115,293.195l2389.83,-0" style="fill:none;stroke:#000;stroke-width:2.01px;"/></g><g id="_--B線1" serif:id="↓ B線"><path d="M115,873.195l2389.83,0" style="fill:none;stroke:#000;stroke-width:2.01px;"/></g><g id="_--D線1" serif:id="↓ D線"><path d="M115,813.195l2389.83,0" style="fill:none;stroke:#000;stroke-width:2.01px;"/></g><g id="_--F線" serif:id="↓ F線"><path d="M115,753.195l2389.83,0" style="fill:none;stroke:#000;stroke-width:2.01px;"/></g><g id="_--A線" serif:id="↓ A線"><path d="M115,693.195l2389.83,0" style="fill:none;stroke:#000;stroke-width:2.01px;"/></g></g><g id="bar-0" serif:id="bar 0"><path d="M113.003,234.197l0,697.999" style="fill:none;stroke:#000;stroke-width:6.02px;"/></g><g id="bar-01" serif:id="bar 0"><path d="M800.083,234.197l-0,697.999" style="fill:none;stroke:#000;stroke-width:3.5px;"/></g><g id="bar-02" serif:id="bar 0"><path d="M1390.74,234.197l-0,697.999" style="fill:none;stroke:#000;stroke-width:3.5px;"/></g><g id="bar-03" serif:id="bar 0"><path d="M1970.94,234.197l0,697.999" style="fill:none;stroke:#000;stroke-width:3.5px;"/></g><g id="_-" serif:id="{"><path d="M37.754,577.824c69.329,-122.929 -74.671,-186.966 49.231,-320c-121.772,155.495 56.111,167.938 -49.231,320c69.329,122.929 -74.671,186.966 49.231,320c-121.772,-155.495 56.111,-167.939 -49.231,-320Z" style="fill-rule:nonzero;"/><path d="M97.631,246.685l-9.797,12.542l-0.357,0.455l-0.344,0.443l-0.345,0.456l-0.357,0.455l-0.345,0.443l-0.344,0.455l-0.345,0.444l-0.332,0.443l-0.345,0.443l-0.332,0.455l-0.345,0.443l-0.997,1.329l-0.32,0.443l-0.332,0.431l-0.32,0.443l-0.332,0.443l-0.32,0.431l-0.32,0.443l-0.32,0.431l-0.32,0.443l-0.308,0.431l-0.32,0.431l-0.308,0.43l-0.32,0.431l-0.307,0.431l-0.308,0.443l-0.308,0.431l-0.295,0.418l-0.615,0.862l-0.296,0.431l-0.295,0.418l-0.296,0.431l-0.295,0.418l-0.295,0.431l-0.296,0.418l-0.283,0.419l-0.295,0.431l-1.699,2.51l-0.27,0.419l-0.283,0.406l-0.542,0.837l-0.271,0.406l-0.271,0.419l-0.27,0.406l-0.259,0.418l-0.271,0.406l-0.258,0.407l-0.271,0.418l-1.034,1.625l-0.246,0.406l-0.258,0.394l-0.493,0.812l-0.258,0.406l-0.246,0.394l-0.246,0.406l-0.234,0.394l-0.246,0.406l-0.246,0.394l-0.234,0.394l-0.246,0.406l-0.936,1.575l-0.221,0.394l-0.468,0.788l-0.443,0.788l-0.222,0.381l-0.221,0.394l-0.222,0.381l-0.221,0.394l-0.222,0.382l-0.209,0.394l-0.222,0.381l-0.209,0.382l-0.209,0.394l-0.222,0.381l-0.209,0.382l-0.197,0.381l-0.418,0.763l-0.197,0.382l-0.209,0.381l-0.197,0.382l-0.197,0.369l-0.394,0.763l-0.197,0.369l-0.197,0.382l-0.185,0.369l-0.196,0.382l-0.197,0.369l-0.37,0.738l-0.184,0.382l-0.554,1.108l-0.172,0.369l-0.185,0.369l-0.172,0.369l-0.185,0.37l-0.172,0.357l-0.345,0.738l-0.172,0.357l-0.172,0.369l-0.16,0.369l-0.173,0.357l-0.16,0.357l-0.172,0.37l-0.16,0.356l-0.16,0.37l-0.64,1.427l-0.148,0.357l-0.16,0.357l-0.147,0.357l-0.16,0.357l-0.148,0.345l-0.443,1.07l-0.148,0.345l-0.135,0.357l-0.148,0.345l-0.135,0.357l-0.148,0.344l-0.135,0.357l-0.677,1.723l-0.136,0.357l-0.123,0.345l-0.135,0.344l-0.123,0.333l-0.136,0.357l-0.123,0.332l-0.369,1.034l-0.123,0.332l-0.123,0.345l-0.111,0.332l-0.123,0.345l-0.111,0.332l-0.111,0.344l-0.123,0.333l-0.11,0.332l-0.111,0.345l-0.332,0.997l-0.099,0.332l-0.111,0.332l-0.098,0.333l-0.111,0.332l-0.197,0.664l-0.111,0.333l-0.098,0.332l-0.099,0.32l-0.098,0.332l-0.086,0.333l-0.099,0.32l-0.098,0.332l-0.086,0.332l-0.086,0.32l-0.099,0.32l-0.086,0.333l-0.086,0.32l-0.086,0.332l-0.345,1.28l-0.074,0.32l-0.086,0.32l-0.074,0.32l-0.086,0.32l-0.295,1.28l-0.074,0.308l-0.222,0.96l-0.061,0.307l-0.074,0.32l-0.062,0.308l-0.073,0.32l-0.062,0.308l-0.062,0.32l-0.123,0.615l-0.061,0.32l-0.185,0.923l-0.049,0.308l-0.062,0.308l-0.049,0.307l-0.061,0.32l-0.05,0.296l-0.147,0.923l-0.062,0.307l-0.037,0.308l-0.049,0.295l-0.098,0.616l-0.037,0.308l-0.05,0.295l-0.036,0.308l-0.05,0.295l-0.037,0.308l-0.037,0.295l-0.049,0.295l-0.037,0.308l-0.037,0.296l-0.037,0.307l-0.024,0.296l-0.111,0.886l-0.025,0.307l-0.036,0.296l-0.05,0.591l-0.037,0.295l-0.073,0.874l-0.099,1.181l-0.012,0.283l-0.049,0.591l-0.013,0.283l-0.024,0.296l-0.025,0.578l-0.025,0.296l-0.024,0.566l-0.037,0.874l-0.012,0.283l-0,0.283l-0.025,0.578l-0,0.283l-0.012,0.283l-0,0.283l-0.013,0.283l0,1.133l-0.012,0.283l0,0.283l0.012,0.283l0,1.12l0.013,0.283l-0,0.283l0.012,0.271l-0,0.283l0.025,0.554l-0,0.283l0.098,2.215l0.037,0.542l0.037,0.554l0.074,1.083l0.049,0.554l0.037,0.541l0.098,1.083l0.062,0.529l0.049,0.542l0.062,0.542l0.061,0.529l0.062,0.541l0.074,0.53l0.061,0.541l0.222,1.588l0.086,0.529l0.074,0.529l0.086,0.517l0.172,1.059l0.086,0.517l0.099,0.529l0.086,0.517l0.295,1.55l0.111,0.53l0.098,0.517l0.111,0.504l0.333,1.551l0.123,0.517l0.11,0.505l0.123,0.504l0.124,0.517l0.11,0.505l0.136,0.517l0.246,1.009l0.135,0.504l0.123,0.505l0.406,1.514l0.148,0.505l0.271,1.009l0.148,0.492l0.295,1.009l0.148,0.493l0.147,0.504l0.148,0.493l0.148,0.504l0.16,0.492l0.147,0.505l0.32,0.985l0.148,0.492l0.16,0.492l0.172,0.505l0.48,1.477l0.173,0.492l0.16,0.492l0.344,0.985l0.16,0.492l0.173,0.493l0.172,0.48l0.517,1.477l0.185,0.492l0.172,0.48l0.172,0.492l0.185,0.493l0.172,0.48l0.357,0.984l0.369,0.972l0.357,0.973l1.477,3.889l0.382,0.972l0.369,0.985l0.381,0.96l0.751,1.957l0.751,1.944l0.763,1.945l0.382,0.985l0.369,0.972l0.381,0.985l0.37,0.972l0.381,0.985l0.369,0.972l1.108,2.954l0.369,0.997l0.173,0.492l0.369,0.985l0.172,0.504l0.185,0.492l0.172,0.493l0.185,0.504l0.172,0.493l0.172,0.504l0.185,0.493l0.172,0.504l0.172,0.493l0.517,1.513l0.16,0.505l0.173,0.492l0.16,0.505l0.172,0.505l0.16,0.504l0.172,0.505l0.16,0.517l0.48,1.514l0.16,0.516l0.148,0.505l0.16,0.517l0.148,0.505l0.16,0.517l0.738,2.584l0.136,0.517l0.147,0.517l0.271,1.034l0.148,0.529l0.123,0.517l0.135,0.529l0.136,0.517l0.135,0.529l0.246,1.059l0.123,0.517l0.123,0.541l0.246,1.059l0.111,0.529l0.111,0.542l0.123,0.529l0.098,0.529l0.222,1.083l0.098,0.542l0.111,0.541l0.296,1.625l0.086,0.541l0.098,0.554l0.086,0.542l0.087,0.554l0.086,0.541l0.074,0.554l0.086,0.554l0.221,1.661l0.062,0.567l0.074,0.553l0.061,0.567l0.062,0.553l0.061,0.567l0.049,0.566l0.062,0.566l0.098,1.132l0.037,0.579l0.05,0.566l0.037,0.578l0.036,0.566l0.037,0.579l0.025,0.578l0.037,0.579l0.049,1.169l0,0.283l0.025,0.591l-0,0.295l0.024,0.579l0,0.59l0.013,0.296l-0,2.671l-0.013,0.295l0,0.308l-0.012,0.295l0,0.295l-0.012,0.308l-0,0.296l-0.049,1.206l-0.05,1.218l-0.024,0.296l-0.025,0.615l-0.025,0.308l-0.012,0.307l-0.024,0.296l-0.025,0.32l-0.012,0.307l-0.123,1.539l-0.037,0.308l-0.025,0.32l-0.025,0.307l-0.037,0.308l-0.024,0.308l-0.037,0.32l-0.025,0.307l-0.037,0.32l-0.037,0.308l-0.036,0.32l-0.037,0.308l-0.074,0.64l-0.037,0.307l-0.037,0.32l-0.049,0.32l-0.037,0.32l-0.049,0.308l-0.037,0.32l-0.099,0.64l-0.037,0.32l-0.197,1.28l-0.061,0.332l-0.099,0.64l-0.061,0.32l-0.049,0.333l-0.124,0.64l-0.049,0.332l-0.061,0.32l-0.123,0.665l-0.062,0.32l-0.074,0.332l-0.061,0.332l-0.062,0.32l-0.074,0.333l-0.061,0.332l-0.074,0.332l-0.062,0.332l-0.073,0.32l-0.148,0.665l-0.074,0.345l-0.148,0.664l-0.086,0.333l-0.074,0.332l-0.086,0.345l-0.074,0.332l-0.086,0.332l-0.074,0.345l-0.086,0.332l-0.086,0.345l-0.086,0.332l-0.086,0.345l-0.086,0.332l-0.099,0.345l-0.086,0.344l-0.086,0.332l-0.197,0.69l-0.086,0.344l-0.591,2.068l-0.111,0.345l-0.098,0.357l-0.111,0.344l-0.099,0.345l-0.11,0.344l-0.111,0.357l-0.111,0.345l-0.111,0.357l-0.11,0.344l-0.222,0.714l-0.123,0.345l-0.111,0.357l-0.123,0.357l-0.111,0.357l-0.738,2.141l-0.135,0.357l-0.124,0.357l-0.135,0.357l-0.123,0.369l-0.271,0.714l-0.135,0.369l-0.136,0.357l-0.135,0.369l-0.135,0.357l-0.148,0.37l-0.135,0.369l-0.148,0.357l-0.135,0.369l-0.887,2.215l-0.16,0.37l-0.147,0.369l-0.16,0.381l-0.148,0.37l-0.32,0.738l-0.16,0.382l-0.16,0.369l-0.16,0.381l-0.172,0.382l-0.16,0.369l-0.16,0.382l-0.173,0.381l-0.172,0.369l-1.034,2.29l-0.184,0.381l-0.173,0.394l-0.369,0.763l-0.185,0.394l-0.369,0.763l-0.184,0.394l-0.185,0.381l-0.197,0.394l-0.185,0.394l-0.196,0.394l-0.197,0.382l-0.788,1.575l-0.209,0.394l-0.197,0.394l-0.209,0.393l-0.197,0.394l-0.21,0.406l-0.209,0.394l-0.209,0.406l-0.419,0.788l-0.221,0.406l-0.209,0.406l-0.222,0.394l-0.221,0.406l-0.21,0.407l-0.443,0.812l-0.234,0.406l-0.443,0.812l-0.233,0.407l-0.222,0.406l-0.234,0.406l-0.234,0.418l-0.467,0.813l-0.234,0.418l-0.246,0.406l-0.234,0.419l-0.246,0.406l-0.493,0.837l-0.234,0.418l-0.246,0.406l-0.258,0.431l-0.246,0.419l-0.246,0.406l-0.259,0.431l-0.517,0.836l-0.246,0.419l-0.258,0.431l-0.271,0.418l-0.259,0.431l-0.258,0.418l-0.271,0.431l-0.271,0.419l-0.258,0.43l-0.542,0.862l-0.283,0.431l-0.271,0.43l-0.27,0.419l-0.283,0.443l-0.283,0.431l-0.271,0.431l-0.566,0.861l-0.283,0.443l-0.296,0.431l-0.283,0.443l-0.295,0.431l-0.283,0.443l-0.296,0.443l-0.295,0.431l-0.296,0.443l-0.307,0.443l-0.591,0.886l-0.615,0.886l-0.308,0.456l-0.012,0.012l0.012,0.012l0.308,0.456l0.615,0.886l0.591,0.886l0.307,0.443l0.296,0.443l0.295,0.431l0.296,0.443l0.283,0.443l0.295,0.431l0.283,0.443l0.283,0.431l0.296,0.43l0.283,0.443l0.566,0.862l0.271,0.431l0.283,0.43l0.27,0.444l0.271,0.418l0.283,0.431l0.542,0.861l0.258,0.431l0.271,0.419l0.271,0.43l0.258,0.419l0.259,0.431l0.271,0.418l0.258,0.431l0.246,0.418l0.776,1.256l0.246,0.43l0.246,0.407l0.258,0.418l0.493,0.837l0.233,0.418l0.247,0.419l0.246,0.406l0.234,0.419l0.246,0.406l0.234,0.418l0.467,0.812l0.234,0.419l0.234,0.406l0.222,0.406l0.233,0.406l0.222,0.419l0.221,0.394l0.234,0.406l0.443,0.812l0.21,0.406l0.221,0.406l0.222,0.394l0.209,0.406l0.221,0.394l0.21,0.406l0.209,0.394l0.209,0.406l0.419,0.788l0.197,0.406l0.209,0.394l0.197,0.394l0.209,0.394l0.985,1.969l0.196,0.382l0.185,0.393l0.197,0.382l0.369,0.788l0.369,0.763l0.185,0.394l0.185,0.381l0.184,0.394l0.173,0.382l0.184,0.381l1.206,2.671l0.173,0.369l0.16,0.382l0.16,0.369l0.172,0.381l0.16,0.382l0.16,0.369l0.16,0.382l0.32,0.738l0.148,0.382l0.16,0.369l0.147,0.369l0.16,0.369l0.887,2.216l0.135,0.369l0.148,0.357l0.135,0.369l0.148,0.369l0.135,0.357l0.135,0.37l0.136,0.356l0.135,0.37l0.271,0.714l0.123,0.369l0.135,0.357l0.124,0.357l0.135,0.357l0.246,0.713l0.123,0.37l0.123,0.344l0.246,0.714l0.111,0.357l0.123,0.357l0.111,0.357l0.123,0.344l0.222,0.714l0.221,0.69l0.222,0.713l0.11,0.345l0.099,0.345l0.111,0.344l0.098,0.357l0.111,0.345l0.591,2.067l0.086,0.345l0.197,0.689l0.086,0.333l0.086,0.344l0.099,0.345l0.086,0.332l0.086,0.345l0.086,0.332l0.086,0.345l0.086,0.332l0.074,0.345l0.086,0.332l0.074,0.332l0.086,0.345l0.074,0.332l0.086,0.332l0.148,0.665l0.074,0.345l0.148,0.664l0.073,0.32l0.062,0.333l0.074,0.332l0.061,0.332l0.074,0.333l0.062,0.32l0.074,0.332l0.061,0.332l0.062,0.32l0.123,0.665l0.061,0.32l0.049,0.332l0.124,0.64l0.049,0.332l0.061,0.32l0.099,0.64l0.061,0.333l0.197,1.28l0.037,0.32l0.099,0.64l0.037,0.32l0.049,0.307l0.037,0.32l0.049,0.32l0.037,0.32l0.037,0.308l0.074,0.64l0.037,0.308l0.036,0.32l0.037,0.307l0.037,0.32l0.025,0.308l0.037,0.32l0.024,0.308l0.037,0.308l0.05,0.627l0.037,0.308l0.123,1.538l0.012,0.308l0.049,0.615l0.012,0.308l0.025,0.308l0.025,0.615l0.024,0.296l0.025,0.615l0.037,0.898l0.037,0.911l-0,0.296l0.012,0.307l0,0.296l0.012,0.295l0,0.308l0.013,0.295l-0,2.671l-0.013,0.295l0,0.591l-0.024,0.579l-0,0.295l-0.025,0.591l0,0.283l-0.049,1.169l-0.037,0.578l-0.025,0.579l-0.037,0.578l-0.036,0.567l-0.037,0.578l-0.05,0.566l-0.037,0.579l-0.098,1.132l-0.062,0.566l-0.049,0.566l-0.061,0.566l-0.062,0.554l-0.061,0.566l-0.074,0.554l-0.062,0.566l-0.221,1.662l-0.086,0.554l-0.074,0.554l-0.086,0.541l-0.087,0.554l-0.086,0.542l-0.098,0.553l-0.086,0.542l-0.296,1.625l-0.111,0.541l-0.098,0.542l-0.222,1.083l-0.098,0.529l-0.123,0.541l-0.222,1.059l-0.738,3.175l-0.135,0.53l-0.136,0.516l-0.135,0.53l-0.123,0.517l-0.148,0.529l-0.271,1.034l-0.147,0.517l-0.136,0.517l-0.738,2.584l-0.16,0.517l-0.148,0.505l-0.16,0.517l-0.148,0.504l-0.16,0.517l-0.48,1.514l-0.16,0.517l-0.172,0.505l-0.16,0.504l-0.172,0.505l-0.16,0.504l-0.173,0.493l-0.172,0.504l-0.16,0.505l-0.345,1.009l-0.172,0.492l-0.172,0.505l-0.185,0.492l-0.172,0.505l-0.172,0.492l-0.185,0.505l-0.172,0.492l-0.185,0.505l-0.172,0.492l-0.369,0.985l-0.173,0.492l-0.369,0.997l-0.738,1.969l-0.37,0.973l-0.369,0.984l-0.381,0.985l-0.37,0.972l-0.381,0.985l-0.369,0.972l-0.382,0.985l-0.763,1.944l-1.502,3.89l-0.381,0.984l-0.369,0.96l-0.382,0.985l-1.477,3.889l-0.357,0.972l-0.369,0.973l-0.357,0.984l-0.172,0.48l-0.185,0.493l-0.172,0.492l-0.172,0.48l-0.185,0.492l-0.517,1.477l-0.172,0.48l-0.173,0.492l-0.16,0.493l-0.344,0.984l-0.16,0.493l-0.173,0.492l-0.48,1.477l-0.172,0.504l-0.16,0.493l-0.148,0.492l-0.16,0.492l-0.16,0.505l-0.147,0.492l-0.16,0.493l-0.148,0.504l-0.148,0.493l-0.147,0.504l-0.148,0.492l-0.295,1.01l-0.148,0.492l-0.271,1.009l-0.148,0.505l-0.406,1.514l-0.123,0.504l-0.135,0.505l-0.246,1.009l-0.136,0.517l-0.11,0.505l-0.124,0.504l-0.123,0.517l-0.11,0.517l-0.123,0.505l-0.333,1.551l-0.111,0.504l-0.098,0.517l-0.111,0.529l-0.295,1.551l-0.086,0.517l-0.099,0.529l-0.086,0.517l-0.172,1.059l-0.086,0.517l-0.074,0.529l-0.086,0.529l-0.148,1.058l-0.074,0.542l-0.061,0.529l-0.074,0.529l-0.062,0.53l-0.123,1.083l-0.049,0.541l-0.062,0.53l-0.098,1.083l-0.037,0.541l-0.049,0.554l-0.074,1.083l-0.074,1.108l-0.025,0.541l-0.049,1.108l-0.024,0.554l-0,0.283l-0.025,0.554l-0,0.283l-0.012,0.271l-0,0.283l-0.013,0.283l0,1.12l-0.012,0.283l0,0.283l0.012,0.283l0,1.132l0.013,0.283l-0,0.283l0.012,0.284l-0,0.295l0.025,0.566l-0,0.283l0.061,1.44l0.012,0.283l0.025,0.296l0.025,0.578l0.024,0.283l0.013,0.296l0.049,0.59l0.012,0.283l0.123,1.477l0.049,0.579l0.037,0.295l0.05,0.591l0.036,0.295l0.025,0.308l0.111,0.886l0.024,0.296l0.037,0.307l0.037,0.296l0.037,0.307l0.049,0.296l0.037,0.295l0.037,0.308l0.05,0.295l0.036,0.308l0.05,0.295l0.037,0.308l0.098,0.615l0.049,0.296l0.037,0.307l0.062,0.308l0.147,0.923l0.05,0.296l0.061,0.32l0.049,0.307l0.062,0.308l0.049,0.308l0.185,0.923l0.061,0.32l0.123,0.615l0.062,0.32l0.062,0.308l0.073,0.32l0.062,0.307l0.074,0.32l0.061,0.308l0.222,0.96l0.074,0.308l0.295,1.28l0.086,0.32l0.074,0.32l0.086,0.32l0.074,0.32l0.345,1.28l0.086,0.332l0.086,0.32l0.086,0.332l0.099,0.32l0.086,0.333l0.086,0.32l0.098,0.332l0.099,0.32l0.086,0.332l0.098,0.32l0.197,0.665l0.111,0.332l0.197,0.665l0.111,0.332l0.098,0.333l0.111,0.332l0.099,0.332l0.332,0.997l0.111,0.345l0.221,0.664l0.123,0.345l0.111,0.332l0.123,0.345l0.111,0.332l0.123,0.345l0.123,0.332l0.369,1.034l0.123,0.332l0.136,0.345l0.123,0.344l0.135,0.345l0.123,0.345l0.136,0.344l0.135,0.357l0.542,1.379l0.135,0.357l0.148,0.344l0.135,0.357l0.148,0.345l0.135,0.357l0.148,0.344l0.443,1.071l0.148,0.345l0.16,0.357l0.147,0.357l0.16,0.356l0.148,0.357l0.48,1.071l0.16,0.369l0.32,0.714l0.172,0.369l0.16,0.357l0.173,0.37l0.16,0.357l0.172,0.356l0.517,1.108l0.172,0.357l0.185,0.369l0.172,0.37l0.185,0.369l0.172,0.369l0.554,1.108l0.369,0.75l0.185,0.37l0.197,0.369l0.196,0.381l0.185,0.37l0.197,0.381l0.197,0.369l0.394,0.764l0.197,0.369l0.197,0.381l0.209,0.382l0.197,0.381l0.418,0.763l0.197,0.382l0.222,0.382l0.418,0.763l0.209,0.393l0.222,0.382l0.209,0.394l0.222,0.381l0.221,0.394l0.222,0.382l0.221,0.394l0.222,0.381l0.443,0.788l0.468,0.788l0.221,0.393l0.936,1.576l0.246,0.394l0.234,0.406l0.246,0.394l0.246,0.406l0.234,0.394l0.246,0.406l0.246,0.394l0.246,0.406l0.259,0.406l0.246,0.406l0.258,0.406l0.246,0.394l0.776,1.219l0.258,0.418l0.271,0.406l0.258,0.406l0.271,0.406l0.259,0.419l0.27,0.406l0.271,0.419l0.271,0.406l0.542,0.837l0.283,0.406l0.27,0.418l1.699,2.511l0.295,0.431l0.283,0.418l0.296,0.419l0.295,0.431l0.295,0.418l0.296,0.431l0.295,0.418l0.296,0.431l0.615,0.862l0.295,0.43l0.923,1.293l0.32,0.43l0.308,0.431l0.32,0.431l0.308,0.431l0.32,0.443l0.32,0.431l0.32,0.443l0.32,0.43l0.332,0.443l0.32,0.444l0.332,0.443l0.32,0.43l0.997,1.33l0.345,0.443l0.332,0.455l0.345,0.443l0.332,0.443l0.345,0.443l0.689,0.911l0.345,0.443l0.357,0.456l0.344,0.443l0.357,0.455l9.809,12.529l-1.353,1.157l-10.807,-11.631l-0.357,-0.381l-0.356,-0.394l-0.37,-0.394l-0.357,-0.394l-0.357,-0.381l-0.344,-0.394l-0.357,-0.382l-0.357,-0.393l-0.345,-0.382l-0.344,-0.394l-0.357,-0.381l-0.345,-0.394l-0.344,-0.382l-0.345,-0.394l-0.332,-0.381l-0.345,-0.382l-0.332,-0.381l-0.345,-0.394l-1.661,-1.908l-0.32,-0.394l-0.333,-0.381l-0.32,-0.382l-0.332,-0.381l-0.32,-0.382l-0.32,-0.369l-0.64,-0.763l-0.308,-0.382l-0.32,-0.381l-0.307,-0.382l-0.32,-0.369l-0.616,-0.763l-0.307,-0.369l-0.308,-0.382l-0.308,-0.369l-0.295,-0.382l-0.308,-0.381l-0.295,-0.369l-0.308,-0.382l-0.591,-0.738l-0.295,-0.382l-0.296,-0.369l-0.283,-0.382l-0.59,-0.738l-0.283,-0.369l-0.284,-0.382l-1.698,-2.215l-0.542,-0.739l-0.283,-0.369l-1.083,-1.477l-0.258,-0.369l-0.271,-0.369l-0.271,-0.357l-0.775,-1.108l-0.271,-0.357l-0.258,-0.369l-0.246,-0.369l-0.259,-0.357l-0.258,-0.37l-0.247,-0.356l-0.258,-0.37l-0.246,-0.357l-0.246,-0.369l-0.246,-0.357l-0.247,-0.369l-0.492,-0.714l-0.246,-0.369l-0.234,-0.357l-0.246,-0.357l-0.234,-0.357l-0.234,-0.369l-0.234,-0.357l-0.246,-0.357l-0.221,-0.357l-0.702,-1.071l-0.221,-0.357l-0.234,-0.356l-1.551,-2.499l-0.209,-0.357l-0.222,-0.344l-0.209,-0.357l-0.222,-0.357l-0.209,-0.357l-0.209,-0.345l-0.209,-0.357l-0.209,-0.344l-0.21,-0.357l-0.197,-0.357l-0.209,-0.345l-0.197,-0.357l-0.209,-0.344l-0.197,-0.357l-0.197,-0.345l-0.209,-0.357l-0.185,-0.344l-0.197,-0.357l-0.393,-0.69l-0.185,-0.357l-0.197,-0.344l-0.185,-0.345l-0.197,-0.344l-0.184,-0.357l-0.923,-1.723l-0.173,-0.357l-0.184,-0.345l-0.172,-0.345l-0.185,-0.344l-0.862,-1.723l-0.172,-0.333l-0.172,-0.344l-0.16,-0.345l-0.173,-0.344l-0.16,-0.345l-0.172,-0.332l-0.48,-1.034l-0.16,-0.332l-0.32,-0.69l-0.16,-0.332l-0.148,-0.345l-0.16,-0.332l-0.147,-0.345l-0.16,-0.332l-0.148,-0.344l-0.148,-0.333l-0.147,-0.344l-0.148,-0.333l-0.148,-0.344l-0.147,-0.333l-0.136,-0.332l-0.147,-0.345l-0.148,-0.332l-0.136,-0.332l-0.135,-0.345l-0.148,-0.332l-0.27,-0.665l-0.136,-0.344l-0.406,-0.997l-0.123,-0.333l-0.271,-0.664l-0.246,-0.665l-0.135,-0.332l-0.616,-1.662l-0.11,-0.332l-0.124,-0.332l-0.11,-0.333l-0.123,-0.32l-0.123,-0.332l-0.333,-0.997l-0.111,-0.32l-0.11,-0.332l-0.111,-0.32l-0.332,-0.997l-0.099,-0.32l-0.111,-0.332l-0.098,-0.32l-0.111,-0.333l-0.098,-0.32l-0.099,-0.332l-0.098,-0.32l-0.099,-0.332l-0.098,-0.32l-0.099,-0.333l-0.098,-0.32l-0.099,-0.332l-0.086,-0.32l-0.098,-0.32l-0.086,-0.332l-0.099,-0.32l-0.172,-0.64l-0.099,-0.332l-0.258,-0.96l-0.086,-0.333l-0.074,-0.32l-0.172,-0.64l-0.074,-0.32l-0.086,-0.32l-0.074,-0.32l-0.086,-0.32l-0.665,-2.88l-0.061,-0.32l-0.074,-0.32l-0.062,-0.307l-0.074,-0.32l-0.123,-0.64l-0.074,-0.308l-0.184,-0.96l-0.062,-0.308l-0.061,-0.32l-0.05,-0.32l-0.061,-0.308l-0.062,-0.32l-0.049,-0.32l-0.061,-0.307l-0.05,-0.32l-0.061,-0.308l-0.049,-0.32l-0.05,-0.308l-0.061,-0.32l-0.049,-0.307l-0.05,-0.32l-0.049,-0.308l-0.049,-0.32l-0.037,-0.308l-0.049,-0.32l-0.049,-0.307l-0.037,-0.308l-0.05,-0.32l-0.049,-0.308l-0.074,-0.615l-0.049,-0.32l-0.037,-0.308l-0.074,-0.628l-0.147,-1.23l-0.074,-0.628l-0.185,-1.846l-0.049,-0.616l-0.062,-0.615l-0.098,-1.231l-0.037,-0.615l-0.049,-0.615l-0.037,-0.604l-0.037,-0.615l-0.025,-0.603l-0.037,-0.615l-0.024,-0.603l-0.025,-0.616l-0.024,-0.603l-0.013,-0.603l-0.024,-0.615l-0.025,-1.207l0,-0.603l-0.012,-0.603l-0,-2.4l0.037,-1.809l0.024,-1.181l0.025,-0.604l0.012,-0.59l0.025,-0.603l0.024,-0.591l0.037,-0.591l0.025,-0.603l0.185,-2.954l0.147,-1.772l0.049,-0.579l0.099,-1.181l0.061,-0.591l0.062,-0.578l0.062,-0.591l0.061,-0.579l0.062,-0.59l0.061,-0.579l0.074,-0.591l0.062,-0.578l0.073,-0.591l0.148,-1.157l0.086,-0.578l0.074,-0.579l0.086,-0.59l0.074,-0.579l0.345,-2.314l0.184,-1.157l0.185,-1.144l0.295,-1.736l0.21,-1.144l0.098,-0.579l0.111,-0.566l0.098,-0.578l0.111,-0.567l0.222,-1.144l0.11,-0.579l0.234,-1.144l0.222,-1.133l0.123,-0.578l0.234,-1.132l0.123,-0.566l0.123,-0.579l0.246,-1.132l0.258,-1.133l0.247,-1.144l0.258,-1.132l0.271,-1.133l0.123,-0.566l0.271,-1.132l0.27,-1.12l0.136,-0.579l0.283,-1.12l0.271,-1.132l0.283,-1.132l0.283,-1.12l0.283,-1.133l0.283,-1.12l0.283,-1.132l0.295,-1.12l0.283,-1.132l0.591,-2.24l0.296,-1.133l0.59,-2.24l1.182,-4.492l0.591,-2.252l0.295,-1.12l0.579,-2.253l0.59,-2.24l0.283,-1.132l0.567,-2.24l0.283,-1.132l0.283,-1.12l0.283,-1.132l0.271,-1.133l0.27,-1.12l0.677,-2.831l0.123,-0.566l0.136,-0.566l0.258,-1.132l0.123,-0.566l0.136,-0.566l0.615,-2.831l0.123,-0.579l0.234,-1.132l0.123,-0.566l0.234,-1.145l0.221,-1.132l0.222,-1.145l0.111,-0.578l0.209,-1.145l0.111,-0.566l0.098,-0.578l0.111,-0.567l0.197,-1.144l0.197,-1.157l0.098,-0.566l0.185,-1.157l0.086,-0.579l0.185,-1.144l0.073,-0.579l0.259,-1.735l0.148,-1.157l0.086,-0.578l0.074,-0.591l0.061,-0.579l0.148,-1.157l0.061,-0.59l0.062,-0.579l0.074,-0.591l0.061,-0.578l0.111,-1.169l0.062,-0.579l0.098,-1.181l0.049,-0.579l0.099,-1.181l0.074,-1.182l0.049,-0.578l0.061,-1.194l0.037,-0.591l0.025,-0.591l0.037,-0.59l0.049,-1.182l0.012,-0.603l0.025,-0.591l0.049,-2.388l0.013,-0.603l-0,-2.4l-0.013,-0.603l0,-0.603l-0.037,-1.809l-0.049,-1.206l-0.049,-1.219l-0.025,-0.603l-0.037,-0.615l-0.037,-0.603l-0.073,-1.231l-0.05,-0.615l-0.037,-0.603l-0.098,-1.231l-0.185,-1.846l-0.061,-0.628l-0.062,-0.615l-0.074,-0.616l-0.073,-0.627l-0.074,-0.616l-0.074,-0.628l-0.049,-0.307l-0.037,-0.308l-0.037,-0.32l-0.049,-0.308l-0.037,-0.307l-0.05,-0.32l-0.049,-0.308l-0.037,-0.32l-0.049,-0.308l-0.049,-0.32l-0.099,-0.615l-0.049,-0.32l-0.049,-0.308l-0.062,-0.32l-0.049,-0.32l-0.049,-0.307l-0.049,-0.32l-0.062,-0.308l-0.061,-0.32l-0.05,-0.32l-0.061,-0.308l-0.062,-0.32l-0.049,-0.32l-0.123,-0.64l-0.062,-0.308l-0.123,-0.64l-0.074,-0.32l-0.123,-0.64l-0.073,-0.32l-0.062,-0.307l-0.074,-0.32l-0.061,-0.32l-0.443,-1.92l-0.074,-0.333l-0.148,-0.64l-0.086,-0.32l-0.074,-0.32l-0.086,-0.332l-0.074,-0.32l-0.172,-0.64l-0.074,-0.32l-0.086,-0.332l-0.086,-0.32l-0.087,-0.332l-0.086,-0.32l-0.098,-0.32l-0.086,-0.333l-0.087,-0.32l-0.098,-0.332l-0.086,-0.32l-0.099,-0.32l-0.086,-0.332l-0.098,-0.333l-0.099,-0.32l-0.098,-0.332l-0.099,-0.32l-0.197,-0.665l-0.098,-0.32l-0.197,-0.664l-0.111,-0.333l-0.098,-0.32l-0.222,-0.664l-0.098,-0.332l-0.332,-0.997l-0.111,-0.32l-0.111,-0.333l-0.111,-0.344l-0.123,-0.333l-0.111,-0.32l-0.11,-0.332l-0.123,-0.345l-0.124,-0.332l-0.11,-0.332l-0.493,-1.329l-0.123,-0.345l-0.123,-0.332l-0.135,-0.333l-0.123,-0.344l-0.123,-0.333l-0.136,-0.332l-0.135,-0.344l-0.123,-0.333l-0.136,-0.344l-0.135,-0.333l-0.135,-0.344l-0.136,-0.333l-0.135,-0.344l-0.135,-0.333l-0.148,-0.344l-0.136,-0.332l-0.147,-0.345l-0.136,-0.345l-0.147,-0.332l-0.136,-0.345l-0.295,-0.689l-0.148,-0.332l-0.147,-0.345l-0.16,-0.344l-0.296,-0.69l-0.16,-0.332l-0.148,-0.357l-0.16,-0.332l-0.16,-0.345l-0.147,-0.344l-0.32,-0.69l-0.16,-0.357l-0.173,-0.344l-0.32,-0.689l-0.172,-0.345l-0.16,-0.345l-0.172,-0.357l-0.172,-0.344l-0.16,-0.345l-0.173,-0.357l-0.344,-0.689l-0.185,-0.357l-0.172,-0.345l-0.173,-0.356l-0.184,-0.345l-0.185,-0.357l-0.172,-0.345l-0.185,-0.357l-0.184,-0.344l-0.37,-0.714l-0.184,-0.345l-0.185,-0.357l-0.197,-0.356l-0.184,-0.357l-0.197,-0.345l-0.185,-0.357l-1.181,-2.141l-0.173,-0.296l-0.504,-0.726l0.049,-0.086l-0.049,-0.086l0.504,-0.726l0.173,-0.296l1.181,-2.141l0.382,-0.714l0.184,-0.345l0.382,-0.714l0.738,-1.403l0.185,-0.357l0.714,-1.403l0.172,-0.344l0.172,-0.357l0.357,-0.702l0.173,-0.344l0.836,-1.736l0.16,-0.344l0.333,-0.69l0.16,-0.357l0.32,-0.689l0.307,-0.689l0.308,-0.677l0.308,-0.689l0.148,-0.345l0.307,-0.689l0.443,-1.022l0.283,-0.677l0.283,-0.689l0.136,-0.332l0.148,-0.345l0.135,-0.332l0.271,-0.689l0.27,-0.665l0.259,-0.677l0.271,-0.677l0.123,-0.332l0.258,-0.677l0.246,-0.665l0.247,-0.676l0.123,-0.333l0.233,-0.664l0.247,-0.677l0.11,-0.32l0.234,-0.665l0.222,-0.677l0.111,-0.32l0.332,-0.997l0.098,-0.332l0.222,-0.665l0.098,-0.32l0.111,-0.332l0.197,-0.665l0.098,-0.32l0.296,-0.984l0.197,-0.653l0.283,-0.984l0.184,-0.652l0.173,-0.653l0.184,-0.64l0.259,-0.984l0.16,-0.64l0.086,-0.32l0.234,-0.973l0.086,-0.32l0.074,-0.32l0.148,-0.652l0.073,-0.32l0.074,-0.308l0.148,-0.652l0.148,-0.64l0.135,-0.64l0.062,-0.308l0.27,-1.28l0.123,-0.64l0.062,-0.307l0.061,-0.32l0.111,-0.64l0.123,-0.628l0.173,-0.948l0.098,-0.627l0.111,-0.628l0.049,-0.32l0.099,-0.628l0.049,-0.308l0.049,-0.32l0.086,-0.627l0.049,-0.308l0.173,-1.255l0.037,-0.308l0.049,-0.308l0.074,-0.627l0.074,-0.616l0.073,-0.627l0.074,-0.616l0.062,-0.615l0.061,-0.628l0.185,-1.846l0.098,-1.231l0.037,-0.603l0.05,-0.615l0.036,-0.616l0.037,-0.603l0.074,-1.231l0.049,-1.206l0.025,-0.615l0.049,-1.206l0.037,-1.809l0,-0.604l0.013,-0.603l-0,-2.4l-0.025,-1.206l-0.025,-1.181l-0.012,-0.603l-0.025,-0.591l-0.012,-0.603l-0.049,-1.182l-0.037,-0.591l-0.025,-0.59l-0.037,-0.591l-0.024,-0.591l-0.037,-0.591l-0.049,-0.59l-0.074,-1.182l-0.099,-1.181l-0.049,-0.579l-0.098,-1.181l-0.062,-0.579l-0.061,-0.591l-0.05,-0.578l-0.061,-0.591l-0.074,-0.578l-0.062,-0.579l-0.061,-0.591l-0.148,-1.157l-0.061,-0.578l-0.074,-0.578l-0.086,-0.591l-0.148,-1.157l-0.259,-1.736l-0.073,-0.578l-0.099,-0.578l-0.086,-0.567l-0.086,-0.578l-0.099,-0.579l-0.086,-0.578l-0.098,-0.566l-0.197,-1.157l-0.099,-0.566l-0.098,-0.579l-0.111,-0.566l-0.098,-0.578l-0.111,-0.566l-0.099,-0.579l-0.11,-0.578l-0.222,-1.133l-0.111,-0.578l-0.221,-1.132l-0.123,-0.579l-0.111,-0.566l-0.123,-0.566l-0.111,-0.566l-0.123,-0.567l-0.123,-0.578l-0.615,-2.831l-0.136,-0.566l-0.123,-0.566l-0.135,-0.566l-0.123,-0.566l-0.136,-0.567l-0.123,-0.566l-0.677,-2.83l-0.27,-1.12l-0.271,-1.133l-0.283,-1.132l-0.283,-1.12l-0.283,-1.132l-0.567,-2.24l-0.283,-1.133l-0.295,-1.12l-0.295,-1.132l-0.284,-1.12l-0.59,-2.24l-0.591,-2.252l-1.182,-4.493l-0.59,-2.24l-0.296,-1.132l-0.295,-1.12l-0.296,-1.132l-0.283,-1.12l-0.295,-1.12l-0.283,-1.133l-0.283,-1.12l-0.283,-1.132l-0.283,-1.12l-0.283,-1.132l-0.271,-1.133l-0.283,-1.12l-0.677,-2.83l-0.123,-0.566l-0.271,-1.133l-0.123,-0.566l-0.135,-0.566l-0.124,-0.566l-0.123,-0.579l-0.135,-0.566l-0.369,-1.698l-0.123,-0.579l-0.123,-0.566l-0.111,-0.566l-0.123,-0.566l-0.123,-0.579l-0.222,-1.132l-0.123,-0.578l-0.111,-0.567l-0.11,-0.578l-0.111,-0.566l-0.111,-0.579l-0.111,-0.566l-0.098,-0.578l-0.111,-0.566l-0.197,-1.157l-0.111,-0.567l-0.295,-1.735l-0.086,-0.578l-0.099,-0.567l-0.086,-0.578l-0.098,-0.578l-0.345,-2.314l-0.074,-0.579l-0.086,-0.578l-0.074,-0.591l-0.086,-0.578l-0.148,-1.157l-0.073,-0.591l-0.062,-0.579l-0.074,-0.59l-0.061,-0.579l-0.062,-0.591l-0.061,-0.578l-0.062,-0.591l-0.062,-0.578l-0.061,-0.591l-0.049,-0.591l-0.05,-0.578l-0.196,-2.363l-0.185,-2.954l-0.025,-0.603l-0.037,-0.591l-0.024,-0.591l-0.025,-0.603l-0.012,-0.591l-0.025,-0.603l-0.061,-2.991l-0,-2.4l0.012,-0.603l0,-0.603l0.025,-1.206l0.024,-0.615l0.013,-0.603l0.024,-0.603l0.025,-0.616l0.024,-0.603l0.037,-0.615l0.025,-0.603l0.037,-0.616l0.037,-0.603l0.049,-0.615l0.037,-0.616l0.098,-1.23l0.062,-0.616l0.049,-0.615l0.185,-1.846l0.074,-0.628l0.147,-1.231l0.074,-0.627l0.037,-0.308l0.086,-0.628l0.037,-0.307l0.099,-0.628l0.086,-0.616l0.049,-0.32l0.037,-0.32l0.098,-0.615l0.099,-0.628l0.061,-0.32l0.05,-0.307l0.11,-0.628l0.05,-0.32l0.11,-0.628l0.062,-0.32l0.061,-0.307l0.111,-0.64l0.123,-0.628l0.123,-0.64l0.074,-0.308l0.123,-0.64l0.136,-0.627l0.074,-0.32l0.061,-0.32l0.665,-2.88l0.16,-0.64l0.086,-0.32l0.16,-0.64l0.246,-0.973l0.258,-0.96l0.271,-0.972l0.099,-0.32l0.27,-0.985l0.197,-0.64l0.394,-1.304l0.099,-0.333l0.307,-0.972l0.21,-0.652l0.332,-0.997l0.221,-0.652l0.111,-0.333l0.222,-0.652l0.234,-0.665l0.233,-0.652l0.234,-0.665l0.493,-1.329l0.258,-0.664l0.246,-0.665l0.271,-0.665l0.123,-0.332l0.406,-0.997l0.136,-0.345l0.27,-0.664l0.283,-0.677l0.284,-0.665l0.283,-0.677l0.886,-2.03l0.16,-0.333l0.147,-0.344l0.308,-0.677l0.16,-0.345l0.16,-0.332l0.32,-0.677l0.32,-0.689l0.332,-0.677l0.16,-0.345l0.333,-0.689l0.172,-0.345l0.345,-0.677l0.689,-1.378l0.357,-0.689l0.184,-0.345l0.357,-0.702l0.739,-1.378l0.566,-1.046l0.382,-0.702l0.393,-0.689l0.394,-0.701l0.197,-0.357l0.394,-0.69l0.406,-0.713l0.406,-0.702l0.21,-0.357l0.418,-0.701l0.209,-0.345l0.64,-1.059l0.222,-0.356l0.431,-0.714l1.329,-2.142l0.234,-0.357l0.455,-0.714l0.234,-0.357l0.455,-0.713l0.48,-0.714l0.234,-0.369l0.234,-0.357l0.48,-0.714l1.477,-2.179l0.246,-0.357l0.505,-0.726l0.517,-0.738l0.258,-0.357l0.246,-0.369l0.529,-0.727l0.517,-0.738l0.271,-0.357l0.271,-0.369l0.529,-0.739l0.812,-1.107l0.554,-0.726l0.271,-0.382l0.283,-0.369l0.837,-1.108l0.295,-0.369l0.283,-0.369l0.567,-0.751l0.295,-0.369l0.578,-0.751l0.296,-0.369l0.591,-0.751l0.295,-0.369l0.603,-0.751l0.308,-0.382l0.603,-0.75l0.615,-0.751l0.616,-0.763l0.32,-0.37l0.307,-0.381l0.32,-0.382l0.628,-0.763l0.32,-0.381l0.32,-0.369l0.32,-0.382l0.332,-0.382l0.32,-0.381l0.333,-0.394l0.32,-0.381l1.661,-1.908l0.677,-0.776l0.345,-0.381l0.332,-0.382l0.345,-0.393l0.344,-0.382l0.702,-0.775l0.344,-0.394l0.702,-0.776l0.357,-0.381l0.357,-0.394l0.701,-0.775l0.726,-0.788l0.357,-0.382l10.807,-11.63l1.341,1.144Zm-47.692,353.317l0.123,0.345l0.135,0.345l0.246,0.689l0.136,0.332l0.369,1.034l0.123,0.332l0.123,0.345l0.111,0.345l0.123,0.332l0.123,0.344l0.111,0.345l0.111,0.332l0.123,0.333l0.221,0.689l0.222,0.665l0.111,0.344l0.11,0.332l0.111,0.345l0.111,0.332l0.098,0.333l0.111,0.344l0.099,0.333l0.11,0.332l0.099,0.345l0.394,1.329l0.098,0.344l0.099,0.32l0.086,0.345l0.197,0.665l0.086,0.332l0.098,0.332l0.259,0.997l0.086,0.32l0.098,0.332l0.074,0.345l0.086,0.32l0.259,0.997l0.074,0.32l0.086,0.332l0.147,0.665l0.087,0.32l0.221,0.997l0.074,0.32l0.074,0.332l0.074,0.32l0.074,0.332l0.061,0.32l0.074,0.333l0.061,0.32l0.074,0.332l0.062,0.32l0.074,0.332l0.061,0.32l0.062,0.333l0.061,0.32l0.062,0.332l0.184,0.96l0.062,0.332l0.062,0.32l0.049,0.32l0.061,0.32l0.05,0.333l0.061,0.32l0.099,0.64l0.061,0.32l0.049,0.32l0.05,0.332l0.196,1.28l0.037,0.32l0.099,0.64l0.037,0.308l0.049,0.32l0.037,0.32l0.049,0.32l0.074,0.64l0.086,0.64l0.074,0.627l0.062,0.64l0.073,0.628l0.062,0.628l0.061,0.64l0.124,1.255l0.147,1.883l0.037,0.628l0.049,0.628l0.037,0.627l0.037,0.616l0.025,0.627l0.037,0.616l0.024,0.627l0.05,1.243l0.012,0.616l0.025,0.615l0.024,1.231l0,0.615l0.012,0.628l0,2.449l-0.036,1.822l-0.025,1.218l-0.025,0.616l-0.012,0.603l-0.049,1.206l-0.037,0.615l-0.025,0.591l-0.037,0.615l-0.037,0.604l-0.037,0.59l-0.036,0.603l-0.05,0.603l-0.037,0.604l-0.049,0.603l-0.049,0.59l-0.049,0.603l-0.05,0.591l-0.061,0.603l-0.049,0.591l-0.062,0.603l-0.246,2.363l-0.074,0.603l-0.074,0.591l-0.061,0.591l-0.074,0.591l-0.086,0.59l-0.074,0.579l-0.074,0.591l-0.086,0.59l-0.074,0.591l-0.086,0.591l-0.086,0.578l-0.086,0.591l-0.099,0.579l-0.172,1.181l-0.197,1.157l-0.099,0.591l-0.086,0.578l-0.11,0.579l-0.099,0.578l-0.098,0.591l-0.111,0.578l-0.099,0.579l-0.221,1.157l-0.099,0.578l-0.221,1.157l-0.123,0.579l-0.222,1.157l-0.123,0.566l-0.111,0.578l-0.246,1.157l-0.123,0.566l-0.111,0.579l-0.123,0.566l-0.135,0.578l-0.123,0.579l-0.123,0.566l-0.123,0.578l-0.136,0.567l-0.123,0.566l-0.135,0.578l-0.123,0.566l-0.136,0.579l-0.406,1.698l-0.135,0.579l-0.542,2.264l-0.283,1.133l-0.271,1.144l-0.566,2.265l-0.283,1.12l-0.295,1.132l-0.283,1.133l-0.296,1.132l-0.295,1.12l-0.295,1.132l-0.283,1.12l-0.296,1.132l-0.591,2.24l-1.181,4.493l-0.591,2.252l-0.886,3.36l-0.566,2.24l-0.296,1.132l-0.849,3.36l-0.271,1.12l-0.283,1.12l-0.27,1.12l-0.271,1.133l-0.136,0.554l-0.123,0.566l-0.135,0.554l-0.135,0.566l-0.124,0.566l-0.135,0.554l-0.123,0.566l-0.135,0.566l-0.123,0.554l-0.247,1.132l-0.135,0.566l-0.123,0.554l-0.123,0.566l-0.111,0.567l-0.123,0.553l-0.123,0.567l-0.111,0.566l-0.123,0.566l-0.332,1.698l-0.123,0.554l-0.111,0.566l-0.099,0.566l-0.221,1.133l-0.099,0.566l-0.11,0.566l-0.394,2.265l-0.099,0.578l-0.197,1.132l-0.172,1.133l-0.098,0.578l-0.259,1.699l-0.074,0.578l-0.086,0.566l-0.074,0.579l-0.086,0.566l-0.074,0.566l-0.073,0.579l-0.074,0.566l-0.062,0.578l-0.074,0.579l-0.061,0.566l-0.074,0.578l-0.062,0.566l-0.123,1.157l-0.049,0.579l-0.061,0.578l-0.05,0.566l-0.197,2.314l-0.037,0.579l-0.049,0.578l-0.074,1.157l-0.024,0.591l-0.074,1.157l-0.025,0.578l-0.024,0.591l-0.025,0.578l-0.025,0.591l-0.024,1.157l-0.025,1.182l-0.024,1.169l-0,2.351l0.012,0.59l-0,0.591l0.025,1.182l0.024,0.591l0.012,0.603l0.074,1.772l0.025,0.603l0.037,0.591l0.037,0.603l0.037,0.591l0.037,0.603l0.049,0.59l0.037,0.604l0.049,0.603l0.062,0.603l0.049,0.59l0.061,0.604l0.062,0.615l0.061,0.591l0.062,0.615l0.221,1.809l0.074,0.616l0.05,0.295l0.036,0.308l0.05,0.307l0.037,0.308l0.049,0.296l0.037,0.307l0.098,0.616l0.037,0.295l0.246,1.538l0.062,0.308l0.098,0.616l0.062,0.307l0.049,0.308l0.062,0.308l0.049,0.307l0.184,0.923l0.05,0.308l0.184,0.923l0.074,0.32l0.123,0.616l0.074,0.307l0.062,0.308l0.061,0.32l0.148,0.615l0.061,0.32l0.148,0.616l0.074,0.32l0.148,0.615l0.073,0.32l0.074,0.308l0.086,0.32l0.148,0.615l0.172,0.64l0.074,0.308l0.086,0.32l0.087,0.308l0.086,0.32l0.086,0.307l0.258,0.96l0.087,0.308l0.086,0.32l0.098,0.32l0.086,0.308l0.197,0.64l0.086,0.32l0.296,0.96l0.098,0.307l0.296,0.96l0.11,0.32l0.099,0.32l0.111,0.32l0.098,0.32l0.222,0.64l0.098,0.333l0.443,1.28l0.123,0.32l0.111,0.32l0.111,0.332l0.123,0.32l0.111,0.32l0.123,0.332l0.123,0.32l0.111,0.32l0.123,0.333l0.123,0.32l0.123,0.332l0.123,0.32l0.135,0.332l0.123,0.32l0.123,0.332l0.136,0.32l0.123,0.32l0.271,0.665l0.123,0.32l0.27,0.665l0.136,0.32l0.135,0.332l0.148,0.332l0.135,0.333l0.136,0.32l0.295,0.664l0.135,0.333l0.296,0.664l0.148,0.32l0.147,0.345l0.443,0.997l0.16,0.32l0.148,0.344l0.16,0.333l0.148,0.332l0.64,1.329l0.16,0.345l0.32,0.664l0.172,0.345l0.16,0.332l0.172,0.333l0.16,0.344l0.345,0.665l0.172,0.344l0.173,0.333l0.172,0.344l0.172,0.333l0.172,0.344l0.185,0.333l0.172,0.344l0.185,0.345l0.172,0.332l0.37,0.689l0.184,0.333l0.369,0.689l0.197,0.345l0.37,0.689l0.196,0.332l0.197,0.345l0.185,0.344l0.985,1.723l0.209,0.345l0.197,0.357l0.209,0.332l0.197,0.357l0.628,1.034l0.209,0.357l0.418,0.689l0.21,0.357l0.221,0.345l0.209,0.344l0.222,0.357l0.221,0.345l0.222,0.357l0.221,0.344l0.222,0.357l0.222,0.345l0.443,0.714l0.233,0.344l0.222,0.357l0.234,0.357l0.234,0.345l0.234,0.357l0.221,0.357l0.246,0.357l0.234,0.357l0.234,0.344l0.234,0.357l0.049,0.062l-0.148,-0.247l-0.234,-0.406l-0.221,-0.394l-0.234,-0.393l-0.221,-0.394l-0.234,-0.394l-0.886,-1.575l-0.21,-0.394l-0.221,-0.382l-0.209,-0.394l-0.222,-0.394l-0.209,-0.381l-0.419,-0.788l-0.418,-0.763l-0.197,-0.394l-0.419,-0.763l-1.181,-2.289l-0.185,-0.382l-0.197,-0.381l-0.381,-0.751l-0.369,-0.763l-0.185,-0.369l-0.185,-0.382l-0.369,-0.738l-0.172,-0.382l-0.185,-0.369l-0.172,-0.369l-0.172,-0.382l-0.862,-1.846l-0.16,-0.369l-0.172,-0.357l-0.32,-0.738l-0.173,-0.37l-0.16,-0.357l-0.16,-0.369l-0.16,-0.357l-0.147,-0.369l-0.16,-0.357l-0.16,-0.369l-0.148,-0.357l-0.148,-0.369l-0.16,-0.357l-0.59,-1.428l-0.136,-0.357l-0.147,-0.357l-0.136,-0.357l-0.148,-0.357l-0.27,-0.713l-0.148,-0.357l-0.135,-0.345l-0.123,-0.357l-0.136,-0.345l-0.271,-0.713l-0.123,-0.345l-0.135,-0.345l-0.123,-0.357l-0.246,-0.689l-0.123,-0.357l-0.493,-1.378l-0.11,-0.345l-0.124,-0.344l-0.221,-0.69l-0.123,-0.344l-0.222,-0.689l-0.098,-0.333l-0.222,-0.689l-0.11,-0.332l-0.099,-0.345l-0.111,-0.332l-0.098,-0.345l-0.197,-0.664l-0.099,-0.345l-0.295,-0.997l-0.098,-0.345l-0.087,-0.332l-0.098,-0.332l-0.086,-0.333l-0.099,-0.332l-0.344,-1.329l-0.086,-0.32l-0.087,-0.332l-0.073,-0.333l-0.087,-0.32l-0.086,-0.332l-0.074,-0.332l-0.073,-0.32l-0.087,-0.333l-0.073,-0.32l-0.074,-0.332l-0.148,-0.64l-0.074,-0.332l-0.074,-0.32l-0.061,-0.32l-0.074,-0.333l-0.062,-0.32l-0.073,-0.32l-0.123,-0.64l-0.074,-0.32l-0.185,-0.96l-0.049,-0.307l-0.123,-0.64l-0.049,-0.32l-0.062,-0.308l-0.049,-0.32l-0.062,-0.32l-0.049,-0.308l-0.049,-0.32l-0.049,-0.307l-0.05,-0.32l-0.049,-0.308l-0.049,-0.32l-0.099,-0.615l-0.037,-0.32l-0.098,-0.616l-0.074,-0.615l-0.049,-0.32l-0.185,-1.539l-0.024,-0.307l-0.037,-0.308l-0.037,-0.295l-0.025,-0.308l-0.037,-0.308l-0.024,-0.307l-0.037,-0.296l-0.049,-0.615l-0.025,-0.296l-0.025,-0.307l-0.024,-0.296l-0.025,-0.307l-0.049,-0.603l-0.025,-0.296l-0.012,-0.308l-0.025,-0.295l-0.012,-0.295l-0.025,-0.296l-0.037,-0.898l-0.024,-0.296l-0.037,-0.886l-0,-0.307l-0.037,-0.874l0,-0.296l-0.012,-0.295l-0,-0.295l-0.013,-0.283l0,-1.17l-0.012,-0.295l0,-0.295l0.012,-0.579l0,-0.861l0.013,-0.296l0.024,-1.144l0.013,-0.284l0.012,-0.566l0.012,-0.295l0.049,-1.132l0.037,-0.567l0.025,-0.566l0.074,-1.132l0.049,-0.554l0.037,-0.566l0.098,-1.108l0.05,-0.566l0.184,-1.661l0.062,-0.542l0.061,-0.554l0.074,-0.554l0.062,-0.541l0.074,-0.554l0.086,-0.542l0.147,-1.083l0.259,-1.624l0.086,-0.529l0.197,-1.084l0.086,-0.529l0.111,-0.529l0.098,-0.542l0.099,-0.529l0.111,-0.529l0.098,-0.529l0.222,-1.059l0.123,-0.517l0.11,-0.529l0.124,-0.529l0.11,-0.517l0.123,-0.529l0.123,-0.517l0.136,-0.517l0.123,-0.529l0.123,-0.517l0.542,-2.068l0.27,-1.021l0.283,-1.022l0.148,-0.517l0.148,-0.505l0.147,-0.516l0.296,-1.01l0.148,-0.517l0.16,-0.504l0.147,-0.505l0.32,-1.009l0.308,-1.009l0.16,-0.505l0.172,-0.505l0.16,-0.492l0.16,-0.504l0.665,-1.994l0.689,-1.994l0.345,-0.985l0.184,-0.504l0.173,-0.493l0.529,-1.477l0.357,-0.984l0.369,-0.985l0.357,-0.984l0.369,-0.985l0.369,-0.972l0.37,-0.985l0.381,-0.985l0.739,-1.944l0.381,-0.985l0.382,-0.972l1.501,-3.889l0.763,-1.957l0.37,-0.973l0.381,-0.972l0.369,-0.972l0.382,-0.985l1.108,-2.917l0.369,-0.984l0.369,-0.973l1.071,-2.954l0.357,-0.972l0.172,-0.492l0.357,-0.997l0.345,-0.985l0.332,-0.984l0.344,-0.997l0.16,-0.493l0.665,-1.993l0.16,-0.493l0.16,-0.504l0.16,-0.493l0.148,-0.504l0.16,-0.505l0.16,-0.492l0.147,-0.505l0.16,-0.504l0.739,-2.524l0.135,-0.504l0.148,-0.505l0.135,-0.517l0.148,-0.504l0.135,-0.505l0.271,-1.034l0.123,-0.504l0.136,-0.517l0.123,-0.517l0.135,-0.505l0.492,-2.068l0.111,-0.529l0.123,-0.517l0.222,-1.034l0.221,-1.058l0.099,-0.517l0.111,-0.529l0.098,-0.529l0.099,-0.517l0.196,-1.059l0.087,-0.541l0.098,-0.53l0.086,-0.529l0.086,-0.541l0.087,-0.53l0.073,-0.541l0.087,-0.529l0.295,-2.166l0.061,-0.542l0.074,-0.542l0.062,-0.553l0.049,-0.542l0.062,-0.541l0.061,-0.554l0.148,-1.662l0.074,-1.108l0.049,-0.553l0.037,-0.567l0.024,-0.553l0.037,-0.567l0.074,-1.698l0.013,-0.566l0.012,-0.283l0.012,-0.566l0.012,-0.283l0,-0.579l0.013,-0.566l-0,-2.314l-0.013,-0.295l0,-0.283l-0.012,-0.296l0,-0.283l-0.012,-0.295l-0,-0.296l-0.123,-2.941l-0.025,-0.296l-0.012,-0.307l-0.025,-0.296l-0.012,-0.295l-0.049,-0.591l-0.025,-0.307l-0.012,-0.296l-0.025,-0.308l-0.024,-0.295l-0.037,-0.308l-0.025,-0.295l-0.049,-0.603l-0.037,-0.308l-0.049,-0.603l-0.111,-0.923l-0.025,-0.295l-0.184,-1.539l-0.05,-0.307l-0.037,-0.308l-0.036,-0.32l-0.05,-0.308l-0.037,-0.308l-0.098,-0.615l-0.049,-0.32l-0.037,-0.308l-0.049,-0.32l-0.05,-0.307l-0.061,-0.32l-0.049,-0.308l-0.05,-0.32l-0.049,-0.308l-0.061,-0.32l-0.05,-0.32l-0.061,-0.32l-0.049,-0.307l-0.431,-2.24l-0.074,-0.32l-0.123,-0.64l-0.074,-0.333l-0.074,-0.32l-0.061,-0.32l-0.074,-0.332l-0.148,-0.64l-0.074,-0.332l-0.074,-0.32l-0.073,-0.333l-0.087,-0.332l-0.073,-0.32l-0.087,-0.332l-0.073,-0.333l-0.087,-0.32l-0.073,-0.332l-0.345,-1.329l-0.099,-0.332l-0.086,-0.345l-0.086,-0.332l-0.098,-0.333l-0.086,-0.332l-0.099,-0.332l-0.086,-0.345l-0.099,-0.332l-0.098,-0.345l-0.197,-0.664l-0.098,-0.345l-0.111,-0.345l-0.099,-0.332l-0.098,-0.345l-0.222,-0.689l-0.098,-0.332l-0.554,-1.723l-0.123,-0.357l-0.222,-0.689l-0.123,-0.345l-0.123,-0.357l-0.11,-0.344l-0.124,-0.345l-0.246,-0.714l-0.123,-0.345l-0.123,-0.356l-0.135,-0.345l-0.123,-0.357l-0.136,-0.357l-0.123,-0.357l-0.135,-0.344l-0.542,-1.428l-0.135,-0.369l-0.148,-0.357l-0.135,-0.357l-0.148,-0.357l-0.135,-0.369l-0.296,-0.714l-0.147,-0.369l-0.148,-0.357l-0.295,-0.739l-0.148,-0.357l-0.16,-0.369l-0.148,-0.369l-0.32,-0.739l-0.16,-0.357l-0.16,-0.381l-0.48,-1.108l-0.172,-0.369l-0.16,-0.369l-0.172,-0.382l-0.16,-0.369l-0.173,-0.382l-0.344,-0.738l-0.345,-0.763l-0.185,-0.382l-0.172,-0.369l-0.184,-0.381l-0.173,-0.382l-0.923,-1.908l-0.197,-0.381l-0.184,-0.394l-0.197,-0.382l-0.185,-0.381l-0.197,-0.394l-0.197,-0.382l-0.197,-0.393l-0.197,-0.382l-0.197,-0.394l-0.209,-0.394l-0.197,-0.393l-0.209,-0.382l-0.197,-0.394l-1.046,-1.969l-0.222,-0.406l-0.209,-0.394l-0.221,-0.394l-0.222,-0.406l-0.209,-0.394l-0.222,-0.406l-0.221,-0.394l-0.234,-0.406l-0.222,-0.394l-0.221,-0.406l-0.234,-0.406l-0.209,-0.369l0.037,0.073Zm12.492,-309.181l-0.246,0.357l-0.234,0.356l-0.234,0.345l-0.246,0.357l-0.221,0.357l-0.234,0.357l-0.234,0.344l-0.234,0.357l-0.222,0.357l-0.233,0.345l-0.443,0.714l-0.222,0.344l-0.222,0.357l-0.221,0.345l-0.222,0.357l-0.221,0.344l-0.222,0.357l-0.209,0.345l-0.221,0.357l-0.628,1.034l-0.209,0.357l-0.628,1.034l-0.197,0.356l-0.209,0.345l-0.197,0.345l-0.209,0.344l-0.985,1.723l-0.185,0.345l-0.197,0.345l-0.196,0.332l-0.37,0.689l-0.197,0.345l-0.369,0.689l-0.184,0.332l-0.185,0.345l-0.172,0.345l-0.185,0.332l-0.185,0.345l-0.172,0.344l-0.185,0.332l-0.172,0.333l-0.344,0.689l-0.173,0.332l-0.172,0.345l-0.345,0.665l-0.16,0.344l-0.172,0.332l-0.16,0.333l-0.172,0.344l-0.32,0.665l-0.16,0.345l-0.64,1.329l-0.148,0.332l-0.16,0.332l-0.148,0.333l-0.16,0.344l-0.147,0.32l-0.887,1.994l-0.135,0.333l-0.295,0.664l-0.136,0.32l-0.135,0.332l-0.148,0.333l-0.135,0.332l-0.136,0.32l-0.27,0.665l-0.123,0.32l-0.271,0.664l-0.123,0.32l-0.136,0.32l-0.123,0.333l-0.123,0.32l-0.135,0.332l-0.123,0.32l-0.123,0.332l-0.123,0.32l-0.123,0.333l-0.111,0.32l-0.123,0.332l-0.123,0.32l-0.111,0.32l-0.123,0.32l-0.111,0.332l-0.111,0.32l-0.123,0.32l-0.443,1.28l-0.098,0.332l-0.222,0.64l-0.098,0.32l-0.111,0.32l-0.099,0.32l-0.11,0.32l-0.296,0.96l-0.098,0.308l-0.099,0.332l-0.098,0.308l-0.099,0.32l-0.086,0.32l-0.197,0.64l-0.086,0.308l-0.098,0.32l-0.086,0.32l-0.087,0.308l-0.172,0.64l-0.086,0.307l-0.172,0.64l-0.087,0.308l-0.086,0.32l-0.074,0.308l-0.172,0.64l-0.148,0.615l-0.086,0.32l-0.074,0.308l-0.073,0.32l-0.148,0.615l-0.074,0.32l-0.148,0.615l-0.061,0.32l-0.148,0.616l-0.061,0.32l-0.062,0.308l-0.074,0.307l-0.061,0.308l-0.062,0.32l-0.074,0.308l-0.184,0.923l-0.05,0.307l-0.184,0.923l-0.049,0.308l-0.062,0.308l-0.049,0.308l-0.062,0.307l-0.098,0.616l-0.062,0.307l-0.246,1.539l-0.037,0.295l-0.098,0.616l-0.037,0.307l-0.049,0.296l-0.037,0.307l-0.05,0.308l-0.036,0.308l-0.05,0.295l-0.074,0.615l-0.221,1.81l-0.062,0.603l-0.061,0.615l-0.062,0.603l-0.061,0.591l-0.049,0.603l-0.062,0.603l-0.049,0.603l-0.037,0.603l-0.049,0.591l-0.037,0.603l-0.037,0.591l-0.037,0.603l-0.037,0.591l-0.049,1.194l-0.05,1.181l-0.012,0.603l-0.024,0.591l-0.025,1.182l-0,0.59l-0.012,0.591l-0,2.351l0.049,2.351l0.024,1.157l0.025,0.59l0.025,0.579l0.049,1.169l0.074,1.157l0.024,0.591l0.074,1.157l0.049,0.578l0.037,0.579l0.247,2.892l0.061,0.566l0.049,0.578l0.062,0.579l0.061,0.566l0.062,0.579l0.074,0.578l0.061,0.566l0.074,0.579l0.062,0.578l0.074,0.566l0.073,0.579l0.074,0.566l0.086,0.566l0.074,0.578l0.086,0.567l0.074,0.578l0.259,1.699l0.098,0.578l0.172,1.132l0.197,1.133l0.099,0.578l0.394,2.265l0.11,0.566l0.099,0.566l0.221,1.132l0.099,0.566l0.111,0.567l0.123,0.553l0.332,1.699l0.123,0.566l0.111,0.566l0.123,0.566l0.123,0.554l0.111,0.566l0.123,0.567l0.123,0.553l0.135,0.567l0.247,1.132l0.123,0.554l0.135,0.566l0.123,0.566l0.135,0.554l0.124,0.566l0.135,0.566l0.135,0.554l0.123,0.566l0.136,0.566l0.135,0.554l0.136,0.566l0.27,1.12l0.283,1.12l0.271,1.12l0.849,3.36l0.296,1.133l0.566,2.24l0.886,3.36l0.591,2.252l1.181,4.492l0.591,2.24l0.296,1.133l0.283,1.12l0.295,1.132l0.295,1.12l0.296,1.132l0.283,1.132l0.295,1.133l0.283,1.12l0.566,2.264l0.271,1.133l0.283,1.144l0.542,2.265l0.135,0.578l0.406,1.699l0.136,0.578l0.123,0.567l0.135,0.578l0.123,0.566l0.136,0.566l0.123,0.579l0.123,0.566l0.246,1.157l0.135,0.566l0.111,0.578l0.123,0.567l0.246,1.157l0.111,0.578l0.123,0.566l0.222,1.157l0.123,0.579l0.221,1.156l0.099,0.579l0.221,1.157l0.099,0.578l0.111,0.579l0.098,0.591l0.099,0.578l0.11,0.578l0.086,0.579l0.099,0.591l0.098,0.578l0.099,0.591l0.086,0.578l0.086,0.591l0.099,0.579l0.086,0.59l0.086,0.579l0.086,0.591l0.074,0.59l0.086,0.591l0.074,0.579l0.074,0.59l0.086,0.591l0.074,0.591l0.061,0.591l0.074,0.59l0.074,0.604l0.185,1.772l0.061,0.603l0.062,0.591l0.049,0.59l0.061,0.604l0.05,0.59l0.049,0.603l0.049,0.591l0.049,0.603l0.037,0.603l0.05,0.603l0.036,0.603l0.037,0.591l0.074,1.206l0.025,0.603l0.037,0.616l0.049,1.206l0.012,0.603l0.025,0.615l0.037,1.822l0.024,1.218l0,2.462l-0.012,0.603l0,0.628l-0.024,1.231l-0.025,0.615l-0.012,0.615l-0.025,0.628l-0.025,0.615l-0.024,0.628l-0.037,0.615l-0.025,0.628l-0.037,0.616l-0.037,0.627l-0.049,0.628l-0.037,0.628l-0.147,1.883l-0.124,1.255l-0.061,0.64l-0.062,0.628l-0.073,0.627l-0.062,0.64l-0.074,0.628l-0.086,0.64l-0.074,0.64l-0.049,0.32l-0.037,0.32l-0.049,0.32l-0.037,0.308l-0.099,0.64l-0.037,0.32l-0.147,0.96l-0.049,0.332l-0.099,0.64l-0.061,0.32l-0.099,0.64l-0.061,0.32l-0.05,0.332l-0.061,0.32l-0.049,0.32l-0.062,0.32l-0.062,0.333l-0.184,0.96l-0.062,0.332l-0.061,0.32l-0.062,0.332l-0.061,0.32l-0.074,0.333l-0.062,0.32l-0.074,0.332l-0.061,0.32l-0.074,0.332l-0.061,0.32l-0.074,0.333l-0.074,0.32l-0.074,0.332l-0.074,0.32l-0.221,0.997l-0.087,0.32l-0.147,0.664l-0.086,0.333l-0.087,0.32l-0.073,0.332l-0.259,0.997l-0.074,0.32l-0.098,0.345l-0.086,0.32l-0.259,0.997l-0.098,0.332l-0.086,0.332l-0.197,0.665l-0.086,0.344l-0.099,0.32l-0.098,0.345l-0.394,1.329l-0.099,0.345l-0.11,0.332l-0.099,0.332l-0.111,0.345l-0.098,0.332l-0.111,0.333l-0.111,0.344l-0.11,0.333l-0.111,0.344l-0.222,0.665l-0.221,0.689l-0.111,0.332l-0.123,0.333l-0.111,0.344l-0.123,0.345l-0.123,0.332l-0.111,0.345l-0.123,0.344l-0.123,0.333l-0.369,1.034l-0.136,0.332l-0.246,0.689l-0.135,0.345l-0.123,0.344l-0.037,0.074l0.209,-0.369l0.455,-0.812l0.234,-0.394l0.222,-0.406l0.443,-0.8l0.209,-0.394l0.443,-0.8l0.431,-0.8l1.046,-1.969l0.406,-0.788l0.406,-0.775l0.197,-0.394l0.788,-1.551l0.382,-0.763l0.381,-0.776l0.739,-1.526l0.357,-0.763l0.356,-0.751l0.357,-0.763l0.173,-0.369l0.172,-0.381l0.345,-0.751l0.332,-0.751l0.16,-0.369l0.172,-0.369l0.96,-2.216l0.308,-0.738l0.16,-0.369l0.443,-1.096l0.148,-0.357l0.295,-0.726l0.283,-0.726l0.148,-0.357l0.283,-0.714l0.135,-0.357l0.271,-0.726l0.271,-0.714l0.135,-0.344l0.123,-0.357l0.259,-0.714l0.258,-0.702l0.493,-1.403l0.233,-0.701l0.123,-0.345l0.222,-0.689l0.123,-0.357l0.554,-1.723l0.209,-0.677l0.209,-0.689l0.21,-0.677l0.197,-0.677l0.098,-0.332l0.197,-0.677l0.086,-0.345l0.185,-0.665l0.184,-0.677l0.185,-0.664l0.345,-1.329l0.073,-0.333l0.16,-0.652l0.247,-0.985l0.443,-1.957l0.135,-0.64l0.135,-0.652l0.197,-0.96l0.37,-1.92l0.049,-0.308l0.111,-0.64l0.061,-0.32l0.049,-0.307l0.05,-0.32l0.11,-0.628l0.099,-0.628l0.086,-0.627l0.098,-0.616l0.037,-0.307l0.05,-0.308l0.073,-0.628l0.05,-0.307l0.184,-1.539l0.037,-0.295l0.062,-0.616l0.037,-0.307l0.024,-0.296l0.062,-0.615l0.024,-0.296l0.025,-0.307l0.062,-0.603l0.024,-0.296l0.025,-0.307l0.037,-0.603l0.049,-0.591l0.037,-0.603l0.037,-0.591l0.098,-2.363l0.013,-0.283l0.012,-0.591l0.012,-0.283l0.012,-0.591l0,-0.295l0.013,-0.579l-0,-2.301l-0.013,-0.283l0,-0.579l-0.012,-0.283l0,-0.283l-0.037,-0.849l0,-0.296l-0.024,-0.553l-0.05,-1.133l-0.037,-0.566l-0.024,-0.554l-0.037,-0.566l-0.049,-0.554l-0.074,-1.107l-0.148,-1.662l-0.061,-0.541l-0.062,-0.554l-0.049,-0.542l-0.062,-0.554l-0.074,-0.541l-0.061,-0.542l-0.295,-2.166l-0.087,-0.529l-0.073,-0.542l-0.087,-0.529l-0.086,-0.541l-0.086,-0.53l-0.098,-0.529l-0.087,-0.529l-0.098,-0.542l-0.098,-0.529l-0.099,-0.517l-0.098,-0.529l-0.111,-0.529l-0.099,-0.517l-0.11,-0.529l-0.111,-0.517l-0.111,-0.53l-0.111,-0.517l-0.123,-0.516l-0.111,-0.53l-0.492,-2.067l-0.135,-0.505l-0.123,-0.517l-0.136,-0.517l-0.123,-0.504l-0.135,-0.517l-0.136,-0.505l-0.147,-0.517l-0.136,-0.505l-0.135,-0.516l-0.148,-0.505l-0.135,-0.505l-0.739,-2.523l-0.16,-0.504l-0.147,-0.505l-0.16,-0.492l-0.16,-0.505l-0.148,-0.505l-0.16,-0.492l-0.16,-0.505l-0.16,-0.492l-0.172,-0.504l-0.16,-0.493l-0.16,-0.504l-0.173,-0.493l-0.16,-0.492l-0.172,-0.505l-0.344,-0.984l-0.16,-0.493l-0.173,-0.504l-0.172,-0.48l-0.185,-0.505l-0.344,-0.984l-0.173,-0.48l-0.184,-0.493l-0.173,-0.492l-0.184,-0.492l-0.172,-0.493l-0.185,-0.492l-0.357,-0.985l-0.369,-0.972l-0.369,-0.984l-0.739,-1.945l-0.369,-0.985l-0.382,-0.972l-0.369,-0.972l-0.381,-0.973l-0.37,-0.972l-0.763,-1.957l-1.501,-3.889l-0.382,-0.972l-0.381,-0.985l-0.739,-1.945l-0.381,-0.984l-0.37,-0.985l-0.369,-0.972l-0.369,-0.985l-0.357,-0.984l-0.369,-0.985l-0.173,-0.492l-0.184,-0.493l-0.172,-0.492l-0.185,-0.492l-0.345,-0.985l-0.184,-0.504l-0.345,-0.985l-0.172,-0.505l-0.345,-0.984l-0.172,-0.505l-0.16,-0.492l-0.172,-0.505l-0.16,-0.492l-0.173,-0.505l-0.16,-0.504l-0.16,-0.493l-0.172,-0.504l-0.32,-1.01l-0.148,-0.504l-0.32,-1.009l-0.147,-0.505l-0.16,-0.505l-0.148,-0.504l-0.148,-0.517l-0.148,-0.505l-0.147,-0.517l-0.148,-0.504l-0.148,-0.517l-0.135,-0.505l-0.148,-0.517l-0.135,-0.517l-0.135,-0.504l-0.542,-2.068l-0.123,-0.517l-0.123,-0.529l-0.136,-0.517l-0.123,-0.517l-0.123,-0.529l-0.11,-0.517l-0.124,-0.529l-0.11,-0.53l-0.111,-0.517l-0.123,-0.529l-0.111,-0.529l-0.098,-0.529l-0.111,-0.529l-0.099,-0.53l-0.098,-0.541l-0.111,-0.529l-0.086,-0.542l-0.098,-0.529l-0.099,-0.542l-0.086,-0.529l-0.259,-1.625l-0.073,-0.541l-0.087,-0.542l-0.073,-0.541l-0.074,-0.554l-0.062,-0.542l-0.074,-0.553l-0.061,-0.554l-0.062,-0.542l-0.184,-1.661l-0.05,-0.567l-0.098,-1.107l-0.037,-0.566l-0.049,-0.554l-0.074,-1.133l-0.025,-0.566l-0.037,-0.566l-0.061,-1.415l-0,-0.296l-0.025,-0.566l-0.012,-0.295l0,-0.283l-0.012,-0.283l-0,-0.283l-0.013,-0.296l0,-1.157l-0.012,-0.283l0,-0.295l0.012,-0.579l0,-0.873l0.013,-0.296l0.024,-1.181l0.025,-0.887l0.025,-0.59l0.036,-0.591l0.025,-0.603l0.037,-0.591l0.012,-0.295l0.037,-0.603l0.099,-1.207l0.074,-0.898l0.049,-0.615l0.037,-0.308l0.061,-0.603l0.025,-0.308l0.074,-0.603l0.024,-0.308l0.185,-1.538l0.049,-0.32l0.074,-0.615l0.098,-0.616l0.037,-0.32l0.099,-0.615l0.049,-0.32l0.049,-0.308l0.05,-0.32l0.098,-0.615l0.049,-0.32l0.062,-0.32l0.049,-0.32l0.111,-0.628l0.061,-0.32l0.173,-0.948l0.123,-0.64l0.135,-0.64l0.062,-0.32l0.135,-0.652l0.135,-0.64l0.148,-0.652l0.074,-0.32l0.148,-0.653l0.073,-0.32l0.16,-0.652l0.074,-0.332l0.173,-0.653l0.16,-0.664l0.172,-0.652l0.172,-0.665l0.185,-0.665l0.086,-0.332l0.098,-0.332l0.185,-0.677l0.197,-0.665l0.295,-1.009l0.197,-0.677l0.111,-0.332l0.209,-0.677l0.222,-0.689l0.209,-0.677l0.111,-0.345l0.468,-1.378l0.11,-0.345l0.493,-1.379l0.369,-1.046l0.517,-1.403l0.271,-0.701l0.258,-0.702l0.566,-1.428l0.283,-0.701l0.136,-0.369l0.59,-1.428l0.16,-0.357l0.296,-0.726l0.32,-0.726l0.307,-0.726l0.32,-0.727l0.173,-0.369l0.32,-0.738l0.172,-0.357l0.332,-0.739l0.345,-0.738l0.345,-0.751l0.344,-0.738l0.185,-0.37l0.172,-0.381l0.369,-0.739l0.185,-0.381l0.369,-0.751l0.566,-1.132l0.197,-0.382l0.382,-0.763l0.984,-1.908l0.21,-0.381l0.406,-0.775l0.418,-0.764l0.419,-0.787l0.431,-0.776l0.209,-0.393l0.431,-0.776l0.886,-1.575l0.91,-1.576l0.382,-0.664l-0.037,0.074Z"/></g><g id="F"><path d="M145,903.308c17.949,-12.119 31.354,-21.294 39.987,-27.637c8.634,-6.23 17.722,-14.045 27.037,-23.333c9.315,-9.288 17.154,-19.822 23.515,-31.488c4.999,-8.608 9.316,-18.576 12.837,-29.903c3.522,-11.213 5.339,-22.087 5.68,-32.394c0,-9.628 -1.249,-18.802 -3.862,-27.411c-2.499,-8.721 -6.816,-15.857 -12.951,-21.634c-6.134,-5.663 -14.086,-8.495 -23.969,-8.495c-9.543,0 -18.517,1.926 -26.923,5.664c-8.293,3.851 -14.2,9.967 -17.495,18.575c0,0.793 -0.454,1.813 -1.136,3.285c0.227,1.813 1.136,3.172 2.84,4.191c1.704,1.02 3.181,1.473 4.544,1.473c0.682,-0 2.613,-0.34 5.567,-1.02c3.067,-0.679 5.566,-1.132 7.611,-1.132c6.021,-0 11.36,2.152 16.245,6.342c4.771,4.191 7.156,9.288 7.156,15.292c0,4.304 -1.249,8.381 -3.635,12.119c-2.385,3.738 -5.68,6.796 -9.883,8.948c-4.203,2.265 -8.861,3.285 -13.859,3.285c-9.088,-0 -16.813,-2.719 -23.175,-8.269c-6.248,-5.663 -9.428,-12.799 -9.428,-21.747c-0,-11.44 3.521,-21.294 10.451,-29.676c7.043,-8.382 15.904,-14.611 26.809,-18.802c10.792,-4.304 21.698,-6.343 32.831,-6.343c12.155,-0 23.742,3.058 34.534,9.288c10.906,6.116 19.426,14.611 25.787,25.145c6.362,10.647 9.656,21.974 9.656,34.207c0,21.747 -7.27,41.909 -21.811,60.598c-14.541,18.689 -32.489,34.886 -53.96,48.704c-14.313,9.402 -37.488,22.087 -69.409,38.058l-1.591,-5.89Zm157.791,-175.224c-0,-4.077 1.476,-7.475 4.43,-10.194c2.84,-2.832 6.362,-4.191 10.565,-4.191c3.635,0 7.043,1.586 10.11,4.644c3.067,2.945 4.544,6.456 4.544,10.307c0,4.078 -1.59,7.589 -4.544,10.421c-3.181,2.718 -6.702,4.078 -10.678,4.078c-4.203,-0 -7.611,-1.36 -10.338,-4.418c-2.726,-2.945 -4.089,-6.456 -4.089,-10.647Zm-0,59.352c-0,-4.078 1.476,-7.589 4.203,-10.307c2.84,-2.832 6.361,-4.191 10.792,-4.191c3.635,-0 6.929,1.472 10.11,4.531c2.954,3.058 4.544,6.343 4.544,9.967c0,4.417 -1.477,7.929 -4.317,10.76c-2.953,2.832 -6.361,4.305 -10.337,4.305c-4.431,-0 -7.952,-1.473 -10.792,-4.191c-2.727,-2.719 -4.203,-6.343 -4.203,-10.874Z" style="fill:#131516;stroke:#131516;stroke-width:0.34px;stroke-linecap:butt;stroke-linejoin:miter;stroke-miterlimit:4;"/></g><g id="G"><path d="M217.978,386.82c-5.531,1.133 -10.656,4.168 -15.547,9.001c-4.898,4.923 -7.52,10.538 -7.948,16.749c-0.269,3.905 0.759,8.433 3.014,13.314c2.249,4.969 5.924,8.701 10.841,11.269c1.665,0.472 2.405,1.414 2.319,2.656c-0.031,0.444 -0.684,0.845 -2.22,1.095c-7.954,-2.599 -14.326,-7.407 -19.038,-14.241c-4.706,-6.922 -6.86,-14.561 -6.45,-23.092c0.898,-9.121 4.243,-17.449 10.029,-24.896c5.883,-7.529 13.118,-12.646 21.705,-15.353l-3.964,-31.925c-14.482,10.413 -26.415,21.448 -35.9,33.276c-9.48,11.739 -14.851,24.831 -16.206,39.27c-0.269,6.49 0.631,12.882 2.705,19.088c2.068,6.295 5.425,12.054 10.057,17.456c9.36,10.72 22.074,16.858 37.96,18.489c5.45,0.019 11.299,-0.558 17.636,-1.726l-8.993,-70.43Zm6.466,-0.446l9.168,69.195c14.078,-4.556 21.753,-16.063 23.015,-34.343c-0.378,-6.177 -1.778,-11.802 -4.465,-16.891c-2.593,-5.171 -6.238,-9.346 -11.023,-12.529c-4.785,-3.183 -10.291,-4.99 -16.695,-5.432Zm-11.868,-93.543c3.058,-1.572 6.652,-4.445 10.599,-8.541c3.941,-4.008 7.849,-8.82 11.62,-14.266c3.867,-5.528 7.029,-11.194 9.485,-16.999c2.45,-5.715 3.814,-11.238 4.169,-16.385c0.153,-2.217 0.129,-4.448 -0.182,-6.431c-0.135,-3.219 -0.942,-5.772 -2.516,-7.574c-1.579,-1.714 -3.653,-2.749 -6.322,-2.933c-5.336,-0.368 -10.367,2.584 -15.089,8.855c-3.684,5.453 -6.906,12.006 -9.39,19.503c-2.578,7.579 -4.261,15.129 -4.972,22.838c-0.161,8.815 0.766,16.1 2.598,21.933Zm-5.959,4.76c-3.011,-14.651 -4.224,-29.446 -3.641,-44.384c0.751,-9.577 2.347,-18.472 4.791,-26.684c2.355,-8.219 5.43,-15.228 9.239,-21.207c3.72,-5.984 7.869,-10.423 12.359,-13.323c4.021,-2.576 6.883,-3.894 8.394,-3.789c1.157,0.079 2.105,0.59 2.94,1.451c0.833,0.86 1.898,2.271 3.199,4.143c9.55,15.727 13.638,34.197 12.182,55.316c-0.692,10.028 -2.7,19.696 -6.043,29.273c-3.247,9.494 -7.708,18.459 -13.372,26.716c-5.76,8.34 -12.329,15.465 -19.803,21.459l4.794,35.458c3.943,-0.174 6.637,-0.344 8.149,-0.24c6.76,0.466 12.711,2.304 18.119,5.53c5.408,3.226 9.948,7.373 13.525,12.523c3.583,5.062 6.228,10.772 7.934,17.132c1.618,6.352 2.327,12.909 1.862,19.654c-0.723,10.47 -4.142,19.863 -10.251,28.09c-6.108,8.227 -14.815,13.956 -26.216,17.271c0.411,4.397 1.222,10.783 2.533,18.987c1.216,8.286 2.103,14.856 2.662,19.709c0.559,4.854 0.596,9.492 0.284,14.018c-0.484,7.009 -2.602,13.104 -6.362,18.373c-3.849,5.262 -8.768,9.202 -14.847,11.814c-5.99,2.619 -12.499,3.685 -19.437,3.206c-9.784,-0.675 -18.134,-4.015 -25.054,-9.931c-6.915,-6.005 -10.32,-13.64 -10.027,-23.07c0.555,-4.153 1.802,-7.99 3.839,-11.593c2.036,-3.605 4.645,-6.456 7.918,-8.549c3.19,-2.187 6.923,-3.177 11.122,-3.155c3.469,0.24 6.692,1.443 9.677,3.521c2.89,2.161 5.203,4.906 6.844,8.318c1.552,3.406 2.28,7.112 2.011,11.016c-0.362,5.235 -2.447,9.549 -6.256,12.942c-3.809,3.393 -8.474,4.943 -13.9,4.569l-2.045,-0.142c3.101,5.564 8.604,8.708 16.521,9.254c4.003,0.276 8.155,-0.329 12.357,-1.644c4.298,-1.398 7.919,-3.376 11.051,-6.013c3.131,-2.638 5.296,-5.519 6.318,-8.659c1.762,-3.533 2.823,-8.543 3.258,-14.842c0.293,-4.26 0.143,-8.55 -0.364,-12.864c-0.513,-4.226 -1.372,-9.903 -2.585,-16.94c-1.219,-6.949 -2.097,-12.36 -2.557,-16.047c-5.429,0.963 -10.993,1.293 -16.775,0.893c-9.696,-0.669 -18.723,-3.253 -27.076,-7.842c-8.352,-4.588 -15.533,-10.611 -21.626,-18.164c-6.004,-7.547 -10.522,-15.883 -13.545,-25.186c-2.94,-9.207 -4.159,-18.742 -3.575,-28.509c0.981,-9.027 3.271,-17.607 7.037,-25.549c3.771,-8.031 8.402,-15.558 13.974,-22.484c5.572,-6.927 11.28,-13.22 17.116,-18.79c5.919,-5.477 13.645,-12.522 23.348,-21.036Z" style="fill:#131516;stroke:#131516;stroke-width:0.27px;stroke-linecap:butt;stroke-linejoin:miter;stroke-miterlimit:4;"/></g><g><g><g transform="matrix(0.999999,0,0,1,0.000581507,0)"><text x="971.312px" y="1033.41px" style="font-family:'NotoSansSC-Bold', 'Noto Sans SC', sans-serif;font-weight:700;font-size:52px;">阴暗度增加</text></g></g></g><g><g><g transform="matrix(0.999999,0,0,1,0.000552696,0)"><text x="972.612px" y="1113.05px" style="font-family:'NotoSansSC-Bold', 'Noto Sans SC', sans-serif;font-weight:700;font-size:52px;">(</text></g><g transform="matrix(0.999999,0,0,1,0.000563214,0)"><text x="991.122px" y="1113.05px" style="font-family:'NotoSansSC-Bold', 'Noto Sans SC', sans-serif;font-weight:700;font-size:52px;">C × Am)</text></g></g></g><g><g><g transform="matrix(0.999999,0,0,1,0.000901544,0)"><text x="1534.5px" y="1033.41px" style="font-family:'NotoSansSC-Bold', 'Noto Sans SC', sans-serif;font-weight:700;font-size:52px;">悲伤程度增加</text></g></g></g><g><g><g transform="matrix(0.999999,0,0,1,0.000893492,0)"><text x="1572.33px" y="1113.05px" style="font-family:'NotoSansSC-Bold', 'Noto Sans SC', sans-serif;font-weight:700;font-size:52px;">(</text></g><g transform="matrix(0.999999,0,0,1,0.000904011,0)"><text x="1590.84px" y="1113.05px" style="font-family:'NotoSansSC-Bold', 'Noto Sans SC', sans-serif;font-weight:700;font-size:52px;">C × Em)</text></g></g></g><g><g><g transform="matrix(0.999999,0,0,1,0.00123042,0)"><text x="2113.25px" y="1033.41px" style="font-family:'NotoSansSC-Bold', 'Noto Sans SC', sans-serif;font-weight:700;font-size:52px;">锋利度增加</text></g></g></g><g><g><g transform="matrix(0.999999,0,0,1,0.00121348,0)"><text x="2135.43px" y="1113.05px" style="font-family:'NotoSansSC-Bold', 'Noto Sans SC', sans-serif;font-weight:700;font-size:52px;">(</text></g><g transform="matrix(0.999999,0,0,1,0.00122399,0)"><text x="2153.94px" y="1113.05px" style="font-family:'NotoSansSC-Bold', 'Noto Sans SC', sans-serif;font-weight:700;font-size:52px;">C × G?)</text></g></g></g><g><g><g transform="matrix(0.999999,0,0,1,0.000238931,0)"><text x="431.538px" y="1113.05px" style="font-family:'NotoSansSC-Bold', 'Noto Sans SC', sans-serif;font-weight:700;font-size:52px;">（原版C）</text></g></g></g><g><g><g transform="matrix(0.999999,0,0,1,0.000270163,0)"><text x="423.422px" y="1033.41px" style="font-family:'NotoSansSC-Bold', 'Noto Sans SC', sans-serif;font-weight:700;font-size:52px;">清澈的声响</text></g></g></g><g id="path7229"><path d="M549.582,503.198c-27.719,0 -50.174,13.495 -50.174,30.042c-0,16.545 22.455,29.959 50.174,29.959c27.72,0 50.258,-13.414 50.258,-29.959c0,-16.547 -22.538,-30.042 -50.258,-30.042Zm-12.26,5.441c7.21,-0.094 16.09,2.725 24.44,8.363c14.844,10.019 22.292,25.108 16.644,33.612c-5.648,8.504 -22.261,7.259 -37.104,-2.759c-14.845,-10.021 -22.292,-25.111 -16.646,-33.615c2.474,-3.72 7.062,-5.528 12.666,-5.601Z" style="fill-rule:nonzero;"/></g><g id="path72291" serif:id="path7229"><path d="M549.582,383.198c-27.719,0 -50.174,13.495 -50.174,30.042c-0,16.545 22.455,29.959 50.174,29.959c27.72,0 50.258,-13.414 50.258,-29.959c0,-16.547 -22.538,-30.042 -50.258,-30.042Zm-12.26,5.441c7.21,-0.094 16.09,2.725 24.44,8.363c14.844,10.018 22.292,25.108 16.644,33.612c-5.648,8.503 -22.261,7.259 -37.104,-2.759c-14.845,-10.021 -22.292,-25.111 -16.646,-33.615c2.474,-3.72 7.062,-5.529 12.666,-5.601Z" style="fill:#050001;fill-rule:nonzero;"/></g><g id="path72292" serif:id="path7229"><path d="M1687.47,323.198c-27.72,0 -50.175,13.495 -50.175,30.042c-0,16.545 22.455,29.959 50.175,29.959c27.719,-0 50.258,-13.414 50.258,-29.959c-0,-16.547 -22.539,-30.042 -50.258,-30.042Zm-12.261,5.44c7.21,-0.093 16.09,2.726 24.441,8.364c14.843,10.018 22.291,25.108 16.643,33.612c-5.648,8.503 -22.261,7.259 -37.104,-2.76c-14.845,-10.021 -22.291,-25.11 -16.646,-33.614c2.474,-3.72 7.062,-5.529 12.666,-5.602Z" style="fill:#f15031;fill-rule:nonzero;"/></g><g id="path72293" serif:id="path7229"><path d="M549.582,443.198c-27.719,-0 -50.174,13.494 -50.174,30.042c-0,16.545 22.455,29.959 50.174,29.959c27.72,-0 50.258,-13.414 50.258,-29.959c0,-16.548 -22.538,-30.042 -50.258,-30.042Zm-12.26,5.44c7.21,-0.093 16.09,2.726 24.44,8.364c14.844,10.018 22.292,25.108 16.644,33.611c-5.648,8.504 -22.261,7.26 -37.104,-2.759c-14.845,-10.021 -22.292,-25.111 -16.646,-33.614c2.474,-3.721 7.062,-5.529 12.666,-5.602Z" style="fill-rule:nonzero;"/></g><g><path d="M1757.54,352.34c50.508,19.016 48.107,191.84 0,198.809" style="fill:none;stroke:#f15031;stroke-width:3px;stroke-dasharray:12,12,0,0;"/></g><g><path d="M1827.63,498.894l-14.22,25.92l-2.93,0l13.16,-22.99l-8.94,0c-1.14,0 -2.02,0.01 -2.66,0.02c-0.64,0.01 -1.22,0.14 -1.76,0.39c-0.43,0.2 -0.8,0.65 -1.1,1.36c-0.31,0.71 -0.55,1.58 -0.73,2.6l-1.43,0l0,-9.62l20.61,0l0,2.32Z" style="fill:#f15031;fill-rule:nonzero;"/><path d="M1843.35,495.554c0,1.82 -0.63,3.36 -1.87,4.6c-1.24,1.24 -2.86,1.87 -4.85,1.87c-1.99,0 -3.61,-0.63 -4.84,-1.89c-1.24,-1.26 -1.86,-2.78 -1.86,-4.58c0,-1.86 0.63,-3.4 1.9,-4.63c1.27,-1.22 2.87,-1.83 4.8,-1.83c1.98,0 3.59,0.62 4.84,1.86c1.25,1.24 1.88,2.78 1.88,4.6Zm-3.52,0.16c0,-1.59 -0.29,-2.8 -0.88,-3.62c-0.58,-0.82 -1.37,-1.23 -2.34,-1.23c-1,0 -1.78,0.43 -2.33,1.28c-0.56,0.86 -0.83,1.97 -0.83,3.35c0,1.5 0.27,2.67 0.84,3.51c0.55,0.84 1.36,1.26 2.4,1.26c0.88,0 1.63,-0.4 2.23,-1.2c0.61,-0.8 0.91,-1.92 0.91,-3.35Z" style="fill:#f15031;fill-rule:nonzero;"/></g><g><rect x="449.623" y="81.361" width="200" height="120" style="fill:#49b656;"/></g><g><rect x="548.181" y="111.169" width="8.293" height="54.282" style="fill:#fff;"/></g><g><rect x="1595.1" y="81.361" width="200" height="120" style="fill:#49b656;"/></g><g><path d="M1835.94,79.188c-0,-9.932 -8.069,-18.004 -18,-18.004l-48.001,-0c-9.935,-0 -17.999,8.072 -17.999,18.004l-0,35.998c-0,9.932 8.064,17.992 17.999,17.992l48.001,0c9.931,0 18,-8.06 18,-17.992l-0,-35.998Z" style="fill:#85756e;"/></g><g><path d="M1796.35,83.689l-19.92,32.7l4.8,3.06l25.26,-41.4l-29.82,0l-0,5.64l19.68,0Z" style="fill:#fff;fill-rule:nonzero;"/><path d="M1818.37,77.449c-4.5,0 -8.1,3.54 -8.1,8.04c-0,4.38 3.6,7.98 8.04,7.98c4.38,0 7.98,-3.6 7.98,-8.04c-0,-4.38 -3.6,-7.98 -7.92,-7.98Zm-0.06,4.02c2.34,0 4.2,1.8 4.2,4.02c-0,2.4 -1.92,4.38 -4.2,4.38c-2.34,0 -4.26,-1.98 -4.26,-4.38c-0,-2.28 1.86,-4.02 4.26,-4.02Z" style="fill:#fff;fill-rule:nonzero;"/></g><g><rect x="1693.66" y="111.169" width="8.293" height="54.282" style="fill:#fff;"/></g><g><rect x="2134.48" y="81.361" width="200" height="120" style="fill:#49b656;"/></g><g><rect x="2233.04" y="111.169" width="8.293" height="54.282" style="fill:#fff;"/></g><g id="path72294" serif:id="path7229"><path d="M549.582,812.824c-27.719,-0 -50.174,13.494 -50.174,30.042c-0,16.545 22.455,29.959 50.174,29.959c27.72,-0 50.258,-13.414 50.258,-29.959c0,-16.548 -22.538,-30.042 -50.258,-30.042Zm-12.26,5.44c7.21,-0.093 16.09,2.726 24.44,8.364c14.844,10.018 22.292,25.108 16.644,33.611c-5.648,8.504 -22.261,7.26 -37.104,-2.759c-14.845,-10.021 -22.292,-25.111 -16.646,-33.614c2.474,-3.721 7.062,-5.529 12.666,-5.602Z" style="fill:#050001;fill-rule:nonzero;"/></g><g id="しっぽ"><rect x="479.687" y="531.824" width="138.818" height="2"/></g><g id="path72295" serif:id="path7229"><path d="M2238.07,503.198c-27.72,0 -50.175,13.495 -50.175,30.042c-0,16.545 22.455,29.959 50.175,29.959c27.719,0 50.258,-13.414 50.258,-29.959c-0,-16.547 -22.539,-30.042 -50.258,-30.042Zm-12.261,5.441c7.21,-0.094 16.09,2.725 24.441,8.363c14.843,10.019 22.292,25.108 16.643,33.612c-5.648,8.504 -22.26,7.259 -37.103,-2.759c-14.846,-10.021 -22.292,-25.111 -16.647,-33.615c2.474,-3.72 7.062,-5.528 12.666,-5.601Z" style="fill-rule:nonzero;"/></g><g id="path72296" serif:id="path7229"><path d="M2238.07,383.198c-27.72,0 -50.175,13.495 -50.175,30.042c-0,16.545 22.455,29.959 50.175,29.959c27.719,0 50.258,-13.414 50.258,-29.959c-0,-16.547 -22.539,-30.042 -50.258,-30.042Zm-12.261,5.441c7.21,-0.094 16.09,2.725 24.441,8.363c14.843,10.018 22.292,25.108 16.643,33.612c-5.648,8.503 -22.26,7.259 -37.103,-2.759c-14.846,-10.021 -22.292,-25.111 -16.647,-33.615c2.474,-3.72 7.062,-5.529 12.666,-5.601Z" style="fill:#050001;fill-rule:nonzero;"/></g><g id="path72297" serif:id="path7229"><path d="M2238.07,443.198c-27.72,-0 -50.175,13.494 -50.175,30.042c-0,16.545 22.455,29.959 50.175,29.959c27.719,-0 50.258,-13.414 50.258,-29.959c-0,-16.548 -22.539,-30.042 -50.258,-30.042Zm-12.261,5.44c7.21,-0.093 16.09,2.726 24.441,8.364c14.843,10.018 22.292,25.108 16.643,33.611c-5.648,8.504 -22.26,7.26 -37.103,-2.759c-14.846,-10.021 -22.292,-25.111 -16.647,-33.614c2.474,-3.721 7.062,-5.529 12.666,-5.602Z" style="fill-rule:nonzero;"/></g><g id="path72298" serif:id="path7229"><path d="M2238.07,812.824c-27.72,-0 -50.175,13.494 -50.175,30.042c-0,16.545 22.455,29.959 50.175,29.959c27.719,-0 50.258,-13.414 50.258,-29.959c-0,-16.548 -22.539,-30.042 -50.258,-30.042Zm-12.261,5.44c7.21,-0.093 16.09,2.726 24.441,8.364c14.843,10.018 22.292,25.108 16.643,33.611c-5.648,8.504 -22.26,7.26 -37.103,-2.759c-14.846,-10.021 -22.292,-25.111 -16.647,-33.614c2.474,-3.721 7.062,-5.529 12.666,-5.602Z" style="fill:#050001;fill-rule:nonzero;"/></g><g id="しっぽ1" serif:id="しっぽ"><rect x="2168.07" y="531.824" width="138.818" height="2"/></g><g id="path72299" serif:id="path7229"><path d="M1688.16,503.198c-27.72,0 -50.175,13.495 -50.175,30.042c-0,16.545 22.455,29.959 50.175,29.959c27.719,0 50.258,-13.414 50.258,-29.959c-0,-16.547 -22.539,-30.042 -50.258,-30.042Zm-12.261,5.441c7.21,-0.094 16.09,2.725 24.441,8.363c14.843,10.019 22.292,25.108 16.643,33.612c-5.648,8.504 -22.26,7.259 -37.104,-2.759c-14.845,-10.021 -22.291,-25.111 -16.646,-33.615c2.474,-3.72 7.062,-5.528 12.666,-5.601Z" style="fill-rule:nonzero;"/></g><g id="path722910" serif:id="path7229"><path d="M1688.16,383.198c-27.72,0 -50.175,13.495 -50.175,30.042c-0,16.545 22.455,29.959 50.175,29.959c27.719,0 50.258,-13.414 50.258,-29.959c-0,-16.547 -22.539,-30.042 -50.258,-30.042Zm-12.261,5.441c7.21,-0.094 16.09,2.725 24.441,8.363c14.843,10.018 22.292,25.108 16.643,33.612c-5.648,8.503 -22.26,7.259 -37.104,-2.759c-14.845,-10.021 -22.291,-25.111 -16.646,-33.615c2.474,-3.72 7.062,-5.529 12.666,-5.601Z" style="fill:#050001;fill-rule:nonzero;"/></g><g id="path722911" serif:id="path7229"><path d="M1688.16,443.198c-27.72,-0 -50.175,13.494 -50.175,30.042c-0,16.545 22.455,29.959 50.175,29.959c27.719,-0 50.258,-13.414 50.258,-29.959c-0,-16.548 -22.539,-30.042 -50.258,-30.042Zm-12.261,5.44c7.21,-0.093 16.09,2.726 24.441,8.364c14.843,10.018 22.292,25.108 16.643,33.611c-5.648,8.504 -22.26,7.26 -37.104,-2.759c-14.845,-10.021 -22.291,-25.111 -16.646,-33.614c2.474,-3.721 7.062,-5.529 12.666,-5.602Z" style="fill-rule:nonzero;"/></g><g id="しっぽ2" serif:id="しっぽ"><rect x="1619.19" y="531.824" width="138.818" height="2"/></g><g id="path722912" serif:id="path7229"><path d="M2239.97,266.957c-27.719,-0 -50.175,13.494 -50.175,30.042c0,16.544 22.456,29.958 50.175,29.958c27.719,0 50.258,-13.414 50.258,-29.958c-0,-16.548 -22.539,-30.042 -50.258,-30.042Zm-12.261,5.44c7.21,-0.093 16.09,2.725 24.441,8.363c14.843,10.019 22.292,25.109 16.643,33.612c-5.648,8.504 -22.26,7.259 -37.103,-2.759c-14.846,-10.021 -22.292,-25.111 -16.646,-33.614c2.473,-3.721 7.061,-5.529 12.665,-5.602Z" style="fill:#f15031;fill-rule:nonzero;"/></g><g><path d="M2380.23,76.787c0,-9.932 -8.065,-18.004 -18,-18.004l-44.158,-0c-9.935,-0 -17.999,8.072 -17.999,18.004l-0,35.997c-0,9.932 8.064,17.993 17.999,17.993l44.158,0c9.935,0 18,-8.061 18,-17.993l0,-35.997Z" style="fill:#85756e;"/></g><g><path d="M2334.12,105.277l5.435,-6.436c6.119,-7.175 7.597,-9.866 7.597,-13.664c-0,-6.015 -4.96,-10.658 -11.343,-10.658c-3.957,0 -7.175,1.689 -9.233,4.749c-1.161,1.793 -1.688,3.376 -2.005,6.383l5.276,0c0.211,-1.952 0.528,-2.849 1.214,-3.851c1.055,-1.53 2.901,-2.427 4.906,-2.427c3.377,0 6.014,2.533 6.014,5.804c0,2.268 -1.266,4.326 -6.225,10.34l-12.187,14.772l23.635,0l0,-5.012l-13.084,0Z" style="fill:#fff;fill-rule:nonzero;"/><path d="M2361.51,74.572c-3.957,0 -7.122,3.113 -7.122,7.07c-0,3.851 3.165,7.017 7.069,7.017c3.851,-0 7.017,-3.166 7.017,-7.07c-0,-3.851 -3.166,-7.017 -6.964,-7.017Zm-0.053,3.535c2.058,0 3.693,1.583 3.693,3.535c0,2.11 -1.688,3.851 -3.693,3.851c-2.057,0 -3.746,-1.741 -3.746,-3.851c0,-2.005 1.636,-3.535 3.746,-3.535Z" style="fill:#fff;fill-rule:nonzero;"/></g><g><path d="M2307.3,308.184c29.971,19.866 28.547,200.41 -0,207.69" style="fill:none;stroke:#f15031;stroke-width:3px;stroke-dasharray:12,12,0,0;"/></g><g><path d="M2364.6,401.556l-21.17,-0l0,-3.53c0.93,-0.94 1.94,-1.8 3.04,-2.57c1.1,-0.78 2.21,-1.46 3.35,-2.06c1.21,-0.64 2.22,-1.21 3.04,-1.71c0.82,-0.5 1.47,-1.03 1.94,-1.57c0.47,-0.51 0.8,-1.07 1,-1.66c0.2,-0.6 0.31,-1.27 0.31,-2.02c0,-1.65 -0.4,-2.85 -1.18,-3.61c-0.78,-0.75 -1.81,-1.13 -3.1,-1.13c-0.41,-0 -0.79,0.03 -1.14,0.09c-0.36,0.06 -0.74,0.16 -1.13,0.32c0.2,0.58 0.39,1.19 0.57,1.82c0.18,0.62 0.27,1.32 0.27,2.09c0,0.92 -0.33,1.66 -0.99,2.2c-0.67,0.55 -1.51,0.82 -2.54,0.82c-0.98,-0 -1.76,-0.32 -2.34,-0.95c-0.58,-0.64 -0.87,-1.42 -0.87,-2.33c0,-1.59 0.93,-2.96 2.78,-4.12c1.85,-1.16 4.1,-1.74 6.76,-1.74c3.07,-0 5.55,0.53 7.45,1.58c1.89,1.06 2.84,2.76 2.84,5.1c0,1.21 -0.25,2.19 -0.75,2.93c-0.5,0.74 -1.24,1.39 -2.22,1.95c-0.87,0.51 -1.84,0.93 -2.9,1.25c-1.06,0.33 -2.2,0.64 -3.41,0.94c-1.29,0.33 -2.41,0.67 -3.37,1.04c-0.96,0.36 -1.8,0.8 -2.55,1.31l0,0.21l16.31,-0l0,5.35Z" style="fill:#f15031;fill-rule:nonzero;"/><path d="M2382.24,379.506c0,1.82 -0.62,3.36 -1.87,4.6c-1.24,1.24 -2.86,1.87 -4.85,1.87c-1.99,-0 -3.61,-0.63 -4.85,-1.89c-1.23,-1.26 -1.85,-2.78 -1.85,-4.58c0,-1.86 0.64,-3.4 1.9,-4.63c1.27,-1.22 2.87,-1.83 4.8,-1.83c1.98,-0 3.59,0.62 4.84,1.86c1.25,1.24 1.88,2.78 1.88,4.6Zm-3.52,0.16c0,-1.59 -0.29,-2.8 -0.88,-3.62c-0.58,-0.82 -1.36,-1.23 -2.34,-1.23c-1,-0 -1.78,0.43 -2.33,1.28c-0.56,0.86 -0.84,1.97 -0.84,3.35c0,1.5 0.29,2.67 0.84,3.51c0.57,0.84 1.37,1.26 2.41,1.26c0.88,-0 1.63,-0.4 2.23,-1.2c0.61,-0.8 0.91,-1.92 0.91,-3.35Z" style="fill:#f15031;fill-rule:nonzero;"/></g><g id="path722913" serif:id="path7229"><path d="M1690.07,813.825c-27.719,-0 -50.175,13.494 -50.175,30.042c-0,16.545 22.456,29.959 50.175,29.959c27.719,-0 50.258,-13.414 50.258,-29.959c-0,-16.548 -22.539,-30.042 -50.258,-30.042Zm-12.261,5.44c7.21,-0.093 16.09,2.726 24.441,8.364c14.843,10.018 22.292,25.108 16.643,33.611c-5.648,8.504 -22.26,7.259 -37.103,-2.759c-14.846,-10.021 -22.292,-25.111 -16.647,-33.614c2.474,-3.721 7.062,-5.529 12.666,-5.602Z" style="fill:#050001;fill-rule:nonzero;"/></g><g id="path722914" serif:id="path7229"><path d="M1072.55,503.198c-27.719,0 -50.175,13.495 -50.175,30.042c0,16.545 22.456,29.959 50.175,29.959c27.719,0 50.258,-13.414 50.258,-29.959c0,-16.547 -22.539,-30.042 -50.258,-30.042Zm-12.26,5.441c7.209,-0.094 16.09,2.725 24.44,8.363c14.843,10.019 22.292,25.108 16.644,33.612c-5.649,8.504 -22.261,7.259 -37.104,-2.759c-14.846,-10.021 -22.292,-25.111 -16.646,-33.615c2.473,-3.72 7.061,-5.528 12.666,-5.601Z" style="fill-rule:nonzero;"/></g><g id="path722915" serif:id="path7229"><path d="M1072.55,383.198c-27.719,0 -50.175,13.495 -50.175,30.042c0,16.545 22.456,29.959 50.175,29.959c27.719,0 50.258,-13.414 50.258,-29.959c0,-16.547 -22.539,-30.042 -50.258,-30.042Zm-12.26,5.441c7.209,-0.094 16.09,2.725 24.44,8.363c14.843,10.018 22.292,25.108 16.644,33.612c-5.649,8.503 -22.261,7.259 -37.104,-2.759c-14.846,-10.021 -22.292,-25.111 -16.646,-33.615c2.473,-3.72 7.061,-5.529 12.666,-5.601Z" style="fill:#050001;fill-rule:nonzero;"/></g><g id="path722916" serif:id="path7229"><path d="M1072.55,443.198c-27.719,-0 -50.175,13.494 -50.175,30.042c0,16.545 22.456,29.959 50.175,29.959c27.719,-0 50.258,-13.414 50.258,-29.959c0,-16.548 -22.539,-30.042 -50.258,-30.042Zm-12.26,5.44c7.209,-0.093 16.09,2.726 24.44,8.364c14.843,10.018 22.292,25.108 16.644,33.611c-5.649,8.504 -22.261,7.26 -37.104,-2.759c-14.846,-10.021 -22.292,-25.111 -16.646,-33.614c2.473,-3.721 7.061,-5.529 12.666,-5.602Z" style="fill-rule:nonzero;"/></g><g><rect x="999.6" y="81.361" width="200" height="120" style="fill:#49b656;"/></g><g><rect x="1098.16" y="111.169" width="8.293" height="54.282" style="fill:#fff;"/></g><g id="path722917" serif:id="path7229"><path d="M1072.55,812.824c-27.719,-0 -50.175,13.494 -50.175,30.042c0,16.545 22.456,29.959 50.175,29.959c27.719,-0 50.258,-13.414 50.258,-29.959c0,-16.548 -22.539,-30.042 -50.258,-30.042Zm-12.26,5.44c7.209,-0.093 16.09,2.726 24.44,8.364c14.843,10.018 22.292,25.108 16.644,33.611c-5.649,8.504 -22.261,7.26 -37.104,-2.759c-14.846,-10.021 -22.292,-25.111 -16.646,-33.614c2.473,-3.721 7.061,-5.529 12.666,-5.602Z" style="fill:#050001;fill-rule:nonzero;"/></g><g id="しっぽ3" serif:id="しっぽ"><rect x="1002.71" y="531.824" width="138.818" height="2"/></g><g><path d="M1238.24,80.719c0,-9.932 -8.068,-18.005 -17.999,-18.005l-48.002,0c-9.935,0 -17.999,8.073 -17.999,18.005l0,35.997c0,9.932 8.064,17.993 17.999,17.993l48.002,-0c9.931,-0 17.999,-8.061 17.999,-17.993l0,-35.997Z" style="fill:#85756e;"/></g><g><path d="M1194.88,76.73l-13.96,18.933c-2.576,3.595 -3.895,6.89 -3.895,10.066c0,7.01 6.232,13.001 13.541,13.001c7.31,0 13.301,-5.991 13.301,-13.361c0,-6.83 -5.392,-12.522 -11.923,-12.522c-0.719,0 -1.138,0.06 -2.157,0.18l9.527,-13.002l-4.434,-3.295Zm-4.434,21.449c4.194,0 7.55,3.356 7.55,7.61c-0,4.074 -3.416,7.429 -7.55,7.429c-4.134,-0 -7.549,-3.355 -7.549,-7.549c0,-4.134 3.355,-7.49 7.549,-7.49Z" style="fill:#fff;fill-rule:nonzero;"/><path d="M1218.55,77.509c-4.493,-0 -8.088,3.535 -8.088,8.028c-0,4.374 3.595,7.969 8.028,7.969c4.374,0 7.969,-3.595 7.969,-8.028c-0,-4.374 -3.595,-7.969 -7.909,-7.969Zm-0.06,4.014c2.337,0 4.194,1.798 4.194,4.014c0,2.397 -1.917,4.374 -4.194,4.374c-2.336,0 -4.254,-1.977 -4.254,-4.374c0,-2.276 1.858,-4.014 4.254,-4.014Z" style="fill:#fff;fill-rule:nonzero;"/></g><g id="path722918" serif:id="path7229"><path d="M1156.79,353.198c-27.719,0 -50.175,13.495 -50.175,30.042c0,16.545 22.456,29.959 50.175,29.959c27.719,-0 50.258,-13.414 50.258,-29.959c0,-16.547 -22.539,-30.042 -50.258,-30.042Zm-12.26,5.44c7.209,-0.093 16.09,2.726 24.44,8.364c14.843,10.018 22.292,25.108 16.644,33.612c-5.649,8.503 -22.261,7.259 -37.104,-2.76c-14.846,-10.021 -22.292,-25.11 -16.646,-33.614c2.473,-3.721 7.061,-5.529 12.666,-5.602Z" style="fill:#f15031;fill-rule:nonzero;"/></g><g><path d="M1233.71,403.273c36.762,37.785 -32.163,156.477 -76.875,137.883" style="fill:none;stroke:#f15031;stroke-width:3px;stroke-dasharray:12,12,0,0;"/></g><g><path d="M1261.3,514.822c-0,2.76 -1.04,5.07 -3.12,6.93c-2.07,1.86 -4.73,2.79 -7.95,2.79c-3.38,0 -6.09,-1.05 -8.13,-3.17c-2.04,-2.11 -3.07,-4.96 -3.07,-8.52c-0,-4.77 1.61,-8.71 4.83,-11.82c3.21,-3.11 7.58,-4.99 13.1,-5.64l0.45,1.93l-2.07,0.35c-1.57,0.43 -2.89,1.02 -3.95,1.77c-1.06,0.75 -1.94,1.6 -2.63,2.57c-0.66,0.92 -1.19,1.97 -1.56,3.13c-0.38,1.17 -0.67,2.31 -0.86,3.45c1.13,-1.02 2.25,-1.7 3.37,-2.05c1.11,-0.35 2.31,-0.53 3.58,-0.53c2.24,0 4.14,0.82 5.69,2.45c1.54,1.64 2.32,3.75 2.32,6.36Zm-7.23,0.53c-0,-2.06 -0.36,-3.69 -1.08,-4.91c-0.72,-1.21 -1.69,-1.81 -2.9,-1.81c-0.81,0 -1.51,0.13 -2.1,0.41c-0.59,0.27 -1.19,0.84 -1.79,1.72c-0,0.06 -0,0.17 -0.01,0.34c-0,0.16 -0.02,0.37 -0.03,0.63c-0.01,0.29 -0.02,0.56 -0.03,0.8c-0,0.25 -0.01,0.46 -0.01,0.63c-0,3.12 0.38,5.52 1.15,7.18c0.76,1.66 1.74,2.49 2.93,2.49c1.16,0 2.1,-0.65 2.81,-1.96c0.71,-1.3 1.06,-3.14 1.06,-5.52Z" style="fill:#f15031;fill-rule:nonzero;"/><path d="M1278.84,501.812c-0,1.82 -0.63,3.36 -1.87,4.6c-1.24,1.24 -2.86,1.87 -4.85,1.87c-1.99,0 -3.61,-0.63 -4.84,-1.89c-1.24,-1.26 -1.86,-2.78 -1.86,-4.58c-0,-1.86 0.63,-3.4 1.9,-4.63c1.27,-1.22 2.87,-1.83 4.8,-1.83c1.98,0 3.59,0.62 4.84,1.86c1.25,1.24 1.88,2.78 1.88,4.6Zm-3.52,0.16c-0,-1.59 -0.29,-2.8 -0.88,-3.62c-0.58,-0.82 -1.37,-1.23 -2.34,-1.23c-1,0 -1.78,0.43 -2.33,1.28c-0.56,0.86 -0.83,1.97 -0.83,3.35c-0,1.5 0.27,2.67 0.84,3.51c0.55,0.84 1.36,1.26 2.4,1.26c0.88,0 1.63,-0.4 2.23,-1.2c0.61,-0.8 0.91,-1.92 0.91,-3.35Z" style="fill:#f15031;fill-rule:nonzero;"/></g></g></g></svg>