<?xml version="1.0" encoding="UTF-8" standalone="no"?><!DOCTYPE svg PUBLIC "-//W3C//DTD SVG 1.1//EN" "http://www.w3.org/Graphics/SVG/1.1/DTD/svg11.dtd"><svg width="500.0px" height="530.0px" viewBox="0 0 500 530" version="1.1" xmlns="http://www.w3.org/2000/svg" xmlns:xlink="http://www.w3.org/1999/xlink" xml:space="preserve" xmlns:serif="http://www.serif.com/" style="fill-rule:evenodd;clip-rule:evenodd;"><g id="c1-add-I72"><g id="大譜表"><rect id="Rectangle" x="51.172" y="103.725" width="400.644" height="311.357" style="fill:#fff;fill-opacity:0.78;stroke:#000;stroke-width:1.5px;"/><path id="Path" d="M51.177,183.787l400.645,0" style="fill:none;stroke:#000;stroke-width:1.5px;"/><path id="Path1" serif:id="Path" d="M51.177,210.475l400.645,-0" style="fill:none;stroke:#000;stroke-width:1.5px;"/><path id="Path2" serif:id="Path" d="M51.177,157.099l400.645,0" style="fill:none;stroke:#000;stroke-width:1.5px;"/><path id="Path3" serif:id="Path" d="M51.177,130.412l400.645,-0" style="fill:none;stroke:#000;stroke-width:1.5px;"/><path id="Path4" serif:id="Path" d="M51.177,388.393l400.645,0" style="fill:none;stroke:#000;stroke-width:1.5px;"/><path id="Path5" serif:id="Path" d="M51.177,361.705l400.645,0" style="fill:none;stroke:#000;stroke-width:1.5px;"/><path id="Path6" serif:id="Path" d="M51.177,335.018l400.645,-0" style="fill:none;stroke:#000;stroke-width:1.5px;"/><path id="Path7" serif:id="Path" d="M51.177,308.33l400.645,0" style="fill:none;stroke:#000;stroke-width:1.5px;"/></g><g id="_-"><path id="Path8" serif:id="Path" d="M16.801,257.013c30.853,-54.678 -33.229,-83.161 21.909,-142.334c-54.191,69.163 24.97,74.698 -21.909,142.334c30.853,54.679 -33.229,83.162 21.909,142.335c-54.191,-69.164 24.97,-74.698 -21.909,-142.335Z"/><path id="Shape" d="M43.453,109.73l-4.365,5.573l-0.159,0.202l-0.154,0.198l-0.158,0.202l-0.154,0.197l-0.307,0.405l-0.153,0.197l-0.148,0.197l-0.153,0.197l-0.148,0.203l-0.153,0.197l-0.444,0.591l-0.142,0.192l-0.148,0.197l-0.143,0.197l-0.148,0.197l-0.142,0.192l-0.142,0.197l-0.143,0.191l-0.142,0.198l-0.137,0.191l-0.143,0.192l-0.136,0.191l-0.143,0.192l-0.274,0.383l-0.137,0.197l-0.131,0.186l-0.274,0.384l-0.131,0.191l-0.132,0.186l-0.131,0.192l-0.132,0.186l-0.131,0.192l-0.132,0.186l-0.126,0.186l-0.131,0.192l-0.756,1.116l-0.12,0.186l-0.126,0.181l-0.241,0.372l-0.121,0.181l-0.12,0.186l-0.121,0.181l-0.115,0.186l-0.12,0.181l-0.115,0.18l-0.121,0.181l-0.115,0.186l-0.345,0.542l-0.11,0.175l-0.115,0.186l-0.109,0.175l-0.11,0.181l-0.115,0.181l-0.109,0.175l-0.11,0.181l-0.104,0.175l-0.109,0.18l-0.11,0.176l-0.104,0.18l-0.11,0.175l-0.416,0.701l-0.098,0.175l-0.208,0.351l-0.198,0.35l-0.098,0.17l-0.099,0.175l-0.098,0.17l-0.099,0.175l-0.099,0.17l-0.093,0.175l-0.098,0.169l-0.093,0.176l-0.187,0.339l-0.098,0.17l-0.088,0.169l-0.186,0.34l-0.088,0.17l-0.093,0.169l-0.087,0.17l-0.088,0.164l-0.175,0.34l-0.088,0.164l-0.088,0.17l-0.082,0.164l-0.087,0.17l-0.088,0.164l-0.082,0.164l-0.165,0.334l-0.246,0.493l-0.077,0.164l-0.082,0.164l-0.077,0.164l-0.082,0.165l-0.076,0.158l-0.23,0.493l-0.077,0.159l-0.071,0.164l-0.077,0.159l-0.071,0.159l-0.077,0.164l-0.142,0.317l-0.071,0.165l-0.214,0.476l-0.066,0.159l-0.071,0.158l-0.066,0.159l-0.071,0.159l-0.066,0.153l-0.197,0.476l-0.066,0.154l-0.06,0.158l-0.066,0.154l-0.06,0.158l-0.065,0.154l-0.061,0.159l-0.241,0.613l-0.06,0.158l-0.06,0.154l-0.055,0.153l-0.06,0.153l-0.055,0.154l-0.06,0.153l-0.055,0.148l-0.164,0.459l-0.055,0.148l-0.055,0.154l-0.049,0.147l-0.055,0.154l-0.049,0.147l-0.055,0.154l-0.099,0.295l-0.049,0.154l-0.148,0.443l-0.044,0.148l-0.049,0.148l-0.044,0.148l-0.049,0.147l-0.088,0.296l-0.049,0.148l-0.088,0.295l-0.043,0.143l-0.039,0.148l-0.044,0.142l-0.043,0.148l-0.039,0.142l-0.038,0.148l-0.044,0.142l-0.038,0.148l-0.039,0.142l-0.038,0.148l-0.153,0.569l-0.033,0.143l-0.038,0.142l-0.033,0.142l-0.039,0.143l-0.131,0.569l-0.033,0.137l-0.099,0.427l-0.027,0.137l-0.033,0.142l-0.027,0.137l-0.033,0.142l-0.027,0.137l-0.028,0.143l-0.055,0.273l-0.027,0.143l-0.082,0.41l-0.022,0.137l-0.027,0.137l-0.022,0.137l-0.028,0.142l-0.022,0.131l-0.065,0.411l-0.028,0.137l-0.016,0.137l-0.022,0.131l-0.044,0.274l-0.016,0.137l-0.022,0.131l-0.017,0.137l-0.022,0.131l-0.016,0.137l-0.016,0.132l-0.022,0.136l-0.033,0.263l-0.017,0.137l-0.011,0.132l-0.049,0.394l-0.011,0.137l-0.016,0.131l-0.022,0.263l-0.017,0.131l-0.011,0.131l-0.01,0.126l-0.055,0.657l-0.006,0.126l-0.022,0.263l-0.005,0.126l-0.011,0.131l-0.006,0.132l-0.005,0.126l-0.011,0.131l-0.011,0.252l-0.005,0.131l-0.006,0.126l-0.005,0.131l-0.006,0.126l0,0.126l-0.011,0.252l0,0.131l-0.005,0.126l-0,0.126l-0.006,0.126l0,0.504l-0.005,0.126l-0,0.126l0.005,0.126l0,0.498l0.006,0.126l-0,0.126l0.005,0.12l0,0.126l0.006,0.126l0.005,0.12l0,0.126l0.006,0.121l0.005,0.126l0.022,0.492l0.011,0.241l0.033,0.493l0.033,0.482l0.022,0.246l0.016,0.241l0.044,0.482l0.027,0.235l0.022,0.241l0.055,0.482l0.027,0.235l0.033,0.235l0.028,0.236l0.032,0.241l0.066,0.47l0.038,0.236l0.033,0.235l0.039,0.23l0.038,0.236l0.038,0.229l0.039,0.236l0.044,0.235l0.038,0.23l0.087,0.46l0.044,0.235l0.05,0.23l0.043,0.23l0.05,0.225l0.148,0.69l0.054,0.224l0.05,0.23l0.054,0.23l0.055,0.224l0.049,0.225l0.061,0.23l0.109,0.449l0.061,0.224l0.054,0.224l0.181,0.674l0.066,0.224l0.12,0.449l0.066,0.219l0.131,0.449l0.066,0.219l0.066,0.224l0.066,0.219l0.065,0.225l0.072,0.219l0.065,0.224l0.143,0.438l0.065,0.219l0.072,0.219l0.076,0.225l0.214,0.657l0.077,0.219l0.071,0.219l0.153,0.438l0.071,0.218l0.077,0.219l0.077,0.214l0.23,0.657l0.082,0.219l0.077,0.213l0.076,0.219l0.082,0.219l0.077,0.214l0.159,0.438l0.164,0.432l0.159,0.433l0.657,1.73l0.17,0.438l0.164,0.427l0.17,0.438l0.668,1.729l0.34,0.865l0.17,0.438l0.164,0.433l0.17,0.438l0.164,0.432l0.17,0.438l0.164,0.438l0.165,0.433l0.328,0.876l0.165,0.443l0.076,0.219l0.165,0.438l0.076,0.219l0.082,0.224l0.077,0.219l0.082,0.225l0.077,0.219l0.077,0.224l0.082,0.219l0.076,0.225l0.077,0.219l0.23,0.673l0.071,0.224l0.077,0.219l0.071,0.225l0.077,0.224l0.071,0.225l0.077,0.23l0.285,0.897l0.071,0.23l0.066,0.225l0.071,0.23l0.065,0.23l0.072,0.224l0.328,1.15l0.061,0.224l0.065,0.236l0.121,0.459l0.065,0.236l0.055,0.23l0.06,0.235l0.061,0.23l0.06,0.236l0.329,1.412l0.098,0.471l0.055,0.241l0.044,0.235l0.098,0.482l0.044,0.241l0.049,0.24l0.132,0.723l0.038,0.241l0.044,0.246l0.038,0.241l0.039,0.247l0.038,0.24l0.033,0.247l0.038,0.246l0.099,0.739l0.027,0.252l0.033,0.246l0.028,0.252l0.027,0.247l0.027,0.251l0.022,0.252l0.028,0.252l0.043,0.504l0.017,0.257l0.022,0.252l0.016,0.257l0.017,0.252l0.016,0.257l0.011,0.257l0.016,0.258l0.011,0.257l0.011,0.263l0,0.126l0.011,0.263l0,0.131l0.006,0.126l0.005,0.131l0,0.263l0.006,0.131l-0,1.188l-0.006,0.132l0,0.137l-0.005,0.131l-0,0.131l-0.006,0.137l0,0.132l-0.005,0.131l-0.011,0.274l-0.006,0.131l-0.005,0.137l-0.006,0.131l-0.011,0.274l-0.01,0.131l-0.011,0.274l-0.011,0.137l-0.006,0.137l-0.022,0.274l-0.005,0.136l-0.055,0.685l-0.016,0.137l-0.011,0.142l-0.011,0.137l-0.017,0.137l-0.011,0.137l-0.016,0.142l-0.011,0.137l-0.017,0.142l-0.016,0.137l-0.016,0.142l-0.017,0.137l-0.033,0.285l-0.016,0.137l-0.017,0.142l-0.021,0.142l-0.017,0.143l-0.022,0.136l-0.016,0.143l-0.044,0.284l-0.016,0.143l-0.088,0.569l-0.028,0.148l-0.043,0.285l-0.028,0.142l-0.022,0.148l-0.054,0.284l-0.022,0.148l-0.028,0.143l-0.054,0.295l-0.028,0.143l-0.027,0.147l-0.033,0.148l-0.027,0.143l-0.033,0.147l-0.028,0.148l-0.033,0.148l-0.027,0.148l-0.033,0.142l-0.066,0.296l-0.032,0.153l-0.066,0.296l-0.038,0.147l-0.033,0.148l-0.039,0.153l-0.033,0.148l-0.038,0.148l-0.033,0.153l-0.038,0.148l-0.038,0.153l-0.039,0.148l-0.038,0.154l-0.038,0.147l-0.044,0.154l-0.039,0.153l-0.038,0.148l-0.088,0.306l-0.038,0.154l-0.263,0.919l-0.049,0.154l-0.044,0.158l-0.049,0.154l-0.044,0.153l-0.049,0.153l-0.099,0.318l-0.099,0.306l-0.098,0.318l-0.055,0.153l-0.049,0.159l-0.055,0.159l-0.049,0.158l-0.329,0.953l-0.06,0.159l-0.055,0.158l-0.06,0.159l-0.055,0.164l-0.12,0.318l-0.061,0.164l-0.06,0.159l-0.06,0.164l-0.06,0.159l-0.066,0.164l-0.06,0.164l-0.066,0.159l-0.06,0.164l-0.395,0.986l-0.071,0.164l-0.066,0.164l-0.071,0.164l-0.066,0.17l-0.142,0.329l-0.071,0.169l-0.071,0.165l-0.072,0.169l-0.076,0.17l-0.071,0.164l-0.072,0.17l-0.076,0.164l-0.537,1.188l-0.082,0.17l-0.077,0.17l-0.082,0.175l-0.164,0.339l-0.083,0.175l-0.082,0.17l-0.164,0.35l-0.088,0.17l-0.082,0.175l-0.087,0.175l-0.088,0.17l-0.438,0.876l-0.186,0.35l-0.088,0.176l-0.093,0.18l-0.186,0.351l-0.187,0.361l-0.098,0.175l-0.093,0.181l-0.099,0.175l-0.099,0.181l-0.093,0.18l-0.197,0.362l-0.104,0.18l-0.197,0.362l-0.104,0.18l-0.099,0.181l-0.104,0.18l-0.104,0.187l-0.208,0.361l-0.104,0.186l-0.11,0.181l-0.104,0.186l-0.109,0.18l-0.11,0.187l-0.104,0.186l-0.219,0.372l-0.115,0.186l-0.109,0.181l-0.11,0.191l-0.345,0.559l-0.11,0.186l-0.115,0.192l-0.12,0.186l-0.115,0.191l-0.115,0.186l-0.121,0.192l-0.12,0.186l-0.115,0.192l-0.241,0.383l-0.126,0.192l-0.121,0.186l-0.12,0.197l-0.252,0.383l-0.121,0.192l-0.126,0.191l-0.125,0.197l-0.132,0.192l-0.126,0.191l-0.126,0.198l-0.131,0.191l-0.126,0.197l-0.132,0.197l-0.131,0.192l-0.132,0.197l-0.137,0.197l-0.262,0.394l-0.274,0.394l-0.137,0.203l-0.006,0.005l0.006,0.006l0.137,0.202l0.274,0.395l0.262,0.394l0.137,0.197l0.132,0.197l0.131,0.192l0.132,0.197l0.126,0.197l0.131,0.191l0.126,0.197l0.132,0.192l0.126,0.197l0.251,0.383l0.121,0.192l0.126,0.191l0.126,0.198l0.12,0.186l0.121,0.191l0.126,0.192l0.241,0.383l0.115,0.192l0.12,0.186l0.121,0.191l0.115,0.187l0.115,0.191l0.12,0.186l0.115,0.192l0.11,0.186l0.23,0.372l0.115,0.192l0.11,0.181l0.109,0.186l0.115,0.186l0.219,0.372l0.104,0.186l0.11,0.186l0.109,0.181l0.104,0.186l0.11,0.181l0.104,0.186l0.208,0.361l0.104,0.186l0.104,0.181l0.099,0.181l0.104,0.18l0.197,0.362l0.104,0.18l0.197,0.362l0.093,0.18l0.099,0.181l0.099,0.175l0.093,0.181l0.098,0.18l0.187,0.351l0.093,0.18l0.186,0.351l0.088,0.18l0.186,0.351l0.438,0.876l0.088,0.169l0.087,0.176l0.082,0.175l0.088,0.175l0.082,0.17l0.082,0.175l0.165,0.339l0.082,0.175l0.082,0.17l0.082,0.175l0.077,0.17l0.082,0.17l0.46,1.018l0.077,0.164l0.076,0.17l0.072,0.17l0.071,0.164l0.076,0.17l0.072,0.169l0.142,0.329l0.071,0.169l0.071,0.165l0.066,0.164l0.071,0.17l0.066,0.164l0.071,0.164l0.395,0.985l0.06,0.165l0.066,0.158l0.06,0.165l0.066,0.164l0.06,0.159l0.06,0.164l0.06,0.159l0.061,0.164l0.12,0.317l0.055,0.165l0.06,0.158l0.055,0.159l0.06,0.159l0.329,0.952l0.049,0.159l0.055,0.159l0.049,0.159l0.055,0.153l0.098,0.318l0.099,0.306l0.099,0.318l0.049,0.153l0.044,0.153l0.049,0.153l0.044,0.159l0.049,0.153l0.263,0.92l0.038,0.153l0.088,0.307l0.038,0.148l0.039,0.153l0.044,0.153l0.038,0.148l0.038,0.153l0.039,0.148l0.038,0.154l0.038,0.147l0.033,0.154l0.038,0.147l0.033,0.148l0.039,0.154l0.033,0.147l0.038,0.148l0.066,0.296l0.032,0.153l0.066,0.296l0.033,0.142l0.027,0.148l0.033,0.148l0.028,0.147l0.033,0.148l0.027,0.143l0.033,0.147l0.027,0.148l0.028,0.143l0.054,0.295l0.028,0.143l0.022,0.147l0.054,0.285l0.022,0.148l0.028,0.142l0.043,0.285l0.028,0.148l0.088,0.569l0.016,0.142l0.044,0.285l0.016,0.142l0.022,0.137l0.017,0.143l0.021,0.142l0.017,0.142l0.016,0.137l0.033,0.285l0.017,0.137l0.016,0.142l0.016,0.137l0.017,0.142l0.011,0.137l0.016,0.142l0.011,0.137l0.017,0.137l0.011,0.142l0.011,0.137l0.016,0.137l0.055,0.684l0.005,0.137l0.011,0.143l0.011,0.131l0.006,0.137l0.011,0.137l0.011,0.273l0.01,0.132l0.011,0.273l0.006,0.132l0.005,0.137l0.006,0.131l0.011,0.274l0.005,0.131l0,0.132l0.006,0.136l-0,0.132l0.005,0.131l0,0.137l0.006,0.131l-0,1.188l-0.006,0.132l0,0.263l-0.005,0.131l-0.006,0.126l0,0.131l-0.011,0.263l0,0.126l-0.011,0.263l-0.011,0.257l-0.016,0.257l-0.011,0.258l-0.016,0.257l-0.017,0.252l-0.016,0.257l-0.022,0.252l-0.017,0.257l-0.043,0.504l-0.028,0.252l-0.022,0.251l-0.027,0.252l-0.027,0.247l-0.028,0.251l-0.033,0.247l-0.027,0.252l-0.099,0.739l-0.038,0.246l-0.033,0.246l-0.038,0.241l-0.039,0.247l-0.038,0.24l-0.044,0.247l-0.038,0.241l-0.132,0.722l-0.049,0.241l-0.044,0.241l-0.098,0.482l-0.044,0.235l-0.055,0.236l-0.049,0.24l-0.049,0.236l-0.055,0.235l-0.055,0.241l-0.055,0.23l-0.164,0.706l-0.06,0.236l-0.061,0.23l-0.06,0.235l-0.055,0.23l-0.065,0.235l-0.121,0.46l-0.065,0.23l-0.061,0.23l-0.328,1.15l-0.072,0.224l-0.065,0.23l-0.071,0.23l-0.066,0.224l-0.071,0.23l-0.214,0.674l-0.071,0.23l-0.077,0.224l-0.071,0.224l-0.077,0.225l-0.071,0.224l-0.077,0.219l-0.071,0.225l-0.23,0.673l-0.077,0.219l-0.076,0.225l-0.082,0.219l-0.077,0.224l-0.077,0.219l-0.082,0.224l-0.077,0.219l-0.082,0.219l-0.076,0.225l-0.165,0.438l-0.076,0.219l-0.165,0.443l-0.493,1.314l-0.164,0.433l-0.17,0.438l-0.164,0.432l-0.17,0.438l-0.164,0.432l-0.17,0.438l-0.34,0.865l-0.334,0.865l-0.334,0.871l-0.17,0.427l-0.164,0.438l-0.17,0.432l-0.657,1.73l-0.159,0.433l-0.164,0.432l-0.159,0.438l-0.077,0.213l-0.082,0.219l-0.076,0.219l-0.077,0.214l-0.082,0.219l-0.23,0.657l-0.077,0.213l-0.077,0.219l-0.071,0.219l-0.153,0.438l-0.071,0.219l-0.077,0.219l-0.214,0.657l-0.076,0.225l-0.072,0.219l-0.065,0.219l-0.143,0.437l-0.065,0.225l-0.072,0.219l-0.065,0.224l-0.066,0.219l-0.066,0.225l-0.066,0.219l-0.131,0.449l-0.066,0.219l-0.12,0.449l-0.066,0.224l-0.181,0.673l-0.054,0.225l-0.061,0.224l-0.109,0.449l-0.061,0.23l-0.049,0.225l-0.055,0.229l-0.054,0.225l-0.05,0.224l-0.054,0.23l-0.148,0.69l-0.05,0.224l-0.043,0.23l-0.05,0.236l-0.131,0.69l-0.038,0.23l-0.044,0.235l-0.039,0.23l-0.076,0.471l-0.039,0.23l-0.033,0.235l-0.038,0.235l-0.098,0.707l-0.028,0.24l-0.033,0.236l-0.027,0.241l-0.027,0.235l-0.028,0.241l-0.022,0.241l-0.027,0.235l-0.044,0.482l-0.016,0.241l-0.022,0.246l-0.033,0.482l-0.017,0.246l-0.016,0.241l-0.033,0.739l-0.005,0.126l-0.006,0.121l0,0.126l-0.005,0.12l-0.006,0.126l0,0.126l-0.005,0.12l-0,0.126l-0.006,0.126l0,0.498l-0.005,0.126l-0,0.126l0.005,0.126l0,0.504l0.006,0.125l-0,0.126l0.005,0.126l0,0.132l0.011,0.252l0,0.125l0.006,0.126l0.005,0.132l0.006,0.126l0.005,0.131l0.011,0.252l0.011,0.131l0.005,0.126l0.006,0.132l0.011,0.131l0.005,0.126l0.022,0.263l0.006,0.126l0.055,0.656l0.01,0.126l0.011,0.132l0.017,0.131l0.022,0.263l0.016,0.131l0.011,0.137l0.049,0.394l0.011,0.132l0.017,0.137l0.016,0.131l0.017,0.137l0.022,0.131l0.016,0.132l0.016,0.136l0.022,0.132l0.017,0.137l0.022,0.131l0.016,0.137l0.044,0.274l0.022,0.131l0.016,0.137l0.028,0.137l0.065,0.41l0.022,0.132l0.028,0.142l0.022,0.137l0.027,0.137l0.022,0.137l0.082,0.41l0.027,0.143l0.055,0.273l0.028,0.143l0.027,0.136l0.033,0.143l0.027,0.137l0.033,0.142l0.027,0.137l0.099,0.427l0.033,0.137l0.131,0.569l0.039,0.142l0.033,0.143l0.038,0.142l0.033,0.142l0.153,0.57l0.038,0.148l0.039,0.142l0.038,0.148l0.044,0.142l0.038,0.142l0.039,0.148l0.043,0.148l0.044,0.142l0.039,0.148l0.043,0.148l0.044,0.142l0.044,0.148l0.049,0.148l0.088,0.295l0.049,0.148l0.044,0.148l0.049,0.148l0.044,0.148l0.197,0.591l0.05,0.153l0.054,0.148l0.05,0.153l0.049,0.148l0.055,0.153l0.049,0.148l0.055,0.154l0.055,0.147l0.164,0.46l0.055,0.148l0.06,0.159l0.055,0.148l0.06,0.153l0.055,0.153l0.06,0.159l0.301,0.766l0.061,0.159l0.065,0.153l0.06,0.159l0.066,0.153l0.06,0.159l0.066,0.153l0.197,0.477l0.066,0.153l0.071,0.159l0.066,0.158l0.071,0.159l0.066,0.159l0.214,0.476l0.071,0.165l0.142,0.317l0.077,0.164l0.071,0.159l0.077,0.159l0.071,0.164l0.077,0.164l0.076,0.159l0.154,0.328l0.076,0.159l0.082,0.164l0.077,0.165l0.082,0.164l0.077,0.164l0.246,0.493l0.165,0.334l0.082,0.164l0.088,0.164l0.087,0.17l0.082,0.164l0.088,0.17l0.088,0.164l0.175,0.34l0.088,0.164l0.087,0.169l0.093,0.17l0.088,0.17l0.186,0.339l0.088,0.17l0.093,0.17l0.098,0.169l0.094,0.176l0.093,0.169l0.098,0.17l0.093,0.175l0.099,0.17l0.099,0.175l0.098,0.17l0.099,0.175l0.098,0.17l0.198,0.35l0.208,0.35l0.098,0.176l0.416,0.7l0.11,0.181l0.104,0.175l0.11,0.175l0.109,0.181l0.104,0.175l0.11,0.181l0.109,0.175l0.115,0.181l0.219,0.361l0.115,0.175l0.11,0.181l0.345,0.542l0.115,0.186l0.121,0.181l0.115,0.18l0.12,0.181l0.115,0.186l0.121,0.181l0.12,0.186l0.121,0.18l0.12,0.187l0.121,0.18l0.126,0.186l0.12,0.186l0.756,1.117l0.131,0.192l0.126,0.186l0.132,0.186l0.131,0.192l0.132,0.186l0.131,0.191l0.132,0.187l0.131,0.191l0.274,0.383l0.131,0.192l0.137,0.186l0.137,0.197l0.137,0.192l0.143,0.191l0.136,0.192l0.143,0.192l0.137,0.191l0.142,0.197l0.143,0.192l0.142,0.197l0.142,0.192l0.148,0.197l0.143,0.197l0.148,0.197l0.142,0.191l0.444,0.592l0.153,0.197l0.148,0.202l0.153,0.197l0.148,0.197l0.153,0.198l0.154,0.202l0.153,0.197l0.159,0.203l0.153,0.202l0.154,0.197l0.159,0.203l4.359,5.578l-0.597,0.509l-4.809,-5.173l-0.158,-0.17l-0.159,-0.175l-0.165,-0.175l-0.158,-0.175l-0.154,-0.17l-0.159,-0.175l-0.158,-0.17l-0.159,-0.175l-0.154,-0.17l-0.153,-0.175l-0.153,-0.169l-0.159,-0.176l-0.154,-0.169l-0.153,-0.176l-0.148,-0.169l-0.153,-0.17l-0.148,-0.17l-0.153,-0.175l-0.74,-0.848l-0.142,-0.17l-0.148,-0.175l-0.142,-0.17l-0.148,-0.17l-0.143,-0.169l-0.142,-0.165l-0.285,-0.339l-0.137,-0.17l-0.142,-0.169l-0.137,-0.17l-0.143,-0.164l-0.273,-0.34l-0.137,-0.164l-0.274,-0.339l-0.132,-0.165l-0.137,-0.169l-0.131,-0.165l-0.137,-0.169l-0.263,-0.329l-0.131,-0.169l-0.132,-0.165l-0.126,-0.169l-0.263,-0.329l-0.126,-0.164l-0.126,-0.17l-0.126,-0.164l-0.131,-0.164l-0.121,-0.165l-0.377,-0.492l-0.121,-0.17l-0.12,-0.159l-0.126,-0.164l-0.482,-0.657l-0.115,-0.164l-0.121,-0.164l-0.12,-0.159l-0.346,-0.493l-0.12,-0.159l-0.115,-0.164l-0.11,-0.164l-0.115,-0.159l-0.115,-0.164l-0.109,-0.159l-0.115,-0.164l-0.11,-0.159l-0.109,-0.164l-0.11,-0.159l-0.109,-0.164l-0.219,-0.317l-0.11,-0.165l-0.104,-0.158l-0.11,-0.159l-0.104,-0.159l-0.104,-0.164l-0.109,-0.159l-0.104,-0.159l-0.099,-0.158l-0.312,-0.477l-0.099,-0.159l-0.104,-0.158l-0.69,-1.112l-0.093,-0.158l-0.099,-0.159l-0.093,-0.153l-0.093,-0.159l-0.098,-0.159l-0.093,-0.153l-0.187,-0.318l-0.093,-0.153l-0.087,-0.159l-0.094,-0.153l-0.087,-0.159l-0.093,-0.159l-0.176,-0.306l-0.087,-0.159l-0.088,-0.153l-0.087,-0.159l-0.176,-0.306l-0.082,-0.159l-0.088,-0.154l-0.082,-0.153l-0.087,-0.153l-0.082,-0.159l-0.411,-0.766l-0.077,-0.159l-0.082,-0.153l-0.077,-0.154l-0.082,-0.153l-0.383,-0.766l-0.077,-0.148l-0.077,-0.153l-0.071,-0.154l-0.077,-0.153l-0.071,-0.153l-0.076,-0.148l-0.214,-0.46l-0.071,-0.148l-0.071,-0.153l-0.072,-0.148l-0.071,-0.153l-0.066,-0.153l-0.071,-0.148l-0.066,-0.153l-0.071,-0.148l-0.065,-0.154l-0.066,-0.147l-0.066,-0.154l-0.066,-0.147l-0.065,-0.154l-0.132,-0.295l-0.06,-0.154l-0.066,-0.147l-0.06,-0.148l-0.06,-0.154l-0.066,-0.147l-0.121,-0.296l-0.06,-0.153l-0.18,-0.444l-0.055,-0.147l-0.121,-0.296l-0.109,-0.296l-0.061,-0.148l-0.273,-0.739l-0.05,-0.147l-0.054,-0.148l-0.05,-0.143l-0.109,-0.295l-0.099,-0.296l-0.049,-0.142l-0.148,-0.443l-0.049,-0.143l-0.099,-0.295l-0.044,-0.143l-0.049,-0.148l-0.044,-0.142l-0.049,-0.148l-0.044,-0.142l-0.044,-0.148l-0.044,-0.142l-0.043,-0.148l-0.044,-0.142l-0.044,-0.148l-0.088,-0.285l-0.038,-0.148l-0.044,-0.142l-0.038,-0.148l-0.044,-0.142l-0.077,-0.285l-0.044,-0.148l-0.115,-0.427l-0.038,-0.147l-0.033,-0.143l-0.076,-0.284l-0.033,-0.143l-0.039,-0.142l-0.032,-0.142l-0.039,-0.143l-0.296,-1.281l-0.027,-0.142l-0.033,-0.142l-0.027,-0.137l-0.033,-0.143l-0.055,-0.284l-0.033,-0.137l-0.082,-0.427l-0.027,-0.137l-0.028,-0.142l-0.022,-0.143l-0.027,-0.137l-0.027,-0.142l-0.022,-0.142l-0.028,-0.137l-0.022,-0.142l-0.027,-0.137l-0.022,-0.143l-0.022,-0.136l-0.027,-0.143l-0.022,-0.137l-0.022,-0.142l-0.044,-0.274l-0.016,-0.142l-0.022,-0.142l-0.022,-0.137l-0.016,-0.137l-0.022,-0.142l-0.022,-0.137l-0.033,-0.274l-0.022,-0.142l-0.016,-0.137l-0.033,-0.279l-0.066,-0.548l-0.033,-0.279l-0.082,-0.821l-0.022,-0.274l-0.027,-0.274l-0.044,-0.547l-0.017,-0.274l-0.022,-0.274l-0.016,-0.268l-0.016,-0.274l-0.011,-0.268l-0.017,-0.273l-0.011,-0.269l-0.011,-0.273l-0.011,-0.269l-0.005,-0.268l-0.011,-0.274l-0.011,-0.536l-0,-0.268l-0.005,-0.269l-0,-1.067l0.01,-0.537l0.006,-0.262l0.005,-0.269l0.006,-0.262l0.011,-0.269l0.005,-0.262l0.011,-0.269l0.011,-0.262l0.017,-0.263l0.011,-0.268l0.082,-1.314l0.087,-1.051l0.022,-0.258l0.022,-0.262l0.028,-0.263l0.027,-0.258l0.027,-0.262l0.028,-0.258l0.027,-0.262l0.028,-0.258l0.032,-0.262l0.028,-0.258l0.033,-0.263l0.065,-0.514l0.039,-0.257l0.033,-0.263l0.038,-0.257l0.033,-0.258l0.153,-1.029l0.082,-0.515l0.082,-0.509l0.132,-0.772l0.093,-0.509l0.044,-0.257l0.049,-0.252l0.044,-0.257l0.049,-0.252l0.099,-0.509l0.049,-0.257l0.104,-0.509l0.099,-0.504l0.055,-0.257l0.104,-0.504l0.054,-0.252l0.055,-0.257l0.11,-0.504l0.115,-0.503l0.109,-0.51l0.115,-0.503l0.121,-0.504l0.055,-0.252l0.301,-1.259l0.126,-0.498l0.12,-0.504l0.126,-0.503l0.126,-0.498l0.126,-0.504l0.126,-0.498l0.126,-0.504l0.132,-0.498l0.126,-0.498l0.131,-0.504l0.131,-0.498l0.395,-1.5l0.526,-1.998l0.263,-1.002l0.262,-0.996l0.126,-0.504l0.263,-0.996l0.126,-0.504l0.252,-0.996l0.252,-1.008l0.126,-0.498l0.121,-0.503l0.12,-0.499l0.301,-1.259l0.055,-0.252l0.06,-0.251l0.115,-0.504l0.055,-0.252l0.06,-0.252l0.274,-1.259l0.055,-0.257l0.104,-0.504l0.055,-0.252l0.104,-0.509l0.099,-0.503l0.098,-0.509l0.049,-0.252l0.094,-0.515l0.049,-0.252l0.044,-0.257l0.049,-0.252l0.088,-0.509l0.087,-0.515l0.044,-0.251l0.082,-0.515l0.039,-0.257l0.082,-0.509l0.033,-0.258l0.115,-0.772l0.065,-0.514l0.039,-0.257l0.032,-0.263l0.028,-0.258l0.066,-0.514l0.027,-0.263l0.027,-0.257l0.033,-0.257l0.028,-0.263l0.049,-0.52l0.027,-0.258l0.044,-0.525l0.022,-0.257l0.044,-0.526l0.033,-0.526l0.022,-0.262l0.027,-0.526l0.016,-0.263l0.011,-0.262l0.017,-0.263l0.022,-0.526l0.005,-0.268l0.011,-0.263l0.006,-0.268l0.011,-0.526l0.011,-0.536l-0,-1.068l-0.006,-0.268l0,-0.268l-0.016,-0.805l-0.022,-0.536l-0.011,-0.274l-0.022,-0.536l-0.033,-0.548l-0.016,-0.268l-0.017,-0.274l-0.022,-0.274l-0.016,-0.268l-0.044,-0.547l-0.082,-0.821l-0.028,-0.28l-0.027,-0.273l-0.033,-0.274l-0.033,-0.279l-0.033,-0.274l-0.032,-0.279l-0.022,-0.137l-0.017,-0.137l-0.016,-0.142l-0.022,-0.137l-0.017,-0.142l-0.043,-0.274l-0.017,-0.142l-0.022,-0.137l-0.022,-0.143l-0.043,-0.273l-0.044,-0.285l-0.028,-0.137l-0.022,-0.142l-0.021,-0.137l-0.022,-0.142l-0.028,-0.137l-0.027,-0.143l-0.022,-0.142l-0.027,-0.137l-0.028,-0.142l-0.022,-0.143l-0.054,-0.284l-0.028,-0.137l-0.055,-0.285l-0.032,-0.142l-0.028,-0.137l-0.027,-0.142l-0.033,-0.148l-0.028,-0.137l-0.032,-0.142l-0.028,-0.143l-0.098,-0.427l-0.033,-0.147l-0.033,-0.137l-0.033,-0.143l-0.033,-0.147l-0.066,-0.285l-0.038,-0.142l-0.033,-0.143l-0.038,-0.148l-0.033,-0.142l-0.077,-0.285l-0.032,-0.142l-0.039,-0.148l-0.038,-0.142l-0.038,-0.148l-0.039,-0.142l-0.044,-0.143l-0.038,-0.147l-0.038,-0.143l-0.044,-0.147l-0.038,-0.143l-0.044,-0.142l-0.039,-0.148l-0.043,-0.148l-0.044,-0.142l-0.044,-0.148l-0.044,-0.142l-0.088,-0.296l-0.043,-0.142l-0.088,-0.296l-0.049,-0.148l-0.044,-0.142l-0.099,-0.296l-0.043,-0.147l-0.148,-0.444l-0.05,-0.142l-0.049,-0.148l-0.049,-0.153l-0.055,-0.143l-0.099,-0.295l-0.054,-0.153l-0.055,-0.148l-0.049,-0.148l-0.22,-0.591l-0.054,-0.154l-0.055,-0.147l-0.06,-0.148l-0.055,-0.153l-0.055,-0.148l-0.06,-0.148l-0.06,-0.153l-0.055,-0.148l-0.06,-0.153l-0.121,-0.296l-0.12,-0.307l-0.061,-0.147l-0.065,-0.154l-0.061,-0.148l-0.065,-0.153l-0.061,-0.153l-0.065,-0.148l-0.066,-0.153l-0.06,-0.154l-0.066,-0.153l-0.066,-0.148l-0.065,-0.153l-0.072,-0.153l-0.131,-0.307l-0.071,-0.153l-0.066,-0.153l-0.071,-0.148l-0.071,-0.153l-0.066,-0.154l-0.143,-0.306l-0.071,-0.159l-0.076,-0.153l-0.143,-0.307l-0.077,-0.153l-0.071,-0.153l-0.076,-0.159l-0.077,-0.153l-0.071,-0.154l-0.077,-0.153l-0.082,-0.159l-0.077,-0.153l-0.076,-0.159l-0.077,-0.153l-0.077,-0.159l-0.082,-0.153l-0.077,-0.159l-0.082,-0.153l-0.082,-0.159l-0.082,-0.153l-0.164,-0.318l-0.083,-0.153l-0.082,-0.159l-0.087,-0.159l-0.083,-0.153l-0.087,-0.159l-0.082,-0.158l-0.526,-0.953l-0.077,-0.131l-0.224,-0.323l0.022,-0.039l-0.022,-0.038l0.224,-0.323l0.077,-0.131l0.526,-0.953l0.169,-0.317l0.083,-0.154l0.169,-0.317l0.329,-0.624l0.082,-0.159l0.477,-0.936l0.153,-0.307l0.148,-0.312l0.153,-0.312l0.071,-0.153l0.148,-0.307l0.072,-0.153l0.147,-0.312l0.143,-0.307l0.274,-0.613l0.071,-0.147l0.131,-0.307l0.072,-0.153l0.131,-0.301l0.131,-0.307l0.126,-0.301l0.126,-0.307l0.126,-0.301l0.061,-0.148l0.241,-0.602l0.115,-0.301l0.06,-0.153l0.06,-0.148l0.055,-0.148l0.115,-0.301l0.109,-0.301l0.165,-0.443l0.104,-0.296l0.109,-0.301l0.05,-0.148l0.104,-0.29l0.098,-0.301l0.05,-0.142l0.148,-0.444l0.093,-0.295l0.093,-0.291l0.049,-0.147l0.088,-0.296l0.043,-0.142l0.132,-0.438l0.088,-0.29l0.126,-0.438l0.082,-0.291l0.038,-0.142l0.121,-0.432l0.115,-0.438l0.142,-0.57l0.071,-0.29l0.038,-0.142l0.066,-0.285l0.066,-0.29l0.164,-0.712l0.06,-0.284l0.088,-0.422l0.028,-0.142l0.032,-0.142l0.055,-0.285l0.028,-0.137l0.027,-0.142l0.049,-0.285l0.055,-0.279l0.077,-0.422l0.043,-0.279l0.05,-0.285l0.022,-0.136l0.044,-0.28l0.021,-0.137l0.022,-0.142l0.039,-0.279l0.022,-0.137l0.076,-0.558l0.017,-0.137l0.022,-0.137l0.032,-0.279l0.033,-0.274l0.033,-0.279l0.033,-0.274l0.027,-0.274l0.028,-0.279l0.082,-0.821l0.044,-0.547l0.016,-0.269l0.022,-0.273l0.033,-0.548l0.016,-0.268l0.017,-0.274l0.022,-0.536l0.011,-0.274l0.022,-0.536l0.016,-0.805l0,-0.268l0.006,-0.269l-0,-1.067l-0.011,-0.537l-0.011,-0.525l-0.006,-0.268l-0.011,-0.263l-0.005,-0.268l-0.022,-0.526l-0.017,-0.263l-0.011,-0.263l-0.016,-0.262l-0.011,-0.263l-0.016,-0.268l-0.022,-0.258l-0.033,-0.525l-0.044,-0.526l-0.022,-0.257l-0.044,-0.526l-0.027,-0.257l-0.027,-0.263l-0.022,-0.257l-0.028,-0.257l-0.033,-0.263l-0.027,-0.257l-0.027,-0.263l-0.066,-0.515l-0.028,-0.257l-0.032,-0.263l-0.039,-0.257l-0.065,-0.515l-0.115,-0.772l-0.033,-0.257l-0.044,-0.257l-0.038,-0.252l-0.039,-0.257l-0.044,-0.258l-0.038,-0.257l-0.044,-0.252l-0.087,-0.514l-0.044,-0.252l-0.044,-0.257l-0.049,-0.252l-0.044,-0.257l-0.049,-0.252l-0.044,-0.258l-0.05,-0.251l-0.049,-0.258l-0.049,-0.252l-0.049,-0.257l-0.099,-0.504l-0.055,-0.257l-0.049,-0.252l-0.055,-0.251l-0.049,-0.252l-0.055,-0.252l-0.055,-0.257l-0.274,-1.26l-0.06,-0.251l-0.055,-0.252l-0.06,-0.252l-0.055,-0.252l-0.06,-0.252l-0.055,-0.251l-0.241,-1.008l-0.06,-0.246l-0.241,-1.007l-0.126,-0.499l-0.252,-1.007l-0.252,-0.996l-0.126,-0.504l-0.263,-0.996l-0.126,-0.504l-0.262,-0.996l-0.263,-1.002l-0.526,-1.998l-0.263,-0.996l-0.132,-0.504l-0.262,-0.996l-0.126,-0.504l-0.132,-0.498l-0.126,-0.504l-0.126,-0.498l-0.126,-0.504l-0.126,-0.498l-0.126,-0.504l-0.12,-0.503l-0.126,-0.504l-0.06,-0.246l-0.241,-1.007l-0.055,-0.252l-0.121,-0.504l-0.054,-0.252l-0.061,-0.252l-0.055,-0.251l-0.054,-0.258l-0.061,-0.252l-0.164,-0.755l-0.055,-0.257l-0.054,-0.252l-0.05,-0.252l-0.054,-0.252l-0.055,-0.257l-0.099,-0.504l-0.055,-0.257l-0.049,-0.252l-0.049,-0.257l-0.049,-0.252l-0.05,-0.257l-0.049,-0.252l-0.044,-0.257l-0.049,-0.252l-0.088,-0.515l-0.049,-0.252l-0.132,-0.772l-0.038,-0.257l-0.044,-0.252l-0.038,-0.257l-0.044,-0.257l-0.153,-1.029l-0.033,-0.258l-0.038,-0.262l-0.033,-0.258l-0.039,-0.257l-0.065,-0.515l-0.033,-0.262l-0.028,-0.258l-0.032,-0.263l-0.028,-0.257l-0.027,-0.263l-0.028,-0.257l-0.027,-0.263l-0.027,-0.257l-0.028,-0.263l-0.044,-0.525l-0.021,-0.258l-0.066,-0.788l-0.082,-1.314l-0.011,-0.268l-0.017,-0.263l-0.011,-0.263l-0.011,-0.268l-0.005,-0.263l-0.011,-0.268l-0.006,-0.263l-0.005,-0.268l-0.006,-0.263l-0.01,-0.536l-0,-1.068l0.005,-0.268l-0,-0.268l0.011,-0.537l0.011,-0.273l0.005,-0.269l0.011,-0.268l0.011,-0.273l0.011,-0.269l0.017,-0.273l0.011,-0.269l0.016,-0.273l0.016,-0.269l0.022,-0.273l0.017,-0.274l0.044,-0.548l0.027,-0.273l0.022,-0.274l0.082,-0.821l0.033,-0.279l0.066,-0.548l0.033,-0.279l0.016,-0.137l0.038,-0.279l0.017,-0.137l0.044,-0.279l0.038,-0.274l0.022,-0.142l0.016,-0.137l0.088,-0.558l0.027,-0.143l0.022,-0.137l0.049,-0.279l0.022,-0.142l0.05,-0.279l0.027,-0.143l0.027,-0.137l0.05,-0.284l0.055,-0.279l0.054,-0.285l0.033,-0.137l0.055,-0.285l0.06,-0.279l0.033,-0.142l0.027,-0.142l0.263,-1.139l0.072,-0.285l0.032,-0.142l0.039,-0.142l0.033,-0.143l0.076,-0.284l0.071,-0.291l0.077,-0.284l0.082,-0.29l0.077,-0.285l0.082,-0.29l0.082,-0.285l0.351,-1.16l0.186,-0.581l0.148,-0.443l0.099,-0.29l0.147,-0.438l0.104,-0.296l0.105,-0.29l0.104,-0.296l0.219,-0.591l0.115,-0.296l0.109,-0.295l0.121,-0.296l0.055,-0.148l0.18,-0.443l0.06,-0.153l0.121,-0.296l0.126,-0.301l0.06,-0.148l0.066,-0.148l0.066,-0.153l0.191,-0.449l0.263,-0.602l0.071,-0.148l0.137,-0.301l0.066,-0.153l0.071,-0.153l0.072,-0.148l0.142,-0.301l0.142,-0.307l0.148,-0.301l0.071,-0.153l0.148,-0.307l0.154,-0.301l0.383,-0.766l0.082,-0.154l0.159,-0.306l0.077,-0.159l0.411,-0.766l0.251,-0.466l0.17,-0.312l0.176,-0.306l0.169,-0.312l0.093,-0.159l0.176,-0.312l0.361,-0.624l0.28,-0.471l0.186,-0.312l0.191,-0.318l0.192,-0.312l0.592,-0.952l0.405,-0.635l0.104,-0.159l0.203,-0.317l0.213,-0.318l0.208,-0.323l0.214,-0.318l0.11,-0.164l0.219,-0.317l0.109,-0.164l0.219,-0.323l0.225,-0.323l0.109,-0.159l0.23,-0.323l0.225,-0.329l0.236,-0.323l0.23,-0.328l0.241,-0.323l0.235,-0.329l0.362,-0.492l0.492,-0.657l0.63,-0.821l0.252,-0.334l0.263,-0.329l0.126,-0.169l0.263,-0.334l0.263,-0.329l0.137,-0.17l0.131,-0.164l0.137,-0.17l0.269,-0.333l0.137,-0.17l0.137,-0.164l0.136,-0.17l0.417,-0.504l0.279,-0.339l0.285,-0.34l0.142,-0.164l0.143,-0.17l0.148,-0.175l0.29,-0.334l0.29,-0.345l0.592,-0.678l0.301,-0.345l0.301,-0.34l0.153,-0.175l0.154,-0.17l0.153,-0.175l0.159,-0.169l0.153,-0.176l0.625,-0.689l0.317,-0.345l0.165,-0.175l0.317,-0.345l4.809,-5.174l0.603,0.515Zm-21.229,157.148l0.054,0.154l0.061,0.153l0.109,0.306l0.06,0.148l0.165,0.46l0.054,0.148l0.055,0.153l0.05,0.153l0.054,0.148l0.055,0.154l0.049,0.153l0.055,0.148l0.049,0.147l0.099,0.307l0.099,0.296l0.049,0.153l0.049,0.148l0.049,0.153l0.05,0.148l0.044,0.148l0.049,0.153l0.044,0.148l0.049,0.148l0.044,0.153l0.175,0.591l0.044,0.153l0.044,0.143l0.038,0.153l0.088,0.296l0.038,0.147l0.044,0.148l0.115,0.444l0.038,0.142l0.044,0.153l0.033,0.143l0.115,0.443l0.033,0.148l0.038,0.142l0.038,0.148l0.066,0.296l0.038,0.142l0.099,0.443l0.033,0.143l0.033,0.147l0.033,0.143l0.033,0.148l0.027,0.142l0.033,0.148l0.027,0.142l0.033,0.148l0.027,0.142l0.033,0.148l0.028,0.142l0.027,0.148l0.027,0.143l0.028,0.147l0.082,0.427l0.027,0.148l0.028,0.142l0.022,0.143l0.027,0.142l0.022,0.148l0.027,0.142l0.044,0.285l0.028,0.142l0.021,0.143l0.022,0.147l0.088,0.57l0.016,0.142l0.044,0.285l0.017,0.137l0.022,0.142l0.016,0.142l0.022,0.143l0.033,0.284l0.038,0.285l0.033,0.279l0.027,0.285l0.033,0.279l0.028,0.279l0.027,0.285l0.055,0.558l0.065,0.838l0.017,0.279l0.022,0.279l0.016,0.279l0.017,0.274l0.011,0.279l0.016,0.274l0.011,0.279l0.011,0.274l0.011,0.279l0.005,0.274l0.011,0.274l0.011,0.547l0,0.279l0.006,0.269l-0,1.094l-0.006,0.269l-0.011,0.547l-0.011,0.537l-0.011,0.273l-0.005,0.269l-0.022,0.536l-0.016,0.274l-0.011,0.268l-0.033,0.537l-0.017,0.262l-0.016,0.269l-0.022,0.268l-0.016,0.268l-0.022,0.268l-0.022,0.263l-0.022,0.268l-0.022,0.263l-0.027,0.268l-0.022,0.263l-0.028,0.263l-0.027,0.268l-0.082,0.788l-0.033,0.269l-0.033,0.262l-0.027,0.263l-0.033,0.263l-0.039,0.263l-0.032,0.263l-0.033,0.257l-0.039,0.263l-0.032,0.262l-0.039,0.263l-0.038,0.257l-0.038,0.263l-0.044,0.257l-0.039,0.263l-0.038,0.258l-0.044,0.262l-0.044,0.258l-0.043,0.262l-0.039,0.258l-0.049,0.257l-0.044,0.257l-0.044,0.263l-0.049,0.257l-0.044,0.258l-0.098,0.514l-0.044,0.258l-0.099,0.514l-0.055,0.257l-0.098,0.515l-0.055,0.252l-0.049,0.257l-0.11,0.515l-0.055,0.252l-0.049,0.257l-0.055,0.252l-0.06,0.257l-0.055,0.257l-0.054,0.252l-0.055,0.257l-0.06,0.252l-0.055,0.252l-0.06,0.257l-0.055,0.252l-0.06,0.257l-0.181,0.756l-0.06,0.257l-0.241,1.008l-0.126,0.509l-0.121,0.503l-0.252,1.008l-0.126,0.498l-0.131,0.503l-0.126,0.504l-0.132,0.504l-0.131,0.498l-0.132,0.503l-0.126,0.499l-0.131,0.503l-0.263,0.997l-0.526,1.998l-0.263,1.002l-0.394,1.494l-0.252,0.996l-0.131,0.499l-0.126,0.503l-0.252,0.997l-0.121,0.498l-0.126,0.498l-0.12,0.498l-0.061,0.252l-0.06,0.246l-0.06,0.252l-0.055,0.252l-0.06,0.246l-0.06,0.252l-0.055,0.252l-0.06,0.246l-0.055,0.252l-0.06,0.252l-0.055,0.246l-0.11,0.504l-0.06,0.252l-0.055,0.246l-0.054,0.252l-0.05,0.252l-0.054,0.246l-0.055,0.252l-0.05,0.252l-0.054,0.252l-0.148,0.755l-0.055,0.246l-0.049,0.252l-0.044,0.252l-0.099,0.504l-0.043,0.252l-0.05,0.251l-0.175,1.008l-0.044,0.257l-0.088,0.504l-0.076,0.503l-0.044,0.258l-0.115,0.755l-0.033,0.257l-0.038,0.252l-0.033,0.257l-0.038,0.252l-0.033,0.252l-0.033,0.257l-0.033,0.252l-0.027,0.257l-0.033,0.258l-0.028,0.252l-0.033,0.257l-0.027,0.252l-0.055,0.514l-0.022,0.258l-0.027,0.251l-0.11,1.287l-0.016,0.257l-0.022,0.258l-0.033,0.514l-0.011,0.263l-0.033,0.514l-0.01,0.258l-0.011,0.263l-0.011,0.257l-0.011,0.263l-0.011,0.514l-0.011,0.526l-0.006,0.257l-0.005,0.263l-0,1.045l0.005,0.263l0,0.263l0.011,0.526l0.011,0.262l0.006,0.269l0.033,0.788l0.01,0.268l0.017,0.263l0.016,0.268l0.017,0.263l0.016,0.268l0.022,0.263l0.017,0.268l0.021,0.268l0.028,0.269l0.022,0.262l0.027,0.269l0.028,0.273l0.054,0.537l0.099,0.805l0.033,0.273l0.022,0.132l0.016,0.137l0.022,0.136l0.016,0.137l0.022,0.132l0.017,0.137l0.044,0.273l0.016,0.132l0.11,0.684l0.027,0.137l0.044,0.274l0.027,0.136l0.022,0.137l0.027,0.137l0.022,0.137l0.082,0.411l0.022,0.136l0.083,0.411l0.032,0.137l0.028,0.142l0.027,0.137l0.033,0.137l0.027,0.142l0.028,0.137l0.066,0.274l0.027,0.142l0.066,0.274l0.033,0.142l0.065,0.274l0.033,0.142l0.033,0.137l0.038,0.142l0.066,0.274l0.077,0.285l0.033,0.137l0.038,0.142l0.038,0.137l0.077,0.285l0.038,0.136l0.077,0.285l0.038,0.137l0.039,0.142l0.043,0.143l0.039,0.136l0.087,0.285l0.039,0.142l0.131,0.427l0.044,0.137l0.131,0.427l0.05,0.143l0.044,0.142l0.049,0.142l0.044,0.143l0.098,0.284l0.044,0.148l0.197,0.57l0.055,0.142l0.049,0.142l0.05,0.148l0.054,0.142l0.05,0.143l0.054,0.142l0.055,0.148l0.05,0.142l0.054,0.148l0.055,0.142l0.055,0.148l0.055,0.142l0.06,0.148l0.055,0.143l0.054,0.147l0.061,0.143l0.054,0.142l0.121,0.296l0.055,0.142l0.12,0.296l0.06,0.142l0.061,0.148l0.065,0.148l0.061,0.147l0.06,0.143l0.131,0.295l0.061,0.148l0.46,1.035l0.071,0.148l0.066,0.147l0.071,0.148l0.066,0.148l0.284,0.591l0.072,0.154l0.142,0.295l0.077,0.153l0.071,0.148l0.077,0.148l0.071,0.153l0.153,0.296l0.077,0.153l0.076,0.148l0.154,0.307l0.076,0.147l0.083,0.148l0.076,0.154l0.082,0.153l0.083,0.148l0.076,0.153l0.082,0.153l0.083,0.148l0.164,0.307l0.088,0.153l0.082,0.153l0.082,0.148l0.175,0.307l0.082,0.153l0.438,0.766l0.094,0.153l0.087,0.154l0.093,0.153l0.088,0.159l0.279,0.46l0.093,0.158l0.28,0.46l0.098,0.159l0.093,0.153l0.099,0.159l0.099,0.153l0.098,0.159l0.099,0.153l0.098,0.159l0.099,0.153l0.197,0.318l0.104,0.153l0.099,0.159l0.104,0.159l0.104,0.153l0.104,0.159l0.099,0.159l0.109,0.158l0.104,0.154l0.104,0.158l0.11,0.159l0.016,0.033l-0.065,-0.115l-0.105,-0.181l-0.098,-0.175l-0.104,-0.175l-0.099,-0.175l-0.104,-0.175l-0.394,-0.701l-0.093,-0.175l-0.099,-0.17l-0.093,-0.175l-0.099,-0.175l-0.093,-0.17l-0.186,-0.35l-0.186,-0.34l-0.088,-0.175l-0.186,-0.339l-0.613,-1.188l-0.083,-0.17l-0.169,-0.334l-0.165,-0.339l-0.082,-0.165l-0.082,-0.169l-0.164,-0.329l-0.077,-0.17l-0.082,-0.164l-0.154,-0.328l-0.076,-0.17l-0.307,-0.657l-0.071,-0.164l-0.077,-0.159l-0.142,-0.328l-0.077,-0.165l-0.071,-0.158l-0.071,-0.165l-0.072,-0.158l-0.065,-0.165l-0.071,-0.158l-0.072,-0.165l-0.065,-0.158l-0.066,-0.165l-0.071,-0.158l-0.263,-0.635l-0.06,-0.165l-0.066,-0.153l-0.06,-0.159l-0.066,-0.158l-0.121,-0.318l-0.065,-0.159l-0.061,-0.153l-0.054,-0.159l-0.061,-0.153l-0.12,-0.317l-0.055,-0.154l-0.06,-0.153l-0.055,-0.159l-0.109,-0.306l-0.055,-0.159l-0.219,-0.613l-0.05,-0.154l-0.054,-0.153l-0.099,-0.306l-0.055,-0.154l-0.098,-0.306l-0.044,-0.148l-0.099,-0.307l-0.049,-0.147l-0.044,-0.154l-0.049,-0.148l-0.044,-0.153l-0.088,-0.295l-0.043,-0.154l-0.132,-0.443l-0.044,-0.153l-0.038,-0.148l-0.044,-0.148l-0.038,-0.148l-0.044,-0.148l-0.153,-0.591l-0.039,-0.142l-0.038,-0.148l-0.033,-0.148l-0.038,-0.142l-0.039,-0.148l-0.032,-0.148l-0.033,-0.142l-0.039,-0.148l-0.032,-0.142l-0.033,-0.148l-0.066,-0.285l-0.033,-0.148l-0.033,-0.142l-0.027,-0.142l-0.033,-0.143l-0.027,-0.147l-0.033,-0.143l-0.055,-0.284l-0.033,-0.143l-0.082,-0.427l-0.022,-0.137l-0.055,-0.284l-0.022,-0.143l-0.027,-0.136l-0.022,-0.143l-0.027,-0.142l-0.022,-0.142l-0.044,-0.274l-0.022,-0.142l-0.022,-0.137l-0.022,-0.143l-0.044,-0.273l-0.016,-0.143l-0.044,-0.273l-0.033,-0.274l-0.022,-0.143l-0.082,-0.684l-0.011,-0.137l-0.016,-0.137l-0.017,-0.131l-0.011,-0.137l-0.016,-0.137l-0.011,-0.131l-0.016,-0.137l-0.022,-0.274l-0.011,-0.131l-0.011,-0.137l-0.011,-0.131l-0.011,-0.137l-0.011,-0.131l-0.011,-0.137l-0.011,-0.132l-0.005,-0.137l-0.011,-0.131l-0.006,-0.131l-0.011,-0.132l-0.005,-0.131l-0.006,-0.137l-0.005,-0.131l-0.011,-0.132l-0.017,-0.394l0,-0.131l-0.016,-0.394l-0,-0.132l-0.006,-0.131l0,-0.132l-0.005,-0.131l-0,-0.515l-0.006,-0.131l0,-0.131l0.006,-0.258l-0,-0.383l0.005,-0.131l0.006,-0.252l0.005,-0.257l0.006,-0.126l0.005,-0.258l0.028,-0.629l0.016,-0.252l0.011,-0.252l0.033,-0.503l0.022,-0.247l0.016,-0.252l0.044,-0.492l0.022,-0.252l0.082,-0.739l0.028,-0.241l0.027,-0.246l0.033,-0.247l0.027,-0.241l0.033,-0.246l0.033,-0.241l0.038,-0.241l0.033,-0.241l0.115,-0.722l0.039,-0.236l0.043,-0.24l0.044,-0.236l0.038,-0.241l0.05,-0.235l0.044,-0.241l0.043,-0.235l0.05,-0.236l0.044,-0.235l0.049,-0.236l0.055,-0.235l0.049,-0.23l0.049,-0.235l0.055,-0.236l0.049,-0.23l0.055,-0.235l0.055,-0.23l0.06,-0.23l0.055,-0.235l0.055,-0.23l0.241,-0.92l0.12,-0.454l0.126,-0.455l0.066,-0.23l0.065,-0.224l0.066,-0.23l0.132,-0.449l0.065,-0.23l0.072,-0.224l0.065,-0.225l0.143,-0.449l0.137,-0.449l0.071,-0.224l0.077,-0.224l0.142,-0.444l0.296,-0.887l0.306,-0.887l0.154,-0.438l0.082,-0.224l0.077,-0.219l0.158,-0.438l0.077,-0.219l0.159,-0.438l0.164,-0.438l0.159,-0.438l0.164,-0.438l0.165,-0.432l0.164,-0.438l0.17,-0.433l0.164,-0.438l0.164,-0.432l0.17,-0.438l0.17,-0.432l0.334,-0.865l0.674,-1.736l0.164,-0.432l0.17,-0.433l0.164,-0.432l0.17,-0.433l0.164,-0.438l0.329,-0.865l0.164,-0.438l0.165,-0.432l0.317,-0.876l0.159,-0.432l0.159,-0.438l0.153,-0.438l0.082,-0.225l0.154,-0.438l0.071,-0.219l0.077,-0.219l0.153,-0.443l0.071,-0.219l0.296,-0.887l0.071,-0.219l0.071,-0.224l0.072,-0.219l0.065,-0.225l0.072,-0.224l0.071,-0.219l0.065,-0.225l0.072,-0.224l0.328,-1.122l0.061,-0.225l0.065,-0.224l0.061,-0.23l0.06,-0.225l0.066,-0.23l0.06,-0.224l0.06,-0.23l0.055,-0.224l0.06,-0.23l0.055,-0.23l0.06,-0.225l0.219,-0.919l0.049,-0.236l0.055,-0.23l0.099,-0.465l0.049,-0.23l0.049,-0.235l0.044,-0.23l0.049,-0.236l0.044,-0.235l0.044,-0.23l0.044,-0.235l0.044,-0.241l0.038,-0.236l0.044,-0.235l0.038,-0.236l0.039,-0.24l0.038,-0.236l0.033,-0.241l0.038,-0.235l0.132,-0.964l0.027,-0.24l0.033,-0.241l0.027,-0.247l0.022,-0.241l0.028,-0.24l0.027,-0.247l0.066,-0.739l0.032,-0.492l0.022,-0.247l0.017,-0.252l0.011,-0.246l0.016,-0.252l0.022,-0.503l0.011,-0.247l0.006,-0.257l0.005,-0.126l0.006,-0.252l0.005,-0.126l-0,-0.257l0.005,-0.252l0,-1.029l-0.005,-0.126l-0,-0.131l-0.005,-0.132l-0,-0.131l-0.006,-0.126l0,-0.131l-0.005,-0.132l-0.006,-0.126l-0.044,-1.051l-0.011,-0.131l-0.005,-0.132l-0.011,-0.136l-0.006,-0.132l-0.022,-0.263l-0.01,-0.136l-0.006,-0.132l-0.011,-0.137l-0.011,-0.131l-0.016,-0.137l-0.011,-0.131l-0.011,-0.137l-0.011,-0.132l-0.017,-0.136l-0.011,-0.137l-0.01,-0.132l-0.033,-0.273l-0.011,-0.137l-0.017,-0.132l-0.082,-0.684l-0.022,-0.137l-0.016,-0.137l-0.017,-0.142l-0.022,-0.137l-0.016,-0.137l-0.044,-0.273l-0.022,-0.143l-0.016,-0.137l-0.022,-0.142l-0.022,-0.137l-0.027,-0.137l-0.044,-0.284l-0.022,-0.137l-0.027,-0.143l-0.022,-0.142l-0.028,-0.142l-0.022,-0.137l-0.191,-0.996l-0.033,-0.143l-0.055,-0.284l-0.033,-0.148l-0.033,-0.143l-0.027,-0.142l-0.033,-0.142l-0.033,-0.148l-0.033,-0.142l-0.033,-0.148l-0.032,-0.143l-0.033,-0.147l-0.039,-0.148l-0.032,-0.143l-0.039,-0.147l-0.033,-0.148l-0.038,-0.142l-0.033,-0.148l-0.153,-0.592l-0.044,-0.147l-0.038,-0.148l-0.039,-0.153l-0.044,-0.148l-0.038,-0.148l-0.044,-0.148l-0.038,-0.153l-0.044,-0.148l-0.044,-0.153l-0.044,-0.148l-0.043,-0.153l-0.044,-0.148l-0.049,-0.153l-0.044,-0.148l-0.044,-0.153l-0.099,-0.307l-0.043,-0.148l-0.247,-0.766l-0.055,-0.159l-0.098,-0.307l-0.055,-0.153l-0.055,-0.159l-0.049,-0.153l-0.055,-0.153l-0.055,-0.159l-0.054,-0.153l-0.055,-0.159l-0.06,-0.159l-0.055,-0.153l-0.055,-0.159l-0.06,-0.159l-0.055,-0.158l-0.06,-0.154l-0.241,-0.635l-0.061,-0.164l-0.065,-0.159l-0.061,-0.158l-0.065,-0.159l-0.06,-0.164l-0.132,-0.318l-0.066,-0.164l-0.065,-0.159l-0.132,-0.328l-0.066,-0.159l-0.142,-0.329l-0.066,-0.164l-0.071,-0.159l-0.071,-0.169l-0.285,-0.657l-0.077,-0.164l-0.071,-0.165l-0.076,-0.169l-0.072,-0.165l-0.076,-0.169l-0.077,-0.165l-0.077,-0.169l-0.076,-0.164l-0.077,-0.17l-0.082,-0.17l-0.077,-0.164l-0.082,-0.17l-0.077,-0.17l-0.411,-0.848l-0.087,-0.17l-0.082,-0.169l-0.088,-0.176l-0.082,-0.169l-0.088,-0.176l-0.087,-0.169l-0.088,-0.175l-0.088,-0.17l-0.087,-0.175l-0.093,-0.176l-0.088,-0.169l-0.093,-0.175l-0.088,-0.176l-0.465,-0.875l-0.099,-0.181l-0.093,-0.175l-0.099,-0.176l-0.098,-0.18l-0.093,-0.175l-0.099,-0.181l-0.098,-0.175l-0.099,-0.181l-0.104,-0.175l-0.099,-0.181l-0.104,-0.18l-0.093,-0.165l0.017,0.033Zm5.553,-137.522l-0.208,0.317l-0.104,0.153l-0.312,0.477l-0.104,0.153l-0.104,0.159l-0.099,0.159l-0.104,0.153l-0.197,0.317l-0.099,0.154l-0.098,0.158l-0.099,0.154l-0.098,0.158l-0.099,0.154l-0.099,0.158l-0.093,0.154l-0.098,0.153l-0.093,0.159l-0.187,0.306l-0.093,0.159l-0.279,0.46l-0.088,0.159l-0.093,0.153l-0.087,0.153l-0.094,0.154l-0.438,0.766l-0.082,0.153l-0.087,0.154l-0.088,0.147l-0.164,0.307l-0.088,0.153l-0.164,0.307l-0.083,0.148l-0.164,0.306l-0.077,0.148l-0.082,0.153l-0.076,0.154l-0.083,0.147l-0.076,0.154l-0.077,0.147l-0.077,0.154l-0.153,0.295l-0.077,0.154l-0.076,0.147l-0.071,0.154l-0.077,0.148l-0.071,0.147l-0.077,0.154l-0.142,0.295l-0.072,0.154l-0.284,0.591l-0.066,0.148l-0.071,0.147l-0.066,0.148l-0.071,0.148l-0.46,1.035l-0.061,0.147l-0.131,0.296l-0.06,0.142l-0.061,0.148l-0.065,0.148l-0.061,0.148l-0.06,0.142l-0.12,0.296l-0.055,0.142l-0.121,0.296l-0.054,0.142l-0.061,0.142l-0.054,0.148l-0.055,0.143l-0.06,0.147l-0.055,0.143l-0.055,0.148l-0.109,0.284l-0.05,0.148l-0.055,0.142l-0.054,0.148l-0.05,0.142l-0.054,0.143l-0.05,0.148l-0.049,0.142l-0.055,0.142l-0.197,0.57l-0.044,0.147l-0.098,0.285l-0.044,0.142l-0.049,0.143l-0.044,0.142l-0.05,0.142l-0.175,0.57l-0.044,0.137l-0.087,0.284l-0.039,0.143l-0.087,0.284l-0.039,0.137l-0.043,0.143l-0.039,0.142l-0.038,0.137l-0.115,0.427l-0.038,0.137l-0.039,0.142l-0.038,0.137l-0.038,0.142l-0.033,0.137l-0.077,0.285l-0.066,0.273l-0.038,0.143l-0.033,0.137l-0.033,0.142l-0.065,0.274l-0.033,0.142l-0.066,0.274l-0.027,0.142l-0.066,0.274l-0.028,0.142l-0.027,0.137l-0.033,0.137l-0.055,0.273l-0.032,0.143l-0.083,0.41l-0.022,0.137l-0.082,0.411l-0.022,0.137l-0.027,0.137l-0.022,0.136l-0.027,0.137l-0.044,0.274l-0.027,0.137l-0.11,0.684l-0.016,0.132l-0.044,0.273l-0.017,0.137l-0.022,0.132l-0.016,0.136l-0.022,0.137l-0.016,0.137l-0.022,0.131l-0.033,0.274l-0.099,0.805l-0.027,0.274l-0.027,0.262l-0.028,0.274l-0.027,0.268l-0.022,0.263l-0.028,0.268l-0.021,0.269l-0.017,0.268l-0.022,0.263l-0.016,0.268l-0.017,0.263l-0.016,0.268l-0.017,0.263l-0.01,0.268l-0.033,0.788l-0.006,0.269l-0.011,0.262l-0.011,0.526l0,0.263l-0.005,0.262l-0,1.046l0.005,0.263l0.006,0.257l0.011,0.526l0.011,0.514l0.011,0.263l0.011,0.257l0.011,0.263l0.01,0.257l0.033,0.515l0.011,0.263l0.033,0.514l0.022,0.258l0.016,0.257l0.11,1.286l0.027,0.252l0.022,0.257l0.055,0.515l0.027,0.252l0.033,0.257l0.028,0.252l0.033,0.257l0.027,0.258l0.033,0.251l0.033,0.258l0.033,0.252l0.038,0.251l0.033,0.258l0.038,0.252l0.033,0.257l0.115,0.755l0.044,0.258l0.076,0.503l0.088,0.504l0.044,0.257l0.175,1.007l0.05,0.252l0.043,0.252l0.099,0.504l0.044,0.252l0.049,0.251l0.055,0.247l0.148,0.755l0.054,0.252l0.05,0.252l0.055,0.252l0.054,0.246l0.05,0.252l0.054,0.252l0.055,0.246l0.06,0.252l0.11,0.503l0.055,0.247l0.06,0.252l0.055,0.251l0.06,0.247l0.055,0.252l0.06,0.251l0.06,0.247l0.055,0.252l0.06,0.246l0.121,0.504l0.12,0.498l0.126,0.498l0.121,0.498l0.378,1.495l0.131,0.503l0.252,0.997l0.394,1.494l0.263,1.002l0.526,1.998l0.263,0.996l0.131,0.504l0.126,0.498l0.132,0.504l0.131,0.498l0.132,0.504l0.126,0.503l0.131,0.504l0.126,0.498l0.252,1.008l0.121,0.503l0.126,0.509l0.241,1.008l0.06,0.257l0.181,0.755l0.06,0.258l0.055,0.251l0.06,0.258l0.055,0.252l0.06,0.251l0.055,0.258l0.054,0.252l0.055,0.257l0.06,0.257l0.055,0.252l0.049,0.257l0.055,0.252l0.11,0.515l0.049,0.257l0.055,0.252l0.098,0.514l0.055,0.258l0.099,0.514l0.044,0.258l0.098,0.514l0.044,0.257l0.049,0.258l0.044,0.263l0.044,0.257l0.049,0.257l0.039,0.257l0.043,0.263l0.088,0.515l0.077,0.525l0.044,0.258l0.038,0.262l0.038,0.258l0.039,0.262l0.032,0.263l0.039,0.263l0.033,0.263l0.032,0.257l0.039,0.263l0.033,0.263l0.027,0.262l0.033,0.263l0.033,0.268l0.109,1.051l0.028,0.269l0.022,0.263l0.027,0.268l0.022,0.263l0.022,0.268l0.022,0.263l0.022,0.268l0.016,0.268l0.022,0.268l0.016,0.269l0.017,0.262l0.016,0.269l0.017,0.273l0.011,0.263l0.016,0.274l0.022,0.536l0.005,0.268l0.011,0.274l0.006,0.268l0.005,0.274l0.006,0.268l0.005,0.274l0.006,0.268l-0,1.095l-0.006,0.269l0,0.279l-0.011,0.547l-0.011,0.274l-0.005,0.274l-0.011,0.279l-0.011,0.274l-0.011,0.279l-0.016,0.273l-0.011,0.28l-0.017,0.273l-0.016,0.28l-0.022,0.279l-0.017,0.279l-0.065,0.838l-0.082,0.837l-0.028,0.285l-0.033,0.279l-0.027,0.285l-0.033,0.279l-0.038,0.284l-0.033,0.285l-0.022,0.142l-0.016,0.143l-0.022,0.142l-0.017,0.137l-0.044,0.285l-0.016,0.142l-0.088,0.569l-0.022,0.148l-0.021,0.143l-0.028,0.142l-0.044,0.285l-0.027,0.142l-0.022,0.148l-0.027,0.142l-0.022,0.142l-0.028,0.143l-0.027,0.147l-0.082,0.427l-0.028,0.148l-0.027,0.143l-0.027,0.147l-0.028,0.143l-0.033,0.148l-0.027,0.142l-0.033,0.148l-0.027,0.142l-0.033,0.148l-0.027,0.142l-0.033,0.148l-0.033,0.142l-0.033,0.148l-0.033,0.142l-0.099,0.444l-0.038,0.142l-0.066,0.296l-0.038,0.148l-0.033,0.142l-0.153,0.591l-0.033,0.143l-0.044,0.147l-0.153,0.592l-0.044,0.147l-0.038,0.148l-0.088,0.296l-0.038,0.153l-0.044,0.142l-0.044,0.154l-0.175,0.591l-0.044,0.153l-0.049,0.148l-0.044,0.148l-0.049,0.153l-0.044,0.148l-0.05,0.148l-0.049,0.153l-0.049,0.148l-0.049,0.153l-0.099,0.296l-0.099,0.306l-0.054,0.148l-0.05,0.148l-0.049,0.153l-0.055,0.154l-0.054,0.147l-0.05,0.154l-0.055,0.153l-0.054,0.148l-0.165,0.46l-0.06,0.147l-0.109,0.307l-0.061,0.153l-0.054,0.154l-0.017,0.032l0.093,-0.164l0.203,-0.361l0.104,-0.175l0.099,-0.181l0.197,-0.356l0.093,-0.175l0.197,-0.356l0.192,-0.356l0.372,-0.7l0.181,-0.351l0.093,-0.175l0.181,-0.345l0.175,-0.345l0.088,-0.175l0.175,-0.345l0.17,-0.345l0.082,-0.169l0.17,-0.34l0.328,-0.679l0.077,-0.169l0.082,-0.17l0.159,-0.334l0.077,-0.17l0.306,-0.668l0.148,-0.334l0.148,-0.328l0.143,-0.328l0.142,-0.334l0.071,-0.159l0.143,-0.329l0.065,-0.164l0.071,-0.164l0.198,-0.487l0.131,-0.323l0.132,-0.318l0.06,-0.164l0.126,-0.318l0.126,-0.323l0.241,-0.635l0.115,-0.312l0.115,-0.317l0.06,-0.153l0.055,-0.159l0.219,-0.624l0.049,-0.154l0.055,-0.158l0.104,-0.307l0.104,-0.312l0.247,-0.766l0.043,-0.148l0.143,-0.46l0.093,-0.301l0.087,-0.301l0.044,-0.148l0.088,-0.301l0.082,-0.301l0.082,-0.296l0.121,-0.449l0.153,-0.591l0.071,-0.29l0.072,-0.296l0.071,-0.29l0.065,-0.29l0.033,-0.148l0.066,-0.284l0.06,-0.291l0.066,-0.29l0.027,-0.142l0.088,-0.427l0.164,-0.854l0.022,-0.137l0.05,-0.285l0.027,-0.142l0.022,-0.137l0.022,-0.142l0.049,-0.279l0.044,-0.28l0.038,-0.279l0.044,-0.273l0.016,-0.137l0.022,-0.137l0.033,-0.279l0.022,-0.137l0.066,-0.548l0.033,-0.268l0.027,-0.274l0.017,-0.136l0.01,-0.132l0.028,-0.274l0.011,-0.131l0.011,-0.137l0.027,-0.268l0.011,-0.131l0.011,-0.137l0.016,-0.269l0.022,-0.262l0.017,-0.263l0.016,-0.268l0.044,-1.051l0.006,-0.126l0.005,-0.263l0.006,-0.126l0.005,-0.263l-0,-0.126l0.005,-0.263l0,-1.023l-0.005,-0.126l-0,-0.257l-0.005,-0.126l-0,-0.126l-0.017,-0.378l0,-0.126l-0.005,-0.131l-0.006,-0.121l-0.022,-0.503l-0.016,-0.252l-0.011,-0.247l-0.017,-0.251l-0.022,-0.247l-0.032,-0.492l-0.066,-0.739l-0.027,-0.247l-0.028,-0.241l-0.022,-0.241l-0.027,-0.246l-0.033,-0.241l-0.027,-0.241l-0.132,-0.963l-0.038,-0.236l-0.033,-0.24l-0.038,-0.236l-0.039,-0.241l-0.038,-0.235l-0.044,-0.235l-0.038,-0.241l-0.088,-0.471l-0.044,-0.23l-0.044,-0.235l-0.049,-0.236l-0.044,-0.23l-0.049,-0.235l-0.049,-0.23l-0.049,-0.236l-0.05,-0.229l-0.055,-0.23l-0.049,-0.236l-0.219,-0.919l-0.06,-0.225l-0.055,-0.23l-0.06,-0.23l-0.055,-0.224l-0.06,-0.23l-0.06,-0.225l-0.066,-0.23l-0.06,-0.224l-0.061,-0.23l-0.065,-0.224l-0.061,-0.225l-0.328,-1.122l-0.072,-0.225l-0.065,-0.224l-0.071,-0.219l-0.072,-0.224l-0.065,-0.225l-0.072,-0.219l-0.071,-0.224l-0.071,-0.219l-0.077,-0.225l-0.071,-0.219l-0.071,-0.224l-0.077,-0.219l-0.071,-0.219l-0.077,-0.225l-0.153,-0.437l-0.071,-0.219l-0.077,-0.219l-0.077,-0.225l-0.082,-0.219l-0.23,-0.657l-0.082,-0.213l-0.077,-0.219l-0.082,-0.219l-0.076,-0.219l-0.083,-0.219l-0.158,-0.438l-0.165,-0.433l-0.164,-0.438l-0.493,-1.297l-0.17,-0.438l-0.164,-0.432l-0.17,-0.433l-0.164,-0.432l-0.34,-0.871l-0.668,-1.73l-0.17,-0.432l-0.17,-0.438l-0.164,-0.433l-0.164,-0.438l-0.17,-0.432l-0.164,-0.438l-0.165,-0.433l-0.164,-0.437l-0.159,-0.438l-0.164,-0.438l-0.077,-0.219l-0.082,-0.219l-0.077,-0.219l-0.082,-0.219l-0.153,-0.438l-0.082,-0.225l-0.23,-0.657l-0.077,-0.224l-0.077,-0.219l-0.076,-0.224l-0.072,-0.219l-0.076,-0.225l-0.071,-0.219l-0.077,-0.224l-0.071,-0.225l-0.071,-0.219l-0.077,-0.224l-0.143,-0.449l-0.065,-0.225l-0.143,-0.448l-0.065,-0.225l-0.072,-0.224l-0.065,-0.23l-0.132,-0.449l-0.066,-0.23l-0.065,-0.225l-0.066,-0.229l-0.06,-0.225l-0.066,-0.23l-0.06,-0.23l-0.06,-0.224l-0.241,-0.92l-0.055,-0.23l-0.055,-0.235l-0.06,-0.23l-0.055,-0.23l-0.055,-0.236l-0.049,-0.229l-0.055,-0.236l-0.049,-0.235l-0.055,-0.23l-0.098,-0.471l-0.044,-0.235l-0.05,-0.236l-0.043,-0.235l-0.044,-0.241l-0.05,-0.235l-0.038,-0.236l-0.087,-0.482l-0.039,-0.235l-0.115,-0.723l-0.033,-0.24l-0.038,-0.241l-0.033,-0.241l-0.033,-0.247l-0.027,-0.24l-0.033,-0.247l-0.027,-0.246l-0.028,-0.241l-0.082,-0.739l-0.022,-0.252l-0.044,-0.493l-0.016,-0.251l-0.022,-0.247l-0.033,-0.503l-0.011,-0.252l-0.016,-0.252l-0.022,-0.504l-0.006,-0.131l0,-0.126l-0.011,-0.252l-0.005,-0.131l-0,-0.126l-0.006,-0.126l0,-0.126l-0.005,-0.131l-0,-0.515l-0.006,-0.126l0,-0.131l0.006,-0.258l-0,-0.394l0.005,-0.126l0.011,-0.525l0.011,-0.394l0.011,-0.263l0.017,-0.263l0.005,-0.131l0.006,-0.137l0.016,-0.263l0.006,-0.131l0.016,-0.268l0.011,-0.132l0.011,-0.137l0.022,-0.268l0.011,-0.131l0.022,-0.269l0.022,-0.273l0.016,-0.132l0.027,-0.273l0.011,-0.137l0.033,-0.269l0.011,-0.136l0.082,-0.685l0.022,-0.142l0.033,-0.274l0.044,-0.273l0.016,-0.143l0.044,-0.274l0.022,-0.142l0.022,-0.137l0.022,-0.142l0.044,-0.274l0.022,-0.142l0.049,-0.285l0.049,-0.279l0.028,-0.142l0.076,-0.422l0.055,-0.285l0.06,-0.284l0.028,-0.143l0.06,-0.29l0.06,-0.284l0.066,-0.29l0.033,-0.143l0.066,-0.29l0.032,-0.142l0.072,-0.29l0.032,-0.148l0.077,-0.29l0.033,-0.148l0.115,-0.438l0.077,-0.296l0.164,-0.591l0.038,-0.148l0.044,-0.153l0.132,-0.444l0.175,-0.602l0.049,-0.148l0.093,-0.301l0.05,-0.153l0.093,-0.301l0.098,-0.307l0.055,-0.153l0.099,-0.306l0.104,-0.307l0.164,-0.46l0.11,-0.312l0.109,-0.306l0.055,-0.159l0.06,-0.153l0.115,-0.312l0.06,-0.159l0.061,-0.154l0.115,-0.312l0.065,-0.158l0.061,-0.159l0.378,-0.953l0.197,-0.476l0.137,-0.323l0.065,-0.159l0.143,-0.323l0.137,-0.323l0.142,-0.323l0.148,-0.328l0.148,-0.323l0.071,-0.164l0.383,-0.821l0.154,-0.334l0.159,-0.334l0.082,-0.165l0.328,-0.667l0.083,-0.17l0.169,-0.334l0.088,-0.17l0.257,-0.509l0.263,-0.509l0.181,-0.339l0.181,-0.345l0.186,-0.34l0.186,-0.35l0.384,-0.69l0.191,-0.35l0.296,-0.526l0.104,-0.175l0.099,-0.175l0.202,-0.351l0.105,-0.18l0.065,-0.11l-0.022,0.028Z"/></g><g id="F"><path id="Shape1" serif:id="Shape" d="M64.527,401.787c7.988,-5.39 13.953,-9.471 17.795,-12.293c3.842,-2.77 7.886,-6.247 12.032,-10.378c4.145,-4.131 7.633,-8.817 10.464,-14.006c2.225,-3.829 4.146,-8.262 5.713,-13.3c1.567,-4.988 2.376,-9.824 2.527,-14.409c0,-4.282 -0.556,-8.363 -1.718,-12.192c-1.113,-3.88 -3.034,-7.054 -5.763,-9.623c-2.73,-2.519 -6.269,-3.778 -10.667,-3.778c-4.247,-0 -8.24,0.856 -11.981,2.519c-3.691,1.712 -6.32,4.433 -7.786,8.262c0,0.353 -0.202,0.806 -0.505,1.461c0.101,0.806 0.505,1.411 1.264,1.864c0.758,0.454 1.415,0.655 2.022,0.655c0.303,0 1.162,-0.151 2.477,-0.453c1.365,-0.303 2.477,-0.504 3.387,-0.504c2.679,-0 5.055,0.957 7.229,2.821c2.123,1.864 3.185,4.131 3.185,6.802c-0,1.914 -0.556,3.728 -1.618,5.39c-1.061,1.663 -2.527,3.023 -4.398,3.98c-1.87,1.008 -3.943,1.461 -6.167,1.461c-4.045,0 -7.482,-1.209 -10.313,-3.677c-2.781,-2.519 -4.196,-5.693 -4.196,-9.674c-0,-5.088 1.567,-9.471 4.651,-13.199c3.134,-3.728 7.077,-6.499 11.93,-8.363c4.803,-1.915 9.656,-2.822 14.61,-2.822c5.409,0 10.566,1.361 15.369,4.131c4.853,2.721 8.644,6.5 11.475,11.185c2.831,4.736 4.297,9.774 4.297,15.215c0,9.673 -3.235,18.641 -9.706,26.954c-6.471,8.312 -14.458,15.517 -24.013,21.663c-6.37,4.182 -16.683,9.824 -30.888,16.928l-0.708,-2.62Zm70.219,-77.939c-0,-1.813 0.657,-3.325 1.971,-4.534c1.264,-1.259 2.831,-1.864 4.702,-1.864c1.618,0 3.134,0.705 4.499,2.066c1.365,1.31 2.022,2.871 2.022,4.584c0,1.814 -0.707,3.376 -2.022,4.635c-1.415,1.21 -2.982,1.814 -4.752,1.814c-1.87,0 -3.387,-0.604 -4.6,-1.965c-1.213,-1.31 -1.82,-2.871 -1.82,-4.736Zm-0,26.4c-0,-1.814 0.657,-3.376 1.87,-4.585c1.264,-1.259 2.831,-1.864 4.803,-1.864c1.618,0 3.084,0.655 4.499,2.015c1.315,1.361 2.022,2.822 2.022,4.434c0,1.965 -0.657,3.527 -1.921,4.786c-1.314,1.26 -2.831,1.915 -4.6,1.915c-1.972,-0 -3.539,-0.655 -4.803,-1.865c-1.213,-1.209 -1.87,-2.821 -1.87,-4.836Z" style="fill:#131516;"/></g><g id="G"><path id="Shape2" serif:id="Shape" d="M97.003,172.056c-2.461,0.504 -4.742,1.854 -6.918,4.004c-2.18,2.189 -3.347,4.686 -3.537,7.449c-0.12,1.737 0.337,3.751 1.341,5.922c1.001,2.211 2.636,3.87 4.824,5.013c0.741,0.209 1.07,0.629 1.032,1.181c-0.013,0.197 -0.304,0.376 -0.988,0.487c-3.539,-1.156 -6.375,-3.295 -8.472,-6.334c-2.094,-3.079 -3.053,-6.477 -2.87,-10.271c0.399,-4.058 1.888,-7.762 4.463,-11.074c2.618,-3.349 5.837,-5.625 9.659,-6.829l-1.764,-14.2c-6.445,4.632 -11.755,9.54 -15.976,14.801c-4.219,5.221 -6.609,11.044 -7.212,17.467c-0.12,2.887 0.281,5.73 1.204,8.49c0.92,2.8 2.414,5.362 4.475,7.764c4.166,4.769 9.824,7.499 16.893,8.225c2.425,0.008 5.028,-0.249 7.848,-0.768l-4.002,-31.327Zm2.878,-0.199l4.079,30.778c6.265,-2.027 9.681,-7.145 10.243,-15.275c-0.169,-2.748 -0.792,-5.25 -1.987,-7.514c-1.154,-2.3 -2.776,-4.157 -4.906,-5.573c-2.129,-1.415 -4.579,-2.219 -7.429,-2.416Zm-5.282,-41.607c1.361,-0.699 2.961,-1.977 4.717,-3.799c1.754,-1.783 3.493,-3.923 5.171,-6.345c1.721,-2.46 3.128,-4.98 4.221,-7.561c1.09,-2.543 1.697,-4.999 1.855,-7.288c0.068,-0.987 0.058,-1.979 -0.081,-2.861c-0.06,-1.432 -0.419,-2.567 -1.119,-3.369c-0.703,-0.762 -1.626,-1.223 -2.814,-1.305c-2.375,-0.163 -4.613,1.15 -6.715,3.939c-1.639,2.426 -3.073,5.34 -4.178,8.675c-1.148,3.371 -1.896,6.729 -2.213,10.158c-0.072,3.921 0.341,7.162 1.156,9.756Zm-2.652,2.117c-1.339,-6.516 -1.879,-13.097 -1.62,-19.742c0.334,-4.26 1.045,-8.216 2.132,-11.869c1.048,-3.655 2.417,-6.773 4.112,-9.432c1.655,-2.662 3.502,-4.636 5.5,-5.926c1.789,-1.146 3.062,-1.732 3.735,-1.686c0.515,0.036 0.937,0.263 1.308,0.646c0.371,0.382 0.845,1.01 1.424,1.842c4.25,6.996 6.069,15.211 5.421,24.605c-0.308,4.46 -1.201,8.761 -2.689,13.02c-1.445,4.223 -3.43,8.211 -5.951,11.883c-2.563,3.71 -5.486,6.879 -8.812,9.545l2.133,15.772c1.755,-0.077 2.954,-0.153 3.626,-0.107c3.009,0.207 5.657,1.025 8.064,2.46c2.406,1.435 4.426,3.279 6.018,5.57c1.595,2.252 2.772,4.791 3.531,7.62c0.72,2.826 1.036,5.742 0.829,8.742c-0.322,4.657 -1.843,8.835 -4.562,12.495c-2.718,3.659 -6.593,6.207 -11.667,7.682c0.184,1.956 0.544,4.796 1.128,8.445c0.541,3.686 0.935,6.608 1.184,8.767c0.249,2.158 0.266,4.221 0.127,6.234c-0.215,3.118 -1.158,5.829 -2.831,8.173c-1.713,2.34 -3.902,4.093 -6.608,5.255c-2.665,1.164 -5.562,1.639 -8.649,1.426c-4.355,-0.301 -8.07,-1.786 -11.15,-4.418c-3.077,-2.671 -4.592,-6.067 -4.462,-10.261c0.247,-1.847 0.802,-3.554 1.708,-5.157c0.906,-1.603 2.068,-2.871 3.524,-3.802c1.42,-0.973 3.081,-1.414 4.949,-1.403c1.544,0.106 2.979,0.641 4.307,1.565c1.286,0.962 2.315,2.183 3.046,3.7c0.691,1.515 1.014,3.164 0.894,4.9c-0.16,2.329 -1.088,4.248 -2.783,5.757c-1.696,1.509 -3.772,2.198 -6.186,2.032l-0.91,-0.063c1.38,2.475 3.829,3.873 7.352,4.116c1.781,0.123 3.629,-0.146 5.499,-0.731c1.912,-0.622 3.524,-1.502 4.918,-2.675c1.393,-1.173 2.357,-2.455 2.811,-3.851c0.785,-1.572 1.257,-3.8 1.45,-6.602c0.131,-1.895 0.064,-3.803 -0.162,-5.722c-0.228,-1.879 -0.61,-4.404 -1.15,-7.535c-0.542,-3.091 -0.933,-5.497 -1.138,-7.137c-2.416,0.428 -4.892,0.575 -7.465,0.397c-4.315,-0.297 -8.332,-1.447 -12.049,-3.488c-3.717,-2.041 -6.913,-4.72 -9.624,-8.079c-2.672,-3.357 -4.683,-7.065 -6.028,-11.203c-1.308,-4.095 -1.851,-8.336 -1.591,-12.681c0.437,-4.015 1.456,-7.831 3.132,-11.364c1.678,-3.572 3.739,-6.92 6.218,-10.001c2.48,-3.08 5.02,-5.88 7.617,-8.357c2.634,-2.436 6.072,-5.57 10.39,-9.357Z" style="fill:#131516;"/></g><g id="path7229"><path id="Shape3" serif:id="Shape" d="M272.935,143.757c-12.336,-0 -22.329,6.002 -22.329,13.363c0,7.359 9.993,13.325 22.329,13.325c12.335,0 22.365,-5.966 22.365,-13.325c0,-7.361 -10.03,-13.363 -22.365,-13.363Zm-5.456,2.42c3.208,-0.042 7.16,1.212 10.876,3.72c6.605,4.456 9.92,11.168 7.407,14.95c-2.514,3.783 -9.907,3.229 -16.512,-1.227c-6.607,-4.457 -9.92,-11.169 -7.408,-14.952c1.101,-1.654 3.143,-2.459 5.637,-2.491Z" style="fill:#f15031;fill-rule:nonzero;"/></g><g id="path72291"><path id="Shape4" serif:id="Shape" d="M272.935,117.069c-12.336,0 -22.329,6.003 -22.329,13.363c0,7.359 9.993,13.325 22.329,13.325c12.335,0 22.365,-5.966 22.365,-13.325c0,-7.36 -10.03,-13.363 -22.365,-13.363Zm-5.456,2.42c3.208,-0.041 7.16,1.212 10.876,3.72c6.605,4.456 9.92,11.168 7.407,14.95c-2.514,3.783 -9.907,3.229 -16.512,-1.227c-6.607,-4.457 -9.92,-11.169 -7.408,-14.951c1.101,-1.655 3.143,-2.46 5.637,-2.492Z" style="fill:#f15031;fill-rule:nonzero;"/></g><g id="Group"><path id="Path9" serif:id="Path" d="M304.116,156.719c22.477,8.458 21.408,85.33 -0,88.429" style="fill:none;stroke:#f15031;stroke-width:2.5px;stroke-dasharray:5.77,5.77,0,0;"/></g><g id="Group1" serif:id="Group"><path id="Path10" serif:id="Path" d="M335.309,221.906l-6.328,11.529l-1.304,-0l5.856,-10.226l-3.978,0c-0.507,0 -0.899,0.005 -1.184,0.009c-0.285,0.004 -0.543,0.062 -0.783,0.173c-0.191,0.089 -0.356,0.29 -0.49,0.605c-0.137,0.316 -0.244,0.703 -0.324,1.157l-0.637,-0l0,-4.279l9.172,-0l0,1.032Z" style="fill:#f15031;fill-rule:nonzero;"/><path id="Shape5" serif:id="Shape" d="M342.305,220.42c-0,0.81 -0.281,1.495 -0.833,2.046c-0.551,0.552 -1.272,0.832 -2.158,0.832c-0.885,0 -1.606,-0.28 -2.154,-0.841c-0.552,-0.56 -0.827,-1.236 -0.827,-2.037c-0,-0.827 0.28,-1.512 0.845,-2.059c0.565,-0.543 1.277,-0.814 2.136,-0.814c0.881,-0 1.598,0.276 2.154,0.827c0.556,0.552 0.837,1.237 0.837,2.046Zm-1.567,0.071c0,-0.707 -0.129,-1.245 -0.391,-1.61c-0.259,-0.365 -0.61,-0.547 -1.042,-0.547c-0.445,0 -0.792,0.191 -1.037,0.569c-0.249,0.383 -0.369,0.877 -0.369,1.491c-0,0.667 0.12,1.187 0.374,1.561c0.245,0.373 0.605,0.56 1.068,0.56c0.391,0 0.725,-0.178 0.992,-0.534c0.272,-0.355 0.405,-0.854 0.405,-1.49Z" style="fill:#f15031;fill-rule:nonzero;"/></g><g id="Group2" serif:id="Group"><rect id="Rectangle1" serif:id="Rectangle" x="231.828" y="36.189" width="89.003" height="53.375" style="fill:#49b656;"/></g><g id="Group3" serif:id="Group"><path id="Path11" serif:id="Path" d="M339.007,35.223c0,-4.418 -3.59,-8.009 -8.01,-8.009l-21.361,0c-4.421,0 -8.01,3.591 -8.01,8.009l0,16.011c0,4.418 3.589,8.003 8.01,8.003l21.361,0c4.42,0 8.01,-3.585 8.01,-8.003l0,-16.011Z" style="fill:#85756e;"/></g><g id="Group4" serif:id="Group"><path id="Path12" serif:id="Path" d="M321.392,37.225l-8.865,14.544l2.136,1.361l11.242,-18.414l-13.271,-0l0,2.509l8.758,-0Z" style="fill:#fff;fill-rule:nonzero;"/><path id="Shape6" serif:id="Shape" d="M331.191,34.449c-2.002,-0 -3.604,1.575 -3.604,3.576c-0,1.948 1.602,3.55 3.578,3.55c1.949,-0 3.551,-1.602 3.551,-3.577c-0,-1.948 -1.602,-3.549 -3.525,-3.549Zm-0.026,1.788c1.041,0 1.869,0.801 1.869,1.788c-0,1.068 -0.855,1.948 -1.869,1.948c-1.042,0 -1.896,-0.88 -1.896,-1.948c-0,-1.014 0.828,-1.788 1.896,-1.788Z" style="fill:#fff;fill-rule:nonzero;"/></g><g id="Group5" serif:id="Group"><rect id="Rectangle2" serif:id="Rectangle" x="275.688" y="49.447" width="3.691" height="24.144" style="fill:#fff;"/></g><g id="path72292"><path id="Shape7" serif:id="Shape" d="M273.24,223.82c-12.336,0 -22.329,6.003 -22.329,13.363c0,7.359 9.993,13.325 22.329,13.325c12.335,0 22.365,-5.966 22.365,-13.325c0,-7.36 -10.03,-13.363 -22.365,-13.363Zm-5.456,2.42c3.208,-0.041 7.16,1.212 10.876,3.72c6.605,4.456 9.92,11.168 7.407,14.951c-2.514,3.782 -9.907,3.228 -16.512,-1.228c-6.606,-4.457 -9.92,-11.169 -7.408,-14.951c1.101,-1.655 3.143,-2.459 5.637,-2.492Z"/></g><g id="path72293"><path id="Shape8" serif:id="Shape" d="M273.24,170.445c-12.336,-0 -22.329,6.002 -22.329,13.362c0,7.359 9.993,13.326 22.329,13.326c12.335,-0 22.365,-5.967 22.365,-13.326c0,-7.36 -10.03,-13.362 -22.365,-13.362Zm-5.456,2.42c3.208,-0.042 7.16,1.212 10.876,3.72c6.605,4.456 9.92,11.168 7.407,14.95c-2.514,3.782 -9.907,3.229 -16.512,-1.227c-6.606,-4.458 -9.92,-11.169 -7.408,-14.952c1.101,-1.655 3.143,-2.459 5.637,-2.491Z" style="fill:#050001;fill-rule:nonzero;"/></g><g id="path72294"><path id="Shape9" serif:id="Shape" d="M273.24,197.132c-12.336,0 -22.329,6.003 -22.329,13.363c0,7.359 9.993,13.325 22.329,13.325c12.335,0 22.365,-5.966 22.365,-13.325c0,-7.36 -10.03,-13.363 -22.365,-13.363Zm-5.456,2.42c3.208,-0.041 7.16,1.213 10.876,3.72c6.605,4.456 9.92,11.168 7.407,14.951c-2.514,3.782 -9.907,3.228 -16.512,-1.228c-6.606,-4.457 -9.92,-11.169 -7.408,-14.951c1.101,-1.655 3.143,-2.459 5.637,-2.492Z"/></g><g id="Group6" serif:id="Group"><path id="Path13" serif:id="Path" d="M244.079,140.67c-13.337,8.836 -12.703,89.141 0,92.379" style="fill:none;stroke:#f15031;stroke-width:2.5px;stroke-dasharray:5.03,5.03,0,0;"/></g><g id="Group7" serif:id="Group"><path id="Path14" serif:id="Path" d="M219.565,205.297l-9.421,-0l-0,-1.57c0.414,-0.418 0.863,-0.801 1.353,-1.143c0.489,-0.347 0.983,-0.65 1.491,-0.917c0.538,-0.284 0.987,-0.538 1.352,-0.76c0.365,-0.223 0.655,-0.458 0.864,-0.699c0.209,-0.226 0.356,-0.476 0.445,-0.738c0.089,-0.267 0.138,-0.565 0.138,-0.898c-0,-0.734 -0.178,-1.268 -0.525,-1.606c-0.348,-0.334 -0.806,-0.503 -1.38,-0.503c-0.182,0 -0.352,0.014 -0.507,0.04c-0.16,0.027 -0.33,0.071 -0.503,0.143c0.089,0.258 0.173,0.529 0.254,0.809c0.08,0.276 0.12,0.587 0.12,0.93c-0,0.409 -0.147,0.738 -0.441,0.978c-0.298,0.245 -0.672,0.365 -1.13,0.365c-0.436,-0 -0.783,-0.142 -1.042,-0.423c-0.258,-0.284 -0.387,-0.631 -0.387,-1.036c0,-0.707 0.414,-1.317 1.237,-1.832c0.824,-0.516 1.825,-0.774 3.009,-0.774c1.366,-0 2.47,0.235 3.315,0.702c0.841,0.472 1.264,1.228 1.264,2.269c-0,0.538 -0.111,0.974 -0.334,1.303c-0.222,0.329 -0.552,0.618 -0.988,0.867c-0.387,0.227 -0.819,0.414 -1.29,0.556c-0.472,0.147 -0.979,0.285 -1.518,0.419c-0.574,0.146 -1.072,0.298 -1.5,0.462c-0.427,0.16 -0.801,0.356 -1.134,0.583l-0,0.093l7.258,0l-0,2.38Z" style="fill:#f15031;fill-rule:nonzero;"/><path id="Shape10" serif:id="Shape" d="M227.415,195.489c-0,0.81 -0.276,1.495 -0.832,2.046c-0.552,0.552 -1.273,0.832 -2.159,0.832c-0.885,-0 -1.606,-0.28 -2.158,-0.841c-0.547,-0.56 -0.823,-1.236 -0.823,-2.037c-0,-0.827 0.285,-1.512 0.845,-2.059c0.566,-0.543 1.278,-0.814 2.136,-0.814c0.882,-0 1.598,0.275 2.154,0.827c0.557,0.552 0.837,1.237 0.837,2.046Zm-1.566,0.071c-0,-0.707 -0.13,-1.245 -0.392,-1.61c-0.258,-0.365 -0.605,-0.547 -1.041,-0.547c-0.445,-0 -0.793,0.191 -1.037,0.569c-0.25,0.383 -0.374,0.877 -0.374,1.49c-0,0.668 0.129,1.188 0.374,1.562c0.253,0.373 0.609,0.56 1.072,0.56c0.392,0 0.726,-0.178 0.993,-0.534c0.271,-0.356 0.405,-0.854 0.405,-1.49Z" style="fill:#f15031;fill-rule:nonzero;"/></g><g id="しっぽ"><rect id="Rectangle3" serif:id="Rectangle" x="242.247" y="236.442" width="61.776" height="1"/></g><g id="Group8" serif:id="Group"><path id="Path15" serif:id="Path" d="M374.677,34.155c0,-4.418 -3.589,-8.009 -8.01,-8.009l-19.651,0c-4.421,0 -8.01,3.591 -8.01,8.009l-0,16.011c-0,4.418 3.589,8.003 8.01,8.003l19.651,0c4.421,0 8.01,-3.585 8.01,-8.003l0,-16.011Z" style="fill:#85756e;"/></g><g id="Group9" serif:id="Group"><path id="Path16" serif:id="Path" d="M354.152,46.827l2.419,-2.863c2.723,-3.191 3.38,-4.388 3.38,-6.078c0,-2.675 -2.207,-4.74 -5.047,-4.74c-1.761,-0 -3.193,0.751 -4.109,2.112c-0.517,0.798 -0.751,1.502 -0.892,2.839l2.348,0c0.094,-0.868 0.234,-1.267 0.54,-1.713c0.469,-0.68 1.291,-1.079 2.183,-1.079c1.503,-0 2.677,1.126 2.677,2.581c-0,1.009 -0.564,1.924 -2.771,4.6l-5.423,6.57l10.518,0l-0,-2.229l-5.823,-0Z" style="fill:#fff;fill-rule:nonzero;"/><path id="Shape11" serif:id="Shape" d="M366.337,33.169c-1.76,0 -3.169,1.385 -3.169,3.145c-0,1.713 1.409,3.121 3.146,3.121c1.714,-0 3.123,-1.408 3.123,-3.145c-0,-1.713 -1.409,-3.121 -3.1,-3.121Zm-0.023,1.573c0.916,-0 1.643,0.704 1.643,1.572c0,0.939 -0.751,1.713 -1.643,1.713c-0.916,-0 -1.667,-0.774 -1.667,-1.713c0,-0.892 0.728,-1.572 1.667,-1.572Z" style="fill:#fff;fill-rule:nonzero;"/></g><g id="path72295"><path id="Shape12" serif:id="Shape" d="M274.089,361.986c-12.335,-0 -22.328,6.002 -22.328,13.362c-0,7.359 9.993,13.326 22.328,13.326c12.335,-0 22.365,-5.967 22.365,-13.326c0,-7.36 -10.03,-13.362 -22.365,-13.362Zm-5.456,2.419c3.208,-0.041 7.16,1.213 10.876,3.72c6.606,4.456 9.92,11.168 7.407,14.951c-2.514,3.782 -9.906,3.229 -16.512,-1.228c-6.606,-4.457 -9.92,-11.169 -7.408,-14.951c1.101,-1.655 3.143,-2.459 5.637,-2.492Z" style="fill:#050001;fill-rule:nonzero;"/></g><g id="C---G" serif:id="C-×-G"><text x="227px" y="461px" style="font-family:'HiraginoSans-W6', 'Hiragino Sans', sans-serif;font-weight:600;font-size:32px;">C × G</text></g><g id="_-またはレの浮遊感、シの不安定さ-" serif:id="(またはレの浮遊感、シの不安定さ)"><text x="116.52px" y="501px" style="font-family:'NotoSansSC-Bold', 'Noto Sans SC', sans-serif;font-weight:700;font-size:20px;">(既有r<tspan x="172.56px " y="501px ">e</tspan>的浮游感，又有si的不稳定)</text></g></g></svg>