<?xml version="1.0" encoding="UTF-8" standalone="no"?><!DOCTYPE svg PUBLIC "-//W3C//DTD SVG 1.1//EN" "http://www.w3.org/Graphics/SVG/1.1/DTD/svg11.dtd"><svg width="795.0px" height="383.0px" viewBox="0 0 795 383" version="1.1" xmlns="http://www.w3.org/2000/svg" xmlns:xlink="http://www.w3.org/1999/xlink" xml:space="preserve" xmlns:serif="http://www.serif.com/" style="fill-rule:evenodd;clip-rule:evenodd;"><g id="c1-chord-sound-system"><g id="Group"><path id="horizon" d="M28.5,85.5l729,0" style="fill:none;stroke:#000;stroke-width:1.5px;"/><path id="horizon1" serif:id="horizon" d="M28.5,115.5l729,0" style="fill:none;stroke:#000;stroke-width:1.5px;"/><path id="horizon2" serif:id="horizon" d="M28.5,145.5l729,0" style="fill:none;stroke:#000;stroke-width:1.5px;"/><path id="horizon3" serif:id="horizon" d="M28.5,175.5l729,0" style="fill:none;stroke:#000;stroke-width:1.5px;"/><path id="horizon4" serif:id="horizon" d="M28.5,205.5l729,0" style="fill:none;stroke:#000;stroke-width:1.5px;"/><path id="bar" d="M28.51,87l-0.02,117" style="fill:none;stroke:#000;stroke-width:4.08px;stroke-linecap:round;stroke-linejoin:round;"/><path id="bar1" serif:id="bar" d="M758.25,85.5l0,120" style="fill:none;stroke:#000;stroke-width:1.5px;stroke-linecap:square;"/></g><path id="G-Clef" d="M64.694,203.955c-1.075,-0.08 -2.109,-0.254 -3.085,-0.52c-5.06,-1.373 -8.563,-5.186 -9.378,-10.212c-0.241,-1.472 -0.161,-3.777 0.176,-5.092c0.257,-1.007 0.88,-2.445 1.382,-3.195c0.846,-1.262 2.291,-2.455 3.734,-3.078c1.186,-0.513 1.825,-0.648 3.319,-0.702c1.186,-0.043 1.479,-0.024 2.165,0.153c2.984,0.767 5.403,3.326 6.452,6.832c0.236,0.792 0.257,0.993 0.262,2.549c0.004,1.48 -0.022,1.787 -0.208,2.446c-0.412,1.46 -1.117,2.636 -2.244,3.738c-1.65,1.617 -3.584,2.588 -6.193,3.116l-1.12,0.227l0.794,0.346c4.242,1.865 8.938,1.685 13.315,-0.503c3.831,-1.913 6.795,-5.375 7.813,-9.127c0.248,-0.908 0.262,-1.075 0.255,-2.802l-0.007,-1.835l-1.431,-7.098c-0.785,-3.905 -1.45,-7.171 -1.476,-7.261c-0.043,-0.138 -0.142,-0.119 -0.821,0.165c-4.387,1.832 -11.025,1.808 -17.084,-0.061c-8.301,-2.559 -15.076,-8.176 -18.608,-15.424c-1.101,-2.264 -1.744,-4.428 -2.1,-7.075c-0.16,-1.191 -0.135,-4.345 0.049,-5.844c0.983,-8.019 5.123,-16.059 12.926,-25.114c2.429,-2.818 7.745,-8.091 11.307,-11.216c0.948,-0.831 0.988,-0.884 0.915,-1.153c-0.166,-0.622 -0.738,-3.641 -0.915,-4.825c-0.821,-5.517 -0.818,-11.923 0.005,-17.531c1.291,-8.807 4.321,-16.208 8.729,-21.322c0.804,-0.934 2.506,-2.537 2.692,-2.537c0.059,0 0.576,0.707 1.144,1.571c5.276,7.995 8.067,15.115 8.831,22.514c0.189,1.849 0.137,6.19 -0.099,7.882c-0.773,5.588 -2.577,10.438 -5.67,15.241c-2.023,3.145 -5.068,6.718 -8.178,9.599c-0.709,0.659 -1.457,1.351 -1.66,1.54l-0.367,0.344l1.629,8.011l1.626,8.014l0.807,-0.063c2.268,-0.182 4.663,-0.048 6.374,0.351c2.28,0.535 4.845,1.755 6.764,3.215c1.07,0.816 2.852,2.639 3.604,3.69c1.799,2.508 2.973,5.498 3.301,8.401c0.163,1.435 0.066,4.229 -0.184,5.391c-0.988,4.598 -3.911,8.922 -8.364,12.367c-1.101,0.852 -2.707,1.881 -3.874,2.484c-0.789,0.409 -0.858,0.465 -0.806,0.678c0.099,0.404 1.365,6.559 1.839,8.934c0.247,1.247 0.629,3.312 0.849,4.588c0.386,2.246 0.398,2.363 0.346,3.815c-0.094,2.76 -0.787,4.917 -2.353,7.341c-2.982,4.612 -8.324,7.553 -14.555,8.011c-1.315,0.097 -1.739,0.104 -2.624,0.036Zm7.9,-32.493c1.172,-0.138 2.657,-0.457 3.619,-0.782c1.179,-0.394 2.6,-1.096 2.544,-1.256c-0.026,-0.07 -1.231,-5.946 -2.678,-13.059c-1.448,-7.113 -2.655,-12.955 -2.683,-12.984c-0.028,-0.029 -0.509,0.039 -1.068,0.152c-4.1,0.831 -7.464,3.182 -8.937,6.247c-0.465,0.966 -0.641,1.598 -0.762,2.701c-0.254,2.346 0.5,4.922 2.044,6.966c0.898,1.191 2.268,2.464 3.525,3.28c0.481,0.313 0.573,0.465 0.235,0.393c-0.117,-0.025 -0.53,-0.114 -0.917,-0.197c-3.038,-0.656 -5.978,-2.375 -7.645,-4.466c-1.464,-1.84 -2.206,-3.753 -2.419,-6.239c-0.271,-3.17 0.559,-6.225 2.502,-9.22c1.254,-1.934 3.418,-4.04 5.587,-5.435c1.57,-1.012 3.951,-2.043 5.573,-2.416c0.297,-0.068 0.54,-0.155 0.54,-0.191c-0,-0.105 -3.006,-14.808 -3.056,-14.948c-0.073,-0.206 -4.146,3.135 -6.89,5.648c-1.514,1.388 -4.734,4.741 -5.904,6.147c-3.529,4.244 -5.808,8.062 -7.084,11.856c-1.282,3.825 -1.6,7.508 -0.945,10.992c0.797,4.237 3.529,8.67 7.183,11.655c4.963,4.052 11.283,5.9 17.636,5.156Zm9.312,-4.028c3.383,-2.905 5.385,-6.21 5.977,-9.859c0.198,-1.222 0.146,-3.801 -0.097,-4.941c-0.99,-4.619 -4.012,-8.186 -7.997,-9.435c-0.785,-0.247 -0.966,-0.266 -2.513,-0.269c-0.98,0 -1.699,0.037 -1.749,0.095c-0.049,0.056 0.962,5.13 2.534,12.701c1.438,6.931 2.617,12.616 2.62,12.633c0.009,0.077 0.421,-0.235 1.225,-0.925Zm-11.066,-65.414c6.811,-6.818 10.835,-13.457 11.675,-19.265c0.188,-1.307 0.186,-3.44 -0.007,-4.602c-0.387,-2.319 -1.332,-4.355 -2.94,-6.319c-0.639,-0.78 -0.736,-0.821 -1.943,-0.818c-1.329,0.002 -2.539,0.634 -3.793,1.98c-2.079,2.225 -3.817,5.862 -5.097,10.653c-1.78,6.67 -2.327,15.013 -1.351,20.663l0.154,0.894l0.952,-0.894c0.523,-0.491 1.58,-1.522 2.35,-2.292Z"/><path id="Path" d="M242.121,217.222c8.743,-4.774 13.4,-13.415 10.535,-19.916c-3.056,-6.936 -13.561,-8.893 -23.445,-4.37c-9.886,4.522 -15.427,13.825 -12.371,20.758c3.056,6.936 13.561,8.893 23.445,4.37c0.618,-0.283 1.254,-0.522 1.836,-0.842Z" style="fill:#365aff;"/><path id="Path1" serif:id="Path" d="M242.121,247.222c8.743,-4.774 13.4,-13.415 10.535,-19.916c-3.056,-6.936 -13.561,-8.893 -23.445,-4.37c-9.886,4.522 -15.427,13.825 -12.371,20.758c3.056,6.936 13.561,8.893 23.445,4.37c0.618,-0.283 1.254,-0.522 1.836,-0.842Z"/><rect id="Rectangle" x="204" y="235.5" width="60" height="1.5"/><path id="Path2" serif:id="Path" d="M242.121,187.222c8.743,-4.774 13.4,-13.415 10.535,-19.916c-3.056,-6.936 -13.561,-8.893 -23.445,-4.37c-9.886,4.522 -15.427,13.825 -12.371,20.758c3.056,6.936 13.561,8.893 23.445,4.37c0.618,-0.283 1.254,-0.522 1.836,-0.842Z" style="fill:#ff8000;"/><path id="Path3" serif:id="Path" d="M570.621,217.222c8.743,-4.774 13.4,-13.415 10.535,-19.916c-3.056,-6.936 -13.561,-8.893 -23.445,-4.37c-9.886,4.522 -15.427,13.825 -12.371,20.758c3.056,6.936 13.561,8.893 23.445,4.37c0.618,-0.283 1.254,-0.522 1.836,-0.842Z" style="fill:#365aff;"/><path id="Path4" serif:id="Path" d="M570.621,247.222c8.743,-4.774 13.4,-13.415 10.535,-19.916c-3.056,-6.936 -13.561,-8.893 -23.445,-4.37c-9.886,4.522 -15.427,13.825 -12.371,20.758c3.056,6.936 13.561,8.893 23.445,4.37c0.618,-0.283 1.254,-0.522 1.836,-0.842Z"/><rect id="Rectangle1" serif:id="Rectangle" x="532.5" y="235.5" width="60" height="1.5"/><path id="Path5" serif:id="Path" d="M570.621,187.222c8.743,-4.774 13.4,-13.415 10.535,-19.916c-3.056,-6.936 -13.561,-8.893 -23.445,-4.37c-9.886,4.522 -15.427,13.825 -12.371,20.758c3.056,6.936 13.561,8.893 23.445,4.37c0.618,-0.283 1.254,-0.522 1.836,-0.842Z" style="fill:#ff8000;"/><g id="Group1" serif:id="Group"><g id="flat"><path d="M524.6,171l-0,24.6c2.998,-2.965 6.364,-4.484 10.096,-4.556c2.333,-0 4.332,1.049 5.998,3.146c1.466,1.953 2.232,4.122 2.299,6.51c0.067,1.88 -0.367,4.049 -1.299,6.508c-0.334,1.013 -1.067,2.098 -2.2,3.254c-0.866,0.869 -1.766,1.773 -2.699,2.713c-4.931,3.905 -9.863,7.847 -14.795,11.825l-0,-54l2.6,0Zm8.097,26.987c-0.799,-1.013 -1.833,-1.519 -3.099,-1.519c-1.6,0 -2.899,0.976 -3.899,2.929c-0.733,1.519 -1.099,5.099 -1.099,10.74l-0,9.33c0.066,0.289 1.933,-1.482 5.597,-5.316c2,-2.024 3.3,-4.412 3.899,-7.16c0.267,-1.084 0.4,-2.169 0.4,-3.254c0,-2.387 -0.599,-4.303 -1.799,-5.75" style="fill:#365aff;fill-rule:nonzero;"/></g></g><g id="_5th-:--無色透明-のサポート役" serif:id="5th-:-“無色透明”のサポート役"><text x="235.002px" y="45px" style="font-family:'NotoSansSC-Bold', 'Noto Sans SC', sans-serif;font-weight:700;font-size:24px;fill:#ff8000;">5th : “无色透明”的辅助角色</text></g><g id="_3rd：サウンドキャラクターの決定因子" serif:id="3rd：サウンドキャラクターの決定因子"><text x="254.298px" y="345px" style="font-family:'NotoSansSC-Bold', 'Noto Sans SC', sans-serif;font-weight:700;font-size:24px;fill:#365aff;">3r<tspan x="278.61px " y="345px ">d</tspan>：声音特征的决定因素</text></g><path id="Line" d="M282.5,221.75l-19,-9.5l19,-9.5l0,8l52.75,0c29.525,0 53.516,23.696 53.993,53.107l0.007,0.893l0,46.5l-3,0l0,-46.5c0,-27.885 -22.379,-50.543 -50.157,-50.993l-0.843,-0.007l-52.75,0l0,8Z" style="fill:#365aff;fill-rule:nonzero;"/><path id="Line1" serif:id="Line" d="M493.75,221.75l19,-9.5l-19,-9.5l0,8l-52.75,0c-29.525,0 -53.516,23.696 -53.993,53.107l-0.007,0.893l0,46.5l3,0l0,-46.5c0,-27.885 22.379,-50.543 50.157,-50.993l0.843,-0.007l52.75,0l0,8Z" style="fill:#365aff;fill-rule:nonzero;"/><path id="Line2" serif:id="Line" d="M282.5,160l-19,9.5l19,9.5l0,-8l52.75,0c29.525,0 53.516,-23.696 53.993,-53.107l0.007,-0.893l0,-56.25l-3,0l0,56.25c0,27.885 -22.379,50.543 -50.157,50.993l-0.843,0.007l-52.75,0l0,-8Z" style="fill:#ff8000;fill-rule:nonzero;"/><path id="Line3" serif:id="Line" d="M493.75,160l19,9.5l-19,9.5l0,-8l-52.75,0c-29.525,0 -53.516,-23.696 -53.993,-53.107l-0.007,-0.893l0,-56.25l3,0l0,56.25c0,27.885 22.379,50.543 50.157,50.993l0.843,0.007l52.75,0l0,-8Z" style="fill:#ff8000;fill-rule:nonzero;"/></g></svg>