<?xml version="1.0" encoding="UTF-8" standalone="no"?><!DOCTYPE svg PUBLIC "-//W3C//DTD SVG 1.1//EN" "http://www.w3.org/Graphics/SVG/1.1/DTD/svg11.dtd"><svg width="713.0px" height="159.0px" viewBox="0 0 713 159" version="1.1" xmlns="http://www.w3.org/2000/svg" xmlns:xlink="http://www.w3.org/1999/xlink" xml:space="preserve" xmlns:serif="http://www.serif.com/" style="fill-rule:evenodd;clip-rule:evenodd;"><g id="c1-classic-dualism"><g id="明"><text x="26.01px" y="78px" style="font-family:'NotoSansSC-Bold', 'Noto Sans SC', sans-serif;font-weight:700;font-size:23.98px;fill:#f63;">明</text></g><g id="暗"><text x="645.01px" y="76px" style="font-family:'NotoSansSC-Bold', 'Noto Sans SC', sans-serif;font-weight:700;font-size:23.98px;fill:#3d7bf5;">暗</text></g><path id="Line-2" d="M633.5,78l-3,0l0,-8l-560,0l0,8l-3,0l0,-19l3,0l0,8l560,0l0,-8l3,0l0,19Z" style="fill:url(#_Linear1);fill-rule:nonzero;"/><path id="Path-2" d="M356,58l0,22.233" style="fill:none;stroke:#a27090;stroke-width:1.5px;"/><g id="O"><path id="path-2" d="M77.636,83.75c0.227,0.201 0.502,0.486 0.777,0.77c0.585,0.438 1.219,0.96 1.769,1.529c0.825,0.853 1.769,1.528 2.866,1.892c0.179,0.118 0.442,0.189 0.621,0.307c0.24,0.416 0.668,0.39 0.931,0.46c0.441,0.189 0.918,0.246 1.407,0.518c0.406,0.32 0.979,0.543 1.561,0.207c0.227,0.202 0.336,0.582 0.668,0.39c0.084,-0.048 0.132,0.035 0.215,-0.013c0.883,0.377 1.8,0.623 2.706,0.655c0.857,-0.051 1.727,0.111 2.645,0.357c0.476,0.058 0.857,-0.051 1.285,-0.077c1.037,0.067 1.942,0.099 2.93,0.082c0.297,-0.06 0.595,-0.121 0.94,-0.099c0.774,-0.003 1.583,-0.138 2.322,-0.01c0.131,0.035 0.262,0.07 0.345,0.022c0.714,-0.301 1.452,-0.173 2.226,-0.177c0.298,-0.061 0.726,-0.086 0.976,-0.23c0.332,-0.192 0.595,-0.122 0.94,-0.1c0.429,-0.025 0.857,-0.051 1.155,-0.112c0.428,-0.026 0.857,-0.051 1.368,-0.125c0.083,-0.048 0.119,-0.179 0.285,-0.275c0.345,0.022 0.739,0.127 1.215,0.185c0.035,-0.131 0.119,-0.179 0.237,-0.358c0.835,0.294 1.548,-0.007 2.309,-0.225c0.214,-0.013 0.38,-0.109 0.547,-0.205c0.988,-0.016 1.976,-0.033 2.843,-0.644c0.249,-0.144 0.595,-0.121 0.94,-0.099c0.345,0.022 0.713,-0.301 1.01,-0.362c0.836,-0.088 1.71,-0.111 2.478,-0.452l0.282,-0.144l0.084,-0.048c0.594,-0.121 1.154,-0.112 1.653,-0.4c0.63,-0.253 1.225,-0.375 1.771,-0.579c0.88,-0.397 1.951,-0.462 2.783,-0.942l0.249,-0.144c0.477,0.058 0.892,-0.182 1.177,-0.457c0.416,-0.24 0.879,-0.397 1.212,-0.589c0.844,-0.266 1.64,-0.615 2.389,-1.047c0.415,-0.24 0.735,-0.646 1.199,-0.803c0.844,-0.266 1.461,-0.733 2.161,-1.248c0.582,-0.336 1.164,-0.672 1.423,-1.376c0.63,-0.252 1.094,-0.409 1.247,-0.72c0.201,-0.227 0.355,-0.537 0.556,-0.764c0.25,-0.144 0.307,-0.621 0.736,-0.646c0.166,-0.096 0.044,-0.691 0.521,-0.634c0.223,-0.572 0.937,-0.873 1.112,-1.529c-0.157,-0.464 -0.157,-0.464 0.032,-0.905c0.153,-0.31 0.307,-0.621 0.508,-0.848c0.403,-0.454 0.364,-1.097 0.911,-1.302c0.058,-0.476 0.08,-0.822 0.233,-1.132c0.259,-0.704 0.208,-1.561 0.729,-2.194c0.118,-0.179 0.009,-0.56 0.259,-0.704c-0.336,-0.582 0.115,-0.953 0.338,-1.525c-0.131,-0.036 -0.227,-0.202 -0.227,-0.202c0.15,-1.084 0.3,-2.168 0.153,-3.192c-0.052,-0.857 -0.02,-1.762 -0.5,-2.593c-0,-0 -0.048,-0.084 -0.013,-0.215c-0.013,-0.214 0.105,-0.393 -0.087,-0.726c-0.227,-0.201 0.141,-0.524 -0.217,-0.761c-0.311,-0.153 -0.026,-0.428 -0.087,-0.726c-0.205,-0.547 -0.458,-1.176 -0.662,-1.723c-0.445,-0.963 -0.973,-1.877 -1.632,-2.827c-0.276,-0.285 -0.266,-0.844 -0.826,-0.854c-0.061,-0.297 -0.074,-0.511 -0.134,-0.809c-0.503,-0.486 -1.005,-0.972 -1.306,-1.685c0.035,-0.131 -0.013,-0.214 -0.061,-0.297c-0.572,-0.224 -0.742,-0.902 -1.363,-1.209c-0.227,-0.201 -0.537,-0.355 -0.681,-0.604c-0.157,-0.464 -0.467,-0.617 -0.777,-0.771c-0.228,-0.201 -0.538,-0.354 -0.979,-0.543c-0.048,-0.083 -0.179,-0.118 -0.394,-0.105c0.035,-0.131 -0.013,-0.215 -0.013,-0.215c-0.31,-0.153 -0.572,-0.223 -0.882,-0.377c-0.394,-0.105 -0.8,-0.425 -1.193,-0.53c-1.05,-0.281 -2.099,-0.562 -3.183,-0.712c-0.87,-0.163 -1.823,-0.278 -2.645,-0.358c-0.87,-0.163 -1.74,-0.325 -2.645,-0.357c-1.036,-0.067 -2.239,-0.038 -3.31,0.027c-0.857,0.051 -1.631,0.054 -2.488,0.106c-0.857,0.051 -1.667,0.186 -2.524,0.237c-0.38,0.109 -0.678,0.17 -0.975,0.231c-0.63,0.253 -1.308,0.423 -1.951,0.461c-0.857,0.052 -1.653,0.4 -2.414,0.618c-0.298,0.061 -0.464,0.157 -0.761,0.218c0.371,0.451 0.988,-0.016 1.276,0.482c-0.416,0.24 -0.832,0.48 -1.212,0.589c-0.25,0.144 -0.464,0.157 -0.761,0.218c-0.166,0.096 -0.464,0.157 -0.713,0.301c-0.285,0.275 -0.726,0.086 -1.142,0.326c-0.534,0.42 -1.212,0.589 -1.65,1.175c-0.643,0.038 -0.95,0.659 -1.532,0.995c-0.617,0.467 -1.211,0.589 -1.985,0.592c-0.036,0.131 -0.154,0.31 -0.285,0.275c-0.381,0.109 -0.582,0.336 -0.866,0.611c-0.119,0.18 -0.237,0.359 -0.451,0.372c-0.713,0.3 -1.151,0.886 -1.637,1.388c-0.167,0.096 -0.368,0.323 -0.534,0.419c-0.272,0.49 -0.592,0.896 -0.947,1.433c-0.201,0.227 -0.39,0.669 -0.508,0.848c-0.166,0.096 -0.297,0.061 -0.38,0.109c-0.154,0.31 -0.176,0.656 -0.377,0.883c-0.285,0.275 -0.355,0.537 -0.294,0.835c-0.202,0.227 -0.368,0.323 -0.355,0.537c-0.317,1.18 -0.502,2.396 -0.687,3.611c-0.166,0.096 -0.367,0.323 -0.665,0.384c-0.595,0.122 -1.177,0.458 -1.759,0.794c-0.546,0.205 -1.128,0.541 -1.675,0.745c-0.665,0.384 -1.343,0.554 -2.008,0.938c-0.464,0.157 -0.915,0.528 -1.331,0.768c-0.415,0.24 -0.783,0.563 -1.282,0.851c-0.534,0.419 -1.116,0.755 -1.65,1.175c-0.249,0.144 -0.451,0.371 -0.7,0.515c-0.534,0.419 -0.985,0.79 -1.436,1.161c-0.083,0.048 -0.07,0.262 -0.105,0.394c0.166,-0.096 0.464,-0.157 0.499,-0.288c0.153,-0.311 0.451,-0.372 0.735,-0.647c0.486,-0.502 1.116,-0.755 1.781,-1.139c-0.735,0.646 -1.387,1.245 -2.04,1.843c-0.249,0.144 -0.367,0.323 -0.39,0.669c0.298,-0.061 0.464,-0.157 0.678,-0.17c-0.022,0.345 -0.354,0.537 -0.617,0.467c-0.393,-0.105 -0.511,0.074 -0.713,0.301c-0.617,0.467 -0.924,1.087 -1.314,1.756c-0.319,0.406 -0.591,0.896 -0.946,1.433l-0.249,0.144c-0.154,0.31 -0.259,0.704 -0.413,1.014c-0.083,0.048 -0.214,0.013 -0.345,-0.022c0.105,-0.394 0.211,-0.787 0.351,-1.312c0,0 0.215,-0.012 0.346,0.023c0.153,-0.311 0.223,-0.573 0.46,-0.931c-0.131,-0.035 -0.214,0.013 -0.429,0.026l0.106,-0.394c0.179,0.118 0.31,0.154 0.441,0.189c0.189,-0.442 0.189,-0.442 0.972,-1.005c0.01,-0.559 0.316,-1.18 0.85,-1.599l-0.048,-0.083c-0.083,0.048 -0.214,0.013 -0.345,-0.023c-0.118,0.18 -0.189,0.442 -0.438,0.586c-0.499,0.288 -0.556,0.764 -0.662,1.158c-0.214,0.013 -0.38,0.109 -0.463,0.157c-0.451,0.371 -0.806,0.908 -1.078,1.398c-0.508,0.847 -0.933,1.647 -1.179,2.565c-0.435,1.359 -0.703,2.623 -0.53,4.075c0.061,0.297 0.039,0.643 0.183,0.892c0.384,0.665 0.602,1.426 0.903,2.139l0.24,0.416Zm3.558,-3.052c-0.061,-0.298 0.224,-0.573 0.211,-0.787c0.089,-1.382 0.799,-2.457 1.508,-3.531c0.592,-0.896 1.362,-1.674 2.133,-2.451c0.083,-0.048 0.249,-0.144 0.464,-0.157c0.153,-0.31 0.175,-0.656 0.674,-0.944c0.547,-0.204 1.081,-0.624 1.615,-1.043c0.166,-0.096 0.32,-0.406 0.521,-0.633c0.608,0.092 0.915,-0.528 1.365,-0.899c0.95,-0.659 1.9,-1.319 3.089,-1.562c0.167,-0.096 0.285,-0.275 0.403,-0.454c0.166,-0.096 0.381,-0.109 0.547,-0.205c0.297,-0.061 0.678,-0.17 0.879,-0.397c0.202,-0.227 0.499,-0.288 0.88,-0.397c0.323,0.368 0.777,0.771 1.148,1.222c0.407,0.319 0.73,0.687 1.171,0.875c0.573,0.224 1.027,0.627 1.516,0.899c0.49,0.271 1.062,0.495 1.504,0.684c1.324,0.565 2.517,1.096 3.877,1.53c0.31,0.154 0.62,0.307 1.001,0.198c0.083,-0.048 0.214,-0.013 0.428,-0.025c0.477,0.057 0.822,0.079 1.382,0.089l-0.192,-0.333c-1.324,-0.566 -2.649,-1.131 -3.855,-1.876c-1.695,-1.016 -3.272,-2.212 -4.197,-4.006c-0.096,-0.166 -0.24,-0.416 -0.301,-0.713l1.641,-0.615l0.083,-0.048c0.476,0.058 0.844,-0.265 1.308,-0.422c0.38,-0.109 0.892,-0.183 1.356,-0.34c0.546,-0.205 1.224,-0.374 1.854,-0.627c0.167,-0.096 0.512,-0.074 0.678,-0.17c0.132,0.035 0.263,0.07 0.298,-0.061c0.284,-0.275 0.761,-0.217 1.141,-0.326c0.333,-0.192 0.666,-0.384 1.046,-0.493c0.166,-0.096 0.464,-0.157 0.678,-0.17c0.131,0.035 0.262,0.07 0.346,0.022c0.617,-0.467 1.343,-0.553 2.069,-0.64l0.332,-0.192c0.416,-0.24 0.928,-0.314 1.404,-0.256c0.153,-0.311 0.451,-0.371 0.748,-0.432c0.941,-0.1 2.012,-0.164 2.939,-0.478c0.809,-0.134 1.571,-0.352 2.463,-0.535c0.892,-0.182 1.832,-0.282 2.725,-0.464c0.214,-0.013 0.345,0.022 0.428,-0.026c0.013,0.214 0.109,0.381 0.122,0.595c0.476,0.057 0.953,0.115 1.346,0.22c0.429,-0.026 0.822,0.08 1.299,0.137c0.07,-0.262 0.224,-0.572 -0.052,-0.857l-0.048,-0.083c0.084,-0.048 0.167,-0.096 0.298,-0.061c-0.192,-0.332 -0.253,-0.63 -0.1,-0.94c0.141,-0.525 -0.064,-1.072 -0.186,-1.666c-0.121,-0.595 -0.326,-1.142 -0.448,-1.737c-1.202,0.029 -2.274,0.094 -3.393,0.075c-0.595,0.122 -1.155,0.112 -1.798,0.151c-0.511,0.073 -1.106,0.195 -1.701,0.317c-0.726,0.086 -1.535,0.221 -2.261,0.308c-0.429,0.025 -0.809,0.134 -1.107,0.195c-0.975,0.231 -1.998,0.378 -2.974,0.609c-1.058,0.278 -2.117,0.557 -3.223,0.752c-0.464,0.157 -1.072,0.065 -1.487,0.305c-0.534,0.419 -1.321,0.208 -1.855,0.627c-0.512,0.074 -0.975,0.231 -1.522,0.435c-0.88,0.397 -1.951,0.462 -2.818,1.073c0,-0 -0.048,-0.083 -0.131,-0.035c-0.393,-0.106 -0.774,0.003 -1.01,0.361c-0.083,0.048 -0.215,0.013 -0.464,0.157c0.32,-0.406 0.473,-0.716 0.675,-0.943c0.035,-0.132 0.118,-0.18 0.153,-0.311c0.614,-1.241 1.73,-1.996 2.702,-3.001c0.687,-0.729 1.566,-1.126 2.302,-1.772c0.582,-0.336 1.032,-0.707 1.483,-1.078c0.547,-0.205 1.011,-0.362 1.51,-0.65c0.332,-0.192 0.713,-0.301 1.045,-0.493c0.784,-0.563 1.724,-0.663 2.603,-1.059c1.26,-0.506 2.664,-0.762 4.02,-1.102c0.595,-0.122 1.321,-0.208 1.999,-0.378c0.678,-0.17 1.238,-0.16 1.88,-0.199c0.167,-0.096 0.346,0.022 0.512,-0.074c1.177,-0.457 2.392,-0.272 3.56,-0.17c0.476,0.057 1.084,0.15 1.608,0.29c0.084,-0.048 0.167,-0.096 0.202,-0.227c1.036,0.067 2.203,0.169 3.24,0.236c0.131,0.035 0.345,0.022 0.476,0.057c0.765,0.557 1.705,0.457 2.588,0.834l0.393,0.106c0.394,0.105 0.739,0.127 0.918,0.246c0.323,0.367 0.717,0.473 1.027,0.626c0.573,0.224 1.062,0.495 1.385,0.863c0.323,0.368 0.765,0.556 1.088,0.924c1.017,1.186 1.654,2.481 2.125,3.872c0.122,0.595 0.243,1.19 0.531,1.689c0.157,0.464 0.183,0.892 0.34,1.356c0.109,0.38 0.086,0.726 0.112,1.154c0.016,0.989 0.081,2.06 0.062,3.179c0.016,0.989 -0.016,1.894 -0.262,2.812c-0.258,0.703 -0.469,1.49 -0.728,2.194c-0.153,0.31 -0.259,0.704 -0.412,1.014c-0.071,0.262 -0.272,0.489 -0.39,0.668c-0.767,1.552 -1.797,3.033 -2.743,4.466c-0.499,0.288 -0.591,0.896 -1.09,1.184c-0.39,0.668 -1.02,0.921 -1.458,1.507c-0.569,0.55 -1.234,0.934 -1.768,1.353c-0.534,0.419 -1.199,0.803 -1.781,1.139c-0.749,0.432 -1.545,0.781 -2.341,1.13c-0.963,0.445 -1.842,0.842 -2.804,1.286c-0.464,0.157 -0.976,0.231 -1.44,0.388c-0.713,0.301 -1.343,0.554 -2.021,0.723c-0.463,0.157 -1.01,0.362 -1.474,0.519c-1.404,0.256 -2.843,0.644 -4.247,0.9c-1.618,0.269 -3.284,0.455 -4.902,0.724c-1.155,0.113 -2.261,0.308 -3.416,0.42c-0.083,0.048 -0.249,0.144 -0.38,0.109c-0.643,0.039 -1.251,-0.054 -1.811,-0.063c-2.226,0.177 -4.416,0.222 -6.607,0.267c-0.988,0.017 -1.977,0.033 -2.882,0.001c-1.429,-0.172 -2.776,-0.392 -4.074,-0.529c-1.43,-0.172 -2.61,-0.489 -3.922,-0.84c-0.835,-0.294 -1.753,-0.54 -2.434,-1.144c-0.358,-0.237 -0.848,-0.508 -1.206,-0.745c-1.123,-0.793 -1.497,-2.018 -1.741,-3.207Z" style="fill-rule:nonzero;"/><path id="path-21" serif:id="path-2" d="M77.636,83.75c0.227,0.201 0.502,0.486 0.777,0.77c0.585,0.438 1.219,0.96 1.769,1.529c0.825,0.853 1.769,1.528 2.866,1.892c0.179,0.118 0.442,0.189 0.621,0.307c0.24,0.416 0.668,0.39 0.931,0.46c0.441,0.189 0.918,0.246 1.407,0.518c0.406,0.32 0.979,0.543 1.561,0.207c0.227,0.202 0.336,0.582 0.668,0.39c0.084,-0.048 0.132,0.035 0.215,-0.013c0.883,0.377 1.8,0.623 2.706,0.655c0.857,-0.051 1.727,0.111 2.645,0.357c0.476,0.058 0.857,-0.051 1.285,-0.077c1.037,0.067 1.942,0.099 2.93,0.082c0.297,-0.06 0.595,-0.121 0.94,-0.099c0.774,-0.003 1.583,-0.138 2.322,-0.01c0.131,0.035 0.262,0.07 0.345,0.022c0.714,-0.301 1.452,-0.173 2.226,-0.177c0.298,-0.061 0.726,-0.086 0.976,-0.23c0.332,-0.192 0.595,-0.122 0.94,-0.1c0.429,-0.025 0.857,-0.051 1.155,-0.112c0.428,-0.026 0.857,-0.051 1.368,-0.125c0.083,-0.048 0.119,-0.179 0.285,-0.275c0.345,0.022 0.739,0.127 1.215,0.185c0.035,-0.131 0.119,-0.179 0.237,-0.358c0.835,0.294 1.548,-0.007 2.309,-0.225c0.214,-0.013 0.38,-0.109 0.547,-0.205c0.988,-0.016 1.976,-0.033 2.843,-0.644c0.249,-0.144 0.595,-0.121 0.94,-0.099c0.345,0.022 0.713,-0.301 1.01,-0.362c0.836,-0.088 1.71,-0.111 2.478,-0.452l0.282,-0.144l0.084,-0.048c0.594,-0.121 1.154,-0.112 1.653,-0.4c0.63,-0.253 1.225,-0.375 1.771,-0.579c0.88,-0.397 1.951,-0.462 2.783,-0.942l0.249,-0.144c0.477,0.058 0.892,-0.182 1.177,-0.457c0.416,-0.24 0.879,-0.397 1.212,-0.589c0.844,-0.266 1.64,-0.615 2.389,-1.047c0.415,-0.24 0.735,-0.646 1.199,-0.803c0.844,-0.266 1.461,-0.733 2.161,-1.248c0.582,-0.336 1.164,-0.672 1.423,-1.376c0.63,-0.252 1.094,-0.409 1.247,-0.72c0.201,-0.227 0.355,-0.537 0.556,-0.764c0.25,-0.144 0.307,-0.621 0.736,-0.646c0.166,-0.096 0.044,-0.691 0.521,-0.634c0.223,-0.572 0.937,-0.873 1.112,-1.529c-0.157,-0.464 -0.157,-0.464 0.032,-0.905c0.153,-0.31 0.307,-0.621 0.508,-0.848c0.403,-0.454 0.364,-1.097 0.911,-1.302c0.058,-0.476 0.08,-0.822 0.233,-1.132c0.259,-0.704 0.208,-1.561 0.729,-2.194c0.118,-0.179 0.009,-0.56 0.259,-0.704c-0.336,-0.582 0.115,-0.953 0.338,-1.525c-0.131,-0.036 -0.227,-0.202 -0.227,-0.202c0.15,-1.084 0.3,-2.168 0.153,-3.192c-0.052,-0.857 -0.02,-1.762 -0.5,-2.593c-0,-0 -0.048,-0.084 -0.013,-0.215c-0.013,-0.214 0.105,-0.393 -0.087,-0.726c-0.227,-0.201 0.141,-0.524 -0.217,-0.761c-0.311,-0.153 -0.026,-0.428 -0.087,-0.726c-0.205,-0.547 -0.458,-1.176 -0.662,-1.723c-0.445,-0.963 -0.973,-1.877 -1.632,-2.827c-0.276,-0.285 -0.266,-0.844 -0.826,-0.854c-0.061,-0.297 -0.074,-0.511 -0.134,-0.809c-0.503,-0.486 -1.005,-0.972 -1.306,-1.685c0.035,-0.131 -0.013,-0.214 -0.061,-0.297c-0.572,-0.224 -0.742,-0.902 -1.363,-1.209c-0.227,-0.201 -0.537,-0.355 -0.681,-0.604c-0.157,-0.464 -0.467,-0.617 -0.777,-0.771c-0.228,-0.201 -0.538,-0.354 -0.979,-0.543c-0.048,-0.083 -0.179,-0.118 -0.394,-0.105c0.035,-0.131 -0.013,-0.215 -0.013,-0.215c-0.31,-0.153 -0.572,-0.223 -0.882,-0.377c-0.394,-0.105 -0.8,-0.425 -1.193,-0.53c-1.05,-0.281 -2.099,-0.562 -3.183,-0.712c-0.87,-0.163 -1.823,-0.278 -2.645,-0.358c-0.87,-0.163 -1.74,-0.325 -2.645,-0.357c-1.036,-0.067 -2.239,-0.038 -3.31,0.027c-0.857,0.051 -1.631,0.054 -2.488,0.106c-0.857,0.051 -1.667,0.186 -2.524,0.237c-0.38,0.109 -0.678,0.17 -0.975,0.231c-0.63,0.253 -1.308,0.423 -1.951,0.461c-0.857,0.052 -1.653,0.4 -2.414,0.618c-0.298,0.061 -0.464,0.157 -0.761,0.218c0.371,0.451 0.988,-0.016 1.276,0.482c-0.416,0.24 -0.832,0.48 -1.212,0.589c-0.25,0.144 -0.464,0.157 -0.761,0.218c-0.166,0.096 -0.464,0.157 -0.713,0.301c-0.285,0.275 -0.726,0.086 -1.142,0.326c-0.534,0.42 -1.212,0.589 -1.65,1.175c-0.643,0.038 -0.95,0.659 -1.532,0.995c-0.617,0.467 -1.211,0.589 -1.985,0.592c-0.036,0.131 -0.154,0.31 -0.285,0.275c-0.381,0.109 -0.582,0.336 -0.866,0.611c-0.119,0.18 -0.237,0.359 -0.451,0.372c-0.713,0.3 -1.151,0.886 -1.637,1.388c-0.167,0.096 -0.368,0.323 -0.534,0.419c-0.272,0.49 -0.592,0.896 -0.947,1.433c-0.201,0.227 -0.39,0.669 -0.508,0.848c-0.166,0.096 -0.297,0.061 -0.38,0.109c-0.154,0.31 -0.176,0.656 -0.377,0.883c-0.285,0.275 -0.355,0.537 -0.294,0.835c-0.202,0.227 -0.368,0.323 -0.355,0.537c-0.317,1.18 -0.502,2.396 -0.687,3.611c-0.166,0.096 -0.367,0.323 -0.665,0.384c-0.595,0.122 -1.177,0.458 -1.759,0.794c-0.546,0.205 -1.128,0.541 -1.675,0.745c-0.665,0.384 -1.343,0.554 -2.008,0.938c-0.464,0.157 -0.915,0.528 -1.331,0.768c-0.415,0.24 -0.783,0.563 -1.282,0.851c-0.534,0.419 -1.116,0.755 -1.65,1.175c-0.249,0.144 -0.451,0.371 -0.7,0.515c-0.534,0.419 -0.985,0.79 -1.436,1.161c-0.083,0.048 -0.07,0.262 -0.105,0.394c0.166,-0.096 0.464,-0.157 0.499,-0.288c0.153,-0.311 0.451,-0.372 0.735,-0.647c0.486,-0.502 1.116,-0.755 1.781,-1.139c-0.735,0.646 -1.387,1.245 -2.04,1.843c-0.249,0.144 -0.367,0.323 -0.39,0.669c0.298,-0.061 0.464,-0.157 0.678,-0.17c-0.022,0.345 -0.354,0.537 -0.617,0.467c-0.393,-0.105 -0.511,0.074 -0.713,0.301c-0.617,0.467 -0.924,1.087 -1.314,1.756c-0.319,0.406 -0.591,0.896 -0.946,1.433l-0.249,0.144c-0.154,0.31 -0.259,0.704 -0.413,1.014c-0.083,0.048 -0.214,0.013 -0.345,-0.022c0.105,-0.394 0.211,-0.787 0.351,-1.312c0,0 0.215,-0.012 0.346,0.023c0.153,-0.311 0.223,-0.573 0.46,-0.931c-0.131,-0.035 -0.214,0.013 -0.429,0.026l0.106,-0.394c0.179,0.118 0.31,0.154 0.441,0.189c0.189,-0.442 0.189,-0.442 0.972,-1.005c0.01,-0.559 0.316,-1.18 0.85,-1.599l-0.048,-0.083c-0.083,0.048 -0.214,0.013 -0.345,-0.023c-0.118,0.18 -0.189,0.442 -0.438,0.586c-0.499,0.288 -0.556,0.764 -0.662,1.158c-0.214,0.013 -0.38,0.109 -0.463,0.157c-0.451,0.371 -0.806,0.908 -1.078,1.398c-0.508,0.847 -0.933,1.647 -1.179,2.565c-0.435,1.359 -0.703,2.623 -0.53,4.075c0.061,0.297 0.039,0.643 0.183,0.892c0.384,0.665 0.602,1.426 0.903,2.139l0.24,0.416Zm3.558,-3.052c-0.061,-0.298 0.224,-0.573 0.211,-0.787c0.089,-1.382 0.799,-2.457 1.508,-3.531c0.592,-0.896 1.362,-1.674 2.133,-2.451c0.083,-0.048 0.249,-0.144 0.464,-0.157c0.153,-0.31 0.175,-0.656 0.674,-0.944c0.547,-0.204 1.081,-0.624 1.615,-1.043c0.166,-0.096 0.32,-0.406 0.521,-0.633c0.608,0.092 0.915,-0.528 1.365,-0.899c0.95,-0.659 1.9,-1.319 3.089,-1.562c0.167,-0.096 0.285,-0.275 0.403,-0.454c0.166,-0.096 0.381,-0.109 0.547,-0.205c0.297,-0.061 0.678,-0.17 0.879,-0.397c0.202,-0.227 0.499,-0.288 0.88,-0.397c0.323,0.368 0.777,0.771 1.148,1.222c0.407,0.319 0.73,0.687 1.171,0.875c0.573,0.224 1.027,0.627 1.516,0.899c0.49,0.271 1.062,0.495 1.504,0.684c1.324,0.565 2.517,1.096 3.877,1.53c0.31,0.154 0.62,0.307 1.001,0.198c0.083,-0.048 0.214,-0.013 0.428,-0.025c0.477,0.057 0.822,0.079 1.382,0.089l-0.192,-0.333c-1.324,-0.566 -2.649,-1.131 -3.855,-1.876c-1.695,-1.016 -3.272,-2.212 -4.197,-4.006c-0.096,-0.166 -0.24,-0.416 -0.301,-0.713l1.641,-0.615l0.083,-0.048c0.476,0.058 0.844,-0.265 1.308,-0.422c0.38,-0.109 0.892,-0.183 1.356,-0.34c0.546,-0.205 1.224,-0.374 1.854,-0.627c0.167,-0.096 0.512,-0.074 0.678,-0.17c0.132,0.035 0.263,0.07 0.298,-0.061c0.284,-0.275 0.761,-0.217 1.141,-0.326c0.333,-0.192 0.666,-0.384 1.046,-0.493c0.166,-0.096 0.464,-0.157 0.678,-0.17c0.131,0.035 0.262,0.07 0.346,0.022c0.617,-0.467 1.343,-0.553 2.069,-0.64l0.332,-0.192c0.416,-0.24 0.928,-0.314 1.404,-0.256c0.153,-0.311 0.451,-0.371 0.748,-0.432c0.941,-0.1 2.012,-0.164 2.939,-0.478c0.809,-0.134 1.571,-0.352 2.463,-0.535c0.892,-0.182 1.832,-0.282 2.725,-0.464c0.214,-0.013 0.345,0.022 0.428,-0.026c0.013,0.214 0.109,0.381 0.122,0.595c0.476,0.057 0.953,0.115 1.346,0.22c0.429,-0.026 0.822,0.08 1.299,0.137c0.07,-0.262 0.224,-0.572 -0.052,-0.857l-0.048,-0.083c0.084,-0.048 0.167,-0.096 0.298,-0.061c-0.192,-0.332 -0.253,-0.63 -0.1,-0.94c0.141,-0.525 -0.064,-1.072 -0.186,-1.666c-0.121,-0.595 -0.326,-1.142 -0.448,-1.737c-1.202,0.029 -2.274,0.094 -3.393,0.075c-0.595,0.122 -1.155,0.112 -1.798,0.151c-0.511,0.073 -1.106,0.195 -1.701,0.317c-0.726,0.086 -1.535,0.221 -2.261,0.308c-0.429,0.025 -0.809,0.134 -1.107,0.195c-0.975,0.231 -1.998,0.378 -2.974,0.609c-1.058,0.278 -2.117,0.557 -3.223,0.752c-0.464,0.157 -1.072,0.065 -1.487,0.305c-0.534,0.419 -1.321,0.208 -1.855,0.627c-0.512,0.074 -0.975,0.231 -1.522,0.435c-0.88,0.397 -1.951,0.462 -2.818,1.073c0,-0 -0.048,-0.083 -0.131,-0.035c-0.393,-0.106 -0.774,0.003 -1.01,0.361c-0.083,0.048 -0.215,0.013 -0.464,0.157c0.32,-0.406 0.473,-0.716 0.675,-0.943c0.035,-0.132 0.118,-0.18 0.153,-0.311c0.614,-1.241 1.73,-1.996 2.702,-3.001c0.687,-0.729 1.566,-1.126 2.302,-1.772c0.582,-0.336 1.032,-0.707 1.483,-1.078c0.547,-0.205 1.011,-0.362 1.51,-0.65c0.332,-0.192 0.713,-0.301 1.045,-0.493c0.784,-0.563 1.724,-0.663 2.603,-1.059c1.26,-0.506 2.664,-0.762 4.02,-1.102c0.595,-0.122 1.321,-0.208 1.999,-0.378c0.678,-0.17 1.238,-0.16 1.88,-0.199c0.167,-0.096 0.346,0.022 0.512,-0.074c1.177,-0.457 2.392,-0.272 3.56,-0.17c0.476,0.057 1.084,0.15 1.608,0.29c0.084,-0.048 0.167,-0.096 0.202,-0.227c1.036,0.067 2.203,0.169 3.24,0.236c0.131,0.035 0.345,0.022 0.476,0.057c0.765,0.557 1.705,0.457 2.588,0.834l0.393,0.106c0.394,0.105 0.739,0.127 0.918,0.246c0.323,0.367 0.717,0.473 1.027,0.626c0.573,0.224 1.062,0.495 1.385,0.863c0.323,0.368 0.765,0.556 1.088,0.924c1.017,1.186 1.654,2.481 2.125,3.872c0.122,0.595 0.243,1.19 0.531,1.689c0.157,0.464 0.183,0.892 0.34,1.356c0.109,0.38 0.086,0.726 0.112,1.154c0.016,0.989 0.081,2.06 0.062,3.179c0.016,0.989 -0.016,1.894 -0.262,2.812c-0.258,0.703 -0.469,1.49 -0.728,2.194c-0.153,0.31 -0.259,0.704 -0.412,1.014c-0.071,0.262 -0.272,0.489 -0.39,0.668c-0.767,1.552 -1.797,3.033 -2.743,4.466c-0.499,0.288 -0.591,0.896 -1.09,1.184c-0.39,0.668 -1.02,0.921 -1.458,1.507c-0.569,0.55 -1.234,0.934 -1.768,1.353c-0.534,0.419 -1.199,0.803 -1.781,1.139c-0.749,0.432 -1.545,0.781 -2.341,1.13c-0.963,0.445 -1.842,0.842 -2.804,1.286c-0.464,0.157 -0.976,0.231 -1.44,0.388c-0.713,0.301 -1.343,0.554 -2.021,0.723c-0.463,0.157 -1.01,0.362 -1.474,0.519c-1.404,0.256 -2.843,0.644 -4.247,0.9c-1.618,0.269 -3.284,0.455 -4.902,0.724c-1.155,0.113 -2.261,0.308 -3.416,0.42c-0.083,0.048 -0.249,0.144 -0.38,0.109c-0.643,0.039 -1.251,-0.054 -1.811,-0.063c-2.226,0.177 -4.416,0.222 -6.607,0.267c-0.988,0.017 -1.977,0.033 -2.882,0.001c-1.429,-0.172 -2.776,-0.392 -4.074,-0.529c-1.43,-0.172 -2.61,-0.489 -3.922,-0.84c-0.835,-0.294 -1.753,-0.54 -2.434,-1.144c-0.358,-0.237 -0.848,-0.508 -1.206,-0.745c-1.123,-0.793 -1.497,-2.018 -1.741,-3.207Z" style="fill-rule:nonzero;"/></g><g id="古典派長調"><text x="57px" y="114px" style="font-family:'NotoSansSC-Bold', 'Noto Sans SC', sans-serif;font-weight:700;font-size:21px;">古典派大调</text></g><g id="古典派短調"><text x="540px" y="114px" style="font-family:'NotoSansSC-Bold', 'Noto Sans SC', sans-serif;font-weight:700;font-size:21px;">古典派小调</text></g><g id="O1" serif:id="O"><path id="path-3" d="M617.65,39.147c0.191,-0.292 0.573,-0.486 1.146,-0.389c-0.191,0.291 -0.573,0.486 -1.146,0.389Zm-5.446,2.134c0.286,-0.388 0.764,-0.582 1.337,-0.679l0,0.679c-0.478,-0.485 -0.669,0.097 -1.337,0Zm-11.466,6.016c-0.573,-0.097 -0,-0.873 0.382,-0.679c0.191,0.485 -0.382,0.388 -0.382,0.679Zm-17.007,12.809c-0.574,-0.097 -0.096,-1.165 0.477,-0.874c-0.095,0.292 -0.382,0.583 -0.477,0.874Zm-2.102,0.776c-0.287,0.388 -0.382,0.873 -1.147,0.873c0.382,-0.388 0.478,-0.873 1.147,-0.873Zm30.097,18.63c0.191,-0.097 0.191,-0.291 0.478,-0.291c-0.383,-0.776 -0,-1.164 0.382,-1.649c0.191,0.776 -0.382,0.679 -0.191,1.455c1.433,-0.291 1.624,-1.94 2.77,-2.62c-0.095,0.388 0.192,0.485 0.478,0.485c-0.095,-0.97 0.096,-0.485 0.669,-0.485c0.669,-0.873 1.147,-2.037 1.815,-1.843c0,-0.388 -0.095,-0.874 0.192,-0.874c0.191,0 0.286,0.194 0.477,0.194c0,-0.291 0,-0.679 0.287,-0.679c0.478,-0.388 -0.287,-0.582 0.191,-0.679c0.287,-0 0.191,0.388 0.478,0.388c-0.086,-0.437 -0.017,-0.795 0.345,-0.862l0.132,-0.011c0,-0.194 0,-0.291 0.192,-0.291c0.955,-0.68 2.866,-2.62 2.77,-4.367c0.191,0.097 0.383,0.194 0.669,0.194c5.829,-10.479 -1.051,-23.191 -10.988,-25.325c1.72,-1.65 6.02,-2.426 8.695,-3.785c0.382,0.388 2.675,-0.291 2.102,-0.873c-1.146,0.388 -3.917,1.455 -4.586,0.873c1.911,-0.194 2.197,-0.776 4.108,-0.873c-1.624,-1.358 -5.35,-0.194 -7.548,1.553c0,-0.195 -0.095,-0.389 -0.286,-0.389c-0.096,1.359 -1.147,0.486 -1.816,0.389c-0.573,0.388 0.287,0.873 -0.191,0.97c-0.478,-0 -0.191,-0.776 -0.764,-0.679c-0.444,0.63 -1.464,0.675 -1.761,1.611l-0.017,0.072l0.007,-0.091c-0.019,-0.496 -0.961,-0.063 -1.382,-0.234c-0,0.388 -0,0.679 -0.287,0.679c-0.478,-0.485 -0.478,0.291 -0.86,0.485c-1.242,-0.291 -1.624,0.486 -3.44,0.292c-6.974,2.328 -12.803,5.045 -17.485,10.188c-1.146,1.359 -1.528,3.299 -2.675,4.658c-0.573,0.582 -1.337,0.679 -1.624,1.649c-0.096,-0.388 -0.287,0.097 -0.669,0c-4.777,5.24 -12.708,12.129 -15.67,19.601c-2.579,6.501 2.102,13.099 8.313,13.973c0.191,-0.194 0.382,-0.291 0.669,-0.291c0.382,0.97 1.529,0.582 2.102,0.291c-0,0.388 0.095,0.582 0.382,0.679c0,-0.194 0.096,-0.291 0.287,-0.291c-0,-0.097 0.191,-0.194 0.191,-0c1.242,-0.485 1.911,-0.097 2.962,-0.679c-0.191,0.388 -0.191,0.582 0.286,0.679c-0.095,-0.582 0.478,-0.582 0.86,-0.679c0,0.291 0.096,0.388 0.287,0.485c-0.191,-0.776 0.86,-0.388 0.191,-0c1.147,-0 0.096,-0.776 0.955,-0.97c0.192,0.291 0.096,0.873 0.669,0.776c0.096,-1.165 1.625,-0.971 2.771,-0.971c1.529,-0.873 3.918,-1.746 5.733,-2.134c-0.478,-0.388 0.669,-0.485 0.86,-0c0.955,-1.456 2.484,-0.582 3.439,-2.523c0.192,0.194 0.287,0.388 0.478,0.485c0.287,-1.164 0.956,-0.097 0.956,-1.164c0.955,0.097 0.191,0.873 0.86,0.873c1.242,-2.717 4.872,-2.329 6.21,-4.367c0,0.389 0.191,0.583 0.478,0.68c0.095,-0.777 0.478,-1.262 0.955,-1.65c0,0.194 0.383,1.164 0.669,0.485c-0.478,-0.097 -0.095,-1.067 0.478,-0.97c-0.191,0.194 -0.382,0.679 -0,0.776c0.382,-0.194 -0,-1.164 0.382,-1.164c0,0.194 0.669,0.776 0.764,0.194c-0.191,-0.097 -0.477,-0.194 -0.477,-0.485l1.337,-0c-0.382,-1.068 0.86,-0.388 0.956,-0.874Zm3.917,-39.589c-0.382,0.291 -0.86,0.679 -1.624,0.679c0.191,-0.582 0.955,-0.679 1.624,-0.679Zm2.007,-0.776c-0.382,0.582 -1.72,0.873 -2.007,0.776c0.191,-0.776 1.338,-0.485 2.007,-0.776Zm-28.378,16.301c1.529,-0.388 1.338,-1.164 2.676,-1.552c1.146,-1.165 3.535,-2.62 5.35,-3.785c2.676,-2.426 7.166,-3.881 9.364,-5.142c4.108,0.194 8.312,0.097 11.657,2.134c3.535,2.038 7.548,7.666 5.541,13.488c-2.962,8.539 -10.797,14.749 -19.969,20.28c-7.262,4.366 -15.67,8.151 -23.409,8.83c-6.019,0.582 -10.223,-0.679 -12.612,-4.367c-0.096,-2.231 0.764,-3.396 0.764,-5.433c0.956,-0.68 1.338,-2.038 1.816,-3.203c-0.765,0.194 -0.382,-0.485 -0,-0.485c1.146,-0.388 0.286,-1.94 1.624,-1.843c-0.095,-1.068 0.478,-2.814 1.815,-2.329c-0.764,-2.038 2.198,-2.135 2.007,-4.173c0.287,0 0.382,0.194 0.478,0.389c1.624,-2.232 3.153,-3.494 4.586,-5.531c0.382,-0 0.287,0.485 0.478,0.679c0.477,-1.65 2.006,-2.232 2.77,-3.493c0.86,0.194 0.669,1.552 2.007,1.164c-0.478,-1.358 1.911,-3.784 3.057,-5.628Zm32.104,14.264l0,0.194c-0.478,0.097 -0.191,0.873 -0.955,0.679c0.286,-0.291 0.191,-0.97 0.955,-0.873Z" style="fill-rule:nonzero;"/><path id="path-31" serif:id="path-3" d="M617.65,39.147c0.191,-0.292 0.573,-0.486 1.146,-0.389c-0.191,0.291 -0.573,0.486 -1.146,0.389Zm-5.446,2.134c0.286,-0.388 0.764,-0.582 1.337,-0.679l0,0.679c-0.478,-0.485 -0.669,0.097 -1.337,0Zm-11.466,6.016c-0.573,-0.097 -0,-0.873 0.382,-0.679c0.191,0.485 -0.382,0.388 -0.382,0.679Zm-17.007,12.809c-0.574,-0.097 -0.096,-1.165 0.477,-0.874c-0.095,0.292 -0.382,0.583 -0.477,0.874Zm-2.102,0.776c-0.287,0.388 -0.382,0.873 -1.147,0.873c0.382,-0.388 0.478,-0.873 1.147,-0.873Zm30.097,18.63c0.191,-0.097 0.191,-0.291 0.478,-0.291c-0.383,-0.776 -0,-1.164 0.382,-1.649c0.191,0.776 -0.382,0.679 -0.191,1.455c1.433,-0.291 1.624,-1.94 2.77,-2.62c-0.095,0.388 0.192,0.485 0.478,0.485c-0.095,-0.97 0.096,-0.485 0.669,-0.485c0.669,-0.873 1.147,-2.037 1.815,-1.843c0,-0.388 -0.095,-0.874 0.192,-0.874c0.191,0 0.286,0.194 0.477,0.194c0,-0.291 0,-0.679 0.287,-0.679c0.478,-0.388 -0.287,-0.582 0.191,-0.679c0.287,-0 0.191,0.388 0.478,0.388c-0.086,-0.437 -0.017,-0.795 0.345,-0.862l0.132,-0.011c0,-0.194 0,-0.291 0.192,-0.291c0.955,-0.68 2.866,-2.62 2.77,-4.367c0.191,0.097 0.383,0.194 0.669,0.194c5.829,-10.479 -1.051,-23.191 -10.988,-25.325c1.72,-1.65 6.02,-2.426 8.695,-3.785c0.382,0.388 2.675,-0.291 2.102,-0.873c-1.146,0.388 -3.917,1.455 -4.586,0.873c1.911,-0.194 2.197,-0.776 4.108,-0.873c-1.624,-1.358 -5.35,-0.194 -7.548,1.553c0,-0.195 -0.095,-0.389 -0.286,-0.389c-0.096,1.359 -1.147,0.486 -1.816,0.389c-0.573,0.388 0.287,0.873 -0.191,0.97c-0.478,-0 -0.191,-0.776 -0.764,-0.679c-0.444,0.63 -1.464,0.675 -1.761,1.611l-0.017,0.072l0.007,-0.091c-0.019,-0.496 -0.961,-0.063 -1.382,-0.234c-0,0.388 -0,0.679 -0.287,0.679c-0.478,-0.485 -0.478,0.291 -0.86,0.485c-1.242,-0.291 -1.624,0.486 -3.44,0.292c-6.974,2.328 -12.803,5.045 -17.485,10.188c-1.146,1.359 -1.528,3.299 -2.675,4.658c-0.573,0.582 -1.337,0.679 -1.624,1.649c-0.096,-0.388 -0.287,0.097 -0.669,0c-4.777,5.24 -12.708,12.129 -15.67,19.601c-2.579,6.501 2.102,13.099 8.313,13.973c0.191,-0.194 0.382,-0.291 0.669,-0.291c0.382,0.97 1.529,0.582 2.102,0.291c-0,0.388 0.095,0.582 0.382,0.679c0,-0.194 0.096,-0.291 0.287,-0.291c-0,-0.097 0.191,-0.194 0.191,-0c1.242,-0.485 1.911,-0.097 2.962,-0.679c-0.191,0.388 -0.191,0.582 0.286,0.679c-0.095,-0.582 0.478,-0.582 0.86,-0.679c0,0.291 0.096,0.388 0.287,0.485c-0.191,-0.776 0.86,-0.388 0.191,-0c1.147,-0 0.096,-0.776 0.955,-0.97c0.192,0.291 0.096,0.873 0.669,0.776c0.096,-1.165 1.625,-0.971 2.771,-0.971c1.529,-0.873 3.918,-1.746 5.733,-2.134c-0.478,-0.388 0.669,-0.485 0.86,-0c0.955,-1.456 2.484,-0.582 3.439,-2.523c0.192,0.194 0.287,0.388 0.478,0.485c0.287,-1.164 0.956,-0.097 0.956,-1.164c0.955,0.097 0.191,0.873 0.86,0.873c1.242,-2.717 4.872,-2.329 6.21,-4.367c0,0.389 0.191,0.583 0.478,0.68c0.095,-0.777 0.478,-1.262 0.955,-1.65c0,0.194 0.383,1.164 0.669,0.485c-0.478,-0.097 -0.095,-1.067 0.478,-0.97c-0.191,0.194 -0.382,0.679 -0,0.776c0.382,-0.194 -0,-1.164 0.382,-1.164c0,0.194 0.669,0.776 0.764,0.194c-0.191,-0.097 -0.477,-0.194 -0.477,-0.485l1.337,-0c-0.382,-1.068 0.86,-0.388 0.956,-0.874Zm3.917,-39.589c-0.382,0.291 -0.86,0.679 -1.624,0.679c0.191,-0.582 0.955,-0.679 1.624,-0.679Zm2.007,-0.776c-0.382,0.582 -1.72,0.873 -2.007,0.776c0.191,-0.776 1.338,-0.485 2.007,-0.776Zm-28.378,16.301c1.529,-0.388 1.338,-1.164 2.676,-1.552c1.146,-1.165 3.535,-2.62 5.35,-3.785c2.676,-2.426 7.166,-3.881 9.364,-5.142c4.108,0.194 8.312,0.097 11.657,2.134c3.535,2.038 7.548,7.666 5.541,13.488c-2.962,8.539 -10.797,14.749 -19.969,20.28c-7.262,4.366 -15.67,8.151 -23.409,8.83c-6.019,0.582 -10.223,-0.679 -12.612,-4.367c-0.096,-2.231 0.764,-3.396 0.764,-5.433c0.956,-0.68 1.338,-2.038 1.816,-3.203c-0.765,0.194 -0.382,-0.485 -0,-0.485c1.146,-0.388 0.286,-1.94 1.624,-1.843c-0.095,-1.068 0.478,-2.814 1.815,-2.329c-0.764,-2.038 2.198,-2.135 2.007,-4.173c0.287,0 0.382,0.194 0.478,0.389c1.624,-2.232 3.153,-3.494 4.586,-5.531c0.382,-0 0.287,0.485 0.478,0.679c0.477,-1.65 2.006,-2.232 2.77,-3.493c0.86,0.194 0.669,1.552 2.007,1.164c-0.478,-1.358 1.911,-3.784 3.057,-5.628Zm32.104,14.264l0,0.194c-0.478,0.097 -0.191,0.873 -0.955,0.679c0.286,-0.291 0.191,-0.97 0.955,-0.873Z" style="fill-rule:nonzero;"/></g></g><defs><linearGradient id="_Linear1" x1="0" y1="0" x2="1" y2="0" gradientUnits="userSpaceOnUse" gradientTransform="matrix(-566,6.9315e-14,-6.9315e-14,-566,633.5,180.616)"><stop offset="0" style="stop-color:#3d7af5;stop-opacity:1"/><stop offset="1" style="stop-color:#f63;stop-opacity:1"/></linearGradient></defs></svg>