<?xml version="1.0" encoding="UTF-8" standalone="no"?><!DOCTYPE svg PUBLIC "-//W3C//DTD SVG 1.1//EN" "http://www.w3.org/Graphics/SVG/1.1/DTD/svg11.dtd"><svg width="730.0px" height="584.0px" viewBox="0 0 730 584" version="1.1" xmlns="http://www.w3.org/2000/svg" xmlns:xlink="http://www.w3.org/1999/xlink" xml:space="preserve" xmlns:serif="http://www.serif.com/" style="fill-rule:evenodd;clip-rule:evenodd;"><g id="c1-diatonic-seventh-interval-stacked-maj7-or-min7"><g id="Group-324"><path id="Stroke-304" d="M38,468.5l662,0" style="fill:none;stroke:#b8b8b8;stroke-width:0.5px;"/><path id="Stroke-306" d="M38,428.5l662,0" style="fill:none;stroke:#b8b8b8;stroke-width:0.5px;"/><path id="Stroke-308" d="M38,388.5l662,0" style="fill:none;stroke:#b8b8b8;stroke-width:0.5px;"/><path id="Stroke-310" d="M38,348.5l662,0" style="fill:none;stroke:#b8b8b8;stroke-width:0.5px;"/><path id="Stroke-312" d="M38,308.5l662,0" style="fill:none;stroke:#b8b8b8;stroke-width:0.5px;"/><path id="Stroke-314" d="M38,268.5l662,0" style="fill:none;stroke:#b8b8b8;stroke-width:0.5px;"/><path id="Stroke-316" d="M38,228.5l662,0" style="fill:none;stroke:#b8b8b8;stroke-width:0.5px;"/><path id="Stroke-318" d="M38,188.5l662,0" style="fill:none;stroke:#b8b8b8;stroke-width:0.5px;"/><path id="Stroke-320" d="M38,148.5l662,0" style="fill:none;stroke:#b8b8b8;stroke-width:0.5px;"/><path id="Stroke-3161" serif:id="Stroke-316" d="M38,108.5l662,0" style="fill:none;stroke:#b8b8b8;stroke-width:0.5px;"/><path id="Stroke-3181" serif:id="Stroke-318" d="M38,68.5l662,0" style="fill:none;stroke:#b8b8b8;stroke-width:0.5px;"/><path id="Stroke-3201" serif:id="Stroke-320" d="M38,28.5l662,0" style="fill:none;stroke:#b8b8b8;stroke-width:0.5px;"/></g><rect id="Axis" x="25" y="508" width="660" height="4"/><rect id="Rectangle" x="131" y="468" width="55" height="40"/><rect id="Rectangle1" serif:id="Rectangle" x="131" y="308" width="55" height="40" style="fill:#ccc;"/><rect id="Rectangle2" serif:id="Rectangle" x="131" y="188" width="55" height="40" style="fill:#ccc;"/><rect id="Rectangle3" serif:id="Rectangle" x="131" y="428" width="55" height="40" style="fill:#aaa;"/><rect id="Rectangle4" serif:id="Rectangle" x="131" y="388" width="55" height="40" style="fill:#ccc;"/><rect id="Rectangle5" serif:id="Rectangle" x="131" y="348" width="55" height="40" style="fill:#aaa;"/><rect id="Rectangle6" serif:id="Rectangle" x="131" y="268" width="55" height="40" style="fill:#ccc;"/><rect id="Rectangle7" serif:id="Rectangle" x="131" y="228" width="55" height="40" style="fill:#aaa;"/><g id="Group"><rect id="Rectangle8" serif:id="Rectangle" x="326" y="468" width="55" height="40"/><rect id="Rectangle9" serif:id="Rectangle" x="326" y="188" width="55" height="40" style="fill:#ccc;"/><rect id="Rectangle10" serif:id="Rectangle" x="326" y="428" width="55" height="40" style="fill:#aaa;"/><rect id="Rectangle11" serif:id="Rectangle" x="326" y="388" width="55" height="40" style="fill:#ccc;"/><rect id="Rectangle12" serif:id="Rectangle" x="326" y="348" width="55" height="40" style="fill:#ccc;"/><rect id="Rectangle13" serif:id="Rectangle" x="326" y="268" width="55" height="40" style="fill:#ccc;"/><rect id="Rectangle14" serif:id="Rectangle" x="326" y="308" width="55" height="40" style="fill:#aaa;"/><rect id="Rectangle15" serif:id="Rectangle" x="326" y="228" width="55" height="40" style="fill:#aaa;"/><rect id="Rectangle16" serif:id="Rectangle" x="411" y="188" width="55" height="40" style="fill:#ccc;"/><rect id="Rectangle17" serif:id="Rectangle" x="411" y="268" width="55" height="40" style="fill:#ccc;"/><rect id="Rectangle18" serif:id="Rectangle" x="411" y="228" width="55" height="40" style="fill:#aaa;"/><rect id="Rectangle19" serif:id="Rectangle" x="411" y="308" width="55" height="40" style="fill:#aaa;"/><rect id="Rectangle20" serif:id="Rectangle" x="326" y="108" width="55" height="40" style="fill:#ccc;"/><rect id="Rectangle21" serif:id="Rectangle" x="326" y="68" width="55" height="40" style="fill:#f63;"/><rect id="Rectangle22" serif:id="Rectangle" x="411" y="148" width="55" height="40" style="fill:#ccc;"/><rect id="Rectangle23" serif:id="Rectangle" x="411" y="108" width="55" height="40" style="fill:#aaa;"/><rect id="Rectangle24" serif:id="Rectangle" x="411" y="68" width="55" height="40" style="fill:#f63;"/><rect id="Rectangle25" serif:id="Rectangle" x="326" y="148" width="55" height="40" style="fill:#aaa;"/><rect id="Rectangle26" serif:id="Rectangle" x="411" y="468" width="55" height="40"/><rect id="Rectangle27" serif:id="Rectangle" x="411" y="348" width="55" height="40" style="fill:#ccc;"/><rect id="Rectangle28" serif:id="Rectangle" x="411" y="428" width="55" height="40" style="fill:#ccc;"/><rect id="Rectangle29" serif:id="Rectangle" x="411" y="388" width="55" height="40" style="fill:#aaa;"/></g><g id="Group-2"><rect id="Rectangle30" serif:id="Rectangle" x="216" y="308" width="55" height="40" style="fill:#ccc;"/><rect id="Rectangle31" serif:id="Rectangle" x="216" y="468" width="55" height="40"/><rect id="Rectangle32" serif:id="Rectangle" x="216" y="388" width="55" height="40" style="fill:#ccc;"/><rect id="Rectangle33" serif:id="Rectangle" x="216" y="428" width="55" height="40" style="fill:#aaa;"/><rect id="Rectangle34" serif:id="Rectangle" x="216" y="348" width="55" height="40" style="fill:#aaa;"/><rect id="Rectangle35" serif:id="Rectangle" x="216" y="228" width="55" height="40" style="fill:#ccc;"/><rect id="Rectangle36" serif:id="Rectangle" x="216" y="188" width="55" height="40" style="fill:#ccc;"/><rect id="Rectangle37" serif:id="Rectangle" x="216" y="28" width="55" height="40" style="fill:#3db8f5;"/><rect id="Rectangle38" serif:id="Rectangle" x="216" y="148" width="55" height="40" style="fill:#aaa;"/><rect id="Rectangle39" serif:id="Rectangle" x="216" y="108" width="55" height="40" style="fill:#ccc;"/><rect id="Rectangle40" serif:id="Rectangle" x="216" y="68" width="55" height="40" style="fill:#aaa;"/><rect id="Rectangle41" serif:id="Rectangle" x="216" y="268" width="55" height="40" style="fill:#aaa;"/></g><rect id="Rectangle42" serif:id="Rectangle" x="131" y="28" width="55" height="40" style="fill:#3db8f5;"/><g id="シ"></g><rect id="Rectangle43" serif:id="Rectangle" x="131" y="108" width="55" height="40" style="fill:#ccc;"/><rect id="Rectangle44" serif:id="Rectangle" x="131" y="68" width="55" height="40" style="fill:#aaa;"/><rect id="Rectangle45" serif:id="Rectangle" x="131" y="148" width="55" height="40" style="fill:#aaa;"/><rect id="Rectangle46" serif:id="Rectangle" x="496" y="308" width="55" height="40" style="fill:#ccc;"/><rect id="Rectangle47" serif:id="Rectangle" x="496" y="268" width="55" height="40" style="fill:#ccc;"/><rect id="Rectangle48" serif:id="Rectangle" x="496" y="228" width="55" height="40" style="fill:#aaa;"/><rect id="Rectangle49" serif:id="Rectangle" x="496" y="188" width="55" height="40" style="fill:#ccc;"/><g id="Group-3"><rect id="Rectangle50" serif:id="Rectangle" x="581" y="468" width="55" height="40"/><rect id="Rectangle51" serif:id="Rectangle" x="581" y="388" width="55" height="40" style="fill:#ccc;"/><rect id="Rectangle52" serif:id="Rectangle" x="581" y="348" width="55" height="40" style="fill:#ccc;"/><rect id="Rectangle53" serif:id="Rectangle" x="581" y="188" width="55" height="40" style="fill:#ccc;"/><rect id="Rectangle54" serif:id="Rectangle" x="581" y="68" width="55" height="40" style="fill:#f63;"/><rect id="Rectangle55" serif:id="Rectangle" x="581" y="148" width="55" height="40" style="fill:#ccc;"/><rect id="Rectangle56" serif:id="Rectangle" x="581" y="108" width="55" height="40" style="fill:#aaa;"/><g id="Group1" serif:id="Group" opacity="0.2"><g id="CS-sharp"><g id="_-" serif:id="♯"><text x="618.971px" y="132px" style="font-family:'HelveticaNeue-Bold', 'Helvetica Neue';font-weight:700;font-size:18px;fill:#fff;">♯</text></g></g></g><rect id="Rectangle57" serif:id="Rectangle" x="581" y="308" width="55" height="40" style="fill:#aaa;"/><rect id="Rectangle58" serif:id="Rectangle" x="581" y="268" width="55" height="40" style="fill:#ccc;"/><rect id="Rectangle59" serif:id="Rectangle" x="581" y="228" width="55" height="40" style="fill:#aaa;"/><rect id="Rectangle60" serif:id="Rectangle" x="581" y="428" width="55" height="40" style="fill:#aaa;"/></g><path id="Line" d="M103,503l0,-2l6,0l0,-466l-6,0l0,-2l14,0l0,2l-6,0l0,466l6,0l0,2l-14,0Z" style="fill:#3db8f5;fill-rule:nonzero;"/><path id="Line1" serif:id="Line" d="M649,503l0,-2l6,0l0,-427l-6,0l0,-2l14,0l0,2l-6,0l0,427l6,0l0,2l-14,0Z" style="fill:#f63;fill-rule:nonzero;"/><rect id="Rectangle61" serif:id="Rectangle" x="68" y="201" width="37" height="100" style="fill:#3db8f5;"/><rect id="Rectangle62" serif:id="Rectangle" x="663" y="201" width="37" height="100" style="fill:#f63;"/><g id="長-7-度"><text x="74px" y="235px" style="font-family:'HiraginoSans-W6', 'Hiragino Sans', sans-serif;font-weight:600;font-size:24px;fill:#fff;">大</text><text x="77.456px" y="260px" style="font-family:'HiraginoSans-W6', 'Hiragino Sans', sans-serif;font-weight:600;font-size:24px;fill:#fff;">7</text><text x="74px" y="285px" style="font-family:'HiraginoSans-W6', 'Hiragino Sans', sans-serif;font-weight:600;font-size:24px;fill:#fff;">度</text></g><g id="短-7-度"><text x="669px" y="237px" style="font-family:'HiraginoSans-W6', 'Hiragino Sans', sans-serif;font-weight:600;font-size:24px;fill:#fff;">小</text><text x="672.456px" y="262px" style="font-family:'HiraginoSans-W6', 'Hiragino Sans', sans-serif;font-weight:600;font-size:24px;fill:#fff;">7</text><text x="669px" y="287px" style="font-family:'HiraginoSans-W6', 'Hiragino Sans', sans-serif;font-weight:600;font-size:24px;fill:#fff;">度</text></g><g id="ド"><text x="699.5px" y="415px" style="font-family:'HiraginoSans-W6', 'Hiragino Sans', sans-serif;font-weight:600;font-size:20px;fill:#fff;">ド</text></g><rect id="Rectangle63" serif:id="Rectangle" x="496" y="388" width="55" height="40" style="fill:#ccc;"/><rect id="Rectangle64" serif:id="Rectangle" x="496" y="348" width="55" height="40" style="fill:#aaa;"/><rect id="Rectangle65" serif:id="Rectangle" x="496" y="428" width="55" height="40" style="fill:#aaa;"/><rect id="Rectangle66" serif:id="Rectangle" x="496" y="468" width="55" height="40"/><g id="Group2" serif:id="Group" opacity="0.2"><g id="CS-sharp1" serif:id="CS-sharp"><g id="_-1" serif:id="♯"><text x="358.971px" y="412px" style="font-family:'HelveticaNeue-Bold', 'Helvetica Neue';font-weight:700;font-size:18px;fill:#fff;">♯</text></g></g></g><rect id="Rectangle67" serif:id="Rectangle" x="496" y="148" width="55" height="40" style="fill:#aaa;"/><rect id="Rectangle68" serif:id="Rectangle" x="496" y="108" width="55" height="40" style="fill:#ccc;"/><rect id="Rectangle69" serif:id="Rectangle" x="496" y="68" width="55" height="40" style="fill:#f63;"/><g id="Degree"><path d="M20.46,497.22c1.82,0 3.5,-0.98 4.52,-2.64c1.12,-1.82 1.84,-4.38 1.84,-6.54c-0,-2.62 -1.24,-4.1 -3.42,-4.1c-2.34,0 -4.32,1.66 -5.38,4.48c-0.58,1.54 -0.92,3.28 -0.92,4.66c-0,2.68 1.2,4.14 3.36,4.14Zm0.26,-0.84c-0.82,-0 -1.34,-0.76 -1.34,-1.98c-0,-2.52 0.8,-5.96 1.84,-8c0.54,-1.06 1.24,-1.62 2,-1.62c0.82,-0 1.32,0.72 1.32,1.86c-0,2.8 -0.88,6.54 -2,8.48c-0.44,0.78 -1.14,1.26 -1.82,1.26Z" style="fill:#888;"/></g><g id="Degree1" serif:id="Degree"><path d="M23.82,457l0.16,-0.78l-0.26,0c-1,0 -1.4,-0.24 -1.4,-0.82c-0,-0.34 0.06,-0.84 0.18,-1.38l1.4,-6.62c0.38,-1.72 0.56,-2.48 0.78,-3.22l-0.5,-0.36c-1.12,0.6 -2.34,1.16 -4.24,1.92l0.2,0.78c1.08,-0.4 1.26,-0.46 1.74,-0.66c-0.02,0.16 -0.04,0.26 -0.08,0.46l-0.14,0.6l-1.5,7.1c-0.42,1.96 -0.62,2.14 -2.3,2.2l-0.16,0.78c1.14,-0.06 1.84,-0.08 3.08,-0.08c1.24,0 1.92,0.02 3.04,0.08Z" style="fill:#888;"/></g><g id="Degree2" serif:id="Degree"><path d="M23.86,417c0.72,-1.18 1.24,-1.98 1.88,-2.88l-0.66,-0.26c-0.5,0.62 -0.88,0.92 -1.46,1.1c-0.433,0.133 -0.631,0.156 -2.258,0.159l-1.587,0c-0.317,-0.002 -0.755,-0.006 -1.315,-0.019c0.88,-0.68 1.12,-0.88 2.62,-2.02c2.16,-1.64 3.14,-2.5 3.94,-3.4c1.02,-1.14 1.48,-2.18 1.48,-3.24c-0,-1.52 -1.14,-2.5 -2.88,-2.5c-1.86,-0 -3.64,1.12 -5.12,3.18l0.66,0.36c1.12,-1.34 2.04,-1.9 3.06,-1.9c0.94,-0 1.6,0.6 1.6,1.48c-0,0.76 -0.52,1.82 -1.48,2.98c-1.56,1.9 -4.14,4.34 -6.72,6.34l0.12,0.62c0.16,-0.006 0.315,-0.012 0.468,-0.017l0.456,-0.014c0.685,-0.019 1.397,-0.029 2.436,-0.029c1.68,-0 2.72,0.02 4.76,0.06Z" style="fill:#888;"/></g><g id="Degree3" serif:id="Degree"><path d="M19.58,377.22c1.94,0 3.62,-0.74 4.72,-2.08c0.72,-0.86 1.12,-1.92 1.12,-2.92c-0,-1.48 -0.88,-2.3 -2.68,-2.48c2.16,-0.72 3.3,-1.94 3.3,-3.52c-0,-1.36 -1.06,-2.28 -2.6,-2.28c-1.54,-0 -2.98,0.76 -4.42,2.32l0.58,0.48c0.98,-1 1.82,-1.46 2.68,-1.46c0.82,-0 1.34,0.56 1.34,1.42c-0,0.68 -0.32,1.36 -0.86,1.88c-0.6,0.58 -1.36,0.86 -2.64,0.96l-0.16,0.76c2.08,-0 2.98,0.64 2.98,2.16c-0,2.02 -1.34,3.88 -2.8,3.88c-0.66,-0 -1.12,-0.38 -1.24,-1c-0.1,-0.58 -0.1,-0.58 -0.22,-0.7c-0.14,-0.2 -0.4,-0.32 -0.7,-0.32c-0.78,-0 -1.38,0.54 -1.38,1.24c-0,0.96 1.24,1.66 2.98,1.66Z" style="fill:#888;"/></g><g id="Degree4" serif:id="Degree"><path d="M23.44,337l0.74,-3.46l1.64,0l0.34,-1.54l-1.66,0l1.76,-8.3l-2.48,0.72l-6.54,7.54l-0.54,1.58l5.2,0l-0.72,3.46l2.26,0Zm-1.2,-5l-3.82,0l5.14,-5.98l-1.32,5.98Z" style="fill:#888;"/></g><g id="Degree5" serif:id="Degree"><path d="M19.32,297.22c1.96,0 3.74,-0.84 5,-2.38c0.88,-1.08 1.4,-2.4 1.4,-3.58c-0,-1.86 -1.36,-3 -3.62,-3c-0.48,-0 -0.84,0.04 -1.42,0.14l0.88,-2.24l4.7,0l0.96,-2l-5.92,0l-2.46,6.28l0.34,0.32c0.68,-0.2 1.22,-0.28 1.84,-0.28c1.62,0 2.56,0.78 2.56,2.1c-0,1.86 -1.64,3.72 -3.26,3.72c-0.58,-0 -1.02,-0.36 -1.26,-1c-0.24,-0.72 -0.4,-0.86 -0.96,-0.86c-0.74,-0 -1.36,0.58 -1.36,1.28c-0,0.88 1.06,1.5 2.58,1.5Z" style="fill:#888;"/></g><g id="Degree6" serif:id="Degree"><path d="M20.7,257.22c2.84,0 5.32,-2.32 5.32,-4.98c-0,-1.64 -1.12,-2.74 -2.78,-2.74c-0.92,-0 -1.72,0.28 -2.86,0.98c1.1,-2.72 3.14,-4.74 6.2,-6.14l-0.16,-0.6c-1.84,0.58 -3.56,1.56 -5.18,2.9c-2.62,2.2 -4.06,4.72 -4.06,7.14c-0,2.14 1.34,3.44 3.52,3.44Zm0.34,-0.86c-0.98,0 -1.56,-0.74 -1.56,-2.02c-0,-0.96 0.16,-1.8 0.54,-2.88c0.7,-0.54 1.32,-0.78 2,-0.78c1,0 1.6,0.78 1.6,2.04c-0,2.02 -1.16,3.64 -2.58,3.64Z" style="fill:#888;"/></g><g id="Degree7" serif:id="Degree"><path d="M20,217l7.72,-12.44l-0.14,-0.4l-7.84,0l-1.38,3.18l0.72,0c0.68,-1.1 1.18,-1.3 3.4,-1.32l2.98,0l-7.08,9.82c-0.332,0.485 -0.492,0.701 -0.632,0.894l-0.092,0.128c-0.031,0.044 -0.062,0.089 -0.096,0.138l2.44,0Z" style="fill:#888;"/></g><g id="Degree8" serif:id="Degree"><path d="M20.58,170.22c2.78,0 5.06,-1.86 5.06,-4.16c-0,-1.1 -0.54,-1.96 -2,-3.14c2,-0.88 3.12,-2.18 3.12,-3.64c-0,-1.42 -1.22,-2.34 -3.14,-2.34c-2.64,-0 -4.8,1.82 -4.8,4.04c-0,0.9 0.36,1.54 1.3,2.32c0.24,0.22 0.26,0.22 0.4,0.36c-2.38,1.08 -3.52,2.36 -3.52,3.96c-0,1.54 1.44,2.6 3.58,2.6Zm2.44,-7.84c-1.48,-1.02 -2.06,-1.72 -2.06,-2.52c-0,-1.1 0.98,-2.02 2.16,-2.02c0.98,0 1.58,0.64 1.58,1.64c-0,1.1 -0.58,2.1 -1.68,2.9Zm-2.16,7c-1.04,0 -1.72,-0.74 -1.72,-1.86c-0,-1.26 0.76,-2.44 2.1,-3.26c1.52,1.18 2,1.8 2,2.68c-0,1.38 -1.04,2.44 -2.38,2.44Z" style="fill:#888;"/></g><g id="Degree9" serif:id="Degree"><path d="M17.72,133.3c1.66,-0.56 3.32,-1.42 4.8,-2.54c2.74,-2.08 4.36,-4.8 4.36,-7.36c-0,-2.18 -1.32,-3.46 -3.52,-3.46c-2.86,-0 -5.32,2.32 -5.32,5c-0,1.6 1.14,2.72 2.76,2.72c0.96,-0 1.82,-0.28 2.86,-0.96c-1.08,2.62 -3.1,4.56 -6.12,5.92l0.18,0.68Zm4.3,-6.82c-0.98,-0 -1.58,-0.78 -1.58,-2.04c-0,-2.04 1.14,-3.64 2.58,-3.64c1.04,-0 1.6,0.72 1.6,2.06c-0,0.92 -0.18,1.76 -0.58,2.84c-0.68,0.52 -1.34,0.78 -2.02,0.78Z" style="fill:#888;"/></g><g id="Degree10" serif:id="Degree"><path d="M18.5,94.698l0.16,-0.78l-0.26,-0c-1,-0 -1.4,-0.24 -1.4,-0.82c-0,-0.34 0.06,-0.84 0.18,-1.38l1.4,-6.62c0.38,-1.72 0.56,-2.48 0.78,-3.22l-0.5,-0.36c-1.12,0.6 -2.34,1.16 -4.24,1.92l0.2,0.78c1.08,-0.4 1.26,-0.46 1.74,-0.66c-0.02,0.16 -0.04,0.26 -0.08,0.46l-0.14,0.6l-1.5,7.1c-0.42,1.96 -0.62,2.14 -2.3,2.2l-0.16,0.78c1.14,-0.06 1.84,-0.08 3.08,-0.08c1.24,-0 1.92,0.02 3.04,0.08Zm7.28,0.22c1.82,-0 3.5,-0.98 4.52,-2.64c1.12,-1.82 1.84,-4.38 1.84,-6.54c0,-2.62 -1.24,-4.1 -3.42,-4.1c-2.34,-0 -4.32,1.66 -5.38,4.48c-0.58,1.54 -0.92,3.28 -0.92,4.66c0,2.68 1.2,4.14 3.36,4.14Zm0.26,-0.84c-0.82,-0 -1.34,-0.76 -1.34,-1.98c0,-2.52 0.8,-5.96 1.84,-8c0.54,-1.06 1.24,-1.62 2,-1.62c0.82,-0 1.32,0.72 1.32,1.86c0,2.8 -0.88,6.54 -2,8.48c-0.44,0.78 -1.14,1.26 -1.82,1.26Z" style="fill:#888;"/></g><g id="Degree11" serif:id="Degree"><path d="M18.5,54.698l0.16,-0.78l-0.26,-0c-1,-0 -1.4,-0.24 -1.4,-0.82c-0,-0.34 0.06,-0.84 0.18,-1.38l1.4,-6.62c0.38,-1.72 0.56,-2.48 0.78,-3.22l-0.5,-0.36c-1.12,0.6 -2.34,1.16 -4.24,1.92l0.2,0.78c1.08,-0.4 1.26,-0.46 1.74,-0.66c-0.02,0.16 -0.04,0.26 -0.08,0.46l-0.14,0.6l-1.5,7.1c-0.42,1.96 -0.62,2.14 -2.3,2.2l-0.16,0.78c1.14,-0.06 1.84,-0.08 3.08,-0.08c1.24,-0 1.92,0.02 3.04,0.08Zm10.64,-0l0.16,-0.78l-0.26,-0c-1,-0 -1.4,-0.24 -1.4,-0.82c0,-0.34 0.06,-0.84 0.18,-1.38l1.4,-6.62c0.38,-1.72 0.56,-2.48 0.78,-3.22l-0.5,-0.36c-1.12,0.6 -2.34,1.16 -4.24,1.92l0.2,0.78c1.08,-0.4 1.26,-0.46 1.74,-0.66c-0.02,0.16 -0.04,0.26 -0.08,0.46l-0.14,0.6l-1.5,7.1c-0.42,1.96 -0.62,2.14 -2.3,2.2l-0.16,0.78c1.14,-0.06 1.84,-0.08 3.08,-0.08c1.24,-0 1.92,0.02 3.04,0.08Z" style="fill:#888;"/></g><g><g id="ド1" serif:id="ド"><text x="139.737px" y="499.954px" style="font-family:'NotoSansSC-Bold', 'Noto Sans SC', sans-serif;font-weight:700;font-size:27px;fill:#fff;">do</text></g><g id="ミ"><text x="145.382px" y="337.954px" style="font-family:'NotoSansSC-Bold', 'Noto Sans SC', sans-serif;font-weight:700;font-size:20px;fill:#fff;">mi</text></g><g id="ソ"><text x="141.522px" y="216.954px" style="font-family:'NotoSansSC-Bold', 'Noto Sans SC', sans-serif;font-weight:700;font-size:20px;fill:#fff;">sol</text></g><g id="ド2" serif:id="ド"><text x="141.382px" y="456.954px" style="font-family:'NotoSansSC-Bold', 'Noto Sans SC', sans-serif;font-weight:700;font-size:20px;fill:#fff;">do</text></g><g id="レ"><text x="146.382px" y="416.954px" style="font-family:'NotoSansSC-Bold', 'Noto Sans SC', sans-serif;font-weight:700;font-size:20px;fill:#fff;">r<tspan x="154.862px " y="416.954px ">e</tspan></text></g><g id="Group3" serif:id="Group" opacity="0.2"><g id="CS-sharp2" serif:id="CS-sharp"><g id="_-2" serif:id="♯"><text x="165.353px" y="453.954px" style="font-family:'HelveticaNeue-Bold', 'Helvetica Neue';font-weight:700;font-size:18px;fill:#fff;">♯</text></g></g></g><g id="レ1" serif:id="レ"><text x="141.382px" y="376.954px" style="font-family:'NotoSansSC-Bold', 'Noto Sans SC', sans-serif;font-weight:700;font-size:20px;fill:#fff;">r<tspan x="149.862px " y="376.954px ">e</tspan></text></g><g id="Group4" serif:id="Group" opacity="0.2"><g id="CS-sharp3" serif:id="CS-sharp"><g id="_-3" serif:id="♯"><text x="161.353px" y="373.954px" style="font-family:'HelveticaNeue-Bold', 'Helvetica Neue';font-weight:700;font-size:18px;fill:#fff;">♯</text></g></g></g><g id="ファ"><text x="148.482px" y="296.954px" style="font-family:'NotoSansSC-Bold', 'Noto Sans SC', sans-serif;font-weight:700;font-size:20px;fill:#fff;">f<tspan x="154.462px " y="296.954px ">a</tspan></text></g><g id="ファ1" serif:id="ファ"><text x="145.482px" y="255.954px" style="font-family:'NotoSansSC-Bold', 'Noto Sans SC', sans-serif;font-weight:700;font-size:20px;fill:#fff;">f<tspan x="151.462px " y="255.954px ">a</tspan></text></g><g id="Group5" serif:id="Group" opacity="0.2"><g id="CS-sharp4" serif:id="CS-sharp"><g id="_-4" serif:id="♯"><text x="164.353px" y="252.954px" style="font-family:'HelveticaNeue-Bold', 'Helvetica Neue';font-weight:700;font-size:18px;fill:#fff;">♯</text></g></g></g><g id="シ1" serif:id="シ"><text x="145.095px" y="59.954px" style="font-family:'NotoSansSC-Bold', 'Noto Sans SC', sans-serif;font-weight:700;font-size:27px;fill:#fff;">si</text></g><g id="ラ"><text x="145.882px" y="136.954px" style="font-family:'HiraginoSans-W6', 'Hiragino Sans', sans-serif;font-weight:600;font-size:20px;fill:#fff;">l<tspan x="150.302px " y="136.954px ">a</tspan></text></g><g id="ラ1" serif:id="ラ"><text x="144.832px" y="95.954px" style="font-family:'HiraginoSans-W6', 'Hiragino Sans', sans-serif;font-weight:600;font-size:20px;fill:#fff;">l<tspan x="149.252px " y="95.954px ">a</tspan></text></g><g id="Group6" serif:id="Group" opacity="0.2"><g id="CS-sharp5" serif:id="CS-sharp"><g id="_-5" serif:id="♯"><text x="162.353px" y="92.954px" style="font-family:'HelveticaNeue-Bold', 'Helvetica Neue';font-weight:700;font-size:18px;fill:#fff;">♯</text></g></g></g><g id="ソ1" serif:id="ソ"><text x="139.022px" y="175.954px" style="font-family:'NotoSansSC-Bold', 'Noto Sans SC', sans-serif;font-weight:700;font-size:20px;fill:#fff;">s<tspan x="147.922px 159.442px " y="175.954px 175.954px ">ol</tspan></text></g><g id="Group7" serif:id="Group" opacity="0.2"><g id="CS-sharp6" serif:id="CS-sharp"><g id="_-6" serif:id="♯"><text x="166.353px" y="172.954px" style="font-family:'HelveticaNeue-Bold', 'Helvetica Neue';font-weight:700;font-size:18px;fill:#fff;">♯</text></g></g></g></g><g><g id="ラ2" serif:id="ラ"><text x="231.28px" y="336.819px" style="font-family:'HiraginoSans-W6', 'Hiragino Sans', sans-serif;font-weight:600;font-size:20px;fill:#fff;">la</text></g><g id="ファ2" serif:id="ファ"><text x="231.83px" y="497.819px" style="font-family:'NotoSansSC-Bold', 'Noto Sans SC', sans-serif;font-weight:700;font-size:27px;fill:#fff;">f<tspan x="239.633px " y="497.819px ">a</tspan></text></g><g id="ソ2" serif:id="ソ"><text x="225.49px" y="415.819px" style="font-family:'HiraginoSans-W6', 'Hiragino Sans', sans-serif;font-weight:600;font-size:20px;fill:#fff;">s<tspan x="236.35px 248.75px " y="415.819px 415.819px ">ol</tspan></text></g><g id="ファ3" serif:id="ファ"><text x="228.22px" y="454.819px" style="font-family:'HiraginoSans-W6', 'Hiragino Sans', sans-serif;font-weight:600;font-size:20px;fill:#fff;">f<tspan x="236.76px " y="454.819px ">a</tspan></text></g><g id="Group8" serif:id="Group" opacity="0.2"><g id="CS-sharp7" serif:id="CS-sharp"><g id="_-7" serif:id="♯"><text x="249.8px" y="451.819px" style="font-family:'HelveticaNeue-Bold', 'Helvetica Neue';font-weight:700;font-size:18px;fill:#fff;">♯</text></g></g></g><g id="ソ3" serif:id="ソ"><text x="222.49px" y="374.819px" style="font-family:'HiraginoSans-W6', 'Hiragino Sans', sans-serif;font-weight:600;font-size:20px;fill:#fff;">s<tspan x="233.35px 245.75px " y="374.819px 374.819px ">ol</tspan></text></g><g id="Group9" serif:id="Group" opacity="0.2"><g id="CS-sharp8" serif:id="CS-sharp"><g id="_-8" serif:id="♯"><text x="249.8px" y="371.819px" style="font-family:'HelveticaNeue-Bold', 'Helvetica Neue';font-weight:700;font-size:18px;fill:#fff;">♯</text></g></g></g><g id="シ2" serif:id="シ"><text x="231.69px" y="255.819px" style="font-family:'HiraginoSans-W6', 'Hiragino Sans', sans-serif;font-weight:600;font-size:20px;fill:#fff;">s<tspan x="242.55px " y="255.819px ">i</tspan></text></g><g id="ド3" serif:id="ド"><text x="228.56px" y="214.819px" style="font-family:'HiraginoSans-W6', 'Hiragino Sans', sans-serif;font-weight:600;font-size:20px;fill:#fff;">do</text></g><g id="ミ1" serif:id="ミ"><text x="224.212px" y="58.819px" style="font-family:'NotoSansSC-Bold', 'Noto Sans SC', sans-serif;font-weight:700;font-size:27px;fill:#fff;">mi</text></g><g id="ド4" serif:id="ド"><text x="225.06px" y="175.819px" style="font-family:'HiraginoSans-W6', 'Hiragino Sans', sans-serif;font-weight:600;font-size:20px;fill:#fff;">do</text></g><g id="レ2" serif:id="レ"><text x="229.54px" y="135.819px" style="font-family:'HiraginoSans-W6', 'Hiragino Sans', sans-serif;font-weight:600;font-size:20px;fill:#fff;">re</text></g><g id="Group10" serif:id="Group" opacity="0.25"><g id="CS-sharp9" serif:id="CS-sharp"><g id="_-9" serif:id="♯"><text x="251.8px" y="172.819px" style="font-family:'HelveticaNeue-Bold', 'Helvetica Neue';font-weight:700;font-size:18px;fill:#fff;">♯</text></g></g></g><g id="レ3" serif:id="レ"><text x="224.54px" y="95.819px" style="font-family:'HiraginoSans-W6', 'Hiragino Sans', sans-serif;font-weight:600;font-size:20px;fill:#fff;">re</text></g><g id="Group11" serif:id="Group" opacity="0.25"><g id="CS-sharp10" serif:id="CS-sharp"><g id="_-10" serif:id="♯"><text x="248.8px" y="92.819px" style="font-family:'HelveticaNeue-Bold', 'Helvetica Neue';font-weight:700;font-size:18px;fill:#fff;">♯</text></g></g></g><g id="ラ3" serif:id="ラ"><text x="228.28px" y="294.819px" style="font-family:'HiraginoSans-W6', 'Hiragino Sans', sans-serif;font-weight:600;font-size:20px;fill:#fff;">l<tspan x="232.7px " y="294.819px ">a</tspan></text></g><g id="Group12" serif:id="Group" opacity="0.2"><g id="CS-sharp11" serif:id="CS-sharp"><g id="_-11" serif:id="♯"><text x="245.8px" y="291.819px" style="font-family:'HelveticaNeue-Bold', 'Helvetica Neue';font-weight:700;font-size:18px;fill:#fff;">♯</text></g></g></g></g><g><g id="レ4" serif:id="レ"><text x="340.989px" y="498.022px" style="font-family:'HiraginoSans-W6', 'Hiragino Sans', sans-serif;font-weight:600;font-size:27px;fill:#fff;">re</text></g><g id="ラ4" serif:id="ラ"><text x="346.18px" y="218.022px" style="font-family:'HiraginoSans-W6', 'Hiragino Sans', sans-serif;font-weight:600;font-size:20px;fill:#fff;">la</text></g><g id="ファ4" serif:id="ファ"><text x="342.1px" y="377.022px" style="font-family:'HiraginoSans-W6', 'Hiragino Sans', sans-serif;font-weight:600;font-size:20px;fill:#fff;">f<tspan x="350.44px " y="377.022px ">a</tspan></text></g><g id="レ5" serif:id="レ"><text x="340.44px" y="455.022px" style="font-family:'HiraginoSans-W6', 'Hiragino Sans', sans-serif;font-weight:600;font-size:20px;fill:#fff;">re</text></g><g id="ミ2" serif:id="ミ"><text x="338.92px" y="415.022px" style="font-family:'HiraginoSans-W6', 'Hiragino Sans', sans-serif;font-weight:600;font-size:20px;fill:#fff;">mi</text></g><g id="Group13" serif:id="Group" opacity="0.2"><g id="CS-sharp12" serif:id="CS-sharp"><g id="_-12" serif:id="♯"><text x="360.701px" y="452.022px" style="font-family:'HelveticaNeue-Bold', 'Helvetica Neue';font-weight:700;font-size:18px;fill:#fff;">♯</text></g></g></g><g id="ソ4" serif:id="ソ"><text x="338.39px" y="295.022px" style="font-family:'HiraginoSans-W6', 'Hiragino Sans', sans-serif;font-weight:600;font-size:20px;fill:#fff;">s<tspan x="349.25px 361.65px " y="295.022px 295.022px ">ol</tspan></text></g><g id="ファ5" serif:id="ファ"><text x="343.12px" y="334.022px" style="font-family:'HiraginoSans-W6', 'Hiragino Sans', sans-serif;font-weight:600;font-size:20px;fill:#fff;">f<tspan x="351.66px " y="334.022px ">a</tspan></text></g><g id="Group14" serif:id="Group" opacity="0.2"><g id="CS-sharp13" serif:id="CS-sharp"><g id="_-13" serif:id="♯"><text x="366.701px" y="331.022px" style="font-family:'HelveticaNeue-Bold', 'Helvetica Neue';font-weight:700;font-size:18px;fill:#fff;">♯</text></g></g></g><g id="ソ5" serif:id="ソ"><text x="337.39px" y="254.022px" style="font-family:'HiraginoSans-W6', 'Hiragino Sans', sans-serif;font-weight:600;font-size:20px;fill:#fff;">s<tspan x="348.25px 360.65px " y="254.022px 254.022px ">ol</tspan></text></g><g id="Group15" serif:id="Group" opacity="0.2"><g id="CS-sharp14" serif:id="CS-sharp"><g id="_-14" serif:id="♯"><text x="360.701px" y="251.022px" style="font-family:'HelveticaNeue-Bold', 'Helvetica Neue';font-weight:700;font-size:18px;fill:#fff;">♯</text></g></g></g><g id="シ3" serif:id="シ"><text x="346.59px" y="135.022px" style="font-family:'HiraginoSans-W6', 'Hiragino Sans', sans-serif;font-weight:600;font-size:20px;fill:#fff;">s<tspan x="357.45px " y="135.022px ">i</tspan></text></g><g id="ド5" serif:id="ド"><text x="338.085px" y="98.022px" style="font-family:'NotoSansSC-Bold', 'Noto Sans SC', sans-serif;font-weight:700;font-size:27px;fill:#fff;">do</text></g><g id="ラ5" serif:id="ラ"><text x="343.18px" y="174.022px" style="font-family:'HiraginoSans-W6', 'Hiragino Sans', sans-serif;font-weight:600;font-size:20px;fill:#fff;">l<tspan x="347.6px " y="174.022px ">a</tspan></text></g><g id="Group16" serif:id="Group" opacity="0.2"><g id="CS-sharp15" serif:id="CS-sharp"><g id="_-15" serif:id="♯"><text x="360.701px" y="171.022px" style="font-family:'HelveticaNeue-Bold', 'Helvetica Neue';font-weight:700;font-size:18px;fill:#fff;">♯</text></g></g></g></g><g><g id="シ4" serif:id="シ"><text x="430.257px" y="215.59px" style="font-family:'HiraginoSans-W6', 'Hiragino Sans', sans-serif;font-weight:600;font-size:20px;fill:#fff;">si</text></g><g id="ラ6" serif:id="ラ"><text x="428.707px" y="295.59px" style="font-family:'HiraginoSans-W6', 'Hiragino Sans', sans-serif;font-weight:600;font-size:20px;fill:#fff;">l<tspan x="433.127px " y="295.59px ">a</tspan></text></g><g id="ラ7" serif:id="ラ"><text x="425.707px" y="254.59px" style="font-family:'HiraginoSans-W6', 'Hiragino Sans', sans-serif;font-weight:600;font-size:20px;fill:#fff;">l<tspan x="430.127px " y="254.59px ">a</tspan></text></g><g id="Group17" serif:id="Group" opacity="0.2"><g id="CS-sharp16" serif:id="CS-sharp"><g id="_-16" serif:id="♯"><text x="443.227px" y="251.59px" style="font-family:'HelveticaNeue-Bold', 'Helvetica Neue';font-weight:700;font-size:18px;fill:#fff;">♯</text></g></g></g><g id="ソ6" serif:id="ソ"><text x="419.917px" y="334.59px" style="font-family:'HiraginoSans-W6', 'Hiragino Sans', sans-serif;font-weight:600;font-size:20px;fill:#fff;">s<tspan x="430.777px 443.177px " y="334.59px 334.59px ">ol</tspan></text></g><g id="Group18" serif:id="Group" opacity="0.2"><g id="CS-sharp17" serif:id="CS-sharp"><g id="_-17" serif:id="♯"><text x="443.227px" y="331.59px" style="font-family:'HelveticaNeue-Bold', 'Helvetica Neue';font-weight:700;font-size:18px;fill:#fff;">♯</text></g></g></g><g id="ド6" serif:id="ド"><text x="423.987px" y="175.59px" style="font-family:'HiraginoSans-W6', 'Hiragino Sans', sans-serif;font-weight:600;font-size:20px;fill:#fff;">d<tspan x="437.127px " y="175.59px ">o</tspan></text></g><g id="ド7" serif:id="ド"><text x="421.987px" y="134.59px" style="font-family:'HiraginoSans-W6', 'Hiragino Sans', sans-serif;font-weight:600;font-size:20px;fill:#fff;">d<tspan x="435.127px " y="134.59px ">o</tspan></text></g><g id="レ6" serif:id="レ"><text x="425.189px" y="98.59px" style="font-family:'NotoSansSC-Bold', 'Noto Sans SC', sans-serif;font-weight:700;font-size:27px;fill:#fff;">r<tspan x="436.637px " y="98.59px ">e</tspan></text></g><g id="Group19" serif:id="Group" opacity="0.2"><g id="CS-sharp18" serif:id="CS-sharp"><g id="_-18" serif:id="♯"><text x="447.227px" y="131.59px" style="font-family:'HelveticaNeue-Bold', 'Helvetica Neue';font-weight:700;font-size:18px;fill:#fff;">♯</text></g></g></g><g id="ミ3" serif:id="ミ"><text x="421.639px" y="498.59px" style="font-family:'NotoSansSC-Bold', 'Noto Sans SC', sans-serif;font-weight:700;font-size:27px;fill:#fff;">mi</text></g><g id="ソ7" serif:id="ソ"><text x="422.417px" y="378.59px" style="font-family:'HiraginoSans-W6', 'Hiragino Sans', sans-serif;font-weight:600;font-size:20px;fill:#fff;">sol</text></g><g id="ファ6" serif:id="ファ"><text x="428.647px" y="455.59px" style="font-family:'HiraginoSans-W6', 'Hiragino Sans', sans-serif;font-weight:600;font-size:20px;fill:#fff;">f<tspan x="437.187px " y="455.59px ">a</tspan></text></g><g id="ファ7" serif:id="ファ"><text x="425.647px" y="414.59px" style="font-family:'HiraginoSans-W6', 'Hiragino Sans', sans-serif;font-weight:600;font-size:20px;fill:#fff;">f<tspan x="434.187px " y="414.59px ">a</tspan></text></g><g id="Group20" serif:id="Group" opacity="0.2"><g id="CS-sharp19" serif:id="CS-sharp"><g id="_-19" serif:id="♯"><text x="447.227px" y="411.59px" style="font-family:'HelveticaNeue-Bold', 'Helvetica Neue';font-weight:700;font-size:18px;fill:#fff;">♯</text></g></g></g></g><g><g id="シ5" serif:id="シ"><text x="514.367px" y="339.052px" style="font-family:'HiraginoSans-W6', 'Hiragino Sans', sans-serif;font-weight:600;font-size:20px;fill:#fff;">si</text></g><g id="ド8" serif:id="ド"><text x="509.237px" y="296.052px" style="font-family:'HiraginoSans-W6', 'Hiragino Sans', sans-serif;font-weight:600;font-size:20px;fill:#fff;">d<tspan x="522.377px " y="296.052px ">o</tspan></text></g><g id="ド9" serif:id="ド"><text x="506.237px" y="255.052px" style="font-family:'HiraginoSans-W6', 'Hiragino Sans', sans-serif;font-weight:600;font-size:20px;fill:#fff;">d<tspan x="519.377px " y="255.052px ">o</tspan></text></g><g id="レ7" serif:id="レ"><text x="510.717px" y="216.052px" style="font-family:'HiraginoSans-W6', 'Hiragino Sans', sans-serif;font-weight:600;font-size:20px;fill:#fff;">re</text></g><g id="Group21" serif:id="Group" opacity="0.2"><g id="CS-sharp20" serif:id="CS-sharp"><g id="_-20" serif:id="♯"><text x="532.478px" y="252.052px" style="font-family:'HelveticaNeue-Bold', 'Helvetica Neue';font-weight:700;font-size:18px;fill:#fff;">♯</text></g></g></g><g id="ラ8" serif:id="ラ"><text x="513.957px" y="416.052px" style="font-family:'HiraginoSans-W6', 'Hiragino Sans', sans-serif;font-weight:600;font-size:20px;fill:#fff;">l<tspan x="518.377px " y="416.052px ">a</tspan></text></g><g id="ラ9" serif:id="ラ"><text x="510.957px" y="375.052px" style="font-family:'HiraginoSans-W6', 'Hiragino Sans', sans-serif;font-weight:600;font-size:20px;fill:#fff;">l<tspan x="515.377px " y="375.052px ">a</tspan></text></g><g id="Group22" serif:id="Group" opacity="0.2"><g id="CS-sharp21" serif:id="CS-sharp"><g id="_-21" serif:id="♯"><text x="528.478px" y="372.052px" style="font-family:'HelveticaNeue-Bold', 'Helvetica Neue';font-weight:700;font-size:18px;fill:#fff;">♯</text></g></g></g><g id="ソ8" serif:id="ソ"><text x="505.167px" y="455.052px" style="font-family:'HiraginoSans-W6', 'Hiragino Sans', sans-serif;font-weight:600;font-size:20px;fill:#fff;">s<tspan x="516.027px 528.427px " y="455.052px 455.052px ">ol</tspan></text></g><g id="Group23" serif:id="Group" opacity="0.2"><g id="CS-sharp22" serif:id="CS-sharp"><g id="_-22" serif:id="♯"><text x="528.478px" y="452.052px" style="font-family:'HelveticaNeue-Bold', 'Helvetica Neue';font-weight:700;font-size:18px;fill:#fff;">♯</text></g></g></g><g id="ソ9" serif:id="ソ"><text x="503.621px" y="499.052px" style="font-family:'NotoSansSC-Bold', 'Noto Sans SC', sans-serif;font-weight:700;font-size:27px;fill:#fff;">sol</text></g><g id="ファ8" serif:id="ファ"><text x="514.507px" y="98.052px" style="font-family:'NotoSansSC-Bold', 'Noto Sans SC', sans-serif;font-weight:700;font-size:27px;fill:#fff;">f<tspan x="522.31px " y="98.052px ">a</tspan></text></g><g id="レ8" serif:id="レ"><text x="508.217px" y="176.052px" style="font-family:'HiraginoSans-W6', 'Hiragino Sans', sans-serif;font-weight:600;font-size:20px;fill:#fff;">re</text></g><g id="ミ4" serif:id="ミ"><text x="511.697px" y="136.052px" style="font-family:'HiraginoSans-W6', 'Hiragino Sans', sans-serif;font-weight:600;font-size:20px;fill:#fff;">mi</text></g><g id="Group24" serif:id="Group" opacity="0.25"><g id="CS-sharp23" serif:id="CS-sharp"><g id="_-23" serif:id="♯"><text x="530.478px" y="173.052px" style="font-family:'HelveticaNeue-Bold', 'Helvetica Neue';font-weight:700;font-size:18px;fill:#fff;">♯</text></g></g></g></g><g><g id="ラ10" serif:id="ラ"><text x="595.964px" y="498.077px" style="font-family:'NotoSansSC-Bold', 'Noto Sans SC', sans-serif;font-weight:700;font-size:27px;fill:#fff;">la</text></g><g id="シ6" serif:id="シ"><text x="599.555px" y="415.077px" style="font-family:'HiraginoSans-W6', 'Hiragino Sans', sans-serif;font-weight:600;font-size:20px;fill:#fff;">s<tspan x="610.415px " y="415.077px ">i</tspan></text></g><g id="ド10" serif:id="ド"><text x="594.425px" y="378.077px" style="font-family:'HiraginoSans-W6', 'Hiragino Sans', sans-serif;font-weight:600;font-size:20px;fill:#fff;">do</text></g><g id="ソ10" serif:id="ソ"><text x="587.486px" y="98.077px" style="font-family:'HiraginoSans-W6', 'Hiragino Sans', sans-serif;font-weight:600;font-size:27px;fill:#fff;">sol</text></g><g id="ファ9" serif:id="ファ"><text x="599.085px" y="175.077px" style="font-family:'HiraginoSans-W6', 'Hiragino Sans', sans-serif;font-weight:600;font-size:20px;fill:#fff;">f<tspan x="607.625px " y="175.077px ">a</tspan></text></g><g id="ファ10" serif:id="ファ"><text x="596.085px" y="134.077px" style="font-family:'HiraginoSans-W6', 'Hiragino Sans', sans-serif;font-weight:600;font-size:20px;fill:#fff;">f<tspan x="604.625px " y="134.077px ">a</tspan></text></g><g id="Group25" serif:id="Group" opacity="0.2"><g id="CS-sharp24" serif:id="CS-sharp"><g id="_-24" serif:id="♯"><text x="618.666px" y="131.077px" style="font-family:'HelveticaNeue-Bold', 'Helvetica Neue';font-weight:700;font-size:18px;fill:#fff;">♯</text></g></g></g><g id="ミ5" serif:id="ミ"><text x="596.385px" y="218.077px" style="font-family:'HiraginoSans-W6', 'Hiragino Sans', sans-serif;font-weight:600;font-size:20px;fill:#fff;">mi</text></g><g id="ド11" serif:id="ド"><text x="589.925px" y="335.077px" style="font-family:'HiraginoSans-W6', 'Hiragino Sans', sans-serif;font-weight:600;font-size:20px;fill:#fff;">do</text></g><g id="レ9" serif:id="レ"><text x="597.405px" y="295.077px" style="font-family:'HiraginoSans-W6', 'Hiragino Sans', sans-serif;font-weight:600;font-size:20px;fill:#fff;">re</text></g><g id="Group26" serif:id="Group" opacity="0.25"><g id="CS-sharp25" serif:id="CS-sharp"><g id="_-25" serif:id="♯"><text x="616.666px" y="332.077px" style="font-family:'HelveticaNeue-Bold', 'Helvetica Neue';font-weight:700;font-size:18px;fill:#fff;">♯</text></g></g></g><g id="レ10" serif:id="レ"><text x="594.405px" y="255.077px" style="font-family:'HiraginoSans-W6', 'Hiragino Sans', sans-serif;font-weight:600;font-size:20px;fill:#fff;">re</text></g><g id="Group27" serif:id="Group" opacity="0.25"><g id="CS-sharp26" serif:id="CS-sharp"><g id="_-26" serif:id="♯"><text x="617.666px" y="252.077px" style="font-family:'HelveticaNeue-Bold', 'Helvetica Neue';font-weight:700;font-size:18px;fill:#fff;">♯</text></g></g></g><g id="ラ11" serif:id="ラ"><text x="595.195px" y="454.077px" style="font-family:'HiraginoSans-W6', 'Hiragino Sans', sans-serif;font-weight:600;font-size:20px;fill:#fff;">l<tspan x="599.615px " y="454.077px ">a</tspan></text></g><g id="Group28" serif:id="Group" opacity="0.25"><g id="CS-sharp27" serif:id="CS-sharp"><g id="_-27" serif:id="♯"><text x="613.666px" y="451.077px" style="font-family:'HelveticaNeue-Bold', 'Helvetica Neue';font-weight:700;font-size:18px;fill:#fff;">♯</text></g></g></g></g></g></svg>