<?xml version="1.0" encoding="UTF-8" standalone="no"?><!DOCTYPE svg PUBLIC "-//W3C//DTD SVG 1.1//EN" "http://www.w3.org/Graphics/SVG/1.1/DTD/svg11.dtd"><svg width="765.0px" height="530.0px" viewBox="0 0 765 530" version="1.1" xmlns="http://www.w3.org/2000/svg" xmlns:xlink="http://www.w3.org/1999/xlink" xml:space="preserve" xmlns:serif="http://www.serif.com/" style="fill-rule:evenodd;clip-rule:evenodd;"><g id="c1-diatonic-seventh-interval-stacked"><g id="Group-324"><path id="Stroke-304" d="M38,468.5l662,0" style="fill:none;stroke:#b8b8b8;stroke-width:0.5px;"/><path id="Stroke-306" d="M38,428.5l662,0" style="fill:none;stroke:#b8b8b8;stroke-width:0.5px;"/><path id="Stroke-308" d="M38,388.5l662,0" style="fill:none;stroke:#b8b8b8;stroke-width:0.5px;"/><path id="Stroke-310" d="M38,348.5l662,0" style="fill:none;stroke:#b8b8b8;stroke-width:0.5px;"/><path id="Stroke-312" d="M38,308.5l662,0" style="fill:none;stroke:#b8b8b8;stroke-width:0.5px;"/><path id="Stroke-314" d="M38,268.5l662,0" style="fill:none;stroke:#b8b8b8;stroke-width:0.5px;"/><path id="Stroke-316" d="M38,228.5l662,0" style="fill:none;stroke:#b8b8b8;stroke-width:0.5px;"/><path id="Stroke-318" d="M38,188.5l662,0" style="fill:none;stroke:#b8b8b8;stroke-width:0.5px;"/><path id="Stroke-320" d="M38,148.5l662,0" style="fill:none;stroke:#b8b8b8;stroke-width:0.5px;"/><path id="Stroke-3161" serif:id="Stroke-316" d="M38,108.5l662,0" style="fill:none;stroke:#b8b8b8;stroke-width:0.5px;"/><path id="Stroke-3181" serif:id="Stroke-318" d="M38,68.5l662,0" style="fill:none;stroke:#b8b8b8;stroke-width:0.5px;"/><path id="Stroke-3201" serif:id="Stroke-320" d="M38,28.5l662,0" style="fill:none;stroke:#b8b8b8;stroke-width:0.5px;"/></g><rect id="Axis" x="25" y="508" width="660" height="4"/><rect id="Rectangle" x="111" y="468" width="55" height="40"/><g id="ド"><text x="121.355px" y="499px" style="font-family:'NotoSansSC-Bold', 'Noto Sans SC', sans-serif;font-weight:700;font-size:27px;fill:#fff;">do</text></g><rect id="Rectangle1" serif:id="Rectangle" x="111" y="308" width="55" height="40" style="fill:#3db8f5;"/><g id="ミ"><text x="121px" y="339px" style="font-family:'NotoSansSC-Bold', 'Noto Sans SC', sans-serif;font-weight:700;font-size:27px;fill:#fff;">mi</text></g><rect id="Rectangle2" serif:id="Rectangle" x="111" y="188" width="55" height="40" style="fill:#ffbf00;"/><g id="ソ"><text x="118.114px" y="219px" style="font-family:'NotoSansSC-Bold', 'Noto Sans SC', sans-serif;font-weight:700;font-size:27px;fill:#fff;">sol</text></g><rect id="Rectangle3" serif:id="Rectangle" x="111" y="428" width="55" height="40" style="fill:#aaa;"/><g id="ド1" serif:id="ド"><text x="123px" y="456px" style="font-family:'NotoSansSC-Bold', 'Noto Sans SC', sans-serif;font-weight:700;font-size:20px;fill:#fff;">do</text></g><rect id="Rectangle4" serif:id="Rectangle" x="111" y="388" width="55" height="40" style="fill:#ccc;"/><g id="レ"><text x="128px" y="416px" style="font-family:'NotoSansSC-Bold', 'Noto Sans SC', sans-serif;font-weight:700;font-size:20px;fill:#fff;">r<tspan x="136.48px " y="416px ">e</tspan></text></g><g id="Group" opacity="0.2"><g id="CS-sharp"><g id="_-" serif:id="♯"><text x="146.971px" y="453px" style="font-family:'HelveticaNeue-Bold', 'Helvetica Neue';font-weight:700;font-size:18px;fill:#fff;">♯</text></g></g></g><rect id="Rectangle5" serif:id="Rectangle" x="111" y="348" width="55" height="40" style="fill:#aaa;"/><g id="レ1" serif:id="レ"><text x="123px" y="376px" style="font-family:'NotoSansSC-Bold', 'Noto Sans SC', sans-serif;font-weight:700;font-size:20px;fill:#fff;">r<tspan x="131.48px " y="376px ">e</tspan></text></g><g id="Group1" serif:id="Group" opacity="0.2"><g id="CS-sharp1" serif:id="CS-sharp"><g id="_-1" serif:id="♯"><text x="142.971px" y="373px" style="font-family:'HelveticaNeue-Bold', 'Helvetica Neue';font-weight:700;font-size:18px;fill:#fff;">♯</text></g></g></g><rect id="Rectangle6" serif:id="Rectangle" x="111" y="268" width="55" height="40" style="fill:#ccc;"/><g id="ファ"><text x="130.1px" y="296px" style="font-family:'NotoSansSC-Bold', 'Noto Sans SC', sans-serif;font-weight:700;font-size:20px;fill:#fff;">f<tspan x="136.08px " y="296px ">a</tspan></text></g><rect id="Rectangle7" serif:id="Rectangle" x="111" y="228" width="55" height="40" style="fill:#aaa;"/><g id="ファ1" serif:id="ファ"><text x="127.1px" y="255px" style="font-family:'NotoSansSC-Bold', 'Noto Sans SC', sans-serif;font-weight:700;font-size:20px;fill:#fff;">f<tspan x="133.08px " y="255px ">a</tspan></text></g><g id="Group2" serif:id="Group" opacity="0.2"><g id="CS-sharp2" serif:id="CS-sharp"><g id="_-2" serif:id="♯"><text x="145.971px" y="252px" style="font-family:'HelveticaNeue-Bold', 'Helvetica Neue';font-weight:700;font-size:18px;fill:#fff;">♯</text></g></g></g><rect id="Rectangle8" serif:id="Rectangle" x="196" y="468" width="55" height="40"/><g id="レ2" serif:id="レ"><text x="208.259px" y="499px" style="font-family:'HiraginoSans-W6', 'Hiragino Sans', sans-serif;font-weight:600;font-size:27px;fill:#fff;">re</text></g><rect id="Rectangle9" serif:id="Rectangle" x="196" y="188" width="55" height="40" style="fill:#ffbf00;"/><g id="ラ"><text x="210.283px" y="219px" style="font-family:'HiraginoSans-W6', 'Hiragino Sans', sans-serif;font-weight:600;font-size:27px;fill:#fff;">la</text></g><rect id="Rectangle10" serif:id="Rectangle" x="196" y="428" width="55" height="40" style="fill:#aaa;"/><rect id="Rectangle11" serif:id="Rectangle" x="196" y="388" width="55" height="40" style="fill:#ccc;"/><rect id="Rectangle12" serif:id="Rectangle" x="196" y="348" width="55" height="40" style="fill:#f63;"/><g id="ファ2" serif:id="ファ"><text x="211.692px" y="378px" style="font-family:'HiraginoSans-W6', 'Hiragino Sans', sans-serif;font-weight:600;font-size:27px;fill:#fff;">f<tspan x="222.95px " y="378px ">a</tspan></text></g><g id="レ3" serif:id="レ"><text x="207.71px" y="456px" style="font-family:'HiraginoSans-W6', 'Hiragino Sans', sans-serif;font-weight:600;font-size:20px;fill:#fff;">re</text></g><g id="ミ1" serif:id="ミ"><text x="211.19px" y="416px" style="font-family:'HiraginoSans-W6', 'Hiragino Sans', sans-serif;font-weight:600;font-size:20px;fill:#fff;">mi</text></g><g id="Group3" serif:id="Group" opacity="0.2"><g id="CS-sharp3" serif:id="CS-sharp"><g id="_-3" serif:id="♯"><text x="227.971px" y="453px" style="font-family:'HelveticaNeue-Bold', 'Helvetica Neue';font-weight:700;font-size:18px;fill:#fff;">♯</text></g></g></g><rect id="Rectangle13" serif:id="Rectangle" x="196" y="268" width="55" height="40" style="fill:#ccc;"/><g id="ソ1" serif:id="ソ"><text x="207.66px" y="296px" style="font-family:'HiraginoSans-W6', 'Hiragino Sans', sans-serif;font-weight:600;font-size:20px;fill:#fff;">s<tspan x="218.52px 230.92px " y="296px 296px ">ol</tspan></text></g><rect id="Rectangle14" serif:id="Rectangle" x="196" y="308" width="55" height="40" style="fill:#aaa;"/><g id="ファ3" serif:id="ファ"><text x="210.39px" y="335px" style="font-family:'HiraginoSans-W6', 'Hiragino Sans', sans-serif;font-weight:600;font-size:20px;fill:#fff;">f<tspan x="218.93px " y="335px ">a</tspan></text></g><g id="Group4" serif:id="Group" opacity="0.2"><g id="CS-sharp4" serif:id="CS-sharp"><g id="_-4" serif:id="♯"><text x="233.971px" y="332px" style="font-family:'HelveticaNeue-Bold', 'Helvetica Neue';font-weight:700;font-size:18px;fill:#fff;">♯</text></g></g></g><rect id="Rectangle15" serif:id="Rectangle" x="196" y="228" width="55" height="40" style="fill:#aaa;"/><g id="ソ2" serif:id="ソ"><text x="204.66px" y="255px" style="font-family:'HiraginoSans-W6', 'Hiragino Sans', sans-serif;font-weight:600;font-size:20px;fill:#fff;">s<tspan x="215.52px 227.92px " y="255px 255px ">ol</tspan></text></g><g id="Group5" serif:id="Group" opacity="0.2"><g id="CS-sharp5" serif:id="CS-sharp"><g id="_-5" serif:id="♯"><text x="227.971px" y="252px" style="font-family:'HelveticaNeue-Bold', 'Helvetica Neue';font-weight:700;font-size:18px;fill:#fff;">♯</text></g></g></g><rect id="Rectangle16" serif:id="Rectangle" x="281" y="188" width="55" height="40" style="fill:#ffbf00;"/><g id="シ"><text x="294px" y="219px" style="font-family:'HiraginoSans-W6', 'Hiragino Sans', sans-serif;font-weight:600;font-size:27px;fill:#fff;">si</text></g><rect id="Rectangle17" serif:id="Rectangle" x="281" y="268" width="55" height="40" style="fill:#ccc;"/><g id="ラ1" serif:id="ラ"><text x="298.45px" y="296px" style="font-family:'HiraginoSans-W6', 'Hiragino Sans', sans-serif;font-weight:600;font-size:20px;fill:#fff;">l<tspan x="302.87px " y="296px ">a</tspan></text></g><rect id="Rectangle18" serif:id="Rectangle" x="281" y="228" width="55" height="40" style="fill:#aaa;"/><g id="ラ2" serif:id="ラ"><text x="295.45px" y="255px" style="font-family:'HiraginoSans-W6', 'Hiragino Sans', sans-serif;font-weight:600;font-size:20px;fill:#fff;">l<tspan x="299.87px " y="255px ">a</tspan></text></g><rect id="Rectangle19" serif:id="Rectangle" x="366" y="308" width="55" height="40" style="fill:#3db8f5;"/><g id="ラ3" serif:id="ラ"><text x="380.283px" y="339px" style="font-family:'HiraginoSans-W6', 'Hiragino Sans', sans-serif;font-weight:600;font-size:27px;fill:#fff;">la</text></g><rect id="Rectangle20" serif:id="Rectangle" x="366" y="468" width="55" height="40"/><g id="ファ4" serif:id="ファ"><text x="384px" y="498px" style="font-family:'NotoSansSC-Bold', 'Noto Sans SC', sans-serif;font-weight:700;font-size:27px;fill:#fff;">f<tspan x="391.803px " y="498px ">a</tspan></text></g><rect id="Rectangle21" serif:id="Rectangle" x="366" y="388" width="55" height="40" style="fill:#ccc;"/><g id="ソ3" serif:id="ソ"><text x="377.66px" y="416px" style="font-family:'HiraginoSans-W6', 'Hiragino Sans', sans-serif;font-weight:600;font-size:20px;fill:#fff;">s<tspan x="388.52px 400.92px " y="416px 416px ">ol</tspan></text></g><rect id="Rectangle22" serif:id="Rectangle" x="366" y="428" width="55" height="40" style="fill:#aaa;"/><g id="ファ5" serif:id="ファ"><text x="380.39px" y="455px" style="font-family:'HiraginoSans-W6', 'Hiragino Sans', sans-serif;font-weight:600;font-size:20px;fill:#fff;">f<tspan x="388.93px " y="455px ">a</tspan></text></g><g id="Group6" serif:id="Group" opacity="0.2"><g id="CS-sharp6" serif:id="CS-sharp"><g id="_-6" serif:id="♯"><text x="401.971px" y="452px" style="font-family:'HelveticaNeue-Bold', 'Helvetica Neue';font-weight:700;font-size:18px;fill:#fff;">♯</text></g></g></g><rect id="Rectangle23" serif:id="Rectangle" x="366" y="348" width="55" height="40" style="fill:#aaa;"/><g id="ソ4" serif:id="ソ"><text x="374.66px" y="375px" style="font-family:'HiraginoSans-W6', 'Hiragino Sans', sans-serif;font-weight:600;font-size:20px;fill:#fff;">s<tspan x="385.52px 397.92px " y="375px 375px ">ol</tspan></text></g><g id="Group7" serif:id="Group" opacity="0.2"><g id="CS-sharp7" serif:id="CS-sharp"><g id="_-7" serif:id="♯"><text x="397.971px" y="372px" style="font-family:'HelveticaNeue-Bold', 'Helvetica Neue';font-weight:700;font-size:18px;fill:#fff;">♯</text></g></g></g><g id="Group8" serif:id="Group" opacity="0.2"><g id="CS-sharp8" serif:id="CS-sharp"><g id="_-8" serif:id="♯"><text x="312.971px" y="252px" style="font-family:'HelveticaNeue-Bold', 'Helvetica Neue';font-weight:700;font-size:18px;fill:#fff;">♯</text></g></g></g><rect id="Rectangle24" serif:id="Rectangle" x="281" y="308" width="55" height="40" style="fill:#aaa;"/><g id="ソ5" serif:id="ソ"><text x="289.66px" y="335px" style="font-family:'HiraginoSans-W6', 'Hiragino Sans', sans-serif;font-weight:600;font-size:20px;fill:#fff;">s<tspan x="300.52px 312.92px " y="335px 335px ">ol</tspan></text></g><g id="Group9" serif:id="Group" opacity="0.2"><g id="CS-sharp9" serif:id="CS-sharp"><g id="_-9" serif:id="♯"><text x="312.971px" y="332px" style="font-family:'HelveticaNeue-Bold', 'Helvetica Neue';font-weight:700;font-size:18px;fill:#fff;">♯</text></g></g></g><rect id="Rectangle25" serif:id="Rectangle" x="111" y="28" width="55" height="40" style="fill:#3db8f5;"/><g id="シ1" serif:id="シ"><text x="126.714px" y="59px" style="font-family:'NotoSansSC-Bold', 'Noto Sans SC', sans-serif;font-weight:700;font-size:27px;fill:#fff;">si</text></g><rect id="Rectangle26" serif:id="Rectangle" x="111" y="108" width="55" height="40" style="fill:#ccc;"/><g id="ラ4" serif:id="ラ"><text x="127.5px" y="136px" style="font-family:'HiraginoSans-W6', 'Hiragino Sans', sans-serif;font-weight:600;font-size:20px;fill:#fff;">l<tspan x="131.92px " y="136px ">a</tspan></text></g><rect id="Rectangle27" serif:id="Rectangle" x="111" y="68" width="55" height="40" style="fill:#aaa;"/><g id="ラ5" serif:id="ラ"><text x="126.45px" y="95px" style="font-family:'HiraginoSans-W6', 'Hiragino Sans', sans-serif;font-weight:600;font-size:20px;fill:#fff;">l<tspan x="130.87px " y="95px ">a</tspan></text></g><g id="Group10" serif:id="Group" opacity="0.2"><g id="CS-sharp10" serif:id="CS-sharp"><g id="_-10" serif:id="♯"><text x="143.971px" y="92px" style="font-family:'HelveticaNeue-Bold', 'Helvetica Neue';font-weight:700;font-size:18px;fill:#fff;">♯</text></g></g></g><rect id="Rectangle28" serif:id="Rectangle" x="111" y="148" width="55" height="40" style="fill:#aaa;"/><g id="ソ6" serif:id="ソ"><text x="120.64px" y="175px" style="font-family:'NotoSansSC-Bold', 'Noto Sans SC', sans-serif;font-weight:700;font-size:20px;fill:#fff;">s<tspan x="129.54px 141.06px " y="175px 175px ">ol</tspan></text></g><g id="Group11" serif:id="Group" opacity="0.2"><g id="CS-sharp11" serif:id="CS-sharp"><g id="_-11" serif:id="♯"><text x="147.971px" y="172px" style="font-family:'HelveticaNeue-Bold', 'Helvetica Neue';font-weight:700;font-size:18px;fill:#fff;">♯</text></g></g></g><rect id="Rectangle29" serif:id="Rectangle" x="366" y="228" width="55" height="40" style="fill:#ccc;"/><g id="シ2" serif:id="シ"><text x="383.86px" y="256px" style="font-family:'HiraginoSans-W6', 'Hiragino Sans', sans-serif;font-weight:600;font-size:20px;fill:#fff;">s<tspan x="394.72px " y="256px ">i</tspan></text></g><rect id="Rectangle30" serif:id="Rectangle" x="366" y="188" width="55" height="40" style="fill:#ffbf00;"/><g id="ド2" serif:id="ド"><text x="373.911px" y="219px" style="font-family:'HiraginoSans-W6', 'Hiragino Sans', sans-serif;font-weight:600;font-size:27px;fill:#fff;">do</text></g><rect id="Rectangle31" serif:id="Rectangle" x="456" y="308" width="55" height="40" style="fill:#3db8f5;"/><g id="シ3" serif:id="シ"><text x="470.836px" y="339px" style="font-family:'HiraginoSans-W6', 'Hiragino Sans', sans-serif;font-weight:600;font-size:27px;fill:#fff;">si</text></g><rect id="Rectangle32" serif:id="Rectangle" x="456" y="268" width="55" height="40" style="fill:#ccc;"/><g id="ド3" serif:id="ド"><text x="468.73px" y="296px" style="font-family:'HiraginoSans-W6', 'Hiragino Sans', sans-serif;font-weight:600;font-size:20px;fill:#fff;">d<tspan x="481.87px " y="296px ">o</tspan></text></g><rect id="Rectangle33" serif:id="Rectangle" x="456" y="228" width="55" height="40" style="fill:#aaa;"/><g id="ド4" serif:id="ド"><text x="465.73px" y="255px" style="font-family:'HiraginoSans-W6', 'Hiragino Sans', sans-serif;font-weight:600;font-size:20px;fill:#fff;">d<tspan x="478.87px " y="255px ">o</tspan></text></g><rect id="Rectangle34" serif:id="Rectangle" x="456" y="188" width="55" height="40" style="fill:#ffbf00;"/><g id="レ4" serif:id="レ"><text x="468.259px" y="219px" style="font-family:'HiraginoSans-W6', 'Hiragino Sans', sans-serif;font-weight:600;font-size:27px;fill:#fff;">re</text></g><rect id="Rectangle35" serif:id="Rectangle" x="551" y="468" width="55" height="40"/><g id="ラ6" serif:id="ラ"><text x="565.269px" y="499px" style="font-family:'NotoSansSC-Bold', 'Noto Sans SC', sans-serif;font-weight:700;font-size:27px;fill:#fff;">la</text></g><rect id="Rectangle36" serif:id="Rectangle" x="551" y="388" width="55" height="40" style="fill:#ccc;"/><g id="シ4" serif:id="シ"><text x="568.86px" y="416px" style="font-family:'HiraginoSans-W6', 'Hiragino Sans', sans-serif;font-weight:600;font-size:20px;fill:#fff;">s<tspan x="579.72px " y="416px ">i</tspan></text></g><rect id="Rectangle37" serif:id="Rectangle" x="551" y="348" width="55" height="40" style="fill:#f63;"/><g id="ド5" serif:id="ド"><text x="558.911px" y="379px" style="font-family:'HiraginoSans-W6', 'Hiragino Sans', sans-serif;font-weight:600;font-size:27px;fill:#fff;">do</text></g><rect id="Rectangle38" serif:id="Rectangle" x="551" y="188" width="55" height="40" style="fill:#ffbf00;"/><rect id="Rectangle39" serif:id="Rectangle" x="551" y="68" width="55" height="40" style="fill:#f63;"/><g id="ソ7" serif:id="ソ"><text x="556.791px" y="99px" style="font-family:'HiraginoSans-W6', 'Hiragino Sans', sans-serif;font-weight:600;font-size:27px;fill:#fff;">sol</text></g><rect id="Rectangle40" serif:id="Rectangle" x="551" y="148" width="55" height="40" style="fill:#ccc;"/><g id="ファ6" serif:id="ファ"><text x="568.39px" y="176px" style="font-family:'HiraginoSans-W6', 'Hiragino Sans', sans-serif;font-weight:600;font-size:20px;fill:#fff;">f<tspan x="576.93px " y="176px ">a</tspan></text></g><rect id="Rectangle41" serif:id="Rectangle" x="551" y="108" width="55" height="40" style="fill:#aaa;"/><g id="ファ7" serif:id="ファ"><text x="565.39px" y="135px" style="font-family:'HiraginoSans-W6', 'Hiragino Sans', sans-serif;font-weight:600;font-size:20px;fill:#fff;">f<tspan x="573.93px " y="135px ">a</tspan></text></g><g id="Group12" serif:id="Group" opacity="0.2"><g id="CS-sharp12" serif:id="CS-sharp"><g id="_-12" serif:id="♯"><text x="587.971px" y="132px" style="font-family:'HelveticaNeue-Bold', 'Helvetica Neue';font-weight:700;font-size:18px;fill:#fff;">♯</text></g></g></g><g id="ミ2" serif:id="ミ"><text x="561.207px" y="219px" style="font-family:'HiraginoSans-W6', 'Hiragino Sans', sans-serif;font-weight:600;font-size:27px;fill:#fff;">mi</text></g><rect id="Rectangle42" serif:id="Rectangle" x="551" y="308" width="55" height="40" style="fill:#aaa;"/><g id="ド6" serif:id="ド"><text x="559.23px" y="336px" style="font-family:'HiraginoSans-W6', 'Hiragino Sans', sans-serif;font-weight:600;font-size:20px;fill:#fff;">do</text></g><rect id="Rectangle43" serif:id="Rectangle" x="551" y="268" width="55" height="40" style="fill:#ccc;"/><g id="レ5" serif:id="レ"><text x="566.71px" y="296px" style="font-family:'HiraginoSans-W6', 'Hiragino Sans', sans-serif;font-weight:600;font-size:20px;fill:#fff;">re</text></g><g id="Group13" serif:id="Group" opacity="0.25"><g id="CS-sharp13" serif:id="CS-sharp"><g id="_-13" serif:id="♯"><text x="585.971px" y="333px" style="font-family:'HelveticaNeue-Bold', 'Helvetica Neue';font-weight:700;font-size:18px;fill:#fff;">♯</text></g></g></g><rect id="Rectangle44" serif:id="Rectangle" x="551" y="228" width="55" height="40" style="fill:#aaa;"/><g id="レ6" serif:id="レ"><text x="563.71px" y="256px" style="font-family:'HiraginoSans-W6', 'Hiragino Sans', sans-serif;font-weight:600;font-size:20px;fill:#fff;">re</text></g><g id="Group14" serif:id="Group" opacity="0.25"><g id="CS-sharp14" serif:id="CS-sharp"><g id="_-14" serif:id="♯"><text x="586.971px" y="253px" style="font-family:'HelveticaNeue-Bold', 'Helvetica Neue';font-weight:700;font-size:18px;fill:#fff;">♯</text></g></g></g><rect id="Rectangle45" serif:id="Rectangle" x="366" y="28" width="55" height="40" style="fill:#3db8f5;"/><g id="ミ3" serif:id="ミ"><text x="376.382px" y="59px" style="font-family:'NotoSansSC-Bold', 'Noto Sans SC', sans-serif;font-weight:700;font-size:27px;fill:#fff;">mi</text></g><rect id="Rectangle46" serif:id="Rectangle" x="366" y="148" width="55" height="40" style="fill:#aaa;"/><g id="ド7" serif:id="ド"><text x="377.23px" y="176px" style="font-family:'HiraginoSans-W6', 'Hiragino Sans', sans-serif;font-weight:600;font-size:20px;fill:#fff;">do</text></g><rect id="Rectangle47" serif:id="Rectangle" x="366" y="108" width="55" height="40" style="fill:#ccc;"/><g id="レ7" serif:id="レ"><text x="381.71px" y="136px" style="font-family:'HiraginoSans-W6', 'Hiragino Sans', sans-serif;font-weight:600;font-size:20px;fill:#fff;">re</text></g><g id="Group15" serif:id="Group" opacity="0.25"><g id="CS-sharp15" serif:id="CS-sharp"><g id="_-15" serif:id="♯"><text x="403.971px" y="173px" style="font-family:'HelveticaNeue-Bold', 'Helvetica Neue';font-weight:700;font-size:18px;fill:#fff;">♯</text></g></g></g><rect id="Rectangle48" serif:id="Rectangle" x="366" y="68" width="55" height="40" style="fill:#aaa;"/><g id="レ8" serif:id="レ"><text x="376.71px" y="96px" style="font-family:'HiraginoSans-W6', 'Hiragino Sans', sans-serif;font-weight:600;font-size:20px;fill:#fff;">re</text></g><g id="Group16" serif:id="Group" opacity="0.25"><g id="CS-sharp16" serif:id="CS-sharp"><g id="_-16" serif:id="♯"><text x="400.971px" y="93px" style="font-family:'HelveticaNeue-Bold', 'Helvetica Neue';font-weight:700;font-size:18px;fill:#fff;">♯</text></g></g></g><rect id="Rectangle49" serif:id="Rectangle" x="551" y="428" width="55" height="40" style="fill:#aaa;"/><g id="ラ7" serif:id="ラ"><text x="564.5px" y="455px" style="font-family:'HiraginoSans-W6', 'Hiragino Sans', sans-serif;font-weight:600;font-size:20px;fill:#fff;">l<tspan x="568.92px " y="455px ">a</tspan></text></g><g id="Group17" serif:id="Group" opacity="0.25"><g id="CS-sharp17" serif:id="CS-sharp"><g id="_-17" serif:id="♯"><text x="582.971px" y="452px" style="font-family:'HelveticaNeue-Bold', 'Helvetica Neue';font-weight:700;font-size:18px;fill:#fff;">♯</text></g></g></g><g id="Group18" serif:id="Group" opacity="0.2"><g id="CS-sharp18" serif:id="CS-sharp"><g id="_-18" serif:id="♯"><text x="491.971px" y="252px" style="font-family:'HelveticaNeue-Bold', 'Helvetica Neue';font-weight:700;font-size:18px;fill:#fff;">♯</text></g></g></g><rect id="Rectangle50" serif:id="Rectangle" x="456" y="388" width="55" height="40" style="fill:#ccc;"/><g id="ラ8" serif:id="ラ"><text x="473.45px" y="416px" style="font-family:'HiraginoSans-W6', 'Hiragino Sans', sans-serif;font-weight:600;font-size:20px;fill:#fff;">l<tspan x="477.87px " y="416px ">a</tspan></text></g><rect id="Rectangle51" serif:id="Rectangle" x="456" y="348" width="55" height="40" style="fill:#aaa;"/><g id="ラ9" serif:id="ラ"><text x="470.45px" y="375px" style="font-family:'HiraginoSans-W6', 'Hiragino Sans', sans-serif;font-weight:600;font-size:20px;fill:#fff;">l<tspan x="474.87px " y="375px ">a</tspan></text></g><g id="Group19" serif:id="Group" opacity="0.2"><g id="CS-sharp19" serif:id="CS-sharp"><g id="_-19" serif:id="♯"><text x="487.971px" y="372px" style="font-family:'HelveticaNeue-Bold', 'Helvetica Neue';font-weight:700;font-size:18px;fill:#fff;">♯</text></g></g></g><rect id="Rectangle52" serif:id="Rectangle" x="456" y="428" width="55" height="40" style="fill:#aaa;"/><g id="ソ8" serif:id="ソ"><text x="464.66px" y="455px" style="font-family:'HiraginoSans-W6', 'Hiragino Sans', sans-serif;font-weight:600;font-size:20px;fill:#fff;">s<tspan x="475.52px 487.92px " y="455px 455px ">ol</tspan></text></g><g id="Group20" serif:id="Group" opacity="0.2"><g id="CS-sharp20" serif:id="CS-sharp"><g id="_-20" serif:id="♯"><text x="487.971px" y="452px" style="font-family:'HelveticaNeue-Bold', 'Helvetica Neue';font-weight:700;font-size:18px;fill:#fff;">♯</text></g></g></g><rect id="Rectangle53" serif:id="Rectangle" x="456" y="468" width="55" height="40"/><g id="ソ9" serif:id="ソ"><text x="463.114px" y="499px" style="font-family:'NotoSansSC-Bold', 'Noto Sans SC', sans-serif;font-weight:700;font-size:27px;fill:#fff;">sol</text></g><rect id="Rectangle54" serif:id="Rectangle" x="366" y="268" width="55" height="40" style="fill:#aaa;"/><g id="ラ10" serif:id="ラ"><text x="380.45px" y="295px" style="font-family:'HiraginoSans-W6', 'Hiragino Sans', sans-serif;font-weight:600;font-size:20px;fill:#fff;">l<tspan x="384.87px " y="295px ">a</tspan></text></g><g id="Group21" serif:id="Group" opacity="0.2"><g id="CS-sharp21" serif:id="CS-sharp"><g id="_-21" serif:id="♯"><text x="397.971px" y="292px" style="font-family:'HelveticaNeue-Bold', 'Helvetica Neue';font-weight:700;font-size:18px;fill:#fff;">♯</text></g></g></g><rect id="Rectangle55" serif:id="Rectangle" x="196" y="108" width="55" height="40" style="fill:#ccc;"/><g id="シ5" serif:id="シ"><text x="213.86px" y="136px" style="font-family:'HiraginoSans-W6', 'Hiragino Sans', sans-serif;font-weight:600;font-size:20px;fill:#fff;">s<tspan x="224.72px " y="136px ">i</tspan></text></g><rect id="Rectangle56" serif:id="Rectangle" x="196" y="68" width="55" height="40" style="fill:#f63;"/><g id="ド8" serif:id="ド"><text x="205.355px" y="99px" style="font-family:'NotoSansSC-Bold', 'Noto Sans SC', sans-serif;font-weight:700;font-size:27px;fill:#fff;">do</text></g><rect id="Rectangle57" serif:id="Rectangle" x="281" y="148" width="55" height="40" style="fill:#ccc;"/><g id="ド9" serif:id="ド"><text x="293.73px" y="176px" style="font-family:'HiraginoSans-W6', 'Hiragino Sans', sans-serif;font-weight:600;font-size:20px;fill:#fff;">d<tspan x="306.87px " y="176px ">o</tspan></text></g><rect id="Rectangle58" serif:id="Rectangle" x="281" y="108" width="55" height="40" style="fill:#aaa;"/><g id="ド10" serif:id="ド"><text x="291.73px" y="135px" style="font-family:'HiraginoSans-W6', 'Hiragino Sans', sans-serif;font-weight:600;font-size:20px;fill:#fff;">d<tspan x="304.87px " y="135px ">o</tspan></text></g><rect id="Rectangle59" serif:id="Rectangle" x="281" y="68" width="55" height="40" style="fill:#f63;"/><g id="レ9" serif:id="レ"><text x="294.933px" y="99px" style="font-family:'NotoSansSC-Bold', 'Noto Sans SC', sans-serif;font-weight:700;font-size:27px;fill:#fff;">r<tspan x="306.381px " y="99px ">e</tspan></text></g><g id="Group22" serif:id="Group" opacity="0.2"><g id="CS-sharp22" serif:id="CS-sharp"><g id="_-22" serif:id="♯"><text x="316.971px" y="132px" style="font-family:'HelveticaNeue-Bold', 'Helvetica Neue';font-weight:700;font-size:18px;fill:#fff;">♯</text></g></g></g><rect id="Rectangle60" serif:id="Rectangle" x="196" y="148" width="55" height="40" style="fill:#aaa;"/><g id="ラ11" serif:id="ラ"><text x="210.45px" y="175px" style="font-family:'HiraginoSans-W6', 'Hiragino Sans', sans-serif;font-weight:600;font-size:20px;fill:#fff;">l<tspan x="214.87px " y="175px ">a</tspan></text></g><g id="Group23" serif:id="Group" opacity="0.2"><g id="CS-sharp23" serif:id="CS-sharp"><g id="_-23" serif:id="♯"><text x="227.971px" y="172px" style="font-family:'HelveticaNeue-Bold', 'Helvetica Neue';font-weight:700;font-size:18px;fill:#fff;">♯</text></g></g></g><rect id="Rectangle61" serif:id="Rectangle" x="281" y="468" width="55" height="40"/><g id="ミ4" serif:id="ミ"><text x="291.382px" y="499px" style="font-family:'NotoSansSC-Bold', 'Noto Sans SC', sans-serif;font-weight:700;font-size:27px;fill:#fff;">mi</text></g><rect id="Rectangle62" serif:id="Rectangle" x="281" y="348" width="55" height="40" style="fill:#f63;"/><g id="ソ10" serif:id="ソ"><text x="286.791px" y="379px" style="font-family:'HiraginoSans-W6', 'Hiragino Sans', sans-serif;font-weight:600;font-size:27px;fill:#fff;">sol</text></g><rect id="Rectangle63" serif:id="Rectangle" x="281" y="428" width="55" height="40" style="fill:#ccc;"/><g id="ファ8" serif:id="ファ"><text x="298.39px" y="456px" style="font-family:'HiraginoSans-W6', 'Hiragino Sans', sans-serif;font-weight:600;font-size:20px;fill:#fff;">f<tspan x="306.93px " y="456px ">a</tspan></text></g><rect id="Rectangle64" serif:id="Rectangle" x="281" y="388" width="55" height="40" style="fill:#aaa;"/><g id="ファ9" serif:id="ファ"><text x="295.39px" y="415px" style="font-family:'HiraginoSans-W6', 'Hiragino Sans', sans-serif;font-weight:600;font-size:20px;fill:#fff;">f<tspan x="303.93px " y="415px ">a</tspan></text></g><g id="Group24" serif:id="Group" opacity="0.2"><g id="CS-sharp24" serif:id="CS-sharp"><g id="_-24" serif:id="♯"><text x="316.971px" y="412px" style="font-family:'HelveticaNeue-Bold', 'Helvetica Neue';font-weight:700;font-size:18px;fill:#fff;">♯</text></g></g></g><rect id="Rectangle65" serif:id="Rectangle" x="456" y="148" width="55" height="40" style="fill:#aaa;"/><rect id="Rectangle66" serif:id="Rectangle" x="456" y="108" width="55" height="40" style="fill:#ccc;"/><rect id="Rectangle67" serif:id="Rectangle" x="456" y="68" width="55" height="40" style="fill:#f63;"/><g id="ファ10" serif:id="ファ"><text x="474px" y="98px" style="font-family:'NotoSansSC-Bold', 'Noto Sans SC', sans-serif;font-weight:700;font-size:27px;fill:#fff;">f<tspan x="481.803px " y="98px ">a</tspan></text></g><g id="レ10" serif:id="レ"><text x="467.71px" y="176px" style="font-family:'HiraginoSans-W6', 'Hiragino Sans', sans-serif;font-weight:600;font-size:20px;fill:#fff;">re</text></g><g id="ミ5" serif:id="ミ"><text x="471.19px" y="136px" style="font-family:'HiraginoSans-W6', 'Hiragino Sans', sans-serif;font-weight:600;font-size:20px;fill:#fff;">mi</text></g><g id="Group25" serif:id="Group" opacity="0.25"><g id="CS-sharp25" serif:id="CS-sharp"><g id="_-25" serif:id="♯"><text x="489.971px" y="173px" style="font-family:'HelveticaNeue-Bold', 'Helvetica Neue';font-weight:700;font-size:18px;fill:#fff;">♯</text></g></g></g><g id="Degree"><path d="M20.46,497.22c1.82,0 3.5,-0.98 4.52,-2.64c1.12,-1.82 1.84,-4.38 1.84,-6.54c-0,-2.62 -1.24,-4.1 -3.42,-4.1c-2.34,0 -4.32,1.66 -5.38,4.48c-0.58,1.54 -0.92,3.28 -0.92,4.66c-0,2.68 1.2,4.14 3.36,4.14Zm0.26,-0.84c-0.82,-0 -1.34,-0.76 -1.34,-1.98c-0,-2.52 0.8,-5.96 1.84,-8c0.54,-1.06 1.24,-1.62 2,-1.62c0.82,-0 1.32,0.72 1.32,1.86c-0,2.8 -0.88,6.54 -2,8.48c-0.44,0.78 -1.14,1.26 -1.82,1.26Z" style="fill:#888;"/></g><g id="Degree1" serif:id="Degree"><path d="M23.82,457l0.16,-0.78l-0.26,0c-1,0 -1.4,-0.24 -1.4,-0.82c-0,-0.34 0.06,-0.84 0.18,-1.38l1.4,-6.62c0.38,-1.72 0.56,-2.48 0.78,-3.22l-0.5,-0.36c-1.12,0.6 -2.34,1.16 -4.24,1.92l0.2,0.78c1.08,-0.4 1.26,-0.46 1.74,-0.66c-0.02,0.16 -0.04,0.26 -0.08,0.46l-0.14,0.6l-1.5,7.1c-0.42,1.96 -0.62,2.14 -2.3,2.2l-0.16,0.78c1.14,-0.06 1.84,-0.08 3.08,-0.08c1.24,0 1.92,0.02 3.04,0.08Z" style="fill:#888;"/></g><g id="Degree2" serif:id="Degree"><path d="M23.86,417c0.72,-1.18 1.24,-1.98 1.88,-2.88l-0.66,-0.26c-0.5,0.62 -0.88,0.92 -1.46,1.1c-0.433,0.133 -0.631,0.156 -2.258,0.159l-1.587,0c-0.317,-0.002 -0.755,-0.006 -1.315,-0.019c0.88,-0.68 1.12,-0.88 2.62,-2.02c2.16,-1.64 3.14,-2.5 3.94,-3.4c1.02,-1.14 1.48,-2.18 1.48,-3.24c-0,-1.52 -1.14,-2.5 -2.88,-2.5c-1.86,-0 -3.64,1.12 -5.12,3.18l0.66,0.36c1.12,-1.34 2.04,-1.9 3.06,-1.9c0.94,-0 1.6,0.6 1.6,1.48c-0,0.76 -0.52,1.82 -1.48,2.98c-1.56,1.9 -4.14,4.34 -6.72,6.34l0.12,0.62c0.16,-0.006 0.315,-0.012 0.468,-0.017l0.456,-0.014c0.685,-0.019 1.397,-0.029 2.436,-0.029c1.68,-0 2.72,0.02 4.76,0.06Z" style="fill:#888;"/></g><g id="Degree3" serif:id="Degree"><path d="M19.58,377.22c1.94,0 3.62,-0.74 4.72,-2.08c0.72,-0.86 1.12,-1.92 1.12,-2.92c-0,-1.48 -0.88,-2.3 -2.68,-2.48c2.16,-0.72 3.3,-1.94 3.3,-3.52c-0,-1.36 -1.06,-2.28 -2.6,-2.28c-1.54,-0 -2.98,0.76 -4.42,2.32l0.58,0.48c0.98,-1 1.82,-1.46 2.68,-1.46c0.82,-0 1.34,0.56 1.34,1.42c-0,0.68 -0.32,1.36 -0.86,1.88c-0.6,0.58 -1.36,0.86 -2.64,0.96l-0.16,0.76c2.08,-0 2.98,0.64 2.98,2.16c-0,2.02 -1.34,3.88 -2.8,3.88c-0.66,-0 -1.12,-0.38 -1.24,-1c-0.1,-0.58 -0.1,-0.58 -0.22,-0.7c-0.14,-0.2 -0.4,-0.32 -0.7,-0.32c-0.78,-0 -1.38,0.54 -1.38,1.24c-0,0.96 1.24,1.66 2.98,1.66Z" style="fill:#888;"/></g><g id="Degree4" serif:id="Degree"><path d="M23.44,337l0.74,-3.46l1.64,0l0.34,-1.54l-1.66,0l1.76,-8.3l-2.48,0.72l-6.54,7.54l-0.54,1.58l5.2,0l-0.72,3.46l2.26,0Zm-1.2,-5l-3.82,0l5.14,-5.98l-1.32,5.98Z" style="fill:#888;"/></g><g id="Degree5" serif:id="Degree"><path d="M19.32,297.22c1.96,0 3.74,-0.84 5,-2.38c0.88,-1.08 1.4,-2.4 1.4,-3.58c-0,-1.86 -1.36,-3 -3.62,-3c-0.48,-0 -0.84,0.04 -1.42,0.14l0.88,-2.24l4.7,0l0.96,-2l-5.92,0l-2.46,6.28l0.34,0.32c0.68,-0.2 1.22,-0.28 1.84,-0.28c1.62,0 2.56,0.78 2.56,2.1c-0,1.86 -1.64,3.72 -3.26,3.72c-0.58,-0 -1.02,-0.36 -1.26,-1c-0.24,-0.72 -0.4,-0.86 -0.96,-0.86c-0.74,-0 -1.36,0.58 -1.36,1.28c-0,0.88 1.06,1.5 2.58,1.5Z" style="fill:#888;"/></g><g id="Degree6" serif:id="Degree"><path d="M20.7,257.22c2.84,0 5.32,-2.32 5.32,-4.98c-0,-1.64 -1.12,-2.74 -2.78,-2.74c-0.92,-0 -1.72,0.28 -2.86,0.98c1.1,-2.72 3.14,-4.74 6.2,-6.14l-0.16,-0.6c-1.84,0.58 -3.56,1.56 -5.18,2.9c-2.62,2.2 -4.06,4.72 -4.06,7.14c-0,2.14 1.34,3.44 3.52,3.44Zm0.34,-0.86c-0.98,0 -1.56,-0.74 -1.56,-2.02c-0,-0.96 0.16,-1.8 0.54,-2.88c0.7,-0.54 1.32,-0.78 2,-0.78c1,0 1.6,0.78 1.6,2.04c-0,2.02 -1.16,3.64 -2.58,3.64Z" style="fill:#888;"/></g><g id="Degree7" serif:id="Degree"><path d="M20,217l7.72,-12.44l-0.14,-0.4l-7.84,0l-1.38,3.18l0.72,0c0.68,-1.1 1.18,-1.3 3.4,-1.32l2.98,0l-7.08,9.82c-0.332,0.485 -0.492,0.701 -0.632,0.894l-0.092,0.128c-0.031,0.044 -0.062,0.089 -0.096,0.138l2.44,0Z" style="fill:#888;"/></g><g id="Degree8" serif:id="Degree"><path d="M20.58,170.22c2.78,0 5.06,-1.86 5.06,-4.16c-0,-1.1 -0.54,-1.96 -2,-3.14c2,-0.88 3.12,-2.18 3.12,-3.64c-0,-1.42 -1.22,-2.34 -3.14,-2.34c-2.64,-0 -4.8,1.82 -4.8,4.04c-0,0.9 0.36,1.54 1.3,2.32c0.24,0.22 0.26,0.22 0.4,0.36c-2.38,1.08 -3.52,2.36 -3.52,3.96c-0,1.54 1.44,2.6 3.58,2.6Zm2.44,-7.84c-1.48,-1.02 -2.06,-1.72 -2.06,-2.52c-0,-1.1 0.98,-2.02 2.16,-2.02c0.98,0 1.58,0.64 1.58,1.64c-0,1.1 -0.58,2.1 -1.68,2.9Zm-2.16,7c-1.04,0 -1.72,-0.74 -1.72,-1.86c-0,-1.26 0.76,-2.44 2.1,-3.26c1.52,1.18 2,1.8 2,2.68c-0,1.38 -1.04,2.44 -2.38,2.44Z" style="fill:#888;"/></g><g id="Degree9" serif:id="Degree"><path d="M17.72,133.3c1.66,-0.56 3.32,-1.42 4.8,-2.54c2.74,-2.08 4.36,-4.8 4.36,-7.36c-0,-2.18 -1.32,-3.46 -3.52,-3.46c-2.86,-0 -5.32,2.32 -5.32,5c-0,1.6 1.14,2.72 2.76,2.72c0.96,-0 1.82,-0.28 2.86,-0.96c-1.08,2.62 -3.1,4.56 -6.12,5.92l0.18,0.68Zm4.3,-6.82c-0.98,-0 -1.58,-0.78 -1.58,-2.04c-0,-2.04 1.14,-3.64 2.58,-3.64c1.04,-0 1.6,0.72 1.6,2.06c-0,0.92 -0.18,1.76 -0.58,2.84c-0.68,0.52 -1.34,0.78 -2.02,0.78Z" style="fill:#888;"/></g><g id="Degree10" serif:id="Degree"><path d="M18.5,94.698l0.16,-0.78l-0.26,-0c-1,-0 -1.4,-0.24 -1.4,-0.82c-0,-0.34 0.06,-0.84 0.18,-1.38l1.4,-6.62c0.38,-1.72 0.56,-2.48 0.78,-3.22l-0.5,-0.36c-1.12,0.6 -2.34,1.16 -4.24,1.92l0.2,0.78c1.08,-0.4 1.26,-0.46 1.74,-0.66c-0.02,0.16 -0.04,0.26 -0.08,0.46l-0.14,0.6l-1.5,7.1c-0.42,1.96 -0.62,2.14 -2.3,2.2l-0.16,0.78c1.14,-0.06 1.84,-0.08 3.08,-0.08c1.24,-0 1.92,0.02 3.04,0.08Zm7.28,0.22c1.82,-0 3.5,-0.98 4.52,-2.64c1.12,-1.82 1.84,-4.38 1.84,-6.54c0,-2.62 -1.24,-4.1 -3.42,-4.1c-2.34,-0 -4.32,1.66 -5.38,4.48c-0.58,1.54 -0.92,3.28 -0.92,4.66c0,2.68 1.2,4.14 3.36,4.14Zm0.26,-0.84c-0.82,-0 -1.34,-0.76 -1.34,-1.98c0,-2.52 0.8,-5.96 1.84,-8c0.54,-1.06 1.24,-1.62 2,-1.62c0.82,-0 1.32,0.72 1.32,1.86c0,2.8 -0.88,6.54 -2,8.48c-0.44,0.78 -1.14,1.26 -1.82,1.26Z" style="fill:#888;"/></g><g id="Degree11" serif:id="Degree"><path d="M18.5,54.698l0.16,-0.78l-0.26,-0c-1,-0 -1.4,-0.24 -1.4,-0.82c-0,-0.34 0.06,-0.84 0.18,-1.38l1.4,-6.62c0.38,-1.72 0.56,-2.48 0.78,-3.22l-0.5,-0.36c-1.12,0.6 -2.34,1.16 -4.24,1.92l0.2,0.78c1.08,-0.4 1.26,-0.46 1.74,-0.66c-0.02,0.16 -0.04,0.26 -0.08,0.46l-0.14,0.6l-1.5,7.1c-0.42,1.96 -0.62,2.14 -2.3,2.2l-0.16,0.78c1.14,-0.06 1.84,-0.08 3.08,-0.08c1.24,-0 1.92,0.02 3.04,0.08Zm10.64,-0l0.16,-0.78l-0.26,-0c-1,-0 -1.4,-0.24 -1.4,-0.82c0,-0.34 0.06,-0.84 0.18,-1.38l1.4,-6.62c0.38,-1.72 0.56,-2.48 0.78,-3.22l-0.5,-0.36c-1.12,0.6 -2.34,1.16 -4.24,1.92l0.2,0.78c1.08,-0.4 1.26,-0.46 1.74,-0.66c-0.02,0.16 -0.04,0.26 -0.08,0.46l-0.14,0.6l-1.5,7.1c-0.42,1.96 -0.62,2.14 -2.3,2.2l-0.16,0.78c1.14,-0.06 1.84,-0.08 3.08,-0.08c1.24,-0 1.92,0.02 3.04,0.08Z" style="fill:#888;"/></g><g id="_-26" serif:id="}"><text x="621.846px" y="100px" style="font-family:'HiraginoSans-W0', 'Hiragino Sans', sans-serif;font-weight:100;font-size:84px;">}</text></g><g id="_7th" serif:id="7th"><text x="670.904px" y="77px" style="font-family:'HiraginoSans-W5', 'Hiragino Sans', sans-serif;font-weight:500;font-size:24px;">7th</text></g><g id="の音"><text x="708px" y="103px" style="font-family:'HiraginoSans-W5', 'Hiragino Sans', sans-serif;font-weight:500;font-size:20px;">音</text></g><path id="Rectangle68" serif:id="Rectangle" d="M722,68c0,-9.383 -7.617,-17 -17,-17l-27,0c-9.383,0 -17,7.617 -17,17c0,9.383 7.617,17 17,17l27,0c9.383,0 17,-7.617 17,-17Z" style="fill:none;stroke:#000;stroke-width:2px;stroke-linecap:square;"/></g></svg>