<?xml version="1.0" encoding="UTF-8" standalone="no"?><!DOCTYPE svg PUBLIC "-//W3C//DTD SVG 1.1//EN" "http://www.w3.org/Graphics/SVG/1.1/DTD/svg11.dtd"><svg width="1200.0px" height="800.0px" viewBox="0 0 1200 800" version="1.1" xmlns="http://www.w3.org/2000/svg" xmlns:xlink="http://www.w3.org/1999/xlink" xml:space="preserve" xmlns:serif="http://www.serif.com/" style="fill-rule:evenodd;clip-rule:evenodd;"><g id="c1-function-chart-full"><rect id="Rectangle" x="-0" y="-12" width="300" height="820" style="fill:#f1f6ee;"/><rect id="Rectangle1" serif:id="Rectangle" x="900" y="-12" width="300" height="820" style="fill:#f1f6ee;"/><rect id="Rectangle2" serif:id="Rectangle" x="300" y="-12" width="300" height="820" style="fill:#f9f5ec;"/><rect id="Rectangle3" serif:id="Rectangle" x="600" y="-12" width="300" height="820" style="fill:#f9f0ec;"/><g id="Group-3"><path id="Path-10" d="M617.029,308.944l18.971,9.558l-19.029,9.442l0.024,-8.001l-146.5,-0.443l0.01,-3l146.499,0.444l0.025,-8Z" style="fill:url(#_Linear1);fill-rule:nonzero;"/><path id="Path-101" serif:id="Path-10" d="M709.529,487.694l18.971,9.558l-19.029,9.442l0.024,-8.001l-146.5,-0.443l0.01,-3l146.499,0.443l0.025,-7.999Z" style="fill:url(#_Linear2);fill-rule:nonzero;"/><path id="Path-102" serif:id="Path-10" d="M159,317.5l200,0" style="fill:none;stroke:#000;stroke-width:2px;"/><path id="Path-103" serif:id="Path-10" d="M757,317.5l200,0" style="fill:none;stroke:#000;stroke-width:2px;"/><path id="Path-104" serif:id="Path-10" d="M847,497.5l200,0" style="fill:none;stroke:#000;stroke-width:2px;"/><path id="Path-105" serif:id="Path-10" d="M249,497.5l200,0" style="fill:none;stroke:#000;stroke-width:2px;"/></g><g id="Group-4"><path id="Path-106" serif:id="Path-10" d="M444,467l-305,-123" style="fill:none;stroke:#000;stroke-width:2px;"/><path id="Path-107" serif:id="Path-10" d="M746,467l-302,-123" style="fill:none;stroke:#000;stroke-width:2px;"/><path id="Path-108" serif:id="Path-10" d="M1050,467l-304,-123" style="fill:none;stroke:#000;stroke-width:2px;"/><path id="Path-109" serif:id="Path-10" d="M936.42,364.459l2.16,2.082l-69.157,71.685l5.758,5.555l-20.028,7.079l6.354,-20.27l5.757,5.554l69.156,-71.685Z" style="fill:url(#_Linear3);fill-rule:nonzero;"/></g><path id="Path-1010" serif:id="Path-10" d="M356,347l-115,123" style="fill:none;stroke:#000;stroke-width:2px;"/><path id="Path-1011" serif:id="Path-10" d="M645.849,365.142l-6.477,20.231l-5.724,-5.589l-70.075,71.764l-2.146,-2.096l70.074,-71.765l-5.723,-5.588l20.071,-6.957Z" style="fill:url(#_Linear4);fill-rule:nonzero;"/><path id="Path-1012" serif:id="Path-10" d="M788.293,436.072l4.707,14.928l-14.766,-5.192l4.31,-4.173l-0.934,-0.966l1.437,-1.391l0.934,0.966l4.312,-4.172Zm-10.81,-2.542l2.782,2.874l-1.437,1.391l-2.782,-2.874l1.437,-1.391Zm-5.564,-5.749l2.782,2.874l-1.437,1.391l-2.782,-2.874l1.437,-1.391Zm-5.563,-5.748l2.781,2.874l-1.437,1.391l-2.782,-2.874l1.438,-1.391Zm-5.564,-5.749l2.782,2.874l-1.437,1.391l-2.782,-2.874l1.437,-1.391Zm-5.564,-5.748l2.782,2.874l-1.437,1.391l-2.782,-2.874l1.437,-1.391Zm-5.564,-5.749l2.782,2.874l-1.437,1.391l-2.782,-2.874l1.437,-1.391Zm-5.563,-5.748l2.782,2.874l-1.438,1.391l-2.781,-2.874l1.437,-1.391Zm-5.564,-5.749l2.782,2.874l-1.437,1.391l-2.782,-2.874l1.437,-1.391Zm-5.564,-5.748l2.782,2.874l-1.437,1.391l-2.782,-2.874l1.437,-1.391Zm-5.563,-5.749l2.782,2.874l-1.438,1.391l-2.781,-2.874l1.437,-1.391Zm-5.564,-5.748l2.782,2.874l-1.437,1.391l-2.782,-2.874l1.437,-1.391Zm-5.564,-5.749l2.782,2.874l-1.437,1.391l-2.782,-2.874l1.437,-1.391Zm-5.563,-5.748l2.781,2.874l-1.437,1.391l-2.782,-2.874l1.438,-1.391Z" style="fill-rule:nonzero;"/><path id="Path-1013" serif:id="Path-10" d="M487.204,436.1l4.796,14.9l-14.797,-5.103l4.285,-4.199l-1.428,-1.459l1.429,-1.399l1.428,1.458l4.287,-4.198Zm-11.313,-2.975l2.799,2.857l-1.429,1.4l-2.799,-2.858l1.429,-1.399Zm-5.598,-5.716l2.799,2.858l-1.429,1.399l-2.799,-2.857l1.429,-1.4Zm-5.599,-5.715l2.8,2.858l-1.429,1.399l-2.799,-2.857l1.428,-1.4Zm-5.598,-5.715l2.799,2.858l-1.428,1.399l-2.799,-2.857l1.428,-1.4Zm-5.598,-5.715l2.799,2.858l-1.428,1.399l-2.799,-2.857l1.428,-1.4Zm-5.598,-5.715l2.799,2.858l-1.428,1.399l-2.799,-2.857l1.428,-1.4Zm-5.598,-5.715l2.799,2.858l-1.428,1.399l-2.799,-2.858l1.428,-1.399Zm-5.598,-5.715l2.799,2.857l-1.428,1.4l-2.799,-2.858l1.428,-1.399Zm-5.598,-5.715l2.799,2.857l-1.428,1.4l-2.799,-2.858l1.428,-1.399Zm-5.598,-5.715l2.799,2.857l-1.428,1.4l-2.799,-2.858l1.428,-1.399Zm-5.598,-5.715l2.799,2.857l-1.428,1.4l-2.799,-2.858l1.428,-1.399Zm-5.598,-5.715l2.799,2.857l-1.428,1.4l-2.799,-2.858l1.428,-1.399Zm-5.598,-5.716l2.799,2.858l-1.428,1.399l-2.799,-2.857l1.428,-1.4Z" style="fill-rule:nonzero;"/><path id="Path-1014" serif:id="Path-10" d="M189.776,436.245l5.224,14.755l-14.939,-4.673l9.715,-10.082Zm-8.191,0.44l2.88,2.775l-1.387,1.441l-2.881,-2.776l1.388,-1.44Zm-5.761,-5.551l2.88,2.776l-1.387,1.44l-2.881,-2.776l1.388,-1.44Zm-5.761,-5.551l2.881,2.776l-1.388,1.44l-2.881,-2.776l1.388,-1.44Zm-5.761,-5.551l2.881,2.776l-1.388,1.44l-2.88,-2.776l1.387,-1.44Zm-5.761,-5.551l2.881,2.776l-1.388,1.44l-2.88,-2.775l1.387,-1.441Zm-5.76,-5.551l2.88,2.776l-1.388,1.44l-2.88,-2.775l1.388,-1.441Zm-5.761,-5.551l2.88,2.776l-1.388,1.44l-2.88,-2.775l1.388,-1.441Zm-5.761,-5.55l2.88,2.775l-1.387,1.44l-2.881,-2.775l1.388,-1.44Zm-5.761,-5.551l2.881,2.775l-1.388,1.44l-2.881,-2.775l1.388,-1.44Zm-5.761,-5.551l2.881,2.775l-1.388,1.44l-2.88,-2.775l1.387,-1.44Zm-5.761,-5.551l2.881,2.775l-1.388,1.44l-2.88,-2.775l1.387,-1.44Zm-5.76,-5.551l2.88,2.775l-1.388,1.441l-2.88,-2.776l1.388,-1.44Zm-5.761,-5.551l2.88,2.775l-1.388,1.441l-2.88,-2.776l1.388,-1.44Zm-5.761,-5.551l2.88,2.776l-1.387,1.44l-2.881,-2.776l1.388,-1.44Z" style="fill-rule:nonzero;"/><path id="Rectangle-Copy" d="M255,467c0,-5.519 -4.481,-10 -10,-10l-100,0c-5.519,0 -10,4.481 -10,10l0,60c0,5.519 4.481,10 10,10l100,0c5.519,0 10,-4.481 10,-10l0,-60Z" style="fill:#58c322;"/><g id="Group"><g id="CS-A"><path id="Combined-Shape" d="M178.688,513l10.08,-32.016l-6.768,0l-6.768,21.456l-6.48,-21.456l-6.768,0l9.696,32.016l7.008,0Zm18.112,0l-0,-32.016l-6.576,0l-0,32.016l6.576,0Z" style="fill:#fff;fill-rule:nonzero;"/></g></g><g id="Group1" serif:id="Group"><g id="CS-minor"><path id="Combined-Shape1" serif:id="Combined-Shape" d="M209.936,512l-0,-12.1c-0,-2.816 1.1,-4.268 3.212,-4.268c2.024,0 3.08,1.452 3.08,4.268l-0,12.1l5.588,0l-0,-12.276c-0,-2.596 1.188,-4.092 3.256,-4.092c2.112,0 3.124,1.32 3.124,4.092l-0,12.276l5.588,0l-0,-13.332c-0,-3.08 -0.396,-4.488 -1.628,-5.852c-1.144,-1.232 -2.86,-1.892 -4.928,-1.892c-2.904,-0 -4.796,1.056 -6.16,3.388c-0.968,-2.2 -2.904,-3.388 -5.544,-3.388c-2.596,-0 -4.312,1.012 -5.588,3.256l-0,-2.552l-5.588,-0l-0,20.372l5.588,0Z" style="fill:#fff;fill-rule:nonzero;"/></g></g><path id="Rectangle-Copy1" serif:id="Rectangle-Copy" d="M165,289c0,-5.519 -4.481,-10 -10,-10l-100,0c-5.519,0 -10,4.481 -10,10l0,60c0,5.519 4.481,10 10,10l100,0c5.519,0 10,-4.481 10,-10l0,-60Z" style="fill:#58c322;"/><g id="Group2" serif:id="Group"><g id="CS-A1" serif:id="CS-A"><rect id="Combined-Shape2" serif:id="Combined-Shape" x="101.736" y="302.984" width="6.576" height="32.016" style="fill:#fff;fill-rule:nonzero;"/></g></g><path id="Rectangle-Copy2" serif:id="Rectangle-Copy" d="M1155,467c0,-5.519 -4.481,-10 -10,-10l-100,0c-5.519,0 -10,4.481 -10,10l0,60c0,5.519 4.481,10 10,10l100,0c5.519,0 10,-4.481 10,-10l0,-60Z" style="fill:#58c322;"/><g id="Group3" serif:id="Group"><g id="CS-A2" serif:id="CS-A"><path id="Combined-Shape3" serif:id="Combined-Shape" d="M1074.69,513l10.08,-32.016l-6.768,0l-6.768,21.456l-6.48,-21.456l-6.768,0l9.696,32.016l7.008,0Zm18.112,0l0,-32.016l-6.576,0l0,32.016l6.576,0Z" style="fill:#fff;fill-rule:nonzero;"/></g></g><g id="Group4" serif:id="Group"><g id="CS-minor1" serif:id="CS-minor"><path id="Combined-Shape4" serif:id="Combined-Shape" d="M1105.94,512l-0,-12.1c-0,-2.816 1.1,-4.268 3.212,-4.268c2.024,0 3.08,1.452 3.08,4.268l-0,12.1l5.588,0l-0,-12.276c-0,-2.596 1.188,-4.092 3.256,-4.092c2.112,0 3.124,1.32 3.124,4.092l-0,12.276l5.588,0l-0,-13.332c-0,-3.08 -0.396,-4.488 -1.628,-5.852c-1.144,-1.232 -2.86,-1.892 -4.928,-1.892c-2.904,-0 -4.796,1.056 -6.16,3.388c-0.968,-2.2 -2.904,-3.388 -5.544,-3.388c-2.596,-0 -4.312,1.012 -5.588,3.256l-0,-2.552l-5.588,-0l-0,20.372l5.588,0Z" style="fill:#fff;fill-rule:nonzero;"/></g></g><path id="Rectangle-Copy3" serif:id="Rectangle-Copy" d="M1065,289c0,-5.519 -4.481,-10 -10,-10l-100,0c-5.519,0 -10,4.481 -10,10l0,60c0,5.519 4.481,10 10,10l100,0c5.519,0 10,-4.481 10,-10l0,-60Z" style="fill:#58c322;"/><g id="Group5" serif:id="Group"><g id="CS-A3" serif:id="CS-A"><rect id="Combined-Shape5" serif:id="Combined-Shape" x="1001.74" y="302.984" width="6.576" height="32.016" style="fill:#fff;fill-rule:nonzero;"/></g></g><path id="Rectangle-Copy4" serif:id="Rectangle-Copy" d="M855,467c0,-5.519 -4.481,-10 -10,-10l-100,0c-5.519,0 -10,4.481 -10,10l0,60c0,5.519 4.481,10 10,10l100,0c5.519,0 10,-4.481 10,-10l0,-60Z" style="fill:#f50;"/><g id="Group6" serif:id="Group"><g id="CS-A4" serif:id="CS-A"><path id="Combined-Shape6" serif:id="Combined-Shape" d="M771.064,513l0,-32.016l-6.576,0l0,32.016l6.576,0Zm11.248,0l0,-32.016l-6.576,0l0,32.016l6.576,0Zm11.248,0l-0,-32.016l-6.576,0l0,32.016l6.576,0Z" style="fill:#fff;fill-rule:nonzero;"/></g></g><g id="Group7" serif:id="Group"><g id="CS-minor2" serif:id="CS-minor"><path id="Combined-Shape7" serif:id="Combined-Shape" d="M805.936,512l-0,-12.1c-0,-2.816 1.1,-4.268 3.212,-4.268c2.024,0 3.08,1.452 3.08,4.268l-0,12.1l5.588,0l-0,-12.276c-0,-2.596 1.188,-4.092 3.256,-4.092c2.112,0 3.124,1.32 3.124,4.092l-0,12.276l5.588,0l-0,-13.332c-0,-3.08 -0.396,-4.488 -1.628,-5.852c-1.144,-1.232 -2.86,-1.892 -4.928,-1.892c-2.904,-0 -4.796,1.056 -6.16,3.388c-0.968,-2.2 -2.904,-3.388 -5.544,-3.388c-2.596,-0 -4.312,1.012 -5.588,3.256l-0,-2.552l-5.588,-0l-0,20.372l5.588,0Z" style="fill:#fff;fill-rule:nonzero;"/></g></g><path id="Rectangle-Copy5" serif:id="Rectangle-Copy" d="M765,287c0,-5.519 -4.481,-10 -10,-10l-100,0c-5.519,0 -10,4.481 -10,10l0,60c0,5.519 4.481,10 10,10l100,0c5.519,0 10,-4.481 10,-10l0,-60Z" style="fill:#f50;"/><g id="Group8" serif:id="Group"><g id="CS-A5" serif:id="CS-A"><path id="Combined-Shape8" serif:id="Combined-Shape" d="M708.312,333l10.08,-32.016l-6.768,0l-6.768,21.456l-6.48,-21.456l-6.768,0l9.696,32.016l7.008,0Z" style="fill:#fff;fill-rule:nonzero;"/></g></g><path id="Rectangle-Copy6" serif:id="Rectangle-Copy" d="M465,288c0,-5.519 -4.481,-10 -10,-10l-100,0c-5.519,0 -10,4.481 -10,10l0,60c0,5.519 4.481,10 10,10l100,0c5.519,0 10,-4.481 10,-10l0,-60Z" style="fill:#ffbf00;"/><g id="Group9" serif:id="Group"><g id="CS-A6" serif:id="CS-A"><path id="Combined-Shape9" serif:id="Combined-Shape" d="M395.824,334l0,-32.016l-6.576,0l0,32.016l6.576,0Zm18.112,0l10.08,-32.016l-6.768,0l-6.768,21.456l-6.48,-21.456l-6.768,0l9.696,32.016l7.008,0Z" style="fill:#fff;fill-rule:nonzero;"/></g></g><path id="Rectangle-Copy7" serif:id="Rectangle-Copy" d="M555,468c0,-5.519 -4.481,-10 -10,-10l-100,0c-5.519,0 -10,4.481 -10,10l0,60c0,5.519 4.481,10 10,10l100,0c5.519,0 10,-4.481 10,-10l0,-60Z" style="fill:#ffbf00;"/><g id="Group10" serif:id="Group"><g id="CS-minor3" serif:id="CS-minor"><path id="Combined-Shape10" serif:id="Combined-Shape" d="M500.936,515l-0,-12.1c-0,-2.816 1.1,-4.268 3.212,-4.268c2.024,0 3.08,1.452 3.08,4.268l-0,12.1l5.588,0l-0,-12.276c-0,-2.596 1.188,-4.092 3.256,-4.092c2.112,0 3.124,1.32 3.124,4.092l-0,12.276l5.588,0l-0,-13.332c-0,-3.08 -0.396,-4.488 -1.628,-5.852c-1.144,-1.232 -2.86,-1.892 -4.928,-1.892c-2.904,-0 -4.796,1.056 -6.16,3.388c-0.968,-2.2 -2.904,-3.388 -5.544,-3.388c-2.596,-0 -4.312,1.012 -5.588,3.256l-0,-2.552l-5.588,-0l-0,20.372l5.588,0Z" style="fill:#fff;fill-rule:nonzero;"/></g></g><g id="Group11" serif:id="Group"><g id="CS-A7" serif:id="CS-A"><path id="Combined-Shape11" serif:id="Combined-Shape" d="M477.688,514l0,-32.016l-6.576,0l0,32.016l6.576,0Zm11.248,0l0,-32.016l-6.576,0l0,32.016l6.576,0Z" style="fill:#fff;fill-rule:nonzero;"/></g></g><g id="Group12" serif:id="Group"><path id="Rectangle4" serif:id="Rectangle" d="M1148,33c0,-3.311 -2.689,-6 -6,-6l-583,0c-3.311,0 -6,2.689 -6,6l0,153c0,3.311 2.689,6 6,6l583,0c3.311,0 6,-2.689 6,-6l0,-153Z" style="fill:#fcfcfc;"/><g id="双方向OK"><text x="686px" y="76px" style="font-family:'NotoSansSC-Regular', 'Noto Sans SC', sans-serif;font-size:24px;">双方向OK</text></g><g id="逆行は「同機能でマイナーからメジャー」"><text x="686px" y="122px" style="font-family:'NotoSansSC-Regular', 'Noto Sans SC', sans-serif;font-size:24px;">逆行是“同功能从小到大”</text></g><g id="逆行は「緊張の不適切な緩和」"><text x="686px" y="162px" style="font-family:'NotoSansSC-Regular', 'Noto Sans SC', sans-serif;font-size:24px;">逆行是“紧张的不规则缓和”</text></g><path id="Path-1015" serif:id="Path-10" d="M650.5,142.5l19,9.5l-19,9.5l0,-8l-68.5,0l0,-3l68.5,0l0,-8Z" style="fill-rule:nonzero;"/><path id="Path-1016" serif:id="Path-10" d="M666,113l-14,-7l0,14l14,-7Zm-75,-1l0,2l-6,0l0,-2l6,0Zm12,0l0,2l-6,0l0,-2l6,0Zm12,0l0,2l-6,0l0,-2l6,0Zm12,0l0,2l-6,0l0,-2l6,0Zm12,0l0,2l-6,0l0,-2l6,0Zm12,0l0,2l-6,0l0,-2l6,0Z" style="fill-rule:nonzero;"/><path id="Path-1017" serif:id="Path-10" d="M580,69.5l86,0" style="fill:none;stroke:#000;stroke-width:2px;"/></g><path id="Combined-Shape12" serif:id="Combined-Shape" d="M156.675,629.987l0.513,-2.337l-0.912,0c-2.679,0 -4.047,-0.798 -4.047,-2.337c-0,-0.684 0.228,-2.109 0.627,-4.047l5.643,-26.391l1.368,-0.057l4.104,-0.057l1.083,0c2.451,0 3.591,0.684 3.591,2.166c-0,0.627 -0.228,1.482 -0.969,3.249l2.679,0c0.055,-0.127 0.111,-0.253 0.166,-0.38l0.168,-0.38c0.876,-1.969 1.884,-4.075 4.055,-8.417l-1.881,0c-1.482,0.684 -3.078,0.912 -6.498,0.969l-9.462,0.171l-4.56,0c-7.524,-0.057 -8.664,-0.228 -9.747,-1.14l-1.767,0c-1.938,3.933 -3.192,6.27 -4.845,9.177l2.793,0c2.679,-4.275 4.788,-5.358 10.203,-5.358l0.069,0l0.202,0.001c0.481,0.002 1.393,0.011 2.123,0.056l-5.643,26.391c-1.026,5.358 -1.767,6.213 -5.529,6.384l-0.855,0l-0.456,2.337c3.534,-0.171 5.7,-0.228 8.835,-0.228c3.135,0 5.415,0.057 8.949,0.228Z"/><path id="Combined-Shape13" serif:id="Combined-Shape" d="M1056.67,629.987l0.513,-2.337l-0.912,0c-2.679,0 -4.047,-0.798 -4.047,-2.337c-0,-0.684 0.228,-2.109 0.627,-4.047l5.643,-26.391l1.368,-0.057l4.104,-0.057l1.083,0c2.451,0 3.591,0.684 3.591,2.166c-0,0.627 -0.228,1.482 -0.969,3.249l2.679,0c0.055,-0.127 0.111,-0.253 0.166,-0.38l0.168,-0.38c0.876,-1.969 1.884,-4.075 4.055,-8.417l-1.881,0c-1.482,0.684 -3.078,0.912 -6.498,0.969l-9.462,0.171l-4.56,0c-7.524,-0.057 -8.664,-0.228 -9.747,-1.14l-1.767,0c-1.938,3.933 -3.192,6.27 -4.845,9.177l2.793,0c2.679,-4.275 4.788,-5.358 10.203,-5.358l0.069,0l0.202,0.001c0.481,0.002 1.393,0.011 2.123,0.056l-5.643,26.391c-1.026,5.358 -1.767,6.213 -5.529,6.384l-0.855,0l-0.456,2.337c3.534,-0.171 5.7,-0.228 8.835,-0.228c3.135,0 5.415,0.057 8.949,0.228Z"/><path id="Combined-Shape14" serif:id="Combined-Shape" d="M750.291,629.026c6.903,0 12.636,-1.93 17.55,-5.85c5.791,-4.738 9.243,-11.7 9.243,-18.837c-0,-5.616 -2.34,-9.886 -6.786,-12.226c-2.633,-1.463 -6.084,-2.106 -11.115,-2.106c-1.112,-0 -2.282,-0 -3.51,0.058c-6.278,0.138 -7.638,0.167 -8.636,0.174l-0.126,0c-0.021,0.001 -0.041,0.001 -0.062,0.001l-1.067,-0c-0.203,-0.001 -0.4,-0.002 -0.594,-0.004l-0.387,-0.004l-0.385,-0.006c-1.612,-0.029 -3.339,-0.106 -6.995,-0.278l-0.527,2.399l0.702,-0c2.75,-0 4.212,0.76 4.212,2.34c0,0.702 -0.234,2.106 -0.643,4.095l-4.505,21.352c-1.111,5.441 -1.93,6.318 -6.318,6.435l-0.819,0l-0.526,2.399c3.685,-0.234 5.557,-0.293 8.131,-0.293c1.521,0 3.218,0.059 4.973,0.117c3.568,0.117 6.844,0.234 8.19,0.234Zm-1.053,-2.808c-2.457,0 -4.505,-0.468 -5.265,-1.228c-0.293,-0.351 -0.468,-0.878 -0.468,-1.638c-0,-0.936 0.234,-2.457 0.936,-5.675l4.68,-22.054c0.234,-0.936 0.351,-1.521 0.585,-2.516c3.393,-0.117 5.382,-0.175 6.025,-0.175c4.037,-0 7.956,1.287 10.179,3.393c1.989,1.93 3.042,4.797 3.042,8.482c0,5.616 -2.047,11.232 -5.499,15.269c-3.685,4.329 -7.897,6.142 -14.215,6.142Z"/><path id="Combined-Shape15" serif:id="Combined-Shape" d="M451.112,628.533c5.757,-0 10.602,-2.052 13.794,-5.871c2.052,-2.394 3.192,-5.301 3.192,-8.037c0,-3.876 -2.166,-6.669 -7.809,-9.918c-4.788,-2.85 -6.441,-4.503 -6.441,-6.669c0,-3.477 3.819,-6.498 8.151,-6.498c4.275,-0 6.384,2.28 6.498,7.011l2.793,-0.399c0.171,-2.793 0.342,-5.016 0.741,-7.923c-2.964,-0.855 -5.415,-1.254 -8.322,-1.254c-5.928,-0 -10.374,1.767 -13.395,5.358c-1.995,2.28 -3.078,5.073 -3.078,7.752c0,3.876 2.052,6.441 7.695,9.747c4.845,2.793 6.327,4.389 6.327,6.783c0,4.047 -4.104,7.296 -9.177,7.296c-5.13,-0 -7.752,-2.907 -7.752,-8.664l-3.021,0.513l-0.057,0.399c-0.072,3.555 -0.098,4.917 -0.152,6.083l-0.012,0.248c-0.029,0.575 -0.066,1.136 -0.121,1.934c3.648,1.482 6.669,2.109 10.146,2.109Z"/><path id="Path-1018" serif:id="Path-10" d="M213,609.5l200,0" style="fill:none;stroke:#000;stroke-width:1px;"/><path id="Path-1019" serif:id="Path-10" d="M503,609.5l200,0" style="fill:none;stroke:#000;stroke-width:1px;"/><path id="Path-1020" serif:id="Path-10" d="M793,609.5l200,0" style="fill:none;stroke:#000;stroke-width:1px;"/><path id="Line-3" d="M998,675l14,7l-14,7l0,-6l-296,0l0,-2l296,0l0,-6Z" style="fill-rule:nonzero;"/><path id="Line-31" serif:id="Line-3" d="M213,682l290,0" style="fill:none;stroke:#000;stroke-width:2px;stroke-linecap:square;"/><g id="Group13" serif:id="Group"><g id="Degree"><path d="M547.244,690.515l0.269,-1.23l-0.48,-0c-1.2,-0 -1.769,-0.36 -1.769,-1.17c-0,-0.27 0.149,-1.05 0.36,-2.13l2.61,-12.21c0.059,-0.36 0.179,-0.84 0.449,-1.92c0.42,-0.03 0.75,-0.03 1.111,-0.03c2.43,-0 3.63,1.05 3.63,3.15c-0,1.77 -0.75,3.6 -1.89,4.62c-0.9,0.81 -1.89,1.2 -3.361,1.26l-0.269,1.2c0.269,0.03 0.389,0.03 0.6,0.03c4.919,-0 8.88,-3.33 8.88,-7.47c-0,-1.47 -0.66,-2.67 -1.831,-3.36c-0.929,-0.54 -2.25,-0.78 -4.319,-0.78c-0.541,-0 -0.931,-0 -1.351,0.03c-1.327,0.045 -1.659,0.056 -2.197,0.059l-0.932,0c-0.237,-0.002 -0.622,-0.008 -1.791,-0.029l-0.853,-0.001c-0.644,-0.001 -0.975,-0.007 -1.547,-0.029l-0.269,1.23l0.389,-0c1.26,-0 1.89,0.39 1.89,1.2c0,0.3 -0.12,1.08 -0.329,2.1l-2.341,10.95c-0.539,2.79 -0.929,3.24 -2.97,3.3l-0.36,-0l-0.269,1.23c1.375,-0.083 2.296,-0.115 3.803,-0.119l0.427,-0.001c1.889,-0 3,0.03 4.71,0.12Zm15.84,-0l0.27,-1.17l-0.39,-0c-1.02,-0 -1.41,-0.21 -1.41,-0.81c-0,-0.36 -0,-0.36 0.36,-2.04l0.42,-1.98c0.6,-2.79 1.47,-4.05 2.79,-4.05c0.36,-0 0.78,0.09 1.26,0.27c0.36,0.15 0.66,0.24 0.87,0.24c0.66,-0 1.86,-1.62 1.86,-2.52c-0,-0.48 -0.57,-0.81 -1.44,-0.81c-1.59,-0 -2.94,0.84 -4.59,2.85c0.3,-1.53 0.42,-2.22 0.51,-3l-0.18,-0.06c-1.17,0.54 -2.76,1.05 -4.92,1.62l-0.21,1.05l0.21,-0c0.84,-0 1.2,0.24 1.2,0.81c-0,0.3 -0.15,1.17 -0.33,2.1l-0.75,3.48c-0.54,2.64 -0.63,2.79 -2.13,2.85l-0.39,-0l-0.24,1.17c1.26,-0.09 2.01,-0.12 3.42,-0.12c1.5,-0 2.37,0.03 3.81,0.12Zm11.19,0.3c4.8,-0 8.82,-3.69 8.82,-8.04c0,-3.12 -2.25,-5.19 -5.61,-5.19c-4.86,-0 -8.94,3.69 -8.94,8.07c0,3.12 2.25,5.16 5.73,5.16Zm0.6,-1.23c-1.77,-0 -2.7,-1.35 -2.7,-3.9c0,-3.9 2.01,-6.84 4.65,-6.84c1.74,-0 2.7,1.35 2.7,3.84c0,3.93 -1.98,6.9 -4.65,6.9Zm12.181,7.62c3.06,-0 6.06,-1.35 7.95,-3.57c0.81,-0.96 1.32,-2.16 1.32,-3.06c-0,-1.05 -0.57,-1.71 -1.77,-2.04c-0.66,-0.18 -2.25,-0.27 -4.65,-0.3c-1.23,-0 -1.8,-0.24 -1.8,-0.69c-0,-0.33 0.21,-0.57 1.08,-1.17l0.36,-0.24c0.33,0.03 0.51,0.03 0.78,0.03c3.42,-0 6.24,-2.22 6.24,-4.98c-0,-0.36 -0.03,-0.63 -0.15,-1.05l2.58,0.06l0.33,-1.56l-3.78,0.03c-1.05,-0.75 -2.01,-1.02 -3.36,-1.02c-3.63,-0 -6.45,2.28 -6.45,5.22c-0,1.44 0.69,2.31 2.37,3.06l-3.09,2.22c-0.15,0.39 -0.21,0.57 -0.21,0.81c-0,0.63 0.21,1.11 0.66,1.53l-2.37,1.86c-0.39,0.3 -0.69,1.05 -0.69,1.71c-0,1.86 1.89,3.15 4.65,3.15Zm3.48,-12.15c-1.05,-0 -1.65,-0.72 -1.65,-2.04c-0,-2.46 1.23,-4.29 2.88,-4.29c1.11,-0 1.68,0.69 1.68,2.01c-0,2.52 -1.23,4.32 -2.91,4.32Zm-1.65,10.59c-1.95,-0 -3.36,-1.02 -3.36,-2.4c-0,-0.81 0.27,-1.44 1.02,-2.25c1.26,0.42 2.13,0.57 3.15,0.51c0.45,-0.023 0.596,-0.028 0.666,-0.03l0.038,-0c0.006,-0 0.011,-0 0.016,-0c1.83,-0 2.67,0.42 2.67,1.32c-0,1.47 -2.07,2.85 -4.2,2.85Zm16.62,-5.13l0.27,-1.17l-0.39,-0c-1.02,-0 -1.41,-0.21 -1.41,-0.81l0.001,-0.127c0.005,-0.262 0.046,-0.452 0.359,-1.913l0.42,-1.98c0.6,-2.79 1.47,-4.05 2.79,-4.05c0.36,-0 0.78,0.09 1.26,0.27c0.36,0.15 0.66,0.24 0.87,0.24c0.66,-0 1.86,-1.62 1.86,-2.52c-0,-0.48 -0.57,-0.81 -1.44,-0.81c-1.59,-0 -2.94,0.84 -4.59,2.85c0.3,-1.53 0.42,-2.22 0.51,-3l-0.18,-0.06c-1.17,0.54 -2.76,1.05 -4.92,1.62l-0.21,1.05l0.21,-0c0.84,-0 1.2,0.24 1.2,0.81c-0,0.3 -0.15,1.17 -0.33,2.1l-0.75,3.48c-0.54,2.64 -0.63,2.79 -2.13,2.85l-0.39,-0l-0.24,1.17c1.26,-0.09 2.01,-0.12 3.42,-0.12c1.5,-0 2.37,0.03 3.81,0.12Zm6.93,0.36c1.44,-0 3.03,-0.63 4.89,-1.92l0.001,0.25c0.002,0.268 0.011,0.302 0.059,0.47c0.18,0.69 0.84,1.14 1.68,1.14c0.99,-0 2.07,-0.42 3.63,-1.38l-0.39,-0.78c-0.57,0.33 -0.81,0.42 -0.99,0.42c-0.33,-0 -0.48,-0.21 -0.48,-0.6c0,-0.24 0.06,-0.66 0.12,-1.02l0.51,-2.34c0.825,-3.695 0.868,-3.889 0.87,-4.741l0,-0.149c0,-1.47 -1.26,-2.58 -2.91,-2.58c-0.27,-0 -0.66,0.03 -1.08,0.09l-2.31,0.93c-1.05,0.42 -2.73,1.47 -3.45,2.16c-0.48,0.45 -0.72,0.96 -0.72,1.47c0,0.24 0.12,0.39 0.3,0.39c0.39,-0 1.53,-0.36 2.1,-0.66c0.36,-0.18 0.51,-0.36 0.75,-0.93c0.27,-0.66 0.45,-0.93 0.81,-1.17c0.63,-0.39 1.26,-0.6 1.83,-0.6c0.72,-0 1.26,0.6 1.26,1.35c0,0.39 -0.09,1.2 -0.21,1.74l-0.21,0.96l-4.23,1.38c-1.92,0.6 -2.73,0.96 -3.27,1.5c-0.6,0.6 -0.96,1.44 -0.96,2.37c0,1.41 0.9,2.25 2.4,2.25Zm2.43,-1.98c-0.78,-0 -1.26,-0.45 -1.26,-1.2c0,-1.2 0.9,-2.04 2.85,-2.61c0.42,-0.12 0.84,-0.24 0.96,-0.3l0.84,-0.27l-0.6,2.79l-0.06,0.3l-0.03,0.24c-1.23,0.78 -1.95,1.05 -2.7,1.05Zm18.811,1.98c1.44,-0.48 2.94,-0.72 4.95,-0.84l0.24,-1.05l-0.12,-0c-0.93,-0 -1.23,-0.21 -1.23,-0.84c-0,-0.42 0.09,-0.96 0.51,-2.97l2.25,-10.47c0.54,-2.43 1.08,-4.38 1.44,-5.34l-0.57,-0.39c-1.17,0.6 -4.05,1.53 -5.1,1.65l-0.21,1.05c1.14,-0 1.44,0.18 1.44,0.84c-0,0.36 -0.12,1.08 -0.45,2.58l-0.75,3.51c-0.96,-0.69 -1.83,-0.96 -3,-0.96c-4.2,-0 -7.92,4.11 -7.92,8.76c-0,2.73 1.5,4.41 3.9,4.41c1.41,-0 2.7,-0.51 4.77,-1.89c-0.18,0.45 -0.27,0.75 -0.54,1.38l0.39,0.57Zm-2.31,-2.28c-1.62,-0 -2.58,-1.26 -2.58,-3.3c-0,-3.27 2.19,-6.27 4.53,-6.27c1.29,-0 2.13,0.78 2.13,1.95c-0,0.39 -0.12,1.08 -0.36,2.19l-0.9,4.29c-1.08,0.84 -1.86,1.14 -2.82,1.14Zm14.91,2.22c2.19,-0 4.41,-0.96 6.36,-2.7l-0.57,-0.78c-1.44,0.93 -2.43,1.29 -3.48,1.29c-2.07,-0 -3.33,-1.41 -3.33,-3.69c0,-0.69 0.12,-1.38 0.3,-1.83l6.69,-0c0.72,-0 0.93,-0.06 1.14,-0.3c0.33,-0.36 0.54,-1.17 0.54,-1.98c0,-1.95 -1.53,-3.18 -3.96,-3.18c-4.5,-0 -8.37,3.93 -8.37,8.46c0,2.82 1.89,4.71 4.68,4.71Zm3.36,-8.91l-3.72,-0c0.9,-2.01 2.04,-3 3.51,-3c0.99,-0 1.59,0.57 1.59,1.53c0,1.02 -0.42,1.47 -1.38,1.47Z" style="fill:#0c0c0c;fill-rule:nonzero;"/></g></g><path id="Line-32" serif:id="Line-3" d="M703,742l295,-0.5" style="fill:none;stroke:#000;stroke-width:2px;stroke-linecap:square;"/><path id="Line-33" serif:id="Line-3" d="M209,735l-0.001,6l297.001,0l0,2l-297.001,0l0.001,6l-14,-7l14,-7Z" style="fill-rule:nonzero;"/><g id="Group14" serif:id="Group"><g id="Degree1" serif:id="Degree"><path d="M545.083,750.515l0.24,-1.17c-1.32,-0.12 -1.68,-0.51 -3.06,-3.12l-2.52,-4.98c-0.09,-0.18 -0.15,-0.27 -0.18,-0.3l-0.18,-0.33l-0.06,-0.12c3.21,-1.05 5.25,-3.48 5.25,-6.21c0,-1.23 -0.54,-2.28 -1.47,-2.85c-0.99,-0.6 -2.49,-0.96 -4.08,-0.96c-0.21,-0 -0.57,-0 -1.05,0.03c-1.74,0.09 -3.18,0.15 -4.38,0.15c-1.32,-0 -2.28,-0.03 -3.93,-0.15l-0.27,1.23l0.33,-0c1.11,-0 1.74,0.39 1.74,1.14c0,0.27 -0.18,1.35 -0.33,2.16l-2.34,10.95c-0.54,2.79 -0.93,3.24 -2.82,3.3l-0.3,-0l-0.27,1.23c1.56,-0.09 2.52,-0.12 4.11,-0.12c1.71,-0 2.85,0.03 4.68,0.12l0.24,-1.23l-0.36,-0c-1.29,-0 -1.92,-0.39 -1.92,-1.17c0,-0.3 0.12,-1.08 0.36,-2.13l0.96,-4.62l0.42,0.03l0.09,-0c0.36,-0 0.69,-0.03 1.41,-0.06l3.39,7.17c0.81,1.83 1.08,1.95 4.14,2.01l2.16,-0Zm-10.83,-10.41c-0.09,-0 -0.27,-0 -0.51,-0.03l1.29,-5.94c0.09,-0.39 0.24,-1.02 0.51,-2.22l1.23,-0.03c2.58,-0 3.81,0.96 3.81,2.97c0,1.5 -0.66,2.94 -1.77,3.87c-0.96,0.81 -2.88,1.38 -4.56,1.38Zm16.92,10.71c2.19,-0 4.41,-0.96 6.36,-2.7l-0.57,-0.78c-1.44,0.93 -2.43,1.29 -3.48,1.29c-2.07,-0 -3.33,-1.41 -3.33,-3.69c0,-0.69 0.12,-1.38 0.3,-1.83l6.691,-0c0.72,-0 0.929,-0.06 1.139,-0.3c0.331,-0.36 0.54,-1.17 0.54,-1.98c0,-1.95 -1.529,-3.18 -3.959,-3.18c-4.5,-0 -8.37,3.93 -8.37,8.46c-0,2.82 1.889,4.71 4.679,4.71Zm3.361,-8.91l-3.721,-0c0.9,-2.01 2.04,-3 3.51,-3c0.99,-0 1.591,0.57 1.591,1.53c-0,1.02 -0.42,1.47 -1.38,1.47Zm8.82,8.91c0.99,-0 2.07,-0.18 3.09,-0.54c0.24,-0.06 0.39,-0.12 0.45,-0.12c0.03,-0.03 0.12,-0.06 0.21,-0.06l0.09,-1.08c-0.57,0.18 -0.87,0.24 -1.29,0.24c-1.02,-0 -1.53,-0.42 -1.53,-1.26c-0,-0.45 0.21,-1.71 0.57,-3.36l0.96,-4.59l3.15,-0l0.6,-1.38l-3.39,-0l0.9,-4.05l-1.08,-0.09c-1.14,2.01 -2.94,3.6 -4.89,4.38l-0.42,1.14l1.59,-0l-1.41,6.63c-0.24,1.14 -0.3,1.56 -0.3,2.01c-0,1.38 0.96,2.13 2.7,2.13Zm12.66,-0.3l0.27,-1.17l-0.39,-0c-1.02,-0 -1.41,-0.21 -1.41,-0.81l0,-0.087c0.003,-0.286 0.032,-0.419 0.36,-1.953l0.42,-1.98c0.6,-2.79 1.47,-4.05 2.79,-4.05c0.36,-0 0.78,0.09 1.26,0.27c0.36,0.15 0.66,0.24 0.87,0.24c0.66,-0 1.86,-1.62 1.86,-2.52c0,-0.48 -0.57,-0.81 -1.44,-0.81c-1.59,-0 -2.94,0.84 -4.59,2.85c0.3,-1.53 0.42,-2.22 0.51,-3l-0.18,-0.06c-1.17,0.54 -2.76,1.05 -4.92,1.62l-0.21,1.05l0.21,-0c0.84,-0 1.2,0.24 1.2,0.81c0,0.3 -0.15,1.17 -0.33,2.1l-0.75,3.48c-0.54,2.64 -0.63,2.79 -2.13,2.85l-0.39,-0l-0.24,1.17c1.26,-0.09 2.01,-0.12 3.42,-0.12c1.5,-0 2.37,0.03 3.81,0.12Zm11.191,0.3c4.8,-0 8.82,-3.69 8.82,-8.04c-0,-3.12 -2.25,-5.19 -5.61,-5.19c-4.86,-0 -8.94,3.69 -8.94,8.07c-0,3.12 2.25,5.16 5.73,5.16Zm0.6,-1.23c-1.77,-0 -2.7,-1.35 -2.7,-3.9c-0,-3.9 2.01,-6.84 4.65,-6.84c1.74,-0 2.7,1.35 2.7,3.84c-0,3.93 -1.98,6.9 -4.65,6.9Zm12.18,7.62c3.06,-0 6.06,-1.35 7.95,-3.57c0.81,-0.96 1.32,-2.16 1.32,-3.06c-0,-1.05 -0.57,-1.71 -1.77,-2.04c-0.66,-0.18 -2.25,-0.27 -4.65,-0.3c-1.23,-0 -1.8,-0.24 -1.8,-0.69c-0,-0.33 0.21,-0.57 1.08,-1.17l0.36,-0.24c0.33,0.03 0.51,0.03 0.78,0.03c3.42,-0 6.24,-2.22 6.24,-4.98c-0,-0.36 -0.03,-0.63 -0.15,-1.05l2.58,0.06l0.33,-1.56l-3.78,0.03c-1.05,-0.75 -2.01,-1.02 -3.36,-1.02c-3.63,-0 -6.45,2.28 -6.45,5.22c-0,1.44 0.69,2.31 2.37,3.06l-3.09,2.22c-0.15,0.39 -0.21,0.57 -0.21,0.81c-0,0.63 0.21,1.11 0.66,1.53l-2.37,1.86c-0.39,0.3 -0.69,1.05 -0.69,1.71c-0,1.86 1.89,3.15 4.65,3.15Zm3.48,-12.15c-1.05,-0 -1.65,-0.72 -1.65,-2.04c-0,-2.46 1.23,-4.29 2.88,-4.29c1.11,-0 1.68,0.69 1.68,2.01c-0,2.52 -1.23,4.32 -2.91,4.32Zm-1.65,10.59c-1.95,-0 -3.36,-1.02 -3.36,-2.4c-0,-0.81 0.27,-1.44 1.02,-2.25c1.26,0.42 2.13,0.57 3.15,0.51c0.45,-0.023 0.596,-0.028 0.667,-0.03l0.038,-0c0.005,-0 0.01,-0 0.015,-0c1.83,-0 2.67,0.42 2.67,1.32c-0,1.47 -2.07,2.85 -4.2,2.85Zm16.62,-5.13l0.27,-1.17l-0.39,-0c-1.02,-0 -1.41,-0.21 -1.41,-0.81l0.001,-0.087c0.002,-0.286 0.031,-0.419 0.359,-1.953l0.42,-1.98c0.6,-2.79 1.47,-4.05 2.79,-4.05c0.36,-0 0.78,0.09 1.26,0.27c0.36,0.15 0.66,0.24 0.87,0.24c0.66,-0 1.86,-1.62 1.86,-2.52c0,-0.48 -0.57,-0.81 -1.44,-0.81c-1.59,-0 -2.94,0.84 -4.59,2.85c0.3,-1.53 0.42,-2.22 0.51,-3l-0.18,-0.06c-1.17,0.54 -2.76,1.05 -4.92,1.62l-0.21,1.05l0.21,-0c0.84,-0 1.2,0.24 1.2,0.81c0,0.3 -0.15,1.17 -0.33,2.1l-0.75,3.48c-0.54,2.64 -0.63,2.79 -2.13,2.85l-0.39,-0l-0.24,1.17c1.26,-0.09 2.01,-0.12 3.42,-0.12c1.5,-0 2.37,0.03 3.81,0.12Zm6.931,0.36c1.44,-0 3.03,-0.63 4.89,-1.92c-0,0.51 -0,0.51 0.06,0.72c0.18,0.69 0.84,1.14 1.68,1.14c0.99,-0 2.07,-0.42 3.63,-1.38l-0.39,-0.78c-0.57,0.33 -0.81,0.42 -0.99,0.42c-0.33,-0 -0.48,-0.21 -0.48,-0.6c-0,-0.24 0.06,-0.66 0.12,-1.02l0.51,-2.34c0.618,-2.771 0.797,-3.573 0.849,-4.161l0.009,-0.127c0.008,-0.126 0.01,-0.247 0.011,-0.384l0.001,-0.218c-0,-1.47 -1.26,-2.58 -2.91,-2.58c-0.27,-0 -0.66,0.03 -1.08,0.09l-2.31,0.93c-1.05,0.42 -2.73,1.47 -3.45,2.16c-0.48,0.45 -0.72,0.96 -0.72,1.47c-0,0.24 0.12,0.39 0.3,0.39c0.39,-0 1.53,-0.36 2.1,-0.66c0.36,-0.18 0.51,-0.36 0.75,-0.93c0.27,-0.66 0.45,-0.93 0.81,-1.17c0.63,-0.39 1.26,-0.6 1.83,-0.6c0.72,-0 1.26,0.6 1.26,1.35c-0,0.39 -0.09,1.2 -0.21,1.74l-0.21,0.96l-4.23,1.38c-1.92,0.6 -2.73,0.96 -3.27,1.5c-0.6,0.6 -0.96,1.44 -0.96,2.37c-0,1.41 0.9,2.25 2.4,2.25Zm2.43,-1.98c-0.78,-0 -1.26,-0.45 -1.26,-1.2c-0,-1.2 0.9,-2.04 2.85,-2.61c0.42,-0.12 0.84,-0.24 0.96,-0.3l0.84,-0.27l-0.6,2.79l-0.06,0.3l-0.03,0.24c-1.23,0.78 -1.95,1.05 -2.7,1.05Zm18.81,1.98c1.44,-0.48 2.94,-0.72 4.95,-0.84l0.24,-1.05l-0.12,-0c-0.93,-0 -1.23,-0.21 -1.23,-0.84c0,-0.42 0.09,-0.96 0.51,-2.97l2.25,-10.47c0.54,-2.43 1.08,-4.38 1.44,-5.34l-0.57,-0.39c-1.17,0.6 -4.05,1.53 -5.1,1.65l-0.21,1.05c1.14,-0 1.44,0.18 1.44,0.84c0,0.36 -0.12,1.08 -0.45,2.58l-0.75,3.51c-0.96,-0.69 -1.83,-0.96 -3,-0.96c-4.2,-0 -7.92,4.11 -7.92,8.76c0,2.73 1.5,4.41 3.9,4.41c1.41,-0 2.7,-0.51 4.77,-1.89c-0.18,0.45 -0.27,0.75 -0.54,1.38l0.39,0.57Zm-2.31,-2.28c-1.62,-0 -2.58,-1.26 -2.58,-3.3c0,-3.27 2.19,-6.27 4.53,-6.27c1.29,-0 2.13,0.78 2.13,1.95c0,0.39 -0.12,1.08 -0.36,2.19l-0.9,4.29c-1.08,0.84 -1.86,1.14 -2.82,1.14Zm14.911,2.22c2.19,-0 4.41,-0.96 6.36,-2.7l-0.57,-0.78c-1.44,0.93 -2.43,1.29 -3.48,1.29c-2.07,-0 -3.33,-1.41 -3.33,-3.69c-0,-0.69 0.12,-1.38 0.3,-1.83l6.69,-0c0.72,-0 0.93,-0.06 1.14,-0.3c0.33,-0.36 0.54,-1.17 0.54,-1.98c-0,-1.95 -1.53,-3.18 -3.96,-3.18c-4.5,-0 -8.37,3.93 -8.37,8.46c-0,2.82 1.89,4.71 4.68,4.71Zm3.36,-8.91l-3.72,-0c0.9,-2.01 2.04,-3 3.51,-3c0.99,-0 1.59,0.57 1.59,1.53c-0,1.02 -0.42,1.47 -1.38,1.47Z" style="fill:#0c0c0c;fill-rule:nonzero;"/></g></g></g><defs><linearGradient id="_Linear1" x1="0" y1="0" x2="1" y2="0" gradientUnits="userSpaceOnUse" gradientTransform="matrix(-156.465,1.91614e-14,-1.91614e-14,-156.465,626.96,308.944)"><stop offset="0" style="stop-color:#f63;stop-opacity:1"/><stop offset="1" style="stop-color:#ffbf00;stop-opacity:1"/></linearGradient><linearGradient id="_Linear2" x1="0" y1="0" x2="1" y2="0" gradientUnits="userSpaceOnUse" gradientTransform="matrix(-156.465,1.91614e-14,-1.91614e-14,-156.465,719.46,487.694)"><stop offset="0" style="stop-color:#f63;stop-opacity:1"/><stop offset="1" style="stop-color:#ffbf00;stop-opacity:1"/></linearGradient><linearGradient id="_Linear3" x1="0" y1="0" x2="1" y2="0" gradientUnits="userSpaceOnUse" gradientTransform="matrix(-64.1278,86.4013,-86.4013,-64.1278,931.476,364.459)"><stop offset="0" style="stop-color:#58c322;stop-opacity:1"/><stop offset="1" style="stop-color:#f63;stop-opacity:1"/></linearGradient><linearGradient id="_Linear4" x1="0" y1="0" x2="1" y2="0" gradientUnits="userSpaceOnUse" gradientTransform="matrix(-79.8113,9.77407e-15,-9.77407e-15,-79.8113,641.238,365.142)"><stop offset="0" style="stop-color:#f63;stop-opacity:1"/><stop offset="1" style="stop-color:#ffbf00;stop-opacity:1"/></linearGradient></defs></svg>