<?xml version="1.0" encoding="UTF-8"?>
<svg width="710px" height="340px" viewBox="0 0 710 340" version="1.1" xmlns="http://www.w3.org/2000/svg" xmlns:xlink="http://www.w3.org/1999/xlink">
    <title>c1-I3-IIIm</title>
    <defs>
        <linearGradient x1="1.70546707%" y1="50%" x2="100%" y2="50%" id="linearGradient-1">
            <stop stop-color="#365AFF" offset="0%"></stop>
            <stop stop-color="#58C322" offset="100%"></stop>
        </linearGradient>
    </defs>
    <g id="c1-I3-IIIm" stroke="none" stroke-width="1" fill="none" fill-rule="evenodd">
        <rect id="楽譜BG" fill="#FFFFFF" x="28.4223195" y="31" width="648.577681" height="239"></rect>
        <g id="五線" transform="translate(27.000000, 180.000000)" stroke="#000000">
            <line x1="0" y1="10.5" x2="649" y2="10.5" id="horizon"></line>
            <line x1="0" y1="30.5" x2="649" y2="30.5" id="horizon"></line>
            <line x1="0" y1="50.5" x2="649" y2="50.5" id="horizon"></line>
            <line x1="0" y1="70.5" x2="649" y2="70.5" id="horizon"></line>
            <line x1="0" y1="90.5" x2="649" y2="90.5" id="horizon"></line>
        </g>
        <g id="五線" transform="translate(28.422319, 20.000000)" stroke="#000000">
            <line x1="-0.422319475" y1="10.5" x2="648.577681" y2="10.5" id="horizon"></line>
            <line x1="-0.422319475" y1="30.5" x2="648.577681" y2="30.5" id="horizon"></line>
            <line x1="-0.422319475" y1="50.5" x2="648.577681" y2="50.5" id="horizon"></line>
            <line x1="-0.422319475" y1="70.5" x2="648.577681" y2="70.5" id="horizon"></line>
            <line x1="-0.422319475" y1="90.5" x2="648.577681" y2="90.5" id="horizon"></line>
        </g>
        <line x1="-91.5" y1="150.5" x2="147" y2="150" id="bar" stroke="#000000" stroke-width="2.72167481" stroke-linecap="round" stroke-linejoin="round" transform="translate(28.000000, 150.500000) rotate(90.000000) translate(-28.000000, -150.500000) "></line>
        <g id="F" transform="translate(39.000000, 193.000000)" fill="#131516" stroke="#131516" stroke-width="0.5">
            <path d="M0,67.5955531 C5.77440082,63.6965104 10.086928,60.7448987 12.8644879,58.7042782 C15.6420478,56.7000974 18.565795,54.1857614 21.562636,51.19771 C24.5594769,48.2096586 27.0812089,44.8207711 29.127832,41.067487 C30.735893,38.2980735 32.1246729,35.0913842 33.257625,31.447419 C34.390577,27.8398936 34.9753265,24.341687 35.084967,21.0256788 C35.084967,17.9283084 34.6829517,14.9766967 33.8423744,12.2072832 C33.0383439,9.40143003 31.649564,7.105732 29.6760346,5.24730978 C27.7025052,3.42532722 25.1442263,2.51433594 21.9646512,2.51433594 C18.8947166,2.51433594 16.0075162,3.13381001 13.30305,4.3363185 C10.6351306,5.57526664 8.73469491,7.54300781 7.67483653,10.3124213 C7.67483653,10.5674989 7.52864917,10.8954557 7.30936812,11.3691712 C7.3824618,11.9522056 7.67483653,12.3894814 8.22303914,12.7174383 C8.77124175,13.0453952 9.24635067,13.1911538 9.68491276,13.1911538 C9.90419381,13.1911538 10.5254901,13.0818348 11.475708,12.8631969 C12.4624726,12.644559 13.2665031,12.4988004 13.9243463,12.4988004 C15.8613288,12.4988004 17.5790303,13.1911538 19.1505445,14.5394209 C20.6855118,15.887688 21.4529954,17.5274723 21.4529954,19.4587738 C21.4529954,20.8434805 21.0509802,22.155308 20.2834965,23.3578165 C19.5160129,24.560325 18.4561545,25.5441955 17.1039214,26.2365489 C15.7516883,26.9653419 14.2532678,27.2932988 12.6452069,27.2932988 C9.7214596,27.2932988 7.23627444,26.4187472 5.18965137,24.6332043 C3.17957513,22.8112217 2.1562636,20.5155237 2.1562636,17.6367912 C2.1562636,13.9563864 3.28921566,10.7861368 5.51857293,8.08960258 C7.78447705,5.39306839 10.6351306,3.38888757 14.1436273,2.04062047 C17.6155772,0.655913723 21.1240739,0 24.7056643,0 C28.6161762,0 32.3439539,0.983870584 35.8159038,2.9880514 C39.3244005,4.95579257 42.0654135,7.68876642 44.1120366,11.077654 C46.1586597,14.5029812 47.2185181,18.1469463 47.2185181,22.0824287 C47.2185181,29.0788417 44.8795203,35.5650996 40.2015247,41.5776421 C35.5235291,47.5901846 29.7491283,52.8010547 22.8417754,57.2466921 C18.2368735,60.2711832 10.781318,64.3524241 0.511655769,69.490415 L0,67.5955531 Z M50.7635616,9.22341259 C50.7635616,7.91158515 51.2386705,6.81839561 52.1888884,5.94384398 C53.1025594,5.0328527 54.2355115,4.59557688 55.5877446,4.59557688 C56.7572435,4.59557688 57.8536487,5.105732 58.8404134,6.08960258 C59.8271781,7.03703352 60.302287,8.1666627 60.302287,9.40561085 C60.302287,10.7174383 59.7906312,11.8470675 58.8404134,12.7580588 C57.8171018,13.6326104 56.6841498,14.0698862 55.4050104,14.0698862 C54.0527773,14.0698862 52.956372,13.6326104 52.0792479,12.6487398 C51.2021237,11.7013089 50.7635616,10.5716797 50.7635616,9.22341259 Z M50.7635616,28.3177899 C50.7635616,27.0059624 51.2386705,25.8763332 52.1157947,25.0017816 C53.0294657,24.0907903 54.1624178,23.6535145 55.5877446,23.6535145 C56.7572435,23.6535145 57.8171018,24.12723 58.8404134,25.1111005 C59.7906312,26.0949711 60.302287,27.151721 60.302287,28.3177899 C60.302287,29.7389363 59.8271781,30.8685654 58.9135071,31.7795567 C57.9632892,32.690548 56.866884,33.1642635 55.5877446,33.1642635 C54.1624178,33.1642635 53.0294657,32.690548 52.1157947,31.8159964 C51.2386705,30.9414447 50.7635616,29.7753759 50.7635616,28.3177899 Z" id="Shape"></path>
        </g>
        <path d="M56.1620791,131.96278 C55.2662404,131.896201 54.4037992,131.750938 53.5904719,131.529009 C49.3745292,130.385065 46.4551952,127.207444 45.7754579,123.019036 C45.575073,121.792373 45.641868,119.871677 45.9227998,118.776154 C46.1369367,117.936859 46.6555802,116.738442 47.0740312,116.113005 C47.7793077,115.061868 48.9835821,114.067222 50.1858919,113.548715 C51.1740649,113.120997 51.7064603,113.008015 52.9519904,112.963629 C53.9401634,112.927313 54.1837686,112.943454 54.7554552,113.090734 C57.2425863,113.730293 59.2582234,115.86283 60.132452,118.784225 C60.3289078,119.443959 60.3465889,119.611415 60.350518,120.908692 C60.3544471,122.141407 60.3328369,122.397634 60.1776368,122.946404 C59.8338391,124.16298 59.2464361,125.143503 58.3073771,126.061482 C56.9321861,127.409197 55.321248,128.21823 53.1464817,128.658053 L52.2133164,128.847702 L52.8753726,129.13621 C56.4096135,130.689713 60.3230142,130.540416 63.9711994,128.716562 C67.1636071,127.122707 69.6330572,124.237628 70.4817465,121.110445 C70.6880252,120.353869 70.6998125,120.214659 70.6939188,118.776154 L70.6880252,117.246861 L69.4955381,111.331441 C68.8413401,108.077153 68.2873346,105.355495 68.2657245,105.280846 C68.2303624,105.165847 68.1478509,105.181987 67.5820581,105.418039 C63.9260146,106.945315 58.3938176,106.925139 53.3449021,105.3676 C46.4276914,103.235063 40.7815501,98.5543762 37.8386413,92.5138689 C36.9211925,90.6274713 36.384868,88.8237928 36.0882196,86.6186243 C35.9546296,85.6259959 35.9762398,82.9971445 36.1294754,81.7482888 C36.9486963,75.0662046 40.3984611,68.3659626 46.90115,60.8203724 C48.9246453,58.4719587 53.3547249,54.077762 56.3231729,51.4731211 C57.1129254,50.7811058 57.1463229,50.7367199 57.0854216,50.5127733 C56.9479025,49.9942661 56.4705148,47.4783969 56.3231729,46.491821 C55.6395065,41.8938531 55.6414711,36.5554489 56.327102,31.882832 C57.4036801,24.5430306 59.9281379,18.3754185 63.6018624,14.1143793 C64.2717769,13.3356098 65.6901882,12 65.8453883,12 C65.8945023,12 66.3247406,12.5891209 66.7981992,13.3093818 C71.1948813,19.9712907 73.5209186,25.9048684 74.1574356,32.070463 C74.3146003,33.6118617 74.27138,37.2293064 74.0749241,38.6395651 C73.4305489,43.2960417 71.9276616,47.3371693 69.3501608,51.3399637 C67.6645695,53.9607449 65.1263599,56.9386302 62.5351071,59.3394998 C61.943775,59.88827 61.3210099,60.4652858 61.1520579,60.6226537 L60.8455867,60.909144 L62.2030967,67.5851756 L63.5586421,74.2632247 L64.2305211,74.2107687 C66.1204265,74.0594534 68.116418,74.170418 69.5426875,74.5033117 C71.4424157,74.9491874 73.5798554,75.9660263 75.1790061,77.1826015 C76.0709157,77.8625116 77.5561219,79.3817173 78.1828161,80.2573286 C79.6817743,82.3474974 80.6601245,84.8391563 80.9331981,87.2581837 C81.0687527,88.4545834 80.9882058,90.7828217 80.7799625,91.7512397 C79.9568125,95.5825434 77.5207599,99.1858654 73.8097087,102.056821 C72.8922599,102.766994 71.5543955,103.624448 70.581939,104.126815 C69.9238119,104.467779 69.8668397,104.514182 69.91006,104.691725 C69.9925714,105.028654 71.0475394,110.157234 71.4424157,112.136439 C71.6486943,113.17547 71.9669528,114.89643 72.1496567,115.959672 C72.4718443,117.831947 72.4816671,117.928789 72.4384469,119.139311 C72.3598645,121.439304 71.7822843,123.23693 70.4778174,125.256485 C67.9926508,129.099894 63.5409611,131.551202 58.3486328,131.932517 C57.2524091,132.013218 56.8987886,132.019271 56.1620791,131.96278 Z M62.7453149,104.885409 C63.7217005,104.770409 64.9593724,104.504094 65.7609123,104.233744 C66.7431916,103.904886 67.9278204,103.3198 67.880671,103.186642 C67.8590608,103.128134 66.8551714,98.2315702 65.6489324,92.304045 C64.4426935,86.3765198 63.4368395,81.5082018 63.4132648,81.4839914 C63.3896901,81.4597809 62.9889201,81.516272 62.5233197,81.6110963 C59.1069524,82.3031116 56.3035273,84.2621405 55.0756782,86.816343 C54.6886602,87.6213405 54.5413183,88.1479177 54.4411258,89.0679148 C54.2289535,91.0229087 54.8576122,93.1695686 56.1443981,94.8723702 C56.8928949,95.8649987 58.0343034,96.9262234 59.0814131,97.6061335 C59.4821831,97.8663959 59.5588009,97.9935007 59.277869,97.9329746 C59.1796411,97.9127992 58.8358433,97.8381503 58.5136557,97.7695541 C55.9813397,97.2228014 53.5315352,95.7903498 52.1425923,94.0471974 C50.9226014,92.5138689 50.3037654,90.9200143 50.1269552,88.8480033 C49.9010309,86.2070467 50.5925556,83.6609144 52.2113518,81.1652205 C53.256497,79.553208 55.0599617,77.7979504 56.8673556,76.6358488 C58.1757516,75.7925181 60.1599558,74.9330471 61.5115721,74.6223464 C61.7591065,74.5658553 61.961456,74.493224 61.961456,74.4629609 C61.961456,74.3762068 59.4566438,62.1237016 59.4153881,62.0066844 C59.3544868,61.8351937 55.9597296,64.6193955 53.6729834,66.7135994 C52.4117368,67.8696484 49.7281498,70.6639378 48.7537287,71.8361271 C45.8127846,75.3728703 43.9130564,78.5545269 42.8502302,81.7160082 C41.7815104,84.9037175 41.516295,87.972392 42.0624422,90.8756284 C42.726463,94.4063191 45.0033864,98.1004302 48.0484522,100.588054 C52.183848,103.965412 57.4508295,105.504793 62.7453149,104.885409 Z M70.5053212,101.528226 C73.3244628,99.1071814 74.992373,96.3532427 75.4854772,93.3128137 C75.6505001,92.2939573 75.6072798,90.1452799 75.4049303,89.1950197 C74.5798157,85.3455582 72.0612516,82.3737254 68.7411476,81.3326761 C68.0869496,81.1268873 67.9356786,81.110747 66.6469282,81.1087294 C65.8296718,81.1087294 65.2304815,81.1389925 65.1892257,81.1874134 C65.14797,81.2338167 65.9907656,85.4625753 67.3011262,91.7714151 C68.4995069,97.5476249 69.4817862,102.284803 69.4837508,102.298926 C69.491609,102.363487 69.8354067,102.103225 70.5053212,101.528226 Z M61.2836833,47.0163808 C66.959293,41.3349952 70.3127945,35.8029074 71.0121773,30.9628349 C71.169342,29.8733647 71.1673775,28.0959142 71.0062837,27.1274962 C70.6840961,25.1946952 69.8963081,23.4979462 68.5564791,21.8617233 C68.0240837,21.2120762 67.9435368,21.1777781 66.9376829,21.1797211 C65.8296718,21.1818131 64.8218533,21.7083904 63.7767081,22.8301413 C62.0439675,24.6842582 60.5960878,27.7145996 59.5293325,31.7073063 C58.0460908,37.2656221 57.5903132,44.2180563 58.4036404,48.9269888 L58.5313367,49.6714601 L59.3250184,48.9269888 C59.7611504,48.5174287 60.6412726,47.6579577 61.2836833,47.0163808 Z" id="G-Clef" fill="#000000"></path>
        <line x1="364" y1="151.5" x2="603" y2="151.5" id="bar" stroke="#000000" stroke-linecap="round" stroke-linejoin="round" transform="translate(483.500000, 151.500000) rotate(90.000000) translate(-483.500000, -151.500000) "></line>
        <line x1="558" y1="151.5" x2="797" y2="151.5" id="bar" stroke="#000000" stroke-linecap="round" stroke-linejoin="round" transform="translate(677.500000, 151.500000) rotate(90.000000) translate(-677.500000, -151.500000) "></line>
        <g id="Group" transform="translate(165.000000, 230.000000)" fill="#0C0C0C" fill-rule="nonzero">
            <g id="note">
                <path d="M9.19317249,2.29432169 C2.89792118,5.63645765 -0.455467984,11.6853565 1.60772834,16.2358031 C3.80810033,21.0910819 11.3712998,22.4609904 18.4877514,19.2951429 C25.6060568,16.1292955 29.5952737,9.61763938 27.3949018,4.76419689 C25.1945298,-0.0910819352 17.6313303,-1.46099041 10.5148787,1.70485706 C10.0699846,1.90318161 9.61211442,2.07028841 9.19317249,2.29432169 Z" transform="translate(14.500000, 10.500000) rotate(-180.000000) translate(-14.500000, -10.500000) "></path>
            </g>
        </g>
        <path d="M174.193172,121.294322 C167.897921,124.636458 164.544532,130.685356 166.607728,135.235803 C168.8081,140.091082 176.3713,141.46099 183.487751,138.295143 C190.606057,135.129295 194.595274,128.617639 192.394902,123.764197 C190.19453,118.908918 182.63133,117.53901 175.514879,120.704857 C175.069985,120.903182 174.612114,121.070288 174.193172,121.294322 Z" id="note" fill="#000000" transform="translate(179.500000, 129.500000) rotate(-180.000000) translate(-179.500000, -129.500000) "></path>
        <g id="Group" transform="translate(157.000000, 129.500000)" fill="#0C0C0C" fill-rule="nonzero">
            <g id="Rectangle">
                <rect x="0" y="0" width="45" height="2"></rect>
            </g>
        </g>
        <path d="M174.193172,101.294322 C167.897921,104.636458 164.544532,110.685356 166.607728,115.235803 C168.8081,120.091082 176.3713,121.46099 183.487751,118.295143 C190.606057,115.129295 194.595274,108.617639 192.394902,103.764197 C190.19453,98.9089181 182.63133,97.5390096 175.514879,100.704857 C175.069985,100.903182 174.612114,101.070288 174.193172,101.294322 Z" id="note" fill="#000000" transform="translate(179.500000, 109.500000) rotate(-180.000000) translate(-179.500000, -109.500000) "></path>
        <path d="M174.193172,81.2943217 C167.897921,84.6364576 164.544532,90.6853565 166.607728,95.2358031 C168.8081,100.091082 176.3713,101.46099 183.487751,98.2951429 C190.606057,95.1292955 194.595274,88.6176394 192.394902,83.7641969 C190.19453,78.9089181 182.63133,77.5390096 175.514879,80.7048571 C175.069985,80.9031816 174.612114,81.0702884 174.193172,81.2943217 Z" id="note" fill="#000000" transform="translate(179.500000, 89.500000) rotate(-180.000000) translate(-179.500000, -89.500000) "></path>
        <path d="M373.193172,121.294322 C366.897921,124.636458 363.544532,130.685356 365.607728,135.235803 C367.8081,140.091082 375.3713,141.46099 382.487751,138.295143 C389.606057,135.129295 393.595274,128.617639 391.394902,123.764197 C389.19453,118.908918 381.63133,117.53901 374.514879,120.704857 C374.069985,120.903182 373.612114,121.070288 373.193172,121.294322 Z" id="note" fill="#000000" transform="translate(378.500000, 129.500000) rotate(-180.000000) translate(-378.500000, -129.500000) "></path>
        <g id="Group" transform="translate(356.000000, 129.500000)" fill="#0C0C0C" fill-rule="nonzero">
            <g id="Rectangle">
                <rect x="0" y="0" width="45" height="2"></rect>
            </g>
        </g>
        <path d="M373.193172,101.294322 C366.897921,104.636458 363.544532,110.685356 365.607728,115.235803 C367.8081,120.091082 375.3713,121.46099 382.487751,118.295143 C389.606057,115.129295 393.595274,108.617639 391.394902,103.764197 C389.19453,98.9089181 381.63133,97.5390096 374.514879,100.704857 C374.069985,100.903182 373.612114,101.070288 373.193172,101.294322 Z" id="note" fill="#000000" transform="translate(378.500000, 109.500000) rotate(-180.000000) translate(-378.500000, -109.500000) "></path>
        <path d="M373.193172,81.2943217 C366.897921,84.6364576 363.544532,90.6853565 365.607728,95.2358031 C367.8081,100.091082 375.3713,101.46099 382.487751,98.2951429 C389.606057,95.1292955 393.595274,88.6176394 391.394902,83.7641969 C389.19453,78.9089181 381.63133,77.5390096 374.514879,80.7048571 C374.069985,80.9031816 373.612114,81.0702884 373.193172,81.2943217 Z" id="note" fill="#000000" transform="translate(378.500000, 89.500000) rotate(-180.000000) translate(-378.500000, -89.500000) "></path>
        <path d="M572.193172,131.294322 C565.897921,134.636458 562.544532,140.685356 564.607728,145.235803 C566.8081,150.091082 574.3713,151.46099 581.487751,148.295143 C588.606057,145.129295 592.595274,138.617639 590.394902,133.764197 C588.19453,128.908918 580.63133,127.53901 573.514879,130.704857 C573.069985,130.903182 572.612114,131.070288 572.193172,131.294322 Z" id="note" fill="#000000" transform="translate(577.500000, 139.500000) rotate(-180.000000) translate(-577.500000, -139.500000) "></path>
        <g id="Group" transform="translate(555.000000, 129.500000)" fill="#0C0C0C" fill-rule="nonzero">
            <g id="Rectangle">
                <rect x="0" y="0" width="45" height="2"></rect>
            </g>
        </g>
        <path d="M572.193172,101.294322 C565.897921,104.636458 562.544532,110.685356 564.607728,115.235803 C566.8081,120.091082 574.3713,121.46099 581.487751,118.295143 C588.606057,115.129295 592.595274,108.617639 590.394902,103.764197 C588.19453,98.9089181 580.63133,97.5390096 573.514879,100.704857 C573.069985,100.903182 572.612114,101.070288 572.193172,101.294322 Z" id="note" fill="#000000" transform="translate(577.500000, 109.500000) rotate(-180.000000) translate(-577.500000, -109.500000) "></path>
        <path d="M572.193172,81.2943217 C565.897921,84.6364576 562.544532,90.6853565 564.607728,95.2358031 C566.8081,100.091082 574.3713,101.46099 581.487751,98.2951429 C588.606057,95.1292955 592.595274,88.6176394 590.394902,83.7641969 C588.19453,78.9089181 580.63133,77.5390096 573.514879,80.7048571 C573.069985,80.9031816 572.612114,81.0702884 572.193172,81.2943217 Z" id="note" fill="#000000" transform="translate(577.500000, 89.500000) rotate(-180.000000) translate(-577.500000, -89.500000) "></path>
        <g id="Group" transform="translate(366.000000, 210.000000)" fill="#0C0C0C" fill-rule="nonzero">
            <g id="note">
                <path d="M9.19317249,2.29432169 C2.89792118,5.63645765 -0.455467984,11.6853565 1.60772834,16.2358031 C3.80810033,21.0910819 11.3712998,22.4609904 18.4877514,19.2951429 C25.6060568,16.1292955 29.5952737,9.61763938 27.3949018,4.76419689 C25.1945298,-0.0910819352 17.6313303,-1.46099041 10.5148787,1.70485706 C10.0699846,1.90318161 9.61211442,2.07028841 9.19317249,2.29432169 Z" transform="translate(14.500000, 10.500000) rotate(-180.000000) translate(-14.500000, -10.500000) "></path>
            </g>
        </g>
        <g id="Group" transform="translate(566.000000, 210.000000)" fill="#0C0C0C" fill-rule="nonzero">
            <g id="note">
                <path d="M9.19317249,2.29432169 C2.89792118,5.63645765 -0.455467984,11.6853565 1.60772834,16.2358031 C3.80810033,21.0910819 11.3712998,22.4609904 18.4877514,19.2951429 C25.6060568,16.1292955 29.5952737,9.61763938 27.3949018,4.76419689 C25.1945298,-0.0910819352 17.6313303,-1.46099041 10.5148787,1.70485706 C10.0699846,1.90318161 9.61211442,2.07028841 9.19317249,2.29432169 Z" transform="translate(14.500000, 10.500000) rotate(-180.000000) translate(-14.500000, -10.500000) "></path>
            </g>
        </g>
        <rect id="Rectangle" fill="url(#linearGradient-1)" fill-rule="nonzero" x="148" y="281" width="472" height="37" rx="18.5"></rect>
        <line x1="280" y1="31" x2="280" y2="270" id="Path-15" stroke="#000000" stroke-linecap="square" fill-rule="nonzero"></line>
        <g id="Group" transform="translate(558.000000, 278.000000)" fill="#FFFFFF" fill-rule="nonzero">
            <g id="CN-Root">
                <path d="M27.9140942,30.0879121 L27.9140942,24.7319121 L25.6520942,24.7319121 L25.6520942,28.2679121 L19.2560942,28.2679121 L19.2560942,22.0019121 L25.5480942,22.0019121 L25.5480942,20.1299121 L19.2560942,20.1299121 L19.2560942,14.3839121 L25.5480942,14.3839121 L25.5480942,17.5819121 L27.8360942,17.5819121 L27.8360942,12.5639121 L14.6800942,12.5639121 L14.6800942,14.3839121 L16.5780942,14.3839121 L16.5780942,28.2679121 L14.6800942,28.2679121 L14.6800942,30.0879121 L27.9140942,30.0879121 Z" id="Combined-Shape"></path>
            </g>
        </g>
        <g id="Group" transform="translate(582.500000, 278.000000)" fill="#FFFFFF" fill-rule="nonzero">
            <g id="CN-minor">
                <path d="M8.13391441,30.1038961 C8.34991441,30.1038961 8.46991441,29.9838961 8.46991441,29.7678961 L8.46991441,22.9038961 C9.21391441,22.3278961 9.86191441,22.0878961 10.5579144,22.0878961 C11.8299144,22.0878961 12.4299144,22.8798961 12.4299144,24.4638961 L12.4299144,29.7678961 C12.4299144,29.9838961 12.5739144,30.1038961 12.7659144,30.1038961 L14.4219144,30.1038961 C14.6379144,30.1038961 14.7579144,29.9838961 14.7579144,29.7678961 L14.7579144,24.2238961 C14.7579144,23.7918961 14.7099144,23.3838961 14.6619144,23.0238961 C15.3339144,22.4238961 16.0779144,22.0878961 16.8459144,22.0878961 C18.0699144,22.0878961 18.6939144,22.8798961 18.6939144,24.4638961 L18.6939144,29.7678961 C18.6939144,29.9838961 18.8139144,30.1038961 19.0299144,30.1038961 L20.6859144,30.1038961 C20.9019144,30.1038961 21.0219144,29.9838961 21.0219144,29.7678961 L21.0219144,24.2238961 C21.0219144,21.4638961 19.5339144,20.0238961 17.3019144,20.0238961 C16.0299144,20.0238961 14.9019144,20.5038961 13.9899144,21.4158961 C13.3659144,20.5038961 12.3339144,20.0238961 11.0859144,20.0238961 C9.95791441,20.0238961 9.02191441,20.3838961 7.96591441,21.1758961 C7.70191441,20.5758961 7.19791441,20.2638961 6.38191441,20.2638961 L5.39791441,20.2638961 C5.18191441,20.2638961 5.06191441,20.3838961 5.06191441,20.5998961 L5.06191441,21.7998961 C5.06191441,22.0158961 5.18191441,22.1358961 5.39791441,22.1358961 L5.66191441,22.1358961 C6.06991441,22.1358961 6.11791441,22.3518961 6.11791441,22.9278961 L6.11791441,23.8638961 L6.14191441,23.8638961 L6.14191441,29.7678961 C6.14191441,29.9838961 6.23791441,30.1038961 6.47791441,30.1038961 L8.13391441,30.1038961 Z" id="Combined-Shape"></path>
            </g>
        </g>
        <g id="Group" transform="translate(157.000000, 278.000000)" fill="#FFFFFF" fill-rule="nonzero">
            <g id="CN-Root">
                <path d="M23.8320942,30.3739121 C25.7560942,30.3739121 27.3160942,30.0359121 28.7720942,29.3599121 L28.7720942,27.4619121 C27.3160942,28.1379121 25.8860942,28.4239121 24.4300942,28.4239121 C19.8800942,28.4239121 17.2800942,25.5639121 17.2800942,21.0659121 C17.2800942,16.9059121 19.4900942,14.1499121 23.6240942,14.1499121 C24.5860942,14.1499121 25.5740942,14.2799121 26.5100942,14.6439121 L26.5100942,18.7259121 L28.7720942,18.7259121 L28.7720942,13.3959121 C27.2900942,12.6159121 25.2620942,12.2779121 23.3900942,12.2779121 C17.6700942,12.2779121 14.3160942,15.6579121 14.3160942,21.2739121 C14.3160942,27.0199121 17.8520942,30.3739121 23.8320942,30.3739121 Z" id="Combined-Shape"></path>
            </g>
        </g>
        <g id="Group" transform="translate(360.000000, 278.000000)" fill="#FFFFFF" fill-rule="nonzero">
            <g id="CN-Root">
                <path d="M21.8170942,25.3819121 C21.8170942,23.3539121 22.7270942,21.9759121 23.9490942,20.5979121 C25.0670942,19.3499121 26.4970942,17.9719121 26.4970942,15.9439121 C26.4970942,13.3699121 24.2870942,11.9399121 21.1670942,11.9399121 C19.5030942,11.9399121 17.8910942,12.3559121 16.5130942,13.2919121 L16.5130942,16.6979121 L18.6450942,16.6979121 L18.6450942,14.5139121 C19.4250942,14.1239121 20.2310942,13.9419121 21.0110942,13.9419121 C22.7010942,13.9419121 23.7670942,14.7739121 23.7670942,16.2039121 C23.7670942,17.4519121 22.9610942,18.3619121 22.1550942,19.2979121 C20.7510942,20.9879121 19.7630942,22.6259121 19.7630942,25.0179121 L19.7630942,25.3819121 L21.8170942,25.3819121 Z M20.8290942,30.3739121 C21.7390942,30.3739121 22.3890942,29.7499121 22.3890942,28.8659121 C22.3890942,27.9559121 21.7390942,27.3319121 20.8290942,27.3319121 C19.9190942,27.3319121 19.2690942,27.9559121 19.2690942,28.8659121 C19.2690942,29.7499121 19.9190942,30.3739121 20.8290942,30.3739121 Z" id="Combined-Shape"></path>
            </g>
        </g>
    </g>
</svg>