<?xml version="1.0" encoding="UTF-8"?>
<svg width="840px" height="370px" viewBox="0 0 840 370" version="1.1" xmlns="http://www.w3.org/2000/svg" xmlns:xlink="http://www.w3.org/1999/xlink">
    <title>c1-kaeru-edaha</title>
    <g id="c1-kaeru-edaha" stroke="none" stroke-width="1" fill="none" fill-rule="evenodd">
        <g id="Group" transform="translate(21.000000, 185.000000)" stroke="#000000">
            <line x1="0" y1="10.5" x2="799" y2="10.5" id="horizon"></line>
            <line x1="0" y1="30.5" x2="799" y2="30.5" id="horizon"></line>
            <line x1="0" y1="50.5" x2="799" y2="50.5" id="horizon"></line>
            <line x1="0" y1="70.5" x2="799" y2="70.5" id="horizon"></line>
            <line x1="0" y1="90.5" x2="799" y2="90.5" id="horizon"></line>
        </g>
        <line x1="-97.5" y1="155.5" x2="141" y2="155" id="bar" stroke="#000000" stroke-width="2.72167481" stroke-linecap="round" stroke-linejoin="round" transform="translate(22.000000, 155.500000) rotate(90.000000) translate(-22.000000, -155.500000) "></line>
        <g id="F" transform="translate(33.000000, 198.000000)" fill="#131516" stroke="#131516" stroke-width="0.5">
            <path d="M0,67.5955531 C5.77440082,63.6965104 10.086928,60.7448987 12.8644879,58.7042782 C15.6420478,56.7000974 18.565795,54.1857614 21.562636,51.19771 C24.5594769,48.2096586 27.0812089,44.8207711 29.127832,41.067487 C30.735893,38.2980735 32.1246729,35.0913842 33.257625,31.447419 C34.390577,27.8398936 34.9753265,24.341687 35.084967,21.0256788 C35.084967,17.9283084 34.6829517,14.9766967 33.8423744,12.2072832 C33.0383439,9.40143003 31.649564,7.105732 29.6760346,5.24730978 C27.7025052,3.42532722 25.1442263,2.51433594 21.9646512,2.51433594 C18.8947166,2.51433594 16.0075162,3.13381001 13.30305,4.3363185 C10.6351306,5.57526664 8.73469491,7.54300781 7.67483653,10.3124213 C7.67483653,10.5674989 7.52864917,10.8954557 7.30936812,11.3691712 C7.3824618,11.9522056 7.67483653,12.3894814 8.22303914,12.7174383 C8.77124175,13.0453952 9.24635067,13.1911538 9.68491276,13.1911538 C9.90419381,13.1911538 10.5254901,13.0818348 11.475708,12.8631969 C12.4624726,12.644559 13.2665031,12.4988004 13.9243463,12.4988004 C15.8613288,12.4988004 17.5790303,13.1911538 19.1505445,14.5394209 C20.6855118,15.887688 21.4529954,17.5274723 21.4529954,19.4587738 C21.4529954,20.8434805 21.0509802,22.155308 20.2834965,23.3578165 C19.5160129,24.560325 18.4561545,25.5441955 17.1039214,26.2365489 C15.7516883,26.9653419 14.2532678,27.2932988 12.6452069,27.2932988 C9.7214596,27.2932988 7.23627444,26.4187472 5.18965137,24.6332043 C3.17957513,22.8112217 2.1562636,20.5155237 2.1562636,17.6367912 C2.1562636,13.9563864 3.28921566,10.7861368 5.51857293,8.08960258 C7.78447705,5.39306839 10.6351306,3.38888757 14.1436273,2.04062047 C17.6155772,0.655913723 21.1240739,0 24.7056643,0 C28.6161762,0 32.3439539,0.983870584 35.8159038,2.9880514 C39.3244005,4.95579257 42.0654135,7.68876642 44.1120366,11.077654 C46.1586597,14.5029812 47.2185181,18.1469463 47.2185181,22.0824287 C47.2185181,29.0788417 44.8795203,35.5650996 40.2015247,41.5776421 C35.5235291,47.5901846 29.7491283,52.8010547 22.8417754,57.2466921 C18.2368735,60.2711832 10.781318,64.3524241 0.511655769,69.490415 L0,67.5955531 Z M50.7635616,9.22341259 C50.7635616,7.91158515 51.2386705,6.81839561 52.1888884,5.94384398 C53.1025594,5.0328527 54.2355115,4.59557688 55.5877446,4.59557688 C56.7572435,4.59557688 57.8536487,5.105732 58.8404134,6.08960258 C59.8271781,7.03703352 60.302287,8.1666627 60.302287,9.40561085 C60.302287,10.7174383 59.7906312,11.8470675 58.8404134,12.7580588 C57.8171018,13.6326104 56.6841498,14.0698862 55.4050104,14.0698862 C54.0527773,14.0698862 52.956372,13.6326104 52.0792479,12.6487398 C51.2021237,11.7013089 50.7635616,10.5716797 50.7635616,9.22341259 Z M50.7635616,28.3177899 C50.7635616,27.0059624 51.2386705,25.8763332 52.1157947,25.0017816 C53.0294657,24.0907903 54.1624178,23.6535145 55.5877446,23.6535145 C56.7572435,23.6535145 57.8171018,24.12723 58.8404134,25.1111005 C59.7906312,26.0949711 60.302287,27.151721 60.302287,28.3177899 C60.302287,29.7389363 59.8271781,30.8685654 58.9135071,31.7795567 C57.9632892,32.690548 56.866884,33.1642635 55.5877446,33.1642635 C54.1624178,33.1642635 53.0294657,32.690548 52.1157947,31.8159964 C51.2386705,30.9414447 50.7635616,29.7753759 50.7635616,28.3177899 Z" id="Shape"></path>
        </g>
        <path d="M50.1620791,136.96278 C49.2662404,136.896201 48.4037992,136.750938 47.5904719,136.529009 C43.3745292,135.385065 40.4551952,132.207444 39.7754579,128.019036 C39.575073,126.792373 39.641868,124.871677 39.9227998,123.776154 C40.1369367,122.936859 40.6555802,121.738442 41.0740312,121.113005 C41.7793077,120.061868 42.9835821,119.067222 44.1858919,118.548715 C45.1740649,118.120997 45.7064603,118.008015 46.9519904,117.963629 C47.9401634,117.927313 48.1837686,117.943454 48.7554552,118.090734 C51.2425863,118.730293 53.2582234,120.86283 54.132452,123.784225 C54.3289078,124.443959 54.3465889,124.611415 54.350518,125.908692 C54.3544471,127.141407 54.3328369,127.397634 54.1776368,127.946404 C53.8338391,129.16298 53.2464361,130.143503 52.3073771,131.061482 C50.9321861,132.409197 49.321248,133.21823 47.1464817,133.658053 L46.2133164,133.847702 L46.8753726,134.13621 C50.4096135,135.689713 54.3230142,135.540416 57.9711994,133.716562 C61.1636071,132.122707 63.6330572,129.237628 64.4817465,126.110445 C64.6880252,125.353869 64.6998125,125.214659 64.6939188,123.776154 L64.6880252,122.246861 L63.4955381,116.331441 C62.8413401,113.077153 62.2873346,110.355495 62.2657245,110.280846 C62.2303624,110.165847 62.1478509,110.181987 61.5820581,110.418039 C57.9260146,111.945315 52.3938176,111.925139 47.3449021,110.3676 C40.4276914,108.235063 34.7815501,103.554376 31.8386413,97.5138689 C30.9211925,95.6274713 30.384868,93.8237928 30.0882196,91.6186243 C29.9546296,90.6259959 29.9762398,87.9971445 30.1294754,86.7482888 C30.9486963,80.0662046 34.3984611,73.3659626 40.90115,65.8203724 C42.9246453,63.4719587 47.3547249,59.077762 50.3231729,56.4731211 C51.1129254,55.7811058 51.1463229,55.7367199 51.0854216,55.5127733 C50.9479025,54.9942661 50.4705148,52.4783969 50.3231729,51.491821 C49.6395065,46.8938531 49.6414711,41.5554489 50.327102,36.882832 C51.4036801,29.5430306 53.9281379,23.3754185 57.6018624,19.1143793 C58.2717769,18.3356098 59.6901882,17 59.8453883,17 C59.8945023,17 60.3247406,17.5891209 60.7981992,18.3093818 C65.1948813,24.9712907 67.5209186,30.9048684 68.1574356,37.070463 C68.3146003,38.6118617 68.27138,42.2293064 68.0749241,43.6395651 C67.4305489,48.2960417 65.9276616,52.3371693 63.3501608,56.3399637 C61.6645695,58.9607449 59.1263599,61.9386302 56.5351071,64.3394998 C55.943775,64.88827 55.3210099,65.4652858 55.1520579,65.6226537 L54.8455867,65.909144 L56.2030967,72.5851756 L57.5586421,79.2632247 L58.2305211,79.2107687 C60.1204265,79.0594534 62.116418,79.170418 63.5426875,79.5033117 C65.4424157,79.9491874 67.5798554,80.9660263 69.1790061,82.1826015 C70.0709157,82.8625116 71.5561219,84.3817173 72.1828161,85.2573286 C73.6817743,87.3474974 74.6601245,89.8391563 74.9331981,92.2581837 C75.0687527,93.4545834 74.9882058,95.7828217 74.7799625,96.7512397 C73.9568125,100.582543 71.5207599,104.185865 67.8097087,107.056821 C66.8922599,107.766994 65.5543955,108.624448 64.581939,109.126815 C63.9238119,109.467779 63.8668397,109.514182 63.91006,109.691725 C63.9925714,110.028654 65.0475394,115.157234 65.4424157,117.136439 C65.6486943,118.17547 65.9669528,119.89643 66.1496567,120.959672 C66.4718443,122.831947 66.4816671,122.928789 66.4384469,124.139311 C66.3598645,126.439304 65.7822843,128.23693 64.4778174,130.256485 C61.9926508,134.099894 57.5409611,136.551202 52.3486328,136.932517 C51.2524091,137.013218 50.8987886,137.019271 50.1620791,136.96278 Z M56.7453149,109.885409 C57.7217005,109.770409 58.9593724,109.504094 59.7609123,109.233744 C60.7431916,108.904886 61.9278204,108.3198 61.880671,108.186642 C61.8590608,108.128134 60.8551714,103.23157 59.6489324,97.304045 C58.4426935,91.3765198 57.4368395,86.5082018 57.4132648,86.4839914 C57.3896901,86.4597809 56.9889201,86.516272 56.5233197,86.6110963 C53.1069524,87.3031116 50.3035273,89.2621405 49.0756782,91.816343 C48.6886602,92.6213405 48.5413183,93.1479177 48.4411258,94.0679148 C48.2289535,96.0229087 48.8576122,98.1695686 50.1443981,99.8723702 C50.8928949,100.864999 52.0343034,101.926223 53.0814131,102.606134 C53.4821831,102.866396 53.5588009,102.993501 53.277869,102.932975 C53.1796411,102.912799 52.8358433,102.83815 52.5136557,102.769554 C49.9813397,102.222801 47.5315352,100.79035 46.1425923,99.0471974 C44.9226014,97.5138689 44.3037654,95.9200143 44.1269552,93.8480033 C43.9010309,91.2070467 44.5925556,88.6609144 46.2113518,86.1652205 C47.256497,84.553208 49.0599617,82.7979504 50.8673556,81.6358488 C52.1757516,80.7925181 54.1599558,79.9330471 55.5115721,79.6223464 C55.7591065,79.5658553 55.961456,79.493224 55.961456,79.4629609 C55.961456,79.3762068 53.4566438,67.1237016 53.4153881,67.0066844 C53.3544868,66.8351937 49.9597296,69.6193955 47.6729834,71.7135994 C46.4117368,72.8696484 43.7281498,75.6639378 42.7537287,76.8361271 C39.8127846,80.3728703 37.9130564,83.5545269 36.8502302,86.7160082 C35.7815104,89.9037175 35.516295,92.972392 36.0624422,95.8756284 C36.726463,99.4063191 39.0033864,103.10043 42.0484522,105.588054 C46.183848,108.965412 51.4508295,110.504793 56.7453149,109.885409 Z M64.5053212,106.528226 C67.3244628,104.107181 68.992373,101.353243 69.4854772,98.3128137 C69.6505001,97.2939573 69.6072798,95.1452799 69.4049303,94.1950197 C68.5798157,90.3455582 66.0612516,87.3737254 62.7411476,86.3326761 C62.0869496,86.1268873 61.9356786,86.110747 60.6469282,86.1087294 C59.8296718,86.1087294 59.2304815,86.1389925 59.1892257,86.1874134 C59.14797,86.2338167 59.9907656,90.4625753 61.3011262,96.7714151 C62.4995069,102.547625 63.4817862,107.284803 63.4837508,107.298926 C63.491609,107.363487 63.8354067,107.103225 64.5053212,106.528226 Z M55.2836833,52.0163808 C60.959293,46.3349952 64.3127945,40.8029074 65.0121773,35.9628349 C65.169342,34.8733647 65.1673775,33.0959142 65.0062837,32.1274962 C64.6840961,30.1946952 63.8963081,28.4979462 62.5564791,26.8617233 C62.0240837,26.2120762 61.9435368,26.1777781 60.9376829,26.1797211 C59.8296718,26.1818131 58.8218533,26.7083904 57.7767081,27.8301413 C56.0439675,29.6842582 54.5960878,32.7145996 53.5293325,36.7073063 C52.0460908,42.2656221 51.5903132,49.2180563 52.4036404,53.9269888 L52.5313367,54.6714601 L53.3250184,53.9269888 C53.7611504,53.5174287 54.6412726,52.6579577 55.2836833,52.0163808 Z" id="G-Clef" fill="#000000"></path>
        <g id="Group" transform="translate(22.089918, 25.000000)" stroke="#000000">
            <line x1="-0.0899182561" y1="10.5" x2="798.910082" y2="10.5" id="horizon"></line>
            <line x1="-0.0899182561" y1="30.5" x2="798.910082" y2="30.5" id="horizon"></line>
            <line x1="-0.0899182561" y1="50.5" x2="798.910082" y2="50.5" id="horizon"></line>
            <line x1="-0.0899182561" y1="70.5" x2="798.910082" y2="70.5" id="horizon"></line>
            <line x1="-0.0899182561" y1="90.5" x2="798.910082" y2="90.5" id="horizon"></line>
        </g>
        <line x1="365" y1="156.5" x2="604" y2="156.5" id="bar" stroke="#000000" stroke-linecap="round" stroke-linejoin="round" transform="translate(484.500000, 156.500000) rotate(90.000000) translate(-484.500000, -156.500000) "></line>
        <line x1="702" y1="156.5" x2="941" y2="156.5" id="bar" stroke="#000000" stroke-linecap="round" stroke-linejoin="round" transform="translate(821.500000, 156.500000) rotate(90.000000) translate(-821.500000, -156.500000) "></line>
        <g id="Group" transform="translate(195.000000, 235.000000)" fill="#0C0C0C" fill-rule="nonzero">
            <g id="half">
                <path d="M10.5862708,2.18506828 C4.75733443,5.3680549 1.65234446,11.1289109 3.56271142,15.4626696 C5.6000929,20.0867447 12.6030554,21.3914194 19.1923624,18.3763266 C25.7833859,15.3612338 29.4771053,9.15965655 27.4397238,4.53733037 C25.4023424,-0.0867447002 18.3993799,-1.39141944 11.8100728,1.62367339 C11.3981339,1.81255391 10.97418,1.97170324 10.5862708,2.18506828 Z M12.4914885,6.10608807 C12.9051439,5.88747635 13.3239485,5.72482923 13.7633501,5.52370645 C19.3811678,2.95283264 24.8067473,2.83215897 25.8743558,5.25437681 C26.9419643,7.67484576 23.2482448,11.7270326 17.6304272,14.2979064 C12.0126095,16.8687802 6.58703001,16.9894539 5.51942152,14.567236 C4.53591723,12.3356476 7.60486254,8.6717152 12.4914885,6.10608807 Z" transform="translate(15.500000, 10.000000) rotate(-180.000000) translate(-15.500000, -10.000000) "></path>
            </g>
        </g>
        <g id="Group" transform="translate(195.000000, 215.000000)" fill="#0C0C0C" fill-rule="nonzero">
            <g id="half">
                <path d="M10.5862708,2.18506828 C4.75733443,5.3680549 1.65234446,11.1289109 3.56271142,15.4626696 C5.6000929,20.0867447 12.6030554,21.3914194 19.1923624,18.3763266 C25.7833859,15.3612338 29.4771053,9.15965655 27.4397238,4.53733037 C25.4023424,-0.0867447002 18.3993799,-1.39141944 11.8100728,1.62367339 C11.3981339,1.81255391 10.97418,1.97170324 10.5862708,2.18506828 Z M12.4914885,6.10608807 C12.9051439,5.88747635 13.3239485,5.72482923 13.7633501,5.52370645 C19.3811678,2.95283264 24.8067473,2.83215897 25.8743558,5.25437681 C26.9419643,7.67484576 23.2482448,11.7270326 17.6304272,14.2979064 C12.0126095,16.8687802 6.58703001,16.9894539 5.51942152,14.567236 C4.53591723,12.3356476 7.60486254,8.6717152 12.4914885,6.10608807 Z" transform="translate(15.500000, 10.000000) rotate(-180.000000) translate(-15.500000, -10.000000) "></path>
            </g>
        </g>
        <g id="Group" transform="translate(195.000000, 195.000000)" fill="#0C0C0C" fill-rule="nonzero">
            <g id="half">
                <path d="M10.5862708,2.18506828 C4.75733443,5.3680549 1.65234446,11.1289109 3.56271142,15.4626696 C5.6000929,20.0867447 12.6030554,21.3914194 19.1923624,18.3763266 C25.7833859,15.3612338 29.4771053,9.15965655 27.4397238,4.53733037 C25.4023424,-0.0867447002 18.3993799,-1.39141944 11.8100728,1.62367339 C11.3981339,1.81255391 10.97418,1.97170324 10.5862708,2.18506828 Z M12.4914885,6.10608807 C12.9051439,5.88747635 13.3239485,5.72482923 13.7633501,5.52370645 C19.3811678,2.95283264 24.8067473,2.83215897 25.8743558,5.25437681 C26.9419643,7.67484576 23.2482448,11.7270326 17.6304272,14.2979064 C12.0126095,16.8687802 6.58703001,16.9894539 5.51942152,14.567236 C4.53591723,12.3356476 7.60486254,8.6717152 12.4914885,6.10608807 Z" transform="translate(15.500000, 10.000000) rotate(-180.000000) translate(-15.500000, -10.000000) "></path>
            </g>
        </g>
        <rect id="Rectangle" fill="#000000" fill-rule="nonzero" x="198" y="207" width="2" height="80"></rect>
        <rect id="Rectangle" fill="#000000" fill-rule="nonzero" x="223" y="75" width="2" height="60"></rect>
        <g id="Group" transform="translate(337.000000, 235.000000)" fill="#0C0C0C" fill-rule="nonzero">
            <g id="half">
                <path d="M10.5862708,2.18506828 C4.75733443,5.3680549 1.65234446,11.1289109 3.56271142,15.4626696 C5.6000929,20.0867447 12.6030554,21.3914194 19.1923624,18.3763266 C25.7833859,15.3612338 29.4771053,9.15965655 27.4397238,4.53733037 C25.4023424,-0.0867447002 18.3993799,-1.39141944 11.8100728,1.62367339 C11.3981339,1.81255391 10.97418,1.97170324 10.5862708,2.18506828 Z M12.4914885,6.10608807 C12.9051439,5.88747635 13.3239485,5.72482923 13.7633501,5.52370645 C19.3811678,2.95283264 24.8067473,2.83215897 25.8743558,5.25437681 C26.9419643,7.67484576 23.2482448,11.7270326 17.6304272,14.2979064 C12.0126095,16.8687802 6.58703001,16.9894539 5.51942152,14.567236 C4.53591723,12.3356476 7.60486254,8.6717152 12.4914885,6.10608807 Z" transform="translate(15.500000, 10.000000) rotate(-180.000000) translate(-15.500000, -10.000000) "></path>
            </g>
        </g>
        <g id="Group" transform="translate(337.000000, 215.000000)" fill="#0C0C0C" fill-rule="nonzero">
            <g id="half">
                <path d="M10.5862708,2.18506828 C4.75733443,5.3680549 1.65234446,11.1289109 3.56271142,15.4626696 C5.6000929,20.0867447 12.6030554,21.3914194 19.1923624,18.3763266 C25.7833859,15.3612338 29.4771053,9.15965655 27.4397238,4.53733037 C25.4023424,-0.0867447002 18.3993799,-1.39141944 11.8100728,1.62367339 C11.3981339,1.81255391 10.97418,1.97170324 10.5862708,2.18506828 Z M12.4914885,6.10608807 C12.9051439,5.88747635 13.3239485,5.72482923 13.7633501,5.52370645 C19.3811678,2.95283264 24.8067473,2.83215897 25.8743558,5.25437681 C26.9419643,7.67484576 23.2482448,11.7270326 17.6304272,14.2979064 C12.0126095,16.8687802 6.58703001,16.9894539 5.51942152,14.567236 C4.53591723,12.3356476 7.60486254,8.6717152 12.4914885,6.10608807 Z" transform="translate(15.500000, 10.000000) rotate(-180.000000) translate(-15.500000, -10.000000) "></path>
            </g>
        </g>
        <g id="Group" transform="translate(337.000000, 195.000000)" fill="#0C0C0C" fill-rule="nonzero">
            <g id="half">
                <path d="M10.5862708,2.18506828 C4.75733443,5.3680549 1.65234446,11.1289109 3.56271142,15.4626696 C5.6000929,20.0867447 12.6030554,21.3914194 19.1923624,18.3763266 C25.7833859,15.3612338 29.4771053,9.15965655 27.4397238,4.53733037 C25.4023424,-0.0867447002 18.3993799,-1.39141944 11.8100728,1.62367339 C11.3981339,1.81255391 10.97418,1.97170324 10.5862708,2.18506828 Z M12.4914885,6.10608807 C12.9051439,5.88747635 13.3239485,5.72482923 13.7633501,5.52370645 C19.3811678,2.95283264 24.8067473,2.83215897 25.8743558,5.25437681 C26.9419643,7.67484576 23.2482448,11.7270326 17.6304272,14.2979064 C12.0126095,16.8687802 6.58703001,16.9894539 5.51942152,14.567236 C4.53591723,12.3356476 7.60486254,8.6717152 12.4914885,6.10608807 Z" transform="translate(15.500000, 10.000000) rotate(-180.000000) translate(-15.500000, -10.000000) "></path>
            </g>
        </g>
        <rect id="Rectangle" fill="#000000" fill-rule="nonzero" x="340" y="207" width="2" height="80"></rect>
        <g id="Group" transform="translate(197.000000, 125.000000)" fill="#0C0C0C" fill-rule="nonzero">
            <g id="note">
                <path d="M9.19317249,2.29432169 C2.89792118,5.63645765 -0.455467984,11.6853565 1.60772834,16.2358031 C3.80810033,21.0910819 11.3712998,22.4609904 18.4877514,19.2951429 C25.6060568,16.1292955 29.5952737,9.61763938 27.3949018,4.76419689 C25.1945298,-0.0910819352 17.6313303,-1.46099041 10.5148787,1.70485706 C10.0699846,1.90318161 9.61211442,2.07028841 9.19317249,2.29432169 Z" transform="translate(14.500000, 10.500000) rotate(-180.000000) translate(-14.500000, -10.500000) "></path>
            </g>
        </g>
        <g id="Group-2" opacity="0.201202393" transform="translate(267.000000, 45.000000)" fill-rule="nonzero">
            <rect id="Rectangle" fill="#000000" x="26" y="20" width="2" height="60"></rect>
            <g id="note" transform="translate(0.000000, 70.000000)" fill="#0C0C0C">
                <path d="M9.19317249,2.29432169 C2.89792118,5.63645765 -0.455467984,11.6853565 1.60772834,16.2358031 C3.80810033,21.0910819 11.3712998,22.4609904 18.4877514,19.2951429 C25.6060568,16.1292955 29.5952737,9.61763938 27.3949018,4.76419689 C25.1945298,-0.0910819352 17.6313303,-1.46099041 10.5148787,1.70485706 C10.0699846,1.90318161 9.61211442,2.07028841 9.19317249,2.29432169 Z" transform="translate(14.500000, 10.500000) rotate(-180.000000) translate(-14.500000, -10.500000) "></path>
            </g>
            <rect id="Rectangle" fill="#000000" x="166" y="0" width="2" height="60"></rect>
            <g id="note" transform="translate(140.000000, 50.000000)" fill="#0C0C0C">
                <path d="M9.19317249,2.29432169 C2.89792118,5.63645765 -0.455467984,11.6853565 1.60772834,16.2358031 C3.80810033,21.0910819 11.3712998,22.4609904 18.4877514,19.2951429 C25.6060568,16.1292955 29.5952737,9.61763938 27.3949018,4.76419689 C25.1945298,-0.0910819352 17.6313303,-1.46099041 10.5148787,1.70485706 C10.0699846,1.90318161 9.61211442,2.07028841 9.19317249,2.29432169 Z" transform="translate(14.500000, 10.500000) rotate(-180.000000) translate(-14.500000, -10.500000) "></path>
            </g>
            <rect id="Rectangle" fill="#000000" x="358" y="20" width="2" height="60"></rect>
            <g id="note" transform="translate(332.000000, 70.000000)" fill="#0C0C0C">
                <path d="M9.19317249,2.29432169 C2.89792118,5.63645765 -0.455467984,11.6853565 1.60772834,16.2358031 C3.80810033,21.0910819 11.3712998,22.4609904 18.4877514,19.2951429 C25.6060568,16.1292955 29.5952737,9.61763938 27.3949018,4.76419689 C25.1945298,-0.0910819352 17.6313303,-1.46099041 10.5148787,1.70485706 C10.0699846,1.90318161 9.61211442,2.07028841 9.19317249,2.29432169 Z" transform="translate(14.500000, 10.500000) rotate(-180.000000) translate(-14.500000, -10.500000) "></path>
            </g>
        </g>
        <rect id="Rectangle" fill="#000000" fill-rule="nonzero" x="363" y="55" width="2" height="60"></rect>
        <g id="Group" transform="translate(337.000000, 105.000000)" fill="#0C0C0C" fill-rule="nonzero">
            <g id="note">
                <path d="M9.19317249,2.29432169 C2.89792118,5.63645765 -0.455467984,11.6853565 1.60772834,16.2358031 C3.80810033,21.0910819 11.3712998,22.4609904 18.4877514,19.2951429 C25.6060568,16.1292955 29.5952737,9.61763938 27.3949018,4.76419689 C25.1945298,-0.0910819352 17.6313303,-1.46099041 10.5148787,1.70485706 C10.0699846,1.90318161 9.61211442,2.07028841 9.19317249,2.29432169 Z" transform="translate(14.500000, 10.500000) rotate(-180.000000) translate(-14.500000, -10.500000) "></path>
            </g>
        </g>
        <g id="Group" transform="translate(527.000000, 235.000000)" fill="#0C0C0C" fill-rule="nonzero">
            <g id="half">
                <path d="M10.5862708,2.18506828 C4.75733443,5.3680549 1.65234446,11.1289109 3.56271142,15.4626696 C5.6000929,20.0867447 12.6030554,21.3914194 19.1923624,18.3763266 C25.7833859,15.3612338 29.4771053,9.15965655 27.4397238,4.53733037 C25.4023424,-0.0867447002 18.3993799,-1.39141944 11.8100728,1.62367339 C11.3981339,1.81255391 10.97418,1.97170324 10.5862708,2.18506828 Z M12.4914885,6.10608807 C12.9051439,5.88747635 13.3239485,5.72482923 13.7633501,5.52370645 C19.3811678,2.95283264 24.8067473,2.83215897 25.8743558,5.25437681 C26.9419643,7.67484576 23.2482448,11.7270326 17.6304272,14.2979064 C12.0126095,16.8687802 6.58703001,16.9894539 5.51942152,14.567236 C4.53591723,12.3356476 7.60486254,8.6717152 12.4914885,6.10608807 Z" transform="translate(15.500000, 10.000000) rotate(-180.000000) translate(-15.500000, -10.000000) "></path>
            </g>
        </g>
        <g id="Group" transform="translate(527.000000, 215.000000)" fill="#0C0C0C" fill-rule="nonzero">
            <g id="half">
                <path d="M10.5862708,2.18506828 C4.75733443,5.3680549 1.65234446,11.1289109 3.56271142,15.4626696 C5.6000929,20.0867447 12.6030554,21.3914194 19.1923624,18.3763266 C25.7833859,15.3612338 29.4771053,9.15965655 27.4397238,4.53733037 C25.4023424,-0.0867447002 18.3993799,-1.39141944 11.8100728,1.62367339 C11.3981339,1.81255391 10.97418,1.97170324 10.5862708,2.18506828 Z M12.4914885,6.10608807 C12.9051439,5.88747635 13.3239485,5.72482923 13.7633501,5.52370645 C19.3811678,2.95283264 24.8067473,2.83215897 25.8743558,5.25437681 C26.9419643,7.67484576 23.2482448,11.7270326 17.6304272,14.2979064 C12.0126095,16.8687802 6.58703001,16.9894539 5.51942152,14.567236 C4.53591723,12.3356476 7.60486254,8.6717152 12.4914885,6.10608807 Z" transform="translate(15.500000, 10.000000) rotate(-180.000000) translate(-15.500000, -10.000000) "></path>
            </g>
        </g>
        <g id="Group" transform="translate(527.000000, 195.000000)" fill="#0C0C0C" fill-rule="nonzero">
            <g id="half">
                <path d="M10.5862708,2.18506828 C4.75733443,5.3680549 1.65234446,11.1289109 3.56271142,15.4626696 C5.6000929,20.0867447 12.6030554,21.3914194 19.1923624,18.3763266 C25.7833859,15.3612338 29.4771053,9.15965655 27.4397238,4.53733037 C25.4023424,-0.0867447002 18.3993799,-1.39141944 11.8100728,1.62367339 C11.3981339,1.81255391 10.97418,1.97170324 10.5862708,2.18506828 Z M12.4914885,6.10608807 C12.9051439,5.88747635 13.3239485,5.72482923 13.7633501,5.52370645 C19.3811678,2.95283264 24.8067473,2.83215897 25.8743558,5.25437681 C26.9419643,7.67484576 23.2482448,11.7270326 17.6304272,14.2979064 C12.0126095,16.8687802 6.58703001,16.9894539 5.51942152,14.567236 C4.53591723,12.3356476 7.60486254,8.6717152 12.4914885,6.10608807 Z" transform="translate(15.500000, 10.000000) rotate(-180.000000) translate(-15.500000, -10.000000) "></path>
            </g>
        </g>
        <rect id="Rectangle" fill="#000000" fill-rule="nonzero" x="530" y="207" width="2" height="80"></rect>
        <rect id="Rectangle" fill="#000000" fill-rule="nonzero" x="555" y="55" width="2" height="60"></rect>
        <g id="Group" transform="translate(669.000000, 235.000000)" fill="#0C0C0C" fill-rule="nonzero">
            <g id="half">
                <path d="M10.5862708,2.18506828 C4.75733443,5.3680549 1.65234446,11.1289109 3.56271142,15.4626696 C5.6000929,20.0867447 12.6030554,21.3914194 19.1923624,18.3763266 C25.7833859,15.3612338 29.4771053,9.15965655 27.4397238,4.53733037 C25.4023424,-0.0867447002 18.3993799,-1.39141944 11.8100728,1.62367339 C11.3981339,1.81255391 10.97418,1.97170324 10.5862708,2.18506828 Z M12.4914885,6.10608807 C12.9051439,5.88747635 13.3239485,5.72482923 13.7633501,5.52370645 C19.3811678,2.95283264 24.8067473,2.83215897 25.8743558,5.25437681 C26.9419643,7.67484576 23.2482448,11.7270326 17.6304272,14.2979064 C12.0126095,16.8687802 6.58703001,16.9894539 5.51942152,14.567236 C4.53591723,12.3356476 7.60486254,8.6717152 12.4914885,6.10608807 Z" transform="translate(15.500000, 10.000000) rotate(-180.000000) translate(-15.500000, -10.000000) "></path>
            </g>
        </g>
        <g id="Group" transform="translate(669.000000, 215.000000)" fill="#0C0C0C" fill-rule="nonzero">
            <g id="half">
                <path d="M10.5862708,2.18506828 C4.75733443,5.3680549 1.65234446,11.1289109 3.56271142,15.4626696 C5.6000929,20.0867447 12.6030554,21.3914194 19.1923624,18.3763266 C25.7833859,15.3612338 29.4771053,9.15965655 27.4397238,4.53733037 C25.4023424,-0.0867447002 18.3993799,-1.39141944 11.8100728,1.62367339 C11.3981339,1.81255391 10.97418,1.97170324 10.5862708,2.18506828 Z M12.4914885,6.10608807 C12.9051439,5.88747635 13.3239485,5.72482923 13.7633501,5.52370645 C19.3811678,2.95283264 24.8067473,2.83215897 25.8743558,5.25437681 C26.9419643,7.67484576 23.2482448,11.7270326 17.6304272,14.2979064 C12.0126095,16.8687802 6.58703001,16.9894539 5.51942152,14.567236 C4.53591723,12.3356476 7.60486254,8.6717152 12.4914885,6.10608807 Z" transform="translate(15.500000, 10.000000) rotate(-180.000000) translate(-15.500000, -10.000000) "></path>
            </g>
        </g>
        <g id="Group" transform="translate(669.000000, 195.000000)" fill="#0C0C0C" fill-rule="nonzero">
            <g id="half">
                <path d="M10.5862708,2.18506828 C4.75733443,5.3680549 1.65234446,11.1289109 3.56271142,15.4626696 C5.6000929,20.0867447 12.6030554,21.3914194 19.1923624,18.3763266 C25.7833859,15.3612338 29.4771053,9.15965655 27.4397238,4.53733037 C25.4023424,-0.0867447002 18.3993799,-1.39141944 11.8100728,1.62367339 C11.3981339,1.81255391 10.97418,1.97170324 10.5862708,2.18506828 Z M12.4914885,6.10608807 C12.9051439,5.88747635 13.3239485,5.72482923 13.7633501,5.52370645 C19.3811678,2.95283264 24.8067473,2.83215897 25.8743558,5.25437681 C26.9419643,7.67484576 23.2482448,11.7270326 17.6304272,14.2979064 C12.0126095,16.8687802 6.58703001,16.9894539 5.51942152,14.567236 C4.53591723,12.3356476 7.60486254,8.6717152 12.4914885,6.10608807 Z" transform="translate(15.500000, 10.000000) rotate(-180.000000) translate(-15.500000, -10.000000) "></path>
            </g>
        </g>
        <rect id="Rectangle" fill="#000000" fill-rule="nonzero" x="672" y="207" width="2" height="80"></rect>
        <g id="Group" transform="translate(529.000000, 105.000000)" fill="#0C0C0C" fill-rule="nonzero">
            <g id="note">
                <path d="M9.19317249,2.29432169 C2.89792118,5.63645765 -0.455467984,11.6853565 1.60772834,16.2358031 C3.80810033,21.0910819 11.3712998,22.4609904 18.4877514,19.2951429 C25.6060568,16.1292955 29.5952737,9.61763938 27.3949018,4.76419689 C25.1945298,-0.0910819352 17.6313303,-1.46099041 10.5148787,1.70485706 C10.0699846,1.90318161 9.61211442,2.07028841 9.19317249,2.29432169 Z" transform="translate(14.500000, 10.500000) rotate(-180.000000) translate(-14.500000, -10.500000) "></path>
            </g>
        </g>
        <rect id="Rectangle" fill="#000000" fill-rule="nonzero" x="695" y="75" width="2" height="60"></rect>
        <g id="Group" transform="translate(190.000000, 135.000000)" fill="#0C0C0C" fill-rule="nonzero">
            <g id="Rectangle">
                <rect x="0" y="0" width="45" height="2"></rect>
            </g>
        </g>
        <g id="Group" transform="translate(669.000000, 125.000000)" fill="#0C0C0C" fill-rule="nonzero">
            <g id="half">
                <path d="M10.5862708,2.18506828 C4.75733443,5.3680549 1.65234446,11.1289109 3.56271142,15.4626696 C5.6000929,20.0867447 12.6030554,21.3914194 19.1923624,18.3763266 C25.7833859,15.3612338 29.4771053,9.15965655 27.4397238,4.53733037 C25.4023424,-0.0867447002 18.3993799,-1.39141944 11.8100728,1.62367339 C11.3981339,1.81255391 10.97418,1.97170324 10.5862708,2.18506828 Z M12.4914885,6.10608807 C12.9051439,5.88747635 13.3239485,5.72482923 13.7633501,5.52370645 C19.3811678,2.95283264 24.8067473,2.83215897 25.8743558,5.25437681 C26.9419643,7.67484576 23.2482448,11.7270326 17.6304272,14.2979064 C12.0126095,16.8687802 6.58703001,16.9894539 5.51942152,14.567236 C4.53591723,12.3356476 7.60486254,8.6717152 12.4914885,6.10608807 Z" transform="translate(15.500000, 10.000000) rotate(-180.000000) translate(-15.500000, -10.000000) "></path>
            </g>
        </g>
        <g id="Group" transform="translate(661.500000, 134.000000)" fill="#0C0C0C" fill-rule="nonzero">
            <g id="Rectangle">
                <rect x="0" y="0" width="45" height="2"></rect>
            </g>
        </g>
        <g id="Group" transform="translate(103.300000, 35.275000)" fill="#000000" fill-rule="nonzero">
            <g id="4/4">
                <path d="M22.275,40 L21.4900296,41.1481657 C16.7919231,47.9961538 16.7919231,47.9961538 12.375,53.86 C7.59,60.2125 7.59,60.2125 2.805,65.74 L2.805,65.74 L13.86,65.74 L13.86,56.335 L22.5225,45.6925 L22.5225,65.74 L26.3175,65.74 L26.3175,68.71 L22.5225,68.71 L22.4984375,69.2244792 C22.446875,70.490625 22.446875,70.490625 22.48125,71.55625 C22.5225,72.835 22.5225,72.835 22.8525,74.0725 C23.1825,75.31 23.1825,75.31 24.04875,76.0525 C24.915,76.795 24.915,76.795 26.3175,76.7125 L26.3175,76.7125 L26.3175,79.6825 L9.735,79.6825 L9.735,76.7125 L9.98590909,76.7356818 C11.22,76.8175 11.22,76.8175 12.045,76.2175 C12.9525,75.5575 12.9525,75.5575 13.365,74.36125 C13.7775,73.165 13.7775,73.165 13.86,71.68 C13.9425,70.195 13.9425,70.195 13.86,68.71 L13.86,68.71 L-5.81312776e-13,68.71 L-5.81312776e-13,65.74 L0.380603741,65.2800765 C4.14267857,60.63875 4.14267857,60.63875 6.14625,54.31375 C8.25,47.6725 8.25,47.6725 9.075,40 L9.075,40 L22.275,40 Z M22.275,7.60280727e-13 L21.4900296,1.14816568 C16.7919231,7.99615385 16.7919231,7.99615385 12.375,13.86 C7.59,20.2125 7.59,20.2125 2.805,25.74 L2.805,25.74 L13.86,25.74 L13.86,16.335 L22.5225,5.6925 L22.5225,25.74 L26.3175,25.74 L26.3175,28.71 L22.5225,28.71 L22.4984375,29.2244792 C22.446875,30.490625 22.446875,30.490625 22.48125,31.55625 C22.5225,32.835 22.5225,32.835 22.8525,34.0725 C23.1825,35.31 23.1825,35.31 24.04875,36.0525 C24.915,36.795 24.915,36.795 26.3175,36.7125 L26.3175,36.7125 L26.3175,39.6825 L9.735,39.6825 L9.735,36.7125 L9.98590909,36.7356818 C11.22,36.8175 11.22,36.8175 12.045,36.2175 C12.9525,35.5575 12.9525,35.5575 13.365,34.36125 C13.7775,33.165 13.7775,33.165 13.86,31.68 C13.9425,30.195 13.9425,30.195 13.86,28.71 L13.86,28.71 L-5.81312776e-13,28.71 L-5.81312776e-13,25.74 L0.380603741,25.2800765 C4.14267857,20.63875 4.14267857,20.63875 6.14625,14.31375 C8.25,7.6725 8.25,7.6725 9.075,7.60280727e-13 L9.075,7.60280727e-13 L22.275,7.60280727e-13 Z"></path>
            </g>
        </g>
        <g id="Group" transform="translate(103.300000, 194.957500)" fill="#000000" fill-rule="nonzero">
            <g id="4/4">
                <path d="M22.275,40 L21.4900296,41.1481657 C16.7919231,47.9961538 16.7919231,47.9961538 12.375,53.86 C7.59,60.2125 7.59,60.2125 2.805,65.74 L2.805,65.74 L13.86,65.74 L13.86,56.335 L22.5225,45.6925 L22.5225,65.74 L26.3175,65.74 L26.3175,68.71 L22.5225,68.71 L22.4984375,69.2244792 C22.446875,70.490625 22.446875,70.490625 22.48125,71.55625 C22.5225,72.835 22.5225,72.835 22.8525,74.0725 C23.1825,75.31 23.1825,75.31 24.04875,76.0525 C24.915,76.795 24.915,76.795 26.3175,76.7125 L26.3175,76.7125 L26.3175,79.6825 L9.735,79.6825 L9.735,76.7125 L9.98590909,76.7356818 C11.22,76.8175 11.22,76.8175 12.045,76.2175 C12.9525,75.5575 12.9525,75.5575 13.365,74.36125 C13.7775,73.165 13.7775,73.165 13.86,71.68 C13.9425,70.195 13.9425,70.195 13.86,68.71 L13.86,68.71 L-5.81312776e-13,68.71 L-5.81312776e-13,65.74 L0.380603741,65.2800765 C4.14267857,60.63875 4.14267857,60.63875 6.14625,54.31375 C8.25,47.6725 8.25,47.6725 9.075,40 L9.075,40 L22.275,40 Z M22.275,7.60280727e-13 L21.4900296,1.14816568 C16.7919231,7.99615385 16.7919231,7.99615385 12.375,13.86 C7.59,20.2125 7.59,20.2125 2.805,25.74 L2.805,25.74 L13.86,25.74 L13.86,16.335 L22.5225,5.6925 L22.5225,25.74 L26.3175,25.74 L26.3175,28.71 L22.5225,28.71 L22.4984375,29.2244792 C22.446875,30.490625 22.446875,30.490625 22.48125,31.55625 C22.5225,32.835 22.5225,32.835 22.8525,34.0725 C23.1825,35.31 23.1825,35.31 24.04875,36.0525 C24.915,36.795 24.915,36.795 26.3175,36.7125 L26.3175,36.7125 L26.3175,39.6825 L9.735,39.6825 L9.735,36.7125 L9.98590909,36.7356818 C11.22,36.8175 11.22,36.8175 12.045,36.2175 C12.9525,35.5575 12.9525,35.5575 13.365,34.36125 C13.7775,33.165 13.7775,33.165 13.86,31.68 C13.9425,30.195 13.9425,30.195 13.86,28.71 L13.86,28.71 L-5.81312776e-13,28.71 L-5.81312776e-13,25.74 L0.380603741,25.2800765 C4.14267857,20.63875 4.14267857,20.63875 6.14625,14.31375 C8.25,7.6725 8.25,7.6725 9.075,7.60280727e-13 L9.075,7.60280727e-13 L22.275,7.60280727e-13 Z"></path>
            </g>
        </g>
        <g id="Rectangle-Copy" transform="translate(180.000000, 305.000000)" fill="#58C322">
            <rect x="0" y="0" width="60" height="40" rx="5"></rect>
        </g>
        <g id="Group" transform="translate(200.000000, 317.000000)" fill="#FFFFFF" fill-rule="nonzero">
            <g id="CS-Root">
                <path d="M10.164,16.312 C12.54,16.312 14.268,15.616 16.116,13.888 L14.124,11.632 C13.14,12.76 12.012,13.264 10.548,13.264 C7.668,13.264 5.604,11.032 5.604,7.96 C5.604,4.888 7.572,2.728 10.38,2.728 C11.724,2.728 12.828,3.208 14.124,4.384 L16.26,2.224 C14.364,0.376 12.684,-0.32 10.212,-0.32 C5.58,-0.32 2.268,3.16 2.268,8.032 C2.268,10.24 3.06,12.4 4.428,13.912 C5.844,15.496 7.788,16.312 10.164,16.312 Z" id="Combined-Shape"></path>
            </g>
        </g>
    </g>
</svg>