<?xml version="1.0" encoding="UTF-8" standalone="no"?><!DOCTYPE svg PUBLIC "-//W3C//DTD SVG 1.1//EN" "http://www.w3.org/Graphics/SVG/1.1/DTD/svg11.dtd"><svg width="480.0px" height="295.0px" viewBox="0 0 480 295" version="1.1" xmlns="http://www.w3.org/2000/svg" xmlns:xlink="http://www.w3.org/1999/xlink" xml:space="preserve" xmlns:serif="http://www.serif.com/" style="fill-rule:evenodd;clip-rule:evenodd;stroke-linejoin:round;stroke-miterlimit:2;"><g id="c1-maj7-or-7"><path id="Rectangle" d="M216,58c0,-2.208 -1.792,-4 -4,-4l-192,0c-2.208,0 -4,1.792 -4,4l0,52c0,2.208 1.792,4 4,4l192,0c2.208,0 4,-1.792 4,-4l0,-52Z" style="fill:#f1f1f1;"/><path id="Rectangle1" serif:id="Rectangle" d="M212,202.5c2.485,0 4.5,2.015 4.5,4.5l0,52c0,2.485 -2.015,4.5 -4.5,4.5l-192,0c-2.485,0 -4.5,-2.015 -4.5,-4.5l0,-52c0,-2.485 2.015,-4.5 4.5,-4.5l7.5,0l0,1l-7.5,0c-1.869,0 -3.395,1.464 -3.495,3.308l-0.005,0.192l0,52c0,1.933 1.567,3.5 3.5,3.5l192,0c1.933,0 3.5,-1.567 3.5,-3.5l0,-52c0,-1.933 -1.567,-3.5 -3.5,-3.5l-125.5,0l0,-1l125.5,0Z" style="fill-rule:nonzero;"/><path id="Rectangle2" serif:id="Rectangle" d="M466,58c0,-2.208 -1.792,-4 -4,-4l-192,0c-2.208,0 -4,1.792 -4,4l0,52c0,2.208 1.792,4 4,4l192,0c2.208,0 4,-1.792 4,-4l0,-52Z" style="fill:#f1f1f1;"/><g id="長7度なら"><text x="62.107px" y="37px" style="font-family:'NotoSansSC-Bold', 'Noto Sans SC', sans-serif;font-weight:700;font-size:18px;">如果是大7度</text></g><g id="_-メジャーセブンス-" serif:id="“メジャーセブンス”"><text x="76.496px" y="92px" style="font-family:'NotoSansSC-Bold', 'Noto Sans SC', sans-serif;font-weight:700;font-size:18px;">“大七”</text></g><g id="とつけ加える"><text x="191px" y="130px" style="font-family:'NotoSansSC-Bold', 'Noto Sans SC', sans-serif;font-weight:700;font-size:12px;fill:#aaa;">添加</text></g><g id="とつけ加える1" serif:id="とつけ加える"><text x="439px" y="130px" style="font-family:'NotoSansSC-Bold', 'Noto Sans SC', sans-serif;font-weight:700;font-size:12px;fill:#aaa;">添加</text></g><g id="_-セブンス-" serif:id="“セブンス”"><text x="336.496px" y="92px" style="font-family:'NotoSansSC-Bold', 'Noto Sans SC', sans-serif;font-weight:700;font-size:18px;">“七”</text></g><g id="短7度なら"><text x="317px" y="37px" style="font-family:'HiraginoSans-W6', 'Hiragino Sans', sans-serif;font-weight:600;font-size:18px;">如果是小7度</text></g><g id="Group"><g id="Combined-Shape"><path d="M181.747,229.188c0.16,-0 0.26,0.1 0.26,0.26l-0,1.1c-0,0.44 -0.06,0.56 -0.18,0.88l-4.86,11.48c-0.06,0.18 -0.16,0.28 -0.34,0.28l-1.66,-0c-0.18,-0 -0.26,-0.1 -0.18,-0.28l4.72,-11.22l0.34,-0.76l-0.78,0.02l-5.66,-0c-0.16,-0 -0.26,-0.1 -0.26,-0.28l-0,-1.22c-0,-0.16 0.1,-0.26 0.26,-0.26l8.34,-0Zm-15.003,-4.042l5.821,14.121l-13.643,-0l5.742,-14.121l2.08,-0Zm-1.103,1.806l-4.238,10.752l8.593,0l-4.355,-10.752Z" style="fill:#0c0c0c;fill-rule:nonzero;"/></g><g id="CN-m7"><path id="Combined-Shape1" serif:id="Combined-Shape" d="M70.828,229c0.16,0 0.26,0.1 0.26,0.26l-0,1.1c-0,0.44 -0.06,0.56 -0.18,0.88l-4.86,11.48c-0.06,0.18 -0.16,0.28 -0.34,0.28l-1.66,0c-0.18,0 -0.26,-0.1 -0.18,-0.28l4.72,-11.22l0.34,-0.76l-0.78,0.02l-5.66,0c-0.16,0 -0.26,-0.1 -0.26,-0.28l-0,-1.22c-0,-0.16 0.1,-0.26 0.26,-0.26l8.34,0Zm-22.358,-5.296c0.242,-0 0.374,0.132 0.484,0.308l5.258,8.998l5.258,-8.998c0.088,-0.176 0.242,-0.308 0.44,-0.308l1.056,-0c0.198,-0 0.286,0.11 0.286,0.308l-0,14.784c-0,0.198 -0.088,0.308 -0.286,0.308l-1.606,-0c-0.198,-0 -0.308,-0.11 -0.308,-0.308l-0,-10.494l-0.484,1.056l-3.762,6.468c-0.11,0.198 -0.242,0.308 -0.418,0.308l-0.352,-0c-0.198,-0 -0.308,-0.11 -0.44,-0.308l-3.74,-6.468l-0.506,-1.122l-0,10.56c-0,0.198 -0.088,0.308 -0.286,0.308l-1.606,-0c-0.198,-0 -0.308,-0.11 -0.308,-0.308l-0,-14.784c-0,-0.198 0.11,-0.308 0.308,-0.308l1.012,-0Z" style="fill:#0c0c0c;fill-rule:nonzero;"/></g><g id="CN-7"><path id="Combined-Shape2" serif:id="Combined-Shape" d="M95.836,238c0.18,0 0.28,-0.1 0.28,-0.28l-0,-5.72c0.62,-0.48 1.16,-0.68 1.74,-0.68c1.06,0 1.56,0.66 1.56,1.98l-0,4.42c-0,0.18 0.12,0.28 0.28,0.28l1.38,0c0.18,0 0.28,-0.1 0.28,-0.28l-0,-4.62c-0,-0.36 -0.04,-0.7 -0.08,-1c0.56,-0.5 1.18,-0.78 1.82,-0.78c1.02,0 1.54,0.66 1.54,1.98l-0,4.42c-0,0.18 0.1,0.28 0.28,0.28l1.38,0c0.18,0 0.28,-0.1 0.28,-0.28l-0,-4.62c-0,-2.3 -1.24,-3.5 -3.1,-3.5c-1.06,0 -2,0.4 -2.76,1.16c-0.52,-0.76 -1.38,-1.16 -2.42,-1.16c-0.94,0 -1.72,0.3 -2.6,0.96c-0.22,-0.5 -0.64,-0.76 -1.32,-0.76l-0.82,0c-0.18,0 -0.28,0.1 -0.28,0.28l-0,1c-0,0.18 0.1,0.28 0.28,0.28l0.22,0c0.34,0 0.38,0.18 0.38,0.66l-0,0.78l0.02,0l-0,4.92c-0,0.18 0.08,0.28 0.28,0.28l1.38,0Zm15.56,0.2c1.04,0 1.78,-0.34 2.54,-0.9c0.26,0.46 0.68,0.7 1.38,0.7l0.82,0c0.18,0 0.28,-0.1 0.28,-0.28l-0,-1c-0,-0.18 -0.1,-0.28 -0.28,-0.28l-0.2,0c-0.38,0 -0.46,-0.18 -0.46,-0.54l-0,-3.22c-0,-1.84 -1.36,-3.08 -3.46,-3.08c-1.88,0 -3.14,1 -3.4,2.48c-0.02,0.14 0.04,0.22 0.18,0.22l1.32,0c0.18,0 0.24,-0.08 0.26,-0.16c0.22,-0.62 0.74,-1.02 1.54,-1.02c1,0 1.64,0.6 1.64,1.48l-0,0.78c-0.6,-0.26 -1.26,-0.46 -2.06,-0.46c-1.88,0 -3.2,1 -3.2,2.64c-0,1.58 1.28,2.64 3.1,2.64Zm0.28,-1.5c-0.88,0 -1.46,-0.5 -1.46,-1.24c-0,-0.72 0.62,-1.2 1.54,-1.2c0.6,0 1.24,0.18 1.84,0.42l-0,1.34c-0.56,0.4 -1.18,0.68 -1.92,0.68Zm8.14,-8.56c0.2,0 0.3,-0.1 0.3,-0.3l-0,-1.7c-0,-0.2 -0.1,-0.28 -0.3,-0.28l-1.34,0c-0.18,0 -0.28,0.08 -0.28,0.28l-0,1.7c-0,0.2 0.1,0.3 0.28,0.3l1.34,0Zm-3.06,15.26c2.16,0 3.34,-1.32 3.34,-3.6l-0,-9.72c-0,-0.18 -0.08,-0.28 -0.28,-0.28l-1.32,0c-0.2,0 -0.28,0.1 -0.28,0.28l-0,9.72c-0,1.34 -0.52,1.92 -1.56,1.92c-0.34,0 -0.82,-0.18 -1.2,-0.38c-0.18,-0.1 -0.26,-0.08 -0.36,0.08l-0.54,1.06c-0.08,0.16 -0,0.26 0.16,0.36c0.54,0.34 1.36,0.56 2.04,0.56Zm8.3,-5.4c0.18,0 0.28,-0.1 0.34,-0.28l4.86,-11.48c0.12,-0.32 0.18,-0.44 0.18,-0.88l-0,-1.1c-0,-0.16 -0.1,-0.26 -0.26,-0.26l-8.34,0c-0.16,0 -0.26,0.1 -0.26,0.26l-0,1.22c-0,0.18 0.1,0.28 0.26,0.28l5.66,0l0.78,-0.02l-0.34,0.76l-4.72,11.22c-0.08,0.18 -0,0.28 0.18,0.28l1.66,0Z" style="fill:#0c0c0c;fill-rule:nonzero;"/></g></g><g id="Group1" serif:id="Group"><g id="Combined-Shape3" serif:id="Combined-Shape"><path d="M365.476,242c0.18,0 0.28,-0.1 0.34,-0.28l4.86,-11.48c0.12,-0.32 0.18,-0.44 0.18,-0.88l-0,-1.1c-0,-0.16 -0.1,-0.26 -0.26,-0.26l-8.34,-0c-0.16,-0 -0.26,0.1 -0.26,0.26l-0,1.22c-0,0.18 0.1,0.28 0.26,0.28l5.66,-0l0.78,-0.02l-0.34,0.76l-4.72,11.22c-0.08,0.18 -0,0.28 0.18,0.28l1.66,0Z" style="fill:#0c0c0c;fill-rule:nonzero;"/></g></g><g id="シンボル"><text x="32px" y="207px" style="font-family:'HiraginoSans-W6', 'Hiragino Sans', sans-serif;font-weight:600;font-size:12px;">Symbol</text></g><g id="など"><text x="204px" y="279px" style="font-family:'NotoSansSC-Bold', 'Noto Sans SC', sans-serif;font-weight:700;font-size:12px;fill:#aaa;">等</text></g><path id="Rectangle3" serif:id="Rectangle" d="M463,202.5c2.485,0 4.5,2.015 4.5,4.5l0,52c0,2.485 -2.015,4.5 -4.5,4.5l-192,0c-2.485,0 -4.5,-2.015 -4.5,-4.5l0,-52c0,-2.485 2.015,-4.5 4.5,-4.5l7.5,0l0,1l-7.5,0c-1.869,0 -3.395,1.464 -3.495,3.308l-0.005,0.192l0,52c0,1.933 1.567,3.5 3.5,3.5l192,0c1.933,0 3.5,-1.567 3.5,-3.5l0,-52c0,-1.933 -1.567,-3.5 -3.5,-3.5l-125.5,0l0,-1l125.5,0Z" style="fill-rule:nonzero;"/><g id="シンボル1" serif:id="シンボル"><text x="283px" y="207px" style="font-family:'HiraginoSans-W6', 'Hiragino Sans', sans-serif;font-weight:600;font-size:12px;">Symbol</text></g><path id="Line-12" d="M117.5,141.5l0,27l6,0l-7,14l-7,-14l6,0l0,-27l2,0Z" style="fill-rule:nonzero;"/><path id="Line-121" serif:id="Line-12" d="M368.5,141.5l0,27l6,0l-7,14l-7,-14l6,0l0,-27l2,0Z" style="fill-rule:nonzero;"/></g></svg>