<?xml version="1.0" encoding="UTF-8" standalone="no"?><!DOCTYPE svg PUBLIC "-//W3C//DTD SVG 1.1//EN" "http://www.w3.org/Graphics/SVG/1.1/DTD/svg11.dtd"><svg width="685.0px" height="529.0px" viewBox="0 0 685 529" version="1.1" xmlns="http://www.w3.org/2000/svg" xmlns:xlink="http://www.w3.org/1999/xlink" xml:space="preserve" xmlns:serif="http://www.serif.com/" style="fill-rule:evenodd;clip-rule:evenodd;"><g id="c1-major-minor-relation"><path id="Ivory" d="M191.941,135.831l0.033,-112.831l-28.974,0l0,194l41,0l0,-81.377l-12.059,0.208Z" style="fill:#fff;stroke:#202020;stroke-width:0.75px;"/><path id="Ivory1" serif:id="Ivory" d="M242.898,135.623l0.032,-112.623l-23.93,0l0,112.623l-11,0l0,81.377l44,0l0,-81.377l-9.102,0Z" style="fill:#fff;stroke:#202020;stroke-width:0.75px;"/><path id="Ivory2" serif:id="Ivory" d="M291.119,135.623l0.033,-112.623l-21.486,0l0,112.623l-14.666,0l-0,81.377l44,0l-0,-81.377l-7.881,0Z" style="fill:#fff;stroke:#202020;stroke-width:0.75px;"/><path id="Ivory3" serif:id="Ivory" d="M317.371,135.831l-0.034,-112.831l28.663,0l0,194l-44,0l0,-81.377l15.371,0.208Z" style="fill:#fff;stroke:#202020;stroke-width:0.75px;"/><path id="Ivory4" serif:id="Ivory" d="M378.8,135.831l0.033,-112.831l-28.833,0l0,194l42,0l0,-81.377l-13.2,0.208Z" style="fill:#fff;stroke:#202020;stroke-width:0.75px;"/><path id="Ivory5" serif:id="Ivory" d="M430.941,135.623l0.032,-112.623l-25.027,0l-0,112.623l-10.946,0l0,81.377l45,0l0,-81.377l-9.059,0Z" style="fill:#fff;stroke:#202020;stroke-width:0.75px;"/><path id="Ivory6" serif:id="Ivory" d="M459.6,135.831l-0.033,-112.831l26.433,0l0,194l-42,0l0,-81.377l15.6,0.208Z" style="fill:#fff;stroke:#202020;stroke-width:0.75px;"/><path id="Ivory7" serif:id="Ivory" d="M598.6,135.831l-0.033,-112.831l26.433,0l0,194l-42,0l0,-81.377l15.6,0.208Z" style="fill:#fff;stroke:#202020;stroke-width:0.75px;"/><rect id="Ebony" x="190" y="22" width="31" height="115" style="fill:#474747;"/><rect id="Ebony1" serif:id="Ebony" x="240" y="22" width="31" height="115" style="fill:#474747;"/><rect id="Ebony2" serif:id="Ebony" x="290" y="22" width="31" height="115" style="fill:#474747;"/><rect id="Ebony3" serif:id="Ebony" x="378" y="22" width="31" height="115" style="fill:#474747;"/><rect id="Ebony4" serif:id="Ebony" x="430" y="22" width="31" height="115" style="fill:#474747;"/><path id="Ivory8" serif:id="Ivory" d="M52.8,135.831l0.033,-112.831l-28.833,0l-0,194l42,0l0,-81.377l-13.2,0.208Z" style="fill:#fff;stroke:#202020;stroke-width:0.75px;"/><path id="Ivory9" serif:id="Ivory" d="M104.941,135.623l0.032,-112.623l-25.027,0l-0,112.623l-10.946,0l0,81.377l45,0l0,-81.377l-9.059,0Z" style="fill:#fff;stroke:#202020;stroke-width:0.75px;"/><path id="Ivory10" serif:id="Ivory" d="M133.6,135.831l-0.033,-112.831l26.433,0l0,194l-42,0l0,-81.377l15.6,0.208Z" style="fill:#fff;stroke:#202020;stroke-width:0.75px;"/><rect id="Ebony5" serif:id="Ebony" x="52" y="22" width="31" height="115" style="fill:#474747;"/><rect id="Ebony6" serif:id="Ebony" x="104" y="22" width="31" height="115" style="fill:#474747;"/><path id="Ivory11" serif:id="Ivory" d="M518.941,135.831l0.033,-112.831l-28.974,0l-0,194l41,0l0,-81.377l-12.059,0.208Z" style="fill:#fff;stroke:#202020;stroke-width:0.75px;"/><path id="Ivory12" serif:id="Ivory" d="M569.898,135.623l0.032,-112.623l-23.93,0l-0,112.623l-11,0l-0,81.377l44,0l-0,-81.377l-9.102,0Z" style="fill:#fff;stroke:#202020;stroke-width:0.75px;"/><rect id="Ebony7" serif:id="Ebony" x="517" y="22" width="31" height="115" style="fill:#474747;"/><rect id="Ebony8" serif:id="Ebony" x="567" y="22" width="31" height="115" style="fill:#474747;"/><path id="Ivory13" serif:id="Ivory" d="M644.6,135.831l-0.033,-112.831l26.433,0l0,194l-42,0l0,-81.377l15.6,0.208Z" style="fill:#fff;stroke:#202020;stroke-width:0.75px;"/><rect id="Ebony9" serif:id="Ebony" x="613" y="22" width="31" height="115" style="fill:#474747;"/><circle id="Circle" cx="371.5" cy="196.5" r="12.5" style="fill:#58c322;"/><circle id="Circle1" serif:id="Circle" cx="556.5" cy="196.5" r="12.5" style="fill:#f63;"/><circle id="Circle2" serif:id="Circle" cx="183.5" cy="198.5" r="12.5" style="fill:#ffbf00;"/><g id="ド"><text x="358.3px" y="245px" style="font-family:'NotoSansSC-Bold', 'Noto Sans SC', sans-serif;font-weight:700;font-size:20px;">do</text></g><g id="ファ"><text x="177.35px" y="245px" style="font-family:'NotoSansSC-Bold', 'Noto Sans SC', sans-serif;font-weight:700;font-size:20px;">f<tspan x="183.497px " y="245px ">a</tspan></text></g><g id="ソ"><text x="543.64px" y="245px" style="font-family:'NotoSansSC-Bold', 'Noto Sans SC', sans-serif;font-weight:700;font-size:20px;">sol</text></g><path id="Path-3" d="M371,177c14.026,-10.979 29.135,-10.457 45.179,0c19.125,-13.253 34.881,-10.159 49.18,0c20.995,-14.116 33.768,-8.564 45.282,0c11.962,-7.601 23.658,-15.729 47.359,0" style="fill:none;stroke:#f63;stroke-width:2px;"/><path id="Path-31" serif:id="Path-3" d="M183,177c14.026,-10.979 29.135,-10.457 45.179,0c19.125,-13.253 34.881,-10.159 49.18,0c20.995,-14.116 33.768,-8.564 45.282,0c11.962,-7.601 23.658,-15.729 47.359,0" style="fill:none;stroke:#ffbf00;stroke-width:2px;"/><path id="Ivory14" serif:id="Ivory" d="M191.941,390.831l0.033,-112.831l-28.974,0l0,194l41,0l0,-81.377l-12.059,0.208Z" style="fill:#fff;stroke:#202020;stroke-width:0.75px;"/><path id="Ivory15" serif:id="Ivory" d="M242.898,390.623l0.032,-112.623l-23.93,0l0,112.623l-11,0l0,81.377l44,0l0,-81.377l-9.102,0Z" style="fill:#fff;stroke:#202020;stroke-width:0.75px;"/><path id="Ivory16" serif:id="Ivory" d="M291.119,390.623l0.033,-112.623l-21.486,0l0,112.623l-14.666,0l-0,81.377l44,0l-0,-81.377l-7.881,0Z" style="fill:#fff;stroke:#202020;stroke-width:0.75px;"/><path id="Ivory17" serif:id="Ivory" d="M317.371,390.831l-0.034,-112.831l28.663,0l0,194l-44,0l0,-81.377l15.371,0.208Z" style="fill:#fff;stroke:#202020;stroke-width:0.75px;"/><path id="Ivory18" serif:id="Ivory" d="M378.8,390.831l0.033,-112.831l-28.833,0l0,194l42,0l0,-81.377l-13.2,0.208Z" style="fill:#fff;stroke:#202020;stroke-width:0.75px;"/><path id="Ivory19" serif:id="Ivory" d="M430.941,390.623l0.032,-112.623l-25.027,0l-0,112.623l-10.946,0l0,81.377l45,0l0,-81.377l-9.059,0Z" style="fill:#fff;stroke:#202020;stroke-width:0.75px;"/><path id="Ivory20" serif:id="Ivory" d="M459.6,390.831l-0.033,-112.831l26.433,0l0,194l-42,0l0,-81.377l15.6,0.208Z" style="fill:#fff;stroke:#202020;stroke-width:0.75px;"/><path id="Ivory21" serif:id="Ivory" d="M598.6,390.831l-0.033,-112.831l26.433,0l0,194l-42,0l0,-81.377l15.6,0.208Z" style="fill:#fff;stroke:#202020;stroke-width:0.75px;"/><rect id="Ebony10" serif:id="Ebony" x="190" y="277" width="31" height="115" style="fill:#474747;"/><rect id="Ebony11" serif:id="Ebony" x="240" y="277" width="31" height="115" style="fill:#474747;"/><rect id="Ebony12" serif:id="Ebony" x="290" y="277" width="31" height="115" style="fill:#474747;"/><rect id="Ebony13" serif:id="Ebony" x="378" y="277" width="31" height="115" style="fill:#474747;"/><rect id="Ebony14" serif:id="Ebony" x="430" y="277" width="31" height="115" style="fill:#474747;"/><path id="Ivory22" serif:id="Ivory" d="M52.8,390.831l0.033,-112.831l-28.833,0l-0,194l42,0l0,-81.377l-13.2,0.208Z" style="fill:#fff;stroke:#202020;stroke-width:0.75px;"/><path id="Ivory23" serif:id="Ivory" d="M104.941,390.623l0.032,-112.623l-25.027,0l-0,112.623l-10.946,0l0,81.377l45,0l0,-81.377l-9.059,0Z" style="fill:#fff;stroke:#202020;stroke-width:0.75px;"/><path id="Ivory24" serif:id="Ivory" d="M133.6,390.831l-0.033,-112.831l26.433,0l0,194l-42,0l0,-81.377l15.6,0.208Z" style="fill:#fff;stroke:#202020;stroke-width:0.75px;"/><rect id="Ebony15" serif:id="Ebony" x="52" y="277" width="31" height="115" style="fill:#474747;"/><rect id="Ebony16" serif:id="Ebony" x="104" y="277" width="31" height="115" style="fill:#474747;"/><path id="Ivory25" serif:id="Ivory" d="M518.941,390.831l0.033,-112.831l-28.974,0l-0,194l41,0l0,-81.377l-12.059,0.208Z" style="fill:#fff;stroke:#202020;stroke-width:0.75px;"/><path id="Ivory26" serif:id="Ivory" d="M569.898,390.623l0.032,-112.623l-23.93,0l-0,112.623l-11,0l-0,81.377l44,0l-0,-81.377l-9.102,0Z" style="fill:#fff;stroke:#202020;stroke-width:0.75px;"/><rect id="Ebony17" serif:id="Ebony" x="517" y="277" width="31" height="115" style="fill:#474747;"/><rect id="Ebony18" serif:id="Ebony" x="567" y="277" width="31" height="115" style="fill:#474747;"/><path id="Ivory27" serif:id="Ivory" d="M644.6,390.831l-0.033,-112.831l26.433,0l0,194l-42,0l0,-81.377l15.6,0.208Z" style="fill:#fff;stroke:#202020;stroke-width:0.75px;"/><rect id="Ebony19" serif:id="Ebony" x="613" y="277" width="31" height="115" style="fill:#474747;"/><circle id="Circle3" serif:id="Circle" cx="277.5" cy="451.5" r="12.5" style="fill:#58c322;"/><circle id="Circle4" serif:id="Circle" cx="465.5" cy="451.5" r="12.5" style="fill:#f63;"/><circle id="Circle5" serif:id="Circle" cx="90.5" cy="453.5" r="12.5" style="fill:#ffbf00;"/><g id="ラ"><text x="267.94px" y="500px" style="font-family:'NotoSansSC-Bold', 'Noto Sans SC', sans-serif;font-weight:700;font-size:20px;">la</text></g><g id="レ"><text x="81.033px" y="500px" style="font-family:'NotoSansSC-Bold', 'Noto Sans SC', sans-serif;font-weight:700;font-size:20px;">r<tspan x="88.68px " y="500px ">e</tspan></text></g><g id="ミ"><text x="451.32px" y="500px" style="font-family:'NotoSansSC-Bold', 'Noto Sans SC', sans-serif;font-weight:700;font-size:20px;">mi</text></g><path id="Path-32" serif:id="Path-3" d="M277,432c14.026,-10.979 29.135,-10.457 45.179,0c19.125,-13.253 34.881,-10.159 49.18,0c20.995,-14.116 33.768,-8.564 45.282,0c11.962,-7.601 23.658,-15.729 47.359,0" style="fill:none;stroke:#f63;stroke-width:2px;"/><path id="Path-33" serif:id="Path-3" d="M89,432c14.026,-10.979 29.135,-10.457 45.179,0c19.125,-13.253 34.881,-10.159 49.18,0c20.995,-14.116 33.768,-8.564 45.282,0c11.962,-7.601 23.658,-15.729 47.359,0" style="fill:none;stroke:#ffbf00;stroke-width:2px;"/></g></svg>