<?xml version="1.0" encoding="UTF-8" standalone="no"?><!DOCTYPE svg PUBLIC "-//W3C//DTD SVG 1.1//EN" "http://www.w3.org/Graphics/SVG/1.1/DTD/svg11.dtd"><svg width="680.0px" height="380.0px" viewBox="0 0 680 380" version="1.1" xmlns="http://www.w3.org/2000/svg" xmlns:xlink="http://www.w3.org/1999/xlink" xml:space="preserve" xmlns:serif="http://www.serif.com/" style="fill-rule:evenodd;clip-rule:evenodd;stroke-linejoin:round;stroke-miterlimit:2;"><g id="c1-music-to-chordname"><path id="Rectangle" d="M265,71c0,-2.208 -1.792,-4 -4,-4l-232,0c-2.208,0 -4,1.792 -4,4l0,212c0,2.208 1.792,4 4,4l232,0c2.208,0 4,-1.792 4,-4l0,-212Z" style="fill:#f5f5f5;"/><path id="Rectangle1" serif:id="Rectangle" d="M655,71c0,-2.208 -1.792,-4 -4,-4l-232,0c-2.208,0 -4,1.792 -4,4l0,212c0,2.208 1.792,4 4,4l232,0c2.208,0 4,-1.792 4,-4l0,-212Z" style="fill:#f5f5f5;"/><g id="音楽"><text x="121px" y="45px" style="font-family:'NotoSansSC-Medium', 'Noto Sans SC', sans-serif;font-weight:500;font-size:24px;fill:#0c0c0c;">音乐</text></g><g id="コードネーム"><text x="491px" y="45px" style="font-family:'NotoSansSC-Medium', 'Noto Sans SC', sans-serif;font-weight:500;font-size:24px;fill:#0c0c0c;">和弦代号</text></g><g id="_28-guitar-flat" serif:id="28-guitar-flat"><path id="Fill-3" d="M143.172,176.23l-0.047,-0.046l-25.767,25.099c-1.556,-4.249 -4.792,-7.685 -8.916,-9.485l25.421,-24.76l-0.695,-0.686c-1.108,-0.788 -2.26,-1.514 -3.476,-2.138c-5.339,-2.748 -13.866,-5.721 -19.851,-0.89c-0,0 -4.379,2.49 -8.629,10.666c-3.489,6.711 -11.299,7.559 -13.99,7.647c-0.77,0.026 -1.511,0.11 -2.264,0.278c-3.847,0.856 -14.969,3.818 -19.599,10.191c-0.056,0.078 -0.111,0.155 -0.168,0.234c-7.515,10.527 -4.328,26.591 4.815,35.739c1.918,1.918 4.352,4.37 7.356,7.428c3.059,3.006 5.513,5.44 7.431,7.356c9.147,9.143 22.137,9.256 32.664,1.741c0.077,-0.055 0.154,-0.11 0.234,-0.168c6.373,-4.63 9.333,-15.752 10.191,-19.597c0.168,-0.755 0.252,-1.494 0.276,-2.266c0.088,-2.688 0.936,-10.499 7.647,-13.988c8.177,-4.252 10.666,-8.631 10.666,-8.631c4.831,-5.983 1.858,-14.512 -0.887,-19.851c-0.7,-1.359 -1.512,-2.648 -2.412,-3.873" style="fill:#c27037;fill-rule:nonzero;"/><path id="Fill-4" d="M118.69,206.93c0,9.141 -7.41,16.552 -16.551,16.552c-9.141,-0 -16.552,-7.411 -16.552,-16.552c0,-9.141 7.411,-16.552 16.552,-16.552c9.141,0 16.551,7.411 16.551,16.552" style="fill:#42241e;fill-rule:nonzero;"/><path id="Fill-5" d="M138.394,162.627l-4.747,4.621l9.183,9.185c0.006,0.007 0.008,0.018 0.015,0.024l4.749,-4.623l-9.183,-9.183c-0.009,-0.007 -0.011,-0.018 -0.017,-0.024" style="fill:#9b431c;fill-rule:nonzero;"/><path id="Fill-6" d="M130.489,170.324l-4.747,4.626l9.182,9.183c0.007,0.007 0.009,0.018 0.016,0.024l4.749,-4.623l-9.183,-9.185c-0.009,-0.007 -0.009,-0.018 -0.017,-0.025" style="fill:#9b431c;fill-rule:nonzero;"/><path id="Fill-7" d="M114.678,185.724l-6.236,6.074c4.124,1.8 7.36,5.236 8.916,9.485l6.519,-6.352l-9.183,-9.18c-0.007,-0.009 -0.009,-0.018 -0.016,-0.027" style="fill:#9b431c;fill-rule:nonzero;"/><path id="Fill-8" d="M122.583,178.024l-4.749,4.626l9.185,9.183c0.007,0.006 0.009,0.017 0.016,0.024l4.747,-4.623l-9.183,-9.183c-0.007,-0.009 -0.009,-0.018 -0.016,-0.027" style="fill:#9b431c;fill-rule:nonzero;"/><path id="Fill-9" d="M187.735,137.084l-14.214,-14.217c-1.159,-1.156 -3.035,-1.156 -4.193,0l-0.764,0.766l0.574,0.574l-0,4.414l-2.207,2.207l-4.414,-0l-0.574,-0.574l-2.206,2.207l0.573,0.573l0,4.414l-2.207,2.207l-4.413,0l-0.574,-0.574l-1.07,1.071c-1.159,1.158 -0.023,3.882 0.971,5.164c-0,-0 1.158,1.909 -0,3.067l-3.56,3.467l9.183,9.186c0.006,0.006 0.009,0.015 0.015,0.022l3.567,-3.472c1.156,-1.156 1.908,-1.156 3.067,0c0,0 4.006,2.13 5.164,0.973l1.071,-1.07l-0.179,-0.179l-0,-4.413l2.207,-2.207l4.414,-0l0.178,0.178l2.207,-2.206l-0.179,-0.179l0,-4.414l2.207,-2.207l4.414,0l0.179,0.179l0.763,-0.766c1.159,-1.156 1.159,-3.034 0,-4.191" style="fill:#9b431c;fill-rule:nonzero;"/><path id="Fill-10" d="M146.299,154.927l-4.747,4.623l9.183,9.183c0.006,0.007 0.008,0.018 0.017,0.025l4.747,-4.624l-9.183,-9.183c-0.008,-0.009 -0.008,-0.017 -0.017,-0.024" style="fill:#9b431c;fill-rule:nonzero;"/><path id="Fill-11" d="M125.742,174.95l-3.159,3.074c0.007,0.009 0.009,0.018 0.016,0.027l9.183,9.183l3.158,-3.077c-0.007,-0.006 -0.009,-0.017 -0.016,-0.024l-9.182,-9.183" style="fill:#633b2b;fill-rule:nonzero;"/><path id="Fill-12" d="M117.834,182.65l-3.156,3.074c0.007,0.009 0.009,0.018 0.016,0.027l9.183,9.18l3.158,-3.074c-0.007,-0.007 -0.009,-0.018 -0.016,-0.024l-9.185,-9.183" style="fill:#633b2b;fill-rule:nonzero;"/><path id="Fill-13" d="M141.552,159.55l-3.158,3.077c0.006,0.006 0.008,0.017 0.017,0.024l9.183,9.183l3.158,-3.076c-0.009,-0.007 -0.011,-0.018 -0.017,-0.025l-9.183,-9.183" style="fill:#633b2b;fill-rule:nonzero;"/><path id="Fill-14" d="M133.647,167.248l-3.158,3.076c0.008,0.007 0.008,0.018 0.017,0.025l9.183,9.185l3.156,-3.077c-0.007,-0.006 -0.009,-0.017 -0.015,-0.024l-9.183,-9.185" style="fill:#633b2b;fill-rule:nonzero;"/><path id="Fill-15" d="M158.64,161.036l-9.183,-9.186l-3.158,3.077c0.009,0.007 0.009,0.015 0.017,0.024l9.183,9.183l3.156,-3.076c-0.006,-0.007 -0.009,-0.016 -0.015,-0.022" style="fill:#633b2b;fill-rule:nonzero;"/><path id="Fill-462" d="M162.517,130.828l-2.207,-2.207l0,-4.414l2.207,-2.207l4.414,-0l2.207,2.207l-0,4.414l-2.207,2.207l-4.414,-0" style="fill:#e4c05c;fill-rule:nonzero;"/><path id="Fill-463" d="M153.69,139.655l-2.207,-2.207l-0,-4.414l2.207,-2.206l4.413,-0l2.207,2.206l0,4.414l-2.207,2.207l-4.413,0" style="fill:#e4c05c;fill-rule:nonzero;"/><path id="Fill-466" d="M173.552,159.517l-2.207,-2.207l-0,-4.413l2.207,-2.207l4.414,-0l2.206,2.207l0,4.413l-2.206,2.207l-4.414,0" style="fill:#e4c05c;fill-rule:nonzero;"/><path id="Fill-467" d="M182.379,150.69l-2.207,-2.207l0,-4.414l2.207,-2.207l4.414,0l2.207,2.207l0,4.414l-2.207,2.207l-4.414,-0" style="fill:#e4c05c;fill-rule:nonzero;"/><path id="Fill-1292" d="M94.103,232.502c-0.565,-0 -1.129,-0.215 -1.56,-0.647l-15.605,-15.605c-0.863,-0.863 -0.863,-2.258 0,-3.121c0.861,-0.863 2.258,-0.863 3.121,0l15.605,15.605c0.863,0.863 0.863,2.26 -0,3.121c-0.431,0.432 -0.996,0.647 -1.561,0.647" style="fill:#42241e;fill-rule:nonzero;"/><path id="Fill-1293" d="M78.498,223.138c-0.564,-0 -1.129,-0.214 -1.56,-0.647c-0.863,-0.863 -0.863,-2.258 0,-3.121l24.433,-24.43c0.863,-0.863 2.257,-0.863 3.12,0c0.863,0.861 0.863,2.258 0,3.121l-24.432,24.43c-0.433,0.433 -0.996,0.647 -1.561,0.647" style="fill:#e4c05c;fill-rule:nonzero;"/><path id="Fill-1294" d="M83.179,227.821c-0.565,-0 -1.127,-0.217 -1.56,-0.647c-0.861,-0.861 -0.861,-2.258 0,-3.12l26.372,-26.373c0.863,-0.863 2.258,-0.863 3.121,0c0.863,0.863 0.863,2.258 0,3.121l-26.372,26.372c-0.431,0.43 -0.996,0.647 -1.561,0.647" style="fill:#e4c05c;fill-rule:nonzero;"/><path id="Fill-1295" d="M87.86,232.502c-0.565,-0 -1.128,-0.215 -1.56,-0.647c-0.861,-0.861 -0.861,-2.258 -0,-3.121l24.435,-24.432c0.86,-0.863 2.257,-0.863 3.12,-0c0.861,0.863 0.861,2.257 0,3.12l-24.435,24.433c-0.43,0.432 -0.995,0.647 -1.56,0.647" style="fill:#e4c05c;fill-rule:nonzero;"/></g><path id="Fill-1572" d="M230.852,143.511c-0.131,-0.059 -0.281,-0.058 -0.412,-0l-14.238,6.445c-0.229,0.103 -0.345,0.361 -0.272,0.601l5.062,16.555c-1.194,-0.782 -2.79,-1.041 -4.355,-0.562c-2.637,0.806 -4.191,3.392 -3.466,5.765c0.726,2.373 3.461,3.647 6.097,2.841c2.637,-0.806 4.192,-3.392 3.466,-5.765l-4.842,-15.837l13.32,-6.028l3.287,10.751c-1.194,-0.782 -2.79,-1.041 -4.355,-0.563c-2.637,0.807 -4.191,3.393 -3.466,5.766c0.726,2.373 3.461,3.647 6.097,2.841c2.637,-0.806 4.192,-3.392 3.466,-5.765l-5.116,-16.735c-0.042,-0.138 -0.142,-0.251 -0.273,-0.31" style="fill:#3d7af5;fill-rule:nonzero;"/><g id="_33-open-book-flat" serif:id="33-open-book-flat"><path id="Fill-409" d="M471,236.576l128,0l0,-6.857l-128,-0l0,6.857Z" style="fill:#2060db;fill-rule:nonzero;"/><path id="Fill-410" d="M535,227.433c-18.009,-7.202 -37.323,-9.911 -54.857,-2.286l-2.286,0l0,-84.571l2.286,0c17.067,-6.096 37.79,-6.096 54.857,0l0,86.857Z" style="fill:#edebda;fill-rule:nonzero;"/><path id="Fill-411" d="M535,227.433c18.999,-7.257 38.615,-9.886 54.857,-2.286l2.249,0l0,-84.571l-2.249,0c-17.785,-6.096 -37.168,-6.096 -54.857,0l0,86.857Z" style="fill:#cec9ae;fill-rule:nonzero;"/><path id="Fill-412" d="M592.107,140.576l0,84.571l-2.249,0c-16.245,-7.6 -35.858,-4.971 -54.857,2.286c-18.012,-7.202 -37.324,-9.911 -54.857,-2.286l-2.286,0l0,-84.571l-6.857,0l-0,89.143l128,-0l-0,-89.143l-6.894,0Z" style="fill:#3d7af5;fill-rule:nonzero;"/><path id="Fill-413" d="M521.286,158.862l-20.572,-0c-1.261,-0 -2.285,-1.022 -2.285,-2.286c-0,-1.264 1.024,-2.286 2.285,-2.286l20.572,0c1.261,0 2.285,1.022 2.285,2.286c0,1.264 -1.024,2.286 -2.285,2.286" style="fill:#cec9ae;fill-rule:nonzero;"/><path id="Fill-414" d="M491.571,158.862c-0.617,-0 -1.188,-0.231 -1.622,-0.663c-0.435,-0.434 -0.663,-1.006 -0.663,-1.623c-0,-0.297 0.068,-0.594 0.183,-0.869c0.114,-0.297 0.274,-0.525 0.48,-0.754c0.64,-0.617 1.645,-0.846 2.491,-0.48c0.297,0.114 0.526,0.274 0.754,0.48c0.206,0.229 0.366,0.48 0.48,0.754c0.115,0.275 0.183,0.572 0.183,0.869c0,0.617 -0.228,1.189 -0.663,1.623c-0.434,0.432 -1.005,0.663 -1.623,0.663" style="fill:#cec9ae;fill-rule:nonzero;"/><path id="Fill-415" d="M521.286,170.29l-29.715,0c-1.261,0 -2.285,-1.021 -2.285,-2.285c-0,-1.264 1.024,-2.286 2.285,-2.286l29.715,-0c1.261,-0 2.285,1.022 2.285,2.286c0,1.264 -1.024,2.285 -2.285,2.285" style="fill:#cec9ae;fill-rule:nonzero;"/><path id="Fill-416" d="M512.143,181.719l-20.572,-0c-1.261,-0 -2.285,-1.022 -2.285,-2.286c-0,-1.264 1.024,-2.286 2.285,-2.286l20.572,0c1.262,0 2.286,1.022 2.286,2.286c-0,1.264 -1.024,2.286 -2.286,2.286" style="fill:#cec9ae;fill-rule:nonzero;"/><path id="Fill-417" d="M521.286,181.719c-0.617,-0 -1.189,-0.231 -1.623,-0.663c-0.434,-0.434 -0.663,-1.006 -0.663,-1.623c0,-0.594 0.251,-1.191 0.663,-1.623c0.868,-0.845 2.377,-0.845 3.246,0c0.411,0.432 0.662,1.029 0.662,1.623c0,0.617 -0.228,1.189 -0.662,1.623c-0.435,0.432 -1.006,0.663 -1.623,0.663" style="fill:#cec9ae;fill-rule:nonzero;"/><path id="Fill-418" d="M521.286,193.147l-20.572,0c-1.261,0 -2.285,-1.021 -2.285,-2.285c-0,-1.264 1.024,-2.286 2.285,-2.286l20.572,0c1.261,0 2.285,1.022 2.285,2.286c0,1.264 -1.024,2.285 -2.285,2.285" style="fill:#cec9ae;fill-rule:nonzero;"/><path id="Fill-419" d="M491.571,193.147c-0.617,0 -1.188,-0.23 -1.622,-0.662c-0.435,-0.435 -0.663,-1.006 -0.663,-1.623c-0,-0.297 0.068,-0.595 0.183,-0.869c0.114,-0.297 0.274,-0.526 0.48,-0.754c0.845,-0.846 2.377,-0.846 3.245,-0c0.206,0.228 0.366,0.457 0.48,0.754c0.115,0.274 0.183,0.572 0.183,0.869c0,0.617 -0.228,1.188 -0.663,1.623c-0.228,0.205 -0.48,0.365 -0.754,0.48c-0.274,0.114 -0.571,0.182 -0.869,0.182" style="fill:#cec9ae;fill-rule:nonzero;"/><path id="Fill-420" d="M521.286,204.576l-29.715,0c-1.261,0 -2.285,-1.022 -2.285,-2.286c-0,-1.264 1.024,-2.285 2.285,-2.285l29.715,-0c1.261,-0 2.285,1.021 2.285,2.285c0,1.264 -1.024,2.286 -2.285,2.286" style="fill:#cec9ae;fill-rule:nonzero;"/><path id="Fill-421" d="M569.286,170.29l-20.572,0c-1.261,0 -2.285,-1.021 -2.285,-2.285c-0,-1.264 1.024,-2.286 2.285,-2.286l20.572,-0c1.261,-0 2.285,1.022 2.285,2.286c0,1.264 -1.024,2.285 -2.285,2.285" style="fill:#edebda;fill-rule:nonzero;"/><path id="Fill-422" d="M580.714,170.29c-0.617,0 -1.188,-0.231 -1.623,-0.663c-0.205,-0.23 -0.365,-0.48 -0.48,-0.754c-0.137,-0.274 -0.182,-0.571 -0.182,-0.868c-0,-0.595 0.251,-1.191 0.662,-1.623c0.229,-0.206 0.48,-0.366 0.755,-0.48c0.845,-0.366 1.851,-0.16 2.491,0.48c0.412,0.432 0.663,1.028 0.663,1.623c0,0.297 -0.046,0.594 -0.183,0.868c-0.114,0.274 -0.274,0.524 -0.48,0.754c-0.434,0.432 -1.006,0.663 -1.623,0.663" style="fill:#edebda;fill-rule:nonzero;"/><path id="Fill-423" d="M580.714,158.862l-32,-0c-1.261,-0 -2.285,-1.022 -2.285,-2.286c-0,-1.264 1.024,-2.286 2.285,-2.286l32,0c1.262,0 2.286,1.022 2.286,2.286c0,1.264 -1.024,2.286 -2.286,2.286" style="fill:#edebda;fill-rule:nonzero;"/><path id="Fill-424" d="M580.714,204.576l-22.857,0c-1.262,0 -2.286,-1.022 -2.286,-2.286c0,-1.264 1.024,-2.285 2.286,-2.285l22.857,-0c1.262,-0 2.286,1.021 2.286,2.285c0,1.264 -1.024,2.286 -2.286,2.286" style="fill:#edebda;fill-rule:nonzero;"/><path id="Fill-425" d="M548.714,204.576c-0.297,0 -0.594,-0.069 -0.868,-0.183c-0.275,-0.114 -0.526,-0.274 -0.755,-0.48c-0.434,-0.434 -0.662,-1.006 -0.662,-1.623c-0,-0.594 0.251,-1.191 0.662,-1.623c0.846,-0.845 2.378,-0.845 3.246,0c0.412,0.432 0.663,1.029 0.663,1.623c0,0.617 -0.229,1.189 -0.663,1.623c-0.228,0.206 -0.48,0.366 -0.754,0.48c-0.274,0.114 -0.572,0.183 -0.869,0.183" style="fill:#edebda;fill-rule:nonzero;"/><path id="Fill-426" d="M569.286,193.147l-20.572,0c-1.261,0 -2.285,-1.021 -2.285,-2.285c-0,-1.264 1.024,-2.286 2.285,-2.286l20.572,0c1.261,0 2.285,1.022 2.285,2.286c0,1.264 -1.024,2.285 -2.285,2.285" style="fill:#edebda;fill-rule:nonzero;"/><path id="Fill-427" d="M580.714,193.147c-0.617,0 -1.188,-0.23 -1.623,-0.662c-0.434,-0.435 -0.662,-1.006 -0.662,-1.623c-0,-0.297 0.068,-0.595 0.182,-0.869c0.115,-0.274 0.275,-0.526 0.48,-0.754c0.64,-0.64 1.646,-0.846 2.492,-0.48c0.274,0.114 0.526,0.274 0.754,0.48c0.206,0.228 0.366,0.48 0.48,0.754c0.137,0.274 0.183,0.572 0.183,0.869c0,0.297 -0.046,0.594 -0.183,0.868c-0.114,0.275 -0.274,0.524 -0.48,0.755c-0.434,0.432 -1.006,0.662 -1.623,0.662" style="fill:#edebda;fill-rule:nonzero;"/><path id="Fill-428" d="M580.714,181.719l-32,-0c-1.261,-0 -2.285,-1.022 -2.285,-2.286c-0,-1.264 1.024,-2.286 2.285,-2.286l32,0c1.262,0 2.286,1.022 2.286,2.286c0,1.264 -1.024,2.286 -2.286,2.286" style="fill:#edebda;fill-rule:nonzero;"/></g><path id="Line" d="M391.028,178.943l13.972,7.057l-14.028,6.943l0.023,-6l-109.499,-0.443l-1,-0.004l0.008,-2l1,0.004l109.5,0.443l0.024,-6Z" style="fill:#0c0c0c;fill-rule:nonzero;"/><g id="言語化"><text x="316px" y="166px" style="font-family:'NotoSansSC-Medium', 'Noto Sans SC', sans-serif;font-weight:500;font-size:16px;fill:#0c0c0c;">语言化</text></g><g id="鳴っている音楽そのもの-時間とサウンドの"><g transform="matrix(1,0,0,1,54,314)"><text x="0px" y="0px" style="font-family:'NotoSansSC-Medium', 'Noto Sans SC', sans-serif;font-weight:500;font-size:16px;fill:#0c0c0c;">关于音乐本身的时间和</text><text x="8px" y="20.8px" style="font-family:'NotoSansSC-Medium', 'Noto Sans SC', sans-serif;font-weight:500;font-size:16px;fill:#0c0c0c;">声音的数据信息量是</text><text x="56px" y="41.6px" style="font-family:'NotoSansSC-Medium', 'Noto Sans SC', sans-serif;font-weight:500;font-size:16px;fill:#0c0c0c;">巨大的</text></g></g><g id="簡易に記述化されたもの-文字のデータ-情"><g transform="matrix(1,0,0,1,443,314)"><text x="0px" y="0px" style="font-family:'NotoSansSC-Medium', 'Noto Sans SC', sans-serif;font-weight:500;font-size:16px;fill:#0c0c0c;">简化的描述性表格和文本</text><text x="32px" y="20.8px" style="font-family:'NotoSansSC-Medium', 'Noto Sans SC', sans-serif;font-weight:500;font-size:16px;fill:#0c0c0c;">数据信息含量低</text></g></g></g></svg>