<?xml version="1.0" encoding="UTF-8"?>
<svg width="655px" height="221px" viewBox="0 0 655 221" version="1.1" xmlns="http://www.w3.org/2000/svg" xmlns:xlink="http://www.w3.org/1999/xlink">
    <title>c1-major-minor-group</title>
    <g id="c1-major-minor-group" stroke="none" stroke-width="1" fill="none" fill-rule="evenodd">
        <g id="Group" transform="translate(14.719546, 26.000000)" stroke="#000000">
            <line x1="0.28045445" y1="1" x2="625.280454" y2="1" id="horizon"></line>
            <line x1="0.28045445" y1="21" x2="625.280454" y2="21" id="horizon"></line>
            <line x1="0.28045445" y1="41" x2="625.280454" y2="41" id="horizon"></line>
            <line x1="0.28045445" y1="61" x2="625.280454" y2="61" id="horizon"></line>
            <line x1="0.28045445" y1="81" x2="625.280454" y2="81" id="horizon"></line>
            <line x1="-39.0721649" y1="40.0721649" x2="40.9278351" y2="41.9278351" id="bar" stroke-width="2.72167481" stroke-linecap="round" stroke-linejoin="round" transform="translate(0.927835, 41.000000) rotate(90.000000) translate(-0.927835, -41.000000) "></line>
            <line x1="626.280454" y1="1" x2="626.280454" y2="81" id="bar" stroke-linecap="square"></line>
        </g>
        <path d="M38.1296633,105.970224 C37.4129923,105.916961 36.7230393,105.800751 36.0723775,105.623207 C32.6996234,104.708052 30.3641562,102.165955 29.8203664,98.8152287 C29.6600584,97.8338984 29.7134944,96.2973419 29.9382399,95.4209236 C30.1095494,94.7494871 30.5244641,93.7907533 30.8592249,93.290404 C31.4234461,92.4494944 32.3868657,91.6537776 33.3487135,91.2389719 C34.1392519,90.8967975 34.5651682,90.8064118 35.5615923,90.7709032 C36.3521307,90.7418506 36.5470149,90.7547629 37.0043641,90.8725871 C38.9940691,91.3842346 40.6065787,93.0902643 41.3059616,95.4273797 C41.4631263,95.9551675 41.4772711,96.089132 41.4804144,97.1269533 C41.4835577,98.1131256 41.4662696,98.3181074 41.3421095,98.7571236 C41.0670713,99.7303837 40.5971488,100.514802 39.8459016,101.249186 C38.7457488,102.327358 37.4569984,102.974584 35.7171854,103.326443 L34.9706531,103.478161 L35.5002981,103.708968 C38.3276908,104.951771 41.4584113,104.832333 44.3769595,103.373249 C46.9308857,102.098166 48.9064458,99.7901028 49.5853972,97.2883563 C49.7504201,96.683095 49.75985,96.571727 49.7551351,95.4209236 L49.7504201,94.1974889 L48.7964305,89.4651529 C48.2730721,86.8617225 47.8298677,84.684396 47.8125796,84.6246769 C47.7842899,84.5326772 47.7182807,84.5455895 47.2656465,84.734431 C44.3408117,85.9562517 39.9150541,85.9401114 35.8759217,84.6940802 C30.3421531,82.9880505 25.82524,79.2435009 23.4709131,74.4110951 C22.736954,72.9019771 22.3078944,71.4590342 22.0705757,69.6948995 C21.9637037,68.9007967 21.9809918,66.7977156 22.1035803,65.798631 C22.758957,60.4529637 25.5187689,55.0927701 30.72092,49.0562979 C32.3397163,47.177567 35.8837799,43.6622096 38.2585383,41.5784969 C38.8903404,41.0248846 38.9170584,40.989376 38.8683373,40.8102186 C38.758322,40.3954129 38.3764118,38.3827175 38.2585383,37.5934568 C37.7116052,33.9150825 37.7131769,29.6443591 38.2616816,25.9062656 C39.1229441,20.0344245 41.1425103,15.1003348 44.0814899,11.6915034 C44.6174215,11.0684879 45.7521505,10 45.8763106,10 C45.9156018,10 46.2597925,10.4712968 46.6385594,11.0475055 C50.155905,16.3770325 52.0167349,21.1238947 52.5259485,26.0563704 C52.6516802,27.2894893 52.617104,30.1834451 52.4599393,31.3116521 C51.9444391,35.0368333 50.7421293,38.2697354 48.6801286,41.4719709 C47.3316556,43.5685959 45.3010879,45.9509042 43.2280857,47.8715999 C42.75502,48.310616 42.2568079,48.7722286 42.1216463,48.8981229 L41.8764694,49.1273152 L42.9624774,54.4681405 L44.0469137,59.8105798 L44.5844169,59.768615 C46.0963412,59.6475627 47.6931344,59.7363344 48.83415,60.0026493 C50.3539325,60.35935 52.0638843,61.1728211 53.3432048,62.1460812 C54.0567325,62.6900093 55.2448975,63.9053739 55.7462529,64.6058629 C56.9454194,66.277998 57.7280996,68.271325 57.9465585,70.206547 C58.0550021,71.1636668 57.9905646,73.0262574 57.82397,73.8009918 C57.16545,76.8660347 55.2166079,79.7486923 52.247767,82.045457 C51.5138079,82.6135956 50.4435164,83.2995583 49.6655512,83.7014518 C49.1390495,83.9742228 49.0934717,84.0113455 49.128048,84.1533802 C49.1940571,84.4229232 50.0380315,88.5257874 50.3539325,90.1091509 C50.5189554,90.9403763 50.7735622,92.3171439 50.9197254,93.1677377 C51.1774755,94.6655576 51.1853337,94.743031 51.1507575,95.711449 C51.0878916,97.5514432 50.6258274,98.9895439 49.5822539,100.605188 C47.5941206,103.679915 44.0327689,105.640962 39.8789062,105.946013 C39.0019273,106.010574 38.7190309,106.015416 38.1296633,105.970224 Z M43.3962519,84.3083271 C44.1773604,84.2163273 45.1674979,84.0032754 45.8087298,83.7869954 C46.5945532,83.5239085 47.5422563,83.0558398 47.5045368,82.9493138 C47.4872487,82.9025069 46.6841371,78.9852561 45.7191459,74.243236 C44.7541548,69.5012159 43.9494716,65.6065615 43.9306118,65.5871931 C43.9117521,65.5678248 43.5911361,65.6130176 43.2186558,65.688877 C40.4855619,66.2424893 38.2428219,67.8097124 37.2605426,69.8530744 C36.9509281,70.4970724 36.8330546,70.9183342 36.7529006,71.6543319 C36.5831628,73.2183269 37.0860898,74.9356549 38.1155185,76.2978962 C38.7143159,77.0919989 39.6274427,77.9409787 40.4651305,78.4849068 C40.7857465,78.6931167 40.8470407,78.7948006 40.6222952,78.7463797 C40.5437129,78.7302394 40.2686747,78.6705203 40.0109246,78.6156433 C37.9850718,78.1782411 36.0252281,77.0322798 34.9140738,75.6377579 C33.9380811,74.4110951 33.4430124,73.1360114 33.3015641,71.4784026 C33.1208247,69.3656373 33.6740444,67.3287315 34.9690815,65.3321764 C35.8051976,64.0425664 37.2479694,62.6383603 38.6938845,61.708679 C39.7406013,61.0340145 41.3279646,60.3464377 42.4092577,60.0978771 C42.6072852,60.0526843 42.7691648,59.9945792 42.7691648,59.9703687 C42.7691648,59.9009654 40.7653151,50.0989613 40.7323105,50.0053475 C40.6835894,49.868155 37.9677837,52.0955164 36.1383867,53.7708795 C35.1293894,54.6957187 32.9825198,56.9311502 32.202983,57.8689017 C29.8502276,60.6982963 28.3304451,63.2436216 27.4801842,65.7728066 C26.6252083,68.322974 26.413036,70.7779136 26.8499538,73.1005028 C27.3811704,75.9250553 29.2027091,78.8803442 31.6387618,80.8704432 C34.9470784,83.5723294 39.1606636,84.8038343 43.3962519,84.3083271 Z M49.604257,81.6225811 C51.8595702,79.6857451 53.1938984,77.4825942 53.5883818,75.050251 C53.7204001,74.2351658 53.6858239,72.5162239 53.5239442,71.7560158 C52.8638526,68.6764465 50.8490013,66.2989803 48.1929181,65.4661409 C47.6695597,65.3015098 47.5485429,65.2885976 46.5175426,65.2869835 C45.8637375,65.2869835 45.3843852,65.311194 45.3513806,65.3499307 C45.318376,65.3870534 45.9926125,68.7700603 47.040901,73.8171321 C47.9996055,78.4381 48.785429,82.2278424 48.7870006,82.2391406 C48.7932872,82.2907896 49.0683254,82.0825797 49.604257,81.6225811 Z M42.2269466,38.0131046 C46.7674344,33.4679962 49.4502356,29.0423259 50.0097419,25.1702679 C50.1354736,24.2986917 50.133902,22.8767313 50.0050269,22.1019969 C49.7472768,20.5557562 49.1170465,19.198357 48.0451833,17.8893786 C47.619267,17.369661 47.5548295,17.3422225 46.7501463,17.3437768 C45.8637375,17.3454505 45.0574826,17.7667123 44.2213665,18.664113 C42.835174,20.1474066 41.6768702,22.5716797 40.823466,25.765845 C39.6368726,30.2124977 39.2722505,35.774445 39.9229123,39.541591 L40.0250694,40.1371681 L40.6600147,39.541591 C41.0089203,39.213943 41.7130181,38.5263662 42.2269466,38.0131046 Z" id="G-Clef" fill="#000000"></path>
        <path d="M112.586271,79.1850683 C106.757334,82.3680549 103.652344,88.1289109 105.562711,92.4626696 C107.600093,97.0867447 114.603055,98.3914194 121.192362,95.3763266 C127.783386,92.3612338 131.477105,86.1596566 129.439724,81.5373304 C127.402342,76.9132553 120.39938,75.6085806 113.810073,78.6236734 C113.398134,78.8125539 112.97418,78.9717032 112.586271,79.1850683 Z" id="Path" fill="#000000" transform="translate(117.500000, 87.000000) rotate(-180.000000) translate(-117.500000, -87.000000) "></path>
        <path d="M112.586271,99.1850683 C106.757334,102.368055 103.652344,108.128911 105.562711,112.46267 C107.600093,117.086745 114.603055,118.391419 121.192362,115.376327 C127.783386,112.361234 131.477105,106.159657 129.439724,101.53733 C127.402342,96.9132553 120.39938,95.6085806 113.810073,98.6236734 C113.398134,98.8125539 112.97418,98.9717032 112.586271,99.1850683 Z" id="Path" fill="#000000" transform="translate(117.500000, 107.000000) rotate(-180.000000) translate(-117.500000, -107.000000) "></path>
        <path d="M112.586271,119.185068 C106.757334,122.368055 103.652344,128.128911 105.562711,132.46267 C107.600093,137.086745 114.603055,138.391419 121.192362,135.376327 C127.783386,132.361234 131.477105,126.159657 129.439724,121.53733 C127.402342,116.913255 120.39938,115.608581 113.810073,118.623673 C113.398134,118.812554 112.97418,118.971703 112.586271,119.185068 Z" id="Path" fill="#000000" transform="translate(117.500000, 127.000000) rotate(-180.000000) translate(-117.500000, -127.000000) "></path>
        <path d="M191.586271,49.1850683 C185.757334,52.3680549 182.652344,58.1289109 184.562711,62.4626696 C186.600093,67.0867447 193.603055,68.3914194 200.192362,65.3763266 C206.783386,62.3612338 210.477105,56.1596566 208.439724,51.5373304 C206.402342,46.9132553 199.39938,45.6085806 192.810073,48.6236734 C192.398134,48.8125539 191.97418,48.9717032 191.586271,49.1850683 Z" id="Path" fill="#000000" transform="translate(196.500000, 57.000000) rotate(-180.000000) translate(-196.500000, -57.000000) "></path>
        <path d="M191.586271,69.1850683 C185.757334,72.3680549 182.652344,78.1289109 184.562711,82.4626696 C186.600093,87.0867447 193.603055,88.3914194 200.192362,85.3763266 C206.783386,82.3612338 210.477105,76.1596566 208.439724,71.5373304 C206.402342,66.9132553 199.39938,65.6085806 192.810073,68.6236734 C192.398134,68.8125539 191.97418,68.9717032 191.586271,69.1850683 Z" id="Path" fill="#000000" transform="translate(196.500000, 77.000000) rotate(-180.000000) translate(-196.500000, -77.000000) "></path>
        <path d="M191.586271,89.1850683 C185.757334,92.3680549 182.652344,98.1289109 184.562711,102.46267 C186.600093,107.086745 193.603055,108.391419 200.192362,105.376327 C206.783386,102.361234 210.477105,96.1596566 208.439724,91.5373304 C206.402342,86.9132553 199.39938,85.6085806 192.810073,88.6236734 C192.398134,88.8125539 191.97418,88.9717032 191.586271,89.1850683 Z" id="Path" fill="#000000" transform="translate(196.500000, 97.000000) rotate(-180.000000) translate(-196.500000, -97.000000) "></path>
        <path d="M271.586271,39.1850683 C265.757334,42.3680549 262.652344,48.1289109 264.562711,52.4626696 C266.600093,57.0867447 273.603055,58.3914194 280.192362,55.3763266 C286.783386,52.3612338 290.477105,46.1596566 288.439724,41.5373304 C286.402342,36.9132553 279.39938,35.6085806 272.810073,38.6236734 C272.398134,38.8125539 271.97418,38.9717032 271.586271,39.1850683 Z" id="Path" fill="#000000" transform="translate(276.500000, 47.000000) rotate(-180.000000) translate(-276.500000, -47.000000) "></path>
        <path d="M271.586271,59.1850683 C265.757334,62.3680549 262.652344,68.1289109 264.562711,72.4626696 C266.600093,77.0867447 273.603055,78.3914194 280.192362,75.3763266 C286.783386,72.3612338 290.477105,66.1596566 288.439724,61.5373304 C286.402342,56.9132553 279.39938,55.6085806 272.810073,58.6236734 C272.398134,58.8125539 271.97418,58.9717032 271.586271,59.1850683 Z" id="Path" fill="#000000" transform="translate(276.500000, 67.000000) rotate(-180.000000) translate(-276.500000, -67.000000) "></path>
        <path d="M271.586271,79.1850683 C265.757334,82.3680549 262.652344,88.1289109 264.562711,92.4626696 C266.600093,97.0867447 273.603055,98.3914194 280.192362,95.3763266 C286.783386,92.3612338 290.477105,86.1596566 288.439724,81.5373304 C286.402342,76.9132553 279.39938,75.6085806 272.810073,78.6236734 C272.398134,78.8125539 271.97418,78.9717032 271.586271,79.1850683 Z" id="Path" fill="#000000" transform="translate(276.500000, 87.000000) rotate(-180.000000) translate(-276.500000, -87.000000) "></path>
        <g id="Group" transform="translate(95.000000, 126.000000)" fill="#0C0C0C" fill-rule="nonzero">
            <g id="Rectangle">
                <rect x="0" y="0" width="45" height="2"></rect>
            </g>
        </g>
        <path d="M412.586271,99.1850683 C406.757334,102.368055 403.652344,108.128911 405.562711,112.46267 C407.600093,117.086745 414.603055,118.391419 421.192362,115.376327 C427.783386,112.361234 431.477105,106.159657 429.439724,101.53733 C427.402342,96.9132553 420.39938,95.6085806 413.810073,98.6236734 C413.398134,98.8125539 412.97418,98.9717032 412.586271,99.1850683 Z" id="Path" fill="#000000" transform="translate(417.500000, 107.000000) rotate(-180.000000) translate(-417.500000, -107.000000) "></path>
        <path d="M412.586271,119.185068 C406.757334,122.368055 403.652344,128.128911 405.562711,132.46267 C407.600093,137.086745 414.603055,138.391419 421.192362,135.376327 C427.783386,132.361234 431.477105,126.159657 429.439724,121.53733 C427.402342,116.913255 420.39938,115.608581 413.810073,118.623673 C413.398134,118.812554 412.97418,118.971703 412.586271,119.185068 Z" id="Path" fill="#000000" transform="translate(417.500000, 127.000000) rotate(-180.000000) translate(-417.500000, -127.000000) "></path>
        <path d="M412.586271,139.185068 C406.757334,142.368055 403.652344,148.128911 405.562711,152.46267 C407.600093,157.086745 414.603055,158.391419 421.192362,155.376327 C427.783386,152.361234 431.477105,146.159657 429.439724,141.53733 C427.402342,136.913255 420.39938,135.608581 413.810073,138.623673 C413.398134,138.812554 412.97418,138.971703 412.586271,139.185068 Z" id="Path" fill="#000000" transform="translate(417.500000, 147.000000) rotate(-180.000000) translate(-417.500000, -147.000000) "></path>
        <path d="M491.586271,69.1850683 C485.757334,72.3680549 482.652344,78.1289109 484.562711,82.4626696 C486.600093,87.0867447 493.603055,88.3914194 500.192362,85.3763266 C506.783386,82.3612338 510.477105,76.1596566 508.439724,71.5373304 C506.402342,66.9132553 499.39938,65.6085806 492.810073,68.6236734 C492.398134,68.8125539 491.97418,68.9717032 491.586271,69.1850683 Z" id="Path" fill="#000000" transform="translate(496.500000, 77.000000) rotate(-180.000000) translate(-496.500000, -77.000000) "></path>
        <path d="M491.586271,89.1850683 C485.757334,92.3680549 482.652344,98.1289109 484.562711,102.46267 C486.600093,107.086745 493.603055,108.391419 500.192362,105.376327 C506.783386,102.361234 510.477105,96.1596566 508.439724,91.5373304 C506.402342,86.9132553 499.39938,85.6085806 492.810073,88.6236734 C492.398134,88.8125539 491.97418,88.9717032 491.586271,89.1850683 Z" id="Path" fill="#000000" transform="translate(496.500000, 97.000000) rotate(-180.000000) translate(-496.500000, -97.000000) "></path>
        <path d="M491.586271,109.185068 C485.757334,112.368055 482.652344,118.128911 484.562711,122.46267 C486.600093,127.086745 493.603055,128.391419 500.192362,125.376327 C506.783386,122.361234 510.477105,116.159657 508.439724,111.53733 C506.402342,106.913255 499.39938,105.608581 492.810073,108.623673 C492.398134,108.812554 491.97418,108.971703 491.586271,109.185068 Z" id="Path" fill="#000000" transform="translate(496.500000, 117.000000) rotate(-180.000000) translate(-496.500000, -117.000000) "></path>
        <path d="M571.586271,59.1850683 C565.757334,62.3680549 562.652344,68.1289109 564.562711,72.4626696 C566.600093,77.0867447 573.603055,78.3914194 580.192362,75.3763266 C586.783386,72.3612338 590.477105,66.1596566 588.439724,61.5373304 C586.402342,56.9132553 579.39938,55.6085806 572.810073,58.6236734 C572.398134,58.8125539 571.97418,58.9717032 571.586271,59.1850683 Z" id="Path" fill="#000000" transform="translate(576.500000, 67.000000) rotate(-180.000000) translate(-576.500000, -67.000000) "></path>
        <path d="M571.586271,79.1850683 C565.757334,82.3680549 562.652344,88.1289109 564.562711,92.4626696 C566.600093,97.0867447 573.603055,98.3914194 580.192362,95.3763266 C586.783386,92.3612338 590.477105,86.1596566 588.439724,81.5373304 C586.402342,76.9132553 579.39938,75.6085806 572.810073,78.6236734 C572.398134,78.8125539 571.97418,78.9717032 571.586271,79.1850683 Z" id="Path" fill="#000000" transform="translate(576.500000, 87.000000) rotate(-180.000000) translate(-576.500000, -87.000000) "></path>
        <path d="M571.586271,99.1850683 C565.757334,102.368055 562.652344,108.128911 564.562711,112.46267 C566.600093,117.086745 573.603055,118.391419 580.192362,115.376327 C586.783386,112.361234 590.477105,106.159657 588.439724,101.53733 C586.402342,96.9132553 579.39938,95.6085806 572.810073,98.6236734 C572.398134,98.8125539 571.97418,98.9717032 571.586271,99.1850683 Z" id="Path" fill="#000000" transform="translate(576.500000, 107.000000) rotate(-180.000000) translate(-576.500000, -107.000000) "></path>
        <g id="Group" transform="translate(395.000000, 146.000000)" fill="#0C0C0C" fill-rule="nonzero">
            <g id="Rectangle">
                <rect x="0" y="0" width="45" height="2"></rect>
            </g>
        </g>
        <g id="Group" transform="translate(395.000000, 126.000000)" fill="#0C0C0C" fill-rule="nonzero">
            <g id="Rectangle">
                <rect x="0" y="0" width="45" height="2"></rect>
            </g>
        </g>
        <line x1="352.5" y1="27" x2="352.5" y2="107" id="bar" stroke="#000000" stroke-linecap="square"></line>
        <g id="Group-2" transform="translate(94.000000, 170.000000)">
            <rect id="Rectangle-Copy" fill="#58C322" x="0" y="0" width="48" height="32" rx="4"></rect>
            <g id="Group" transform="translate(16.800000, 9.600000)" fill="#FFFFFF" fill-rule="nonzero">
                <g id="CS-A">
                    <path d="M8.5248,13 L8.5248,0.1936 L5.8944,0.1936 L5.8944,13 L8.5248,13 Z" id="Combined-Shape"></path>
                </g>
            </g>
        </g>
        <g id="Group-3" transform="translate(254.000000, 170.000000)">
            <rect id="Rectangle-Copy" fill="#FF5500" x="0" y="0" width="48" height="32" rx="4"></rect>
            <g id="Group" transform="translate(16.800000, 10.400000)" fill="#FFFFFF" fill-rule="nonzero">
                <g id="CS-A">
                    <path d="M8.5248,13 L12.5568,0.1936 L9.8496,0.1936 L7.1424,8.776 L4.5504,0.1936 L1.8432,0.1936 L5.7216,13 L8.5248,13 Z" id="Combined-Shape"></path>
                </g>
            </g>
        </g>
        <g id="Group" transform="translate(174.000000, 170.000000)">
            <rect id="Rectangle-Copy" fill="#FFBF00" x="0" y="0" width="48" height="32" rx="4"></rect>
            <g transform="translate(16.800000, 9.600000)" fill="#FFFFFF" fill-rule="nonzero" id="CS-A">
                <g>
                    <path d="M3.5296,13 L3.5296,0.1936 L0.8992,0.1936 L0.8992,13 L3.5296,13 Z M10.7744,13 L14.8064,0.1936 L12.0992,0.1936 L9.392,8.776 L6.8,0.1936 L4.0928,0.1936 L7.9712,13 L10.7744,13 Z" id="Combined-Shape"></path>
                </g>
            </g>
        </g>
        <g id="Group-5" transform="translate(394.000000, 170.000000)">
            <rect id="Rectangle-Copy" fill="#58C322" x="0" y="0" width="48" height="32" rx="4"></rect>
            <g id="Group" transform="translate(10.400000, 9.600000)" fill="#FFFFFF" fill-rule="nonzero">
                <g id="CS-A">
                    <path d="M6.2752,13 L10.3072,0.1936 L7.6,0.1936 L4.8928,8.776 L2.3008,0.1936 L-0.4064,0.1936 L3.472,13 L6.2752,13 Z M13.52,13 L13.52,0.1936 L10.8896,0.1936 L10.8896,13 L13.52,13 Z" id="Combined-Shape"></path>
                </g>
            </g>
            <g id="Group" transform="translate(25.600000, 8.000000)" fill="#FFFFFF" fill-rule="nonzero">
                <g id="CS-minor">
                    <path d="M3.57429,14.4 L3.57429,9.56 C3.57429,8.4336 4.01429,7.8528 4.85909,7.8528 C5.66869,7.8528 6.09109,8.4336 6.09109,9.56 L6.09109,14.4 L8.32629,14.4 L8.32629,9.4896 C8.32629,8.4512 8.80149,7.8528 9.62869,7.8528 C10.47349,7.8528 10.87829,8.3808 10.87829,9.4896 L10.87829,14.4 L13.11349,14.4 L13.11349,9.0672 C13.11349,7.8352 12.95509,7.272 12.46229,6.7264 C12.00469,6.2336 11.31829,5.9696 10.49109,5.9696 C9.32949,5.9696 8.57269,6.392 8.02709,7.3248 C7.63989,6.4448 6.86549,5.9696 5.80949,5.9696 C4.77109,5.9696 4.08469,6.3744 3.57429,7.272 L3.57429,6.2512 L1.33909,6.2512 L1.33909,14.4 L3.57429,14.4 Z" id="Combined-Shape"></path>
                </g>
            </g>
        </g>
        <g id="Group-4" transform="translate(474.000000, 170.000000)">
            <rect id="Rectangle-Copy" fill="#FFBF00" x="0" y="0" width="48" height="32" rx="4"></rect>
            <g id="Group" transform="translate(9.200000, 9.600000)" fill="#FFFFFF" fill-rule="nonzero">
                <g id="CS-A">
                    <path d="M6.2752,13 L6.2752,0.1936 L3.6448,0.1936 L3.6448,13 L6.2752,13 Z M10.7744,13 L10.7744,0.1936 L8.144,0.1936 L8.144,13 L10.7744,13 Z" id="Combined-Shape"></path>
                </g>
            </g>
            <g id="Group" transform="translate(21.600000, 8.400000)" fill="#FFFFFF" fill-rule="nonzero">
                <g id="CS-minor">
                    <path d="M3.57429,14.4 L3.57429,9.56 C3.57429,8.4336 4.01429,7.8528 4.85909,7.8528 C5.66869,7.8528 6.09109,8.4336 6.09109,9.56 L6.09109,14.4 L8.32629,14.4 L8.32629,9.4896 C8.32629,8.4512 8.80149,7.8528 9.62869,7.8528 C10.47349,7.8528 10.87829,8.3808 10.87829,9.4896 L10.87829,14.4 L13.11349,14.4 L13.11349,9.0672 C13.11349,7.8352 12.95509,7.272 12.46229,6.7264 C12.00469,6.2336 11.31829,5.9696 10.49109,5.9696 C9.32949,5.9696 8.57269,6.392 8.02709,7.3248 C7.63989,6.4448 6.86549,5.9696 5.80949,5.9696 C4.77109,5.9696 4.08469,6.3744 3.57429,7.272 L3.57429,6.2512 L1.33909,6.2512 L1.33909,14.4 L3.57429,14.4 Z" id="Combined-Shape"></path>
                </g>
            </g>
        </g>
        <g id="Group-6" transform="translate(554.000000, 170.000000)">
            <rect id="Rectangle-Copy" fill="#FF5500" x="0" y="0" width="48" height="32" rx="4"></rect>
            <g id="Group" transform="translate(24.400000, 9.200000)" fill="#FFFFFF" fill-rule="nonzero">
                <g id="CS-minor">
                    <path d="M3.57429,14.4 L3.57429,9.56 C3.57429,8.4336 4.01429,7.8528 4.85909,7.8528 C5.66869,7.8528 6.09109,8.4336 6.09109,9.56 L6.09109,14.4 L8.32629,14.4 L8.32629,9.4896 C8.32629,8.4512 8.80149,7.8528 9.62869,7.8528 C10.47349,7.8528 10.87829,8.3808 10.87829,9.4896 L10.87829,14.4 L13.11349,14.4 L13.11349,9.0672 C13.11349,7.8352 12.95509,7.272 12.46229,6.7264 C12.00469,6.2336 11.31829,5.9696 10.49109,5.9696 C9.32949,5.9696 8.57269,6.392 8.02709,7.3248 C7.63989,6.4448 6.86549,5.9696 5.80949,5.9696 C4.77109,5.9696 4.08469,6.3744 3.57429,7.272 L3.57429,6.2512 L1.33909,6.2512 L1.33909,14.4 L3.57429,14.4 Z" id="Combined-Shape"></path>
                </g>
            </g>
            <g id="Group" transform="translate(11.200000, 10.400000)" fill="#FFFFFF" fill-rule="nonzero">
                <g id="CS-A">
                    <path d="M4.0256,13 L4.0256,0.1936 L1.3952,0.1936 L1.3952,13 L4.0256,13 Z M8.5248,13 L8.5248,0.1936 L5.8944,0.1936 L5.8944,13 L8.5248,13 Z M13.024,13 L13.024,0.1936 L10.3936,0.1936 L10.3936,13 L13.024,13 Z" id="Combined-Shape"></path>
                </g>
            </g>
        </g>
    </g>
</svg>