<?xml version="1.0" encoding="UTF-8" standalone="no"?><!DOCTYPE svg PUBLIC "-//W3C//DTD SVG 1.1//EN" "http://www.w3.org/Graphics/SVG/1.1/DTD/svg11.dtd"><svg width="713.0px" height="150.0px" viewBox="0 0 713 150" version="1.1" xmlns="http://www.w3.org/2000/svg" xmlns:xlink="http://www.w3.org/1999/xlink" xml:space="preserve" xmlns:serif="http://www.serif.com/" style="fill-rule:evenodd;clip-rule:evenodd;"><g id="c1-popular-monism"><g id="明"><text x="25.51px" y="78px" style="font-family:'NotoSansSC-Bold', 'Noto Sans SC', sans-serif;font-weight:700;font-size:23.98px;fill:#f63;">明</text></g><g id="暗"><text x="645.01px" y="76.5px" style="font-family:'NotoSansSC-Bold', 'Noto Sans SC', sans-serif;font-weight:700;font-size:23.98px;fill:#3d7bf5;">暗</text></g><path id="Line-2" d="M633,78.5l-3,0l0,-8l-559.5,0l0,8l-3,0l0,-19l3,0l0,8l559.5,0l0,-8l3,0l0,19Z" style="fill:url(#_Linear1);fill-rule:nonzero;"/><path id="Path-2" d="M356.25,58.5l0,21.75" style="fill:none;stroke:#a27090;stroke-width:1.5px;"/><g id="現代のポピュラー音楽"><text x="277.815px" y="121.5px" style="font-family:'NotoSansSC-Bold', 'Noto Sans SC', sans-serif;font-weight:700;font-size:21px;">现代的流行音乐</text></g><g id="O"><path id="path-2" d="M395.885,53.118c0.31,-0.154 0.737,-0.129 1.185,0.24c-0.309,0.155 -0.736,0.13 -1.185,-0.24Zm-5.774,-0.891c0.44,-0.189 0.95,-0.117 1.495,0.086l-0.337,0.583c-0.173,-0.655 -0.627,-0.251 -1.158,-0.669Zm-12.911,-0.569c-0.448,-0.37 0.433,-0.749 0.668,-0.392c-0.075,0.512 -0.524,0.142 -0.668,0.392Zm-21.076,2.49c-0.448,-0.37 0.495,-1.047 0.847,-0.511c-0.227,0.202 -0.62,0.309 -0.847,0.511Zm-2.205,-0.385c-0.44,0.19 -0.763,0.559 -1.425,0.176c0.523,-0.142 0.846,-0.51 1.425,-0.176Zm46.833,31.039c0.214,0.012 0.31,-0.154 0.558,-0.011c0.054,-0.857 0.577,-0.999 1.149,-1.225c-0.22,0.762 -0.668,0.392 -0.887,1.154c1.385,0.467 2.368,-0.853 3.698,-0.863c-0.275,0.285 -0.075,0.512 0.173,0.655c0.398,-0.88 45.323,-0.369 45.82,-0.082c1.012,-0.415 2.002,-1.176 2.485,-0.675c0.193,-0.333 0.35,-0.797 0.599,-0.654c0.165,0.096 0.152,0.31 0.317,0.406c0.144,-0.25 0.337,-0.583 0.585,-0.44c0.606,-0.094 15.04,-0.643 15.502,-0.487c0.248,0.143 -0.027,0.428 0.222,0.572c0.141,-0.418 0.378,-0.691 0.726,-0.567l0.12,0.056c0.096,-0.166 0.144,-0.25 0.31,-0.154c1.164,-0.105 33.78,-0.816 34.563,-2.363c0.118,0.179 0.235,0.358 0.483,0.501c10.241,-6.08 10.582,-20.43 3.034,-27.23c2.307,-0.556 6.707,-1.68 3.938,-1.28c0.097,-0.167 0.11,-0.381 -0.055,-0.476c-0.756,1.118 -1.234,-0.157 -1.765,-0.575c-0.689,0.047 -0.184,0.893 -0.646,0.737c-0.414,-0.239 0.219,-0.761 -0.326,-0.965c-0.696,0.32 -1.602,-0.152 -2.323,0.503l-0.05,0.053l0.051,-0.074c0.229,-0.435 -0.801,-0.535 -1.081,-0.892c-0.193,0.333 -0.337,0.583 -0.585,0.439c-0.174,-0.655 -0.558,0.011 -0.985,-0.013c-0.932,-0.871 -31.647,-0.396 -33.123,-1.47c-7.195,-1.489 -178.589,-2.071 -185.192,0.002c-1.666,0.593 -62.958,2.067 -64.625,2.66c-0.785,0.213 -1.495,-0.086 -2.224,0.604c0.11,-0.381 -0.296,-0.06 -0.579,-0.335c-6.734,2.109 -17.015,4.057 -23.283,8.988c-5.456,4.291 -4.671,12.295 0.275,16.15c0.262,-0.072 0.475,-0.059 0.723,0.084c-0.15,1.024 1.036,1.264 1.676,1.301c-0.192,0.333 -0.205,0.547 -0.005,0.774c0.096,-0.167 0.227,-0.202 0.392,-0.107c0.048,-0.083 0.262,-0.071 0.166,0.096c1.316,0.205 1.703,0.872 2.902,0.898c-0.358,0.238 -0.454,0.404 -0.089,0.726c0.206,-0.547 0.702,-0.261 1.082,-0.153c-0.145,0.25 -0.11,0.381 0.007,0.56c0.219,-0.762 0.937,0.097 0.166,0.096c0.993,0.573 0.467,-0.619 1.308,-0.356c0.021,0.346 -0.35,0.798 0.195,1.001c0.659,-0.951 1.887,-0.021 2.88,0.553c1.757,0.015 4.258,0.459 6.023,1.034c-0.222,-0.572 0.819,-0.082 0.744,0.43c1.549,-0.772 62.44,0.742 64.229,-0.446c0.07,0.262 0.056,0.477 0.174,0.656c0.825,-0.856 0.875,0.394 1.404,-0.522c0.78,0.561 -0.267,0.845 0.312,1.179c2.422,-1.71 5.374,0.438 7.542,-0.642c-0.192,0.333 -0.123,0.595 0.078,0.822c0.467,-0.619 16.038,-0.844 16.644,-0.938c-0.096,0.166 -0.246,1.19 0.339,0.751c-0.365,-0.323 0.446,-0.964 0.895,-0.594c-0.262,0.071 -0.668,0.392 -0.385,0.666c0.427,0.024 0.577,-1 0.908,-0.808c-0.096,0.166 90.195,1 90.566,0.548c-0.118,-0.178 -0.318,-0.405 -0.173,-0.655l1.158,0.669c0.198,-1.107 0.937,0.097 1.26,-0.272Zm-6.989,-32.021c-0.475,0.059 -1.081,0.153 -1.743,-0.229c0.454,-0.404 1.164,-0.105 1.743,0.229Zm2.122,0.337c-0.619,0.309 -1.922,-0.11 -2.122,-0.337c0.55,-0.57 1.399,0.253 2.122,0.337Zm-107.653,-0.197c1.516,0.431 16.735,-0.33 18.086,0.005c1.57,-0.426 94.36,-0.481 96.509,-0.572c3.519,-0.745 68.129,0.251 70.657,0.267c3.462,2.221 37.151,4.24 39.038,7.661c2.051,3.516 2.738,10.353 -1.885,14.347c-6.796,5.848 -211.659,7.261 -222.343,7.422c-8.453,0.117 -77.609,-0.839 -84.648,-4.126c-5.502,-2.51 -8.518,-5.695 -8.759,-10.054c1.023,-1.963 2.345,-2.533 3.355,-4.282c1.164,-0.105 2.168,-1.08 3.159,-1.84c-0.759,-0.216 -0.091,-0.608 0.24,-0.417c1.185,0.241 1.21,-1.522 2.32,-0.77c0.446,-0.964 1.808,-2.176 2.726,-1.091c0.348,-2.131 2.961,-0.733 3.806,-2.578c0.248,0.143 0.234,0.358 0.221,0.572c2.513,-1.103 4.462,-1.422 6.713,-2.454c0.331,0.191 0.007,0.56 0.077,0.822c1.231,-1.177 2.843,-0.912 4.13,-1.613c0.649,0.597 -0.19,1.667 1.161,2.003c0.259,-1.405 63.53,-2.293 65.437,-3.302Zm95.734,28.295l-0.096,0.166c-0.462,-0.155 -0.598,0.654 -1.164,0.105c0.392,-0.106 0.646,-0.737 1.26,-0.271Z" style="fill-rule:nonzero;"/><path id="path-21" serif:id="path-2" d="M395.885,53.118c0.31,-0.154 0.737,-0.129 1.185,0.24c-0.309,0.155 -0.736,0.13 -1.185,-0.24Zm-5.774,-0.891c0.44,-0.189 0.95,-0.117 1.495,0.086l-0.337,0.583c-0.173,-0.655 -0.627,-0.251 -1.158,-0.669Zm-12.911,-0.569c-0.448,-0.37 0.433,-0.749 0.668,-0.392c-0.075,0.512 -0.524,0.142 -0.668,0.392Zm-21.076,2.49c-0.448,-0.37 0.495,-1.047 0.847,-0.511c-0.227,0.202 -0.62,0.309 -0.847,0.511Zm-2.205,-0.385c-0.44,0.19 -0.763,0.559 -1.425,0.176c0.523,-0.142 0.846,-0.51 1.425,-0.176Zm46.833,31.039c0.214,0.012 0.31,-0.154 0.558,-0.011c0.054,-0.857 0.577,-0.999 1.149,-1.225c-0.22,0.762 -0.668,0.392 -0.887,1.154c1.385,0.467 2.368,-0.853 3.698,-0.863c-0.275,0.285 -0.075,0.512 0.173,0.655c0.398,-0.88 45.323,-0.369 45.82,-0.082c1.012,-0.415 2.002,-1.176 2.485,-0.675c0.193,-0.333 0.35,-0.797 0.599,-0.654c0.165,0.096 0.152,0.31 0.317,0.406c0.144,-0.25 0.337,-0.583 0.585,-0.44c0.606,-0.094 15.04,-0.643 15.502,-0.487c0.248,0.143 -0.027,0.428 0.222,0.572c0.141,-0.418 0.378,-0.691 0.726,-0.567l0.12,0.056c0.096,-0.166 0.144,-0.25 0.31,-0.154c1.164,-0.105 33.78,-0.816 34.563,-2.363c0.118,0.179 0.235,0.358 0.483,0.501c10.241,-6.08 10.582,-20.43 3.034,-27.23c2.307,-0.556 6.707,-1.68 3.938,-1.28c0.097,-0.167 0.11,-0.381 -0.055,-0.476c-0.756,1.118 -1.234,-0.157 -1.765,-0.575c-0.689,0.047 -0.184,0.893 -0.646,0.737c-0.414,-0.239 0.219,-0.761 -0.326,-0.965c-0.696,0.32 -1.602,-0.152 -2.323,0.503l-0.05,0.053l0.051,-0.074c0.229,-0.435 -0.801,-0.535 -1.081,-0.892c-0.193,0.333 -0.337,0.583 -0.585,0.439c-0.174,-0.655 -0.558,0.011 -0.985,-0.013c-0.932,-0.871 -31.647,-0.396 -33.123,-1.47c-7.195,-1.489 -178.589,-2.071 -185.192,0.002c-1.666,0.593 -62.958,2.067 -64.625,2.66c-0.785,0.213 -1.495,-0.086 -2.224,0.604c0.11,-0.381 -0.296,-0.06 -0.579,-0.335c-6.734,2.109 -17.015,4.057 -23.283,8.988c-5.456,4.291 -4.671,12.295 0.275,16.15c0.262,-0.072 0.475,-0.059 0.723,0.084c-0.15,1.024 1.036,1.264 1.676,1.301c-0.192,0.333 -0.205,0.547 -0.005,0.774c0.096,-0.167 0.227,-0.202 0.392,-0.107c0.048,-0.083 0.262,-0.071 0.166,0.096c1.316,0.205 1.703,0.872 2.902,0.898c-0.358,0.238 -0.454,0.404 -0.089,0.726c0.206,-0.547 0.702,-0.261 1.082,-0.153c-0.145,0.25 -0.11,0.381 0.007,0.56c0.219,-0.762 0.937,0.097 0.166,0.096c0.993,0.573 0.467,-0.619 1.308,-0.356c0.021,0.346 -0.35,0.798 0.195,1.001c0.659,-0.951 1.887,-0.021 2.88,0.553c1.757,0.015 4.258,0.459 6.023,1.034c-0.222,-0.572 0.819,-0.082 0.744,0.43c1.549,-0.772 62.44,0.742 64.229,-0.446c0.07,0.262 0.056,0.477 0.174,0.656c0.825,-0.856 0.875,0.394 1.404,-0.522c0.78,0.561 -0.267,0.845 0.312,1.179c2.422,-1.71 5.374,0.438 7.542,-0.642c-0.192,0.333 -0.123,0.595 0.078,0.822c0.467,-0.619 16.038,-0.844 16.644,-0.938c-0.096,0.166 -0.246,1.19 0.339,0.751c-0.365,-0.323 0.446,-0.964 0.895,-0.594c-0.262,0.071 -0.668,0.392 -0.385,0.666c0.427,0.024 0.577,-1 0.908,-0.808c-0.096,0.166 90.195,1 90.566,0.548c-0.118,-0.178 -0.318,-0.405 -0.173,-0.655l1.158,0.669c0.198,-1.107 0.937,0.097 1.26,-0.272Zm-6.989,-32.021c-0.475,0.059 -1.081,0.153 -1.743,-0.229c0.454,-0.404 1.164,-0.105 1.743,0.229Zm2.122,0.337c-0.619,0.309 -1.922,-0.11 -2.122,-0.337c0.55,-0.57 1.399,0.253 2.122,0.337Zm-107.653,-0.197c1.516,0.431 16.735,-0.33 18.086,0.005c1.57,-0.426 94.36,-0.481 96.509,-0.572c3.519,-0.745 68.129,0.251 70.657,0.267c3.462,2.221 37.151,4.24 39.038,7.661c2.051,3.516 2.738,10.353 -1.885,14.347c-6.796,5.848 -211.659,7.261 -222.343,7.422c-8.453,0.117 -77.609,-0.839 -84.648,-4.126c-5.502,-2.51 -8.518,-5.695 -8.759,-10.054c1.023,-1.963 2.345,-2.533 3.355,-4.282c1.164,-0.105 2.168,-1.08 3.159,-1.84c-0.759,-0.216 -0.091,-0.608 0.24,-0.417c1.185,0.241 1.21,-1.522 2.32,-0.77c0.446,-0.964 1.808,-2.176 2.726,-1.091c0.348,-2.131 2.961,-0.733 3.806,-2.578c0.248,0.143 0.234,0.358 0.221,0.572c2.513,-1.103 4.462,-1.422 6.713,-2.454c0.331,0.191 0.007,0.56 0.077,0.822c1.231,-1.177 2.843,-0.912 4.13,-1.613c0.649,0.597 -0.19,1.667 1.161,2.003c0.259,-1.405 63.53,-2.293 65.437,-3.302Zm95.734,28.295l-0.096,0.166c-0.462,-0.155 -0.598,0.654 -1.164,0.105c0.392,-0.106 0.646,-0.737 1.26,-0.271Z" style="fill-rule:nonzero;"/></g></g><defs><linearGradient id="_Linear1" x1="0" y1="0" x2="1" y2="0" gradientUnits="userSpaceOnUse" gradientTransform="matrix(-565.5,6.92538e-14,-6.92538e-14,-565.5,633,181.116)"><stop offset="0" style="stop-color:#3d7af5;stop-opacity:1"/><stop offset="1" style="stop-color:#f63;stop-opacity:1"/></linearGradient></defs></svg>