<?xml version="1.0" encoding="UTF-8" standalone="no"?><!DOCTYPE svg PUBLIC "-//W3C//DTD SVG 1.1//EN" "http://www.w3.org/Graphics/SVG/1.1/DTD/svg11.dtd"><svg width="840.0px" height="400.0px" viewBox="0 0 840 400" version="1.1" xmlns="http://www.w3.org/2000/svg" xmlns:xlink="http://www.w3.org/1999/xlink" xml:space="preserve" xmlns:serif="http://www.serif.com/" style="fill-rule:evenodd;clip-rule:evenodd;"><g id="c1-relative-mirror"><rect id="Rectangle" x="0" y="200" width="880" height="200" style="fill:#444;"/><rect id="Rectangle1" serif:id="Rectangle" x="0" y="0" width="861" height="200" style="fill:#fff;"/><path id="Rectangle2" serif:id="Rectangle" d="M150,175c0,-1.104 -0.896,-2 -2,-2l-124,0c-1.104,0 -2,0.896 -2,2l0,50c0,1.104 0.896,2 2,2l124,0c1.104,0 2,-0.896 2,-2l0,-50Z" style="fill:#aaa;stroke:#979797;stroke-width:1px;"/><path id="Rectangle-Copy" d="M379,255c0,-5.519 -4.481,-10 -10,-10l-100,0c-5.519,0 -10,4.481 -10,10l0,60c0,5.519 4.481,10 10,10l100,0c5.519,0 10,-4.481 10,-10l0,-60Z" style="fill:#58c322;"/><g id="Group"><g id="CS-A"><path id="Combined-Shape" d="M302.688,301l10.08,-32.016l-6.768,0l-6.768,21.456l-6.48,-21.456l-6.768,0l9.696,32.016l7.008,0Zm18.112,0l-0,-32.016l-6.576,0l-0,32.016l6.576,0Z" style="fill:#fff;fill-rule:nonzero;"/></g></g><g id="Group1" serif:id="Group"><g id="CS-minor"><path id="Combined-Shape1" serif:id="Combined-Shape" d="M333.936,300l-0,-12.1c-0,-2.816 1.1,-4.268 3.212,-4.268c2.024,0 3.08,1.452 3.08,4.268l-0,12.1l5.588,0l-0,-12.276c-0,-2.596 1.188,-4.092 3.256,-4.092c2.112,0 3.124,1.32 3.124,4.092l-0,12.276l5.588,0l-0,-13.332c-0,-3.08 -0.396,-4.488 -1.628,-5.852c-1.144,-1.232 -2.86,-1.892 -4.928,-1.892c-2.904,-0 -4.796,1.056 -6.16,3.388c-0.968,-2.2 -2.904,-3.388 -5.544,-3.388c-2.596,-0 -4.312,1.012 -5.588,3.256l-0,-2.552l-5.588,-0l-0,20.372l5.588,-0Z" style="fill:#fff;fill-rule:nonzero;"/></g></g><path id="Rectangle-Copy1" serif:id="Rectangle-Copy" d="M318,75c0,-5.519 -4.481,-10 -10,-10l-100,0c-5.519,0 -10,4.481 -10,10l0,60c0,5.519 4.481,10 10,10l100,0c5.519,0 10,-4.481 10,-10l0,-60Z" style="fill:#58c322;"/><g id="Group2" serif:id="Group"><g id="CS-A1" serif:id="CS-A"><rect id="Combined-Shape2" serif:id="Combined-Shape" x="254.736" y="88.984" width="6.576" height="32.016" style="fill:#fff;fill-rule:nonzero;"/></g></g><path id="Rectangle-Copy2" serif:id="Rectangle-Copy" d="M828,255c0,-5.519 -4.481,-10 -10,-10l-100,0c-5.519,0 -10,4.481 -10,10l0,60c0,5.519 4.481,10 10,10l100,0c5.519,0 10,-4.481 10,-10l0,-60Z" style="fill:#f50;"/><g id="Group3" serif:id="Group"><g id="CS-A2" serif:id="CS-A"><path id="Combined-Shape3" serif:id="Combined-Shape" d="M746.064,301l0,-32.016l-6.576,0l0,32.016l6.576,0Zm11.248,0l0,-32.016l-6.576,0l0,32.016l6.576,0Zm11.248,0l-0,-32.016l-6.576,0l0,32.016l6.576,0Z" style="fill:#fff;fill-rule:nonzero;"/></g></g><g id="Group4" serif:id="Group"><g id="CS-minor1" serif:id="CS-minor"><path id="Combined-Shape4" serif:id="Combined-Shape" d="M780.936,300l-0,-12.1c-0,-2.816 1.1,-4.268 3.212,-4.268c2.024,0 3.08,1.452 3.08,4.268l-0,12.1l5.588,0l-0,-12.276c-0,-2.596 1.188,-4.092 3.256,-4.092c2.112,0 3.124,1.32 3.124,4.092l-0,12.276l5.588,0l-0,-13.332c-0,-3.08 -0.396,-4.488 -1.628,-5.852c-1.144,-1.232 -2.86,-1.892 -4.928,-1.892c-2.904,-0 -4.796,1.056 -6.16,3.388c-0.968,-2.2 -2.904,-3.388 -5.544,-3.388c-2.596,-0 -4.312,1.012 -5.588,3.256l-0,-2.552l-5.588,-0l-0,20.372l5.588,-0Z" style="fill:#fff;fill-rule:nonzero;"/></g></g><path id="Rectangle-Copy3" serif:id="Rectangle-Copy" d="M768,75c0,-5.519 -4.481,-10 -10,-10l-100,0c-5.519,0 -10,4.481 -10,10l0,60c0,5.519 4.481,10 10,10l100,0c5.519,0 10,-4.481 10,-10l0,-60Z" style="fill:#f50;"/><g id="Group5" serif:id="Group"><g id="CS-A3" serif:id="CS-A"><path id="Combined-Shape5" serif:id="Combined-Shape" d="M711.312,121l10.08,-32.016l-6.768,-0l-6.768,21.456l-6.48,-21.456l-6.768,-0l9.696,32.016l7.008,0Z" style="fill:#fff;fill-rule:nonzero;"/></g></g><path id="Rectangle-Copy4" serif:id="Rectangle-Copy" d="M538,76c0,-5.519 -4.481,-10 -10,-10l-100,0c-5.519,0 -10,4.481 -10,10l0,60c0,5.519 4.481,10 10,10l100,0c5.519,0 10,-4.481 10,-10l0,-60Z" style="fill:#ffbf00;"/><g id="Group6" serif:id="Group"><g id="CS-A4" serif:id="CS-A"><path id="Combined-Shape6" serif:id="Combined-Shape" d="M468.824,122l0,-32.016l-6.576,-0l0,32.016l6.576,0Zm18.112,0l10.08,-32.016l-6.768,-0l-6.768,21.456l-6.48,-21.456l-6.768,-0l9.696,32.016l7.008,0Z" style="fill:#fff;fill-rule:nonzero;"/></g></g><path id="Rectangle-Copy5" serif:id="Rectangle-Copy" d="M598,256c0,-5.519 -4.481,-10 -10,-10l-100,0c-5.519,0 -10,4.481 -10,10l0,60c0,5.519 4.481,10 10,10l100,0c5.519,0 10,-4.481 10,-10l0,-60Z" style="fill:#ffbf00;"/><g id="Group7" serif:id="Group"><g id="CS-minor2" serif:id="CS-minor"><path id="Combined-Shape7" serif:id="Combined-Shape" d="M543.936,303l-0,-12.1c-0,-2.816 1.1,-4.268 3.212,-4.268c2.024,0 3.08,1.452 3.08,4.268l-0,12.1l5.588,0l-0,-12.276c-0,-2.596 1.188,-4.092 3.256,-4.092c2.112,0 3.124,1.32 3.124,4.092l-0,12.276l5.588,0l-0,-13.332c-0,-3.08 -0.396,-4.488 -1.628,-5.852c-1.144,-1.232 -2.86,-1.892 -4.928,-1.892c-2.904,-0 -4.796,1.056 -6.16,3.388c-0.968,-2.2 -2.904,-3.388 -5.544,-3.388c-2.596,-0 -4.312,1.012 -5.588,3.256l-0,-2.552l-5.588,-0l-0,20.372l5.588,-0Z" style="fill:#fff;fill-rule:nonzero;"/></g></g><g id="Group8" serif:id="Group"><g id="CS-A5" serif:id="CS-A"><path id="Combined-Shape8" serif:id="Combined-Shape" d="M520.688,302l0,-32.016l-6.576,0l0,32.016l6.576,0Zm11.248,0l0,-32.016l-6.576,0l0,32.016l6.576,0Z" style="fill:#fff;fill-rule:nonzero;"/></g></g><path id="Line" d="M335,106l72,0" style="fill:none;stroke:#000;stroke-width:2px;stroke-linecap:square;"/><path id="Line1" serif:id="Line" d="M562,106l72,0" style="fill:none;stroke:#000;stroke-width:2px;stroke-linecap:square;"/><path id="Path-7" d="M706.5,159l59.5,76" style="fill:none;stroke:#aaa;stroke-width:2px;stroke-dasharray:4,2;"/><path id="Path-71" serif:id="Path-7" d="M476.5,159l59.5,76" style="fill:none;stroke:#aaa;stroke-width:2px;stroke-dasharray:4,2;"/><path id="Path-72" serif:id="Path-7" d="M256.5,159l59.5,76" style="fill:none;stroke:#aaa;stroke-width:2px;stroke-dasharray:4,2;"/><g id="Group9" serif:id="Group"><g id="Degree"><path d="M58.999,207.106l0.2,-0.975c-1.1,-0.1 -1.4,-0.425 -2.55,-2.6l-2.1,-4.15c-0.075,-0.15 -0.125,-0.225 -0.15,-0.25l-0.15,-0.275l-0.05,-0.1c2.675,-0.875 4.375,-2.9 4.375,-5.175c-0,-1.025 -0.45,-1.9 -1.225,-2.375c-0.825,-0.5 -2.075,-0.8 -3.4,-0.8c-0.175,0 -0.475,0 -0.875,0.025c-1.45,0.075 -2.65,0.125 -3.65,0.125c-1.1,0 -1.9,-0.025 -3.275,-0.125l-0.225,1.025l0.275,0c0.925,0 1.45,0.325 1.45,0.95c-0,0.225 -0.15,1.125 -0.275,1.8l-1.95,9.125c-0.45,2.325 -0.775,2.7 -2.35,2.75l-0.25,0l-0.225,1.025c1.3,-0.075 2.1,-0.1 3.425,-0.1c1.425,0 2.375,0.025 3.9,0.1l0.2,-1.025l-0.3,0c-1.075,0 -1.6,-0.325 -1.6,-0.975c-0,-0.25 0.1,-0.9 0.3,-1.775l0.8,-3.85l0.35,0.025l0.075,0c0.3,0 0.575,-0.025 1.175,-0.05l2.825,5.975c0.675,1.525 0.9,1.625 3.45,1.675l1.8,0Zm-9.025,-8.675c-0.075,0 -0.225,0 -0.425,-0.025l1.075,-4.95c0.075,-0.325 0.2,-0.85 0.425,-1.85l1.025,-0.025c2.15,0 3.175,0.8 3.175,2.475c-0,1.25 -0.55,2.45 -1.475,3.225c-0.8,0.675 -2.4,1.15 -3.8,1.15Zm14.1,8.925c1.825,0 3.675,-0.8 5.3,-2.25l-0.475,-0.65c-1.2,0.775 -2.025,1.075 -2.9,1.075c-1.725,0 -2.775,-1.175 -2.775,-3.075c0,-0.575 0.1,-1.15 0.25,-1.525l5.575,0c0.6,0 0.775,-0.05 0.95,-0.25c0.275,-0.3 0.45,-0.975 0.45,-1.65c0,-1.625 -1.275,-2.65 -3.3,-2.65c-3.75,0 -6.975,3.275 -6.975,7.05c0,2.35 1.575,3.925 3.9,3.925Zm2.8,-7.425l-3.1,0c0.75,-1.675 1.7,-2.5 2.925,-2.5c0.825,0 1.325,0.475 1.325,1.275c0,0.85 -0.35,1.225 -1.15,1.225Zm9.175,7.175l0.2,-0.95l-0.275,0c-0.75,0 -1.05,-0.175 -1.05,-0.65l0.001,-0.083c0.002,-0.235 0.029,-0.379 0.299,-1.617l2.1,-9.9c0.45,-2.05 0.8,-3.425 1.15,-4.425l-0.45,-0.325c-1.05,0.5 -3.55,1.3 -4.35,1.375l-0.125,0.875c1.025,0 1.275,0.15 1.275,0.7c0,0.325 -0.075,0.825 -0.375,2.175l-2.025,9.525c-0.45,2.175 -0.525,2.275 -1.875,2.35l-0.3,0l-0.2,0.95c1.25,-0.075 2.025,-0.1 3,-0.1c0.975,0 1.775,0.025 3,0.1Zm3.976,0.3c1.2,0 2.525,-0.525 4.075,-1.6c-0,0.425 -0,0.425 0.05,0.6c0.15,0.575 0.7,0.95 1.4,0.95c0.825,0 1.725,-0.35 3.025,-1.15l-0.325,-0.65c-0.475,0.275 -0.675,0.35 -0.825,0.35c-0.275,0 -0.4,-0.175 -0.4,-0.5c-0,-0.2 0.05,-0.55 0.1,-0.85l0.425,-1.95l0.064,-0.286l0.116,-0.523c0.399,-1.795 0.506,-2.31 0.534,-2.753l0.006,-0.12c0.003,-0.06 0.004,-0.121 0.004,-0.185l0.001,-0.208c-0,-1.225 -1.05,-2.15 -2.425,-2.15c-0.225,0 -0.55,0.025 -0.9,0.075l-1.925,0.775c-0.875,0.35 -2.275,1.225 -2.875,1.8c-0.4,0.375 -0.6,0.8 -0.6,1.225c-0,0.2 0.1,0.325 0.25,0.325c0.325,0 1.275,-0.3 1.75,-0.55c0.3,-0.15 0.425,-0.3 0.625,-0.775c0.225,-0.55 0.375,-0.775 0.675,-0.975c0.525,-0.325 1.05,-0.5 1.525,-0.5c0.6,0 1.05,0.5 1.05,1.125c-0,0.325 -0.075,1 -0.175,1.45l-0.175,0.8l-3.525,1.15c-1.6,0.5 -2.275,0.8 -2.725,1.25c-0.5,0.5 -0.8,1.2 -0.8,1.975c-0,1.175 0.75,1.875 2,1.875Zm2.025,-1.65c-0.65,0 -1.05,-0.375 -1.05,-1c-0,-1 0.75,-1.7 2.375,-2.175c0.35,-0.1 0.7,-0.2 0.8,-0.25l0.7,-0.225l-0.5,2.325l-0.05,0.25l-0.025,0.2c-1.025,0.65 -1.625,0.875 -2.25,0.875Zm11.175,1.6c0.825,0 1.725,-0.15 2.575,-0.45c0.2,-0.05 0.325,-0.1 0.375,-0.1c0.025,-0.025 0.1,-0.05 0.175,-0.05l0.075,-0.9c-0.475,0.15 -0.725,0.2 -1.075,0.2c-0.85,0 -1.275,-0.35 -1.275,-1.05c-0,-0.375 0.175,-1.425 0.475,-2.8l0.8,-3.825l2.625,0l0.5,-1.15l-2.825,0l0.75,-3.375l-0.9,-0.075c-0.95,1.675 -2.45,3 -4.075,3.65l-0.35,0.95l1.325,0l-1.175,5.525c-0.2,0.95 -0.25,1.3 -0.25,1.675c-0,1.15 0.8,1.775 2.25,1.775Zm10.375,-14.175c1.025,0 1.95,-0.9 1.95,-1.875c0,-0.7 -0.525,-1.225 -1.25,-1.225c-1,0 -1.925,0.9 -1.925,1.875c0,0.7 0.525,1.225 1.225,1.225Zm0.15,13.925l0.2,-0.95l-0.225,0c-0.75,0 -1.05,-0.175 -1.05,-0.65c0,-0.3 0.05,-0.675 0.275,-1.7l0.875,-4.1c0.35,-1.6 0.575,-2.45 0.9,-3.325l-0.45,-0.325c-1.025,0.5 -3.1,1.175 -4.325,1.4l-0.175,0.875l0.125,0c0.9,0 1.175,0.15 1.175,0.7c0,0.35 -0.1,0.975 -0.35,2.125l-0.55,2.65c-0.45,2.175 -0.525,2.275 -1.9,2.35l-0.325,0l-0.2,0.95c1.15,-0.1 1.875,-0.125 2.875,-0.125c1,0 1.825,0.025 3.125,0.125Zm7.176,0.2c0.15,-0.225 0.225,-0.4 0.25,-0.425c0.5,-0.75 1,-1.5 1.475,-2.25l2.725,-4.1c1.65,-2.525 2,-2.875 2.925,-2.95l0.2,-0.95c-0.35,0.025 -0.35,0.025 -0.675,0.05c-0.48,0.04 -0.64,0.048 -0.852,0.05l-0.173,0c-0.7,0 -1.925,-0.05 -2.225,-0.1l-0.225,0.95l0.175,0c0.5,0 0.775,0.2 0.775,0.5c-0,0.25 -0.375,1 -0.925,1.875l-2.475,3.9l-0.9,-4.5c-0.05,-0.35 -0.1,-0.7 -0.1,-0.95c-0,-0.575 0.4,-0.8 1.35,-0.825l0.2,-0.95c-0.957,0.07 -1.696,0.097 -3.132,0.1l-0.318,0c-1.25,0 -1.8,-0.025 -2.625,-0.1l-0.2,0.95c1.025,0.075 1.15,0.275 1.9,3.175l0.975,3.875c0.06,0.274 0.109,0.494 0.15,0.676l0.057,0.247c0.078,0.334 0.123,0.517 0.168,0.727c0.125,0.575 0.125,0.6 0.2,1.025l1.3,0Zm10.65,0.05c1.825,0 3.675,-0.8 5.3,-2.25l-0.475,-0.65c-1.2,0.775 -2.025,1.075 -2.9,1.075c-1.725,0 -2.775,-1.175 -2.775,-3.075c-0,-0.575 0.1,-1.15 0.25,-1.525l5.575,0c0.6,0 0.775,-0.05 0.95,-0.25c0.275,-0.3 0.45,-0.975 0.45,-1.65c-0,-1.625 -1.275,-2.65 -3.3,-2.65c-3.75,0 -6.975,3.275 -6.975,7.05c-0,2.35 1.575,3.925 3.9,3.925Zm2.8,-7.425l-3.1,0c0.75,-1.675 1.7,-2.5 2.925,-2.5c0.825,0 1.325,0.475 1.325,1.275c-0,0.85 -0.35,1.225 -1.15,1.225Z" style="fill:#fff;fill-rule:nonzero;"/></g></g><g id="Degree1" serif:id="Degree"><path d="M119.962,90.106l0.225,-1.025l-0.15,0c-1.125,0 -1.6,-0.275 -1.6,-1l-0,-0.065l0.001,-0.062c0.007,-0.179 0.043,-0.404 0.233,-1.351l0.074,-0.365c0.013,-0.066 0.027,-0.135 0.042,-0.207l1.9,-9.6c0.3,-1.55 0.725,-1.925 2.15,-2l0.275,-0.025l0.225,-0.975c-0.45,0.05 -0.825,0.05 -1.15,0.05l-1.025,-0.025l-1.775,-0.001c-0.356,-0.002 -0.567,-0.007 -0.9,-0.024c-0.35,0.675 -1.225,2 -2.425,3.725l-5.95,8.5l-2.6,-9.675l-0.325,-1.175c-0.075,-0.375 -0.175,-0.75 -0.275,-1.125l-0.05,-0.25c-0.45,0.05 -0.7,0.05 -1,0.05l-1.225,-0.025l-1.775,-0.001c-0.178,-0.002 -0.334,-0.007 -0.8,-0.024l-0.2,0.975l0.325,0.025c1.125,0.025 1.475,0.225 1.475,0.875c-0,0.4 -0.075,0.75 -0.4,1.975l-2.275,8.675c-0.65,2.65 -1.025,3.125 -2.575,3.125l-0.05,0l-0.225,1.025c1.075,-0.075 1.7,-0.1 2.55,-0.1c0.9,0 1.4,0.025 2.9,0.1l0.225,-1.025l-0.075,0c-1.075,0 -1.475,-0.275 -1.475,-1c-0,-0.45 0.1,-1.075 0.4,-2.275l1.875,-8.025l3.275,12.25l0.925,0l0.036,-0.059l0.073,-0.114c0.012,-0.019 0.024,-0.038 0.037,-0.058l0.128,-0.191c0.145,-0.214 0.357,-0.515 0.751,-1.078l7.625,-10.85l-1.825,8.8c-0.425,2.175 -0.775,2.55 -2.45,2.6l-0.15,0l-0.2,1.025c1.1,-0.075 1.875,-0.1 3.15,-0.1c1.575,0 2.5,0.025 4.05,0.1Zm4.425,0.3c1.2,0 2.525,-0.525 4.075,-1.6l0.001,0.227c0.002,0.207 0.01,0.237 0.049,0.373c0.15,0.575 0.7,0.95 1.4,0.95c0.825,0 1.725,-0.35 3.025,-1.15l-0.325,-0.65c-0.475,0.275 -0.675,0.35 -0.825,0.35c-0.275,0 -0.4,-0.175 -0.4,-0.5c0,-0.2 0.05,-0.55 0.1,-0.85l0.425,-1.95c0.571,-2.56 0.692,-3.104 0.718,-3.622l0.005,-0.12c0.002,-0.102 0.002,-0.208 0.002,-0.333c0,-1.225 -1.05,-2.15 -2.425,-2.15c-0.225,0 -0.55,0.025 -0.9,0.075l-1.925,0.775c-0.875,0.35 -2.275,1.225 -2.875,1.8c-0.4,0.375 -0.6,0.8 -0.6,1.225c0,0.2 0.1,0.325 0.25,0.325c0.325,0 1.275,-0.3 1.75,-0.55c0.3,-0.15 0.425,-0.3 0.625,-0.775c0.225,-0.55 0.375,-0.775 0.675,-0.975c0.525,-0.325 1.05,-0.5 1.525,-0.5c0.6,0 1.05,0.5 1.05,1.125c0,0.325 -0.075,1 -0.175,1.45l-0.175,0.8l-3.525,1.15c-1.6,0.5 -2.275,0.8 -2.725,1.25c-0.5,0.5 -0.8,1.2 -0.8,1.975c0,1.175 0.75,1.875 2,1.875Zm2.025,-1.65c-0.65,0 -1.05,-0.375 -1.05,-1c0,-1 0.75,-1.7 2.375,-2.175c0.35,-0.1 0.7,-0.2 0.8,-0.25l0.7,-0.225l-0.5,2.325l-0.05,0.25l-0.025,0.2c-1.025,0.65 -1.625,0.875 -2.25,0.875Zm12.85,-12.575c1,0 1.925,-0.9 1.925,-1.875c0,-0.7 -0.525,-1.225 -1.225,-1.225c-1,0 -1.925,0.9 -1.925,1.875c0,0.7 0.525,1.225 1.225,1.225Zm-7,18.95c4.55,-1.9 5.35,-2.775 6.125,-6.825l1.175,-5.5c0.325,-1.55 0.55,-2.375 0.925,-3.425l-0.45,-0.325c-1.1,0.525 -3.075,1.15 -4.35,1.4l-0.175,0.875l0.125,0c0.9,0 1.2,0.15 1.2,0.675c0,0.325 -0.075,0.825 -0.35,2.05l-0.9,4.325c-0.95,4.425 -1.05,4.6 -3.625,5.975l0.3,0.775Zm14.501,-4.775c4,0 7.35,-3.075 7.35,-6.7c-0,-2.6 -1.875,-4.325 -4.675,-4.325c-4.05,0 -7.45,3.075 -7.45,6.725c-0,2.6 1.875,4.3 4.775,4.3Zm0.5,-1.025c-1.475,0 -2.25,-1.125 -2.25,-3.25c-0,-3.25 1.675,-5.7 3.875,-5.7c1.45,0 2.25,1.125 2.25,3.2c-0,3.275 -1.65,5.75 -3.875,5.75Zm13.25,0.775l0.225,-0.975l-0.325,0c-0.85,0 -1.175,-0.175 -1.175,-0.675l0,-0.043l0.001,-0.077c0.006,-0.211 0.044,-0.39 0.299,-1.58l0.35,-1.65c0.5,-2.325 1.225,-3.375 2.325,-3.375c0.3,0 0.65,0.075 1.05,0.225c0.3,0.125 0.55,0.2 0.725,0.2c0.55,0 1.55,-1.35 1.55,-2.1c-0,-0.4 -0.475,-0.675 -1.2,-0.675c-1.325,0 -2.45,0.7 -3.825,2.375c0.25,-1.275 0.35,-1.85 0.425,-2.5l-0.15,-0.05c-0.975,0.45 -2.3,0.875 -4.1,1.35l-0.175,0.875l0.175,0c0.7,0 1,0.2 1,0.675c-0,0.25 -0.125,0.975 -0.275,1.75l-0.625,2.9c-0.45,2.2 -0.525,2.325 -1.775,2.375l-0.325,0l-0.2,0.975c1.05,-0.075 1.675,-0.1 2.85,-0.1c1.25,0 1.975,0.025 3.175,0.1Z" style="fill:#aaa;"/></g><g id="Degree2" serif:id="Degree"><path d="M117.737,322.106l0.2,-0.95l-0.15,0c-0.75,0 -1.075,-0.175 -1.075,-0.625c-0,-0.3 0.025,-0.375 0.3,-1.725l0.65,-3.05c0.175,-0.8 0.275,-1.7 0.275,-2.3c-0,-1.3 -1.05,-2.075 -2.75,-2.075c-0.95,0 -2.325,0.525 -4.275,1.6c-0.275,-1.05 -1.15,-1.6 -2.55,-1.6c-1.025,0 -1.65,0.225 -4,1.375c0.2,-0.625 0.225,-0.725 0.475,-1.35l-0.475,-0.325c-0.875,0.425 -3.4,1.25 -4.275,1.375l-0.2,0.875c1.075,0.025 1.3,0.15 1.3,0.725c-0,0.3 -0.1,0.825 -0.35,2.075l-0.575,2.675c-0.425,2.175 -0.525,2.275 -1.9,2.35l-0.325,0l-0.2,0.95c0.85,-0.1 1.4,-0.125 2.5,-0.125c1.075,0 2.025,0.025 3.35,0.125l0.2,-0.95l-0.1,0c-0.7,0 -1,-0.2 -1,-0.65c-0,-0.3 0.025,-0.5 0.3,-1.7l1.05,-5.025c0.975,-0.575 1.75,-0.825 2.55,-0.825c0.8,0 1.375,0.5 1.375,1.225c-0,0.275 -0.125,1.1 -0.3,1.875l-0.575,2.75c-0.45,2.15 -0.55,2.275 -1.85,2.35l-0.1,0l-0.2,0.95c0.9,-0.075 1.45,-0.1 2.475,-0.1c1.1,0 1.9,0.025 3.1,0.1l0.2,-0.95l-0.1,0c-0.7,0 -1.025,-0.2 -1.025,-0.625c-0,-0.3 0.025,-0.425 0.3,-1.725l0.7,-3.275c0.225,-1.125 0.25,-1.2 0.3,-1.7c1.35,-0.7 1.975,-0.9 2.625,-0.9c0.9,0 1.4,0.45 1.4,1.25c-0,0.425 -0.075,0.975 -0.225,1.75l-0.625,2.875c-0.425,2.15 -0.525,2.275 -1.85,2.35l-0.15,0l-0.2,0.95c0.725,-0.1 1.325,-0.125 1.8,-0.125l0.975,0c0.9,0 1.825,0.05 3,0.125Zm7.25,-13.925c1.025,0 1.95,-0.9 1.95,-1.875c0,-0.7 -0.525,-1.225 -1.25,-1.225c-1,0 -1.925,0.9 -1.925,1.875c0,0.7 0.525,1.225 1.225,1.225Zm0.15,13.925l0.2,-0.95l-0.225,0c-0.75,0 -1.05,-0.175 -1.05,-0.65c0,-0.3 0.05,-0.675 0.275,-1.7l0.875,-4.1c0.35,-1.6 0.575,-2.45 0.9,-3.325l-0.45,-0.325c-1.025,0.5 -3.1,1.175 -4.325,1.4l-0.175,0.875l0.125,0c0.9,0 1.175,0.15 1.175,0.7c0,0.35 -0.1,0.975 -0.35,2.125l-0.55,2.65c-0.45,2.175 -0.525,2.275 -1.9,2.35l-0.325,0l-0.2,0.95c1.15,-0.1 1.875,-0.125 2.875,-0.125c1,0 1.825,0.025 3.125,0.125Zm14.25,0l0.2,-0.95l-0.2,0c-0.85,0 -1.175,-0.175 -1.175,-0.675c0,-0.3 0.05,-0.6 0.275,-1.675l0.675,-3.2c0.175,-0.725 0.3,-1.8 0.3,-2.275c0,-1.15 -1.05,-1.95 -2.6,-1.95c-0.825,0 -1.075,0.1 -3.5,1.275c-0.15,0.05 -0.25,0.1 -0.45,0.225c0.2,-0.725 0.25,-0.85 0.475,-1.475l-0.45,-0.325c-0.9,0.425 -2.925,1.075 -4.3,1.375l-0.175,0.875l0.125,0c0.875,0 1.15,0.15 1.15,0.7c0,0.375 -0.1,0.95 -0.325,2.075l-0.575,2.7c-0.45,2.175 -0.55,2.275 -1.9,2.35l-0.275,0l-0.2,0.95c1,-0.075 1.625,-0.1 2.875,-0.1c1.25,0 1.875,0.025 2.95,0.1l0.2,-0.95l-0.1,0c-0.75,0 -1.05,-0.175 -1.05,-0.65l0.001,-0.072l0.001,-0.067c0.005,-0.099 0.02,-0.208 0.07,-0.459l0.038,-0.19c0.043,-0.214 0.105,-0.505 0.19,-0.912l1.05,-4.875c1.025,-0.675 1.825,-0.975 2.675,-0.975c0.7,0 1.175,0.475 1.175,1.2c0,0.3 -0.075,0.875 -0.2,1.425l-0.675,3.225c-0.45,2.15 -0.55,2.275 -1.725,2.35l-0.15,0l-0.2,0.95c1.275,-0.075 1.95,-0.1 2.875,-0.1c0.925,0 1.625,0.025 2.925,0.1Zm7.526,0.25c4,0 7.35,-3.075 7.35,-6.7c-0,-2.6 -1.875,-4.325 -4.675,-4.325c-4.05,0 -7.45,3.075 -7.45,6.725c-0,2.6 1.875,4.3 4.775,4.3Zm0.5,-1.025c-1.475,0 -2.25,-1.125 -2.25,-3.25c-0,-3.25 1.675,-5.7 3.875,-5.7c1.45,0 2.25,1.125 2.25,3.2c-0,3.275 -1.65,5.75 -3.875,5.75Zm13.25,0.775l0.225,-0.975l-0.325,0c-0.85,0 -1.175,-0.175 -1.175,-0.675l0,-0.043l0.001,-0.077c0.006,-0.211 0.044,-0.39 0.299,-1.58l0.35,-1.65c0.5,-2.325 1.225,-3.375 2.325,-3.375c0.3,0 0.65,0.075 1.05,0.225c0.3,0.125 0.55,0.2 0.725,0.2c0.55,0 1.55,-1.35 1.55,-2.1c-0,-0.4 -0.475,-0.675 -1.2,-0.675c-1.325,0 -2.45,0.7 -3.825,2.375c0.25,-1.275 0.35,-1.85 0.425,-2.5l-0.15,-0.05c-0.975,0.45 -2.3,0.875 -4.1,1.35l-0.175,0.875l0.175,0c0.7,0 1,0.2 1,0.675c-0,0.25 -0.125,0.975 -0.275,1.75l-0.625,2.9c-0.45,2.2 -0.525,2.325 -1.775,2.375l-0.325,0l-0.2,0.975c1.05,-0.075 1.675,-0.1 2.85,-0.1c1.25,0 1.975,0.025 3.175,0.1Z" style="fill:#aaa;"/></g><path id="Path-8" d="M178,106l-92,0l0,67" style="fill:none;stroke:#aaa;stroke-width:1px;"/><path id="Path-9" d="M178,288l-92,0l0,-61" style="fill:none;stroke:#979797;stroke-width:1px;"/><path id="Line2" serif:id="Line" d="M395,288l72,0" style="fill:none;stroke:#fff;stroke-width:2px;stroke-linecap:square;"/><path id="Line3" serif:id="Line" d="M622,288l72,0" style="fill:none;stroke:#fff;stroke-width:2px;stroke-linecap:square;"/><g id="リーダー"><text x="218.1px" y="46px" style="font-family:'NotoSansSC-Bold', 'Noto Sans SC', sans-serif;font-weight:700;font-size:20px;">L<tspan x="229.36px 240.7px " y="46px 46px ">ea</tspan>der</text></g><g id="下の仲間"><text x="437px" y="46px" style="font-family:'NotoSansSC-Bold', 'Noto Sans SC', sans-serif;font-weight:700;font-size:20px;">下方同事</text></g><g id="上の仲間"><text x="666px" y="46px" style="font-family:'NotoSansSC-Bold', 'Noto Sans SC', sans-serif;font-weight:700;font-size:20px;">上方同事</text></g><g id="リーダー1" serif:id="リーダー"><text x="278.1px" y="366px" style="font-family:'NotoSansSC-Bold', 'Noto Sans SC', sans-serif;font-weight:700;font-size:20px;fill:#fff;">L<tspan x="289.36px 300.7px " y="366px 366px ">ea</tspan>der</text></g><g id="下の仲間1" serif:id="下の仲間"><text x="497px" y="366px" style="font-family:'NotoSansSC-Bold', 'Noto Sans SC', sans-serif;font-weight:700;font-size:20px;fill:#fff;">下方同事</text></g><g id="上の仲間1" serif:id="上の仲間"><text x="726px" y="366px" style="font-family:'NotoSansSC-Bold', 'Noto Sans SC', sans-serif;font-weight:700;font-size:20px;fill:#fff;">上方同事</text></g></g></svg>