<?xml version="1.0" encoding="UTF-8"?>
<svg width="710px" height="340px" viewBox="0 0 710 340" version="1.1" xmlns="http://www.w3.org/2000/svg" xmlns:xlink="http://www.w3.org/1999/xlink">
    <title>c2-2d-relIIm</title>
    <g id="c2-2d-relIIm" stroke="none" stroke-width="1" fill="none" fill-rule="evenodd">
        <rect id="楽譜BG" fill="#FFFFFF" x="28.4223195" y="31" width="648.577681" height="239"></rect>
        <g id="五線" transform="translate(27.000000, 180.000000)" stroke="#000000">
            <line x1="0" y1="10.5" x2="649" y2="10.5" id="horizon"></line>
            <line x1="0" y1="30.5" x2="649" y2="30.5" id="horizon"></line>
            <line x1="0" y1="50.5" x2="649" y2="50.5" id="horizon"></line>
            <line x1="0" y1="70.5" x2="649" y2="70.5" id="horizon"></line>
            <line x1="0" y1="90.5" x2="649" y2="90.5" id="horizon"></line>
        </g>
        <g id="五線" transform="translate(28.422319, 20.000000)" stroke="#000000">
            <line x1="-0.422319475" y1="10.5" x2="648.577681" y2="10.5" id="horizon"></line>
            <line x1="-0.422319475" y1="30.5" x2="648.577681" y2="30.5" id="horizon"></line>
            <line x1="-0.422319475" y1="50.5" x2="648.577681" y2="50.5" id="horizon"></line>
            <line x1="-0.422319475" y1="70.5" x2="648.577681" y2="70.5" id="horizon"></line>
            <line x1="-0.422319475" y1="90.5" x2="648.577681" y2="90.5" id="horizon"></line>
        </g>
        <line x1="-91.5" y1="150.5" x2="147" y2="150" id="bar" stroke="#000000" stroke-width="2.72167481" stroke-linecap="round" stroke-linejoin="round" transform="translate(28.000000, 150.500000) rotate(90.000000) translate(-28.000000, -150.500000) "></line>
        <g id="F" transform="translate(39.000000, 193.000000)" fill="#131516" stroke="#131516" stroke-width="0.5">
            <path d="M0,67.5955531 C5.77440082,63.6965104 10.086928,60.7448987 12.8644879,58.7042782 C15.6420478,56.7000974 18.565795,54.1857614 21.562636,51.19771 C24.5594769,48.2096586 27.0812089,44.8207711 29.127832,41.067487 C30.735893,38.2980735 32.1246729,35.0913842 33.257625,31.447419 C34.390577,27.8398936 34.9753265,24.341687 35.084967,21.0256788 C35.084967,17.9283084 34.6829517,14.9766967 33.8423744,12.2072832 C33.0383439,9.40143003 31.649564,7.105732 29.6760346,5.24730978 C27.7025052,3.42532722 25.1442263,2.51433594 21.9646512,2.51433594 C18.8947166,2.51433594 16.0075162,3.13381001 13.30305,4.3363185 C10.6351306,5.57526664 8.73469491,7.54300781 7.67483653,10.3124213 C7.67483653,10.5674989 7.52864917,10.8954557 7.30936812,11.3691712 C7.3824618,11.9522056 7.67483653,12.3894814 8.22303914,12.7174383 C8.77124175,13.0453952 9.24635067,13.1911538 9.68491276,13.1911538 C9.90419381,13.1911538 10.5254901,13.0818348 11.475708,12.8631969 C12.4624726,12.644559 13.2665031,12.4988004 13.9243463,12.4988004 C15.8613288,12.4988004 17.5790303,13.1911538 19.1505445,14.5394209 C20.6855118,15.887688 21.4529954,17.5274723 21.4529954,19.4587738 C21.4529954,20.8434805 21.0509802,22.155308 20.2834965,23.3578165 C19.5160129,24.560325 18.4561545,25.5441955 17.1039214,26.2365489 C15.7516883,26.9653419 14.2532678,27.2932988 12.6452069,27.2932988 C9.7214596,27.2932988 7.23627444,26.4187472 5.18965137,24.6332043 C3.17957513,22.8112217 2.1562636,20.5155237 2.1562636,17.6367912 C2.1562636,13.9563864 3.28921566,10.7861368 5.51857293,8.08960258 C7.78447705,5.39306839 10.6351306,3.38888757 14.1436273,2.04062047 C17.6155772,0.655913723 21.1240739,0 24.7056643,0 C28.6161762,0 32.3439539,0.983870584 35.8159038,2.9880514 C39.3244005,4.95579257 42.0654135,7.68876642 44.1120366,11.077654 C46.1586597,14.5029812 47.2185181,18.1469463 47.2185181,22.0824287 C47.2185181,29.0788417 44.8795203,35.5650996 40.2015247,41.5776421 C35.5235291,47.5901846 29.7491283,52.8010547 22.8417754,57.2466921 C18.2368735,60.2711832 10.781318,64.3524241 0.511655769,69.490415 L0,67.5955531 Z M50.7635616,9.22341259 C50.7635616,7.91158515 51.2386705,6.81839561 52.1888884,5.94384398 C53.1025594,5.0328527 54.2355115,4.59557688 55.5877446,4.59557688 C56.7572435,4.59557688 57.8536487,5.105732 58.8404134,6.08960258 C59.8271781,7.03703352 60.302287,8.1666627 60.302287,9.40561085 C60.302287,10.7174383 59.7906312,11.8470675 58.8404134,12.7580588 C57.8171018,13.6326104 56.6841498,14.0698862 55.4050104,14.0698862 C54.0527773,14.0698862 52.956372,13.6326104 52.0792479,12.6487398 C51.2021237,11.7013089 50.7635616,10.5716797 50.7635616,9.22341259 Z M50.7635616,28.3177899 C50.7635616,27.0059624 51.2386705,25.8763332 52.1157947,25.0017816 C53.0294657,24.0907903 54.1624178,23.6535145 55.5877446,23.6535145 C56.7572435,23.6535145 57.8171018,24.12723 58.8404134,25.1111005 C59.7906312,26.0949711 60.302287,27.151721 60.302287,28.3177899 C60.302287,29.7389363 59.8271781,30.8685654 58.9135071,31.7795567 C57.9632892,32.690548 56.866884,33.1642635 55.5877446,33.1642635 C54.1624178,33.1642635 53.0294657,32.690548 52.1157947,31.8159964 C51.2386705,30.9414447 50.7635616,29.7753759 50.7635616,28.3177899 Z" id="Shape"></path>
        </g>
        <path d="M56.1620791,131.96278 C55.2662404,131.896201 54.4037992,131.750938 53.5904719,131.529009 C49.3745292,130.385065 46.4551952,127.207444 45.7754579,123.019036 C45.575073,121.792373 45.641868,119.871677 45.9227998,118.776154 C46.1369367,117.936859 46.6555802,116.738442 47.0740312,116.113005 C47.7793077,115.061868 48.9835821,114.067222 50.1858919,113.548715 C51.1740649,113.120997 51.7064603,113.008015 52.9519904,112.963629 C53.9401634,112.927313 54.1837686,112.943454 54.7554552,113.090734 C57.2425863,113.730293 59.2582234,115.86283 60.132452,118.784225 C60.3289078,119.443959 60.3465889,119.611415 60.350518,120.908692 C60.3544471,122.141407 60.3328369,122.397634 60.1776368,122.946404 C59.8338391,124.16298 59.2464361,125.143503 58.3073771,126.061482 C56.9321861,127.409197 55.321248,128.21823 53.1464817,128.658053 L52.2133164,128.847702 L52.8753726,129.13621 C56.4096135,130.689713 60.3230142,130.540416 63.9711994,128.716562 C67.1636071,127.122707 69.6330572,124.237628 70.4817465,121.110445 C70.6880252,120.353869 70.6998125,120.214659 70.6939188,118.776154 L70.6880252,117.246861 L69.4955381,111.331441 C68.8413401,108.077153 68.2873346,105.355495 68.2657245,105.280846 C68.2303624,105.165847 68.1478509,105.181987 67.5820581,105.418039 C63.9260146,106.945315 58.3938176,106.925139 53.3449021,105.3676 C46.4276914,103.235063 40.7815501,98.5543762 37.8386413,92.5138689 C36.9211925,90.6274713 36.384868,88.8237928 36.0882196,86.6186243 C35.9546296,85.6259959 35.9762398,82.9971445 36.1294754,81.7482888 C36.9486963,75.0662046 40.3984611,68.3659626 46.90115,60.8203724 C48.9246453,58.4719587 53.3547249,54.077762 56.3231729,51.4731211 C57.1129254,50.7811058 57.1463229,50.7367199 57.0854216,50.5127733 C56.9479025,49.9942661 56.4705148,47.4783969 56.3231729,46.491821 C55.6395065,41.8938531 55.6414711,36.5554489 56.327102,31.882832 C57.4036801,24.5430306 59.9281379,18.3754185 63.6018624,14.1143793 C64.2717769,13.3356098 65.6901882,12 65.8453883,12 C65.8945023,12 66.3247406,12.5891209 66.7981992,13.3093818 C71.1948813,19.9712907 73.5209186,25.9048684 74.1574356,32.070463 C74.3146003,33.6118617 74.27138,37.2293064 74.0749241,38.6395651 C73.4305489,43.2960417 71.9276616,47.3371693 69.3501608,51.3399637 C67.6645695,53.9607449 65.1263599,56.9386302 62.5351071,59.3394998 C61.943775,59.88827 61.3210099,60.4652858 61.1520579,60.6226537 L60.8455867,60.909144 L62.2030967,67.5851756 L63.5586421,74.2632247 L64.2305211,74.2107687 C66.1204265,74.0594534 68.116418,74.170418 69.5426875,74.5033117 C71.4424157,74.9491874 73.5798554,75.9660263 75.1790061,77.1826015 C76.0709157,77.8625116 77.5561219,79.3817173 78.1828161,80.2573286 C79.6817743,82.3474974 80.6601245,84.8391563 80.9331981,87.2581837 C81.0687527,88.4545834 80.9882058,90.7828217 80.7799625,91.7512397 C79.9568125,95.5825434 77.5207599,99.1858654 73.8097087,102.056821 C72.8922599,102.766994 71.5543955,103.624448 70.581939,104.126815 C69.9238119,104.467779 69.8668397,104.514182 69.91006,104.691725 C69.9925714,105.028654 71.0475394,110.157234 71.4424157,112.136439 C71.6486943,113.17547 71.9669528,114.89643 72.1496567,115.959672 C72.4718443,117.831947 72.4816671,117.928789 72.4384469,119.139311 C72.3598645,121.439304 71.7822843,123.23693 70.4778174,125.256485 C67.9926508,129.099894 63.5409611,131.551202 58.3486328,131.932517 C57.2524091,132.013218 56.8987886,132.019271 56.1620791,131.96278 Z M62.7453149,104.885409 C63.7217005,104.770409 64.9593724,104.504094 65.7609123,104.233744 C66.7431916,103.904886 67.9278204,103.3198 67.880671,103.186642 C67.8590608,103.128134 66.8551714,98.2315702 65.6489324,92.304045 C64.4426935,86.3765198 63.4368395,81.5082018 63.4132648,81.4839914 C63.3896901,81.4597809 62.9889201,81.516272 62.5233197,81.6110963 C59.1069524,82.3031116 56.3035273,84.2621405 55.0756782,86.816343 C54.6886602,87.6213405 54.5413183,88.1479177 54.4411258,89.0679148 C54.2289535,91.0229087 54.8576122,93.1695686 56.1443981,94.8723702 C56.8928949,95.8649987 58.0343034,96.9262234 59.0814131,97.6061335 C59.4821831,97.8663959 59.5588009,97.9935007 59.277869,97.9329746 C59.1796411,97.9127992 58.8358433,97.8381503 58.5136557,97.7695541 C55.9813397,97.2228014 53.5315352,95.7903498 52.1425923,94.0471974 C50.9226014,92.5138689 50.3037654,90.9200143 50.1269552,88.8480033 C49.9010309,86.2070467 50.5925556,83.6609144 52.2113518,81.1652205 C53.256497,79.553208 55.0599617,77.7979504 56.8673556,76.6358488 C58.1757516,75.7925181 60.1599558,74.9330471 61.5115721,74.6223464 C61.7591065,74.5658553 61.961456,74.493224 61.961456,74.4629609 C61.961456,74.3762068 59.4566438,62.1237016 59.4153881,62.0066844 C59.3544868,61.8351937 55.9597296,64.6193955 53.6729834,66.7135994 C52.4117368,67.8696484 49.7281498,70.6639378 48.7537287,71.8361271 C45.8127846,75.3728703 43.9130564,78.5545269 42.8502302,81.7160082 C41.7815104,84.9037175 41.516295,87.972392 42.0624422,90.8756284 C42.726463,94.4063191 45.0033864,98.1004302 48.0484522,100.588054 C52.183848,103.965412 57.4508295,105.504793 62.7453149,104.885409 Z M70.5053212,101.528226 C73.3244628,99.1071814 74.992373,96.3532427 75.4854772,93.3128137 C75.6505001,92.2939573 75.6072798,90.1452799 75.4049303,89.1950197 C74.5798157,85.3455582 72.0612516,82.3737254 68.7411476,81.3326761 C68.0869496,81.1268873 67.9356786,81.110747 66.6469282,81.1087294 C65.8296718,81.1087294 65.2304815,81.1389925 65.1892257,81.1874134 C65.14797,81.2338167 65.9907656,85.4625753 67.3011262,91.7714151 C68.4995069,97.5476249 69.4817862,102.284803 69.4837508,102.298926 C69.491609,102.363487 69.8354067,102.103225 70.5053212,101.528226 Z M61.2836833,47.0163808 C66.959293,41.3349952 70.3127945,35.8029074 71.0121773,30.9628349 C71.169342,29.8733647 71.1673775,28.0959142 71.0062837,27.1274962 C70.6840961,25.1946952 69.8963081,23.4979462 68.5564791,21.8617233 C68.0240837,21.2120762 67.9435368,21.1777781 66.9376829,21.1797211 C65.8296718,21.1818131 64.8218533,21.7083904 63.7767081,22.8301413 C62.0439675,24.6842582 60.5960878,27.7145996 59.5293325,31.7073063 C58.0460908,37.2656221 57.5903132,44.2180563 58.4036404,48.9269888 L58.5313367,49.6714601 L59.3250184,48.9269888 C59.7611504,48.5174287 60.6412726,47.6579577 61.2836833,47.0163808 Z" id="G-Clef" fill="#000000"></path>
        <line x1="364" y1="151.5" x2="603" y2="151.5" id="bar" stroke="#000000" stroke-linecap="round" stroke-linejoin="round" transform="translate(483.500000, 151.500000) rotate(90.000000) translate(-483.500000, -151.500000) "></line>
        <line x1="558" y1="151.5" x2="797" y2="151.5" id="bar" stroke="#000000" stroke-linecap="round" stroke-linejoin="round" transform="translate(677.500000, 151.500000) rotate(90.000000) translate(-677.500000, -151.500000) "></line>
        <g id="Group" transform="translate(165.000000, 190.000000)" fill="#0C0C0C" fill-rule="nonzero">
            <g id="note">
                <path d="M9.19317249,2.29432169 C2.89792118,5.63645765 -0.455467984,11.6853565 1.60772834,16.2358031 C3.80810033,21.0910819 11.3712998,22.4609904 18.4877514,19.2951429 C25.6060568,16.1292955 29.5952737,9.61763938 27.3949018,4.76419689 C25.1945298,-0.0910819352 17.6313303,-1.46099041 10.5148787,1.70485706 C10.0699846,1.90318161 9.61211442,2.07028841 9.19317249,2.29432169 Z" transform="translate(14.500000, 10.500000) rotate(-180.000000) translate(-14.500000, -10.500000) "></path>
            </g>
        </g>
        <path d="M174.193172,62.2943217 C167.897921,65.6364576 164.544532,71.6853565 166.607728,76.2358031 C168.8081,81.0910819 176.3713,82.4609904 183.487751,79.2951429 C190.606057,76.1292955 194.595274,69.6176394 192.394902,64.7641969 C190.19453,59.9089181 182.63133,58.5390096 175.514879,61.7048571 C175.069985,61.9031816 174.612114,62.0702884 174.193172,62.2943217 Z" id="note" fill="#000000" transform="translate(179.500000, 70.500000) rotate(-180.000000) translate(-179.500000, -70.500000) "></path>
        <g id="Group" transform="translate(151.000000, 49.671460)" fill="#0C0C0C" fill-rule="nonzero">
            <g id="flat">
                <path d="M1.73324454,11.771558 C1.73324454,11.771558 1.73324454,13.3141985 1.73324454,16.4002221 C3.73230635,14.4230874 5.9761808,13.4107528 8.4641436,13.3624756 C10.0192109,13.3624756 11.3519188,14.0621229 12.4629915,15.4599319 C13.4400692,16.7619293 13.9506991,18.2080155 13.9956056,19.7996758 C14.0397877,21.0533961 13.7507929,22.4994823 13.1293455,24.138677 C12.9069861,24.8138143 12.4180851,25.5372287 11.6626425,26.3081776 C11.0853772,26.8875033 10.4856586,27.4898535 9.86348687,28.1167137 C6.57589935,30.7199659 3.28831182,33.347728 0,36 L0,0 L1.73324454,0 L1.73324454,11.771558 Z M7.13143573,17.9911397 C6.59835258,17.3160024 5.90954541,16.9788051 5.06501422,16.9788051 C3.99884792,16.9788051 3.1325878,17.6294325 2.46623387,18.9314299 C1.97733288,19.9437645 1.73324454,22.3308836 1.73324454,26.0913018 L1.73324454,32.3116262 C1.7774267,32.503992 3.02177025,31.3230588 5.46482659,28.767341 C6.79825876,27.4178092 7.66451888,25.8261489 8.06433124,23.9938456 C8.24178419,23.2711738 8.33087282,22.5477594 8.33087282,21.824345 C8.33087282,20.2334274 7.93106045,18.9559399 7.13143573,17.9911397"></path>
            </g>
        </g>
        <g id="Group" transform="translate(351.000000, 49.671460)" fill="#0C0C0C" fill-rule="nonzero">
            <g id="flat">
                <path d="M1.73324454,11.771558 C1.73324454,11.771558 1.73324454,13.3141985 1.73324454,16.4002221 C3.73230635,14.4230874 5.9761808,13.4107528 8.4641436,13.3624756 C10.0192109,13.3624756 11.3519188,14.0621229 12.4629915,15.4599319 C13.4400692,16.7619293 13.9506991,18.2080155 13.9956056,19.7996758 C14.0397877,21.0533961 13.7507929,22.4994823 13.1293455,24.138677 C12.9069861,24.8138143 12.4180851,25.5372287 11.6626425,26.3081776 C11.0853772,26.8875033 10.4856586,27.4898535 9.86348687,28.1167137 C6.57589935,30.7199659 3.28831182,33.347728 0,36 L0,0 L1.73324454,0 L1.73324454,11.771558 Z M7.13143573,17.9911397 C6.59835258,17.3160024 5.90954541,16.9788051 5.06501422,16.9788051 C3.99884792,16.9788051 3.1325878,17.6294325 2.46623387,18.9314299 C1.97733288,19.9437645 1.73324454,22.3308836 1.73324454,26.0913018 L1.73324454,32.3116262 C1.7774267,32.503992 3.02177025,31.3230588 5.46482659,28.767341 C6.79825876,27.4178092 7.66451888,25.8261489 8.06433124,23.9938456 C8.24178419,23.2711738 8.33087282,22.5477594 8.33087282,21.824345 C8.33087282,20.2334274 7.93106045,18.9559399 7.13143573,17.9911397"></path>
            </g>
        </g>
        <path d="M174.193172,42.2943217 C167.897921,45.6364576 164.544532,51.6853565 166.607728,56.2358031 C168.8081,61.0910819 176.3713,62.4609904 183.487751,59.2951429 C190.606057,56.1292955 194.595274,49.6176394 192.394902,44.7641969 C190.19453,39.9089181 182.63133,38.5390096 175.514879,41.7048571 C175.069985,41.9031816 174.612114,42.0702884 174.193172,42.2943217 Z" id="note" fill="#000000" transform="translate(179.500000, 50.500000) rotate(-180.000000) translate(-179.500000, -50.500000) "></path>
        <path d="M174.193172,21.2943217 C167.897921,24.6364576 164.544532,30.6853565 166.607728,35.2358031 C168.8081,40.0910819 176.3713,41.4609904 183.487751,38.2951429 C190.606057,35.1292955 194.595274,28.6176394 192.394902,23.7641969 C190.19453,18.9089181 182.63133,17.5390096 175.514879,20.7048571 C175.069985,20.9031816 174.612114,21.0702884 174.193172,21.2943217 Z" id="note" fill="#000000" transform="translate(179.500000, 29.500000) rotate(-180.000000) translate(-179.500000, -29.500000) "></path>
        <g id="Group" transform="translate(366.000000, 230.000000)" fill="#0C0C0C" fill-rule="nonzero">
            <g id="note">
                <path d="M9.19317249,2.29432169 C2.89792118,5.63645765 -0.455467984,11.6853565 1.60772834,16.2358031 C3.80810033,21.0910819 11.3712998,22.4609904 18.4877514,19.2951429 C25.6060568,16.1292955 29.5952737,9.61763938 27.3949018,4.76419689 C25.1945298,-0.0910819352 17.6313303,-1.46099041 10.5148787,1.70485706 C10.0699846,1.90318161 9.61211442,2.07028841 9.19317249,2.29432169 Z" transform="translate(14.500000, 10.500000) rotate(-180.000000) translate(-14.500000, -10.500000) "></path>
            </g>
        </g>
        <path d="M374.193172,82.2943217 C367.897921,85.6364576 364.544532,91.6853565 366.607728,96.2358031 C368.8081,101.091082 376.3713,102.46099 383.487751,99.2951429 C390.606057,96.1292955 394.595274,89.6176394 392.394902,84.7641969 C390.19453,79.9089181 382.63133,78.5390096 375.514879,81.7048571 C375.069985,81.9031816 374.612114,82.0702884 374.193172,82.2943217 Z" id="note" fill="#000000" transform="translate(379.500000, 90.500000) rotate(-180.000000) translate(-379.500000, -90.500000) "></path>
        <path d="M374.193172,32.2943217 C367.897921,35.6364576 364.544532,41.6853565 366.607728,46.2358031 C368.8081,51.0910819 376.3713,52.4609904 383.487751,49.2951429 C390.606057,46.1292955 394.595274,39.6176394 392.394902,34.7641969 C390.19453,29.9089181 382.63133,28.5390096 375.514879,31.7048571 C375.069985,31.9031816 374.612114,32.0702884 374.193172,32.2943217 Z" id="note" fill="#000000" transform="translate(379.500000, 40.500000) rotate(-180.000000) translate(-379.500000, -40.500000) "></path>
        <path d="M374.193172,62.2943217 C367.897921,65.6364576 364.544532,71.6853565 366.607728,76.2358031 C368.8081,81.0910819 376.3713,82.4609904 383.487751,79.2951429 C390.606057,76.1292955 394.595274,69.6176394 392.394902,64.7641969 C390.19453,59.9089181 382.63133,58.5390096 375.514879,61.7048571 C375.069985,61.9031816 374.612114,62.0702884 374.193172,62.2943217 Z" id="note" fill="#000000" transform="translate(379.500000, 70.500000) rotate(-180.000000) translate(-379.500000, -70.500000) "></path>
        <g id="Group" transform="translate(566.000000, 200.000000)" fill="#0C0C0C" fill-rule="nonzero">
            <g id="note">
                <path d="M9.19317249,2.29432169 C2.89792118,5.63645765 -0.455467984,11.6853565 1.60772834,16.2358031 C3.80810033,21.0910819 11.3712998,22.4609904 18.4877514,19.2951429 C25.6060568,16.1292955 29.5952737,9.61763938 27.3949018,4.76419689 C25.1945298,-0.0910819352 17.6313303,-1.46099041 10.5148787,1.70485706 C10.0699846,1.90318161 9.61211442,2.07028841 9.19317249,2.29432169 Z" transform="translate(14.500000, 10.500000) rotate(-180.000000) translate(-14.500000, -10.500000) "></path>
            </g>
        </g>
        <path d="M574.193172,72.2943217 C567.897921,75.6364576 564.544532,81.6853565 566.607728,86.2358031 C568.8081,91.0910819 576.3713,92.4609904 583.487751,89.2951429 C590.606057,86.1292955 594.595274,79.6176394 592.394902,74.7641969 C590.19453,69.9089181 582.63133,68.5390096 575.514879,71.7048571 C575.069985,71.9031816 574.612114,72.0702884 574.193172,72.2943217 Z" id="note" fill="#000000" transform="translate(579.500000, 80.500000) rotate(-180.000000) translate(-579.500000, -80.500000) "></path>
        <path d="M574.193172,92.2943217 C567.897921,95.6364576 564.544532,101.685356 566.607728,106.235803 C568.8081,111.091082 576.3713,112.46099 583.487751,109.295143 C590.606057,106.129295 594.595274,99.6176394 592.394902,94.7641969 C590.19453,89.9089181 582.63133,88.5390096 575.514879,91.7048571 C575.069985,91.9031816 574.612114,92.0702884 574.193172,92.2943217 Z" id="note" fill="#000000" transform="translate(579.500000, 100.500000) rotate(-180.000000) translate(-579.500000, -100.500000) "></path>
        <path d="M574.193172,52.2943217 C567.897921,55.6364576 564.544532,61.6853565 566.607728,66.2358031 C568.8081,71.0910819 576.3713,72.4609904 583.487751,69.2951429 C590.606057,66.1292955 594.595274,59.6176394 592.394902,54.7641969 C590.19453,49.9089181 582.63133,48.5390096 575.514879,51.7048571 C575.069985,51.9031816 574.612114,52.0702884 574.193172,52.2943217 Z" id="note" fill="#000000" transform="translate(579.500000, 60.500000) rotate(-180.000000) translate(-579.500000, -60.500000) "></path>
        <line x1="280" y1="31" x2="280" y2="270" id="Path-15" stroke="#000000" stroke-linecap="square" fill-rule="nonzero"></line>
        <g id="Group" transform="translate(356.000000, 278.000000)" fill="#0C0C0C" fill-rule="nonzero">
            <g id="CN-Root">
                <path d="M24.7420942,30.0879121 L24.7420942,28.2679121 L22.8440942,28.2679121 L22.8440942,14.3839121 L24.7420942,14.3839121 L24.7420942,12.5639121 L18.2680942,12.5639121 L18.2680942,14.3839121 L20.1660942,14.3839121 L20.1660942,28.2679121 L18.2680942,28.2679121 L18.2680942,30.0879121 L24.7420942,30.0879121 Z" id="Combined-Shape"></path>
            </g>
        </g>
        <path id="Line" d="M305.166667,296.75 L317.166667,302.5 L305.166667,308.25 L305.166,303.25 L249.75,303.25 L249.75,301.75 L305.166,301.75 L305.166667,296.75 Z" fill="#000000" fill-rule="nonzero"></path>
        <g id="Group" transform="translate(562.000000, 278.000000)" fill="#0C0C0C" fill-rule="nonzero">
            <g id="Combined-Shape">
                <path d="M16.2786459,30.0879121 L16.2786459,28.2679121 L14.3806459,28.2679121 L14.3806459,14.3839121 L16.2786459,14.3839121 L16.2786459,12.5639121 L9.80464594,12.5639121 L9.80464594,14.3839121 L11.7026459,14.3839121 L11.7026459,28.2679121 L9.80464594,28.2679121 L9.80464594,30.0879121 L16.2786459,30.0879121 Z M26.6535425,30.0879121 L32.3735425,14.3839121 L33.8555425,14.3839121 L33.8555425,12.5639121 L27.2255425,12.5639121 L27.2255425,14.3839121 L29.7995425,14.3839121 L25.4055425,26.6819121 L25.1715425,27.7479121 L25.0155425,27.7479121 L24.7815425,26.6819121 L20.4655425,14.3839121 L23.0395425,14.3839121 L23.0395425,12.5639121 L16.1755425,12.5639121 L16.1755425,14.3839121 L17.6315425,14.3839121 L23.2215425,30.0879121 L26.6535425,30.0879121 Z"></path>
            </g>
        </g>
        <path id="Line" d="M511.166667,296.75 L523.166667,302.5 L511.166667,308.25 L511.166,303.25 L455.75,303.25 L455.75,301.75 L511.166,301.75 L511.166667,296.75 Z" fill="#000000" fill-rule="nonzero"></path>
        <g id="Group" transform="translate(146.000000, 278.000000)" fill="#0C0C0C" fill-rule="nonzero">
            <g id="CN-Root">
                <path d="M23.1430942,30.0879121 L28.8630942,14.3839121 L30.3450942,14.3839121 L30.3450942,12.5639121 L23.7150942,12.5639121 L23.7150942,14.3839121 L26.2890942,14.3839121 L21.8950942,26.6819121 L21.6610942,27.7479121 L21.5050942,27.7479121 L21.2710942,26.6819121 L16.9550942,14.3839121 L19.5290942,14.3839121 L19.5290942,12.5639121 L12.6650942,12.5639121 L12.6650942,14.3839121 L14.1210942,14.3839121 L19.7110942,30.0879121 L23.1430942,30.0879121 Z" id="Combined-Shape"></path>
            </g>
        </g>
        <g id="Group" transform="translate(380.000000, 278.000000)" fill="#0C0C0C" fill-rule="nonzero">
            <g id="Combined-Shape">
                <path d="M7.47557562,34 C7.65557562,34 7.75557562,33.9 7.81557562,33.72 L12.6755756,22.24 C12.7955756,21.92 12.8555756,21.8 12.8555756,21.36 L12.8555756,20.26 C12.8555756,20.1 12.7555756,20 12.5955756,20 L4.25557562,20 C4.09557562,20 3.99557562,20.1 3.99557562,20.26 L3.99557562,21.48 C3.99557562,21.66 4.09557562,21.76 4.25557562,21.76 L9.91557562,21.76 L10.6955756,21.74 L10.3555756,22.5 L5.63557562,33.72 C5.55557562,33.9 5.63557562,34 5.81557562,34 L7.47557562,34 Z"></path>
            </g>
        </g>
        <g id="Group" transform="translate(171.500000, 278.000000)" fill="#0C0C0C" fill-rule="nonzero">
            <g id="Combined-Shape">
                <path d="M29.8277561,20 C29.9877561,20 30.0877561,20.1 30.0877561,20.26 L30.0877561,20.26 L30.0877561,21.36 C30.0877561,21.8 30.0277561,21.92 29.9077561,22.24 L29.9077561,22.24 L25.0477561,33.72 C24.9877561,33.9 24.8877561,34 24.7077561,34 L24.7077561,34 L23.0477561,34 C22.8677561,34 22.7877561,33.9 22.8677561,33.72 L22.8677561,33.72 L27.5877561,22.5 L27.9277561,21.74 L27.1477561,21.76 L21.4877561,21.76 C21.3277561,21.76 21.2277561,21.66 21.2277561,21.48 L21.2277561,21.48 L21.2277561,20.26 C21.2277561,20.1 21.3277561,20 21.4877561,20 L21.4877561,20 Z M16.2259144,20.8638961 C18.2719144,20.8638961 19.6359144,22.1838961 19.6359144,24.7138961 L19.6359144,24.7138961 L19.6359144,29.7958961 C19.6359144,29.9938961 19.5259144,30.1038961 19.3279144,30.1038961 L19.3279144,30.1038961 L17.8099144,30.1038961 C17.6119144,30.1038961 17.5019144,29.9938961 17.5019144,29.7958961 L17.5019144,29.7958961 L17.5019144,24.9338961 C17.5019144,23.4818961 16.9299144,22.7558961 15.8079144,22.7558961 C15.1039144,22.7558961 14.4219144,23.0638961 13.8059144,23.6138961 C13.8499144,23.9438961 13.8939144,24.3178961 13.8939144,24.7138961 L13.8939144,24.7138961 L13.8939144,29.7958961 C13.8939144,29.9938961 13.7839144,30.1038961 13.5859144,30.1038961 L13.5859144,30.1038961 L12.0679144,30.1038961 C11.8919144,30.1038961 11.7599144,29.9938961 11.7599144,29.7958961 L11.7599144,29.7958961 L11.7599144,24.9338961 C11.7599144,23.4818961 11.2099144,22.7558961 10.0439144,22.7558961 C9.40591441,22.7558961 8.81191441,22.9758961 8.12991441,23.5038961 L8.12991441,23.5038961 L8.12991441,29.7958961 C8.12991441,29.9938961 8.01991441,30.1038961 7.82191441,30.1038961 L7.82191441,30.1038961 L6.30391441,30.1038961 C6.08391441,30.1038961 5.99591441,29.9938961 5.99591441,29.7958961 L5.99591441,29.7958961 L5.99591441,24.3838961 L5.97391441,24.3838961 L5.97391441,23.5258961 C5.97391441,22.9978961 5.92991441,22.7998961 5.55591441,22.7998961 L5.55591441,22.7998961 L5.31391441,22.7998961 C5.11591441,22.7998961 5.00591441,22.6898961 5.00591441,22.4918961 L5.00591441,22.4918961 L5.00591441,21.3918961 C5.00591441,21.1938961 5.11591441,21.0838961 5.31391441,21.0838961 L5.31391441,21.0838961 L6.21591441,21.0838961 C6.96391441,21.0838961 7.42591441,21.3698961 7.66791441,21.9198961 C8.63591441,21.1938961 9.49391441,20.8638961 10.5279144,20.8638961 C11.6719144,20.8638961 12.6179144,21.3038961 13.1899144,22.1398961 C14.0259144,21.3038961 15.0599144,20.8638961 16.2259144,20.8638961 Z"></path>
            </g>
        </g>
    </g>
</svg>