<?xml version="1.0" encoding="UTF-8" standalone="no"?><!DOCTYPE svg PUBLIC "-//W3C//DTD SVG 1.1//EN" "http://www.w3.org/Graphics/SVG/1.1/DTD/svg11.dtd"><svg width="660.0px" height="430.0px" viewBox="0 0 660 430" version="1.1" xmlns="http://www.w3.org/2000/svg" xmlns:xlink="http://www.w3.org/1999/xlink" xml:space="preserve" xmlns:serif="http://www.serif.com/" style="fill-rule:evenodd;clip-rule:evenodd;stroke-linecap:square;"><g id="c2-7th-chords-table"><rect id="Rectangle" x="36" y="82" width="600" height="330" style="fill:#fff;stroke:#000;stroke-width:1px;"/><g id="Δ7"><text x="271.032px" y="220px" style="font-family:'HiraginoSans-W6', 'Hiragino Sans', sans-serif;font-weight:600;font-size:28px;">Δ7</text></g><g id="Δ71" serif:id="Δ7"><text x="290.032px" y="339px" style="font-family:'HiraginoSans-W6', 'Hiragino Sans', sans-serif;font-weight:600;font-size:28px;">Δ7</text></g><g id="_7" serif:id="7"><text x="514.032px" y="223px" style="font-family:'HiraginoSans-W6', 'Hiragino Sans', sans-serif;font-weight:600;font-size:28px;">7</text></g><g id="m7"><text x="499.892px" y="339px" style="font-family:'HiraginoSans-W6', 'Hiragino Sans', sans-serif;font-weight:600;font-size:28px;">m7</text></g><g id="m"><text x="260.86px" y="339px" style="font-family:'HiraginoSans-W6', 'Hiragino Sans', sans-serif;font-weight:600;font-size:28px;">m</text></g><rect id="Rectangle1" serif:id="Rectangle" x="477" y="99" width="95" height="40" style="fill:#f63;"/><g id="短7度"><text x="496.168px" y="128px" style="font-family:'NotoSansSC-Bold', 'Noto Sans SC', sans-serif;font-weight:700;font-size:22px;fill:#fff;">小7度</text></g><rect id="Rectangle2" serif:id="Rectangle" x="59" y="206" width="95" height="40" style="fill:#3db8f5;"/><g id="長3度"><text x="78.168px" y="235px" style="font-family:'NotoSansSC-Bold', 'Noto Sans SC', sans-serif;font-weight:700;font-size:22px;fill:#fff;">大3度</text></g><g id="何もつけない"><text x="77px" y="265px" style="font-family:'NotoSansSC-Bold', 'Noto Sans SC', sans-serif;font-weight:700;font-size:12px;">什么都不加</text></g><g id="_-m-をつける" serif:id="“m”をつける"><text x="77.216px" y="377px" style="font-family:'NotoSansSC-Bold', 'Noto Sans SC', sans-serif;font-weight:700;font-size:12px;">加上“m”</text></g><g id="_-Δ7-をつける" serif:id="“Δ7”をつける"><text x="263.206px" y="155px" style="font-family:'NotoSansSC-Bold', 'Noto Sans SC', sans-serif;font-weight:700;font-size:12px;">加上“Δ7”</text></g><g id="_-メジャーセブンス-" serif:id="“メジャーセブンス”"><text x="259px" y="245px" style="font-family:'NotoSansSC-Bold', 'Noto Sans SC', sans-serif;font-weight:700;font-size:12px;">“大七和弦”</text></g><g id="_-マイナー・メジャーセブンス-" serif:id="“マイナー・メジャーセブンス”"><text x="253px" y="366px" style="font-family:'NotoSansSC-Bold', 'Noto Sans SC', sans-serif;font-weight:700;font-size:12px;">“小大七和弦”</text></g><g id="_-該当なし-" serif:id="(該当なし)"><text x="266.464px" y="394px" style="font-family:'NotoSansSC-Bold', 'Noto Sans SC', sans-serif;font-weight:700;font-size:12px;fill:#aaa;">(都不符合)</text></g><g id="_-マイナー・セブンス-" serif:id="“マイナー・セブンス”"><text x="487px" y="362px" style="font-family:'NotoSansSC-Bold', 'Noto Sans SC', sans-serif;font-weight:700;font-size:12px;">“小七和弦”</text></g><g id="_-セブンス-" serif:id="“セブンス”"><g transform="matrix(1,0,0,1,493.336,240)"><text x="6px" y="0px" style="font-family:'HiraginoSans-W6', 'Hiragino Sans', sans-serif;font-weight:600;font-size:12px;">“</text><text x="11.664px" y="0px" style="font-family:'NotoSansSC-Bold', 'Noto Sans SC', sans-serif;font-weight:700;font-size:12px;">七和弦</text><text x="47.664px" y="0px" style="font-family:'HiraginoSans-W6', 'Hiragino Sans', sans-serif;font-weight:600;font-size:12px;">”</text></g></g><g id="_4種のセブンスコード" serif:id="4種のセブンスコード"><text x="279.456px" y="50px" style="font-family:'HiraginoSans-W6', 'Hiragino Sans', sans-serif;font-weight:600;font-size:24px;">4种七和弦</text></g><g id="_-7-をつける" serif:id="“7”をつける"><text x="495.466px" y="157px" style="font-family:'NotoSansSC-Bold', 'Noto Sans SC', sans-serif;font-weight:700;font-size:12px;">加上“7”</text></g><rect id="Rectangle3" serif:id="Rectangle" x="248" y="96" width="95" height="40" style="fill:#3db8f5;"/><g id="長7度"><text x="267.168px" y="125px" style="font-family:'NotoSansSC-Bold', 'Noto Sans SC', sans-serif;font-weight:700;font-size:22px;fill:#fff;">大7度</text></g><rect id="Rectangle4" serif:id="Rectangle" x="59" y="318" width="95" height="40" style="fill:#f63;"/><g id="短3度"><text x="78.168px" y="347px" style="font-family:'NotoSansSC-Bold', 'Noto Sans SC', sans-serif;font-weight:700;font-size:22px;fill:#fff;">小3度</text></g><path id="Path-45" d="M36,173l600.5,0.5" style="fill:none;fill-rule:nonzero;stroke:#000;stroke-width:1px;"/><path id="Path-451" serif:id="Path-45" d="M36,294l600.5,0.5" style="fill:none;fill-rule:nonzero;stroke:#000;stroke-width:1px;"/><path id="Path-452" serif:id="Path-45" d="M182.5,412.5l0,-330" style="fill:none;fill-rule:nonzero;stroke:#000;stroke-width:1px;"/><path id="Path-453" serif:id="Path-45" d="M406.5,412.5l0,-330" style="fill:none;fill-rule:nonzero;stroke:#000;stroke-width:1px;"/><path id="Path-46" d="M36,83l147,91" style="fill:none;fill-rule:nonzero;stroke:#000;stroke-width:1px;"/><path id="Rectangle5" serif:id="Rectangle" d="M288,260.88c0,-1.59 -1.29,-2.88 -2.88,-2.88l-27.24,0c-1.59,0 -2.88,1.29 -2.88,2.88l0,21.24c0,1.59 1.29,2.88 2.88,2.88l27.24,0c1.59,0 2.88,-1.29 2.88,-2.88l0,-21.24Z" style="fill:#58c322;"/><g id="I"><text x="269.231px" y="278px" style="font-family:'LucidaGrande-Bold', 'Lucida Grande', sans-serif;font-weight:600;font-size:16.5px;fill:#fff;">I</text></g><path id="Rectangle6" serif:id="Rectangle" d="M330,260.88c0,-1.59 -1.29,-2.88 -2.88,-2.88l-27.24,0c-1.59,0 -2.88,1.29 -2.88,2.88l0,21.24c0,1.59 1.29,2.88 2.88,2.88l27.24,0c1.59,0 2.88,-1.29 2.88,-2.88l0,-21.24Z" style="fill:#ffbf00;"/><g id="IV"><text x="306.067px" y="277px" style="font-family:'LucidaGrande-Bold', 'Lucida Grande', sans-serif;font-weight:600;font-size:16.5px;fill:#fff;">IV</text></g><path id="Rectangle7" serif:id="Rectangle" d="M542,257.88c0,-1.59 -1.29,-2.88 -2.88,-2.88l-27.24,0c-1.59,0 -2.88,1.29 -2.88,2.88l0,21.24c0,1.59 1.29,2.88 2.88,2.88l27.24,0c1.59,0 2.88,-1.29 2.88,-2.88l0,-21.24Z" style="fill:#f63;"/><g id="V"><text x="520.336px" y="274px" style="font-family:'LucidaGrande-Bold', 'Lucida Grande', sans-serif;font-weight:600;font-size:16.5px;fill:#fff;">V</text></g><path id="Rectangle8" serif:id="Rectangle" d="M495,376.88c0,-1.59 -1.29,-2.88 -2.88,-2.88l-27.24,0c-1.59,0 -2.88,1.29 -2.88,2.88l0,21.24c0,1.59 1.29,2.88 2.88,2.88l27.24,0c1.59,0 2.88,-1.29 2.88,-2.88l0,-21.24Z" style="fill:#58c322;"/><g id="VIm"><text x="463.33px" y="393px" style="font-family:'NotoSansSC-Bold', 'Noto Sans SC', sans-serif;font-weight:700;font-size:16.5px;fill:#fff;">VIm</text></g><path id="Rectangle9" serif:id="Rectangle" d="M536,376.88c0,-1.59 -1.29,-2.88 -2.88,-2.88l-27.24,0c-1.59,0 -2.88,1.29 -2.88,2.88l0,21.24c0,1.59 1.29,2.88 2.88,2.88l27.24,0c1.59,0 2.88,-1.29 2.88,-2.88l0,-21.24Z" style="fill:#ffbf00;"/><g id="IIm"><text x="507.226px" y="393px" style="font-family:'NotoSansSC-Bold', 'Noto Sans SC', sans-serif;font-weight:700;font-size:16.5px;fill:#fff;">IIm</text></g><path id="Rectangle10" serif:id="Rectangle" d="M577,376.88c0,-1.59 -1.29,-2.88 -2.88,-2.88l-27.24,0c-1.59,0 -2.88,1.29 -2.88,2.88l0,21.24c0,1.59 1.29,2.88 2.88,2.88l27.24,0c1.59,0 2.88,-1.29 2.88,-2.88l0,-21.24Z" style="fill:#f63;"/><g id="IIIm"><text x="545.457px" y="393px" style="font-family:'NotoSansSC-Bold', 'Noto Sans SC', sans-serif;font-weight:700;font-size:16.5px;fill:#fff;">IIIm</text></g></g></svg>