<?xml version="1.0" encoding="UTF-8"?>
<svg width="530px" height="215px" viewBox="0 0 530 215" version="1.1" xmlns="http://www.w3.org/2000/svg" xmlns:xlink="http://www.w3.org/1999/xlink">
    <title>c2-four-seventh-chords</title>
    <g id="c2-four-seventh-chords" stroke="none" stroke-width="1" fill="none" fill-rule="evenodd">
        <g id="Group" transform="translate(18.500000, 41.000000)" stroke="#000000">
            <line x1="0.5" y1="1" x2="486.5" y2="1" id="horizon"></line>
            <line x1="0.5" y1="21" x2="486.5" y2="21" id="horizon"></line>
            <line x1="0.5" y1="41" x2="486.5" y2="41" id="horizon"></line>
            <line x1="0.5" y1="61" x2="486.5" y2="61" id="horizon"></line>
            <line x1="0.5" y1="81" x2="486.5" y2="81" id="horizon"></line>
            <line x1="-38.5" y1="40.9933912" x2="39.5" y2="41.0066088" id="bar" stroke-width="2.72167481" stroke-linecap="round" stroke-linejoin="round" transform="translate(0.500000, 41.000000) rotate(90.000000) translate(-0.500000, -41.000000) "></line>
            <line x1="487" y1="1" x2="487" y2="81" id="bar" stroke-linecap="square"></line>
        </g>
        <path d="M47.1620791,141.96278 C46.2662404,141.896201 45.4037992,141.750938 44.5904719,141.529009 C40.3745292,140.385065 37.4551952,137.207444 36.7754579,133.019036 C36.575073,131.792373 36.641868,129.871677 36.9227998,128.776154 C37.1369367,127.936859 37.6555802,126.738442 38.0740312,126.113005 C38.7793077,125.061868 39.9835821,124.067222 41.1858919,123.548715 C42.1740649,123.120997 42.7064603,123.008015 43.9519904,122.963629 C44.9401634,122.927313 45.1837686,122.943454 45.7554552,123.090734 C48.2425863,123.730293 50.2582234,125.86283 51.132452,128.784225 C51.3289078,129.443959 51.3465889,129.611415 51.350518,130.908692 C51.3544471,132.141407 51.3328369,132.397634 51.1776368,132.946404 C50.8338391,134.16298 50.2464361,135.143503 49.3073771,136.061482 C47.9321861,137.409197 46.321248,138.21823 44.1464817,138.658053 L43.2133164,138.847702 L43.8753726,139.13621 C47.4096135,140.689713 51.3230142,140.540416 54.9711994,138.716562 C58.1636071,137.122707 60.6330572,134.237628 61.4817465,131.110445 C61.6880252,130.353869 61.6998125,130.214659 61.6939188,128.776154 L61.6880252,127.246861 L60.4955381,121.331441 C59.8413401,118.077153 59.2873346,115.355495 59.2657245,115.280846 C59.2303624,115.165847 59.1478509,115.181987 58.5820581,115.418039 C54.9260146,116.945315 49.3938176,116.925139 44.3449021,115.3676 C37.4276914,113.235063 31.7815501,108.554376 28.8386413,102.513869 C27.9211925,100.627471 27.384868,98.8237928 27.0882196,96.6186243 C26.9546296,95.6259959 26.9762398,92.9971445 27.1294754,91.7482888 C27.9486963,85.0662046 31.3984611,78.3659626 37.90115,70.8203724 C39.9246453,68.4719587 44.3547249,64.077762 47.3231729,61.4731211 C48.1129254,60.7811058 48.1463229,60.7367199 48.0854216,60.5127733 C47.9479025,59.9942661 47.4705148,57.4783969 47.3231729,56.491821 C46.6395065,51.8938531 46.6414711,46.5554489 47.327102,41.882832 C48.4036801,34.5430306 50.9281379,28.3754185 54.6018624,24.1143793 C55.2717769,23.3356098 56.6901882,22 56.8453883,22 C56.8945023,22 57.3247406,22.5891209 57.7981992,23.3093818 C62.1948813,29.9712907 64.5209186,35.9048684 65.1574356,42.070463 C65.3146003,43.6118617 65.27138,47.2293064 65.0749241,48.6395651 C64.4305489,53.2960417 62.9276616,57.3371693 60.3501608,61.3399637 C58.6645695,63.9607449 56.1263599,66.9386302 53.5351071,69.3394998 C52.943775,69.88827 52.3210099,70.4652858 52.1520579,70.6226537 L51.8455867,70.909144 L53.2030967,77.5851756 L54.5586421,84.2632247 L55.2305211,84.2107687 C57.1204265,84.0594534 59.116418,84.170418 60.5426875,84.5033117 C62.4424157,84.9491874 64.5798554,85.9660263 66.1790061,87.1826015 C67.0709157,87.8625116 68.5561219,89.3817173 69.1828161,90.2573286 C70.6817743,92.3474974 71.6601245,94.8391563 71.9331981,97.2581837 C72.0687527,98.4545834 71.9882058,100.782822 71.7799625,101.75124 C70.9568125,105.582543 68.5207599,109.185865 64.8097087,112.056821 C63.8922599,112.766994 62.5543955,113.624448 61.581939,114.126815 C60.9238119,114.467779 60.8668397,114.514182 60.91006,114.691725 C60.9925714,115.028654 62.0475394,120.157234 62.4424157,122.136439 C62.6486943,123.17547 62.9669528,124.89643 63.1496567,125.959672 C63.4718443,127.831947 63.4816671,127.928789 63.4384469,129.139311 C63.3598645,131.439304 62.7822843,133.23693 61.4778174,135.256485 C58.9926508,139.099894 54.5409611,141.551202 49.3486328,141.932517 C48.2524091,142.013218 47.8987886,142.019271 47.1620791,141.96278 Z M53.7453149,114.885409 C54.7217005,114.770409 55.9593724,114.504094 56.7609123,114.233744 C57.7431916,113.904886 58.9278204,113.3198 58.880671,113.186642 C58.8590608,113.128134 57.8551714,108.23157 56.6489324,102.304045 C55.4426935,96.3765198 54.4368395,91.5082018 54.4132648,91.4839914 C54.3896901,91.4597809 53.9889201,91.516272 53.5233197,91.6110963 C50.1069524,92.3031116 47.3035273,94.2621405 46.0756782,96.816343 C45.6886602,97.6213405 45.5413183,98.1479177 45.4411258,99.0679148 C45.2289535,101.022909 45.8576122,103.169569 47.1443981,104.87237 C47.8928949,105.864999 49.0343034,106.926223 50.0814131,107.606134 C50.4821831,107.866396 50.5588009,107.993501 50.277869,107.932975 C50.1796411,107.912799 49.8358433,107.83815 49.5136557,107.769554 C46.9813397,107.222801 44.5315352,105.79035 43.1425923,104.047197 C41.9226014,102.513869 41.3037654,100.920014 41.1269552,98.8480033 C40.9010309,96.2070467 41.5925556,93.6609144 43.2113518,91.1652205 C44.256497,89.553208 46.0599617,87.7979504 47.8673556,86.6358488 C49.1757516,85.7925181 51.1599558,84.9330471 52.5115721,84.6223464 C52.7591065,84.5658553 52.961456,84.493224 52.961456,84.4629609 C52.961456,84.3762068 50.4566438,72.1237016 50.4153881,72.0066844 C50.3544868,71.8351937 46.9597296,74.6193955 44.6729834,76.7135994 C43.4117368,77.8696484 40.7281498,80.6639378 39.7537287,81.8361271 C36.8127846,85.3728703 34.9130564,88.5545269 33.8502302,91.7160082 C32.7815104,94.9037175 32.516295,97.972392 33.0624422,100.875628 C33.726463,104.406319 36.0033864,108.10043 39.0484522,110.588054 C43.183848,113.965412 48.4508295,115.504793 53.7453149,114.885409 Z M61.5053212,111.528226 C64.3244628,109.107181 65.992373,106.353243 66.4854772,103.312814 C66.6505001,102.293957 66.6072798,100.14528 66.4049303,99.1950197 C65.5798157,95.3455582 63.0612516,92.3737254 59.7411476,91.3326761 C59.0869496,91.1268873 58.9356786,91.110747 57.6469282,91.1087294 C56.8296718,91.1087294 56.2304815,91.1389925 56.1892257,91.1874134 C56.14797,91.2338167 56.9907656,95.4625753 58.3011262,101.771415 C59.4995069,107.547625 60.4817862,112.284803 60.4837508,112.298926 C60.491609,112.363487 60.8354067,112.103225 61.5053212,111.528226 Z M52.2836833,57.0163808 C57.959293,51.3349952 61.3127945,45.8029074 62.0121773,40.9628349 C62.169342,39.8733647 62.1673775,38.0959142 62.0062837,37.1274962 C61.6840961,35.1946952 60.8963081,33.4979462 59.5564791,31.8617233 C59.0240837,31.2120762 58.9435368,31.1777781 57.9376829,31.1797211 C56.8296718,31.1818131 55.8218533,31.7083904 54.7767081,32.8301413 C53.0439675,34.6842582 51.5960878,37.7145996 50.5293325,41.7073063 C49.0460908,47.2656221 48.5903132,54.2180563 49.4036404,58.9269888 L49.5313367,59.6714601 L50.3250184,58.9269888 C50.7611504,58.5174287 51.6412726,57.6579577 52.2836833,57.0163808 Z" id="G-Clef" fill="#000000"></path>
        <path d="M130.586271,114.185068 C124.757334,117.368055 121.652344,123.128911 123.562711,127.46267 C125.600093,132.086745 132.603055,133.391419 139.192362,130.376327 C145.783386,127.361234 149.477105,121.159657 147.439724,116.53733 C145.402342,111.913255 138.39938,110.608581 131.810073,113.623673 C131.398134,113.812554 130.97418,113.971703 130.586271,114.185068 Z" id="Path" fill="#000000" transform="translate(135.500000, 122.000000) rotate(-180.000000) translate(-135.500000, -122.000000) "></path>
        <path d="M130.586271,134.185068 C124.757334,137.368055 121.652344,143.128911 123.562711,147.46267 C125.600093,152.086745 132.603055,153.391419 139.192362,150.376327 C145.783386,147.361234 149.477105,141.159657 147.439724,136.53733 C145.402342,131.913255 138.39938,130.608581 131.810073,133.623673 C131.398134,133.812554 130.97418,133.971703 130.586271,134.185068 Z" id="Path" fill="#000000" transform="translate(135.500000, 142.000000) rotate(-180.000000) translate(-135.500000, -142.000000) "></path>
        <rect id="Rectangle" fill="#000000" x="115" y="142" width="40" height="1"></rect>
        <path d="M130.586271,94.1850683 C124.757334,97.3680549 121.652344,103.128911 123.562711,107.46267 C125.600093,112.086745 132.603055,113.391419 139.192362,110.376327 C145.783386,107.361234 149.477105,101.159657 147.439724,96.5373304 C145.402342,91.9132553 138.39938,90.6085806 131.810073,93.6236734 C131.398134,93.8125539 130.97418,93.9717032 130.586271,94.1850683 Z" id="Path" fill="#000000" transform="translate(135.500000, 102.000000) rotate(-180.000000) translate(-135.500000, -102.000000) "></path>
        <path d="M130.586271,75.1850683 C124.757334,78.3680549 121.652344,84.1289109 123.562711,88.4626696 C125.600093,93.0867447 132.603055,94.3914194 139.192362,91.3763266 C145.783386,88.3612338 149.477105,82.1596566 147.439724,77.5373304 C145.402342,72.9132553 138.39938,71.6085806 131.810073,74.6236734 C131.398134,74.8125539 130.97418,74.9717032 130.586271,75.1850683 Z" id="Path" fill="#000000" transform="translate(135.500000, 83.000000) rotate(-180.000000) translate(-135.500000, -83.000000) "></path>
        <path d="M230.586271,114.185068 C224.757334,117.368055 221.652344,123.128911 223.562711,127.46267 C225.600093,132.086745 232.603055,133.391419 239.192362,130.376327 C245.783386,127.361234 249.477105,121.159657 247.439724,116.53733 C245.402342,111.913255 238.39938,110.608581 231.810073,113.623673 C231.398134,113.812554 230.97418,113.971703 230.586271,114.185068 Z" id="Path" fill="#000000" transform="translate(235.500000, 122.000000) rotate(-180.000000) translate(-235.500000, -122.000000) "></path>
        <path d="M230.586271,134.185068 C224.757334,137.368055 221.652344,143.128911 223.562711,147.46267 C225.600093,152.086745 232.603055,153.391419 239.192362,150.376327 C245.783386,147.361234 249.477105,141.159657 247.439724,136.53733 C245.402342,131.913255 238.39938,130.608581 231.810073,133.623673 C231.398134,133.812554 230.97418,133.971703 230.586271,134.185068 Z" id="Path" fill="#000000" transform="translate(235.500000, 142.000000) rotate(-180.000000) translate(-235.500000, -142.000000) "></path>
        <rect id="Rectangle" fill="#000000" x="215" y="142" width="40" height="1"></rect>
        <path d="M230.586271,94.1850683 C224.757334,97.3680549 221.652344,103.128911 223.562711,107.46267 C225.600093,112.086745 232.603055,113.391419 239.192362,110.376327 C245.783386,107.361234 249.477105,101.159657 247.439724,96.5373304 C245.402342,91.9132553 238.39938,90.6085806 231.810073,93.6236734 C231.398134,93.8125539 230.97418,93.9717032 230.586271,94.1850683 Z" id="Path" fill="#000000" transform="translate(235.500000, 102.000000) rotate(-180.000000) translate(-235.500000, -102.000000) "></path>
        <path d="M230.586271,75.1850683 C224.757334,78.3680549 221.652344,84.1289109 223.562711,88.4626696 C225.600093,93.0867447 232.603055,94.3914194 239.192362,91.3763266 C245.783386,88.3612338 249.477105,82.1596566 247.439724,77.5373304 C245.402342,72.9132553 238.39938,71.6085806 231.810073,74.6236734 C231.398134,74.8125539 230.97418,74.9717032 230.586271,75.1850683 Z" id="Path" fill="#000000" transform="translate(235.500000, 83.000000) rotate(-180.000000) translate(-235.500000, -83.000000) "></path>
        <path d="M330.586271,114.185068 C324.757334,117.368055 321.652344,123.128911 323.562711,127.46267 C325.600093,132.086745 332.603055,133.391419 339.192362,130.376327 C345.783386,127.361234 349.477105,121.159657 347.439724,116.53733 C345.402342,111.913255 338.39938,110.608581 331.810073,113.623673 C331.398134,113.812554 330.97418,113.971703 330.586271,114.185068 Z" id="Path" fill="#000000" transform="translate(335.500000, 122.000000) rotate(-180.000000) translate(-335.500000, -122.000000) "></path>
        <path d="M330.586271,134.185068 C324.757334,137.368055 321.652344,143.128911 323.562711,147.46267 C325.600093,152.086745 332.603055,153.391419 339.192362,150.376327 C345.783386,147.361234 349.477105,141.159657 347.439724,136.53733 C345.402342,131.913255 338.39938,130.608581 331.810073,133.623673 C331.398134,133.812554 330.97418,133.971703 330.586271,134.185068 Z" id="Path" fill="#000000" transform="translate(335.500000, 142.000000) rotate(-180.000000) translate(-335.500000, -142.000000) "></path>
        <rect id="Rectangle" fill="#000000" x="315" y="142" width="40" height="1"></rect>
        <path d="M330.586271,94.1850683 C324.757334,97.3680549 321.652344,103.128911 323.562711,107.46267 C325.600093,112.086745 332.603055,113.391419 339.192362,110.376327 C345.783386,107.361234 349.477105,101.159657 347.439724,96.5373304 C345.402342,91.9132553 338.39938,90.6085806 331.810073,93.6236734 C331.398134,93.8125539 330.97418,93.9717032 330.586271,94.1850683 Z" id="Path" fill="#000000" transform="translate(335.500000, 102.000000) rotate(-180.000000) translate(-335.500000, -102.000000) "></path>
        <path d="M330.586271,75.1850683 C324.757334,78.3680549 321.652344,84.1289109 323.562711,88.4626696 C325.600093,93.0867447 332.603055,94.3914194 339.192362,91.3763266 C345.783386,88.3612338 349.477105,82.1596566 347.439724,77.5373304 C345.402342,72.9132553 338.39938,71.6085806 331.810073,74.6236734 C331.398134,74.8125539 330.97418,74.9717032 330.586271,75.1850683 Z" id="Path" fill="#000000" transform="translate(335.500000, 83.000000) rotate(-180.000000) translate(-335.500000, -83.000000) "></path>
        <path d="M430.586271,114.185068 C424.757334,117.368055 421.652344,123.128911 423.562711,127.46267 C425.600093,132.086745 432.603055,133.391419 439.192362,130.376327 C445.783386,127.361234 449.477105,121.159657 447.439724,116.53733 C445.402342,111.913255 438.39938,110.608581 431.810073,113.623673 C431.398134,113.812554 430.97418,113.971703 430.586271,114.185068 Z" id="Path" fill="#000000" transform="translate(435.500000, 122.000000) rotate(-180.000000) translate(-435.500000, -122.000000) "></path>
        <g id="Group" transform="translate(208.000000, 60.000000)" fill="#0C0C0C" fill-rule="nonzero">
            <g id="flat">
                <path d="M1.73324454,11.771558 C1.73324454,11.771558 1.73324454,13.3141985 1.73324454,16.4002221 C3.73230635,14.4230874 5.9761808,13.4107528 8.4641436,13.3624756 C10.0192109,13.3624756 11.3519188,14.0621229 12.4629915,15.4599319 C13.4400692,16.7619293 13.9506991,18.2080155 13.9956056,19.7996758 C14.0397877,21.0533961 13.7507929,22.4994823 13.1293455,24.138677 C12.9069861,24.8138143 12.4180851,25.5372287 11.6626425,26.3081776 C11.0853772,26.8875033 10.4856586,27.4898535 9.86348687,28.1167137 C6.57589935,30.7199659 3.28831182,33.347728 0,36 L0,0 L1.73324454,0 L1.73324454,11.771558 Z M7.13143573,17.9911397 C6.59835258,17.3160024 5.90954541,16.9788051 5.06501422,16.9788051 C3.99884792,16.9788051 3.1325878,17.6294325 2.46623387,18.9314299 C1.97733288,19.9437645 1.73324454,22.3308836 1.73324454,26.0913018 L1.73324454,32.3116262 C1.7774267,32.503992 3.02177025,31.3230588 5.46482659,28.767341 C6.79825876,27.4178092 7.66451888,25.8261489 8.06433124,23.9938456 C8.24178419,23.2711738 8.33087282,22.5477594 8.33087282,21.824345 C8.33087282,20.2334274 7.93106045,18.9559399 7.13143573,17.9911397"></path>
            </g>
        </g>
        <g id="Group" transform="translate(308.000000, 60.000000)" fill="#0C0C0C" fill-rule="nonzero">
            <g id="flat">
                <path d="M1.73324454,11.771558 C1.73324454,11.771558 1.73324454,13.3141985 1.73324454,16.4002221 C3.73230635,14.4230874 5.9761808,13.4107528 8.4641436,13.3624756 C10.0192109,13.3624756 11.3519188,14.0621229 12.4629915,15.4599319 C13.4400692,16.7619293 13.9506991,18.2080155 13.9956056,19.7996758 C14.0397877,21.0533961 13.7507929,22.4994823 13.1293455,24.138677 C12.9069861,24.8138143 12.4180851,25.5372287 11.6626425,26.3081776 C11.0853772,26.8875033 10.4856586,27.4898535 9.86348687,28.1167137 C6.57589935,30.7199659 3.28831182,33.347728 0,36 L0,0 L1.73324454,0 L1.73324454,11.771558 Z M7.13143573,17.9911397 C6.59835258,17.3160024 5.90954541,16.9788051 5.06501422,16.9788051 C3.99884792,16.9788051 3.1325878,17.6294325 2.46623387,18.9314299 C1.97733288,19.9437645 1.73324454,22.3308836 1.73324454,26.0913018 L1.73324454,32.3116262 C1.7774267,32.503992 3.02177025,31.3230588 5.46482659,28.767341 C6.79825876,27.4178092 7.66451888,25.8261489 8.06433124,23.9938456 C8.24178419,23.2711738 8.33087282,22.5477594 8.33087282,21.824345 C8.33087282,20.2334274 7.93106045,18.9559399 7.13143573,17.9911397"></path>
            </g>
        </g>
        <g id="Group" transform="translate(308.000000, 99.000000)" fill="#0C0C0C" fill-rule="nonzero">
            <g id="flat">
                <path d="M1.73324454,11.771558 C1.73324454,11.771558 1.73324454,13.3141985 1.73324454,16.4002221 C3.73230635,14.4230874 5.9761808,13.4107528 8.4641436,13.3624756 C10.0192109,13.3624756 11.3519188,14.0621229 12.4629915,15.4599319 C13.4400692,16.7619293 13.9506991,18.2080155 13.9956056,19.7996758 C14.0397877,21.0533961 13.7507929,22.4994823 13.1293455,24.138677 C12.9069861,24.8138143 12.4180851,25.5372287 11.6626425,26.3081776 C11.0853772,26.8875033 10.4856586,27.4898535 9.86348687,28.1167137 C6.57589935,30.7199659 3.28831182,33.347728 0,36 L0,0 L1.73324454,0 L1.73324454,11.771558 Z M7.13143573,17.9911397 C6.59835258,17.3160024 5.90954541,16.9788051 5.06501422,16.9788051 C3.99884792,16.9788051 3.1325878,17.6294325 2.46623387,18.9314299 C1.97733288,19.9437645 1.73324454,22.3308836 1.73324454,26.0913018 L1.73324454,32.3116262 C1.7774267,32.503992 3.02177025,31.3230588 5.46482659,28.767341 C6.79825876,27.4178092 7.66451888,25.8261489 8.06433124,23.9938456 C8.24178419,23.2711738 8.33087282,22.5477594 8.33087282,21.824345 C8.33087282,20.2334274 7.93106045,18.9559399 7.13143573,17.9911397"></path>
            </g>
        </g>
        <g id="Group" transform="translate(405.000000, 99.000000)" fill="#0C0C0C" fill-rule="nonzero">
            <g id="flat">
                <path d="M1.73324454,11.771558 C1.73324454,11.771558 1.73324454,13.3141985 1.73324454,16.4002221 C3.73230635,14.4230874 5.9761808,13.4107528 8.4641436,13.3624756 C10.0192109,13.3624756 11.3519188,14.0621229 12.4629915,15.4599319 C13.4400692,16.7619293 13.9506991,18.2080155 13.9956056,19.7996758 C14.0397877,21.0533961 13.7507929,22.4994823 13.1293455,24.138677 C12.9069861,24.8138143 12.4180851,25.5372287 11.6626425,26.3081776 C11.0853772,26.8875033 10.4856586,27.4898535 9.86348687,28.1167137 C6.57589935,30.7199659 3.28831182,33.347728 0,36 L0,0 L1.73324454,0 L1.73324454,11.771558 Z M7.13143573,17.9911397 C6.59835258,17.3160024 5.90954541,16.9788051 5.06501422,16.9788051 C3.99884792,16.9788051 3.1325878,17.6294325 2.46623387,18.9314299 C1.97733288,19.9437645 1.73324454,22.3308836 1.73324454,26.0913018 L1.73324454,32.3116262 C1.7774267,32.503992 3.02177025,31.3230588 5.46482659,28.767341 C6.79825876,27.4178092 7.66451888,25.8261489 8.06433124,23.9938456 C8.24178419,23.2711738 8.33087282,22.5477594 8.33087282,21.824345 C8.33087282,20.2334274 7.93106045,18.9559399 7.13143573,17.9911397"></path>
            </g>
        </g>
        <g id="Group" transform="translate(102.500000, 163.000000)" fill="#0C0C0C" fill-rule="nonzero">
            <g id="Combined-Shape">
                <path d="M21.9080942,30.3479121 C25.4180942,30.3479121 28.7200942,28.2939121 29.5520942,23.9519121 C29.5780942,23.6919121 29.4480942,23.5879121 29.2140942,23.5879121 L27.3160942,23.5879121 C27.0820942,23.5879121 26.9520942,23.6659121 26.8740942,23.9519121 C26.1980942,26.4219121 24.3780942,27.9299121 21.9600942,27.9299121 C18.7100942,27.9299121 16.4740942,25.1739121 16.4740942,20.9879121 C16.4740942,16.8019121 18.7100942,14.0459121 21.9600942,14.0459121 C24.3780942,14.0459121 26.1980942,15.5539121 26.8740942,18.0239121 C26.9520942,18.3099121 27.0820942,18.3879121 27.3160942,18.3879121 L29.2140942,18.3879121 C29.4480942,18.3879121 29.5780942,18.2839121 29.5520942,18.0239121 C28.7200942,13.6819121 25.4180942,11.6279121 21.9080942,11.6279121 C17.0720942,11.6279121 13.7440942,15.3719121 13.7440942,20.9879121 C13.7440942,26.6039121 17.0720942,30.3479121 21.9080942,30.3479121 Z"></path>
            </g>
        </g>
        <g id="Group" transform="translate(212.500000, 163.000000)" fill="#0C0C0C" fill-rule="nonzero">
            <g id="Combined-Shape">
                <path d="M21.9080942,30.3479121 C25.4180942,30.3479121 28.7200942,28.2939121 29.5520942,23.9519121 C29.5780942,23.6919121 29.4480942,23.5879121 29.2140942,23.5879121 L27.3160942,23.5879121 C27.0820942,23.5879121 26.9520942,23.6659121 26.8740942,23.9519121 C26.1980942,26.4219121 24.3780942,27.9299121 21.9600942,27.9299121 C18.7100942,27.9299121 16.4740942,25.1739121 16.4740942,20.9879121 C16.4740942,16.8019121 18.7100942,14.0459121 21.9600942,14.0459121 C24.3780942,14.0459121 26.1980942,15.5539121 26.8740942,18.0239121 C26.9520942,18.3099121 27.0820942,18.3879121 27.3160942,18.3879121 L29.2140942,18.3879121 C29.4480942,18.3879121 29.5780942,18.2839121 29.5520942,18.0239121 C28.7200942,13.6819121 25.4180942,11.6279121 21.9080942,11.6279121 C17.0720942,11.6279121 13.7440942,15.3719121 13.7440942,20.9879121 C13.7440942,26.6039121 17.0720942,30.3479121 21.9080942,30.3479121 Z"></path>
            </g>
        </g>
        <g id="Group" transform="translate(296.500000, 163.000000)" fill="#0C0C0C" fill-rule="nonzero">
            <g id="Combined-Shape">
                <path d="M21.9080942,30.3479121 C25.4180942,30.3479121 28.7200942,28.2939121 29.5520942,23.9519121 C29.5780942,23.6919121 29.4480942,23.5879121 29.2140942,23.5879121 L27.3160942,23.5879121 C27.0820942,23.5879121 26.9520942,23.6659121 26.8740942,23.9519121 C26.1980942,26.4219121 24.3780942,27.9299121 21.9600942,27.9299121 C18.7100942,27.9299121 16.4740942,25.1739121 16.4740942,20.9879121 C16.4740942,16.8019121 18.7100942,14.0459121 21.9600942,14.0459121 C24.3780942,14.0459121 26.1980942,15.5539121 26.8740942,18.0239121 C26.9520942,18.3099121 27.0820942,18.3879121 27.3160942,18.3879121 L29.2140942,18.3879121 C29.4480942,18.3879121 29.5780942,18.2839121 29.5520942,18.0239121 C28.7200942,13.6819121 25.4180942,11.6279121 21.9080942,11.6279121 C17.0720942,11.6279121 13.7440942,15.3719121 13.7440942,20.9879121 C13.7440942,26.6039121 17.0720942,30.3479121 21.9080942,30.3479121 Z"></path>
            </g>
        </g>
        <g id="Group" transform="translate(323.000000, 163.000000)" fill="#0C0C0C" fill-rule="nonzero">
            <g id="Combined-Shape">
                <path d="M7.82191441,30.1038961 C8.01991441,30.1038961 8.12991441,29.9938961 8.12991441,29.7958961 L8.12991441,23.5038961 C8.81191441,22.9758961 9.40591441,22.7558961 10.0439144,22.7558961 C11.2099144,22.7558961 11.7599144,23.4818961 11.7599144,24.9338961 L11.7599144,29.7958961 C11.7599144,29.9938961 11.8919144,30.1038961 12.0679144,30.1038961 L13.5859144,30.1038961 C13.7839144,30.1038961 13.8939144,29.9938961 13.8939144,29.7958961 L13.8939144,24.7138961 C13.8939144,24.3178961 13.8499144,23.9438961 13.8059144,23.6138961 C14.4219144,23.0638961 15.1039144,22.7558961 15.8079144,22.7558961 C16.9299144,22.7558961 17.5019144,23.4818961 17.5019144,24.9338961 L17.5019144,29.7958961 C17.5019144,29.9938961 17.6119144,30.1038961 17.8099144,30.1038961 L19.3279144,30.1038961 C19.5259144,30.1038961 19.6359144,29.9938961 19.6359144,29.7958961 L19.6359144,24.7138961 C19.6359144,22.1838961 18.2719144,20.8638961 16.2259144,20.8638961 C15.0599144,20.8638961 14.0259144,21.3038961 13.1899144,22.1398961 C12.6179144,21.3038961 11.6719144,20.8638961 10.5279144,20.8638961 C9.49391441,20.8638961 8.63591441,21.1938961 7.66791441,21.9198961 C7.42591441,21.3698961 6.96391441,21.0838961 6.21591441,21.0838961 L5.31391441,21.0838961 C5.11591441,21.0838961 5.00591441,21.1938961 5.00591441,21.3918961 L5.00591441,22.4918961 C5.00591441,22.6898961 5.11591441,22.7998961 5.31391441,22.7998961 L5.55591441,22.7998961 C5.92991441,22.7998961 5.97391441,22.9978961 5.97391441,23.5258961 L5.97391441,24.3838961 L5.99591441,24.3838961 L5.99591441,29.7958961 C5.99591441,29.9938961 6.08391441,30.1038961 6.30391441,30.1038961 L7.82191441,30.1038961 Z M24.7077561,34 C24.8877561,34 24.9877561,33.9 25.0477561,33.72 L29.9077561,22.24 C30.0277561,21.92 30.0877561,21.8 30.0877561,21.36 L30.0877561,20.26 C30.0877561,20.1 29.9877561,20 29.8277561,20 L21.4877561,20 C21.3277561,20 21.2277561,20.1 21.2277561,20.26 L21.2277561,21.48 C21.2277561,21.66 21.3277561,21.76 21.4877561,21.76 L27.1477561,21.76 L27.9277561,21.74 L27.5877561,22.5 L22.8677561,33.72 C22.7877561,33.9 22.8677561,34 23.0477561,34 L24.7077561,34 Z"></path>
            </g>
        </g>
        <g id="Group" transform="translate(240.000000, 163.000000)" fill="#0C0C0C" fill-rule="nonzero">
            <g id="Combined-Shape">
                <path d="M7.47557562,34 C7.65557562,34 7.75557562,33.9 7.81557562,33.72 L12.6755756,22.24 C12.7955756,21.92 12.8555756,21.8 12.8555756,21.36 L12.8555756,20.26 C12.8555756,20.1 12.7555756,20 12.5955756,20 L4.25557562,20 C4.09557562,20 3.99557562,20.1 3.99557562,20.26 L3.99557562,21.48 C3.99557562,21.66 4.09557562,21.76 4.25557562,21.76 L9.91557562,21.76 L10.6955756,21.74 L10.3555756,22.5 L5.63557562,33.72 C5.55557562,33.9 5.63557562,34 5.81557562,34 L7.47557562,34 Z"></path>
            </g>
        </g>
        <g id="Group" transform="translate(129.000000, 163.000000)" fill="#0C0C0C" fill-rule="nonzero">
            <g id="Combined-Shape">
                <path d="M17.5647988,30.2666987 L11.7444863,16.145605 L9.66440816,16.145605 L3.92222066,30.2666987 L17.5647988,30.2666987 Z M14.9964394,28.7041987 L6.40268941,28.7041987 L10.6409707,17.9522456 L14.9964394,28.7041987 Z M21.6266023,34.1876831 C21.8066023,34.1876831 21.9066023,34.0876831 21.9666023,33.9076831 L26.8266023,22.4276831 C26.9466023,22.1076831 27.0066023,21.9876831 27.0066023,21.5476831 L27.0066023,20.4476831 C27.0066023,20.2876831 26.9066023,20.1876831 26.7466023,20.1876831 L18.4066023,20.1876831 C18.2466023,20.1876831 18.1466023,20.2876831 18.1466023,20.4476831 L18.1466023,21.6676831 C18.1466023,21.8476831 18.2466023,21.9476831 18.4066023,21.9476831 L24.0666023,21.9476831 L24.8466023,21.9276831 L24.5066023,22.6876831 L19.7866023,33.9076831 C19.7066023,34.0876831 19.7866023,34.1876831 19.9666023,34.1876831 L21.6266023,34.1876831 Z"></path>
            </g>
        </g>
        <g id="Group" transform="translate(391.500000, 163.000000)" fill="#0C0C0C" fill-rule="nonzero">
            <g id="Combined-Shape">
                <path d="M21.9080942,30.3479121 C25.4180942,30.3479121 28.7200942,28.2939121 29.5520942,23.9519121 C29.5780942,23.6919121 29.4480942,23.5879121 29.2140942,23.5879121 L27.3160942,23.5879121 C27.0820942,23.5879121 26.9520942,23.6659121 26.8740942,23.9519121 C26.1980942,26.4219121 24.3780942,27.9299121 21.9600942,27.9299121 C18.7100942,27.9299121 16.4740942,25.1739121 16.4740942,20.9879121 C16.4740942,16.8019121 18.7100942,14.0459121 21.9600942,14.0459121 C24.3780942,14.0459121 26.1980942,15.5539121 26.8740942,18.0239121 C26.9520942,18.3099121 27.0820942,18.3879121 27.3160942,18.3879121 L29.2140942,18.3879121 C29.4480942,18.3879121 29.5780942,18.2839121 29.5520942,18.0239121 C28.7200942,13.6819121 25.4180942,11.6279121 21.9080942,11.6279121 C17.0720942,11.6279121 13.7440942,15.3719121 13.7440942,20.9879121 C13.7440942,26.6039121 17.0720942,30.3479121 21.9080942,30.3479121 Z"></path>
            </g>
        </g>
        <g id="Group" transform="translate(419.000000, 163.000000)" fill="#0C0C0C" fill-rule="nonzero">
            <g id="Combined-Shape">
                <path d="M8.13391441,30.1038961 C8.34991441,30.1038961 8.46991441,29.9838961 8.46991441,29.7678961 L8.46991441,22.9038961 C9.21391441,22.3278961 9.86191441,22.0878961 10.5579144,22.0878961 C11.8299144,22.0878961 12.4299144,22.8798961 12.4299144,24.4638961 L12.4299144,29.7678961 C12.4299144,29.9838961 12.5739144,30.1038961 12.7659144,30.1038961 L14.4219144,30.1038961 C14.6379144,30.1038961 14.7579144,29.9838961 14.7579144,29.7678961 L14.7579144,24.2238961 C14.7579144,23.7918961 14.7099144,23.3838961 14.6619144,23.0238961 C15.3339144,22.4238961 16.0779144,22.0878961 16.8459144,22.0878961 C18.0699144,22.0878961 18.6939144,22.8798961 18.6939144,24.4638961 L18.6939144,29.7678961 C18.6939144,29.9838961 18.8139144,30.1038961 19.0299144,30.1038961 L20.6859144,30.1038961 C20.9019144,30.1038961 21.0219144,29.9838961 21.0219144,29.7678961 L21.0219144,24.2238961 C21.0219144,21.4638961 19.5339144,20.0238961 17.3019144,20.0238961 C16.0299144,20.0238961 14.9019144,20.5038961 13.9899144,21.4158961 C13.3659144,20.5038961 12.3339144,20.0238961 11.0859144,20.0238961 C9.95791441,20.0238961 9.02191441,20.3838961 7.96591441,21.1758961 C7.70191441,20.5758961 7.19791441,20.2638961 6.38191441,20.2638961 L5.39791441,20.2638961 C5.18191441,20.2638961 5.06191441,20.3838961 5.06191441,20.5998961 L5.06191441,21.7998961 C5.06191441,22.0158961 5.18191441,22.1358961 5.39791441,22.1358961 L5.66191441,22.1358961 C6.06991441,22.1358961 6.11791441,22.3518961 6.11791441,22.9278961 L6.11791441,23.8638961 L6.14191441,23.8638961 L6.14191441,29.7678961 C6.14191441,29.9838961 6.23791441,30.1038961 6.47791441,30.1038961 L8.13391441,30.1038961 Z"></path>
            </g>
        </g>
        <g id="Group" transform="translate(438.000000, 163.000000)" fill="#0C0C0C" fill-rule="nonzero">
            <g id="Combined-Shape">
                <path d="M17.5647988,30.2666987 L11.7444863,16.145605 L9.66440816,16.145605 L3.92222066,30.2666987 L17.5647988,30.2666987 Z M14.9964394,28.7041987 L6.40268941,28.7041987 L10.6409707,17.9522456 L14.9964394,28.7041987 Z M21.6266023,34.1876831 C21.8066023,34.1876831 21.9066023,34.0876831 21.9666023,33.9076831 L26.8266023,22.4276831 C26.9466023,22.1076831 27.0066023,21.9876831 27.0066023,21.5476831 L27.0066023,20.4476831 C27.0066023,20.2876831 26.9066023,20.1876831 26.7466023,20.1876831 L18.4066023,20.1876831 C18.2466023,20.1876831 18.1466023,20.2876831 18.1466023,20.4476831 L18.1466023,21.6676831 C18.1466023,21.8476831 18.2466023,21.9476831 18.4066023,21.9476831 L24.0666023,21.9476831 L24.8466023,21.9276831 L24.5066023,22.6876831 L19.7866023,33.9076831 C19.7066023,34.0876831 19.7866023,34.1876831 19.9666023,34.1876831 L21.6266023,34.1876831 Z"></path>
            </g>
        </g>
        <path d="M430.586271,134.185068 C424.757334,137.368055 421.652344,143.128911 423.562711,147.46267 C425.600093,152.086745 432.603055,153.391419 439.192362,150.376327 C445.783386,147.361234 449.477105,141.159657 447.439724,136.53733 C445.402342,131.913255 438.39938,130.608581 431.810073,133.623673 C431.398134,133.812554 430.97418,133.971703 430.586271,134.185068 Z" id="Path" fill="#000000" transform="translate(435.500000, 142.000000) rotate(-180.000000) translate(-435.500000, -142.000000) "></path>
        <rect id="Rectangle" fill="#000000" x="415" y="142" width="40" height="1"></rect>
        <path d="M430.586271,94.1850683 C424.757334,97.3680549 421.652344,103.128911 423.562711,107.46267 C425.600093,112.086745 432.603055,113.391419 439.192362,110.376327 C445.783386,107.361234 449.477105,101.159657 447.439724,96.5373304 C445.402342,91.9132553 438.39938,90.6085806 431.810073,93.6236734 C431.398134,93.8125539 430.97418,93.9717032 430.586271,94.1850683 Z" id="Path" fill="#000000" transform="translate(435.500000, 102.000000) rotate(-180.000000) translate(-435.500000, -102.000000) "></path>
        <path d="M430.586271,75.1850683 C424.757334,78.3680549 421.652344,84.1289109 423.562711,88.4626696 C425.600093,93.0867447 432.603055,94.3914194 439.192362,91.3763266 C445.783386,88.3612338 449.477105,82.1596566 447.439724,77.5373304 C445.402342,72.9132553 438.39938,71.6085806 431.810073,74.6236734 C431.398134,74.8125539 430.97418,74.9717032 430.586271,75.1850683 Z" id="Path" fill="#000000" transform="translate(435.500000, 83.000000) rotate(-180.000000) translate(-435.500000, -83.000000) "></path>
    </g>
</svg>