<?xml version="1.0" encoding="UTF-8" standalone="no"?><!DOCTYPE svg PUBLIC "-//W3C//DTD SVG 1.1//EN" "http://www.w3.org/Graphics/SVG/1.1/DTD/svg11.dtd"><svg width="638.0px" height="290.0px" viewBox="0 0 638 290" version="1.1" xmlns="http://www.w3.org/2000/svg" xmlns:xlink="http://www.w3.org/1999/xlink" xml:space="preserve" xmlns:serif="http://www.serif.com/" style="fill-rule:evenodd;clip-rule:evenodd;"><g id="c2-no-otomo-domi7"><g id="Group"><path id="horizon" d="M20,57l595,0" style="fill:none;stroke:#000;stroke-width:1px;"/><path id="horizon1" serif:id="horizon" d="M20,77l595,0" style="fill:none;stroke:#000;stroke-width:1px;"/><path id="horizon2" serif:id="horizon" d="M20,97l595,0" style="fill:none;stroke:#000;stroke-width:1px;"/><path id="horizon3" serif:id="horizon" d="M20,117l595,0" style="fill:none;stroke:#000;stroke-width:1px;"/><path id="horizon4" serif:id="horizon" d="M20,137l595,0" style="fill:none;stroke:#000;stroke-width:1px;"/><path id="bar" d="M19.233,58l-0.017,78" style="fill:none;stroke:#000;stroke-width:2.72px;stroke-linecap:round;stroke-linejoin:round;"/><path id="bar1" serif:id="bar" d="M615,57l0,80" style="fill:none;stroke:#000;stroke-width:1px;stroke-linecap:square;"/></g><path id="G-Clef" d="M47.162,156.963c-0.896,-0.067 -1.758,-0.212 -2.572,-0.434c-4.215,-1.144 -7.135,-4.322 -7.815,-8.51c-0.2,-1.227 -0.133,-3.147 0.148,-4.243c0.214,-0.839 0.733,-2.038 1.151,-2.663c0.705,-1.051 1.91,-2.046 3.112,-2.564c0.988,-0.428 1.52,-0.541 2.766,-0.585c0.988,-0.037 1.232,-0.021 1.803,0.127c2.488,0.639 4.503,2.772 5.377,5.693c0.197,0.66 0.215,0.827 0.219,2.125c0.003,1.232 -0.018,1.489 -0.173,2.037c-0.344,1.217 -0.932,2.198 -1.871,3.115c-1.375,1.348 -2.986,2.157 -5.161,2.597l-0.933,0.19l0.662,0.288c3.535,1.554 7.448,1.404 11.096,-0.419c3.193,-1.594 5.662,-4.479 6.511,-7.607c0.206,-0.756 0.218,-0.895 0.212,-2.334l-0.006,-1.529l-1.192,-5.916c-0.655,-3.254 -1.209,-5.976 -1.23,-6.05c-0.036,-0.115 -0.118,-0.099 -0.684,0.137c-3.656,1.527 -9.188,1.507 -14.237,-0.05c-6.917,-2.133 -12.563,-6.814 -15.506,-12.854c-0.918,-1.887 -1.454,-3.69 -1.751,-5.895c-0.133,-0.993 -0.112,-3.622 0.041,-4.871c0.82,-6.682 4.269,-13.382 10.772,-20.928c2.024,-2.348 6.454,-6.742 9.422,-9.347c0.79,-0.692 0.823,-0.736 0.762,-0.96c-0.137,-0.519 -0.614,-3.035 -0.762,-4.021c-0.683,-4.598 -0.682,-9.937 0.004,-14.609c1.077,-7.34 3.601,-13.508 7.275,-17.769c0.67,-0.778 2.088,-2.114 2.243,-2.114c0.05,-0 0.48,0.589 0.953,1.309c4.397,6.662 6.723,12.596 7.359,18.761c0.158,1.542 0.114,5.159 -0.082,6.57c-0.644,4.656 -2.147,8.697 -4.725,12.7c-1.685,2.621 -4.224,5.599 -6.815,7.999c-0.591,0.549 -1.214,1.126 -1.383,1.284l-0.306,0.286l1.357,6.676l1.356,6.678l0.672,-0.052c1.889,-0.152 3.885,-0.041 5.312,0.292c1.899,0.446 4.037,1.463 5.636,2.68c0.892,0.68 2.377,2.199 3.004,3.074c1.499,2.09 2.477,4.582 2.75,7.001c0.136,1.197 0.055,3.525 -0.153,4.493c-0.823,3.832 -3.259,7.435 -6.97,10.306c-0.918,0.71 -2.256,1.567 -3.228,2.07c-0.658,0.341 -0.715,0.387 -0.672,0.565c0.083,0.337 1.138,5.465 1.532,7.444c0.207,1.039 0.525,2.76 0.708,3.824c0.322,1.872 0.332,1.969 0.288,3.179c-0.078,2.3 -0.656,4.098 -1.96,6.117c-2.485,3.844 -6.937,6.295 -12.129,6.677c-1.097,0.08 -1.45,0.086 -2.187,0.03Zm6.583,-27.078c0.977,-0.115 2.214,-0.381 3.016,-0.651c0.982,-0.329 2.167,-0.914 2.12,-1.047c-0.022,-0.059 -1.026,-4.955 -2.232,-10.883c-1.206,-5.927 -2.212,-10.796 -2.236,-10.82c-0.023,-0.024 -0.424,0.032 -0.89,0.127c-3.416,0.692 -6.219,2.651 -7.447,5.205c-0.387,0.805 -0.535,1.332 -0.635,2.252c-0.212,1.955 0.417,4.102 1.703,5.804c0.749,0.993 1.89,2.054 2.937,2.734c0.401,0.26 0.478,0.388 0.197,0.327c-0.098,-0.02 -0.442,-0.095 -0.764,-0.163c-2.533,-0.547 -4.982,-1.98 -6.371,-3.723c-1.22,-1.533 -1.839,-3.127 -2.016,-5.199c-0.226,-2.641 0.466,-5.187 2.084,-7.683c1.045,-1.612 2.849,-3.367 4.656,-4.529c1.309,-0.843 3.293,-1.703 4.645,-2.014c0.247,-0.056 0.449,-0.129 0.449,-0.159c0,-0.087 -2.504,-12.339 -2.546,-12.456c-0.061,-0.172 -3.455,2.612 -5.742,4.707c-1.261,1.156 -3.945,3.95 -4.919,5.122c-2.941,3.537 -4.841,6.719 -5.904,9.88c-1.068,3.188 -1.334,6.256 -0.788,9.16c0.664,3.53 2.941,7.224 5.986,9.712c4.136,3.377 9.403,4.917 14.697,4.297Zm7.76,-3.357c2.819,-2.421 4.487,-5.175 4.98,-8.215c0.166,-1.019 0.122,-3.168 -0.08,-4.118c-0.825,-3.849 -3.344,-6.821 -6.664,-7.862c-0.654,-0.206 -0.805,-0.222 -2.094,-0.224c-0.817,-0 -1.417,0.03 -1.458,0.078c-0.041,0.047 0.802,4.276 2.112,10.584c1.199,5.777 2.181,10.514 2.183,10.528c0.008,0.064 0.351,-0.196 1.021,-0.771Zm-9.221,-54.512c5.675,-5.681 9.029,-11.213 9.728,-16.053c0.157,-1.09 0.155,-2.867 -0.006,-3.836c-0.322,-1.932 -1.11,-3.629 -2.45,-5.265c-0.532,-0.65 -0.612,-0.684 -1.618,-0.682c-1.108,0.002 -2.116,0.528 -3.161,1.65c-1.733,1.854 -3.181,4.885 -4.248,8.877c-1.483,5.559 -1.939,12.511 -1.125,17.22l0.127,0.744l0.794,-0.744c0.436,-0.41 1.316,-1.269 1.959,-1.911Z"/><path id="Path" d="M454.414,94.815c5.829,-3.183 8.934,-8.944 7.023,-13.278c-2.037,-4.624 -9.04,-5.928 -15.629,-2.913c-6.591,3.015 -10.285,9.216 -8.248,13.839c2.038,4.624 9.041,5.928 15.63,2.913c0.412,-0.189 0.836,-0.348 1.224,-0.561Z"/><g id="Group1" serif:id="Group"><g id="flat"><path d="M97.733,73.247l0,16.4c1.999,-1.977 4.243,-2.989 6.731,-3.038c1.555,0 2.888,0.7 3.999,2.098c0.977,1.302 1.488,2.748 1.533,4.34c0.044,1.253 -0.245,2.699 -0.867,4.339c-0.222,0.675 -0.711,1.398 -1.466,2.169c-0.578,0.579 -1.177,1.182 -1.8,1.809c-3.287,2.603 -6.575,5.231 -9.863,7.883l0,-36l1.733,-0Zm5.398,17.991c-0.533,-0.675 -1.221,-1.012 -2.066,-1.012c-1.066,-0 -1.932,0.65 -2.599,1.952c-0.489,1.013 -0.733,3.4 -0.733,7.16l0,6.22c0.044,0.193 1.289,-0.988 3.732,-3.544c1.333,-1.349 2.2,-2.941 2.599,-4.773c0.178,-0.723 0.267,-1.446 0.267,-2.17c-0,-1.591 -0.4,-2.868 -1.2,-3.833" style="fill:#0c0c0c;fill-rule:nonzero;"/></g></g><path id="Path1" serif:id="Path" d="M454.414,114.815c5.829,-3.183 8.934,-8.944 7.023,-13.278c-2.037,-4.624 -9.04,-5.928 -15.629,-2.913c-6.591,3.015 -10.285,9.216 -8.248,13.839c2.038,4.624 9.041,5.928 15.63,2.913c0.412,-0.189 0.836,-0.348 1.224,-0.561Z"/><path id="Path2" serif:id="Path" d="M454.414,74.815c5.829,-3.183 8.934,-8.944 7.023,-13.278c-2.037,-4.624 -9.04,-5.928 -15.629,-2.913c-6.591,3.015 -10.285,9.216 -8.248,13.839c2.038,4.624 9.041,5.928 15.63,2.913c0.412,-0.189 0.836,-0.348 1.224,-0.561Z"/><path id="Path3" serif:id="Path" d="M454.414,54.815c5.829,-3.183 8.934,-8.944 7.023,-13.278c-2.037,-4.624 -9.04,-5.928 -15.629,-2.913c-6.591,3.015 -10.285,9.216 -8.248,13.839c2.038,4.624 9.041,5.928 15.63,2.913c0.412,-0.189 0.836,-0.348 1.224,-0.561Z"/><g id="Group2" serif:id="Group"><g id="Combined-Shape"><path d="M463.476,209c0.18,0 0.28,-0.1 0.34,-0.28l4.86,-11.48c0.12,-0.32 0.18,-0.44 0.18,-0.88l-0,-1.1c-0,-0.16 -0.1,-0.26 -0.26,-0.26l-8.34,-0c-0.16,-0 -0.26,0.1 -0.26,0.26l-0,1.22c-0,0.18 0.1,0.28 0.26,0.28l5.66,-0l0.78,-0.02l-0.34,0.76l-4.72,11.22c-0.08,0.18 -0,0.28 0.18,0.28l1.66,0Z" style="fill:#0c0c0c;fill-rule:nonzero;"/></g></g><g id="二次ドミナント"><text x="311px" y="268px" style="font-family:'NotoSansSC-Bold', 'Noto Sans SC', sans-serif;font-weight:700;font-size:16px;">重属和弦</text></g><g id="Group3" serif:id="Group"><g id="CN-Root"><path id="Combined-Shape1" serif:id="Combined-Shape" d="M225.232,205.088l-0,-1.82l-1.898,-0l-0,-13.884l1.898,-0l-0,-1.82l-6.474,-0l-0,1.82l1.898,-0l-0,13.884l-1.898,-0l-0,1.82l6.474,-0Zm7.021,-0l-0,-1.82l-1.898,-0l-0,-13.884l1.898,-0l-0,-1.82l-6.474,-0l-0,1.82l1.898,-0l-0,13.884l-1.898,-0l-0,1.82l6.474,-0Z" style="fill:#0c0c0c;fill-rule:nonzero;"/></g></g><g id="Group4" serif:id="Group"><g id="CN-Root1" serif:id="CN-Root"><path id="Combined-Shape2" serif:id="Combined-Shape" d="M123.742,205.088l0,-1.82l-1.898,-0l0,-13.884l1.898,-0l0,-1.82l-6.474,-0l0,1.82l1.898,-0l0,13.884l-1.898,-0l0,1.82l6.474,-0Z" style="fill:#0c0c0c;fill-rule:nonzero;"/></g></g><g id="Group5" serif:id="Group"><g id="CN-Root2" serif:id="CN-Root"><path id="Combined-Shape3" serif:id="Combined-Shape" d="M329.721,205.088l0,-1.82l-1.898,-0l0,-13.884l1.898,-0l0,-1.82l-6.474,-0l0,1.82l1.898,-0l0,13.884l-1.898,-0l0,1.82l6.474,-0Zm7.021,-0l0,-1.82l-1.898,-0l0,-13.884l1.898,-0l0,-1.82l-6.474,-0l0,1.82l1.898,-0l0,13.884l-1.898,-0l0,1.82l6.474,-0Zm7.021,-0l-0,-1.82l-1.898,-0l-0,-13.884l1.898,-0l-0,-1.82l-6.474,-0l-0,1.82l1.898,-0l-0,13.884l-1.898,-0l-0,1.82l6.474,-0Z" style="fill:#0c0c0c;fill-rule:nonzero;"/></g></g><g id="Group6" serif:id="Group"><g id="CN-Root3" serif:id="CN-Root"><path id="Combined-Shape4" serif:id="Combined-Shape" d="M443.633,205.088l5.72,-15.704l1.482,-0l-0,-1.82l-6.63,-0l-0,1.82l2.574,-0l-4.394,12.298l-0.234,1.066l-0.156,-0l-0.234,-1.066l-4.316,-12.298l2.574,-0l-0,-1.82l-6.864,-0l-0,1.82l1.456,-0l5.59,15.704l3.432,-0Zm13.573,-0l-0,-1.82l-1.898,-0l-0,-13.884l1.898,-0l-0,-1.82l-6.474,-0l-0,1.82l1.898,-0l-0,13.884l-1.898,-0l-0,1.82l6.474,-0Z" style="fill:#0c0c0c;fill-rule:nonzero;"/></g></g><g id="Group7" serif:id="Group"><g id="Combined-Shape5" serif:id="Combined-Shape"><path d="M131.476,209c0.18,0 0.28,-0.1 0.34,-0.28l4.86,-11.48c0.12,-0.32 0.18,-0.44 0.18,-0.88l-0,-1.1c-0,-0.16 -0.1,-0.26 -0.26,-0.26l-8.34,-0c-0.16,-0 -0.26,0.1 -0.26,0.26l-0,1.22c-0,0.18 0.1,0.28 0.26,0.28l5.66,-0l0.78,-0.02l-0.34,0.76l-4.72,11.22c-0.08,0.18 -0,0.28 0.18,0.28l1.66,0Z" style="fill:#0c0c0c;fill-rule:nonzero;"/></g></g><g id="Group8" serif:id="Group"><g id="Combined-Shape6" serif:id="Combined-Shape"><path d="M237.476,209c0.18,0 0.28,-0.1 0.34,-0.28l4.86,-11.48c0.12,-0.32 0.18,-0.44 0.18,-0.88l-0,-1.1c-0,-0.16 -0.1,-0.26 -0.26,-0.26l-8.34,-0c-0.16,-0 -0.26,0.1 -0.26,0.26l-0,1.22c-0,0.18 0.1,0.28 0.26,0.28l5.66,-0l0.78,-0.02l-0.34,0.76l-4.72,11.22c-0.08,0.18 -0,0.28 0.18,0.28l1.66,0Z" style="fill:#0c0c0c;fill-rule:nonzero;"/></g></g><g id="Group9" serif:id="Group"><g id="Combined-Shape7" serif:id="Combined-Shape"><path d="M349.476,209c0.18,0 0.28,-0.1 0.34,-0.28l4.86,-11.48c0.12,-0.32 0.18,-0.44 0.18,-0.88l-0,-1.1c-0,-0.16 -0.1,-0.26 -0.26,-0.26l-8.34,-0c-0.16,-0 -0.26,0.1 -0.26,0.26l-0,1.22c-0,0.18 0.1,0.28 0.26,0.28l5.66,-0l0.78,-0.02l-0.34,0.76l-4.72,11.22c-0.08,0.18 -0,0.28 0.18,0.28l1.66,0Z" style="fill:#0c0c0c;fill-rule:nonzero;"/></g></g><path id="Path4" serif:id="Path" d="M127.414,144.815c5.829,-3.183 8.934,-8.944 7.023,-13.278c-2.037,-4.624 -9.04,-5.928 -15.629,-2.913c-6.591,3.015 -10.285,9.216 -8.248,13.839c2.038,4.624 9.041,5.928 15.63,2.913c0.412,-0.189 0.836,-0.348 1.224,-0.561Z"/><g id="Group10" serif:id="Group"><g id="Rectangle"><rect x="101.5" y="155" width="45" height="2" style="fill:#0c0c0c;"/></g></g><path id="Path5" serif:id="Path" d="M127.414,164.815c5.829,-3.183 8.934,-8.944 7.023,-13.278c-2.037,-4.624 -9.04,-5.928 -15.629,-2.913c-6.591,3.015 -10.285,9.216 -8.248,13.839c2.038,4.624 9.041,5.928 15.63,2.913c0.412,-0.189 0.836,-0.348 1.224,-0.561Z"/><path id="Path6" serif:id="Path" d="M127.414,124.815c5.829,-3.183 8.934,-8.944 7.023,-13.278c-2.037,-4.624 -9.04,-5.928 -15.629,-2.913c-6.591,3.015 -10.285,9.216 -8.248,13.839c2.038,4.624 9.041,5.928 15.63,2.913c0.412,-0.189 0.836,-0.348 1.224,-0.561Z"/><path id="Path7" serif:id="Path" d="M127.414,104.815c5.829,-3.183 8.934,-8.944 7.023,-13.278c-2.037,-4.624 -9.04,-5.928 -15.629,-2.913c-6.591,3.015 -10.285,9.216 -8.248,13.839c2.038,4.624 9.041,5.928 15.63,2.913c0.412,-0.189 0.836,-0.348 1.224,-0.561Z"/><path id="Path8" serif:id="Path" d="M232.414,134.815c5.829,-3.183 8.934,-8.944 7.023,-13.278c-2.037,-4.624 -9.04,-5.928 -15.629,-2.913c-6.591,3.015 -10.285,9.216 -8.248,13.839c2.038,4.624 9.041,5.928 15.63,2.913c0.412,-0.189 0.836,-0.348 1.224,-0.561Z"/><path id="Path9" serif:id="Path" d="M232.414,154.815c5.829,-3.183 8.934,-8.944 7.023,-13.278c-2.037,-4.624 -9.04,-5.928 -15.629,-2.913c-6.591,3.015 -10.285,9.216 -8.248,13.839c2.038,4.624 9.041,5.928 15.63,2.913c0.412,-0.189 0.836,-0.348 1.224,-0.561Z"/><path id="Path10" serif:id="Path" d="M232.414,114.815c5.829,-3.183 8.934,-8.944 7.023,-13.278c-2.037,-4.624 -9.04,-5.928 -15.629,-2.913c-6.591,3.015 -10.285,9.216 -8.248,13.839c2.038,4.624 9.041,5.928 15.63,2.913c0.412,-0.189 0.836,-0.348 1.224,-0.561Z"/><path id="Path11" serif:id="Path" d="M232.414,94.815c5.829,-3.183 8.934,-8.944 7.023,-13.278c-2.037,-4.624 -9.04,-5.928 -15.629,-2.913c-6.591,3.015 -10.285,9.216 -8.248,13.839c2.038,4.624 9.041,5.928 15.63,2.913c0.412,-0.189 0.836,-0.348 1.224,-0.561Z"/><path id="Path12" serif:id="Path" d="M345.414,124.815c5.829,-3.183 8.934,-8.944 7.023,-13.278c-2.037,-4.624 -9.04,-5.928 -15.629,-2.913c-6.591,3.015 -10.285,9.216 -8.248,13.839c2.038,4.624 9.041,5.928 15.63,2.913c0.412,-0.189 0.836,-0.348 1.224,-0.561Z"/><path id="Path13" serif:id="Path" d="M345.414,144.815c5.829,-3.183 8.934,-8.944 7.023,-13.278c-2.037,-4.624 -9.04,-5.928 -15.629,-2.913c-6.591,3.015 -10.285,9.216 -8.248,13.839c2.038,4.624 9.041,5.928 15.63,2.913c0.412,-0.189 0.836,-0.348 1.224,-0.561Z"/><path id="Path14" serif:id="Path" d="M345.414,104.815c5.829,-3.183 8.934,-8.944 7.023,-13.278c-2.037,-4.624 -9.04,-5.928 -15.629,-2.913c-6.591,3.015 -10.285,9.216 -8.248,13.839c2.038,4.624 9.041,5.928 15.63,2.913c0.412,-0.189 0.836,-0.348 1.224,-0.561Z"/><path id="Path15" serif:id="Path" d="M345.414,84.815c5.829,-3.183 8.934,-8.944 7.023,-13.278c-2.037,-4.624 -9.04,-5.928 -15.629,-2.913c-6.591,3.015 -10.285,9.216 -8.248,13.839c2.038,4.624 9.041,5.928 15.63,2.913c0.412,-0.189 0.836,-0.348 1.224,-0.561Z"/><g id="Group11" serif:id="Group"><g id="sharp"><path d="M320.914,122.588l-0,-9.906l4.107,-1.163l-0,9.856l-4.107,1.213Zm8.086,-2.396l-2.823,0.829l-0,-9.856l2.823,-0.809l0,-4.094l-2.823,0.809l-0,-10.071l-1.156,0l-0,10.376l-4.107,1.211l-0,-9.793l-1.091,0l0,10.166l-2.823,0.811l0,4.103l2.823,-0.809l0,9.837l-2.823,0.807l0,4.086l2.823,-0.809l0,10.014l1.091,0l-0,-10.372l4.107,-1.159l-0,9.743l1.156,-0l-0,-10.109l2.823,-0.811l0,-4.1Z" style="fill:#0c0c0c;fill-rule:nonzero;"/></g></g><g id="Group12" serif:id="Group"><g id="sharp1" serif:id="sharp"><path d="M206.914,132.588l-0,-9.906l4.107,-1.163l-0,9.856l-4.107,1.213Zm8.086,-2.396l-2.823,0.829l-0,-9.856l2.823,-0.809l-0,-4.094l-2.823,0.809l-0,-10.071l-1.156,-0l-0,10.376l-4.107,1.211l-0,-9.793l-1.091,0l0,10.166l-2.823,0.811l0,4.103l2.823,-0.809l0,9.837l-2.823,0.807l0,4.086l2.823,-0.809l0,10.014l1.091,-0l-0,-10.372l4.107,-1.159l-0,9.743l1.156,-0l-0,-10.109l2.823,-0.811l-0,-4.1Z" style="fill:#0c0c0c;fill-rule:nonzero;"/></g></g><g id="Group13" serif:id="Group"><g id="sharp2" serif:id="sharp"><path d="M426.914,92.588l-0,-9.906l4.107,-1.163l-0,9.856l-4.107,1.213Zm8.086,-2.396l-2.823,0.829l-0,-9.856l2.823,-0.809l0,-4.094l-2.823,0.809l-0,-10.071l-1.156,0l-0,10.376l-4.107,1.211l-0,-9.793l-1.091,0l0,10.166l-2.823,0.811l0,4.103l2.823,-0.809l0,9.837l-2.823,0.807l0,4.086l2.823,-0.809l0,10.014l1.091,0l-0,-10.372l4.107,-1.159l-0,9.743l1.156,-0l-0,-10.109l2.823,-0.811l0,-4.1Z" style="fill:#0c0c0c;fill-rule:nonzero;"/></g></g><g id="_-" serif:id="{"><path id="path-1" d="M577.288,226.048l-1.728,-0l0,3.096c0,4.176 -1.224,6.768 -6.696,6.768l-220.592,-0c-3.744,-0 -5.904,1.584 -6.12,5.04l-0.072,-0c-0.216,-3.456 -2.376,-5.04 -6.12,-5.04l-210.664,0c-5.472,0 -6.624,-2.592 -6.624,-6.768l-0,-3.096l-1.728,0l-0,3.312c-0,5.544 1.872,8.568 8.568,8.568l210.232,-0c3.24,-0 5.328,1.296 5.472,5.904l1.8,-0c0.144,-4.608 2.232,-5.904 5.472,-5.904l220.232,-0c6.624,-0 8.568,-3.024 8.568,-8.568l0,-3.312Z" style="fill:#c7c9cc;fill-rule:nonzero;"/><path id="path-11" serif:id="path-1" d="M577.288,226.048l-1.728,-0l0,3.096c0,4.176 -1.224,6.768 -6.696,6.768l-220.592,-0c-3.744,-0 -5.904,1.584 -6.12,5.04l-0.072,-0c-0.216,-3.456 -2.376,-5.04 -6.12,-5.04l-210.664,0c-5.472,0 -6.624,-2.592 -6.624,-6.768l-0,-3.096l-1.728,0l-0,3.312c-0,5.544 1.872,8.568 8.568,8.568l210.232,-0c3.24,-0 5.328,1.296 5.472,5.904l1.8,-0c0.144,-4.608 2.232,-5.904 5.472,-5.904l220.232,-0c6.624,-0 8.568,-3.024 8.568,-8.568l0,-3.312Z" style="fill-rule:nonzero;"/></g><path id="Path16" serif:id="Path" d="M570.414,84.815c5.829,-3.183 8.934,-8.944 7.023,-13.278c-2.037,-4.624 -9.04,-5.928 -15.629,-2.913c-6.591,3.015 -10.285,9.216 -8.248,13.839c2.038,4.624 9.041,5.928 15.63,2.913c0.412,-0.189 0.836,-0.348 1.224,-0.561Z"/><path id="Path17" serif:id="Path" d="M570.414,104.815c5.829,-3.183 8.934,-8.944 7.023,-13.278c-2.037,-4.624 -9.04,-5.928 -15.629,-2.913c-6.591,3.015 -10.285,9.216 -8.248,13.839c2.038,4.624 9.041,5.928 15.63,2.913c0.412,-0.189 0.836,-0.348 1.224,-0.561Z"/><path id="Path18" serif:id="Path" d="M570.414,64.815c5.829,-3.183 8.934,-8.944 7.023,-13.278c-2.037,-4.624 -9.04,-5.928 -15.629,-2.913c-6.591,3.015 -10.285,9.216 -8.248,13.839c2.038,4.624 9.041,5.928 15.63,2.913c0.412,-0.189 0.836,-0.348 1.224,-0.561Z"/><path id="Path19" serif:id="Path" d="M570.414,44.815c5.829,-3.183 8.934,-8.944 7.023,-13.278c-2.037,-4.624 -9.04,-5.928 -15.629,-2.913c-6.591,3.015 -10.285,9.216 -8.248,13.839c2.038,4.624 9.041,5.928 15.63,2.913c0.412,-0.189 0.836,-0.348 1.224,-0.561Z"/><g id="Group14" serif:id="Group"><g id="Combined-Shape8" serif:id="Combined-Shape"><path d="M580.476,209c0.18,0 0.28,-0.1 0.34,-0.28l4.86,-11.48c0.12,-0.32 0.18,-0.44 0.18,-0.88l-0,-1.1c-0,-0.16 -0.1,-0.26 -0.26,-0.26l-8.34,-0c-0.16,-0 -0.26,0.1 -0.26,0.26l-0,1.22c-0,0.18 0.1,0.28 0.26,0.28l5.66,-0l0.78,-0.02l-0.34,0.76l-4.72,11.22c-0.08,0.18 -0,0.28 0.18,0.28l1.66,0Z" style="fill:#0c0c0c;fill-rule:nonzero;"/></g></g><g id="Group15" serif:id="Group"><g id="CN-Root4" serif:id="CN-Root"><path id="Combined-Shape9" serif:id="Combined-Shape" d="M554.122,205.088l5.72,-15.704l1.482,-0l0,-1.82l-6.63,-0l0,1.82l2.574,-0l-4.394,12.298l-0.234,1.066l-0.156,-0l-0.234,-1.066l-4.316,-12.298l2.574,-0l0,-1.82l-6.864,-0l0,1.82l1.456,-0l5.59,15.704l3.432,-0Zm13.573,-0l0,-1.82l-1.898,-0l0,-13.884l1.898,-0l0,-1.82l-6.474,-0l0,1.82l1.898,-0l0,13.884l-1.898,-0l0,1.82l6.474,-0Zm7.021,-0l-0,-1.82l-1.898,-0l-0,-13.884l1.898,-0l-0,-1.82l-6.474,-0l-0,1.82l1.898,-0l-0,13.884l-1.898,-0l-0,1.82l6.474,-0Z" style="fill:#0c0c0c;fill-rule:nonzero;"/></g></g><g id="Group16" serif:id="Group"><g id="Rectangle1" serif:id="Rectangle"><rect x="544.5" y="35" width="45" height="2" style="fill:#0c0c0c;"/></g></g><g id="Group17" serif:id="Group"><g id="sharp3" serif:id="sharp"><path d="M543.914,83.588l-0,-9.906l4.107,-1.163l-0,9.856l-4.107,1.213Zm8.086,-2.396l-2.823,0.829l-0,-9.856l2.823,-0.809l0,-4.094l-2.823,0.809l-0,-10.071l-1.156,0l-0,10.376l-4.107,1.211l-0,-9.793l-1.091,0l0,10.166l-2.823,0.811l-0,4.103l2.823,-0.809l0,9.837l-2.823,0.807l-0,4.086l2.823,-0.809l0,10.014l1.091,-0l-0,-10.372l4.107,-1.159l-0,9.743l1.156,-0l-0,-10.109l2.823,-0.811l0,-4.1Z" style="fill:#0c0c0c;fill-rule:nonzero;"/></g></g><g id="Group18" serif:id="Group"><g id="sharp4" serif:id="sharp"><path d="M533.914,62.588l-0,-9.906l4.107,-1.163l-0,9.856l-4.107,1.213Zm8.086,-2.396l-2.823,0.829l-0,-9.856l2.823,-0.809l0,-4.094l-2.823,0.809l-0,-10.071l-1.156,-0l-0,10.376l-4.107,1.211l-0,-9.793l-1.091,0l0,10.166l-2.823,0.811l-0,4.103l2.823,-0.809l0,9.837l-2.823,0.807l-0,4.086l2.823,-0.809l0,10.014l1.091,-0l-0,-10.372l4.107,-1.159l-0,9.743l1.156,-0l-0,-10.109l2.823,-0.811l0,-4.1Z" style="fill:#0c0c0c;fill-rule:nonzero;"/></g></g><path id="Path-16" d="M172,57l0,79" style="fill:none;fill-rule:nonzero;stroke:#000;stroke-width:1px;stroke-linecap:square;"/><path id="Path-161" serif:id="Path-16" d="M283,57l0,79" style="fill:none;fill-rule:nonzero;stroke:#000;stroke-width:1px;stroke-linecap:square;"/><path id="Path-162" serif:id="Path-16" d="M394,57l0,79" style="fill:none;fill-rule:nonzero;stroke:#000;stroke-width:1px;stroke-linecap:square;"/><path id="Path-163" serif:id="Path-16" d="M505,57l0,79" style="fill:none;fill-rule:nonzero;stroke:#000;stroke-width:1px;stroke-linecap:square;"/></g></svg>