<?xml version="1.0" encoding="UTF-8"?>
<svg width="730px" height="230px" viewBox="0 0 730 230" version="1.1" xmlns="http://www.w3.org/2000/svg" xmlns:xlink="http://www.w3.org/1999/xlink">
    <title>c2-parallel-minor-all</title>
    <g id="c2-parallel-minor-all" stroke="none" stroke-width="1" fill="none" fill-rule="evenodd">
        <g id="Group" transform="translate(18.000000, 56.000000)" stroke="#000000">
            <line x1="2" y1="1" x2="696" y2="1" id="horizon"></line>
            <line x1="2" y1="21" x2="696" y2="21" id="horizon"></line>
            <line x1="2" y1="41" x2="696" y2="41" id="horizon"></line>
            <line x1="2" y1="61" x2="696" y2="61" id="horizon"></line>
            <line x1="2" y1="81" x2="696" y2="81" id="horizon"></line>
            <line x1="-37.5714286" y1="40.9905588" x2="40.4285714" y2="41.0094412" id="bar" stroke-width="2.72167481" stroke-linecap="round" stroke-linejoin="round" transform="translate(1.428571, 41.000000) rotate(90.000000) translate(-1.428571, -41.000000) "></line>
            <line x1="696.5" y1="1" x2="696.5" y2="81" id="bar" stroke-linecap="square"></line>
        </g>
        <path d="M47.1620791,156.96278 C46.2662404,156.896201 45.4037992,156.750938 44.5904719,156.529009 C40.3745292,155.385065 37.4551952,152.207444 36.7754579,148.019036 C36.575073,146.792373 36.641868,144.871677 36.9227998,143.776154 C37.1369367,142.936859 37.6555802,141.738442 38.0740312,141.113005 C38.7793077,140.061868 39.9835821,139.067222 41.1858919,138.548715 C42.1740649,138.120997 42.7064603,138.008015 43.9519904,137.963629 C44.9401634,137.927313 45.1837686,137.943454 45.7554552,138.090734 C48.2425863,138.730293 50.2582234,140.86283 51.132452,143.784225 C51.3289078,144.443959 51.3465889,144.611415 51.350518,145.908692 C51.3544471,147.141407 51.3328369,147.397634 51.1776368,147.946404 C50.8338391,149.16298 50.2464361,150.143503 49.3073771,151.061482 C47.9321861,152.409197 46.321248,153.21823 44.1464817,153.658053 L43.2133164,153.847702 L43.8753726,154.13621 C47.4096135,155.689713 51.3230142,155.540416 54.9711994,153.716562 C58.1636071,152.122707 60.6330572,149.237628 61.4817465,146.110445 C61.6880252,145.353869 61.6998125,145.214659 61.6939188,143.776154 L61.6880252,142.246861 L60.4955381,136.331441 C59.8413401,133.077153 59.2873346,130.355495 59.2657245,130.280846 C59.2303624,130.165847 59.1478509,130.181987 58.5820581,130.418039 C54.9260146,131.945315 49.3938176,131.925139 44.3449021,130.3676 C37.4276914,128.235063 31.7815501,123.554376 28.8386413,117.513869 C27.9211925,115.627471 27.384868,113.823793 27.0882196,111.618624 C26.9546296,110.625996 26.9762398,107.997145 27.1294754,106.748289 C27.9486963,100.066205 31.3984611,93.3659626 37.90115,85.8203724 C39.9246453,83.4719587 44.3547249,79.077762 47.3231729,76.4731211 C48.1129254,75.7811058 48.1463229,75.7367199 48.0854216,75.5127733 C47.9479025,74.9942661 47.4705148,72.4783969 47.3231729,71.491821 C46.6395065,66.8938531 46.6414711,61.5554489 47.327102,56.882832 C48.4036801,49.5430306 50.9281379,43.3754185 54.6018624,39.1143793 C55.2717769,38.3356098 56.6901882,37 56.8453883,37 C56.8945023,37 57.3247406,37.5891209 57.7981992,38.3093818 C62.1948813,44.9712907 64.5209186,50.9048684 65.1574356,57.070463 C65.3146003,58.6118617 65.27138,62.2293064 65.0749241,63.6395651 C64.4305489,68.2960417 62.9276616,72.3371693 60.3501608,76.3399637 C58.6645695,78.9607449 56.1263599,81.9386302 53.5351071,84.3394998 C52.943775,84.88827 52.3210099,85.4652858 52.1520579,85.6226537 L51.8455867,85.909144 L53.2030967,92.5851756 L54.5586421,99.2632247 L55.2305211,99.2107687 C57.1204265,99.0594534 59.116418,99.170418 60.5426875,99.5033117 C62.4424157,99.9491874 64.5798554,100.966026 66.1790061,102.182601 C67.0709157,102.862512 68.5561219,104.381717 69.1828161,105.257329 C70.6817743,107.347497 71.6601245,109.839156 71.9331981,112.258184 C72.0687527,113.454583 71.9882058,115.782822 71.7799625,116.75124 C70.9568125,120.582543 68.5207599,124.185865 64.8097087,127.056821 C63.8922599,127.766994 62.5543955,128.624448 61.581939,129.126815 C60.9238119,129.467779 60.8668397,129.514182 60.91006,129.691725 C60.9925714,130.028654 62.0475394,135.157234 62.4424157,137.136439 C62.6486943,138.17547 62.9669528,139.89643 63.1496567,140.959672 C63.4718443,142.831947 63.4816671,142.928789 63.4384469,144.139311 C63.3598645,146.439304 62.7822843,148.23693 61.4778174,150.256485 C58.9926508,154.099894 54.5409611,156.551202 49.3486328,156.932517 C48.2524091,157.013218 47.8987886,157.019271 47.1620791,156.96278 Z M53.7453149,129.885409 C54.7217005,129.770409 55.9593724,129.504094 56.7609123,129.233744 C57.7431916,128.904886 58.9278204,128.3198 58.880671,128.186642 C58.8590608,128.128134 57.8551714,123.23157 56.6489324,117.304045 C55.4426935,111.37652 54.4368395,106.508202 54.4132648,106.483991 C54.3896901,106.459781 53.9889201,106.516272 53.5233197,106.611096 C50.1069524,107.303112 47.3035273,109.262141 46.0756782,111.816343 C45.6886602,112.62134 45.5413183,113.147918 45.4411258,114.067915 C45.2289535,116.022909 45.8576122,118.169569 47.1443981,119.87237 C47.8928949,120.864999 49.0343034,121.926223 50.0814131,122.606134 C50.4821831,122.866396 50.5588009,122.993501 50.277869,122.932975 C50.1796411,122.912799 49.8358433,122.83815 49.5136557,122.769554 C46.9813397,122.222801 44.5315352,120.79035 43.1425923,119.047197 C41.9226014,117.513869 41.3037654,115.920014 41.1269552,113.848003 C40.9010309,111.207047 41.5925556,108.660914 43.2113518,106.16522 C44.256497,104.553208 46.0599617,102.79795 47.8673556,101.635849 C49.1757516,100.792518 51.1599558,99.9330471 52.5115721,99.6223464 C52.7591065,99.5658553 52.961456,99.493224 52.961456,99.4629609 C52.961456,99.3762068 50.4566438,87.1237016 50.4153881,87.0066844 C50.3544868,86.8351937 46.9597296,89.6193955 44.6729834,91.7135994 C43.4117368,92.8696484 40.7281498,95.6639378 39.7537287,96.8361271 C36.8127846,100.37287 34.9130564,103.554527 33.8502302,106.716008 C32.7815104,109.903717 32.516295,112.972392 33.0624422,115.875628 C33.726463,119.406319 36.0033864,123.10043 39.0484522,125.588054 C43.183848,128.965412 48.4508295,130.504793 53.7453149,129.885409 Z M61.5053212,126.528226 C64.3244628,124.107181 65.992373,121.353243 66.4854772,118.312814 C66.6505001,117.293957 66.6072798,115.14528 66.4049303,114.19502 C65.5798157,110.345558 63.0612516,107.373725 59.7411476,106.332676 C59.0869496,106.126887 58.9356786,106.110747 57.6469282,106.108729 C56.8296718,106.108729 56.2304815,106.138992 56.1892257,106.187413 C56.14797,106.233817 56.9907656,110.462575 58.3011262,116.771415 C59.4995069,122.547625 60.4817862,127.284803 60.4837508,127.298926 C60.491609,127.363487 60.8354067,127.103225 61.5053212,126.528226 Z M52.2836833,72.0163808 C57.959293,66.3349952 61.3127945,60.8029074 62.0121773,55.9628349 C62.169342,54.8733647 62.1673775,53.0959142 62.0062837,52.1274962 C61.6840961,50.1946952 60.8963081,48.4979462 59.5564791,46.8617233 C59.0240837,46.2120762 58.9435368,46.1777781 57.9376829,46.1797211 C56.8296718,46.1818131 55.8218533,46.7083904 54.7767081,47.8301413 C53.0439675,49.6842582 51.5960878,52.7145996 50.5293325,56.7073063 C49.0460908,62.2656221 48.5903132,69.2180563 49.4036404,73.9269888 L49.5313367,74.6714601 L50.3250184,73.9269888 C50.7611504,73.5174287 51.6412726,72.6579577 52.2836833,72.0163808 Z" id="G-Clef" fill="#000000"></path>
        <path d="M116.586271,129.185068 C110.757334,132.368055 107.652344,138.128911 109.562711,142.46267 C111.600093,147.086745 118.603055,148.391419 125.192362,145.376327 C131.783386,142.361234 135.477105,136.159657 133.439724,131.53733 C131.402342,126.913255 124.39938,125.608581 117.810073,128.623673 C117.398134,128.812554 116.97418,128.971703 116.586271,129.185068 Z" id="Path" fill="#000000" transform="translate(121.500000, 137.000000) rotate(-180.000000) translate(-121.500000, -137.000000) "></path>
        <path d="M116.586271,149.185068 C110.757334,152.368055 107.652344,158.128911 109.562711,162.46267 C111.600093,167.086745 118.603055,168.391419 125.192362,165.376327 C131.783386,162.361234 135.477105,156.159657 133.439724,151.53733 C131.402342,146.913255 124.39938,145.608581 117.810073,148.623673 C117.398134,148.812554 116.97418,148.971703 116.586271,149.185068 Z" id="Path" fill="#000000" transform="translate(121.500000, 157.000000) rotate(-180.000000) translate(-121.500000, -157.000000) "></path>
        <rect id="Rectangle" fill="#000000" x="101" y="157" width="40" height="1"></rect>
        <path d="M116.586271,109.185068 C110.757334,112.368055 107.652344,118.128911 109.562711,122.46267 C111.600093,127.086745 118.603055,128.391419 125.192362,125.376327 C131.783386,122.361234 135.477105,116.159657 133.439724,111.53733 C131.402342,106.913255 124.39938,105.608581 117.810073,108.623673 C117.398134,108.812554 116.97418,108.971703 116.586271,109.185068 Z" id="Path" fill="#000000" transform="translate(121.500000, 117.000000) rotate(-180.000000) translate(-121.500000, -117.000000) "></path>
        <path d="M206.586271,119.185068 C200.757334,122.368055 197.652344,128.128911 199.562711,132.46267 C201.600093,137.086745 208.603055,138.391419 215.192362,135.376327 C221.783386,132.361234 225.477105,126.159657 223.439724,121.53733 C221.402342,116.913255 214.39938,115.608581 207.810073,118.623673 C207.398134,118.812554 206.97418,118.971703 206.586271,119.185068 Z" id="Path" fill="#000000" transform="translate(211.500000, 127.000000) rotate(-180.000000) translate(-211.500000, -127.000000) "></path>
        <path d="M206.586271,139.185068 C200.757334,142.368055 197.652344,148.128911 199.562711,152.46267 C201.600093,157.086745 208.603055,158.391419 215.192362,155.376327 C221.783386,152.361234 225.477105,146.159657 223.439724,141.53733 C221.402342,136.913255 214.39938,135.608581 207.810073,138.623673 C207.398134,138.812554 206.97418,138.971703 206.586271,139.185068 Z" id="Path" fill="#000000" transform="translate(211.500000, 147.000000) rotate(-180.000000) translate(-211.500000, -147.000000) "></path>
        <path d="M206.586271,99.1850683 C200.757334,102.368055 197.652344,108.128911 199.562711,112.46267 C201.600093,117.086745 208.603055,118.391419 215.192362,115.376327 C221.783386,112.361234 225.477105,106.159657 223.439724,101.53733 C221.402342,96.9132553 214.39938,95.6085806 207.810073,98.6236734 C207.398134,98.8125539 206.97418,98.9717032 206.586271,99.1850683 Z" id="Path" fill="#000000" transform="translate(211.500000, 107.000000) rotate(-180.000000) translate(-211.500000, -107.000000) "></path>
        <path d="M296.586271,109.185068 C290.757334,112.368055 287.652344,118.128911 289.562711,122.46267 C291.600093,127.086745 298.603055,128.391419 305.192362,125.376327 C311.783386,122.361234 315.477105,116.159657 313.439724,111.53733 C311.402342,106.913255 304.39938,105.608581 297.810073,108.623673 C297.398134,108.812554 296.97418,108.971703 296.586271,109.185068 Z" id="Path" fill="#000000" transform="translate(301.500000, 117.000000) rotate(-180.000000) translate(-301.500000, -117.000000) "></path>
        <path d="M296.586271,129.185068 C290.757334,132.368055 287.652344,138.128911 289.562711,142.46267 C291.600093,147.086745 298.603055,148.391419 305.192362,145.376327 C311.783386,142.361234 315.477105,136.159657 313.439724,131.53733 C311.402342,126.913255 304.39938,125.608581 297.810073,128.623673 C297.398134,128.812554 296.97418,128.971703 296.586271,129.185068 Z" id="Path" fill="#000000" transform="translate(301.500000, 137.000000) rotate(-180.000000) translate(-301.500000, -137.000000) "></path>
        <path d="M296.586271,89.1850683 C290.757334,92.3680549 287.652344,98.1289109 289.562711,102.46267 C291.600093,107.086745 298.603055,108.391419 305.192362,105.376327 C311.783386,102.361234 315.477105,96.1596566 313.439724,91.5373304 C311.402342,86.9132553 304.39938,85.6085806 297.810073,88.6236734 C297.398134,88.8125539 296.97418,88.9717032 296.586271,89.1850683 Z" id="Path" fill="#000000" transform="translate(301.500000, 97.000000) rotate(-180.000000) translate(-301.500000, -97.000000) "></path>
        <g id="Group" transform="translate(184.000000, 177.000000)" fill="#0C0C0C" fill-rule="nonzero">
            <g id="CN-Root">
                <path d="M21.2316459,30.0879121 L21.2316459,28.2679121 L19.3336459,28.2679121 L19.3336459,14.3839121 L21.2316459,14.3839121 L21.2316459,12.5639121 L14.7576459,12.5639121 L14.7576459,14.3839121 L16.6556459,14.3839121 L16.6556459,28.2679121 L14.7576459,28.2679121 L14.7576459,30.0879121 L21.2316459,30.0879121 Z M28.2525425,30.0879121 L28.2525425,28.2679121 L26.3545425,28.2679121 L26.3545425,14.3839121 L28.2525425,14.3839121 L28.2525425,12.5639121 L21.7785425,12.5639121 L21.7785425,14.3839121 L23.6765425,14.3839121 L23.6765425,28.2679121 L21.7785425,28.2679121 L21.7785425,30.0879121 L28.2525425,30.0879121 Z" id="Combined-Shape"></path>
            </g>
        </g>
        <g id="Group" transform="translate(459.000000, 177.000000)" fill="#0C0C0C" fill-rule="nonzero">
            <g id="CN-Root">
                <path d="M23.1430942,30.0879121 L28.8630942,14.3839121 L30.3450942,14.3839121 L30.3450942,12.5639121 L23.7150942,12.5639121 L23.7150942,14.3839121 L26.2890942,14.3839121 L21.8950942,26.6819121 L21.6610942,27.7479121 L21.5050942,27.7479121 L21.2710942,26.6819121 L16.9550942,14.3839121 L19.5290942,14.3839121 L19.5290942,12.5639121 L12.6650942,12.5639121 L12.6650942,14.3839121 L14.1210942,14.3839121 L19.7110942,30.0879121 L23.1430942,30.0879121 Z" id="Combined-Shape"></path>
            </g>
        </g>
        <g id="Group" transform="translate(94.000000, 177.000000)" fill="#0C0C0C" fill-rule="nonzero">
            <g id="CN-Root">
                <path d="M24.7420942,30.0879121 L24.7420942,28.2679121 L22.8440942,28.2679121 L22.8440942,14.3839121 L24.7420942,14.3839121 L24.7420942,12.5639121 L18.2680942,12.5639121 L18.2680942,14.3839121 L20.1660942,14.3839121 L20.1660942,28.2679121 L18.2680942,28.2679121 L18.2680942,30.0879121 L24.7420942,30.0879121 Z" id="Combined-Shape"></path>
            </g>
        </g>
        <g id="Group" transform="translate(279.000000, 177.000000)" fill="#0C0C0C" fill-rule="nonzero">
            <g id="CN-Root">
                <path d="M17.7211977,30.0879121 L17.7211977,28.2679121 L15.8231977,28.2679121 L15.8231977,14.3839121 L17.7211977,14.3839121 L17.7211977,12.5639121 L11.2471977,12.5639121 L11.2471977,14.3839121 L13.1451977,14.3839121 L13.1451977,28.2679121 L11.2471977,28.2679121 L11.2471977,30.0879121 L17.7211977,30.0879121 Z M24.7420942,30.0879121 L24.7420942,28.2679121 L22.8440942,28.2679121 L22.8440942,14.3839121 L24.7420942,14.3839121 L24.7420942,12.5639121 L18.2680942,12.5639121 L18.2680942,14.3839121 L20.1660942,14.3839121 L20.1660942,28.2679121 L18.2680942,28.2679121 L18.2680942,30.0879121 L24.7420942,30.0879121 Z M31.7629908,30.0879121 L31.7629908,28.2679121 L29.8649908,28.2679121 L29.8649908,14.3839121 L31.7629908,14.3839121 L31.7629908,12.5639121 L25.2889908,12.5639121 L25.2889908,14.3839121 L27.1869908,14.3839121 L27.1869908,28.2679121 L25.2889908,28.2679121 L25.2889908,30.0879121 L31.7629908,30.0879121 Z" id="Combined-Shape"></path>
            </g>
        </g>
        <g id="Group" transform="translate(555.000000, 177.000000)" fill="#0C0C0C" fill-rule="nonzero">
            <g id="CN-Root">
                <path d="M19.6326459,30.0879121 L25.3526459,14.3839121 L26.8346459,14.3839121 L26.8346459,12.5639121 L20.2046459,12.5639121 L20.2046459,14.3839121 L22.7786459,14.3839121 L18.3846459,26.6819121 L18.1506459,27.7479121 L17.9946459,27.7479121 L17.7606459,26.6819121 L13.4446459,14.3839121 L16.0186459,14.3839121 L16.0186459,12.5639121 L9.15464594,12.5639121 L9.15464594,14.3839121 L10.6106459,14.3839121 L16.2006459,30.0879121 L19.6326459,30.0879121 Z M33.2055425,30.0879121 L33.2055425,28.2679121 L31.3075425,28.2679121 L31.3075425,14.3839121 L33.2055425,14.3839121 L33.2055425,12.5639121 L26.7315425,12.5639121 L26.7315425,14.3839121 L28.6295425,14.3839121 L28.6295425,28.2679121 L26.7315425,28.2679121 L26.7315425,30.0879121 L33.2055425,30.0879121 Z" id="Combined-Shape"></path>
            </g>
        </g>
        <path d="M391.586271,99.1850683 C385.757334,102.368055 382.652344,108.128911 384.562711,112.46267 C386.600093,117.086745 393.603055,118.391419 400.192362,115.376327 C406.783386,112.361234 410.477105,106.159657 408.439724,101.53733 C406.402342,96.9132553 399.39938,95.6085806 392.810073,98.6236734 C392.398134,98.8125539 391.97418,98.9717032 391.586271,99.1850683 Z" id="Path" fill="#000000" transform="translate(396.500000, 107.000000) rotate(-180.000000) translate(-396.500000, -107.000000) "></path>
        <path d="M391.586271,119.185068 C385.757334,122.368055 382.652344,128.128911 384.562711,132.46267 C386.600093,137.086745 393.603055,138.391419 400.192362,135.376327 C406.783386,132.361234 410.477105,126.159657 408.439724,121.53733 C406.402342,116.913255 399.39938,115.608581 392.810073,118.623673 C392.398134,118.812554 391.97418,118.971703 391.586271,119.185068 Z" id="Path" fill="#000000" transform="translate(396.500000, 127.000000) rotate(-180.000000) translate(-396.500000, -127.000000) "></path>
        <path d="M391.586271,79.1850683 C385.757334,82.3680549 382.652344,88.1289109 384.562711,92.4626696 C386.600093,97.0867447 393.603055,98.3914194 400.192362,95.3763266 C406.783386,92.3612338 410.477105,86.1596566 408.439724,81.5373304 C406.402342,76.9132553 399.39938,75.6085806 392.810073,78.6236734 C392.398134,78.8125539 391.97418,78.9717032 391.586271,79.1850683 Z" id="Path" fill="#000000" transform="translate(396.500000, 87.000000) rotate(-180.000000) translate(-396.500000, -87.000000) "></path>
        <path d="M481.586271,89.1850683 C475.757334,92.3680549 472.652344,98.1289109 474.562711,102.46267 C476.600093,107.086745 483.603055,108.391419 490.192362,105.376327 C496.783386,102.361234 500.477105,96.1596566 498.439724,91.5373304 C496.402342,86.9132553 489.39938,85.6085806 482.810073,88.6236734 C482.398134,88.8125539 481.97418,88.9717032 481.586271,89.1850683 Z" id="Path" fill="#000000" transform="translate(486.500000, 97.000000) rotate(-180.000000) translate(-486.500000, -97.000000) "></path>
        <path d="M481.586271,109.185068 C475.757334,112.368055 472.652344,118.128911 474.562711,122.46267 C476.600093,127.086745 483.603055,128.391419 490.192362,125.376327 C496.783386,122.361234 500.477105,116.159657 498.439724,111.53733 C496.402342,106.913255 489.39938,105.608581 482.810073,108.623673 C482.398134,108.812554 481.97418,108.971703 481.586271,109.185068 Z" id="Path" fill="#000000" transform="translate(486.500000, 117.000000) rotate(-180.000000) translate(-486.500000, -117.000000) "></path>
        <path d="M481.586271,69.1850683 C475.757334,72.3680549 472.652344,78.1289109 474.562711,82.4626696 C476.600093,87.0867447 483.603055,88.3914194 490.192362,85.3763266 C496.783386,82.3612338 500.477105,76.1596566 498.439724,71.5373304 C496.402342,66.9132553 489.39938,65.6085806 482.810073,68.6236734 C482.398134,68.8125539 481.97418,68.9717032 481.586271,69.1850683 Z" id="Path" fill="#000000" transform="translate(486.500000, 77.000000) rotate(-180.000000) translate(-486.500000, -77.000000) "></path>
        <path d="M571.586271,79.1850683 C565.757334,82.3680549 562.652344,88.1289109 564.562711,92.4626696 C566.600093,97.0867447 573.603055,98.3914194 580.192362,95.3763266 C586.783386,92.3612338 590.477105,86.1596566 588.439724,81.5373304 C586.402342,76.9132553 579.39938,75.6085806 572.810073,78.6236734 C572.398134,78.8125539 571.97418,78.9717032 571.586271,79.1850683 Z" id="Path" fill="#000000" transform="translate(576.500000, 87.000000) rotate(-180.000000) translate(-576.500000, -87.000000) "></path>
        <path d="M571.586271,99.1850683 C565.757334,102.368055 562.652344,108.128911 564.562711,112.46267 C566.600093,117.086745 573.603055,118.391419 580.192362,115.376327 C586.783386,112.361234 590.477105,106.159657 588.439724,101.53733 C586.402342,96.9132553 579.39938,95.6085806 572.810073,98.6236734 C572.398134,98.8125539 571.97418,98.9717032 571.586271,99.1850683 Z" id="Path" fill="#000000" transform="translate(576.500000, 107.000000) rotate(-180.000000) translate(-576.500000, -107.000000) "></path>
        <path d="M571.586271,59.1850683 C565.757334,62.3680549 562.652344,68.1289109 564.562711,72.4626696 C566.600093,77.0867447 573.603055,78.3914194 580.192362,75.3763266 C586.783386,72.3612338 590.477105,66.1596566 588.439724,61.5373304 C586.402342,56.9132553 579.39938,55.6085806 572.810073,58.6236734 C572.398134,58.8125539 571.97418,58.9717032 571.586271,59.1850683 Z" id="Path" fill="#000000" transform="translate(576.500000, 67.000000) rotate(-180.000000) translate(-576.500000, -67.000000) "></path>
        <g id="Group" transform="translate(639.000000, 177.000000)" fill="#0C0C0C" fill-rule="nonzero">
            <g id="CN-Root">
                <path d="M16.1221977,30.0879121 L21.8421977,14.3839121 L23.3241977,14.3839121 L23.3241977,12.5639121 L16.6941977,12.5639121 L16.6941977,14.3839121 L19.2681977,14.3839121 L14.8741977,26.6819121 L14.6401977,27.7479121 L14.4841977,27.7479121 L14.2501977,26.6819121 L9.93419766,14.3839121 L12.5081977,14.3839121 L12.5081977,12.5639121 L5.64419766,12.5639121 L5.64419766,14.3839121 L7.10019766,14.3839121 L12.6901977,30.0879121 L16.1221977,30.0879121 Z M29.6950942,30.0879121 L29.6950942,28.2679121 L27.7970942,28.2679121 L27.7970942,14.3839121 L29.6950942,14.3839121 L29.6950942,12.5639121 L23.2210942,12.5639121 L23.2210942,14.3839121 L25.1190942,14.3839121 L25.1190942,28.2679121 L23.2210942,28.2679121 L23.2210942,30.0879121 L29.6950942,30.0879121 Z M36.7159908,30.0879121 L36.7159908,28.2679121 L34.8179908,28.2679121 L34.8179908,14.3839121 L36.7159908,14.3839121 L36.7159908,12.5639121 L30.2419908,12.5639121 L30.2419908,14.3839121 L32.1399908,14.3839121 L32.1399908,28.2679121 L30.2419908,28.2679121 L30.2419908,30.0879121 L36.7159908,30.0879121 Z" id="Combined-Shape"></path>
            </g>
        </g>
        <path d="M661.586271,69.1850683 C655.757334,72.3680549 652.652344,78.1289109 654.562711,82.4626696 C656.600093,87.0867447 663.603055,88.3914194 670.192362,85.3763266 C676.783386,82.3612338 680.477105,76.1596566 678.439724,71.5373304 C676.402342,66.9132553 669.39938,65.6085806 662.810073,68.6236734 C662.398134,68.8125539 661.97418,68.9717032 661.586271,69.1850683 Z" id="Path" fill="#000000" transform="translate(666.500000, 77.000000) rotate(-180.000000) translate(-666.500000, -77.000000) "></path>
        <path d="M661.586271,89.1850683 C655.757334,92.3680549 652.652344,98.1289109 654.562711,102.46267 C656.600093,107.086745 663.603055,108.391419 670.192362,105.376327 C676.783386,102.361234 680.477105,96.1596566 678.439724,91.5373304 C676.402342,86.9132553 669.39938,85.6085806 662.810073,88.6236734 C662.398134,88.8125539 661.97418,88.9717032 661.586271,89.1850683 Z" id="Path" fill="#000000" transform="translate(666.500000, 97.000000) rotate(-180.000000) translate(-666.500000, -97.000000) "></path>
        <path d="M661.586271,49.1850683 C655.757334,52.3680549 652.652344,58.1289109 654.562711,62.4626696 C656.600093,67.0867447 663.603055,68.3914194 670.192362,65.3763266 C676.783386,62.3612338 680.477105,56.1596566 678.439724,51.5373304 C676.402342,46.9132553 669.39938,45.6085806 662.810073,48.6236734 C662.398134,48.8125539 661.97418,48.9717032 661.586271,49.1850683 Z" id="Path" fill="#000000" transform="translate(666.500000, 57.000000) rotate(-180.000000) translate(-666.500000, -57.000000) "></path>
        <g id="Group" transform="translate(367.000000, 177.000000)" fill="#0C0C0C" fill-rule="nonzero">
            <g id="Combined-Shape">
                <path d="M16.2786459,30.0879121 L16.2786459,28.2679121 L14.3806459,28.2679121 L14.3806459,14.3839121 L16.2786459,14.3839121 L16.2786459,12.5639121 L9.80464594,12.5639121 L9.80464594,14.3839121 L11.7026459,14.3839121 L11.7026459,28.2679121 L9.80464594,28.2679121 L9.80464594,30.0879121 L16.2786459,30.0879121 Z M26.6535425,30.0879121 L32.3735425,14.3839121 L33.8555425,14.3839121 L33.8555425,12.5639121 L27.2255425,12.5639121 L27.2255425,14.3839121 L29.7995425,14.3839121 L25.4055425,26.6819121 L25.1715425,27.7479121 L25.0155425,27.7479121 L24.7815425,26.6819121 L20.4655425,14.3839121 L23.0395425,14.3839121 L23.0395425,12.5639121 L16.1755425,12.5639121 L16.1755425,14.3839121 L17.6315425,14.3839121 L23.2215425,30.0879121 L26.6535425,30.0879121 Z"></path>
            </g>
        </g>
        <g id="CN-add" transform="translate(227.000000, 177.000000)" fill="#000000">
            <path d="M6.6418247,16.778 C6.7818247,16.778 6.8238247,16.722 6.7538247,16.596 C5.6758247,14.902 4.9338247,12.788 4.9338247,10.688 C4.9338247,8.588 5.6758247,6.46 6.7538247,4.78 C6.8238247,4.654 6.7818247,4.584 6.6418247,4.584 L5.6618247,4.584 C5.5358247,4.584 5.4658247,4.654 5.3818247,4.78 C4.2478247,6.488 3.5758247,8.63 3.5758247,10.688 C3.5758247,12.732 4.2478247,14.874 5.3818247,16.596 C5.4658247,16.722 5.5358247,16.778 5.6618247,16.778 L6.6418247,16.778 Z M19.1998247,15.42 C21.1738247,15.42 22.4898247,14.076 22.4898247,12.046 C22.4898247,10.142 21.2998247,8.854 19.5498247,8.854 C18.8358247,8.854 18.1498247,9.12 17.6318247,9.54 L17.8278247,6.712 L21.6078247,6.712 C21.7198247,6.712 21.7898247,6.642 21.7898247,6.516 L21.7898247,5.662 C21.7898247,5.55 21.7198247,5.48 21.6078247,5.48 L16.8198247,5.48 C16.7078247,5.48 16.6098247,5.536 16.5958247,5.662 L16.2738247,10.226 C16.2598247,10.366 16.3158247,10.45 16.4278247,10.492 L17.3238247,10.856 C17.4498247,10.898 17.4918247,10.87 17.5618247,10.8 C18.0238247,10.296 18.5558247,10.058 19.1578247,10.058 C20.3058247,10.058 21.0758247,10.856 21.0758247,12.06 C21.0758247,13.278 20.2918247,14.104 19.1298247,14.104 C18.2478247,14.104 17.5618247,13.656 17.3518247,12.9 C17.3098247,12.774 17.2678247,12.732 17.1278247,12.732 L16.1618247,12.732 C16.0078247,12.732 15.9378247,12.774 15.9658247,12.9 C16.3298247,14.496 17.4638247,15.42 19.1998247,15.42 Z M24.2398247,16.778 C24.3658247,16.778 24.4358247,16.722 24.5198247,16.596 C25.6538247,14.874 26.3258247,12.732 26.3258247,10.688 C26.3258247,8.63 25.6538247,6.488 24.5198247,4.78 C24.4358247,4.654 24.3658247,4.584 24.2398247,4.584 L23.2598247,4.584 C23.1198247,4.584 23.0778247,4.654 23.1478247,4.78 C24.2258247,6.46 24.9678247,8.588 24.9678247,10.688 C24.9678247,12.788 24.2258247,14.902 23.1478247,16.596 C23.0778247,16.722 23.1198247,16.778 23.2598247,16.778 L24.2398247,16.778 Z" id="Combined-Shape"></path>
        </g>
        <g id="Group" transform="translate(117.500000, 177.000000)" fill="#0C0C0C" fill-rule="nonzero">
            <g id="Combined-Shape">
                <path d="M8.13391441,30.1038961 C8.34991441,30.1038961 8.46991441,29.9838961 8.46991441,29.7678961 L8.46991441,22.9038961 C9.21391441,22.3278961 9.86191441,22.0878961 10.5579144,22.0878961 C11.8299144,22.0878961 12.4299144,22.8798961 12.4299144,24.4638961 L12.4299144,29.7678961 C12.4299144,29.9838961 12.5739144,30.1038961 12.7659144,30.1038961 L14.4219144,30.1038961 C14.6379144,30.1038961 14.7579144,29.9838961 14.7579144,29.7678961 L14.7579144,24.2238961 C14.7579144,23.7918961 14.7099144,23.3838961 14.6619144,23.0238961 C15.3339144,22.4238961 16.0779144,22.0878961 16.8459144,22.0878961 C18.0699144,22.0878961 18.6939144,22.8798961 18.6939144,24.4638961 L18.6939144,29.7678961 C18.6939144,29.9838961 18.8139144,30.1038961 19.0299144,30.1038961 L20.6859144,30.1038961 C20.9019144,30.1038961 21.0219144,29.9838961 21.0219144,29.7678961 L21.0219144,24.2238961 C21.0219144,21.4638961 19.5339144,20.0238961 17.3019144,20.0238961 C16.0299144,20.0238961 14.9019144,20.5038961 13.9899144,21.4158961 C13.3659144,20.5038961 12.3339144,20.0238961 11.0859144,20.0238961 C9.95791441,20.0238961 9.02191441,20.3838961 7.96591441,21.1758961 C7.70191441,20.5758961 7.19791441,20.2638961 6.38191441,20.2638961 L5.39791441,20.2638961 C5.18191441,20.2638961 5.06191441,20.3838961 5.06191441,20.5998961 L5.06191441,21.7998961 C5.06191441,22.0158961 5.18191441,22.1358961 5.39791441,22.1358961 L5.66191441,22.1358961 C6.06991441,22.1358961 6.11791441,22.3518961 6.11791441,22.9278961 L6.11791441,23.8638961 L6.14191441,23.8638961 L6.14191441,29.7678961 C6.14191441,29.9838961 6.23791441,30.1038961 6.47791441,30.1038961 L8.13391441,30.1038961 Z"></path>
            </g>
        </g>
        <g id="Group" transform="translate(211.500000, 177.000000)" fill="#0C0C0C" fill-rule="nonzero">
            <g id="Combined-Shape">
                <path d="M8.13391441,30.1038961 C8.34991441,30.1038961 8.46991441,29.9838961 8.46991441,29.7678961 L8.46991441,22.9038961 C9.21391441,22.3278961 9.86191441,22.0878961 10.5579144,22.0878961 C11.8299144,22.0878961 12.4299144,22.8798961 12.4299144,24.4638961 L12.4299144,29.7678961 C12.4299144,29.9838961 12.5739144,30.1038961 12.7659144,30.1038961 L14.4219144,30.1038961 C14.6379144,30.1038961 14.7579144,29.9838961 14.7579144,29.7678961 L14.7579144,24.2238961 C14.7579144,23.7918961 14.7099144,23.3838961 14.6619144,23.0238961 C15.3339144,22.4238961 16.0779144,22.0878961 16.8459144,22.0878961 C18.0699144,22.0878961 18.6939144,22.8798961 18.6939144,24.4638961 L18.6939144,29.7678961 C18.6939144,29.9838961 18.8139144,30.1038961 19.0299144,30.1038961 L20.6859144,30.1038961 C20.9019144,30.1038961 21.0219144,29.9838961 21.0219144,29.7678961 L21.0219144,24.2238961 C21.0219144,21.4638961 19.5339144,20.0238961 17.3019144,20.0238961 C16.0299144,20.0238961 14.9019144,20.5038961 13.9899144,21.4158961 C13.3659144,20.5038961 12.3339144,20.0238961 11.0859144,20.0238961 C9.95791441,20.0238961 9.02191441,20.3838961 7.96591441,21.1758961 C7.70191441,20.5758961 7.19791441,20.2638961 6.38191441,20.2638961 L5.39791441,20.2638961 C5.18191441,20.2638961 5.06191441,20.3838961 5.06191441,20.5998961 L5.06191441,21.7998961 C5.06191441,22.0158961 5.18191441,22.1358961 5.39791441,22.1358961 L5.66191441,22.1358961 C6.06991441,22.1358961 6.11791441,22.3518961 6.11791441,22.9278961 L6.11791441,23.8638961 L6.14191441,23.8638961 L6.14191441,29.7678961 C6.14191441,29.9838961 6.23791441,30.1038961 6.47791441,30.1038961 L8.13391441,30.1038961 Z"></path>
            </g>
        </g>
        <g id="Group" transform="translate(397.500000, 177.000000)" fill="#0C0C0C" fill-rule="nonzero">
            <g id="Combined-Shape">
                <path d="M8.13391441,30.1038961 C8.34991441,30.1038961 8.46991441,29.9838961 8.46991441,29.7678961 L8.46991441,22.9038961 C9.21391441,22.3278961 9.86191441,22.0878961 10.5579144,22.0878961 C11.8299144,22.0878961 12.4299144,22.8798961 12.4299144,24.4638961 L12.4299144,29.7678961 C12.4299144,29.9838961 12.5739144,30.1038961 12.7659144,30.1038961 L14.4219144,30.1038961 C14.6379144,30.1038961 14.7579144,29.9838961 14.7579144,29.7678961 L14.7579144,24.2238961 C14.7579144,23.7918961 14.7099144,23.3838961 14.6619144,23.0238961 C15.3339144,22.4238961 16.0779144,22.0878961 16.8459144,22.0878961 C18.0699144,22.0878961 18.6939144,22.8798961 18.6939144,24.4638961 L18.6939144,29.7678961 C18.6939144,29.9838961 18.8139144,30.1038961 19.0299144,30.1038961 L20.6859144,30.1038961 C20.9019144,30.1038961 21.0219144,29.9838961 21.0219144,29.7678961 L21.0219144,24.2238961 C21.0219144,21.4638961 19.5339144,20.0238961 17.3019144,20.0238961 C16.0299144,20.0238961 14.9019144,20.5038961 13.9899144,21.4158961 C13.3659144,20.5038961 12.3339144,20.0238961 11.0859144,20.0238961 C9.95791441,20.0238961 9.02191441,20.3838961 7.96591441,21.1758961 C7.70191441,20.5758961 7.19791441,20.2638961 6.38191441,20.2638961 L5.39791441,20.2638961 C5.18191441,20.2638961 5.06191441,20.3838961 5.06191441,20.5998961 L5.06191441,21.7998961 C5.06191441,22.0158961 5.18191441,22.1358961 5.39791441,22.1358961 L5.66191441,22.1358961 C6.06991441,22.1358961 6.11791441,22.3518961 6.11791441,22.9278961 L6.11791441,23.8638961 L6.14191441,23.8638961 L6.14191441,29.7678961 C6.14191441,29.9838961 6.23791441,30.1038961 6.47791441,30.1038961 L8.13391441,30.1038961 Z"></path>
            </g>
        </g>
        <g id="Group" transform="translate(483.500000, 177.000000)" fill="#0C0C0C" fill-rule="nonzero">
            <g id="Combined-Shape">
                <path d="M8.13391441,30.1038961 C8.34991441,30.1038961 8.46991441,29.9838961 8.46991441,29.7678961 L8.46991441,22.9038961 C9.21391441,22.3278961 9.86191441,22.0878961 10.5579144,22.0878961 C11.8299144,22.0878961 12.4299144,22.8798961 12.4299144,24.4638961 L12.4299144,29.7678961 C12.4299144,29.9838961 12.5739144,30.1038961 12.7659144,30.1038961 L14.4219144,30.1038961 C14.6379144,30.1038961 14.7579144,29.9838961 14.7579144,29.7678961 L14.7579144,24.2238961 C14.7579144,23.7918961 14.7099144,23.3838961 14.6619144,23.0238961 C15.3339144,22.4238961 16.0779144,22.0878961 16.8459144,22.0878961 C18.0699144,22.0878961 18.6939144,22.8798961 18.6939144,24.4638961 L18.6939144,29.7678961 C18.6939144,29.9838961 18.8139144,30.1038961 19.0299144,30.1038961 L20.6859144,30.1038961 C20.9019144,30.1038961 21.0219144,29.9838961 21.0219144,29.7678961 L21.0219144,24.2238961 C21.0219144,21.4638961 19.5339144,20.0238961 17.3019144,20.0238961 C16.0299144,20.0238961 14.9019144,20.5038961 13.9899144,21.4158961 C13.3659144,20.5038961 12.3339144,20.0238961 11.0859144,20.0238961 C9.95791441,20.0238961 9.02191441,20.3838961 7.96591441,21.1758961 C7.70191441,20.5758961 7.19791441,20.2638961 6.38191441,20.2638961 L5.39791441,20.2638961 C5.18191441,20.2638961 5.06191441,20.3838961 5.06191441,20.5998961 L5.06191441,21.7998961 C5.06191441,22.0158961 5.18191441,22.1358961 5.39791441,22.1358961 L5.66191441,22.1358961 C6.06991441,22.1358961 6.11791441,22.3518961 6.11791441,22.9278961 L6.11791441,23.8638961 L6.14191441,23.8638961 L6.14191441,29.7678961 C6.14191441,29.9838961 6.23791441,30.1038961 6.47791441,30.1038961 L8.13391441,30.1038961 Z"></path>
            </g>
        </g>
        <g id="Group" transform="translate(274.000000, 72.000000)" fill="#0C0C0C" fill-rule="nonzero">
            <g id="flat">
                <path d="M1.73324454,11.771558 C1.73324454,11.771558 1.73324454,13.3141985 1.73324454,16.4002221 C3.73230635,14.4230874 5.9761808,13.4107528 8.4641436,13.3624756 C10.0192109,13.3624756 11.3519188,14.0621229 12.4629915,15.4599319 C13.4400692,16.7619293 13.9506991,18.2080155 13.9956056,19.7996758 C14.0397877,21.0533961 13.7507929,22.4994823 13.1293455,24.138677 C12.9069861,24.8138143 12.4180851,25.5372287 11.6626425,26.3081776 C11.0853772,26.8875033 10.4856586,27.4898535 9.86348687,28.1167137 C6.57589935,30.7199659 3.28831182,33.347728 0,36 L0,0 L1.73324454,0 L1.73324454,11.771558 Z M7.13143573,17.9911397 C6.59835258,17.3160024 5.90954541,16.9788051 5.06501422,16.9788051 C3.99884792,16.9788051 3.1325878,17.6294325 2.46623387,18.9314299 C1.97733288,19.9437645 1.73324454,22.3308836 1.73324454,26.0913018 L1.73324454,32.3116262 C1.7774267,32.503992 3.02177025,31.3230588 5.46482659,28.767341 C6.79825876,27.4178092 7.66451888,25.8261489 8.06433124,23.9938456 C8.24178419,23.2711738 8.33087282,22.5477594 8.33087282,21.824345 C8.33087282,20.2334274 7.93106045,18.9559399 7.13143573,17.9911397"></path>
            </g>
        </g>
        <g id="Group" transform="translate(274.000000, 112.000000)" fill="#0C0C0C" fill-rule="nonzero">
            <g id="flat">
                <path d="M1.73324454,11.771558 C1.73324454,11.771558 1.73324454,13.3141985 1.73324454,16.4002221 C3.73230635,14.4230874 5.9761808,13.4107528 8.4641436,13.3624756 C10.0192109,13.3624756 11.3519188,14.0621229 12.4629915,15.4599319 C13.4400692,16.7619293 13.9506991,18.2080155 13.9956056,19.7996758 C14.0397877,21.0533961 13.7507929,22.4994823 13.1293455,24.138677 C12.9069861,24.8138143 12.4180851,25.5372287 11.6626425,26.3081776 C11.0853772,26.8875033 10.4856586,27.4898535 9.86348687,28.1167137 C6.57589935,30.7199659 3.28831182,33.347728 0,36 L0,0 L1.73324454,0 L1.73324454,11.771558 Z M7.13143573,17.9911397 C6.59835258,17.3160024 5.90954541,16.9788051 5.06501422,16.9788051 C3.99884792,16.9788051 3.1325878,17.6294325 2.46623387,18.9314299 C1.97733288,19.9437645 1.73324454,22.3308836 1.73324454,26.0913018 L1.73324454,32.3116262 C1.7774267,32.503992 3.02177025,31.3230588 5.46482659,28.767341 C6.79825876,27.4178092 7.66451888,25.8261489 8.06433124,23.9938456 C8.24178419,23.2711738 8.33087282,22.5477594 8.33087282,21.824345 C8.33087282,20.2334274 7.93106045,18.9559399 7.13143573,17.9911397"></path>
            </g>
        </g>
        <g id="Group" transform="translate(548.000000, 44.000000)" fill="#0C0C0C" fill-rule="nonzero">
            <g id="flat">
                <path d="M1.73324454,11.771558 C1.73324454,11.771558 1.73324454,13.3141985 1.73324454,16.4002221 C3.73230635,14.4230874 5.9761808,13.4107528 8.4641436,13.3624756 C10.0192109,13.3624756 11.3519188,14.0621229 12.4629915,15.4599319 C13.4400692,16.7619293 13.9506991,18.2080155 13.9956056,19.7996758 C14.0397877,21.0533961 13.7507929,22.4994823 13.1293455,24.138677 C12.9069861,24.8138143 12.4180851,25.5372287 11.6626425,26.3081776 C11.0853772,26.8875033 10.4856586,27.4898535 9.86348687,28.1167137 C6.57589935,30.7199659 3.28831182,33.347728 0,36 L0,0 L1.73324454,0 L1.73324454,11.771558 Z M7.13143573,17.9911397 C6.59835258,17.3160024 5.90954541,16.9788051 5.06501422,16.9788051 C3.99884792,16.9788051 3.1325878,17.6294325 2.46623387,18.9314299 C1.97733288,19.9437645 1.73324454,22.3308836 1.73324454,26.0913018 L1.73324454,32.3116262 C1.7774267,32.503992 3.02177025,31.3230588 5.46482659,28.767341 C6.79825876,27.4178092 7.66451888,25.8261489 8.06433124,23.9938456 C8.24178419,23.2711738 8.33087282,22.5477594 8.33087282,21.824345 C8.33087282,20.2334274 7.93106045,18.9559399 7.13143573,17.9911397"></path>
            </g>
        </g>
        <g id="Group" transform="translate(548.000000, 84.000000)" fill="#0C0C0C" fill-rule="nonzero">
            <g id="flat">
                <path d="M1.73324454,11.771558 C1.73324454,11.771558 1.73324454,13.3141985 1.73324454,16.4002221 C3.73230635,14.4230874 5.9761808,13.4107528 8.4641436,13.3624756 C10.0192109,13.3624756 11.3519188,14.0621229 12.4629915,15.4599319 C13.4400692,16.7619293 13.9506991,18.2080155 13.9956056,19.7996758 C14.0397877,21.0533961 13.7507929,22.4994823 13.1293455,24.138677 C12.9069861,24.8138143 12.4180851,25.5372287 11.6626425,26.3081776 C11.0853772,26.8875033 10.4856586,27.4898535 9.86348687,28.1167137 C6.57589935,30.7199659 3.28831182,33.347728 0,36 L0,0 L1.73324454,0 L1.73324454,11.771558 Z M7.13143573,17.9911397 C6.59835258,17.3160024 5.90954541,16.9788051 5.06501422,16.9788051 C3.99884792,16.9788051 3.1325878,17.6294325 2.46623387,18.9314299 C1.97733288,19.9437645 1.73324454,22.3308836 1.73324454,26.0913018 L1.73324454,32.3116262 C1.7774267,32.503992 3.02177025,31.3230588 5.46482659,28.767341 C6.79825876,27.4178092 7.66451888,25.8261489 8.06433124,23.9938456 C8.24178419,23.2711738 8.33087282,22.5477594 8.33087282,21.824345 C8.33087282,20.2334274 7.93106045,18.9559399 7.13143573,17.9911397"></path>
            </g>
        </g>
        <g id="Group" transform="translate(639.000000, 74.000000)" fill="#0C0C0C" fill-rule="nonzero">
            <g id="flat">
                <path d="M1.73324454,11.771558 C1.73324454,11.771558 1.73324454,13.3141985 1.73324454,16.4002221 C3.73230635,14.4230874 5.9761808,13.4107528 8.4641436,13.3624756 C10.0192109,13.3624756 11.3519188,14.0621229 12.4629915,15.4599319 C13.4400692,16.7619293 13.9506991,18.2080155 13.9956056,19.7996758 C14.0397877,21.0533961 13.7507929,22.4994823 13.1293455,24.138677 C12.9069861,24.8138143 12.4180851,25.5372287 11.6626425,26.3081776 C11.0853772,26.8875033 10.4856586,27.4898535 9.86348687,28.1167137 C6.57589935,30.7199659 3.28831182,33.347728 0,36 L0,0 L1.73324454,0 L1.73324454,11.771558 Z M7.13143573,17.9911397 C6.59835258,17.3160024 5.90954541,16.9788051 5.06501422,16.9788051 C3.99884792,16.9788051 3.1325878,17.6294325 2.46623387,18.9314299 C1.97733288,19.9437645 1.73324454,22.3308836 1.73324454,26.0913018 L1.73324454,32.3116262 C1.7774267,32.503992 3.02177025,31.3230588 5.46482659,28.767341 C6.79825876,27.4178092 7.66451888,25.8261489 8.06433124,23.9938456 C8.24178419,23.2711738 8.33087282,22.5477594 8.33087282,21.824345 C8.33087282,20.2334274 7.93106045,18.9559399 7.13143573,17.9911397"></path>
            </g>
        </g>
        <g id="Group" transform="translate(457.000000, 74.000000)" fill="#0C0C0C" fill-rule="nonzero">
            <g id="flat">
                <path d="M1.73324454,11.771558 C1.73324454,11.771558 1.73324454,13.3141985 1.73324454,16.4002221 C3.73230635,14.4230874 5.9761808,13.4107528 8.4641436,13.3624756 C10.0192109,13.3624756 11.3519188,14.0621229 12.4629915,15.4599319 C13.4400692,16.7619293 13.9506991,18.2080155 13.9956056,19.7996758 C14.0397877,21.0533961 13.7507929,22.4994823 13.1293455,24.138677 C12.9069861,24.8138143 12.4180851,25.5372287 11.6626425,26.3081776 C11.0853772,26.8875033 10.4856586,27.4898535 9.86348687,28.1167137 C6.57589935,30.7199659 3.28831182,33.347728 0,36 L0,0 L1.73324454,0 L1.73324454,11.771558 Z M7.13143573,17.9911397 C6.59835258,17.3160024 5.90954541,16.9788051 5.06501422,16.9788051 C3.99884792,16.9788051 3.1325878,17.6294325 2.46623387,18.9314299 C1.97733288,19.9437645 1.73324454,22.3308836 1.73324454,26.0913018 L1.73324454,32.3116262 C1.7774267,32.503992 3.02177025,31.3230588 5.46482659,28.767341 C6.79825876,27.4178092 7.66451888,25.8261489 8.06433124,23.9938456 C8.24178419,23.2711738 8.33087282,22.5477594 8.33087282,21.824345 C8.33087282,20.2334274 7.93106045,18.9559399 7.13143573,17.9911397"></path>
            </g>
        </g>
        <g id="Group" transform="translate(369.000000, 84.000000)" fill="#0C0C0C" fill-rule="nonzero">
            <g id="flat">
                <path d="M1.73324454,11.771558 C1.73324454,11.771558 1.73324454,13.3141985 1.73324454,16.4002221 C3.73230635,14.4230874 5.9761808,13.4107528 8.4641436,13.3624756 C10.0192109,13.3624756 11.3519188,14.0621229 12.4629915,15.4599319 C13.4400692,16.7619293 13.9506991,18.2080155 13.9956056,19.7996758 C14.0397877,21.0533961 13.7507929,22.4994823 13.1293455,24.138677 C12.9069861,24.8138143 12.4180851,25.5372287 11.6626425,26.3081776 C11.0853772,26.8875033 10.4856586,27.4898535 9.86348687,28.1167137 C6.57589935,30.7199659 3.28831182,33.347728 0,36 L0,0 L1.73324454,0 L1.73324454,11.771558 Z M7.13143573,17.9911397 C6.59835258,17.3160024 5.90954541,16.9788051 5.06501422,16.9788051 C3.99884792,16.9788051 3.1325878,17.6294325 2.46623387,18.9314299 C1.97733288,19.9437645 1.73324454,22.3308836 1.73324454,26.0913018 L1.73324454,32.3116262 C1.7774267,32.503992 3.02177025,31.3230588 5.46482659,28.767341 C6.79825876,27.4178092 7.66451888,25.8261489 8.06433124,23.9938456 C8.24178419,23.2711738 8.33087282,22.5477594 8.33087282,21.824345 C8.33087282,20.2334274 7.93106045,18.9559399 7.13143573,17.9911397"></path>
            </g>
        </g>
        <g id="Group" transform="translate(185.000000, 83.000000)" fill="#0C0C0C" fill-rule="nonzero">
            <g id="flat">
                <path d="M1.73324454,11.771558 C1.73324454,11.771558 1.73324454,13.3141985 1.73324454,16.4002221 C3.73230635,14.4230874 5.9761808,13.4107528 8.4641436,13.3624756 C10.0192109,13.3624756 11.3519188,14.0621229 12.4629915,15.4599319 C13.4400692,16.7619293 13.9506991,18.2080155 13.9956056,19.7996758 C14.0397877,21.0533961 13.7507929,22.4994823 13.1293455,24.138677 C12.9069861,24.8138143 12.4180851,25.5372287 11.6626425,26.3081776 C11.0853772,26.8875033 10.4856586,27.4898535 9.86348687,28.1167137 C6.57589935,30.7199659 3.28831182,33.347728 0,36 L0,0 L1.73324454,0 L1.73324454,11.771558 Z M7.13143573,17.9911397 C6.59835258,17.3160024 5.90954541,16.9788051 5.06501422,16.9788051 C3.99884792,16.9788051 3.1325878,17.6294325 2.46623387,18.9314299 C1.97733288,19.9437645 1.73324454,22.3308836 1.73324454,26.0913018 L1.73324454,32.3116262 C1.7774267,32.503992 3.02177025,31.3230588 5.46482659,28.767341 C6.79825876,27.4178092 7.66451888,25.8261489 8.06433124,23.9938456 C8.24178419,23.2711738 8.33087282,22.5477594 8.33087282,21.824345 C8.33087282,20.2334274 7.93106045,18.9559399 7.13143573,17.9911397"></path>
            </g>
        </g>
        <g id="Group" transform="translate(93.000000, 114.000000)" fill="#0C0C0C" fill-rule="nonzero">
            <g id="flat">
                <path d="M1.73324454,11.771558 C1.73324454,11.771558 1.73324454,13.3141985 1.73324454,16.4002221 C3.73230635,14.4230874 5.9761808,13.4107528 8.4641436,13.3624756 C10.0192109,13.3624756 11.3519188,14.0621229 12.4629915,15.4599319 C13.4400692,16.7619293 13.9506991,18.2080155 13.9956056,19.7996758 C14.0397877,21.0533961 13.7507929,22.4994823 13.1293455,24.138677 C12.9069861,24.8138143 12.4180851,25.5372287 11.6626425,26.3081776 C11.0853772,26.8875033 10.4856586,27.4898535 9.86348687,28.1167137 C6.57589935,30.7199659 3.28831182,33.347728 0,36 L0,0 L1.73324454,0 L1.73324454,11.771558 Z M7.13143573,17.9911397 C6.59835258,17.3160024 5.90954541,16.9788051 5.06501422,16.9788051 C3.99884792,16.9788051 3.1325878,17.6294325 2.46623387,18.9314299 C1.97733288,19.9437645 1.73324454,22.3308836 1.73324454,26.0913018 L1.73324454,32.3116262 C1.7774267,32.503992 3.02177025,31.3230588 5.46482659,28.767341 C6.79825876,27.4178092 7.66451888,25.8261489 8.06433124,23.9938456 C8.24178419,23.2711738 8.33087282,22.5477594 8.33087282,21.824345 C8.33087282,20.2334274 7.93106045,18.9559399 7.13143573,17.9911397"></path>
            </g>
        </g>
        <g id="Group" transform="translate(281.000000, 185.000000)" fill="#0C0C0C" fill-rule="nonzero">
            <g id="flat">
                <path d="M0.866622268,5.88577902 C0.866622268,5.88577902 0.866622268,6.65709924 0.866622268,8.20011105 C1.86615317,7.21154368 2.9880904,6.70537639 4.2320718,6.68123782 C5.00960545,6.68123782 5.67595938,7.03106143 6.23149576,7.72996594 C6.7200346,8.38096466 6.97534956,9.10400774 6.99780279,9.8998379 C7.01989387,10.526698 6.87539647,11.2497411 6.56467273,12.0693385 C6.45349303,12.4069071 6.20904253,12.7686144 5.83132125,13.1540888 C5.5426886,13.4437517 5.24282932,13.7449268 4.93174344,14.0583568 C3.28794967,15.3599829 1.64415591,16.673864 0,18 L0,0 L0.866622268,0 L0.866622268,5.88577902 Z M3.56571786,8.99556984 C3.29917629,8.6580012 2.95477271,8.48940255 2.53250711,8.48940255 C1.99942396,8.48940255 1.5662939,8.81471623 1.23311693,9.46571496 C0.98866644,9.97188225 0.866622268,11.1654418 0.866622268,13.0456509 L0.866622268,16.1558131 C0.888713349,16.251996 1.51088512,15.6615294 2.73241329,14.3836705 C3.39912938,13.7089046 3.83225944,12.9130744 4.03216562,11.9969228 C4.1208921,11.6355869 4.16543641,11.2738797 4.16543641,10.9121725 C4.16543641,10.1167137 3.96553023,9.47796993 3.56571786,8.99556984"></path>
            </g>
        </g>
        <g id="Group" transform="translate(555.000000, 185.000000)" fill="#0C0C0C" fill-rule="nonzero">
            <g id="flat">
                <path d="M0.866622268,5.88577902 C0.866622268,5.88577902 0.866622268,6.65709924 0.866622268,8.20011105 C1.86615317,7.21154368 2.9880904,6.70537639 4.2320718,6.68123782 C5.00960545,6.68123782 5.67595938,7.03106143 6.23149576,7.72996594 C6.7200346,8.38096466 6.97534956,9.10400774 6.99780279,9.8998379 C7.01989387,10.526698 6.87539647,11.2497411 6.56467273,12.0693385 C6.45349303,12.4069071 6.20904253,12.7686144 5.83132125,13.1540888 C5.5426886,13.4437517 5.24282932,13.7449268 4.93174344,14.0583568 C3.28794967,15.3599829 1.64415591,16.673864 0,18 L0,0 L0.866622268,0 L0.866622268,5.88577902 Z M3.56571786,8.99556984 C3.29917629,8.6580012 2.95477271,8.48940255 2.53250711,8.48940255 C1.99942396,8.48940255 1.5662939,8.81471623 1.23311693,9.46571496 C0.98866644,9.97188225 0.866622268,11.1654418 0.866622268,13.0456509 L0.866622268,16.1558131 C0.888713349,16.251996 1.51088512,15.6615294 2.73241329,14.3836705 C3.39912938,13.7089046 3.83225944,12.9130744 4.03216562,11.9969228 C4.1208921,11.6355869 4.16543641,11.2738797 4.16543641,10.9121725 C4.16543641,10.1167137 3.96553023,9.47796993 3.56571786,8.99556984"></path>
            </g>
        </g>
        <g id="Group" transform="translate(638.000000, 185.000000)" fill="#0C0C0C" fill-rule="nonzero">
            <g id="flat">
                <path d="M0.866622268,5.88577902 C0.866622268,5.88577902 0.866622268,6.65709924 0.866622268,8.20011105 C1.86615317,7.21154368 2.9880904,6.70537639 4.2320718,6.68123782 C5.00960545,6.68123782 5.67595938,7.03106143 6.23149576,7.72996594 C6.7200346,8.38096466 6.97534956,9.10400774 6.99780279,9.8998379 C7.01989387,10.526698 6.87539647,11.2497411 6.56467273,12.0693385 C6.45349303,12.4069071 6.20904253,12.7686144 5.83132125,13.1540888 C5.5426886,13.4437517 5.24282932,13.7449268 4.93174344,14.0583568 C3.28794967,15.3599829 1.64415591,16.673864 0,18 L0,0 L0.866622268,0 L0.866622268,5.88577902 Z M3.56571786,8.99556984 C3.29917629,8.6580012 2.95477271,8.48940255 2.53250711,8.48940255 C1.99942396,8.48940255 1.5662939,8.81471623 1.23311693,9.46571496 C0.98866644,9.97188225 0.866622268,11.1654418 0.866622268,13.0456509 L0.866622268,16.1558131 C0.888713349,16.251996 1.51088512,15.6615294 2.73241329,14.3836705 C3.39912938,13.7089046 3.83225944,12.9130744 4.03216562,11.9969228 C4.1208921,11.6355869 4.16543641,11.2738797 4.16543641,10.9121725 C4.16543641,10.1167137 3.96553023,9.47796993 3.56571786,8.99556984"></path>
            </g>
        </g>
        <g id="Group" transform="translate(236.000000, 180.000000)" fill="#0C0C0C" fill-rule="nonzero">
            <g id="flat">
                <path d="M0.619015906,4.2508404 C0.619015906,4.2508404 0.619015906,4.80790501 0.619015906,5.92230243 C1.33296655,5.2083371 2.13435029,4.84277184 3.02290843,4.82533842 C3.5782896,4.82533842 4.0542567,5.07798881 4.4510684,5.58275318 C4.80002472,6.05291892 4.98239254,6.5751167 4.99843057,7.14988292 C5.01420991,7.60261526 4.91099748,8.12481304 4.68905195,8.71674447 C4.60963788,8.96054405 4.43503038,9.22177704 4.16522947,9.50017524 C3.95906328,9.7093762 3.74487809,9.92689155 3.52267388,10.1532577 C2.34853548,11.093321 1.17439708,12.0422351 0,13 L0,0 L0.619015906,0 L0.619015906,4.2508404 Z M2.54694133,6.49680044 C2.35655449,6.25300086 2.11055193,6.13123518 1.80893365,6.13123518 C1.42815997,6.13123518 1.11878136,6.36618395 0.88079781,6.83634969 C0.706190314,7.20191496 0.619015906,8.06393019 0.619015906,9.42185898 L0.619015906,11.6680872 C0.63479525,11.7375527 1.07920366,11.3111046 1.95172378,10.3882065 C2.42794956,9.90087554 2.73732817,9.32610931 2.8801183,8.66444423 C2.94349435,8.40347944 2.97531172,8.14224645 2.97531172,7.88101346 C2.97531172,7.30651544 2.83252159,6.8452005 2.54694133,6.49680044"></path>
            </g>
        </g>
    </g>
</svg>