<?xml version="1.0" encoding="UTF-8"?>
<svg width="730px" height="230px" viewBox="0 0 730 230" version="1.1" xmlns="http://www.w3.org/2000/svg" xmlns:xlink="http://www.w3.org/1999/xlink">
    <title>c3-seventh-primechords</title>
    <g id="c3-seventh-primechords" stroke="none" stroke-width="1" fill="none" fill-rule="evenodd">
        <g id="Group" transform="translate(18.000000, 56.000000)" stroke="#000000">
            <line x1="2" y1="1" x2="696" y2="1" id="horizon"></line>
            <line x1="2" y1="21" x2="696" y2="21" id="horizon"></line>
            <line x1="2" y1="41" x2="696" y2="41" id="horizon"></line>
            <line x1="2" y1="61" x2="696" y2="61" id="horizon"></line>
            <line x1="2" y1="81" x2="696" y2="81" id="horizon"></line>
            <line x1="-37.5714286" y1="40.9905588" x2="40.4285714" y2="41.0094412" id="bar" stroke-width="2.72167481" stroke-linecap="round" stroke-linejoin="round" transform="translate(1.428571, 41.000000) rotate(90.000000) translate(-1.428571, -41.000000) "></line>
            <line x1="696.5" y1="1" x2="696.5" y2="81" id="bar" stroke-linecap="square"></line>
        </g>
        <path d="M126.586271,129.185068 C120.757334,132.368055 117.652344,138.128911 119.562711,142.46267 C121.600093,147.086745 128.603055,148.391419 135.192362,145.376327 C141.783386,142.361234 145.477105,136.159657 143.439724,131.53733 C141.402342,126.913255 134.39938,125.608581 127.810073,128.623673 C127.398134,128.812554 126.97418,128.971703 126.586271,129.185068 Z" id="Path" fill="#000000" transform="translate(131.500000, 137.000000) rotate(-180.000000) translate(-131.500000, -137.000000) "></path>
        <path d="M126.586271,149.185068 C120.757334,152.368055 117.652344,158.128911 119.562711,162.46267 C121.600093,167.086745 128.603055,168.391419 135.192362,165.376327 C141.783386,162.361234 145.477105,156.159657 143.439724,151.53733 C141.402342,146.913255 134.39938,145.608581 127.810073,148.623673 C127.398134,148.812554 126.97418,148.971703 126.586271,149.185068 Z" id="Path" fill="#000000" transform="translate(131.500000, 157.000000) rotate(-180.000000) translate(-131.500000, -157.000000) "></path>
        <rect id="Rectangle" fill="#000000" x="111" y="157" width="40" height="1"></rect>
        <path d="M126.586271,109.185068 C120.757334,112.368055 117.652344,118.128911 119.562711,122.46267 C121.600093,127.086745 128.603055,128.391419 135.192362,125.376327 C141.783386,122.361234 145.477105,116.159657 143.439724,111.53733 C141.402342,106.913255 134.39938,105.608581 127.810073,108.623673 C127.398134,108.812554 126.97418,108.971703 126.586271,109.185068 Z" id="Path" fill="#000000" transform="translate(131.500000, 117.000000) rotate(-180.000000) translate(-131.500000, -117.000000) "></path>
        <path d="M126.586271,89.1850683 C120.757334,92.3680549 117.652344,98.1289109 119.562711,102.46267 C121.600093,107.086745 128.603055,108.391419 135.192362,105.376327 C141.783386,102.361234 145.477105,96.1596566 143.439724,91.5373304 C141.402342,86.9132553 134.39938,85.6085806 127.810073,88.6236734 C127.398134,88.8125539 126.97418,88.9717032 126.586271,89.1850683 Z" id="Path" fill="#000000" transform="translate(131.500000, 97.000000) rotate(-180.000000) translate(-131.500000, -97.000000) "></path>
        <path d="M226.586271,119.185068 C220.757334,122.368055 217.652344,128.128911 219.562711,132.46267 C221.600093,137.086745 228.603055,138.391419 235.192362,135.376327 C241.783386,132.361234 245.477105,126.159657 243.439724,121.53733 C241.402342,116.913255 234.39938,115.608581 227.810073,118.623673 C227.398134,118.812554 226.97418,118.971703 226.586271,119.185068 Z" id="Path" fill="#000000" transform="translate(231.500000, 127.000000) rotate(-180.000000) translate(-231.500000, -127.000000) "></path>
        <path d="M226.586271,139.185068 C220.757334,142.368055 217.652344,148.128911 219.562711,152.46267 C221.600093,157.086745 228.603055,158.391419 235.192362,155.376327 C241.783386,152.361234 245.477105,146.159657 243.439724,141.53733 C241.402342,136.913255 234.39938,135.608581 227.810073,138.623673 C227.398134,138.812554 226.97418,138.971703 226.586271,139.185068 Z" id="Path" fill="#000000" transform="translate(231.500000, 147.000000) rotate(-180.000000) translate(-231.500000, -147.000000) "></path>
        <path d="M226.586271,99.1850683 C220.757334,102.368055 217.652344,108.128911 219.562711,112.46267 C221.600093,117.086745 228.603055,118.391419 235.192362,115.376327 C241.783386,112.361234 245.477105,106.159657 243.439724,101.53733 C241.402342,96.9132553 234.39938,95.6085806 227.810073,98.6236734 C227.398134,98.8125539 226.97418,98.9717032 226.586271,99.1850683 Z" id="Path" fill="#000000" transform="translate(231.500000, 107.000000) rotate(-180.000000) translate(-231.500000, -107.000000) "></path>
        <path d="M226.586271,79.1850683 C220.757334,82.3680549 217.652344,88.1289109 219.562711,92.4626696 C221.600093,97.0867447 228.603055,98.3914194 235.192362,95.3763266 C241.783386,92.3612338 245.477105,86.1596566 243.439724,81.5373304 C241.402342,76.9132553 234.39938,75.6085806 227.810073,78.6236734 C227.398134,78.8125539 226.97418,78.9717032 226.586271,79.1850683 Z" id="Path" fill="#000000" transform="translate(231.500000, 87.000000) rotate(-180.000000) translate(-231.500000, -87.000000) "></path>
        <path d="M326.586271,109.185068 C320.757334,112.368055 317.652344,118.128911 319.562711,122.46267 C321.600093,127.086745 328.603055,128.391419 335.192362,125.376327 C341.783386,122.361234 345.477105,116.159657 343.439724,111.53733 C341.402342,106.913255 334.39938,105.608581 327.810073,108.623673 C327.398134,108.812554 326.97418,108.971703 326.586271,109.185068 Z" id="Path" fill="#000000" transform="translate(331.500000, 117.000000) rotate(-180.000000) translate(-331.500000, -117.000000) "></path>
        <path d="M326.586271,129.185068 C320.757334,132.368055 317.652344,138.128911 319.562711,142.46267 C321.600093,147.086745 328.603055,148.391419 335.192362,145.376327 C341.783386,142.361234 345.477105,136.159657 343.439724,131.53733 C341.402342,126.913255 334.39938,125.608581 327.810073,128.623673 C327.398134,128.812554 326.97418,128.971703 326.586271,129.185068 Z" id="Path" fill="#000000" transform="translate(331.500000, 137.000000) rotate(-180.000000) translate(-331.500000, -137.000000) "></path>
        <path d="M326.586271,89.1850683 C320.757334,92.3680549 317.652344,98.1289109 319.562711,102.46267 C321.600093,107.086745 328.603055,108.391419 335.192362,105.376327 C341.783386,102.361234 345.477105,96.1596566 343.439724,91.5373304 C341.402342,86.9132553 334.39938,85.6085806 327.810073,88.6236734 C327.398134,88.8125539 326.97418,88.9717032 326.586271,89.1850683 Z" id="Path" fill="#000000" transform="translate(331.500000, 97.000000) rotate(-180.000000) translate(-331.500000, -97.000000) "></path>
        <path d="M326.586271,69.1850683 C320.757334,72.3680549 317.652344,78.1289109 319.562711,82.4626696 C321.600093,87.0867447 328.603055,88.3914194 335.192362,85.3763266 C341.783386,82.3612338 345.477105,76.1596566 343.439724,71.5373304 C341.402342,66.9132553 334.39938,65.6085806 327.810073,68.6236734 C327.398134,68.8125539 326.97418,68.9717032 326.586271,69.1850683 Z" id="Path" fill="#000000" transform="translate(331.500000, 77.000000) rotate(-180.000000) translate(-331.500000, -77.000000) "></path>
        <g id="Group" transform="translate(194.000000, 177.000000)" fill="#0C0C0C" fill-rule="nonzero">
            <g id="CN-Root">
                <path d="M21.2316459,30.0879121 L21.2316459,28.2679121 L19.3336459,28.2679121 L19.3336459,14.3839121 L21.2316459,14.3839121 L21.2316459,12.5639121 L14.7576459,12.5639121 L14.7576459,14.3839121 L16.6556459,14.3839121 L16.6556459,28.2679121 L14.7576459,28.2679121 L14.7576459,30.0879121 L21.2316459,30.0879121 Z M28.2525425,30.0879121 L28.2525425,28.2679121 L26.3545425,28.2679121 L26.3545425,14.3839121 L28.2525425,14.3839121 L28.2525425,12.5639121 L21.7785425,12.5639121 L21.7785425,14.3839121 L23.6765425,14.3839121 L23.6765425,28.2679121 L21.7785425,28.2679121 L21.7785425,30.0879121 L28.2525425,30.0879121 Z" id="Combined-Shape"></path>
            </g>
        </g>
        <g id="Group" transform="translate(504.000000, 177.000000)" fill="#0C0C0C" fill-rule="nonzero">
            <g id="CN-Root">
                <path d="M23.1430942,30.0879121 L28.8630942,14.3839121 L30.3450942,14.3839121 L30.3450942,12.5639121 L23.7150942,12.5639121 L23.7150942,14.3839121 L26.2890942,14.3839121 L21.8950942,26.6819121 L21.6610942,27.7479121 L21.5050942,27.7479121 L21.2710942,26.6819121 L16.9550942,14.3839121 L19.5290942,14.3839121 L19.5290942,12.5639121 L12.6650942,12.5639121 L12.6650942,14.3839121 L14.1210942,14.3839121 L19.7110942,30.0879121 L23.1430942,30.0879121 Z" id="Combined-Shape"></path>
            </g>
        </g>
        <g id="Group" transform="translate(101.000000, 177.000000)" fill="#0C0C0C" fill-rule="nonzero">
            <g id="CN-Root">
                <path d="M24.7420942,30.0879121 L24.7420942,28.2679121 L22.8440942,28.2679121 L22.8440942,14.3839121 L24.7420942,14.3839121 L24.7420942,12.5639121 L18.2680942,12.5639121 L18.2680942,14.3839121 L20.1660942,14.3839121 L20.1660942,28.2679121 L18.2680942,28.2679121 L18.2680942,30.0879121 L24.7420942,30.0879121 Z" id="Combined-Shape"></path>
            </g>
        </g>
        <g id="Group" transform="translate(127.000000, 177.000000)" fill="#0C0C0C" fill-rule="nonzero">
            <g id="Combined-Shape">
                <path d="M17.5647988,30.2666987 L11.7444863,16.145605 L9.66440816,16.145605 L3.92222066,30.2666987 L17.5647988,30.2666987 Z M14.9964394,28.7041987 L6.40268941,28.7041987 L10.6409707,17.9522456 L14.9964394,28.7041987 Z M21.6266023,34.1876831 C21.8066023,34.1876831 21.9066023,34.0876831 21.9666023,33.9076831 L26.8266023,22.4276831 C26.9466023,22.1076831 27.0066023,21.9876831 27.0066023,21.5476831 L27.0066023,20.4476831 C27.0066023,20.2876831 26.9066023,20.1876831 26.7466023,20.1876831 L18.4066023,20.1876831 C18.2466023,20.1876831 18.1466023,20.2876831 18.1466023,20.4476831 L18.1466023,21.6676831 C18.1466023,21.8476831 18.2466023,21.9476831 18.4066023,21.9476831 L24.0666023,21.9476831 L24.8466023,21.9276831 L24.5066023,22.6876831 L19.7866023,33.9076831 C19.7066023,34.0876831 19.7866023,34.1876831 19.9666023,34.1876831 L21.6266023,34.1876831 Z"></path>
            </g>
        </g>
        <g id="Group" transform="translate(531.000000, 177.000000)" fill="#0C0C0C" fill-rule="nonzero">
            <g id="Combined-Shape">
                <path d="M7.47557562,34 C7.65557562,34 7.75557562,33.9 7.81557562,33.72 L12.6755756,22.24 C12.7955756,21.92 12.8555756,21.8 12.8555756,21.36 L12.8555756,20.26 C12.8555756,20.1 12.7555756,20 12.5955756,20 L4.25557562,20 C4.09557562,20 3.99557562,20.1 3.99557562,20.26 L3.99557562,21.48 C3.99557562,21.66 4.09557562,21.76 4.25557562,21.76 L9.91557562,21.76 L10.6955756,21.74 L10.3555756,22.5 L5.63557562,33.72 C5.55557562,33.9 5.63557562,34 5.81557562,34 L7.47557562,34 Z"></path>
            </g>
        </g>
        <g id="Group" transform="translate(219.000000, 177.000000)" fill="#0C0C0C" fill-rule="nonzero">
            <g id="Combined-Shape">
                <path d="M7.82191441,30.1038961 C8.01991441,30.1038961 8.12991441,29.9938961 8.12991441,29.7958961 L8.12991441,23.5038961 C8.81191441,22.9758961 9.40591441,22.7558961 10.0439144,22.7558961 C11.2099144,22.7558961 11.7599144,23.4818961 11.7599144,24.9338961 L11.7599144,29.7958961 C11.7599144,29.9938961 11.8919144,30.1038961 12.0679144,30.1038961 L13.5859144,30.1038961 C13.7839144,30.1038961 13.8939144,29.9938961 13.8939144,29.7958961 L13.8939144,24.7138961 C13.8939144,24.3178961 13.8499144,23.9438961 13.8059144,23.6138961 C14.4219144,23.0638961 15.1039144,22.7558961 15.8079144,22.7558961 C16.9299144,22.7558961 17.5019144,23.4818961 17.5019144,24.9338961 L17.5019144,29.7958961 C17.5019144,29.9938961 17.6119144,30.1038961 17.8099144,30.1038961 L19.3279144,30.1038961 C19.5259144,30.1038961 19.6359144,29.9938961 19.6359144,29.7958961 L19.6359144,24.7138961 C19.6359144,22.1838961 18.2719144,20.8638961 16.2259144,20.8638961 C15.0599144,20.8638961 14.0259144,21.3038961 13.1899144,22.1398961 C12.6179144,21.3038961 11.6719144,20.8638961 10.5279144,20.8638961 C9.49391441,20.8638961 8.63591441,21.1938961 7.66791441,21.9198961 C7.42591441,21.3698961 6.96391441,21.0838961 6.21591441,21.0838961 L5.31391441,21.0838961 C5.11591441,21.0838961 5.00591441,21.1938961 5.00591441,21.3918961 L5.00591441,22.4918961 C5.00591441,22.6898961 5.11591441,22.7998961 5.31391441,22.7998961 L5.55591441,22.7998961 C5.92991441,22.7998961 5.97391441,22.9978961 5.97391441,23.5258961 L5.97391441,24.3838961 L5.99591441,24.3838961 L5.99591441,29.7958961 C5.99591441,29.9938961 6.08391441,30.1038961 6.30391441,30.1038961 L7.82191441,30.1038961 Z M24.7077561,34 C24.8877561,34 24.9877561,33.9 25.0477561,33.72 L29.9077561,22.24 C30.0277561,21.92 30.0877561,21.8 30.0877561,21.36 L30.0877561,20.26 C30.0877561,20.1 29.9877561,20 29.8277561,20 L21.4877561,20 C21.3277561,20 21.2277561,20.1 21.2277561,20.26 L21.2277561,21.48 C21.2277561,21.66 21.3277561,21.76 21.4877561,21.76 L27.1477561,21.76 L27.9277561,21.74 L27.5877561,22.5 L22.8677561,33.72 C22.7877561,33.9 22.8677561,34 23.0477561,34 L24.7077561,34 Z"></path>
            </g>
        </g>
        <g id="Group" transform="translate(292.000000, 177.000000)" fill="#0C0C0C" fill-rule="nonzero">
            <g id="CN-Root">
                <path d="M17.7211977,30.0879121 L17.7211977,28.2679121 L15.8231977,28.2679121 L15.8231977,14.3839121 L17.7211977,14.3839121 L17.7211977,12.5639121 L11.2471977,12.5639121 L11.2471977,14.3839121 L13.1451977,14.3839121 L13.1451977,28.2679121 L11.2471977,28.2679121 L11.2471977,30.0879121 L17.7211977,30.0879121 Z M24.7420942,30.0879121 L24.7420942,28.2679121 L22.8440942,28.2679121 L22.8440942,14.3839121 L24.7420942,14.3839121 L24.7420942,12.5639121 L18.2680942,12.5639121 L18.2680942,14.3839121 L20.1660942,14.3839121 L20.1660942,28.2679121 L18.2680942,28.2679121 L18.2680942,30.0879121 L24.7420942,30.0879121 Z M31.7629908,30.0879121 L31.7629908,28.2679121 L29.8649908,28.2679121 L29.8649908,14.3839121 L31.7629908,14.3839121 L31.7629908,12.5639121 L25.2889908,12.5639121 L25.2889908,14.3839121 L27.1869908,14.3839121 L27.1869908,28.2679121 L25.2889908,28.2679121 L25.2889908,30.0879121 L31.7629908,30.0879121 Z" id="Combined-Shape"></path>
            </g>
        </g>
        <g id="Group" transform="translate(320.000000, 177.000000)" fill="#0C0C0C" fill-rule="nonzero">
            <g id="Combined-Shape">
                <path d="M7.82191441,30.1038961 C8.01991441,30.1038961 8.12991441,29.9938961 8.12991441,29.7958961 L8.12991441,23.5038961 C8.81191441,22.9758961 9.40591441,22.7558961 10.0439144,22.7558961 C11.2099144,22.7558961 11.7599144,23.4818961 11.7599144,24.9338961 L11.7599144,29.7958961 C11.7599144,29.9938961 11.8919144,30.1038961 12.0679144,30.1038961 L13.5859144,30.1038961 C13.7839144,30.1038961 13.8939144,29.9938961 13.8939144,29.7958961 L13.8939144,24.7138961 C13.8939144,24.3178961 13.8499144,23.9438961 13.8059144,23.6138961 C14.4219144,23.0638961 15.1039144,22.7558961 15.8079144,22.7558961 C16.9299144,22.7558961 17.5019144,23.4818961 17.5019144,24.9338961 L17.5019144,29.7958961 C17.5019144,29.9938961 17.6119144,30.1038961 17.8099144,30.1038961 L19.3279144,30.1038961 C19.5259144,30.1038961 19.6359144,29.9938961 19.6359144,29.7958961 L19.6359144,24.7138961 C19.6359144,22.1838961 18.2719144,20.8638961 16.2259144,20.8638961 C15.0599144,20.8638961 14.0259144,21.3038961 13.1899144,22.1398961 C12.6179144,21.3038961 11.6719144,20.8638961 10.5279144,20.8638961 C9.49391441,20.8638961 8.63591441,21.1938961 7.66791441,21.9198961 C7.42591441,21.3698961 6.96391441,21.0838961 6.21591441,21.0838961 L5.31391441,21.0838961 C5.11591441,21.0838961 5.00591441,21.1938961 5.00591441,21.3918961 L5.00591441,22.4918961 C5.00591441,22.6898961 5.11591441,22.7998961 5.31391441,22.7998961 L5.55591441,22.7998961 C5.92991441,22.7998961 5.97391441,22.9978961 5.97391441,23.5258961 L5.97391441,24.3838961 L5.99591441,24.3838961 L5.99591441,29.7958961 C5.99591441,29.9938961 6.08391441,30.1038961 6.30391441,30.1038961 L7.82191441,30.1038961 Z M24.7077561,34 C24.8877561,34 24.9877561,33.9 25.0477561,33.72 L29.9077561,22.24 C30.0277561,21.92 30.0877561,21.8 30.0877561,21.36 L30.0877561,20.26 C30.0877561,20.1 29.9877561,20 29.8277561,20 L21.4877561,20 C21.3277561,20 21.2277561,20.1 21.2277561,20.26 L21.2277561,21.48 C21.2277561,21.66 21.3277561,21.76 21.4877561,21.76 L27.1477561,21.76 L27.9277561,21.74 L27.5877561,22.5 L22.8677561,33.72 C22.7877561,33.9 22.8677561,34 23.0477561,34 L24.7077561,34 Z"></path>
            </g>
        </g>
        <g id="Group" transform="translate(589.000000, 177.000000)" fill="#0C0C0C" fill-rule="nonzero">
            <g id="CN-Root">
                <path d="M19.6326459,30.0879121 L25.3526459,14.3839121 L26.8346459,14.3839121 L26.8346459,12.5639121 L20.2046459,12.5639121 L20.2046459,14.3839121 L22.7786459,14.3839121 L18.3846459,26.6819121 L18.1506459,27.7479121 L17.9946459,27.7479121 L17.7606459,26.6819121 L13.4446459,14.3839121 L16.0186459,14.3839121 L16.0186459,12.5639121 L9.15464594,12.5639121 L9.15464594,14.3839121 L10.6106459,14.3839121 L16.2006459,30.0879121 L19.6326459,30.0879121 Z M33.2055425,30.0879121 L33.2055425,28.2679121 L31.3075425,28.2679121 L31.3075425,14.3839121 L33.2055425,14.3839121 L33.2055425,12.5639121 L26.7315425,12.5639121 L26.7315425,14.3839121 L28.6295425,14.3839121 L28.6295425,28.2679121 L26.7315425,28.2679121 L26.7315425,30.0879121 L33.2055425,30.0879121 Z" id="Combined-Shape"></path>
            </g>
        </g>
        <g id="Group" transform="translate(619.000000, 177.000000)" fill="#0C0C0C" fill-rule="nonzero">
            <g id="Combined-Shape">
                <path d="M7.82191441,30.1038961 C8.01991441,30.1038961 8.12991441,29.9938961 8.12991441,29.7958961 L8.12991441,23.5038961 C8.81191441,22.9758961 9.40591441,22.7558961 10.0439144,22.7558961 C11.2099144,22.7558961 11.7599144,23.4818961 11.7599144,24.9338961 L11.7599144,29.7958961 C11.7599144,29.9938961 11.8919144,30.1038961 12.0679144,30.1038961 L13.5859144,30.1038961 C13.7839144,30.1038961 13.8939144,29.9938961 13.8939144,29.7958961 L13.8939144,24.7138961 C13.8939144,24.3178961 13.8499144,23.9438961 13.8059144,23.6138961 C14.4219144,23.0638961 15.1039144,22.7558961 15.8079144,22.7558961 C16.9299144,22.7558961 17.5019144,23.4818961 17.5019144,24.9338961 L17.5019144,29.7958961 C17.5019144,29.9938961 17.6119144,30.1038961 17.8099144,30.1038961 L19.3279144,30.1038961 C19.5259144,30.1038961 19.6359144,29.9938961 19.6359144,29.7958961 L19.6359144,24.7138961 C19.6359144,22.1838961 18.2719144,20.8638961 16.2259144,20.8638961 C15.0599144,20.8638961 14.0259144,21.3038961 13.1899144,22.1398961 C12.6179144,21.3038961 11.6719144,20.8638961 10.5279144,20.8638961 C9.49391441,20.8638961 8.63591441,21.1938961 7.66791441,21.9198961 C7.42591441,21.3698961 6.96391441,21.0838961 6.21591441,21.0838961 L5.31391441,21.0838961 C5.11591441,21.0838961 5.00591441,21.1938961 5.00591441,21.3918961 L5.00591441,22.4918961 C5.00591441,22.6898961 5.11591441,22.7998961 5.31391441,22.7998961 L5.55591441,22.7998961 C5.92991441,22.7998961 5.97391441,22.9978961 5.97391441,23.5258961 L5.97391441,24.3838961 L5.99591441,24.3838961 L5.99591441,29.7958961 C5.99591441,29.9938961 6.08391441,30.1038961 6.30391441,30.1038961 L7.82191441,30.1038961 Z M24.7077561,34 C24.8877561,34 24.9877561,33.9 25.0477561,33.72 L29.9077561,22.24 C30.0277561,21.92 30.0877561,21.8 30.0877561,21.36 L30.0877561,20.26 C30.0877561,20.1 29.9877561,20 29.8277561,20 L21.4877561,20 C21.3277561,20 21.2277561,20.1 21.2277561,20.26 L21.2277561,21.48 C21.2277561,21.66 21.3277561,21.76 21.4877561,21.76 L27.1477561,21.76 L27.9277561,21.74 L27.5877561,22.5 L22.8677561,33.72 C22.7877561,33.9 22.8677561,34 23.0477561,34 L24.7077561,34 Z"></path>
            </g>
        </g>
        <path d="M421.586271,99.1850683 C415.757334,102.368055 412.652344,108.128911 414.562711,112.46267 C416.600093,117.086745 423.603055,118.391419 430.192362,115.376327 C436.783386,112.361234 440.477105,106.159657 438.439724,101.53733 C436.402342,96.9132553 429.39938,95.6085806 422.810073,98.6236734 C422.398134,98.8125539 421.97418,98.9717032 421.586271,99.1850683 Z" id="Path" fill="#000000" transform="translate(426.500000, 107.000000) rotate(-180.000000) translate(-426.500000, -107.000000) "></path>
        <path d="M421.586271,119.185068 C415.757334,122.368055 412.652344,128.128911 414.562711,132.46267 C416.600093,137.086745 423.603055,138.391419 430.192362,135.376327 C436.783386,132.361234 440.477105,126.159657 438.439724,121.53733 C436.402342,116.913255 429.39938,115.608581 422.810073,118.623673 C422.398134,118.812554 421.97418,118.971703 421.586271,119.185068 Z" id="Path" fill="#000000" transform="translate(426.500000, 127.000000) rotate(-180.000000) translate(-426.500000, -127.000000) "></path>
        <path d="M421.586271,79.1850683 C415.757334,82.3680549 412.652344,88.1289109 414.562711,92.4626696 C416.600093,97.0867447 423.603055,98.3914194 430.192362,95.3763266 C436.783386,92.3612338 440.477105,86.1596566 438.439724,81.5373304 C436.402342,76.9132553 429.39938,75.6085806 422.810073,78.6236734 C422.398134,78.8125539 421.97418,78.9717032 421.586271,79.1850683 Z" id="Path" fill="#000000" transform="translate(426.500000, 87.000000) rotate(-180.000000) translate(-426.500000, -87.000000) "></path>
        <path d="M421.586271,59.1850683 C415.757334,62.3680549 412.652344,68.1289109 414.562711,72.4626696 C416.600093,77.0867447 423.603055,78.3914194 430.192362,75.3763266 C436.783386,72.3612338 440.477105,66.1596566 438.439724,61.5373304 C436.402342,56.9132553 429.39938,55.6085806 422.810073,58.6236734 C422.398134,58.8125539 421.97418,58.9717032 421.586271,59.1850683 Z" id="Path" fill="#000000" transform="translate(426.500000, 67.000000) rotate(-180.000000) translate(-426.500000, -67.000000) "></path>
        <path d="M521.586271,89.1850683 C515.757334,92.3680549 512.652344,98.1289109 514.562711,102.46267 C516.600093,107.086745 523.603055,108.391419 530.192362,105.376327 C536.783386,102.361234 540.477105,96.1596566 538.439724,91.5373304 C536.402342,86.9132553 529.39938,85.6085806 522.810073,88.6236734 C522.398134,88.8125539 521.97418,88.9717032 521.586271,89.1850683 Z" id="Path" fill="#000000" transform="translate(526.500000, 97.000000) rotate(-180.000000) translate(-526.500000, -97.000000) "></path>
        <path d="M521.586271,109.185068 C515.757334,112.368055 512.652344,118.128911 514.562711,122.46267 C516.600093,127.086745 523.603055,128.391419 530.192362,125.376327 C536.783386,122.361234 540.477105,116.159657 538.439724,111.53733 C536.402342,106.913255 529.39938,105.608581 522.810073,108.623673 C522.398134,108.812554 521.97418,108.971703 521.586271,109.185068 Z" id="Path" fill="#000000" transform="translate(526.500000, 117.000000) rotate(-180.000000) translate(-526.500000, -117.000000) "></path>
        <path d="M521.586271,69.1850683 C515.757334,72.3680549 512.652344,78.1289109 514.562711,82.4626696 C516.600093,87.0867447 523.603055,88.3914194 530.192362,85.3763266 C536.783386,82.3612338 540.477105,76.1596566 538.439724,71.5373304 C536.402342,66.9132553 529.39938,65.6085806 522.810073,68.6236734 C522.398134,68.8125539 521.97418,68.9717032 521.586271,69.1850683 Z" id="Path" fill="#000000" transform="translate(526.500000, 77.000000) rotate(-180.000000) translate(-526.500000, -77.000000) "></path>
        <path d="M521.586271,49.1850683 C515.757334,52.3680549 512.652344,58.1289109 514.562711,62.4626696 C516.600093,67.0867447 523.603055,68.3914194 530.192362,65.3763266 C536.783386,62.3612338 540.477105,56.1596566 538.439724,51.5373304 C536.402342,46.9132553 529.39938,45.6085806 522.810073,48.6236734 C522.398134,48.8125539 521.97418,48.9717032 521.586271,49.1850683 Z" id="Path" fill="#000000" transform="translate(526.500000, 57.000000) rotate(-180.000000) translate(-526.500000, -57.000000) "></path>
        <path d="M621.586271,79.1850683 C615.757334,82.3680549 612.652344,88.1289109 614.562711,92.4626696 C616.600093,97.0867447 623.603055,98.3914194 630.192362,95.3763266 C636.783386,92.3612338 640.477105,86.1596566 638.439724,81.5373304 C636.402342,76.9132553 629.39938,75.6085806 622.810073,78.6236734 C622.398134,78.8125539 621.97418,78.9717032 621.586271,79.1850683 Z" id="Path" fill="#000000" transform="translate(626.500000, 87.000000) rotate(-180.000000) translate(-626.500000, -87.000000) "></path>
        <path d="M621.586271,99.1850683 C615.757334,102.368055 612.652344,108.128911 614.562711,112.46267 C616.600093,117.086745 623.603055,118.391419 630.192362,115.376327 C636.783386,112.361234 640.477105,106.159657 638.439724,101.53733 C636.402342,96.9132553 629.39938,95.6085806 622.810073,98.6236734 C622.398134,98.8125539 621.97418,98.9717032 621.586271,99.1850683 Z" id="Path" fill="#000000" transform="translate(626.500000, 107.000000) rotate(-180.000000) translate(-626.500000, -107.000000) "></path>
        <path d="M621.586271,59.1850683 C615.757334,62.3680549 612.652344,68.1289109 614.562711,72.4626696 C616.600093,77.0867447 623.603055,78.3914194 630.192362,75.3763266 C636.783386,72.3612338 640.477105,66.1596566 638.439724,61.5373304 C636.402342,56.9132553 629.39938,55.6085806 622.810073,58.6236734 C622.398134,58.8125539 621.97418,58.9717032 621.586271,59.1850683 Z" id="Path" fill="#000000" transform="translate(626.500000, 67.000000) rotate(-180.000000) translate(-626.500000, -67.000000) "></path>
        <path d="M621.586271,39.1850683 C615.757334,42.3680549 612.652344,48.1289109 614.562711,52.4626696 C616.600093,57.0867447 623.603055,58.3914194 630.192362,55.3763266 C636.783386,52.3612338 640.477105,46.1596566 638.439724,41.5373304 C636.402342,36.9132553 629.39938,35.6085806 622.810073,38.6236734 C622.398134,38.8125539 621.97418,38.9717032 621.586271,39.1850683 Z" id="Path" fill="#000000" transform="translate(626.500000, 47.000000) rotate(-180.000000) translate(-626.500000, -47.000000) "></path>
        <g id="Group" transform="translate(394.000000, 177.000000)" fill="#0C0C0C" fill-rule="nonzero">
            <g id="Combined-Shape">
                <path d="M16.2786459,30.0879121 L16.2786459,28.2679121 L14.3806459,28.2679121 L14.3806459,14.3839121 L16.2786459,14.3839121 L16.2786459,12.5639121 L9.80464594,12.5639121 L9.80464594,14.3839121 L11.7026459,14.3839121 L11.7026459,28.2679121 L9.80464594,28.2679121 L9.80464594,30.0879121 L16.2786459,30.0879121 Z M26.6535425,30.0879121 L32.3735425,14.3839121 L33.8555425,14.3839121 L33.8555425,12.5639121 L27.2255425,12.5639121 L27.2255425,14.3839121 L29.7995425,14.3839121 L25.4055425,26.6819121 L25.1715425,27.7479121 L25.0155425,27.7479121 L24.7815425,26.6819121 L20.4655425,14.3839121 L23.0395425,14.3839121 L23.0395425,12.5639121 L16.1755425,12.5639121 L16.1755425,14.3839121 L17.6315425,14.3839121 L23.2215425,30.0879121 L26.6535425,30.0879121 Z"></path>
            </g>
        </g>
        <g id="Group" transform="translate(423.000000, 177.000000)" fill="#0C0C0C" fill-rule="nonzero">
            <g id="Combined-Shape">
                <path d="M17.5647988,30.2666987 L11.7444863,16.145605 L9.66440816,16.145605 L3.92222066,30.2666987 L17.5647988,30.2666987 Z M14.9964394,28.7041987 L6.40268941,28.7041987 L10.6409707,17.9522456 L14.9964394,28.7041987 Z M21.6266023,34.1876831 C21.8066023,34.1876831 21.9066023,34.0876831 21.9666023,33.9076831 L26.8266023,22.4276831 C26.9466023,22.1076831 27.0066023,21.9876831 27.0066023,21.5476831 L27.0066023,20.4476831 C27.0066023,20.2876831 26.9066023,20.1876831 26.7466023,20.1876831 L18.4066023,20.1876831 C18.2466023,20.1876831 18.1466023,20.2876831 18.1466023,20.4476831 L18.1466023,21.6676831 C18.1466023,21.8476831 18.2466023,21.9476831 18.4066023,21.9476831 L24.0666023,21.9476831 L24.8466023,21.9276831 L24.5066023,22.6876831 L19.7866023,33.9076831 C19.7066023,34.0876831 19.7866023,34.1876831 19.9666023,34.1876831 L21.6266023,34.1876831 Z"></path>
            </g>
        </g>
        <path d="M50.1620791,158.96278 C49.2662404,158.896201 48.4037992,158.750938 47.5904719,158.529009 C43.3745292,157.385065 40.4551952,154.207444 39.7754579,150.019036 C39.575073,148.792373 39.641868,146.871677 39.9227998,145.776154 C40.1369367,144.936859 40.6555802,143.738442 41.0740312,143.113005 C41.7793077,142.061868 42.9835821,141.067222 44.1858919,140.548715 C45.1740649,140.120997 45.7064603,140.008015 46.9519904,139.963629 C47.9401634,139.927313 48.1837686,139.943454 48.7554552,140.090734 C51.2425863,140.730293 53.2582234,142.86283 54.132452,145.784225 C54.3289078,146.443959 54.3465889,146.611415 54.350518,147.908692 C54.3544471,149.141407 54.3328369,149.397634 54.1776368,149.946404 C53.8338391,151.16298 53.2464361,152.143503 52.3073771,153.061482 C50.9321861,154.409197 49.321248,155.21823 47.1464817,155.658053 L46.2133164,155.847702 L46.8753726,156.13621 C50.4096135,157.689713 54.3230142,157.540416 57.9711994,155.716562 C61.1636071,154.122707 63.6330572,151.237628 64.4817465,148.110445 C64.6880252,147.353869 64.6998125,147.214659 64.6939188,145.776154 L64.6880252,144.246861 L63.4955381,138.331441 C62.8413401,135.077153 62.2873346,132.355495 62.2657245,132.280846 C62.2303624,132.165847 62.1478509,132.181987 61.5820581,132.418039 C57.9260146,133.945315 52.3938176,133.925139 47.3449021,132.3676 C40.4276914,130.235063 34.7815501,125.554376 31.8386413,119.513869 C30.9211925,117.627471 30.384868,115.823793 30.0882196,113.618624 C29.9546296,112.625996 29.9762398,109.997145 30.1294754,108.748289 C30.9486963,102.066205 34.3984611,95.3659626 40.90115,87.8203724 C42.9246453,85.4719587 47.3547249,81.077762 50.3231729,78.4731211 C51.1129254,77.7811058 51.1463229,77.7367199 51.0854216,77.5127733 C50.9479025,76.9942661 50.4705148,74.4783969 50.3231729,73.491821 C49.6395065,68.8938531 49.6414711,63.5554489 50.327102,58.882832 C51.4036801,51.5430306 53.9281379,45.3754185 57.6018624,41.1143793 C58.2717769,40.3356098 59.6901882,39 59.8453883,39 C59.8945023,39 60.3247406,39.5891209 60.7981992,40.3093818 C65.1948813,46.9712907 67.5209186,52.9048684 68.1574356,59.070463 C68.3146003,60.6118617 68.27138,64.2293064 68.0749241,65.6395651 C67.4305489,70.2960417 65.9276616,74.3371693 63.3501608,78.3399637 C61.6645695,80.9607449 59.1263599,83.9386302 56.5351071,86.3394998 C55.943775,86.88827 55.3210099,87.4652858 55.1520579,87.6226537 L54.8455867,87.909144 L56.2030967,94.5851756 L57.5586421,101.263225 L58.2305211,101.210769 C60.1204265,101.059453 62.116418,101.170418 63.5426875,101.503312 C65.4424157,101.949187 67.5798554,102.966026 69.1790061,104.182601 C70.0709157,104.862512 71.5561219,106.381717 72.1828161,107.257329 C73.6817743,109.347497 74.6601245,111.839156 74.9331981,114.258184 C75.0687527,115.454583 74.9882058,117.782822 74.7799625,118.75124 C73.9568125,122.582543 71.5207599,126.185865 67.8097087,129.056821 C66.8922599,129.766994 65.5543955,130.624448 64.581939,131.126815 C63.9238119,131.467779 63.8668397,131.514182 63.91006,131.691725 C63.9925714,132.028654 65.0475394,137.157234 65.4424157,139.136439 C65.6486943,140.17547 65.9669528,141.89643 66.1496567,142.959672 C66.4718443,144.831947 66.4816671,144.928789 66.4384469,146.139311 C66.3598645,148.439304 65.7822843,150.23693 64.4778174,152.256485 C61.9926508,156.099894 57.5409611,158.551202 52.3486328,158.932517 C51.2524091,159.013218 50.8987886,159.019271 50.1620791,158.96278 Z M56.7453149,131.885409 C57.7217005,131.770409 58.9593724,131.504094 59.7609123,131.233744 C60.7431916,130.904886 61.9278204,130.3198 61.880671,130.186642 C61.8590608,130.128134 60.8551714,125.23157 59.6489324,119.304045 C58.4426935,113.37652 57.4368395,108.508202 57.4132648,108.483991 C57.3896901,108.459781 56.9889201,108.516272 56.5233197,108.611096 C53.1069524,109.303112 50.3035273,111.262141 49.0756782,113.816343 C48.6886602,114.62134 48.5413183,115.147918 48.4411258,116.067915 C48.2289535,118.022909 48.8576122,120.169569 50.1443981,121.87237 C50.8928949,122.864999 52.0343034,123.926223 53.0814131,124.606134 C53.4821831,124.866396 53.5588009,124.993501 53.277869,124.932975 C53.1796411,124.912799 52.8358433,124.83815 52.5136557,124.769554 C49.9813397,124.222801 47.5315352,122.79035 46.1425923,121.047197 C44.9226014,119.513869 44.3037654,117.920014 44.1269552,115.848003 C43.9010309,113.207047 44.5925556,110.660914 46.2113518,108.16522 C47.256497,106.553208 49.0599617,104.79795 50.8673556,103.635849 C52.1757516,102.792518 54.1599558,101.933047 55.5115721,101.622346 C55.7591065,101.565855 55.961456,101.493224 55.961456,101.462961 C55.961456,101.376207 53.4566438,89.1237016 53.4153881,89.0066844 C53.3544868,88.8351937 49.9597296,91.6193955 47.6729834,93.7135994 C46.4117368,94.8696484 43.7281498,97.6639378 42.7537287,98.8361271 C39.8127846,102.37287 37.9130564,105.554527 36.8502302,108.716008 C35.7815104,111.903717 35.516295,114.972392 36.0624422,117.875628 C36.726463,121.406319 39.0033864,125.10043 42.0484522,127.588054 C46.183848,130.965412 51.4508295,132.504793 56.7453149,131.885409 Z M64.5053212,128.528226 C67.3244628,126.107181 68.992373,123.353243 69.4854772,120.312814 C69.6505001,119.293957 69.6072798,117.14528 69.4049303,116.19502 C68.5798157,112.345558 66.0612516,109.373725 62.7411476,108.332676 C62.0869496,108.126887 61.9356786,108.110747 60.6469282,108.108729 C59.8296718,108.108729 59.2304815,108.138992 59.1892257,108.187413 C59.14797,108.233817 59.9907656,112.462575 61.3011262,118.771415 C62.4995069,124.547625 63.4817862,129.284803 63.4837508,129.298926 C63.491609,129.363487 63.8354067,129.103225 64.5053212,128.528226 Z M55.2836833,74.0163808 C60.959293,68.3349952 64.3127945,62.8029074 65.0121773,57.9628349 C65.169342,56.8733647 65.1673775,55.0959142 65.0062837,54.1274962 C64.6840961,52.1946952 63.8963081,50.4979462 62.5564791,48.8617233 C62.0240837,48.2120762 61.9435368,48.1777781 60.9376829,48.1797211 C59.8296718,48.1818131 58.8218533,48.7083904 57.7767081,49.8301413 C56.0439675,51.6842582 54.5960878,54.7145996 53.5293325,58.7073063 C52.0460908,64.2656221 51.5903132,71.2180563 52.4036404,75.9269888 L52.5313367,76.6714601 L53.3250184,75.9269888 C53.7611504,75.5174287 54.6412726,74.6579577 55.2836833,74.0163808 Z" id="G-Clef" fill="#000000"></path>
    </g>
</svg>