<?xml version="1.0" encoding="UTF-8"?>
<svg width="530px" height="235px" viewBox="0 0 530 235" version="1.1" xmlns="http://www.w3.org/2000/svg" xmlns:xlink="http://www.w3.org/1999/xlink">
    <title>c4-tension-5th-enharmonic</title>
    <g id="c4-tension-5th-enharmonic" stroke="none" stroke-width="1" fill="none" fill-rule="evenodd">
        <polygon id="Ivory" stroke="#202020" stroke-width="0.75" fill="#FFFFFF" points="36.9410086 135.831235 36.973828 23 8 23 8 217 49 217 49 135.623199"></polygon>
        <polygon id="Ivory" stroke="#202020" stroke-width="0.75" fill="#FFFFFF" points="87.8977636 135.623199 87.9300958 23 64 23 64 135.623199 53 135.623199 53 217 97 217 97 135.623199"></polygon>
        <polygon id="Ivory" stroke="#202020" stroke-width="0.75" fill="#FFFFFF" points="136.119361 135.623199 136.151693 23 114.666198 23 114.666198 135.623199 100 135.623199 100 217 144 217 144 135.623199"></polygon>
        <polygon id="Ivory" stroke="#202020" stroke-width="0.75" fill="#FFFFFF" transform="translate(169.000000, 120.000000) scale(-1, 1) translate(-169.000000, -120.000000) " points="175.628711 135.831235 175.662925 23 147 23 147 217 191 217 191 135.623199"></polygon>
        <polygon id="Ivory" stroke="#202020" stroke-width="0.75" fill="#FFFFFF" points="223.799919 135.831235 223.832578 23 195 23 195 217 237 217 237 135.623199"></polygon>
        <polygon id="Ivory" stroke="#202020" stroke-width="0.75" fill="#FFFFFF" points="275.94125 135.623199 275.973422 23 250.945757 23 250.945757 135.623199 240 135.623199 240 217 285 217 285 135.623199"></polygon>
        <polygon id="Ivory" stroke="#202020" stroke-width="0.75" fill="#FFFFFF" transform="translate(310.000000, 120.000000) scale(-1, 1) translate(-310.000000, -120.000000) " points="315.400162 135.831235 315.432822 23 289 23 289 217 331 217 331 135.623199"></polygon>
        <polygon id="Ivory" stroke="#202020" stroke-width="0.75" fill="#FFFFFF" transform="translate(449.000000, 120.000000) scale(-1, 1) translate(-449.000000, -120.000000) " points="454.400162 135.831235 454.432822 23 428 23 428 217 470 217 470 135.623199"></polygon>
        <rect id="Ebony" fill="#474747" x="35" y="22" width="31" height="115"></rect>
        <rect id="Ebony" fill="#474747" x="85" y="22" width="31" height="115"></rect>
        <rect id="Ebony" fill="#474747" x="135" y="22" width="31" height="115"></rect>
        <rect id="Ebony" fill="#474747" x="223" y="22" width="31" height="115"></rect>
        <rect id="Ebony" fill="#474747" x="275" y="22" width="31" height="115"></rect>
        <polygon id="Ivory" stroke="#202020" stroke-width="0.75" fill="#FFFFFF" points="363.941009 135.831235 363.973828 23 335 23 335 217 376 217 376 135.623199"></polygon>
        <polygon id="Ivory" stroke="#202020" stroke-width="0.75" fill="#FFFFFF" points="414.897764 135.623199 414.930096 23 391 23 391 135.623199 380 135.623199 380 217 424 217 424 135.623199"></polygon>
        <rect id="Ebony" fill="#474747" x="362" y="22" width="31" height="115"></rect>
        <rect id="Ebony" fill="#474747" x="412" y="22" width="31" height="115"></rect>
        <polygon id="Ivory" stroke="#202020" stroke-width="0.75" fill="#FFFFFF" transform="translate(495.000000, 120.000000) scale(-1, 1) translate(-495.000000, -120.000000) " points="500.400162 135.831235 500.432822 23 474 23 474 217 516 217 516 135.623199"></polygon>
        <rect id="Ebony" fill="#474747" x="458" y="22" width="31" height="115"></rect>
        <circle id="Circle" fill="#AAAAAA" cx="168.5" cy="196.5" r="12.5"></circle>
        <circle id="Circle" fill="#AAAAAA" cx="355.5" cy="196.5" r="12.5"></circle>
        <circle id="Circle" fill="#AAAAAA" cx="262.5" cy="196.5" r="12.5"></circle>
        <circle id="Circle" fill="#AAAAAA" cx="75.5" cy="198.5" r="12.5"></circle>
        <g id="Group" transform="translate(69.000000, 192.000000)" fill="#FFFFFF" fill-rule="nonzero">
            <g id="CS-Root">
                <path d="M5.48315789,12 L5.48315789,7.23 L8.77715789,12 L11.7651579,12 L8.45315789,7.392 C10.3071579,6.924 11.2971579,5.664 11.2971579,3.774 C11.2971579,1.308 9.69515789,-0.006 6.72515789,-0.006 L3.01715789,-0.006 L3.01715789,12 L5.48315789,12 Z M6.59915789,5.79 L5.48315789,5.79 L5.48315789,2.028 L6.81515789,2.028 C8.03915789,2.028 8.79515789,2.748 8.79515789,3.9 C8.79515789,5.106 8.00315789,5.79 6.59915789,5.79 Z" id="Combined-Shape"></path>
            </g>
        </g>
        <g id="Group" transform="translate(162.000000, 191.000000)" fill="#FFFFFF" fill-rule="nonzero">
            <g id="CS-Root">
                <path d="M6.74315789,12.234 C9.04715789,12.234 10.7391579,10.506 10.7391579,8.166 C10.7391579,6.132 9.47915789,4.71 7.53515789,4.548 L10.8651579,0.066 L3.55715789,0.066 L3.55715789,2.046 L7.01315789,2.046 L4.27715789,5.7 L5.57315789,6.798 C5.91515789,6.582 6.25715789,6.492 6.67115789,6.492 C7.75115789,6.492 8.52515789,7.266 8.52515789,8.328 C8.52515789,9.372 7.71515789,10.164 6.68915789,10.164 C5.80715789,10.164 5.17715789,9.606 5.03315789,8.67 L2.96315789,8.742 C3.07115789,9.642 3.21515789,10.11 3.57515789,10.65 C4.24115789,11.658 5.41115789,12.234 6.74315789,12.234 Z" id="Combined-Shape"></path>
            </g>
        </g>
        <g id="Group" transform="translate(256.000000, 191.000000)" fill="#FFFFFF" fill-rule="nonzero">
            <g id="CS-Root">
                <path d="M6.90515789,12.234 C9.19115789,12.234 10.8471579,10.542 10.8471579,8.166 C10.8471579,6.024 9.35315789,4.404 7.35515789,4.404 C6.83315789,4.404 6.43715789,4.494 5.87915789,4.728 L5.87915789,2.154 L9.89315789,2.154 L9.89315789,0.066 L3.77315789,0.066 L3.77315789,7.176 L5.28515789,7.176 C5.71715789,6.6 6.18515789,6.366 6.81515789,6.366 C7.82315789,6.366 8.59715789,7.176 8.59715789,8.22 C8.59715789,9.264 7.82315789,10.056 6.83315789,10.056 C6.02315789,10.056 5.50115789,9.642 5.15915789,8.742 L3.14315789,9.498 C3.46715789,10.344 3.70115789,10.704 4.13315789,11.154 C4.85315789,11.856 5.82515789,12.234 6.90515789,12.234 Z" id="Combined-Shape"></path>
            </g>
        </g>
        <circle id="Circle" fill="#FF6633" cx="291" cy="115" r="15"></circle>
        <g id="Group" transform="translate(284.000000, 108.000000)" fill="#FFFFFF" fill-rule="nonzero">
            <g id="CS-Root">
                <path d="M6.46766316,14 L6.46766316,-0.7096 L1.06766316,2.0984 L1.06766316,4.6688 L3.68126316,3.2648 L3.68126316,14 L6.46766316,14 Z M12.6812632,14.2808 C15.4460632,14.2808 17.4764632,12.2072 17.4764632,9.3992 C17.4764632,6.9584 15.9644632,5.252 13.6316632,5.0576 L17.6276632,-0.3208 L8.85806316,-0.3208 L8.85806316,2.0552 L13.0052632,2.0552 L9.72206316,6.44 L11.2772632,7.7576 C11.6876632,7.4984 12.0980632,7.3904 12.5948632,7.3904 C13.8908632,7.3904 14.8196632,8.3192 14.8196632,9.5936 C14.8196632,10.8464 13.8476632,11.7968 12.6164632,11.7968 C11.5580632,11.7968 10.8020632,11.1272 10.6292632,10.004 L8.14526316,10.0904 C8.27486316,11.1704 8.44766316,11.732 8.87966316,12.38 C9.67886316,13.5896 11.0828632,14.2808 12.6812632,14.2808 Z" id="Combined-Shape"></path>
            </g>
        </g>
        <polygon id="Path" fill="#FFFFFF" fill-rule="nonzero" points="284.453333 114.8 277.213333 114.8 277.213333 116.96 284.453333 116.96"></polygon>
        <circle id="Circle" fill="#FF6633" cx="238" cy="65" r="15"></circle>
        <g id="Group" transform="translate(234.000000, 58.000000)" fill="#FFFFFF" fill-rule="nonzero">
            <g id="CS-Root">
                <path d="M8.37566316,14.2808 C11.1188632,14.2808 13.1060632,12.2504 13.1060632,9.3992 C13.1060632,6.8288 11.3132632,4.8848 8.91566316,4.8848 C8.28926316,4.8848 7.81406316,4.9928 7.14446316,5.2736 L7.14446316,2.1848 L11.9612632,2.1848 L11.9612632,-0.3208 L4.61726316,-0.3208 L4.61726316,8.2112 L6.43166316,8.2112 C6.95006316,7.52 7.51166316,7.2392 8.26766316,7.2392 C9.47726316,7.2392 10.4060632,8.2112 10.4060632,9.464 C10.4060632,10.7168 9.47726316,11.6672 8.28926316,11.6672 C7.31726316,11.6672 6.69086316,11.1704 6.28046316,10.0904 L3.86126316,10.9976 C4.25006316,12.0128 4.53086316,12.4448 5.04926316,12.9848 C5.91326316,13.8272 7.07966316,14.2808 8.37566316,14.2808 Z" id="Combined-Shape"></path>
            </g>
        </g>
        <polygon id="Path" fill="#FFFFFF" fill-rule="nonzero" points="235.453333 64.8 228.213333 64.8 228.213333 66.96 235.453333 66.96"></polygon>
        <g id="Group" transform="translate(349.000000, 191.000000)" fill="#FFFFFF" fill-rule="nonzero">
            <g id="CS-Root">
                <path d="M6.14915789,12 L10.8651579,0.066 L3.77315789,0.066 L3.77315789,2.154 L7.64315789,2.154 L3.75515789,12 L6.14915789,12 Z" id="Combined-Shape"></path>
            </g>
        </g>
        <circle id="Circle" fill="#2365FF" cx="238" cy="115" r="15"></circle>
        <g id="Group" transform="translate(233.000000, 108.000000)" fill="#FFFFFF" fill-rule="nonzero">
            <g id="CS-Root">
                <path d="M6.46766316,14 L6.46766316,-0.7096 L1.06766316,2.0984 L1.06766316,4.6688 L3.68126316,3.2648 L3.68126316,14 L6.46766316,14 Z M15.4676632,14 L15.4676632,-0.7096 L10.0676632,2.0984 L10.0676632,4.6688 L12.6812632,3.2648 L12.6812632,14 L15.4676632,14 Z" id="Combined-Shape"></path>
            </g>
        </g>
        <g id="+" transform="translate(224.213333, 111.340000)" fill="#FFFFFF" fill-rule="nonzero">
            <polygon id="Path" points="9.24 3.46 5.8 3.46 5.8 0 3.46 0 3.46 3.46 0 3.46 0 5.62 3.46 5.62 3.46 9.06 5.8 9.06 5.8 5.62 9.24 5.62"></polygon>
        </g>
        <circle id="Circle" fill="#2365FF" cx="292" cy="65" r="15"></circle>
        <g id="Group" transform="translate(287.000000, 58.000000)" fill="#FFFFFF" fill-rule="nonzero">
            <g id="CS-Root">
                <path d="M8.37566316,14.2808 C11.1188632,14.2808 13.1060632,12.2504 13.1060632,9.3992 C13.1060632,6.8288 11.3132632,4.8848 8.91566316,4.8848 C8.28926316,4.8848 7.81406316,4.9928 7.14446316,5.2736 L7.14446316,2.1848 L11.9612632,2.1848 L11.9612632,-0.3208 L4.61726316,-0.3208 L4.61726316,8.2112 L6.43166316,8.2112 C6.95006316,7.52 7.51166316,7.2392 8.26766316,7.2392 C9.47726316,7.2392 10.4060632,8.2112 10.4060632,9.464 C10.4060632,10.7168 9.47726316,11.6672 8.28926316,11.6672 C7.31726316,11.6672 6.69086316,11.1704 6.28046316,10.0904 L3.86126316,10.9976 C4.25006316,12.0128 4.53086316,12.4448 5.04926316,12.9848 C5.91326316,13.8272 7.07966316,14.2808 8.37566316,14.2808 Z" id="Combined-Shape"></path>
            </g>
        </g>
        <g id="≒" transform="translate(238.205078, 90.882813) rotate(-270.000000) translate(-238.205078, -90.882813) translate(233.183594, 84.689453)" fill="#FFFFFF" fill-rule="nonzero">
            <path d="M1.171875,0 C1.53125,0 1.83007812,0.12109375 2.06835937,0.36328125 C2.30664062,0.60546875 2.42578125,0.90625 2.42578125,1.265625 C2.42578125,1.6015625 2.3203125,1.87304688 2.109375,2.08007812 C1.8984375,2.28710938 1.62109375,2.390625 1.27734375,2.390625 C0.92578125,2.390625 0.630859375,2.27734375 0.392578125,2.05078125 C0.154296875,1.82421875 0.03515625,1.54296875 0.03515625,1.20703125 C0.03515625,0.84765625 0.140625,0.556640625 0.3515625,0.333984375 C0.5625,0.111328125 0.8359375,0 1.171875,0 Z M10.0195312,3.64453125 L10.03125,4.875 L-2.27373675e-13,4.875 L0.0234375,3.64453125 L10.0195312,3.64453125 Z M10.0429687,7.60546875 L10.03125,8.8125 L0.01171875,8.8125 L0.01171875,7.59375 L10.0429687,7.60546875 Z M8.87109375,10.0078125 C9.18359375,10.0078125 9.453125,10.1210938 9.6796875,10.3476562 C9.90625,10.5742188 10.0195312,10.8476562 10.0195312,11.1679688 C10.0195312,11.5117188 9.90625,11.8007812 9.6796875,12.0351562 C9.453125,12.2695312 9.17578125,12.3867188 8.84765625,12.3867188 C8.51953125,12.3867188 8.23632812,12.2695312 7.99804687,12.0351562 C7.75976562,11.8007812 7.640625,11.5195312 7.640625,11.1914062 C7.640625,10.8632812 7.75976562,10.5839844 7.99804687,10.3535156 C8.23632812,10.1230469 8.52734375,10.0078125 8.87109375,10.0078125 Z" id="Shape"></path>
        </g>
        <g id="≒" transform="translate(291.248047, 90.882813) rotate(-270.000000) translate(-291.248047, -90.882813) translate(286.226562, 84.689453)" fill="#FFFFFF" fill-rule="nonzero">
            <path d="M1.171875,0 C1.53125,0 1.83007812,0.12109375 2.06835937,0.36328125 C2.30664062,0.60546875 2.42578125,0.90625 2.42578125,1.265625 C2.42578125,1.6015625 2.3203125,1.87304688 2.109375,2.08007812 C1.8984375,2.28710938 1.62109375,2.390625 1.27734375,2.390625 C0.92578125,2.390625 0.630859375,2.27734375 0.392578125,2.05078125 C0.154296875,1.82421875 0.03515625,1.54296875 0.03515625,1.20703125 C0.03515625,0.84765625 0.140625,0.556640625 0.3515625,0.333984375 C0.5625,0.111328125 0.8359375,0 1.171875,0 Z M10.0195312,3.64453125 L10.03125,4.875 L-2.27373675e-13,4.875 L0.0234375,3.64453125 L10.0195312,3.64453125 Z M10.0429687,7.60546875 L10.03125,8.8125 L0.01171875,8.8125 L0.01171875,7.59375 L10.0429687,7.60546875 Z M8.87109375,10.0078125 C9.18359375,10.0078125 9.453125,10.1210938 9.6796875,10.3476562 C9.90625,10.5742188 10.0195312,10.8476562 10.0195312,11.1679688 C10.0195312,11.5117188 9.90625,11.8007812 9.6796875,12.0351562 C9.453125,12.2695312 9.17578125,12.3867188 8.84765625,12.3867188 C8.51953125,12.3867188 8.23632812,12.2695312 7.99804687,12.0351562 C7.75976562,11.8007812 7.640625,11.5195312 7.640625,11.1914062 C7.640625,10.8632812 7.75976562,10.5839844 7.99804687,10.3535156 C8.23632812,10.1230469 8.52734375,10.0078125 8.87109375,10.0078125 Z" id="Shape"></path>
        </g>
        <g id="+" transform="translate(280.213333, 61.340000)" fill="#FFFFFF" fill-rule="nonzero">
            <polygon id="Path" points="9.24 3.46 5.8 3.46 5.8 0 3.46 0 3.46 3.46 0 3.46 0 5.62 3.46 5.62 3.46 9.06 5.8 9.06 5.8 5.62 9.24 5.62"></polygon>
        </g>
    </g>
</svg>