<?xml version="1.0" encoding="UTF-8"?>
<svg width="520px" height="255px" viewBox="0 0 520 255" version="1.1" xmlns="http://www.w3.org/2000/svg" xmlns:xlink="http://www.w3.org/1999/xlink">
    <title>c4-tensions-horizontal</title>
    <g id="c4-tensions-horizontal" stroke="none" stroke-width="1" fill="none" fill-rule="evenodd">
        <g id="Group" transform="translate(18.000000, 61.000000)" stroke="#000000">
            <line x1="2" y1="1" x2="488" y2="1" id="horizon"></line>
            <line x1="2" y1="21" x2="488" y2="21" id="horizon"></line>
            <line x1="2" y1="41" x2="488" y2="41" id="horizon"></line>
            <line x1="2" y1="61" x2="488" y2="61" id="horizon"></line>
            <line x1="2" y1="81" x2="488" y2="81" id="horizon"></line>
            <line x1="-37.6277279" y1="40.9933827" x2="40.3722721" y2="41.0066173" id="bar" stroke-width="2.72167481" stroke-linecap="round" stroke-linejoin="round" transform="translate(1.372272, 41.000000) rotate(90.000000) translate(-1.372272, -41.000000) "></line>
            <line x1="488.5" y1="1" x2="488.5" y2="81" id="bar" stroke-linecap="square"></line>
        </g>
        <path d="M43.1296633,140.970224 C42.4129923,140.916961 41.7230393,140.800751 41.0723775,140.623207 C37.6996234,139.708052 35.3641562,137.165955 34.8203664,133.815229 C34.6600584,132.833898 34.7134944,131.297342 34.9382399,130.420924 C35.1095494,129.749487 35.5244641,128.790753 35.8592249,128.290404 C36.4234461,127.449494 37.3868657,126.653778 38.3487135,126.238972 C39.1392519,125.896798 39.5651682,125.806412 40.5615923,125.770903 C41.3521307,125.741851 41.5470149,125.754763 42.0043641,125.872587 C43.9940691,126.384235 45.6065787,128.090264 46.3059616,130.42738 C46.4631263,130.955168 46.4772711,131.089132 46.4804144,132.126953 C46.4835577,133.113126 46.4662696,133.318107 46.3421095,133.757124 C46.0670713,134.730384 45.5971488,135.514802 44.8459016,136.249186 C43.7457488,137.327358 42.4569984,137.974584 40.7171854,138.326443 L39.9706531,138.478161 L40.5002981,138.708968 C43.3276908,139.951771 46.4584113,139.832333 49.3769595,138.373249 C51.9308857,137.098166 53.9064458,134.790103 54.5853972,132.288356 C54.7504201,131.683095 54.75985,131.571727 54.7551351,130.420924 L54.7504201,129.197489 L53.7964305,124.465153 C53.2730721,121.861723 52.8298677,119.684396 52.8125796,119.624677 C52.7842899,119.532677 52.7182807,119.545589 52.2656465,119.734431 C49.3408117,120.956252 44.9150541,120.940111 40.8759217,119.69408 C35.3421531,117.988051 30.82524,114.243501 28.4709131,109.411095 C27.736954,107.901977 27.3078944,106.459034 27.0705757,104.694899 C26.9637037,103.900797 26.9809918,101.797716 27.1035803,100.798631 C27.758957,95.4529637 30.5187689,90.0927701 35.72092,84.0562979 C37.3397163,82.177567 40.8837799,78.6622096 43.2585383,76.5784969 C43.8903404,76.0248846 43.9170584,75.989376 43.8683373,75.8102186 C43.758322,75.3954129 43.3764118,73.3827175 43.2585383,72.5934568 C42.7116052,68.9150825 42.7131769,64.6443591 43.2616816,60.9062656 C44.1229441,55.0344245 46.1425103,50.1003348 49.0814899,46.6915034 C49.6174215,46.0684879 50.7521505,45 50.8763106,45 C50.9156018,45 51.2597925,45.4712968 51.6385594,46.0475055 C55.155905,51.3770325 57.0167349,56.1238947 57.5259485,61.0563704 C57.6516802,62.2894893 57.617104,65.1834451 57.4599393,66.3116521 C56.9444391,70.0368333 55.7421293,73.2697354 53.6801286,76.4719709 C52.3316556,78.5685959 50.3010879,80.9509042 48.2280857,82.8715999 C47.75502,83.310616 47.2568079,83.7722286 47.1216463,83.8981229 L46.8764694,84.1273152 L47.9624774,89.4681405 L49.0469137,94.8105798 L49.5844169,94.768615 C51.0963412,94.6475627 52.6931344,94.7363344 53.83415,95.0026493 C55.3539325,95.35935 57.0638843,96.1728211 58.3432048,97.1460812 C59.0567325,97.6900093 60.2448975,98.9053739 60.7462529,99.6058629 C61.9454194,101.277998 62.7280996,103.271325 62.9465585,105.206547 C63.0550021,106.163667 62.9905646,108.026257 62.82397,108.800992 C62.16545,111.866035 60.2166079,114.748692 57.247767,117.045457 C56.5138079,117.613596 55.4435164,118.299558 54.6655512,118.701452 C54.1390495,118.974223 54.0934717,119.011346 54.128048,119.15338 C54.1940571,119.422923 55.0380315,123.525787 55.3539325,125.109151 C55.5189554,125.940376 55.7735622,127.317144 55.9197254,128.167738 C56.1774755,129.665558 56.1853337,129.743031 56.1507575,130.711449 C56.0878916,132.551443 55.6258274,133.989544 54.5822539,135.605188 C52.5941206,138.679915 49.0327689,140.640962 44.8789062,140.946013 C44.0019273,141.010574 43.7190309,141.015416 43.1296633,140.970224 Z M48.3962519,119.308327 C49.1773604,119.216327 50.1674979,119.003275 50.8087298,118.786995 C51.5945532,118.523908 52.5422563,118.05584 52.5045368,117.949314 C52.4872487,117.902507 51.6841371,113.985256 50.7191459,109.243236 C49.7541548,104.501216 48.9494716,100.606561 48.9306118,100.587193 C48.9117521,100.567825 48.5911361,100.613018 48.2186558,100.688877 C45.4855619,101.242489 43.2428219,102.809712 42.2605426,104.853074 C41.9509281,105.497072 41.8330546,105.918334 41.7529006,106.654332 C41.5831628,108.218327 42.0860898,109.935655 43.1155185,111.297896 C43.7143159,112.091999 44.6274427,112.940979 45.4651305,113.484907 C45.7857465,113.693117 45.8470407,113.794801 45.6222952,113.74638 C45.5437129,113.730239 45.2686747,113.67052 45.0109246,113.615643 C42.9850718,113.178241 41.0252281,112.03228 39.9140738,110.637758 C38.9380811,109.411095 38.4430124,108.136011 38.3015641,106.478403 C38.1208247,104.365637 38.6740444,102.328731 39.9690815,100.332176 C40.8051976,99.0425664 42.2479694,97.6383603 43.6938845,96.708679 C44.7406013,96.0340145 46.3279646,95.3464377 47.4092577,95.0978771 C47.6072852,95.0526843 47.7691648,94.9945792 47.7691648,94.9703687 C47.7691648,94.9009654 45.7653151,85.0989613 45.7323105,85.0053475 C45.6835894,84.868155 42.9677837,87.0955164 41.1383867,88.7708795 C40.1293894,89.6957187 37.9825198,91.9311502 37.202983,92.8689017 C34.8502276,95.6982963 33.3304451,98.2436216 32.4801842,100.772807 C31.6252083,103.322974 31.413036,105.777914 31.8499538,108.100503 C32.3811704,110.925055 34.2027091,113.880344 36.6387618,115.870443 C39.9470784,118.572329 44.1606636,119.803834 48.3962519,119.308327 Z M54.604257,116.622581 C56.8595702,114.685745 58.1938984,112.482594 58.5883818,110.050251 C58.7204001,109.235166 58.6858239,107.516224 58.5239442,106.756016 C57.8638526,103.676447 55.8490013,101.29898 53.1929181,100.466141 C52.6695597,100.30151 52.5485429,100.288598 51.5175426,100.286984 C50.8637375,100.286984 50.3843852,100.311194 50.3513806,100.349931 C50.318376,100.387053 50.9926125,103.77006 52.040901,108.817132 C52.9996055,113.4381 53.785429,117.227842 53.7870006,117.239141 C53.7932872,117.29079 54.0683254,117.08258 54.604257,116.622581 Z M47.2269466,73.0131046 C51.7674344,68.4679962 54.4502356,64.0423259 55.0097419,60.1702679 C55.1354736,59.2986917 55.133902,57.8767313 55.0050269,57.1019969 C54.7472768,55.5557562 54.1170465,54.198357 53.0451833,52.8893786 C52.619267,52.369661 52.5548295,52.3422225 51.7501463,52.3437768 C50.8637375,52.3454505 50.0574826,52.7667123 49.2213665,53.664113 C47.835174,55.1474066 46.6768702,57.5716797 45.823466,60.765845 C44.6368726,65.2124977 44.2722505,70.774445 44.9229123,74.541591 L45.0250694,75.1371681 L45.6600147,74.541591 C46.0089203,74.213943 46.7130181,73.5263662 47.2269466,73.0131046 Z" id="G-Clef" fill="#000000"></path>
        <path d="M126.586271,134.185068 C120.757334,137.368055 117.652344,143.128911 119.562711,147.46267 C121.600093,152.086745 128.603055,153.391419 135.192362,150.376327 C141.783386,147.361234 145.477105,141.159657 143.439724,136.53733 C141.402342,131.913255 134.39938,130.608581 127.810073,133.623673 C127.398134,133.812554 126.97418,133.971703 126.586271,134.185068 Z" id="Path" fill="#000000" transform="translate(131.500000, 142.000000) rotate(-180.000000) translate(-131.500000, -142.000000) "></path>
        <path d="M126.586271,154.185068 C120.757334,157.368055 117.652344,163.128911 119.562711,167.46267 C121.600093,172.086745 128.603055,173.391419 135.192362,170.376327 C141.783386,167.361234 145.477105,161.159657 143.439724,156.53733 C141.402342,151.913255 134.39938,150.608581 127.810073,153.623673 C127.398134,153.812554 126.97418,153.971703 126.586271,154.185068 Z" id="Path" fill="#000000" transform="translate(131.500000, 162.000000) rotate(-180.000000) translate(-131.500000, -162.000000) "></path>
        <rect id="Rectangle" fill="#000000" x="111" y="162" width="40" height="1"></rect>
        <rect id="Rectangle" fill="#000000" x="111" y="41" width="40" height="1"></rect>
        <path d="M126.586271,114.185068 C120.757334,117.368055 117.652344,123.128911 119.562711,127.46267 C121.600093,132.086745 128.603055,133.391419 135.192362,130.376327 C141.783386,127.361234 145.477105,121.159657 143.439724,116.53733 C141.402342,111.913255 134.39938,110.608581 127.810073,113.623673 C127.398134,113.812554 126.97418,113.971703 126.586271,114.185068 Z" id="Path" fill="#000000" transform="translate(131.500000, 122.000000) rotate(-180.000000) translate(-131.500000, -122.000000) "></path>
        <path d="M126.586271,94.1850683 C120.757334,97.3680549 117.652344,103.128911 119.562711,107.46267 C121.600093,112.086745 128.603055,113.391419 135.192362,110.376327 C141.783386,107.361234 145.477105,101.159657 143.439724,96.5373304 C141.402342,91.9132553 134.39938,90.6085806 127.810073,93.6236734 C127.398134,93.8125539 126.97418,93.9717032 126.586271,94.1850683 Z" id="Path" fill="#000000" transform="translate(131.500000, 102.000000) rotate(-180.000000) translate(-131.500000, -102.000000) "></path>
        <path d="M126.586271,74.1850683 C120.757334,77.3680549 117.652344,83.1289109 119.562711,87.4626696 C121.600093,92.0867447 128.603055,93.3914194 135.192362,90.3763266 C141.783386,87.3612338 145.477105,81.1596566 143.439724,76.5373304 C141.402342,71.9132553 134.39938,70.6085806 127.810073,73.6236734 C127.398134,73.8125539 126.97418,73.9717032 126.586271,74.1850683 Z" id="Path" fill="#000000" transform="translate(131.500000, 82.000000) rotate(-180.000000) translate(-131.500000, -82.000000) "></path>
        <path d="M126.586271,54.1850683 C120.757334,57.3680549 117.652344,63.1289109 119.562711,67.4626696 C121.600093,72.0867447 128.603055,73.3914194 135.192362,70.3763266 C141.783386,67.3612338 145.477105,61.1596566 143.439724,56.5373304 C141.402342,51.9132553 134.39938,50.6085806 127.810073,53.6236734 C127.398134,53.8125539 126.97418,53.9717032 126.586271,54.1850683 Z" id="Path" fill="#000000" transform="translate(131.500000, 62.000000) rotate(-180.000000) translate(-131.500000, -62.000000) "></path>
        <path d="M126.586271,34.1850683 C120.757334,37.3680549 117.652344,43.1289109 119.562711,47.4626696 C121.600093,52.0867447 128.603055,53.3914194 135.192362,50.3763266 C141.783386,47.3612338 145.477105,41.1596566 143.439724,36.5373304 C141.402342,31.9132553 134.39938,30.6085806 127.810073,33.6236734 C127.398134,33.8125539 126.97418,33.9717032 126.586271,34.1850683 Z" id="Path" fill="#000000" transform="translate(131.500000, 42.000000) rotate(-180.000000) translate(-131.500000, -42.000000) "></path>
        <g id="Group" transform="translate(96.000000, 202.000000)" fill="#0C0C0C" fill-rule="nonzero">
            <g id="CN-Root">
                <path d="M24.7420942,30.0879121 L24.7420942,28.2679121 L22.8440942,28.2679121 L22.8440942,14.3839121 L24.7420942,14.3839121 L24.7420942,12.5639121 L18.2680942,12.5639121 L18.2680942,14.3839121 L20.1660942,14.3839121 L20.1660942,28.2679121 L18.2680942,28.2679121 L18.2680942,30.0879121 L24.7420942,30.0879121 Z" id="Combined-Shape"></path>
            </g>
        </g>
        <g id="Group" transform="translate(120.000000, 202.000000)" fill="#0C0C0C" fill-rule="nonzero">
            <g id="Combined-Shape">
                <path d="M17.5647988,30.2666987 L11.7444863,16.145605 L9.66440816,16.145605 L3.92222066,30.2666987 L17.5647988,30.2666987 Z M14.9964394,28.7041987 L6.40268941,28.7041987 L10.6409707,17.9522456 L14.9964394,28.7041987 Z M21.6266023,34.1876831 C21.8066023,34.1876831 21.9066023,34.0876831 21.9666023,33.9076831 L26.8266023,22.4276831 C26.9466023,22.1076831 27.0066023,21.9876831 27.0066023,21.5476831 L27.0066023,20.4476831 C27.0066023,20.2876831 26.9066023,20.1876831 26.7466023,20.1876831 L18.4066023,20.1876831 C18.2466023,20.1876831 18.1466023,20.2876831 18.1466023,20.4476831 L18.1466023,21.6676831 C18.1466023,21.8476831 18.2466023,21.9476831 18.4066023,21.9476831 L24.0666023,21.9476831 L24.8466023,21.9276831 L24.5066023,22.6876831 L19.7866023,33.9076831 C19.7066023,34.0876831 19.7866023,34.1876831 19.9666023,34.1876831 L21.6266023,34.1876831 Z"></path>
            </g>
        </g>
        <path d="M405.586271,134.185068 C399.757334,137.368055 396.652344,143.128911 398.562711,147.46267 C400.600093,152.086745 407.603055,153.391419 414.192362,150.376327 C420.783386,147.361234 424.477105,141.159657 422.439724,136.53733 C420.402342,131.913255 413.39938,130.608581 406.810073,133.623673 C406.398134,133.812554 405.97418,133.971703 405.586271,134.185068 Z" id="Path" fill="#000000" transform="translate(410.500000, 142.000000) rotate(-180.000000) translate(-410.500000, -142.000000) "></path>
        <path d="M405.586271,154.185068 C399.757334,157.368055 396.652344,163.128911 398.562711,167.46267 C400.600093,172.086745 407.603055,173.391419 414.192362,170.376327 C420.783386,167.361234 424.477105,161.159657 422.439724,156.53733 C420.402342,151.913255 413.39938,150.608581 406.810073,153.623673 C406.398134,153.812554 405.97418,153.971703 405.586271,154.185068 Z" id="Path" fill="#000000" transform="translate(410.500000, 162.000000) rotate(-180.000000) translate(-410.500000, -162.000000) "></path>
        <rect id="Rectangle" fill="#000000" x="390" y="162" width="40" height="1"></rect>
        <rect id="Rectangle" fill="#000000" x="390" y="41" width="40" height="1"></rect>
        <path d="M405.586271,114.185068 C399.757334,117.368055 396.652344,123.128911 398.562711,127.46267 C400.600093,132.086745 407.603055,133.391419 414.192362,130.376327 C420.783386,127.361234 424.477105,121.159657 422.439724,116.53733 C420.402342,111.913255 413.39938,110.608581 406.810073,113.623673 C406.398134,113.812554 405.97418,113.971703 405.586271,114.185068 Z" id="Path" fill="#000000" transform="translate(410.500000, 122.000000) rotate(-180.000000) translate(-410.500000, -122.000000) "></path>
        <path d="M405.586271,94.1850683 C399.757334,97.3680549 396.652344,103.128911 398.562711,107.46267 C400.600093,112.086745 407.603055,113.391419 414.192362,110.376327 C420.783386,107.361234 424.477105,101.159657 422.439724,96.5373304 C420.402342,91.9132553 413.39938,90.6085806 406.810073,93.6236734 C406.398134,93.8125539 405.97418,93.9717032 405.586271,94.1850683 Z" id="Path" fill="#000000" transform="translate(410.500000, 102.000000) rotate(-180.000000) translate(-410.500000, -102.000000) "></path>
        <path d="M405.586271,54.1850683 C399.757334,57.3680549 396.652344,63.1289109 398.562711,67.4626696 C400.600093,72.0867447 407.603055,73.3914194 414.192362,70.3763266 C420.783386,67.3612338 424.477105,61.1596566 422.439724,56.5373304 C420.402342,51.9132553 413.39938,50.6085806 406.810073,53.6236734 C406.398134,53.8125539 405.97418,53.9717032 405.586271,54.1850683 Z" id="Path" fill="#000000" transform="translate(410.500000, 62.000000) rotate(-180.000000) translate(-410.500000, -62.000000) "></path>
        <path d="M405.586271,34.1850683 C399.757334,37.3680549 396.652344,43.1289109 398.562711,47.4626696 C400.600093,52.0867447 407.603055,53.3914194 414.192362,50.3763266 C420.783386,47.3612338 424.477105,41.1596566 422.439724,36.5373304 C420.402342,31.9132553 413.39938,30.6085806 406.810073,33.6236734 C406.398134,33.8125539 405.97418,33.9717032 405.586271,34.1850683 Z" id="Path" fill="#000000" transform="translate(410.500000, 42.000000) rotate(-180.000000) translate(-410.500000, -42.000000) "></path>
        <path d="M265.586271,134.185068 C259.757334,137.368055 256.652344,143.128911 258.562711,147.46267 C260.600093,152.086745 267.603055,153.391419 274.192362,150.376327 C280.783386,147.361234 284.477105,141.159657 282.439724,136.53733 C280.402342,131.913255 273.39938,130.608581 266.810073,133.623673 C266.398134,133.812554 265.97418,133.971703 265.586271,134.185068 Z" id="Path" fill="#000000" transform="translate(270.500000, 142.000000) rotate(-180.000000) translate(-270.500000, -142.000000) "></path>
        <path d="M265.586271,154.185068 C259.757334,157.368055 256.652344,163.128911 258.562711,167.46267 C260.600093,172.086745 267.603055,173.391419 274.192362,170.376327 C280.783386,167.361234 284.477105,161.159657 282.439724,156.53733 C280.402342,151.913255 273.39938,150.608581 266.810073,153.623673 C266.398134,153.812554 265.97418,153.971703 265.586271,154.185068 Z" id="Path" fill="#000000" transform="translate(270.500000, 162.000000) rotate(-180.000000) translate(-270.500000, -162.000000) "></path>
        <rect id="Rectangle" fill="#000000" x="250" y="162" width="40" height="1"></rect>
        <rect id="Rectangle" fill="#000000" x="250" y="41" width="40" height="1"></rect>
        <path d="M265.586271,114.185068 C259.757334,117.368055 256.652344,123.128911 258.562711,127.46267 C260.600093,132.086745 267.603055,133.391419 274.192362,130.376327 C280.783386,127.361234 284.477105,121.159657 282.439724,116.53733 C280.402342,111.913255 273.39938,110.608581 266.810073,113.623673 C266.398134,113.812554 265.97418,113.971703 265.586271,114.185068 Z" id="Path" fill="#000000" transform="translate(270.500000, 122.000000) rotate(-180.000000) translate(-270.500000, -122.000000) "></path>
        <path d="M265.586271,94.1850683 C259.757334,97.3680549 256.652344,103.128911 258.562711,107.46267 C260.600093,112.086745 267.603055,113.391419 274.192362,110.376327 C280.783386,107.361234 284.477105,101.159657 282.439724,96.5373304 C280.402342,91.9132553 273.39938,90.6085806 266.810073,93.6236734 C266.398134,93.8125539 265.97418,93.9717032 265.586271,94.1850683 Z" id="Path" fill="#000000" transform="translate(270.500000, 102.000000) rotate(-180.000000) translate(-270.500000, -102.000000) "></path>
        <path d="M265.586271,74.1850683 C259.757334,77.3680549 256.652344,83.1289109 258.562711,87.4626696 C260.600093,92.0867447 267.603055,93.3914194 274.192362,90.3763266 C280.783386,87.3612338 284.477105,81.1596566 282.439724,76.5373304 C280.402342,71.9132553 273.39938,70.6085806 266.810073,73.6236734 C266.398134,73.8125539 265.97418,73.9717032 265.586271,74.1850683 Z" id="Path" fill="#000000" transform="translate(270.500000, 82.000000) rotate(-180.000000) translate(-270.500000, -82.000000) "></path>
        <path d="M265.586271,34.1850683 C259.757334,37.3680549 256.652344,43.1289109 258.562711,47.4626696 C260.600093,52.0867447 267.603055,53.3914194 274.192362,50.3763266 C280.783386,47.3612338 284.477105,41.1596566 282.439724,36.5373304 C280.402342,31.9132553 273.39938,30.6085806 266.810073,33.6236734 C266.398134,33.8125539 265.97418,33.9717032 265.586271,34.1850683 Z" id="Path" fill="#000000" transform="translate(270.500000, 42.000000) rotate(-180.000000) translate(-270.500000, -42.000000) "></path>
        <g id="Group" transform="translate(383.000000, 43.000000)" fill="#0C0C0C" fill-rule="nonzero">
            <g id="sharp">
                <path d="M3.9137577,25.5883747 L3.9137577,15.6815669 L8.02053388,14.5190333 L8.02053388,24.3752962 L3.9137577,25.5883747 Z M12,23.1917022 L9.17659138,24.0214816 L9.17659138,14.1652188 L12,13.3564998 L12,9.26235982 L9.17659138,10.0710788 L9.17659138,0 L8.02053388,0 L8.02053388,10.3764545 L3.9137577,11.5874269 L3.9137577,1.79434529 L2.82340862,1.79434529 L2.82340862,11.9601959 L0,12.7710209 L0,16.873585 L2.82340862,16.064866 L2.82340862,25.9021745 L0,26.7087874 L0,30.7945032 L2.82340862,29.9857842 L2.82340862,40 L3.9137577,40 L3.9137577,29.6277576 L8.02053388,28.4694361 L8.02053388,38.2119728 L9.17659138,38.2119728 L9.17659138,28.1029853 L12,27.2921603 L12,23.1917022 Z"></path>
            </g>
        </g>
        <g id="Group" transform="translate(151.000000, 206.000000)" fill="#0C0C0C" fill-rule="nonzero">
            <g id="tension-stack">
                <path d="M-5.30963636,13.636 L-4.46963636,13.006 C-4.91763636,12.32 -5.82763636,10.374 -5.82763636,7.07 C-5.82763636,3.752 -4.91763636,1.806 -4.46963636,1.12 L-5.30963636,0.504 C-5.86963636,1.204 -7.28363636,3.304 -7.28363636,7.084 C-7.28363636,10.85 -5.86963636,12.936 -5.30963636,13.636 Z M-1.49145455,10.668 C1.30854545,10.668 2.45654545,8.106 2.45654545,5.306 C2.45654545,2.772 1.53254545,0.896 -0.763454545,0.896 C-2.59745455,0.896 -3.77345455,2.072 -3.77345455,4.032 C-3.77345455,5.796 -2.82145455,6.916 -1.14145455,6.916 C-0.385454545,6.916 0.230545455,6.678 0.664545455,6.286 L0.720545455,6.314 C0.608545455,7.784 -0.0354545455,9.492 -1.70145455,9.492 C-2.10745455,9.492 -2.59745455,9.394 -2.93345455,9.24 L-2.93345455,10.402 C-2.54145455,10.556 -2.06545455,10.668 -1.49145455,10.668 Z M-0.679454545,5.74 C-1.64545455,5.74 -2.02345455,4.942 -2.02345455,3.948 C-2.02345455,2.94 -1.63145455,2.1 -0.777454545,2.1 C0.300545455,2.1 0.706545455,3.36 0.706545455,5.068 C0.328545455,5.488 -0.147454545,5.74 -0.679454545,5.74 Z M3.55872727,12.46 C4.11872727,12.138 4.98672727,11.186 4.98672727,10.038 C4.98672727,9.408 4.70672727,8.862 4.10472727,8.862 C3.61472727,8.862 3.23672727,9.212 3.23672727,9.674 C3.23672727,9.94 3.37672727,10.15 3.50272727,10.318 C3.65672727,10.5 3.76872727,10.64 3.76872727,10.976 C3.76872727,11.438 3.54472727,11.788 3.23672727,12.054 L3.55872727,12.46 Z M11.0449091,10.5 L11.0449091,9.352 L9.74290909,9.352 L9.74290909,1.064 L8.27290909,1.064 L5.87890909,3.122 L6.70490909,4.088 L8.11890909,2.898 L8.11890909,9.352 L6.69090909,9.352 L6.69090909,10.5 L11.0449091,10.5 Z M17.0890909,10.5 L17.0890909,9.352 L15.7870909,9.352 L15.7870909,1.064 L14.3170909,1.064 L11.9230909,3.122 L12.7490909,4.088 L14.1630909,2.898 L14.1630909,9.352 L12.7350909,9.352 L12.7350909,10.5 L17.0890909,10.5 Z M18.9892727,12.46 C19.5492727,12.138 20.4172727,11.186 20.4172727,10.038 C20.4172727,9.408 20.1372727,8.862 19.5352727,8.862 C19.0452727,8.862 18.6672727,9.212 18.6672727,9.674 C18.6672727,9.94 18.8072727,10.15 18.9332727,10.318 C19.0872727,10.5 19.1992727,10.64 19.1992727,10.976 C19.1992727,11.438 18.9752727,11.788 18.6672727,12.054 L18.9892727,12.46 Z M26.4754545,10.5 L26.4754545,9.352 L25.1734545,9.352 L25.1734545,1.064 L23.7034545,1.064 L21.3094545,3.122 L22.1354545,4.088 L23.5494545,2.898 L23.5494545,9.352 L22.1214545,9.352 L22.1214545,10.5 L26.4754545,10.5 Z M29.8036364,10.668 C31.9316364,10.668 33.3596364,9.674 33.3596364,7.812 C33.3596364,6.762 32.9116364,5.95 32.0436364,5.502 L32.0436364,5.418 C32.7716364,4.97 33.1916364,4.228 33.1916364,3.304 C33.1916364,1.708 31.9736364,0.896 30.1536364,0.896 C29.2996364,0.896 28.4596364,1.064 27.6336364,1.372 L27.6336364,3.528 L29.0476364,3.528 L29.0476364,2.226 C29.3416364,2.128 29.6636364,2.072 29.9716364,2.072 C30.9516364,2.072 31.5116364,2.59 31.5116364,3.458 C31.5116364,4.424 30.8676364,5.012 29.8876364,5.012 L28.9216364,5.012 L28.9216364,6.216 L29.6916364,6.216 C30.8816364,6.216 31.6096364,6.762 31.6096364,7.812 C31.6096364,8.89 30.8676364,9.422 29.6356364,9.422 C28.9636364,9.422 28.3196364,9.268 27.6336364,8.988 L27.6336364,10.234 C28.3896364,10.542 29.0476364,10.668 29.8036364,10.668 Z M34.8818182,13.636 C35.4418182,12.936 36.8698182,10.85 36.8698182,7.084 C36.8698182,3.304 35.4418182,1.204 34.8818182,0.504 L34.0558182,1.12 C34.4898182,1.806 35.4138182,3.752 35.4138182,7.07 C35.4138182,10.374 34.4898182,12.32 34.0558182,13.006 L34.8818182,13.636 Z" id="Combined-Shape"></path>
            </g>
        </g>
        <g id="Group" transform="translate(279.000000, 206.000000)" fill="#0C0C0C" fill-rule="nonzero">
            <g id="tension-stack">
                <path d="M5.00072727,13.636 L5.84072727,13.006 C5.39272727,12.32 4.48272727,10.374 4.48272727,7.07 C4.48272727,3.752 5.39272727,1.806 5.84072727,1.12 L5.00072727,0.504 C4.44072727,1.204 3.02672727,3.304 3.02672727,7.084 C3.02672727,10.85 4.44072727,12.936 5.00072727,13.636 Z M8.81890909,10.668 C11.6189091,10.668 12.7669091,8.106 12.7669091,5.306 C12.7669091,2.772 11.8429091,0.896 9.54690909,0.896 C7.71290909,0.896 6.53690909,2.072 6.53690909,4.032 C6.53690909,5.796 7.48890909,6.916 9.16890909,6.916 C9.92490909,6.916 10.5409091,6.678 10.9749091,6.286 L11.0309091,6.314 C10.9189091,7.784 10.2749091,9.492 8.60890909,9.492 C8.20290909,9.492 7.71290909,9.394 7.37690909,9.24 L7.37690909,10.402 C7.76890909,10.556 8.24490909,10.668 8.81890909,10.668 Z M9.63090909,5.74 C8.66490909,5.74 8.28690909,4.942 8.28690909,3.948 C8.28690909,2.94 8.67890909,2.1 9.53290909,2.1 C10.6109091,2.1 11.0169091,3.36 11.0169091,5.068 C10.6389091,5.488 10.1629091,5.74 9.63090909,5.74 Z M13.8690909,12.46 C14.4290909,12.138 15.2970909,11.186 15.2970909,10.038 C15.2970909,9.408 15.0170909,8.862 14.4150909,8.862 C13.9250909,8.862 13.5470909,9.212 13.5470909,9.674 C13.5470909,9.94 13.6870909,10.15 13.8130909,10.318 C13.9670909,10.5 14.0790909,10.64 14.0790909,10.976 C14.0790909,11.438 13.8550909,11.788 13.5470909,12.054 L13.8690909,12.46 Z M20.1372727,7.476 L20.1372727,6.272 L16.6512727,6.272 L16.6512727,7.476 L20.1372727,7.476 Z M26.4754545,10.5 L26.4754545,9.352 L25.1734545,9.352 L25.1734545,1.064 L23.7034545,1.064 L21.3094545,3.122 L22.1354545,4.088 L23.5494545,2.898 L23.5494545,9.352 L22.1214545,9.352 L22.1214545,10.5 L26.4754545,10.5 Z M29.8036364,10.668 C31.9316364,10.668 33.3596364,9.674 33.3596364,7.812 C33.3596364,6.762 32.9116364,5.95 32.0436364,5.502 L32.0436364,5.418 C32.7716364,4.97 33.1916364,4.228 33.1916364,3.304 C33.1916364,1.708 31.9736364,0.896 30.1536364,0.896 C29.2996364,0.896 28.4596364,1.064 27.6336364,1.372 L27.6336364,3.528 L29.0476364,3.528 L29.0476364,2.226 C29.3416364,2.128 29.6636364,2.072 29.9716364,2.072 C30.9516364,2.072 31.5116364,2.59 31.5116364,3.458 C31.5116364,4.424 30.8676364,5.012 29.8876364,5.012 L28.9216364,5.012 L28.9216364,6.216 L29.6916364,6.216 C30.8816364,6.216 31.6096364,6.762 31.6096364,7.812 C31.6096364,8.89 30.8676364,9.422 29.6356364,9.422 C28.9636364,9.422 28.3196364,9.268 27.6336364,8.988 L27.6336364,10.234 C28.3896364,10.542 29.0476364,10.668 29.8036364,10.668 Z M34.8818182,13.636 C35.4418182,12.936 36.8698182,10.85 36.8698182,7.084 C36.8698182,3.304 35.4418182,1.204 34.8818182,0.504 L34.0558182,1.12 C34.4898182,1.806 35.4138182,3.752 35.4138182,7.07 C35.4138182,10.374 34.4898182,12.32 34.0558182,13.006 L34.8818182,13.636 Z" id="Combined-Shape"></path>
            </g>
        </g>
        <g id="Group" transform="translate(423.000000, 206.000000)" fill="#0C0C0C" fill-rule="nonzero">
            <g id="tension-stack">
                <path d="M-3.87145455,13.636 L-3.03145455,13.006 C-3.47945455,12.32 -4.38945455,10.374 -4.38945455,7.07 C-4.38945455,3.752 -3.47945455,1.806 -3.03145455,1.12 L-3.87145455,0.504 C-4.43145455,1.204 -5.84545455,3.304 -5.84545455,7.084 C-5.84545455,10.85 -4.43145455,12.936 -3.87145455,13.636 Z M1.76672727,10.5 L1.76672727,7.77 L4.32872727,7.77 L4.32872727,6.608 L1.76672727,6.608 L1.76672727,3.892 L0.618727273,3.892 L0.618727273,6.608 L-1.95727273,6.608 L-1.95727273,7.77 L0.618727273,7.77 L0.618727273,10.5 L1.76672727,10.5 Z M11.0449091,10.5 L11.0449091,9.352 L9.74290909,9.352 L9.74290909,1.064 L8.27290909,1.064 L5.87890909,3.122 L6.70490909,4.088 L8.11890909,2.898 L8.11890909,9.352 L6.69090909,9.352 L6.69090909,10.5 L11.0449091,10.5 Z M17.0890909,10.5 L17.0890909,9.352 L15.7870909,9.352 L15.7870909,1.064 L14.3170909,1.064 L11.9230909,3.122 L12.7490909,4.088 L14.1630909,2.898 L14.1630909,9.352 L12.7350909,9.352 L12.7350909,10.5 L17.0890909,10.5 Z M18.9892727,12.46 C19.5492727,12.138 20.4172727,11.186 20.4172727,10.038 C20.4172727,9.408 20.1372727,8.862 19.5352727,8.862 C19.0452727,8.862 18.6672727,9.212 18.6672727,9.674 C18.6672727,9.94 18.8072727,10.15 18.9332727,10.318 C19.0872727,10.5 19.1992727,10.64 19.1992727,10.976 C19.1992727,11.438 18.9752727,11.788 18.6672727,12.054 L18.9892727,12.46 Z M26.4754545,10.5 L26.4754545,9.352 L25.1734545,9.352 L25.1734545,1.064 L23.7034545,1.064 L21.3094545,3.122 L22.1354545,4.088 L23.5494545,2.898 L23.5494545,9.352 L22.1214545,9.352 L22.1214545,10.5 L26.4754545,10.5 Z M29.8036364,10.668 C31.9316364,10.668 33.3596364,9.674 33.3596364,7.812 C33.3596364,6.762 32.9116364,5.95 32.0436364,5.502 L32.0436364,5.418 C32.7716364,4.97 33.1916364,4.228 33.1916364,3.304 C33.1916364,1.708 31.9736364,0.896 30.1536364,0.896 C29.2996364,0.896 28.4596364,1.064 27.6336364,1.372 L27.6336364,3.528 L29.0476364,3.528 L29.0476364,2.226 C29.3416364,2.128 29.6636364,2.072 29.9716364,2.072 C30.9516364,2.072 31.5116364,2.59 31.5116364,3.458 C31.5116364,4.424 30.8676364,5.012 29.8876364,5.012 L28.9216364,5.012 L28.9216364,6.216 L29.6916364,6.216 C30.8816364,6.216 31.6096364,6.762 31.6096364,7.812 C31.6096364,8.89 30.8676364,9.422 29.6356364,9.422 C28.9636364,9.422 28.3196364,9.268 27.6336364,8.988 L27.6336364,10.234 C28.3896364,10.542 29.0476364,10.668 29.8036364,10.668 Z M34.8818182,13.636 C35.4418182,12.936 36.8698182,10.85 36.8698182,7.084 C36.8698182,3.304 35.4418182,1.204 34.8818182,0.504 L34.0558182,1.12 C34.4898182,1.806 35.4138182,3.752 35.4138182,7.07 C35.4138182,10.374 34.4898182,12.32 34.0558182,13.006 L34.8818182,13.636 Z" id="Combined-Shape"></path>
            </g>
        </g>
        <g id="Group" transform="translate(244.000000, 19.000000)" fill="#0C0C0C" fill-rule="nonzero">
            <g id="flat">
                <path d="M1.73324454,11.771558 C1.73324454,11.771558 1.73324454,13.3141985 1.73324454,16.4002221 C3.73230635,14.4230874 5.9761808,13.4107528 8.4641436,13.3624756 C10.0192109,13.3624756 11.3519188,14.0621229 12.4629915,15.4599319 C13.4400692,16.7619293 13.9506991,18.2080155 13.9956056,19.7996758 C14.0397877,21.0533961 13.7507929,22.4994823 13.1293455,24.138677 C12.9069861,24.8138143 12.4180851,25.5372287 11.6626425,26.3081776 C11.0853772,26.8875033 10.4856586,27.4898535 9.86348687,28.1167137 C6.57589935,30.7199659 3.28831182,33.347728 0,36 L0,0 L1.73324454,0 L1.73324454,11.771558 Z M7.13143573,17.9911397 C6.59835258,17.3160024 5.90954541,16.9788051 5.06501422,16.9788051 C3.99884792,16.9788051 3.1325878,17.6294325 2.46623387,18.9314299 C1.97733288,19.9437645 1.73324454,22.3308836 1.73324454,26.0913018 L1.73324454,32.3116262 C1.7774267,32.503992 3.02177025,31.3230588 5.46482659,28.767341 C6.79825876,27.4178092 7.66451888,25.8261489 8.06433124,23.9938456 C8.24178419,23.2711738 8.33087282,22.5477594 8.33087282,21.824345 C8.33087282,20.2334274 7.93106045,18.9559399 7.13143573,17.9911397"></path>
            </g>
        </g>
        <g id="Group" transform="translate(374.000000, 202.000000)" fill="#0C0C0C" fill-rule="nonzero">
            <g id="CN-Root">
                <path d="M24.7420942,30.0879121 L24.7420942,28.2679121 L22.8440942,28.2679121 L22.8440942,14.3839121 L24.7420942,14.3839121 L24.7420942,12.5639121 L18.2680942,12.5639121 L18.2680942,14.3839121 L20.1660942,14.3839121 L20.1660942,28.2679121 L18.2680942,28.2679121 L18.2680942,30.0879121 L24.7420942,30.0879121 Z" id="Combined-Shape"></path>
            </g>
        </g>
        <g id="Group" transform="translate(398.000000, 202.000000)" fill="#0C0C0C" fill-rule="nonzero">
            <g id="Combined-Shape">
                <path d="M17.5647988,30.2666987 L11.7444863,16.145605 L9.66440816,16.145605 L3.92222066,30.2666987 L17.5647988,30.2666987 Z M14.9964394,28.7041987 L6.40268941,28.7041987 L10.6409707,17.9522456 L14.9964394,28.7041987 Z M21.6266023,34.1876831 C21.8066023,34.1876831 21.9066023,34.0876831 21.9666023,33.9076831 L26.8266023,22.4276831 C26.9466023,22.1076831 27.0066023,21.9876831 27.0066023,21.5476831 L27.0066023,20.4476831 C27.0066023,20.2876831 26.9066023,20.1876831 26.7466023,20.1876831 L18.4066023,20.1876831 C18.2466023,20.1876831 18.1466023,20.2876831 18.1466023,20.4476831 L18.1466023,21.6676831 C18.1466023,21.8476831 18.2466023,21.9476831 18.4066023,21.9476831 L24.0666023,21.9476831 L24.8466023,21.9276831 L24.5066023,22.6876831 L19.7866023,33.9076831 C19.7066023,34.0876831 19.7866023,34.1876831 19.9666023,34.1876831 L21.6266023,34.1876831 Z"></path>
            </g>
        </g>
        <g id="Group" transform="translate(233.000000, 202.000000)" fill="#0C0C0C" fill-rule="nonzero">
            <g id="CN-Root">
                <path d="M24.7420942,30.0879121 L24.7420942,28.2679121 L22.8440942,28.2679121 L22.8440942,14.3839121 L24.7420942,14.3839121 L24.7420942,12.5639121 L18.2680942,12.5639121 L18.2680942,14.3839121 L20.1660942,14.3839121 L20.1660942,28.2679121 L18.2680942,28.2679121 L18.2680942,30.0879121 L24.7420942,30.0879121 Z" id="Combined-Shape"></path>
            </g>
        </g>
        <g id="Group" transform="translate(257.000000, 202.000000)" fill="#0C0C0C" fill-rule="nonzero">
            <g id="Combined-Shape">
                <path d="M17.5647988,30.2666987 L11.7444863,16.145605 L9.66440816,16.145605 L3.92222066,30.2666987 L17.5647988,30.2666987 Z M14.9964394,28.7041987 L6.40268941,28.7041987 L10.6409707,17.9522456 L14.9964394,28.7041987 Z M21.6266023,34.1876831 C21.8066023,34.1876831 21.9066023,34.0876831 21.9666023,33.9076831 L26.8266023,22.4276831 C26.9466023,22.1076831 27.0066023,21.9876831 27.0066023,21.5476831 L27.0066023,20.4476831 C27.0066023,20.2876831 26.9066023,20.1876831 26.7466023,20.1876831 L18.4066023,20.1876831 C18.2466023,20.1876831 18.1466023,20.2876831 18.1466023,20.4476831 L18.1466023,21.6676831 C18.1466023,21.8476831 18.2466023,21.9476831 18.4066023,21.9476831 L24.0666023,21.9476831 L24.8466023,21.9276831 L24.5066023,22.6876831 L19.7866023,33.9076831 C19.7066023,34.0876831 19.7866023,34.1876831 19.9666023,34.1876831 L21.6266023,34.1876831 Z"></path>
            </g>
        </g>
    </g>
</svg>