<?xml version="1.0" encoding="UTF-8"?>
<svg width="530px" height="260px" viewBox="0 0 530 260" version="1.1" xmlns="http://www.w3.org/2000/svg" xmlns:xlink="http://www.w3.org/1999/xlink">
    <title>c4-tension-sharp9-enharmonic</title>
    <g id="c4-tension-sharp9-enharmonic" stroke="none" stroke-width="1" fill="none" fill-rule="evenodd">
        <polygon id="Ivory" stroke="#202020" stroke-width="0.75" fill="#FFFFFF" points="36.9410086 135.831235 36.973828 23 8 23 8 217 49 217 49 135.623199"></polygon>
        <polygon id="Ivory" stroke="#202020" stroke-width="0.75" fill="#FFFFFF" points="87.8977636 135.623199 87.9300958 23 64 23 64 135.623199 53 135.623199 53 217 97 217 97 135.623199"></polygon>
        <polygon id="Ivory" stroke="#202020" stroke-width="0.75" fill="#FFFFFF" points="136.119361 135.623199 136.151693 23 114.666198 23 114.666198 135.623199 100 135.623199 100 217 144 217 144 135.623199"></polygon>
        <polygon id="Ivory" stroke="#202020" stroke-width="0.75" fill="#FFFFFF" transform="translate(169.000000, 120.000000) scale(-1, 1) translate(-169.000000, -120.000000) " points="175.628711 135.831235 175.662925 23 147 23 147 217 191 217 191 135.623199"></polygon>
        <polygon id="Ivory" stroke="#202020" stroke-width="0.75" fill="#FFFFFF" points="223.799919 135.831235 223.832578 23 195 23 195 217 237 217 237 135.623199"></polygon>
        <polygon id="Ivory" stroke="#202020" stroke-width="0.75" fill="#FFFFFF" points="275.94125 135.623199 275.973422 23 250.945757 23 250.945757 135.623199 240 135.623199 240 217 285 217 285 135.623199"></polygon>
        <polygon id="Ivory" stroke="#202020" stroke-width="0.75" fill="#FFFFFF" transform="translate(310.000000, 120.000000) scale(-1, 1) translate(-310.000000, -120.000000) " points="315.400162 135.831235 315.432822 23 289 23 289 217 331 217 331 135.623199"></polygon>
        <polygon id="Ivory" stroke="#202020" stroke-width="0.75" fill="#FFFFFF" transform="translate(449.000000, 120.000000) scale(-1, 1) translate(-449.000000, -120.000000) " points="454.400162 135.831235 454.432822 23 428 23 428 217 470 217 470 135.623199"></polygon>
        <rect id="Ebony" fill="#474747" x="35" y="22" width="31" height="115"></rect>
        <rect id="Ebony" fill="#474747" x="85" y="22" width="31" height="115"></rect>
        <rect id="Ebony" fill="#474747" x="135" y="22" width="31" height="115"></rect>
        <rect id="Ebony" fill="#474747" x="223" y="22" width="31" height="115"></rect>
        <rect id="Ebony" fill="#474747" x="275" y="22" width="31" height="115"></rect>
        <polygon id="Ivory" stroke="#202020" stroke-width="0.75" fill="#FFFFFF" points="363.941009 135.831235 363.973828 23 335 23 335 217 376 217 376 135.623199"></polygon>
        <polygon id="Ivory" stroke="#202020" stroke-width="0.75" fill="#FFFFFF" points="414.897764 135.623199 414.930096 23 391 23 391 135.623199 380 135.623199 380 217 424 217 424 135.623199"></polygon>
        <rect id="Ebony" fill="#474747" x="362" y="22" width="31" height="115"></rect>
        <rect id="Ebony" fill="#474747" x="412" y="22" width="31" height="115"></rect>
        <polygon id="Ivory" stroke="#202020" stroke-width="0.75" fill="#FFFFFF" transform="translate(495.000000, 120.000000) scale(-1, 1) translate(-495.000000, -120.000000) " points="500.400162 135.831235 500.432822 23 474 23 474 217 516 217 516 135.623199"></polygon>
        <rect id="Ebony" fill="#474747" x="458" y="22" width="31" height="115"></rect>
        <circle id="Circle" fill="#AAAAAA" cx="168.5" cy="196.5" r="12.5"></circle>
        <circle id="Circle" fill="#AAAAAA" cx="355.5" cy="196.5" r="12.5"></circle>
        <circle id="Circle" fill="#AAAAAA" cx="262.5" cy="196.5" r="12.5"></circle>
        <circle id="Circle" fill="#AAAAAA" cx="75.5" cy="198.5" r="12.5"></circle>
        <g id="Group" transform="translate(69.000000, 192.000000)" fill="#FFFFFF" fill-rule="nonzero">
            <g id="CS-Root">
                <path d="M5.48315789,12 L5.48315789,7.23 L8.77715789,12 L11.7651579,12 L8.45315789,7.392 C10.3071579,6.924 11.2971579,5.664 11.2971579,3.774 C11.2971579,1.308 9.69515789,-0.006 6.72515789,-0.006 L3.01715789,-0.006 L3.01715789,12 L5.48315789,12 Z M6.59915789,5.79 L5.48315789,5.79 L5.48315789,2.028 L6.81515789,2.028 C8.03915789,2.028 8.79515789,2.748 8.79515789,3.9 C8.79515789,5.106 8.00315789,5.79 6.59915789,5.79 Z" id="Combined-Shape"></path>
            </g>
        </g>
        <g id="Group" transform="translate(162.000000, 191.000000)" fill="#FFFFFF" fill-rule="nonzero">
            <g id="CS-Root">
                <path d="M6.74315789,12.234 C9.04715789,12.234 10.7391579,10.506 10.7391579,8.166 C10.7391579,6.132 9.47915789,4.71 7.53515789,4.548 L10.8651579,0.066 L3.55715789,0.066 L3.55715789,2.046 L7.01315789,2.046 L4.27715789,5.7 L5.57315789,6.798 C5.91515789,6.582 6.25715789,6.492 6.67115789,6.492 C7.75115789,6.492 8.52515789,7.266 8.52515789,8.328 C8.52515789,9.372 7.71515789,10.164 6.68915789,10.164 C5.80715789,10.164 5.17715789,9.606 5.03315789,8.67 L2.96315789,8.742 C3.07115789,9.642 3.21515789,10.11 3.57515789,10.65 C4.24115789,11.658 5.41115789,12.234 6.74315789,12.234 Z" id="Combined-Shape"></path>
            </g>
        </g>
        <g id="Group" transform="translate(256.000000, 191.000000)" fill="#FFFFFF" fill-rule="nonzero">
            <g id="CS-Root">
                <path d="M6.90515789,12.234 C9.19115789,12.234 10.8471579,10.542 10.8471579,8.166 C10.8471579,6.024 9.35315789,4.404 7.35515789,4.404 C6.83315789,4.404 6.43715789,4.494 5.87915789,4.728 L5.87915789,2.154 L9.89315789,2.154 L9.89315789,0.066 L3.77315789,0.066 L3.77315789,7.176 L5.28515789,7.176 C5.71715789,6.6 6.18515789,6.366 6.81515789,6.366 C7.82315789,6.366 8.59715789,7.176 8.59715789,8.22 C8.59715789,9.264 7.82315789,10.056 6.83315789,10.056 C6.02315789,10.056 5.50115789,9.642 5.15915789,8.742 L3.14315789,9.498 C3.46715789,10.344 3.70115789,10.704 4.13315789,11.154 C4.85315789,11.856 5.82515789,12.234 6.90515789,12.234 Z" id="Combined-Shape"></path>
            </g>
        </g>
        <circle id="Circle" fill="#FF6633" cx="151" cy="64" r="15"></circle>
        <path d="M147.183594,83.8613281 C147.542969,83.8613281 147.841797,83.9824219 148.080078,84.2246094 C148.318359,84.4667969 148.4375,84.7675781 148.4375,85.1269531 C148.4375,85.4628906 148.332031,85.734375 148.121094,85.9414063 C147.910156,86.1484375 147.632813,86.2519531 147.289063,86.2519531 C146.9375,86.2519531 146.642578,86.1386719 146.404297,85.9121094 C146.166016,85.6855469 146.046875,85.4042969 146.046875,85.0683594 C146.046875,84.7089844 146.152344,84.4179688 146.363281,84.1953125 C146.574219,83.9726563 146.847656,83.8613281 147.183594,83.8613281 Z M156.03125,87.5058594 L156.042969,88.7363281 L146.011719,88.7363281 L146.035156,87.5058594 L156.03125,87.5058594 Z M156.054688,91.4667969 L156.042969,92.6738281 L146.023438,92.6738281 L146.023438,91.4550781 L156.054688,91.4667969 Z M154.882813,93.8691406 C155.195313,93.8691406 155.464844,93.9824219 155.691406,94.2089844 C155.917969,94.4355469 156.03125,94.7089844 156.03125,95.0292969 C156.03125,95.3730469 155.917969,95.6621094 155.691406,95.8964844 C155.464844,96.1308594 155.1875,96.2480469 154.859375,96.2480469 C154.53125,96.2480469 154.248047,96.1308594 154.009766,95.8964844 C153.771484,95.6621094 153.652344,95.3808594 153.652344,95.0527344 C153.652344,94.7246094 153.771484,94.4453125 154.009766,94.2148438 C154.248047,93.984375 154.539063,93.8691406 154.882813,93.8691406 Z" id="Shape" fill="#FFFFFF" fill-rule="nonzero" transform="translate(151.033203, 90.054688) rotate(-270.000000) translate(-151.033203, -90.054688) "></path>
        <g id="Group" transform="translate(146.000000, 57.000000)" fill="#FFFFFF" fill-rule="nonzero">
            <g id="CS-Root">
                <path d="M8.18126316,14.2808 C10.9460632,14.2808 12.9764632,12.2072 12.9764632,9.3992 C12.9764632,6.9584 11.4644632,5.252 9.13166316,5.0576 L13.1276632,-0.3208 L4.35806316,-0.3208 L4.35806316,2.0552 L8.50526316,2.0552 L5.22206316,6.44 L6.77726316,7.7576 C7.18766316,7.4984 7.59806316,7.3904 8.09486316,7.3904 C9.39086316,7.3904 10.3196632,8.3192 10.3196632,9.5936 C10.3196632,10.8464 9.34766316,11.7968 8.11646316,11.7968 C7.05806316,11.7968 6.30206316,11.1272 6.12926316,10.004 L3.64526316,10.0904 C3.77486316,11.1704 3.94766316,11.732 4.37966316,12.38 C5.17886316,13.5896 6.58286316,14.2808 8.18126316,14.2808 Z" id="Combined-Shape"></path>
            </g>
        </g>
        <polygon id="Path" fill="#FFFFFF" fill-rule="nonzero" points="148.453333 63.8 141.213333 63.8 141.213333 65.96 148.453333 65.96"></polygon>
        <g id="Group" transform="translate(349.000000, 191.000000)" fill="#FFFFFF" fill-rule="nonzero">
            <g id="CS-Root">
                <path d="M6.14915789,12 L10.8651579,0.066 L3.77315789,0.066 L3.77315789,2.154 L7.64315789,2.154 L3.75515789,12 L6.14915789,12 Z" id="Combined-Shape"></path>
            </g>
        </g>
        <circle id="Circle" fill="#2365FF" cx="151" cy="115" r="15"></circle>
        <g id="Group" transform="translate(147.000000, 108.000000)" fill="#FFFFFF" fill-rule="nonzero">
            <g id="CS-Root">
                <path d="M8.11646316,14 L11.6588632,8.3624 C12.7604632,6.6128 13.2140632,5.36 13.2140632,4.0424 C13.2140632,1.364 11.2484632,-0.6232 8.59166316,-0.6232 C5.89166316,-0.6232 3.81806316,1.4288 3.81806316,4.1288 C3.81806316,6.5696 5.61086316,8.4272 7.98686316,8.4272 C8.18126316,8.4272 8.33246316,8.4056 8.63486316,8.3408 L5.00606316,14 L8.11646316,14 Z M8.50526316,6.0728 C7.36046316,6.0728 6.47486316,5.1656 6.47486316,3.9992 C6.47486316,2.8544 7.40366316,1.9472 8.57006316,1.9472 C9.67166316,1.9472 10.5788632,2.876 10.5788632,4.0208 C10.5788632,5.1872 9.67166316,6.0728 8.50526316,6.0728 Z" id="Combined-Shape"></path>
            </g>
        </g>
        <g id="+" transform="translate(140.213333, 111.340000)" fill="#FFFFFF" fill-rule="nonzero">
            <polygon id="Path" points="9.24 3.46 5.8 3.46 5.8 0 3.46 0 3.46 3.46 0 3.46 0 5.62 3.46 5.62 3.46 9.06 5.8 9.06 5.8 5.62 9.24 5.62"></polygon>
        </g>
    </g>
</svg>