<?xml version="1.0" encoding="UTF-8" standalone="no"?><!DOCTYPE svg PUBLIC "-//W3C//DTD SVG 1.1//EN" "http://www.w3.org/Graphics/SVG/1.1/DTD/svg11.dtd"><svg width="800.0px" height="640.0px" viewBox="0 0 800 640" version="1.1" xmlns="http://www.w3.org/2000/svg" xmlns:xlink="http://www.w3.org/1999/xlink" xml:space="preserve" xmlns:serif="http://www.serif.com/" style="fill-rule:evenodd;clip-rule:evenodd;"><g id="function_orbit"><circle id="Oval" cx="400" cy="311" r="220" style="fill:none;stroke:#000;stroke-width:2px;"/><circle id="Oval1" serif:id="Oval" cx="400" cy="311" r="264" style="fill:none;stroke:#aaa;stroke-width:2.4px;"/><path id="Rectangle-Copy" d="M460,40c0,-5.519 -4.481,-10 -10,-10l-100,0c-5.519,0 -10,4.481 -10,10l0,60c0,5.519 4.481,10 10,10l100,0c5.519,0 10,-4.481 10,-10l0,-60Z" style="fill:#58c322;"/><g id="CS-Root"><path id="Combined-Shape" d="M403.288,86l0,-26.64l7.584,0l0,-5.376l-21.792,0l-0,5.376l7.632,0l-0,26.64l6.576,0Z" style="fill:#fff;fill-rule:nonzero;"/></g><path id="Rectangle-Copy1" serif:id="Rectangle-Copy" d="M250,390c0,-5.519 -4.481,-10 -10,-10l-100,0c-5.519,0 -10,4.481 -10,10l0,60c0,5.519 4.481,10 10,10l100,0c5.519,0 10,-4.481 10,-10l0,-60Z" style="fill:#ffbf00;"/><g id="CS-Root1" serif:id="CS-Root"><path id="Combined-Shape1" serif:id="Combined-Shape" d="M188.784,436.624c6.624,0 11.04,-3.888 11.04,-9.744c0,-2.448 -0.864,-4.608 -2.544,-6.192c-1.392,-1.344 -3.168,-2.256 -6.672,-3.552c-2.352,-0.864 -2.88,-1.104 -3.744,-1.584c-1.296,-0.72 -1.968,-1.728 -1.968,-3.024c0,-2.016 1.584,-3.36 3.936,-3.36c2.592,0 3.936,1.296 4.176,3.984l6.624,0c-0.528,-6.144 -4.56,-9.792 -10.8,-9.792c-6.288,0 -10.56,3.888 -10.56,9.696c0,4.896 2.496,7.536 9.504,10.032c2.496,0.912 3.072,1.152 3.888,1.776c0.816,0.624 1.296,1.536 1.296,2.544c0,1.92 -1.824,3.408 -4.224,3.408c-2.496,0 -4.368,-1.584 -4.368,-3.744l0,-0.432l-6.384,0c-0.048,6.144 4.08,9.984 10.8,9.984Z" style="fill:#fff;fill-rule:nonzero;"/></g><path id="Rectangle-Copy2" serif:id="Rectangle-Copy" d="M670,391c0,-5.519 -4.481,-10 -10,-10l-100,0c-5.519,0 -10,4.481 -10,10l0,60c0,5.519 4.481,10 10,10l100,0c5.519,0 10,-4.481 10,-10l0,-60Z" style="fill:#f50;"/><g id="CS-Root2" serif:id="CS-Root"><path id="Combined-Shape2" serif:id="Combined-Shape" d="M607.432,437c4.608,0 8.448,-1.296 11.088,-3.696c3.264,-2.928 5.088,-7.536 5.088,-12.672c0,-5.04 -1.776,-9.216 -5.04,-12.096c-2.832,-2.496 -6.336,-3.552 -11.52,-3.552l-9.072,0l0,32.016l9.456,0Zm-1.632,-5.424l-1.248,0l0,-21.264l2.4,0c6.096,0 9.984,4.128 9.984,10.512c0,3.552 -1.296,6.576 -3.6,8.544c-1.872,1.584 -4.032,2.208 -7.536,2.208Z" style="fill:#fff;fill-rule:nonzero;"/></g><path id="Triangle" d="M171,181.34l-1.34,22.32l-17.32,-10l18.66,-12.32Z" style="fill:#aaa;"/><path id="Triangle1" serif:id="Triangle" d="M398,575l20,-10l0,20l-20,-10Z" style="fill:#aaa;"/><path id="Triangle2" serif:id="Triangle" d="M635,189.66l-18.66,-12.32l17.32,-10l1.34,22.32Z" style="fill:#aaa;"/><path id="Triangle3" serif:id="Triangle" d="M532.929,134.929l21.213,7.071l-14.142,14.142l-7.071,-21.213Z"/><path id="Triangle4" serif:id="Triangle" d="M620,295l10,20l-20,0l10,-20Z"/><path id="Triangle5" serif:id="Triangle" d="M415,531l-20,10l-0,-20l20,10Z"/><path id="Triangle6" serif:id="Triangle" d="M207,205.66l1.34,-22.32l17.32,10l-18.66,12.32Z"/><g id="穏やかな着地"><text x="47px" y="163px" style="font-family:'NotoSansSC-Bold', 'Noto Sans SC', sans-serif;font-weight:700;font-size:24px;fill:#aaa;">平稳的着陆</text></g><g id="強力な昂進"><text x="655px" y="163px" style="font-family:'NotoSansSC-Bold', 'Noto Sans SC', sans-serif;font-weight:700;font-size:24px;fill:#aaa;">强力的上升</text></g><g id="強力な着地"><text x="468px" y="249px" style="font-family:'NotoSansSC-Bold', 'Noto Sans SC', sans-serif;font-weight:700;font-size:24px;">强力的着陆</text></g><g id="穏やかな浮遊"><text x="211px" y="249px" style="font-family:'NotoSansSC-Bold', 'Noto Sans SC', sans-serif;font-weight:700;font-size:24px;">平稳的浮动</text></g><g id="穏やかな昂進"><text x="341px" y="483px" style="font-family:'NotoSansSC-Bold', 'Noto Sans SC', sans-serif;font-weight:700;font-size:24px;">平稳的上升</text></g><g id="昂進の抑制"><text x="341px" y="614px" style="font-family:'NotoSansSC-Bold', 'Noto Sans SC', sans-serif;font-weight:700;font-size:24px;fill:#aaa;">上升的抑制</text></g></g></svg>