<?xml version="1.0" encoding="UTF-8" standalone="no"?><!DOCTYPE svg PUBLIC "-//W3C//DTD SVG 1.1//EN" "http://www.w3.org/Graphics/SVG/1.1/DTD/svg11.dtd"><svg width="900.0px" height="390.0px" viewBox="0 0 900 390" version="1.1" xmlns="http://www.w3.org/2000/svg" xmlns:xlink="http://www.w3.org/1999/xlink" xml:space="preserve" xmlns:serif="http://www.serif.com/" style="fill-rule:evenodd;clip-rule:evenodd;"><g id="M1-1oct-2seg-open-plus-alpha"><g id="五線"><path id="horizon" d="M52,74.5l821,0" style="fill:none;stroke:#000;stroke-width:1px;"/><path id="horizon1" serif:id="horizon" d="M52,94.5l821,0" style="fill:none;stroke:#000;stroke-width:1px;"/><path id="horizon2" serif:id="horizon" d="M52,114.5l821,0" style="fill:none;stroke:#000;stroke-width:1px;"/><path id="horizon3" serif:id="horizon" d="M52,134.5l821,0" style="fill:none;stroke:#000;stroke-width:1px;"/><path id="horizon4" serif:id="horizon" d="M52,154.5l821,0" style="fill:none;stroke:#000;stroke-width:1px;"/></g><path id="bar" d="M52.5,73.5l-0,81" style="fill:none;stroke:#000;stroke-width:2px;stroke-linecap:round;stroke-linejoin:round;"/><path id="G-Clef" d="M80.162,174.963c-0.896,-0.067 -1.758,-0.212 -2.572,-0.434c-4.215,-1.144 -7.135,-4.322 -7.815,-8.51c-0.2,-1.227 -0.133,-3.147 0.148,-4.243c0.214,-0.839 0.733,-2.038 1.151,-2.663c0.705,-1.051 1.91,-2.046 3.112,-2.564c0.988,-0.428 1.52,-0.541 2.766,-0.585c0.988,-0.037 1.232,-0.021 1.803,0.127c2.488,0.639 4.503,2.772 5.377,5.693c0.197,0.66 0.215,0.827 0.219,2.125c0.003,1.232 -0.018,1.489 -0.173,2.037c-0.344,1.217 -0.932,2.198 -1.871,3.115c-1.375,1.348 -2.986,2.157 -5.161,2.597l-0.933,0.19l0.662,0.288c3.535,1.554 7.448,1.404 11.096,-0.419c3.193,-1.594 5.662,-4.479 6.511,-7.607c0.206,-0.756 0.218,-0.895 0.212,-2.334l-0.006,-1.529l-1.192,-5.916c-0.655,-3.254 -1.209,-5.976 -1.23,-6.05c-0.036,-0.115 -0.118,-0.099 -0.684,0.137c-3.656,1.527 -9.188,1.507 -14.237,-0.05c-6.917,-2.133 -12.563,-6.814 -15.506,-12.854c-0.918,-1.887 -1.454,-3.69 -1.751,-5.895c-0.133,-0.993 -0.112,-3.622 0.041,-4.871c0.82,-6.682 4.269,-13.382 10.772,-20.928c2.024,-2.348 6.454,-6.742 9.422,-9.347c0.79,-0.692 0.823,-0.736 0.762,-0.96c-0.137,-0.519 -0.614,-3.035 -0.762,-4.021c-0.683,-4.598 -0.682,-9.937 0.004,-14.609c1.077,-7.34 3.601,-13.508 7.275,-17.769c0.67,-0.778 2.088,-2.114 2.243,-2.114c0.05,-0 0.48,0.589 0.953,1.309c4.397,6.662 6.723,12.596 7.359,18.761c0.158,1.542 0.114,5.159 -0.082,6.57c-0.644,4.656 -2.147,8.697 -4.725,12.7c-1.685,2.621 -4.224,5.599 -6.815,7.999c-0.591,0.549 -1.214,1.126 -1.383,1.284l-0.306,0.286l1.357,6.676l1.356,6.678l0.672,-0.052c1.889,-0.152 3.885,-0.041 5.312,0.292c1.899,0.446 4.037,1.463 5.636,2.68c0.892,0.68 2.377,2.199 3.004,3.074c1.499,2.09 2.477,4.582 2.75,7.001c0.136,1.197 0.055,3.525 -0.153,4.493c-0.823,3.832 -3.259,7.435 -6.97,10.306c-0.918,0.71 -2.256,1.567 -3.228,2.07c-0.658,0.341 -0.715,0.387 -0.672,0.565c0.083,0.337 1.138,5.465 1.532,7.444c0.207,1.039 0.525,2.76 0.708,3.824c0.322,1.872 0.332,1.969 0.288,3.179c-0.078,2.3 -0.656,4.098 -1.96,6.117c-2.485,3.844 -6.937,6.295 -12.129,6.677c-1.097,0.08 -1.45,0.086 -2.187,0.03Zm6.583,-27.078c0.977,-0.115 2.214,-0.381 3.016,-0.651c0.982,-0.329 2.167,-0.914 2.12,-1.047c-0.022,-0.059 -1.026,-4.955 -2.232,-10.883c-1.206,-5.927 -2.212,-10.796 -2.236,-10.82c-0.023,-0.024 -0.424,0.032 -0.89,0.127c-3.416,0.692 -6.219,2.651 -7.447,5.205c-0.387,0.805 -0.535,1.332 -0.635,2.252c-0.212,1.955 0.417,4.102 1.703,5.804c0.749,0.993 1.89,2.054 2.937,2.734c0.401,0.26 0.478,0.388 0.197,0.327c-0.098,-0.02 -0.442,-0.095 -0.764,-0.163c-2.533,-0.547 -4.982,-1.98 -6.371,-3.723c-1.22,-1.533 -1.839,-3.127 -2.016,-5.199c-0.226,-2.641 0.466,-5.187 2.084,-7.683c1.045,-1.612 2.849,-3.367 4.656,-4.529c1.309,-0.843 3.293,-1.703 4.645,-2.014c0.247,-0.056 0.449,-0.129 0.449,-0.159c0,-0.087 -2.504,-12.339 -2.546,-12.456c-0.061,-0.172 -3.455,2.612 -5.742,4.707c-1.261,1.156 -3.945,3.95 -4.919,5.122c-2.941,3.537 -4.841,6.719 -5.904,9.88c-1.068,3.188 -1.334,6.256 -0.788,9.16c0.664,3.53 2.941,7.224 5.986,9.712c4.136,3.377 9.403,4.917 14.697,4.297Zm7.76,-3.357c2.819,-2.421 4.487,-5.175 4.98,-8.215c0.166,-1.019 0.122,-3.168 -0.08,-4.118c-0.825,-3.849 -3.344,-6.821 -6.664,-7.862c-0.654,-0.206 -0.805,-0.222 -2.094,-0.224c-0.817,-0 -1.417,0.03 -1.458,0.078c-0.041,0.047 0.802,4.276 2.112,10.584c1.199,5.777 2.181,10.514 2.183,10.528c0.008,0.064 0.351,-0.196 1.021,-0.771Zm-9.221,-54.512c5.675,-5.681 9.029,-11.213 9.728,-16.053c0.157,-1.09 0.155,-2.867 -0.006,-3.836c-0.322,-1.932 -1.11,-3.629 -2.45,-5.265c-0.532,-0.65 -0.612,-0.684 -1.618,-0.682c-1.108,0.002 -2.116,0.528 -3.161,1.65c-1.733,1.854 -3.181,4.885 -4.248,8.877c-1.483,5.559 -1.939,12.511 -1.125,17.22l0.127,0.744l0.794,-0.744c0.436,-0.41 1.316,-1.269 1.959,-1.911Z"/><path id="quarter" d="M314.807,172.706c6.295,-3.342 9.648,-9.391 7.585,-13.942c-2.2,-4.855 -9.763,-6.225 -16.88,-3.059c-7.118,3.166 -11.107,9.677 -8.907,14.531c2.2,4.855 9.764,6.225 16.88,3.059c0.445,-0.198 0.903,-0.365 1.322,-0.589Z"/><path id="quarter1" serif:id="quarter" d="M168.807,192.706c6.295,-3.342 9.648,-9.391 7.585,-13.942c-2.2,-4.855 -9.763,-6.225 -16.88,-3.059c-7.118,3.166 -11.107,9.677 -8.907,14.531c2.2,4.855 9.764,6.225 16.88,3.059c0.445,-0.198 0.903,-0.365 1.322,-0.589Z"/><g id="Group"><g id="Rectangle"><rect x="141" y="173" width="45" height="2" style="fill:#0c0c0c;"/></g></g><g id="do-line"><rect id="Rectangle1" serif:id="Rectangle" x="215" y="173" width="45" height="2" style="fill:#58c322;"/></g><path id="quarter2" serif:id="quarter" d="M378.807,162.706c6.295,-3.342 9.648,-9.391 7.585,-13.942c-2.2,-4.855 -9.763,-6.225 -16.88,-3.059c-7.118,3.166 -11.107,9.677 -8.907,14.531c2.2,4.855 9.764,6.225 16.88,3.059c0.445,-0.198 0.903,-0.365 1.322,-0.589Z" style="fill:#58c322;"/><path id="quarter3" serif:id="quarter" d="M444.807,152.706c6.295,-3.342 9.648,-9.391 7.585,-13.942c-2.2,-4.855 -9.763,-6.225 -16.88,-3.059c-7.118,3.166 -11.107,9.677 -8.907,14.531c2.2,4.855 9.764,6.225 16.88,3.059c0.445,-0.198 0.903,-0.365 1.322,-0.589Z"/><path id="quarter4" serif:id="quarter" d="M514.807,142.706c6.295,-3.342 9.648,-9.391 7.585,-13.942c-2.2,-4.855 -9.763,-6.225 -16.88,-3.059c-7.118,3.166 -11.107,9.677 -8.907,14.531c2.2,4.855 9.764,6.225 16.88,3.059c0.445,-0.198 0.903,-0.365 1.322,-0.589Z" style="fill:#58c322;"/><path id="quarter5" serif:id="quarter" d="M729.807,112.706c6.295,-3.342 9.648,-9.391 7.585,-13.942c-2.2,-4.855 -9.763,-6.225 -16.88,-3.059c-7.118,3.166 -11.107,9.677 -8.907,14.531c2.2,4.855 9.764,6.225 16.88,3.059c0.445,-0.198 0.903,-0.365 1.322,-0.589Z" style="fill:#58c322;"/><path id="quarter6" serif:id="quarter" d="M243.807,182.706c6.295,-3.342 9.648,-9.391 7.585,-13.942c-2.2,-4.855 -9.763,-6.225 -16.88,-3.059c-7.118,3.166 -11.107,9.677 -8.907,14.531c2.2,4.855 9.764,6.225 16.88,3.059c0.445,-0.198 0.903,-0.365 1.322,-0.589Z" style="fill:#58c322;"/><path id="quarter7" serif:id="quarter" d="M584.807,132.706c6.295,-3.342 9.648,-9.391 7.585,-13.942c-2.2,-4.855 -9.763,-6.225 -16.88,-3.059c-7.118,3.166 -11.107,9.677 -8.907,14.531c2.2,4.855 9.764,6.225 16.88,3.059c0.445,-0.198 0.903,-0.365 1.322,-0.589Z"/><path id="quarter8" serif:id="quarter" d="M659.807,122.706c6.295,-3.342 9.648,-9.391 7.585,-13.942c-2.2,-4.855 -9.763,-6.225 -16.88,-3.059c-7.118,3.166 -11.107,9.677 -8.907,14.531c2.2,4.855 9.764,6.225 16.88,3.059c0.445,-0.198 0.903,-0.365 1.322,-0.589Z"/><path id="quarter9" serif:id="quarter" d="M806.807,102.706c6.295,-3.342 9.648,-9.391 7.585,-13.942c-2.2,-4.855 -9.763,-6.225 -16.88,-3.059c-7.118,3.166 -11.107,9.677 -8.907,14.531c2.2,4.855 9.764,6.225 16.88,3.059c0.445,-0.198 0.903,-0.365 1.322,-0.589Z"/><circle id="Oval" cx="238" cy="175" r="27" style="fill:none;stroke:#58c322;stroke-width:0.83px;"/><circle id="Oval1" serif:id="Oval" cx="237.5" cy="174.5" r="37.5" style="fill:none;stroke:#58c322;stroke-opacity:0.49;stroke-width:0.92px;"/><circle id="Oval2" serif:id="Oval" cx="725" cy="105" r="27" style="fill:none;stroke:#58c322;stroke-width:0.83px;"/><circle id="Oval3" serif:id="Oval" cx="724.5" cy="104.5" r="37.5" style="fill:none;stroke:#58c322;stroke-opacity:0.49;stroke-width:0.92px;"/><path id="bar1" serif:id="bar" d="M872.5,74.5l0,79" style="fill:none;stroke:#000;stroke-width:1px;stroke-linecap:round;stroke-linejoin:round;"/><path id="Path-46" d="M509,56l0.5,57.5" style="fill:none;fill-rule:nonzero;stroke:#000;stroke-width:1px;stroke-linecap:square;stroke-dasharray:4,8;"/><path id="Path-461" serif:id="Path-46" d="M509,154l0.5,57.5" style="fill:none;fill-rule:nonzero;stroke:#000;stroke-width:1px;stroke-linecap:square;stroke-dasharray:4,8;"/><path id="Path-462" serif:id="Path-46" d="M509,242l0.5,66.5" style="fill:none;fill-rule:nonzero;stroke:#000;stroke-width:1px;stroke-linecap:square;stroke-dasharray:4,8;"/><path id="Path-463" serif:id="Path-46" d="M239.5,56.5l0,99" style="fill:none;fill-rule:nonzero;stroke:#000;stroke-width:1px;stroke-linecap:square;stroke-dasharray:4,8;"/><path id="Path-464" serif:id="Path-46" d="M724.5,56.5l0,28" style="fill:none;fill-rule:nonzero;stroke:#000;stroke-width:1px;stroke-linecap:square;stroke-dasharray:4,8;"/><path id="Path-465" serif:id="Path-46" d="M724.5,125.5l0,77" style="fill:none;fill-rule:nonzero;stroke:#000;stroke-width:1px;stroke-linecap:square;stroke-dasharray:4,8;"/><path id="Path-466" serif:id="Path-46" d="M724.5,246.5l0,62" style="fill:none;fill-rule:nonzero;stroke:#000;stroke-width:1px;stroke-linecap:square;stroke-dasharray:4,8;"/><path id="Path-467" serif:id="Path-46" d="M239.5,246.5l0,62" style="fill:none;fill-rule:nonzero;stroke:#000;stroke-width:1px;stroke-linecap:square;stroke-dasharray:4,8;"/><g id="ド"><text x="226px" y="232px" style="font-family:'HiraginoSans-W5', 'Hiragino Sans', sans-serif;font-weight:500;font-size:18px;">do</text></g><g id="シ"><text x="155px" y="232px" style="font-family:'HiraginoSans-W5', 'Hiragino Sans', sans-serif;font-weight:500;font-size:18px;">si</text></g><g id="レ"><text x="300px" y="232px" style="font-family:'HiraginoSans-W5', 'Hiragino Sans', sans-serif;font-weight:500;font-size:18px;">re</text></g><g id="ミ"><text x="363px" y="232px" style="font-family:'HiraginoSans-W5', 'Hiragino Sans', sans-serif;font-weight:500;font-size:18px;">mi</text></g><g id="ファ"><text x="430px" y="232px" style="font-family:'HiraginoSans-W5', 'Hiragino Sans', sans-serif;font-weight:500;font-size:18px;">fa</text></g><g id="ソ"><text x="496px" y="232px" style="font-family:'HiraginoSans-W5', 'Hiragino Sans', sans-serif;font-weight:500;font-size:18px;">sol</text></g><g id="ラ"><text x="574px" y="232px" style="font-family:'HiraginoSans-W5', 'Hiragino Sans', sans-serif;font-weight:500;font-size:18px;">la</text></g><g id="シ1" serif:id="シ"><text x="648px" y="232px" style="font-family:'HiraginoSans-W5', 'Hiragino Sans', sans-serif;font-weight:500;font-size:18px;">si</text></g><g id="ド1" serif:id="ド"><text x="713px" y="232px" style="font-family:'HiraginoSans-W5', 'Hiragino Sans', sans-serif;font-weight:500;font-size:18px;">do</text></g><g id="レ1" serif:id="レ"><text x="792px" y="232px" style="font-family:'HiraginoSans-W5', 'Hiragino Sans', sans-serif;font-weight:500;font-size:18px;">re</text></g><g id="_-Key-:-C-" serif:id="(Key-:-C)"><text x="45px" y="38px" style="font-family:'HiraginoSans-W6', 'Hiragino Sans', sans-serif;font-weight:600;font-size:14px;">(Key : C)</text></g><path id="Line-9" d="M278.982,254.964l-13.982,7.036l14.018,6.964l-0.015,-6.001l181.5,-0.463l1,-0.003l-0.006,-2l-1,0.003l-181.499,0.463l-0.016,-5.999Z" style="fill-rule:nonzero;"/><path id="Line-91" serif:id="Line-9" d="M197,255l14,7l-14,7l0,-6l-83,0l0,-2l83,0l0,-6Z" style="fill-rule:nonzero;"/><path id="Line-92" serif:id="Line-9" d="M757,255l-14,7l14,7l0,-6l92,0l0,-2l-92,0l0,-6Z" style="fill-rule:nonzero;"/><path id="Line-93" serif:id="Line-9" d="M697,255l14,7l-14,7l0,-6l-160,0l0,-2l160,0l0,-6Z" style="fill-rule:nonzero;"/><g id="落ち着いたエリア"><text x="323px" y="284px" style="font-family:'HiraginoSans-W5', 'Hiragino Sans', sans-serif;font-weight:500;font-size:14px;">平静的地区</text></g><g id="半音解決"><text x="129px" y="284px" style="font-family:'HiraginoSans-W5', 'Hiragino Sans', sans-serif;font-weight:500;font-size:14px;">半音解决</text></g><g id="盛り上がるエリア"><g transform="matrix(1,0,0,1,576,284)"><text x="0px" y="0px" style="font-family:'HiraginoSans-W5', 'Hiragino Sans', sans-serif;font-weight:500;font-size:14px;">兴</text><text x="14px" y="0px" style="font-family:'STHeitiSC-Medium', 'Heiti SC';font-size:14px;">奋</text><text x="28px" y="0px" style="font-family:'HiraginoSans-W5', 'Hiragino Sans', sans-serif;font-weight:500;font-size:14px;">的区域</text></g></g><g id="ピーク"><g transform="matrix(1,0,0,1,782.63,284)"><text x="0px" y="0px" style="font-family:'HiraginoSans-W5', 'Hiragino Sans', sans-serif;font-weight:500;font-size:14px;">峰</text><text x="14px" y="0px" style="font-family:'STHeitiSC-Medium', 'Heiti SC';font-size:14px;">值</text></g></g><path id="Line-94" serif:id="Line-9" d="M795,313l-6.82,14.088l-3.703,-4.807l-0.651,0.44c-50.231,33.344 -130.187,33.376 -179.739,0.074l-0.636,-0.435l-3.74,4.781l-6.711,-14.141l15.339,3.116l-3.653,4.666l0.522,0.356c48.876,32.845 127.95,32.813 177.507,-0.081l0.539,-0.364l-3.617,-4.696l15.363,-2.997Z" style="fill:#888;fill-rule:nonzero;"/><g id="ストライドもできるぞ"><g transform="matrix(1,0,0,1,652.35,368)"><text x="0px" y="0px" style="font-family:'HiraginoSans-W5', 'Hiragino Sans', sans-serif;font-weight:500;font-size:14px;fill:#888;">可能</text><text x="28px" y="0px" style="font-family:'STHeitiSC-Medium', 'Heiti SC';font-size:14px;fill:#888;">发</text><text x="42px" y="0px" style="font-family:'HiraginoSans-W5', 'Hiragino Sans', sans-serif;font-weight:500;font-size:14px;fill:#888;">生跨越</text></g></g><path id="Line-95" serif:id="Line-9" d="M363,313l-6.82,14.088l-3.703,-4.807l-0.651,0.44c-50.231,33.344 -130.187,33.376 -179.739,0.074l-0.636,-0.435l-3.74,4.781l-6.711,-14.141l15.339,3.116l-3.653,4.666l0.522,0.356c48.876,32.845 127.95,32.813 177.508,-0.081l0.538,-0.364l-3.617,-4.696l15.363,-2.997Z" style="fill:#888;fill-rule:nonzero;"/><g id="ストライドもできるぞ1" serif:id="ストライドもできるぞ"><g transform="matrix(1,0,0,1,220.35,368)"><text x="0px" y="0px" style="font-family:'HiraginoSans-W5', 'Hiragino Sans', sans-serif;font-weight:500;font-size:14px;fill:#888;">可能</text><text x="28px" y="0px" style="font-family:'STHeitiSC-Medium', 'Heiti SC';font-size:14px;fill:#888;">发</text><text x="42px" y="0px" style="font-family:'HiraginoSans-W5', 'Hiragino Sans', sans-serif;font-weight:500;font-size:14px;fill:#888;">生跨越</text></g></g></g></svg>