<?xml version="1.0" encoding="UTF-8" standalone="no"?><!DOCTYPE svg PUBLIC "-//W3C//DTD SVG 1.1//EN" "http://www.w3.org/Graphics/SVG/1.1/DTD/svg11.dtd"><svg width="702.0px" height="365.0px" viewBox="0 0 702 365" version="1.1" xmlns="http://www.w3.org/2000/svg" xmlns:xlink="http://www.w3.org/1999/xlink" xml:space="preserve" xmlns:serif="http://www.serif.com/" style="fill-rule:evenodd;clip-rule:evenodd;stroke-linecap:square;"><g id="m1-2segments-open-close"><rect x="0" y="0" width="702" height="365" style="fill:#fff;"/><g id="Group"><path id="Path-35" d="M66,230l580,0" style="fill:none;fill-rule:nonzero;stroke:#ccc;stroke-width:1px;"/><path id="Path-351" serif:id="Path-35" d="M66,250l580,0" style="fill:none;fill-rule:nonzero;stroke:#ccc;stroke-width:1px;"/><path id="Path-352" serif:id="Path-35" d="M66,270l580,0" style="fill:none;fill-rule:nonzero;stroke:#ccc;stroke-width:1px;"/><path id="Path-353" serif:id="Path-35" d="M66,290l580,0" style="fill:none;fill-rule:nonzero;stroke:#ccc;stroke-width:1px;"/><path id="Path-354" serif:id="Path-35" d="M66,310l580,0" style="fill:none;fill-rule:nonzero;stroke:#ccc;stroke-width:1px;"/><path id="Path-355" serif:id="Path-35" d="M66,210l580,0" style="fill:none;fill-rule:nonzero;stroke:#ccc;stroke-width:1px;"/><path id="Path-356" serif:id="Path-35" d="M66,90l580,0" style="fill:none;fill-rule:nonzero;stroke:#ccc;stroke-width:1px;"/><path id="Path-357" serif:id="Path-35" d="M66,110l580,0" style="fill:none;fill-rule:nonzero;stroke:#ccc;stroke-width:1px;"/><path id="Path-358" serif:id="Path-35" d="M66,130l580,0" style="fill:none;fill-rule:nonzero;stroke:#ccc;stroke-width:1px;"/><path id="Path-359" serif:id="Path-35" d="M66,150l580,0" style="fill:none;fill-rule:nonzero;stroke:#ccc;stroke-width:1px;"/><path id="Path-3510" serif:id="Path-35" d="M66,170l580,0" style="fill:none;fill-rule:nonzero;stroke:#ccc;stroke-width:1px;"/><path id="Path-3511" serif:id="Path-35" d="M66,70l580,0" style="fill:none;fill-rule:nonzero;stroke:#ccc;stroke-width:1px;"/><path id="border" d="M61,250l580,0" style="fill:none;fill-rule:nonzero;stroke:#000;stroke-width:2px;stroke-dasharray:4,8;"/><path id="do" d="M61,190l580,0" style="fill:none;fill-rule:nonzero;stroke:#000;stroke-width:2px;"/><path id="border1" serif:id="border" d="M61,110l580,0" style="fill:none;fill-rule:nonzero;stroke:#000;stroke-width:2px;stroke-dasharray:4,8;"/><path id="do1" serif:id="do" d="M61,50l580,0" style="fill:none;fill-rule:nonzero;stroke:#000;stroke-width:2px;"/><path id="Line" d="M622,321l19,9.5l-19,9.5l0,-8l-563,0l0,-3l563,0l0,-8Z" style="fill-rule:nonzero;"/><path id="Line1" serif:id="Line" d="M65.5,16l9.5,19l-8,0l0,297l-3,0l0,-297l-8,0l9.5,-19Z" style="fill-rule:nonzero;"/><path id="Path" d="M146,331l0,-281" style="fill:none;fill-rule:nonzero;stroke:#000;stroke-opacity:0.25;stroke-width:1px;"/><path id="Path1" serif:id="Path" d="M227,331l0,-281" style="fill:none;fill-rule:nonzero;stroke:#000;stroke-opacity:0.25;stroke-width:1px;"/><path id="Path2" serif:id="Path" d="M307,331l0,-281" style="fill:none;fill-rule:nonzero;stroke:#000;stroke-opacity:0.25;stroke-width:1px;"/><path id="Path3" serif:id="Path" d="M387,331l0,-281" style="fill:none;fill-rule:nonzero;stroke:#000;stroke-opacity:0.25;stroke-width:1px;"/><path id="Path4" serif:id="Path" d="M468,331l0,-281" style="fill:none;fill-rule:nonzero;stroke:#000;stroke-opacity:0.25;stroke-width:1px;"/><path id="Path5" serif:id="Path" d="M549,331l0,-281" style="fill:none;fill-rule:nonzero;stroke:#000;stroke-opacity:0.25;stroke-width:1px;"/><path id="Path6" serif:id="Path" d="M630,331l0,-281" style="fill:none;fill-rule:nonzero;stroke:#000;stroke-opacity:0.25;stroke-width:1px;"/><g id="Degree"><path d="M38.88,335.438c0.96,-0.32 1.96,-0.48 3.3,-0.56l0.16,-0.7l-0.08,-0c-0.62,-0 -0.82,-0.14 -0.82,-0.56c-0,-0.28 0.06,-0.64 0.34,-1.98l1.5,-6.98c0.36,-1.62 0.72,-2.92 0.96,-3.56l-0.38,-0.26c-0.78,0.4 -2.7,1.02 -3.4,1.1l-0.14,0.7c0.76,-0 0.96,0.12 0.96,0.56c-0,0.24 -0.08,0.72 -0.3,1.72l-0.5,2.34c-0.64,-0.46 -1.22,-0.64 -2,-0.64c-2.8,-0 -5.28,2.74 -5.28,5.84c-0,1.82 1,2.94 2.6,2.94c0.94,-0 1.8,-0.34 3.18,-1.26c-0.12,0.3 -0.18,0.5 -0.36,0.92l0.26,0.38Zm-1.54,-1.52c-1.08,-0 -1.72,-0.84 -1.72,-2.2c-0,-2.18 1.46,-4.18 3.02,-4.18c0.86,-0 1.42,0.52 1.42,1.3c-0,0.26 -0.08,0.72 -0.24,1.46l-0.6,2.86c-0.72,0.56 -1.24,0.76 -1.88,0.76Zm10.68,1.48c3.2,-0 5.88,-2.46 5.88,-5.36c-0,-2.08 -1.5,-3.46 -3.74,-3.46c-3.24,-0 -5.96,2.46 -5.96,5.38c0,2.08 1.5,3.44 3.82,3.44Zm0.4,-0.82c-1.18,-0 -1.8,-0.9 -1.8,-2.6c0,-2.6 1.34,-4.56 3.1,-4.56c1.16,-0 1.8,0.9 1.8,2.56c-0,2.62 -1.32,4.6 -3.1,4.6Z"/></g><g id="Degree1" serif:id="Degree"><path d="M38.88,195.438c0.96,-0.32 1.96,-0.48 3.3,-0.56l0.16,-0.7l-0.08,-0c-0.62,-0 -0.82,-0.14 -0.82,-0.56c-0,-0.28 0.06,-0.64 0.34,-1.98l1.5,-6.98c0.36,-1.62 0.72,-2.92 0.96,-3.56l-0.38,-0.26c-0.78,0.4 -2.7,1.02 -3.4,1.1l-0.14,0.7c0.76,-0 0.96,0.12 0.96,0.56c-0,0.24 -0.08,0.72 -0.3,1.72l-0.5,2.34c-0.64,-0.46 -1.22,-0.64 -2,-0.64c-2.8,-0 -5.28,2.74 -5.28,5.84c-0,1.82 1,2.94 2.6,2.94c0.94,-0 1.8,-0.34 3.18,-1.26c-0.12,0.3 -0.18,0.5 -0.36,0.92l0.26,0.38Zm-1.54,-1.52c-1.08,-0 -1.72,-0.84 -1.72,-2.2c-0,-2.18 1.46,-4.18 3.02,-4.18c0.86,-0 1.42,0.52 1.42,1.3c-0,0.26 -0.08,0.72 -0.24,1.46l-0.6,2.86c-0.72,0.56 -1.24,0.76 -1.88,0.76Zm10.68,1.48c3.2,-0 5.88,-2.46 5.88,-5.36c-0,-2.08 -1.5,-3.46 -3.74,-3.46c-3.24,-0 -5.96,2.46 -5.96,5.38c0,2.08 1.5,3.44 3.82,3.44Zm0.4,-0.82c-1.18,-0 -1.8,-0.9 -1.8,-2.6c0,-2.6 1.34,-4.56 3.1,-4.56c1.16,-0 1.8,0.9 1.8,2.56c-0,2.62 -1.32,4.6 -3.1,4.6Z"/></g><g id="Degree2" serif:id="Degree"><path d="M38.88,55.438c0.96,-0.32 1.96,-0.48 3.3,-0.56l0.16,-0.7l-0.08,-0c-0.62,-0 -0.82,-0.14 -0.82,-0.56c-0,-0.28 0.06,-0.64 0.34,-1.98l1.5,-6.98c0.36,-1.62 0.72,-2.92 0.96,-3.56l-0.38,-0.26c-0.78,0.4 -2.7,1.02 -3.4,1.1l-0.14,0.7c0.76,-0 0.96,0.12 0.96,0.56c-0,0.24 -0.08,0.72 -0.3,1.72l-0.5,2.34c-0.64,-0.46 -1.22,-0.64 -2,-0.64c-2.8,-0 -5.28,2.74 -5.28,5.84c-0,1.82 1,2.94 2.6,2.94c0.94,-0 1.8,-0.34 3.18,-1.26c-0.12,0.3 -0.18,0.5 -0.36,0.92l0.26,0.38Zm-1.54,-1.52c-1.08,-0 -1.72,-0.84 -1.72,-2.2c-0,-2.18 1.46,-4.18 3.02,-4.18c0.86,-0 1.42,0.52 1.42,1.3c-0,0.26 -0.08,0.72 -0.24,1.46l-0.6,2.86c-0.72,0.56 -1.24,0.76 -1.88,0.76Zm10.68,1.48c3.2,-0 5.88,-2.46 5.88,-5.36c-0,-2.08 -1.5,-3.46 -3.74,-3.46c-3.24,-0 -5.96,2.46 -5.96,5.38c0,2.08 1.5,3.44 3.82,3.44Zm0.4,-0.82c-1.18,-0 -1.8,-0.9 -1.8,-2.6c0,-2.6 1.34,-4.56 3.1,-4.56c1.16,-0 1.8,0.9 1.8,2.56c-0,2.62 -1.32,4.6 -3.1,4.6Z"/></g><g id="_-" serif:id="①"><text x="45px" y="301px" style="font-family:'HiraMinProN-W6', 'Hiragino Mincho ProN', serif;font-weight:600;font-size:14px;">①</text></g><g id="_-1" serif:id="②"><text x="45px" y="235px" style="font-family:'HiraMinProN-W6', 'Hiragino Mincho ProN', serif;font-weight:600;font-size:14px;">②</text></g><g id="_-2" serif:id="③"><text x="45px" y="159px" style="font-family:'HiraMinProN-W6', 'Hiragino Mincho ProN', serif;font-weight:600;font-size:14px;">③</text></g><g id="_-3" serif:id="④"><text x="45px" y="87px" style="font-family:'HiraMinProN-W6', 'Hiragino Mincho ProN', serif;font-weight:600;font-size:14px;">④</text></g></g><g id="Group1" serif:id="Group"><rect id="Rectangle" x="147.5" y="190.5" width="158" height="138" style="fill:#f50;fill-opacity:0.49;stroke:#f50;stroke-width:1px;stroke-linecap:butt;"/><rect id="Rectangle1" serif:id="Rectangle" x="387.5" y="111.5" width="161" height="138" style="fill:#58c322;fill-opacity:0.45;stroke:#58c322;stroke-width:1px;stroke-linecap:butt;"/></g><g id="外向きの組織"><text x="184px" y="349px" style="font-family:'HiraginoSans-W6', 'Hiragino Sans', sans-serif;font-weight:600;font-size:14px;fill:#f50;">外向型的安排</text></g><g id="内向きの組織"><text x="431px" y="349px" style="font-family:'HiraginoSans-W6', 'Hiragino Sans', sans-serif;font-weight:600;font-size:14px;fill:#58c322;">内向型的安排</text></g><path id="Line-8" d="M228,266l0,38l8,0l-9.5,19l-9.5,-19l8,0l0,-38l3,0Z" style="fill:#f50;fill-rule:nonzero;"/><path id="Line-81" serif:id="Line-8" d="M228,253l0,-38l8,0l-9.5,-19l-9.5,19l8,0l0,38l3,0Z" style="fill:#f50;fill-rule:nonzero;"/><path id="Line-82" serif:id="Line-8" d="M467.5,197l9.5,19l-8,0l0,28l-3,0l0,-28l-8,0l9.5,-19Z" style="fill:#36a300;fill-rule:nonzero;"/><path id="Line-83" serif:id="Line-8" d="M467.5,182l9.5,-19l-8,0l0,-43l-3,0l0,43l-8,0l9.5,19Z" style="fill:#36a300;fill-rule:nonzero;"/></g></svg>