<?xml version="1.0" encoding="UTF-8"?>
<svg width="840px" height="190px" viewBox="0 0 840 190" version="1.1" xmlns="http://www.w3.org/2000/svg" xmlns:xlink="http://www.w3.org/1999/xlink">
    <!-- Generator: Sketch 64 (93537) - https://sketch.com -->
    <title>m1-delayed-resolution</title>
    <desc>Created with Sketch.</desc>
    <defs>
        <linearGradient x1="4.43653739%" y1="42.3335951%" x2="100%" y2="45.9978404%" id="linearGradient-1">
            <stop stop-color="#FF6633" offset="0%"></stop>
            <stop stop-color="#58C322" offset="100%"></stop>
        </linearGradient>
        <linearGradient x1="4.43653739%" y1="47.9370117%" x2="100%" y2="48.9230404%" id="linearGradient-2">
            <stop stop-color="#FF6633" offset="0%"></stop>
            <stop stop-color="#FFBF00" offset="47.796136%"></stop>
            <stop stop-color="#58C322" offset="100%"></stop>
        </linearGradient>
        <linearGradient x1="4.43653739%" y1="45.9652583%" x2="100%" y2="47.8937089%" id="linearGradient-3">
            <stop stop-color="#FF6633" offset="0%"></stop>
            <stop stop-color="#58C322" offset="100%"></stop>
        </linearGradient>
    </defs>
    <g id="m1-delayed-resolution" stroke="none" stroke-width="1" fill="none" fill-rule="evenodd">
        <g id="五線" transform="translate(18.000000, 59.000000)" stroke="#000000">
            <line x1="0" y1="10.5" x2="800" y2="10.5" id="horizon"></line>
            <line x1="0" y1="30.5" x2="800" y2="30.5" id="horizon"></line>
            <line x1="0" y1="50.5" x2="800" y2="50.5" id="horizon"></line>
            <line x1="0" y1="70.5" x2="800" y2="70.5" id="horizon"></line>
            <line x1="0" y1="90.5" x2="800" y2="90.5" id="horizon"></line>
        </g>
        <line x1="-23" y1="109" x2="58" y2="109" id="bar" stroke="#000000" stroke-width="2" stroke-linecap="round" stroke-linejoin="round" transform="translate(17.500000, 109.000000) rotate(90.000000) translate(-17.500000, -109.000000) "></line>
        <path d="M45.1620791,169.96278 C44.2662404,169.896201 43.4037992,169.750938 42.5904719,169.529009 C38.3745292,168.385065 35.4551952,165.207444 34.7754579,161.019036 C34.575073,159.792373 34.641868,157.871677 34.9227998,156.776154 C35.1369367,155.936859 35.6555802,154.738442 36.0740312,154.113005 C36.7793077,153.061868 37.9835821,152.067222 39.1858919,151.548715 C40.1740649,151.120997 40.7064603,151.008015 41.9519904,150.963629 C42.9401634,150.927313 43.1837686,150.943454 43.7554552,151.090734 C46.2425863,151.730293 48.2582234,153.86283 49.132452,156.784225 C49.3289078,157.443959 49.3465889,157.611415 49.350518,158.908692 C49.3544471,160.141407 49.3328369,160.397634 49.1776368,160.946404 C48.8338391,162.16298 48.2464361,163.143503 47.3073771,164.061482 C45.9321861,165.409197 44.321248,166.21823 42.1464817,166.658053 L41.2133164,166.847702 L41.8753726,167.13621 C45.4096135,168.689713 49.3230142,168.540416 52.9711994,166.716562 C56.1636071,165.122707 58.6330572,162.237628 59.4817465,159.110445 C59.6880252,158.353869 59.6998125,158.214659 59.6939188,156.776154 L59.6880252,155.246861 L58.4955381,149.331441 C57.8413401,146.077153 57.2873346,143.355495 57.2657245,143.280846 C57.2303624,143.165847 57.1478509,143.181987 56.5820581,143.418039 C52.9260146,144.945315 47.3938176,144.925139 42.3449021,143.3676 C35.4276914,141.235063 29.7815501,136.554376 26.8386413,130.513869 C25.9211925,128.627471 25.384868,126.823793 25.0882196,124.618624 C24.9546296,123.625996 24.9762398,120.997145 25.1294754,119.748289 C25.9486963,113.066205 29.3984611,106.365963 35.90115,98.8203724 C37.9246453,96.4719587 42.3547249,92.077762 45.3231729,89.4731211 C46.1129254,88.7811058 46.1463229,88.7367199 46.0854216,88.5127733 C45.9479025,87.9942661 45.4705148,85.4783969 45.3231729,84.491821 C44.6395065,79.8938531 44.6414711,74.5554489 45.327102,69.882832 C46.4036801,62.5430306 48.9281379,56.3754185 52.6018624,52.1143793 C53.2717769,51.3356098 54.6901882,50 54.8453883,50 C54.8945023,50 55.3247406,50.5891209 55.7981992,51.3093818 C60.1948813,57.9712907 62.5209186,63.9048684 63.1574356,70.070463 C63.3146003,71.6118617 63.27138,75.2293064 63.0749241,76.6395651 C62.4305489,81.2960417 60.9276616,85.3371693 58.3501608,89.3399637 C56.6645695,91.9607449 54.1263599,94.9386302 51.5351071,97.3394998 C50.943775,97.88827 50.3210099,98.4652858 50.1520579,98.6226537 L49.8455867,98.909144 L51.2030967,105.585176 L52.5586421,112.263225 L53.2305211,112.210769 C55.1204265,112.059453 57.116418,112.170418 58.5426875,112.503312 C60.4424157,112.949187 62.5798554,113.966026 64.1790061,115.182601 C65.0709157,115.862512 66.5561219,117.381717 67.1828161,118.257329 C68.6817743,120.347497 69.6601245,122.839156 69.9331981,125.258184 C70.0687527,126.454583 69.9882058,128.782822 69.7799625,129.75124 C68.9568125,133.582543 66.5207599,137.185865 62.8097087,140.056821 C61.8922599,140.766994 60.5543955,141.624448 59.581939,142.126815 C58.9238119,142.467779 58.8668397,142.514182 58.91006,142.691725 C58.9925714,143.028654 60.0475394,148.157234 60.4424157,150.136439 C60.6486943,151.17547 60.9669528,152.89643 61.1496567,153.959672 C61.4718443,155.831947 61.4816671,155.928789 61.4384469,157.139311 C61.3598645,159.439304 60.7822843,161.23693 59.4778174,163.256485 C56.9926508,167.099894 52.5409611,169.551202 47.3486328,169.932517 C46.2524091,170.013218 45.8987886,170.019271 45.1620791,169.96278 Z M51.7453149,142.885409 C52.7217005,142.770409 53.9593724,142.504094 54.7609123,142.233744 C55.7431916,141.904886 56.9278204,141.3198 56.880671,141.186642 C56.8590608,141.128134 55.8551714,136.23157 54.6489324,130.304045 C53.4426935,124.37652 52.4368395,119.508202 52.4132648,119.483991 C52.3896901,119.459781 51.9889201,119.516272 51.5233197,119.611096 C48.1069524,120.303112 45.3035273,122.262141 44.0756782,124.816343 C43.6886602,125.62134 43.5413183,126.147918 43.4411258,127.067915 C43.2289535,129.022909 43.8576122,131.169569 45.1443981,132.87237 C45.8928949,133.864999 47.0343034,134.926223 48.0814131,135.606134 C48.4821831,135.866396 48.5588009,135.993501 48.277869,135.932975 C48.1796411,135.912799 47.8358433,135.83815 47.5136557,135.769554 C44.9813397,135.222801 42.5315352,133.79035 41.1425923,132.047197 C39.9226014,130.513869 39.3037654,128.920014 39.1269552,126.848003 C38.9010309,124.207047 39.5925556,121.660914 41.2113518,119.16522 C42.256497,117.553208 44.0599617,115.79795 45.8673556,114.635849 C47.1757516,113.792518 49.1599558,112.933047 50.5115721,112.622346 C50.7591065,112.565855 50.961456,112.493224 50.961456,112.462961 C50.961456,112.376207 48.4566438,100.123702 48.4153881,100.006684 C48.3544868,99.8351937 44.9597296,102.619395 42.6729834,104.713599 C41.4117368,105.869648 38.7281498,108.663938 37.7537287,109.836127 C34.8127846,113.37287 32.9130564,116.554527 31.8502302,119.716008 C30.7815104,122.903717 30.516295,125.972392 31.0624422,128.875628 C31.726463,132.406319 34.0033864,136.10043 37.0484522,138.588054 C41.183848,141.965412 46.4508295,143.504793 51.7453149,142.885409 Z M59.5053212,139.528226 C62.3244628,137.107181 63.992373,134.353243 64.4854772,131.312814 C64.6505001,130.293957 64.6072798,128.14528 64.4049303,127.19502 C63.5798157,123.345558 61.0612516,120.373725 57.7411476,119.332676 C57.0869496,119.126887 56.9356786,119.110747 55.6469282,119.108729 C54.8296718,119.108729 54.2304815,119.138992 54.1892257,119.187413 C54.14797,119.233817 54.9907656,123.462575 56.3011262,129.771415 C57.4995069,135.547625 58.4817862,140.284803 58.4837508,140.298926 C58.491609,140.363487 58.8354067,140.103225 59.5053212,139.528226 Z M50.2836833,85.0163808 C55.959293,79.3349952 59.3127945,73.8029074 60.0121773,68.9628349 C60.169342,67.8733647 60.1673775,66.0959142 60.0062837,65.1274962 C59.6840961,63.1946952 58.8963081,61.4979462 57.5564791,59.8617233 C57.0240837,59.2120762 56.9435368,59.1777781 55.9376829,59.1797211 C54.8296718,59.1818131 53.8218533,59.7083904 52.7767081,60.8301413 C51.0439675,62.6842582 49.5960878,65.7145996 48.5293325,69.7073063 C47.0460908,75.2656221 46.5903132,82.2180563 47.4036404,86.9269888 L47.5313367,87.6714601 L48.3250184,86.9269888 C48.7611504,86.5174287 49.6412726,85.6579577 50.2836833,85.0163808 Z" id="G-Clef" fill="#000000"></path>
        <path d="M114.193172,61.2943217 C107.897921,64.6364576 104.544532,70.6853565 106.607728,75.2358031 C108.8081,80.0910819 116.3713,81.4609904 123.487751,78.2951429 C130.606057,75.1292955 134.595274,68.6176394 132.394902,63.7641969 C130.19453,58.9089181 122.63133,57.5390096 115.514879,60.7048571 C115.069985,60.9031816 114.612114,61.0702884 114.193172,61.2943217 Z" id="quarter" fill="#FF6633" transform="translate(119.500000, 69.500000) rotate(-180.000000) translate(-119.500000, -69.500000) "></path>
        <path d="M177.193172,81.2943217 C170.897921,84.6364576 167.544532,90.6853565 169.607728,95.2358031 C171.8081,100.091082 179.3713,101.46099 186.487751,98.2951429 C193.606057,95.1292955 197.595274,88.6176394 195.394902,83.7641969 C193.19453,78.9089181 185.63133,77.5390096 178.514879,80.7048571 C178.069985,80.9031816 177.612114,81.0702884 177.193172,81.2943217 Z" id="quarter" fill="#FFBF00" transform="translate(182.500000, 89.500000) rotate(-180.000000) translate(-182.500000, -89.500000) "></path>
        <path d="M251.193172,71.2943217 C244.897921,74.6364576 241.544532,80.6853565 243.607728,85.2358031 C245.8081,90.0910819 253.3713,91.4609904 260.487751,88.2951429 C267.606057,85.1292955 271.595274,78.6176394 269.394902,73.7641969 C267.19453,68.9089181 259.63133,67.5390096 252.514879,70.7048571 C252.069985,70.9031816 251.612114,71.0702884 251.193172,71.2943217 Z" id="quarter" fill="#58C322" transform="translate(256.500000, 79.500000) rotate(-180.000000) translate(-256.500000, -79.500000) "></path>
        <g id="Group" transform="translate(603.000000, 59.000000)">
            <path d="M8.19317249,2.29432169 C1.89792118,5.63645765 -1.45546798,11.6853565 0.607728336,16.2358031 C2.80810033,21.0910819 10.3712998,22.4609904 17.4877514,19.2951429 C24.6060568,16.1292955 28.5952737,9.61763938 26.3949018,4.76419689 C24.1945298,-0.0910819352 16.6313303,-1.46099041 9.51487867,1.70485706 C9.06998458,1.90318161 8.61211442,2.07028841 8.19317249,2.29432169 Z" id="quarter" fill="#FF6633" transform="translate(13.500000, 10.500000) rotate(-180.000000) translate(-13.500000, -10.500000) "></path>
            <path d="M150.193172,32.2943217 C143.897921,35.6364576 140.544532,41.6853565 142.607728,46.2358031 C144.8081,51.0910819 152.3713,52.4609904 159.487751,49.2951429 C166.606057,46.1292955 170.595274,39.6176394 168.394902,34.7641969 C166.19453,29.9089181 158.63133,28.5390096 151.514879,31.7048571 C151.069985,31.9031816 150.612114,32.0702884 150.193172,32.2943217 Z" id="quarter" fill="#58C322" transform="translate(155.500000, 40.500000) rotate(-180.000000) translate(-155.500000, -40.500000) "></path>
            <path d="M75.1931725,42.2943217 C68.8979212,45.6364576 65.544532,51.6853565 67.6077283,56.2358031 C69.8081003,61.0910819 77.3712998,62.4609904 84.4877514,59.2951429 C91.6060568,56.1292955 95.5952737,49.6176394 93.3949018,44.7641969 C91.1945298,39.9089181 83.6313303,38.5390096 76.5148787,41.7048571 C76.0699846,41.9031816 75.6121144,42.0702884 75.1931725,42.2943217 Z" id="quarter" fill="#FF6633" transform="translate(80.500000, 50.500000) rotate(-180.000000) translate(-80.500000, -50.500000) "></path>
        </g>
        <path id="Line-2" d="M678.688391,133.729688 L679.685321,133.807986 C680.663677,133.884825 681.645476,133.938618 682.630227,133.969337 L683.615942,133.992363 L684.615822,134.007901 L684.584746,136.00766 L683.584867,135.992122 C682.566826,135.976302 681.551559,135.936658 680.539584,135.873218 L679.528726,135.801846 L678.531796,135.723548 L678.688391,133.729688 Z M692.494689,133.521666 L692.708062,135.510252 L691.713769,135.616938 C690.699515,135.725767 689.686282,135.811424 688.674567,135.873887 L687.663375,135.928619 L686.664455,135.975072 L686.571549,133.977231 L687.570469,133.930778 C688.550883,133.885185 689.533058,133.817076 690.516521,133.726465 L691.500396,133.628353 L692.494689,133.521666 Z M670.88469,132.48039 L671.863348,132.685887 C672.826014,132.888026 673.793834,133.066954 674.766313,133.222597 L675.740327,133.370474 L676.73017,133.51264 L676.445838,135.492326 L675.455996,135.35016 C674.448648,135.205481 673.445897,135.036721 672.448263,134.843961 L671.452355,134.643203 L670.473697,134.437706 L670.88469,132.48039 Z M700.222603,132.115482 L700.664013,134.066164 L699.688672,134.286868 C698.693458,134.51207 697.697677,134.715174 696.701786,134.896119 L695.705875,135.069674 L694.719509,135.234246 L694.390367,133.261515 L695.376732,133.096944 C696.344365,132.935498 697.312193,132.752471 698.279777,132.547916 L699.247263,132.336187 L700.222603,132.115482 Z M663.292271,130.228794 L664.236092,130.559251 C665.166111,130.884876 666.10288,131.187669 667.045925,131.467512 L667.991045,131.739701 L668.954188,132.00869 L668.41621,133.934976 L667.453067,133.665987 C666.47485,133.392789 665.502969,133.095852 664.537925,132.775305 L663.575178,132.446893 L662.631357,132.116436 L663.292271,130.228794 Z M707.807921,129.838205 L708.459633,131.729044 L707.514214,132.0549 C706.549733,132.387326 705.583312,132.698987 704.615356,132.989795 L703.646905,133.273648 L702.685396,133.548421 L702.13585,131.625403 L703.097359,131.350629 C704.040475,131.081113 704.982393,130.791216 705.92272,130.48102 L706.862502,130.164061 L707.807921,129.838205 Z M656.17238,127.082316 L657.067262,127.52862 C657.950705,127.96922 658.84225,128.387827 659.74146,128.784291 L660.64321,129.173368 L661.564503,129.562236 L660.786767,131.404823 L659.865474,131.015954 C658.932049,130.621965 658.00646,130.2051 657.089166,129.765523 L656.174653,129.318382 L655.279772,128.872078 L656.17238,127.082316 Z M715.089089,126.793303 L715.928828,128.608472 L715.021244,129.028342 C714.096653,129.456079 713.169007,129.864542 712.23866,130.253624 L711.307425,130.63624 L710.380087,131.010464 L709.63164,129.155786 L710.558979,128.781563 C711.467961,128.414748 712.374584,128.028927 713.278501,127.624199 L714.181504,127.213173 L715.089089,126.793303 Z M649.405766,123.023286 L650.238997,123.576211 C651.063469,124.123323 651.897122,124.649664 652.739572,125.15506 L653.58494,125.653468 L654.45023,126.15474 L653.447685,127.885319 L652.582395,127.384047 C651.707777,126.87737 650.842209,126.349109 649.986095,125.799453 L649.133148,125.242673 L648.299916,124.689748 L649.405766,123.023286 Z M722.074078,123.041258 L723.080905,124.769349 L722.216859,125.272763 C721.336009,125.785967 720.451214,126.281338 719.562776,126.758758 L718.673135,127.230191 L717.78682,127.693272 L716.860657,125.920641 L717.746973,125.457559 C718.61733,125.002816 719.484375,124.530416 720.347811,124.040467 L721.210032,123.544672 L722.074078,123.041258 Z M738.475407,111.990211 L731.971557,126.227484 L728.157,121.497 L727.903906,121.673166 C727.532356,121.927489 727.159919,122.17857 726.786617,122.426398 L725.664141,123.160116 L724.823204,123.701249 L723.740938,122.019375 L724.581875,121.478242 C725.31596,121.005866 726.046854,120.520646 726.774379,120.02266 L726.898,119.936 L723.183279,115.329496 L738.475407,111.990211 Z M643.159311,118.177427 L643.92227,118.823874 C644.679209,119.465221 645.446095,120.087269 646.222596,120.689837 L647.002291,121.285904 L647.801112,121.887473 L646.597975,123.485115 L645.799154,122.883547 C644.993281,122.276668 644.197328,121.649781 643.411635,121.003084 L642.629376,120.349791 L641.866417,119.703344 L643.159311,118.177427 Z M637.491406,112.658527 L638.179281,113.384356 C638.862988,114.105789 639.557081,114.809558 640.261285,115.495482 L640.968849,116.17545 L641.694542,116.863469 L640.318505,118.314855 L639.592812,117.626837 C638.862441,116.934383 638.1425,116.223671 637.43327,115.494895 L636.727621,114.760105 L636.039747,114.034275 L637.491406,112.658527 Z M632.417693,106.56797 L633.028836,107.35949 C633.637397,108.147666 634.256518,108.919829 634.885976,109.675806 L635.518872,110.426382 L636.168256,111.186842 L634.647334,112.48561 L633.99795,111.725149 C633.345581,110.961193 632.70386,110.18074 632.073011,109.383973 L631.445796,108.581776 L630.834653,107.790256 L632.417693,106.56797 Z M627.941562,100.008595 L628.476868,100.853254 C629.010799,101.695745 629.555257,102.523813 630.110061,103.337301 L630.668306,104.145923 L631.241122,104.965607 L629.601754,106.111239 L629.028938,105.291555 C628.45431,104.469278 627.890312,103.632192 627.337126,102.780465 L626.78755,101.923865 L626.252245,101.079206 L627.941562,100.008595 Z M624.053277,93.0797019 L624.515468,93.9664821 C624.925743,94.7536532 625.344182,95.5306023 625.770684,96.2972298 L626.416471,97.4394172 L626.914665,98.3064829 L625.180533,99.3028703 L624.682339,98.4358046 C624.238682,97.6636546 623.803275,96.8810426 623.376218,96.0880734 L622.741908,94.890865 L622.279716,94.0040848 L624.053277,93.0797019 Z M621.502522,87.6780805 L621.912221,88.5903015 L622.322985,89.4935348 L622.322985,89.4935348 L622.740407,90.3888894 L623.167247,91.2932165 L621.358593,92.1468969 L620.931753,91.2425698 L620.50635,90.3300973 L620.50635,90.3300973 L620.087779,89.4096985 L619.67808,88.4974775 L621.502522,87.6780805 Z" fill="url(#linearGradient-1)" fill-rule="nonzero"></path>
        <line x1="276" y1="109" x2="355" y2="109" id="bar" stroke="#000000" stroke-linecap="round" stroke-linejoin="round" transform="translate(315.500000, 109.000000) rotate(90.000000) translate(-315.500000, -109.000000) "></line>
        <path id="Line-2" d="M196.619998,114.90651 L196.683273,116.905509 L195.683774,116.937146 C194.793247,116.965334 193.899038,116.984022 193.001574,116.993248 L191.652989,116.999996 L190.652989,116.999745 L190.65349,114.999745 L191.65349,114.999996 C192.539992,115.000218 193.42341,114.991147 194.303319,114.972748 L195.620499,114.938147 L196.619998,114.90651 Z M182.704334,114.693158 L183.702476,114.754093 C184.586572,114.808066 185.469383,114.853211 186.350455,114.889472 L187.670703,114.937192 L188.670219,114.968299 L188.608006,116.967331 L187.60849,116.936225 C186.715961,116.908448 185.821501,116.871627 184.925563,116.82582 L183.580605,116.750377 L182.582464,116.689441 L182.704334,114.693158 Z M204.501741,114.324602 L204.700726,116.314679 L203.705687,116.414171 C202.819344,116.502795 201.927525,116.58133 201.030633,116.649802 L199.68154,116.744963 L198.683631,116.809595 L198.554365,114.813777 L199.552274,114.749144 C200.438711,114.691731 201.320233,114.624448 202.196436,114.547274 L203.506703,114.424094 L204.501741,114.324602 Z M174.790789,113.920039 L175.783726,114.038679 C176.660706,114.143463 177.538234,114.23984 178.415825,114.327731 L179.7322,114.453193 L180.728133,114.543289 L180.547941,116.535156 L179.552008,116.44506 C178.661745,116.364523 177.771333,116.27534 176.881254,116.177591 L175.546448,116.024553 L174.55351,115.905914 L174.790789,113.920039 Z M212.363039,113.163145 L212.713307,115.132234 L211.728762,115.307368 C210.853298,115.463098 209.970467,115.608066 209.080651,115.742283 L207.740735,115.935545 L206.750082,116.071948 L206.477276,114.090641 L207.467929,113.954238 C208.347484,113.833133 209.220202,113.701513 210.085703,113.559375 L211.378495,113.338279 L212.363039,113.163145 Z M166.917497,112.6926 L167.90204,112.86774 C168.769541,113.022058 169.639529,113.168319 170.511487,113.306415 L171.820837,113.507423 L172.809966,113.654473 L172.515864,115.632731 L171.526735,115.48568 C170.64042,115.353914 169.755837,115.213813 168.873506,115.065482 L167.551762,114.836827 L166.567218,114.661688 L166.917497,112.6926 Z M220.059685,111.366412 L220.579137,113.297777 L219.613455,113.557503 C218.647513,113.817298 217.669641,114.062424 216.680356,114.292881 L215.687285,114.518447 L214.710923,114.734591 L214.278636,112.781868 L215.254997,112.565724 C216.230089,112.349861 217.193903,112.119718 218.145927,111.875306 L219.094003,111.626138 L220.059685,111.366412 Z M159.164651,111.023307 L160.13743,111.255038 C160.992243,111.458668 161.85167,111.654542 162.715158,111.842521 L164.013366,112.118553 L164.992495,112.321793 L164.586014,114.280051 L163.606885,114.07681 C162.72679,113.894127 161.850492,113.703354 160.978548,113.50463 L159.673968,113.200598 L158.701188,112.968866 L159.164651,111.023307 Z M245,99.6497927 L237.297258,113.275789 L233.877,108.196 L233.854763,108.208416 C233.252945,108.510819 232.643185,108.805534 232.025624,109.092552 L231.093452,109.517306 L230.1804,109.925149 L229.364714,108.099045 L230.277766,107.691202 C231.117112,107.316282 231.941779,106.927229 232.751403,106.524076 L229.477558,101.663196 L245,99.6497927 Z M227.56442,108.8413 L228.275632,110.710571 L227.340996,111.066178 C226.403711,111.422792 225.451556,111.763455 224.485031,112.088157 L223.513733,112.407537 L222.561798,112.713837 L221.949199,110.809966 L222.901135,110.503667 C223.852509,110.197548 224.789692,109.875988 225.712194,109.539015 L226.629784,109.196906 L227.56442,108.8413 Z M151.517377,108.89283 L152.474203,109.183492 C153.312069,109.438017 154.156994,109.685062 155.008384,109.924449 L156.290243,110.277763 L157.255643,110.538537 L156.734095,112.469337 L155.768695,112.208563 C154.897691,111.973287 154.032863,111.730118 153.174807,111.479234 L151.892879,111.097143 L150.936053,110.806481 L151.517377,108.89283 Z M144.034185,106.276908 L144.96935,106.631119 C145.784145,106.939738 146.608918,107.241148 147.443033,107.535122 L148.701133,107.970479 L149.647987,108.292141 L149.004664,110.18585 L148.057809,109.864188 C147.200036,109.572789 146.351291,109.273657 145.512213,108.967016 L144.260927,108.50145 L143.325762,108.147238 L144.034185,106.276908 Z M136.77557,103.125754 L137.68044,103.55144 C138.562049,103.966182 139.460951,104.37215 140.376173,104.768931 L141.296798,105.162636 L142.218177,105.551301 L141.440846,107.394059 L140.519467,107.005393 C139.57495,106.606967 138.646436,106.198894 137.734904,105.781571 L136.829068,105.361181 L135.924197,104.935495 L136.77557,103.125754 Z M129.814828,99.3432198 L130.674828,99.8535134 C131.505892,100.346637 132.360505,100.831409 133.237612,101.307299 L134.122178,101.780208 L135.006916,102.246298 L134.074735,104.015773 L133.189998,103.549683 C132.275852,103.0681 131.38389,102.576948 130.515172,102.076732 L129.654241,101.573514 L128.794241,101.06322 L129.814828,99.3432198 Z M123.359383,94.815845 L124.147865,95.4309022 C124.951248,96.0575827 125.791533,96.6754962 126.667331,97.283788 L127.330816,97.7381895 L128.159519,98.2978774 L127.040143,99.9552843 L126.21144,99.3955965 C125.288171,98.772041 124.400275,98.137623 123.549164,97.4931216 L122.917751,97.0078671 L122.129268,96.3928099 L123.359383,94.815845 Z M117.738089,89.3468066 L118.40034,90.096088 C119.06453,90.8475623 119.780781,91.5916907 120.547611,92.327298 L121.132193,92.8773875 L121.866917,93.5557538 L120.510184,95.0252015 L119.77546,94.3468352 C118.944431,93.5795507 118.164502,92.8014082 117.437283,92.0134164 L116.901778,91.4205915 L116.239526,90.6713101 L117.738089,89.3468066 Z" fill="url(#linearGradient-2)" fill-rule="nonzero"></path>
        <g id="Group-2" transform="translate(356.000000, 59.000000)">
            <path d="M8.19317249,2.29432169 C1.89792118,5.63645765 -1.45546798,11.6853565 0.607728336,16.2358031 C2.80810033,21.0910819 10.3712998,22.4609904 17.4877514,19.2951429 C24.6060568,16.1292955 28.5952737,9.61763938 26.3949018,4.76419689 C24.1945298,-0.0910819352 16.6313303,-1.46099041 9.51487867,1.70485706 C9.06998458,1.90318161 8.61211442,2.07028841 8.19317249,2.29432169 Z" id="quarter" fill="#FF6633" transform="translate(13.500000, 10.500000) rotate(-180.000000) translate(-13.500000, -10.500000) "></path>
            <path d="M71.1931725,42.2943217 C64.8979212,45.6364576 61.544532,51.6853565 63.6077283,56.2358031 C65.8081003,61.0910819 73.3712998,62.4609904 80.4877514,59.2951429 C87.6060568,56.1292955 91.5952737,49.6176394 89.3949018,44.7641969 C87.1945298,39.9089181 79.6313303,38.5390096 72.5148787,41.7048571 C72.0699846,41.9031816 71.6121144,42.0702884 71.1931725,42.2943217 Z" id="quarter" fill="#FF6633" transform="translate(76.500000, 50.500000) rotate(-180.000000) translate(-76.500000, -50.500000) "></path>
            <path d="M145.193172,12.2943217 C138.897921,15.6364576 135.544532,21.6853565 137.607728,26.2358031 C139.8081,31.0910819 147.3713,32.4609904 154.487751,29.2951429 C161.606057,26.1292955 165.595274,19.6176394 163.394902,14.7641969 C161.19453,9.90891806 153.63133,8.53900959 146.514879,11.7048571 C146.069985,11.9031816 145.612114,12.0702884 145.193172,12.2943217 Z" id="quarter" fill="#58C322" transform="translate(150.500000, 20.500000) rotate(-180.000000) translate(-150.500000, -20.500000) "></path>
            <path id="Line-2" d="M80.3089271,66.3874034 L80.3924422,68.385659 L79.3933145,68.4274165 C78.3764283,68.4699163 77.3624943,68.4937853 76.352078,68.4989731 L75.3428551,68.4979319 L74.3428811,68.4907179 L74.3573092,66.4907699 L75.3572832,66.497984 C76.340722,66.5050787 77.3279249,66.4939285 78.3183375,66.4645774 L79.3097993,66.429161 L80.3089271,66.3874034 Z M66.45015,65.9258269 L67.4440452,66.0361552 C68.4198873,66.1444796 69.4015107,66.2338289 70.3883685,66.3042077 L71.3769508,66.3682631 L72.3752558,66.4264628 L72.2588564,68.4230728 L71.2605515,68.3648731 C70.2442364,68.3056234 69.2329405,68.2268921 68.2272242,68.1286679 L67.2233886,68.0239456 L66.2294934,67.9136173 L66.45015,65.9258269 Z M88.1957949,65.5885612 L88.4660267,67.5702208 L87.4751969,67.7053366 C86.4678314,67.8427074 85.4614526,67.9623821 84.4566188,68.0642726 L83.4523207,68.1602318 L82.4563187,68.2495623 L82.2776578,66.2575582 L83.2736598,66.1682277 C84.1454205,66.0900403 85.0186161,65.9980896 85.8928604,65.8924334 L87.2049651,65.723677 L88.1957949,65.5885612 Z M58.7544191,64.5377302 L59.7303868,64.7556452 C60.6881253,64.96949 61.6536648,65.1637379 62.6264777,65.3383555 L63.6016957,65.5064285 L64.5883189,65.6694459 L64.2622841,67.6426923 L63.2756609,67.4796749 C62.2705612,67.3136046 61.2725871,67.1273073 60.2822834,66.9208101 L59.2945568,66.7075807 L58.318589,66.4896657 L58.7544191,64.5377302 Z M95.9780536,64.0803725 L96.4227061,66.0303171 L95.4477338,66.2526434 C94.5684425,66.4531512 93.6884767,66.6404541 92.8082164,66.8144666 L91.4876525,67.0655069 L90.5039041,67.2450597 L90.1447985,65.277563 L91.1285469,65.0980102 C91.9898728,64.9408019 92.8511739,64.7705341 93.7120754,64.587289 L95.0030813,64.3026987 L95.9780536,64.0803725 Z M51.1944031,62.2592746 L52.1380841,62.5901313 C53.0645546,62.914954 54.0008157,63.2197346 54.9463724,63.5044061 L55.8950093,63.7823721 L56.8567082,64.0564804 L56.3084916,65.979878 L55.3467928,65.7057697 C54.3665515,65.4263764 53.3955572,65.126198 52.434327,64.805298 L51.4763706,64.4774933 L50.5326896,64.1466366 L51.1944031,62.2592746 Z M103.603158,61.90828 L104.211154,63.8136253 L103.258482,64.1176233 C102.399923,64.3915895 101.539337,64.653087 100.677086,64.9020094 L99.3825074,65.2659482 L98.4179514,65.5298266 L97.8901947,63.6007147 L98.8547506,63.3368363 C99.7006073,63.1054311 100.54507,62.861643 101.38778,62.6055756 L102.650486,62.212278 L103.603158,61.90828 Z M43.9672706,59.0795695 L44.8627463,59.5246799 C45.7422266,59.9618395 46.6332973,60.3788276 47.5355096,60.7755517 L48.4414192,61.1655178 L49.3629751,61.5537635 L48.5864837,63.3968753 L47.6649278,63.0086296 C46.7265825,62.6133106 45.7994598,62.1970018 44.8840343,61.7597974 L43.9725255,61.3156313 L43.0770498,60.8705208 L43.9672706,59.0795695 Z M110.99028,59.1270851 L111.75112,60.976713 L110.826306,61.3571327 C109.994298,61.6993767 109.159018,62.0298955 108.320808,62.3485659 L107.061337,62.8176696 L106.121886,63.1603525 L105.43652,61.2814503 L106.375972,60.9387673 C107.200109,60.6381475 108.021582,60.3258416 108.840053,60.0019704 L110.065466,59.5075048 L110.99028,59.1270851 Z M118.178046,55.7400016 L119.084028,57.523032 L118.192513,57.9760228 C117.390541,58.3835155 116.584126,58.7799744 115.773589,59.1652626 L114.554731,59.7347996 L113.645977,60.1521308 L112.811314,58.334622 L113.720069,57.9172907 C114.518643,57.5505577 115.313358,57.1727944 116.103896,56.7841355 L117.286531,56.1929923 L118.178046,55.7400016 Z M37.2060685,55.012155 L38.0371048,55.5683733 C38.8545878,56.1155203 39.6851592,56.642708 40.5284251,57.1498291 L41.375908,57.6502573 L42.2410476,58.1517884 L41.2379854,59.8820677 L40.3728458,59.3805366 C39.4933256,58.8706689 38.6267253,58.3400082 37.7734655,57.7886709 L36.9246682,57.2304458 L36.093632,56.6742275 L37.2060685,55.012155 Z M125.051948,51.810984 L126.094728,53.5176212 L125.24141,54.0390111 C124.473773,54.5080479 123.700614,54.9667198 122.922227,55.4148798 L121.750763,56.0792177 L120.877701,56.566827 L119.902482,54.8207032 L120.775544,54.3330939 C121.543903,53.9039616 122.307292,53.4644422 123.06542,53.0146804 L124.19863,52.3323739 L125.051948,51.810984 Z M31.0207028,50.0982061 L31.7725881,50.7574999 C32.5140296,51.407636 33.2696363,52.0384145 34.0390731,52.6497235 L34.8131077,53.2545384 L35.6060375,53.8638515 L34.3874114,55.449711 L33.5944816,54.840398 C32.7902322,54.2223866 32.0001702,53.5842404 31.2246543,52.9260876 L30.4540004,52.2612707 L29.7021151,51.6019768 L31.0207028,50.0982061 Z M131.606216,47.3530401 L132.778677,48.9733288 L131.968532,49.5595592 C131.240593,50.086305 130.506149,50.603362 129.765469,51.1105782 L128.649805,51.8640026 L127.817465,52.4182684 L126.708933,50.753589 L127.541273,50.1993232 C128.273734,49.711568 129.000212,49.2140853 129.720443,48.7070251 L130.796071,47.9392705 L131.606216,47.3530401 Z M25.5103951,44.4213555 L26.172125,45.1710978 C26.826833,45.9128843 27.4963045,46.6362752 28.1802623,47.3411622 L28.8690385,48.0398771 L29.5766785,48.7464504 L28.163532,50.1617302 L27.4558921,49.455157 C26.7399934,48.7403374 26.0390283,48.0064629 25.353291,47.2536623 L24.6726404,46.4945577 L24.0109105,45.7448154 L25.5103951,44.4213555 Z M147.010666,34.7978073 L141.801734,49.558127 L137.585,45.191 L137.294321,45.4359912 C136.948472,45.7222056 136.600802,46.00614 136.25134,46.2877752 L135.197609,47.1257639 L134.410911,47.7431014 L133.176236,46.1697044 L133.962935,45.5523669 C134.655347,45.0090179 135.340845,44.4565773 136.019192,43.8951973 L136.193,43.749 L132.077051,39.4868542 L147.010666,34.7978073 Z M20.7612658,38.1282384 L21.3274283,38.9525321 C21.8893318,39.7706249 22.4661095,40.5715819 23.0575371,41.3553038 L23.6538399,42.1332771 L24.2681326,42.9223553 L22.6899762,44.1509408 L22.0756835,43.3618626 C21.4561619,42.5660679 20.85177,41.7526275 20.2627407,40.921661 L19.678841,40.0848571 L19.1126785,39.2605634 L20.7612658,38.1282384 Z M16.7824547,31.3479573 L17.2527681,32.2304568 C17.7208554,33.1087789 18.2035295,33.9713927 18.700612,34.8182107 L19.2024907,35.65976 L19.7206678,36.5150334 L18.0101211,37.5513875 L17.491944,36.6961142 C16.9709689,35.8362227 16.4648621,34.9602599 15.9738042,34.0683309 L15.4877693,33.1710837 L15.0174558,32.2885843 L16.7824547,31.3479573 Z" fill="url(#linearGradient-3)" fill-rule="nonzero"></path>
        </g>
        <line x1="526" y1="109" x2="605" y2="109" id="bar" stroke="#000000" stroke-linecap="round" stroke-linejoin="round" transform="translate(565.500000, 109.000000) rotate(90.000000) translate(-565.500000, -109.000000) "></line>
        <line x1="778" y1="109" x2="857" y2="109" id="bar" stroke="#000000" stroke-linecap="round" stroke-linejoin="round" transform="translate(817.500000, 109.000000) rotate(90.000000) translate(-817.500000, -109.000000) "></line>
        <text id="(1)" font-family="HiraginoSans-W4, Hiragino Sans" font-size="16" font-weight="normal" fill="#000000">
            <tspan x="110" y="36">(1)</tspan>
        </text>
        <text id="(2)" font-family="HiraginoSans-W4, Hiragino Sans" font-size="16" font-weight="normal" fill="#000000">
            <tspan x="356" y="36">(2)</tspan>
        </text>
        <text id="(3)" font-family="HiraginoSans-W4, Hiragino Sans" font-size="16" font-weight="normal" fill="#000000">
            <tspan x="602" y="36">(3)</tspan>
        </text>
    </g>
</svg>