<?xml version="1.0" encoding="UTF-8"?>
<svg width="489px" height="160px" viewBox="0 0 489 160" version="1.1" xmlns="http://www.w3.org/2000/svg" xmlns:xlink="http://www.w3.org/1999/xlink">
    <title>M1-hamori-classification</title>
    <g id="M1-hamori-classification" stroke="none" stroke-width="1" fill="none" fill-rule="evenodd">
        <g id="五線" transform="translate(16.000000, 35.000000)" stroke="#000000">
            <line x1="0" y1="10.5" x2="460" y2="10.5" id="horizon"></line>
            <line x1="0" y1="30.5" x2="460" y2="30.5" id="horizon"></line>
            <line x1="0" y1="50.5" x2="460" y2="50.5" id="horizon"></line>
            <line x1="0" y1="70.5" x2="460" y2="70.5" id="horizon"></line>
            <line x1="0" y1="90.5" x2="460" y2="90.5" id="horizon"></line>
        </g>
        <line x1="-23" y1="85" x2="58" y2="85" id="bar" stroke="#000000" stroke-width="2" stroke-linecap="round" stroke-linejoin="round" transform="translate(17.500000, 85.000000) rotate(90.000000) translate(-17.500000, -85.000000) "></line>
        <path d="M45.1620791,145.96278 C44.2662404,145.896201 43.4037992,145.750938 42.5904719,145.529009 C38.3745292,144.385065 35.4551952,141.207444 34.7754579,137.019036 C34.575073,135.792373 34.641868,133.871677 34.9227998,132.776154 C35.1369367,131.936859 35.6555802,130.738442 36.0740312,130.113005 C36.7793077,129.061868 37.9835821,128.067222 39.1858919,127.548715 C40.1740649,127.120997 40.7064603,127.008015 41.9519904,126.963629 C42.9401634,126.927313 43.1837686,126.943454 43.7554552,127.090734 C46.2425863,127.730293 48.2582234,129.86283 49.132452,132.784225 C49.3289078,133.443959 49.3465889,133.611415 49.350518,134.908692 C49.3544471,136.141407 49.3328369,136.397634 49.1776368,136.946404 C48.8338391,138.16298 48.2464361,139.143503 47.3073771,140.061482 C45.9321861,141.409197 44.321248,142.21823 42.1464817,142.658053 L41.2133164,142.847702 L41.8753726,143.13621 C45.4096135,144.689713 49.3230142,144.540416 52.9711994,142.716562 C56.1636071,141.122707 58.6330572,138.237628 59.4817465,135.110445 C59.6880252,134.353869 59.6998125,134.214659 59.6939188,132.776154 L59.6880252,131.246861 L58.4955381,125.331441 C57.8413401,122.077153 57.2873346,119.355495 57.2657245,119.280846 C57.2303624,119.165847 57.1478509,119.181987 56.5820581,119.418039 C52.9260146,120.945315 47.3938176,120.925139 42.3449021,119.3676 C35.4276914,117.235063 29.7815501,112.554376 26.8386413,106.513869 C25.9211925,104.627471 25.384868,102.823793 25.0882196,100.618624 C24.9546296,99.6259959 24.9762398,96.9971445 25.1294754,95.7482888 C25.9486963,89.0662046 29.3984611,82.3659626 35.90115,74.8203724 C37.9246453,72.4719587 42.3547249,68.077762 45.3231729,65.4731211 C46.1129254,64.7811058 46.1463229,64.7367199 46.0854216,64.5127733 C45.9479025,63.9942661 45.4705148,61.4783969 45.3231729,60.491821 C44.6395065,55.8938531 44.6414711,50.5554489 45.327102,45.882832 C46.4036801,38.5430306 48.9281379,32.3754185 52.6018624,28.1143793 C53.2717769,27.3356098 54.6901882,26 54.8453883,26 C54.8945023,26 55.3247406,26.5891209 55.7981992,27.3093818 C60.1948813,33.9712907 62.5209186,39.9048684 63.1574356,46.070463 C63.3146003,47.6118617 63.27138,51.2293064 63.0749241,52.6395651 C62.4305489,57.2960417 60.9276616,61.3371693 58.3501608,65.3399637 C56.6645695,67.9607449 54.1263599,70.9386302 51.5351071,73.3394998 C50.943775,73.88827 50.3210099,74.4652858 50.1520579,74.6226537 L49.8455867,74.909144 L51.2030967,81.5851756 L52.5586421,88.2632247 L53.2305211,88.2107687 C55.1204265,88.0594534 57.116418,88.170418 58.5426875,88.5033117 C60.4424157,88.9491874 62.5798554,89.9660263 64.1790061,91.1826015 C65.0709157,91.8625116 66.5561219,93.3817173 67.1828161,94.2573286 C68.6817743,96.3474974 69.6601245,98.8391563 69.9331981,101.258184 C70.0687527,102.454583 69.9882058,104.782822 69.7799625,105.75124 C68.9568125,109.582543 66.5207599,113.185865 62.8097087,116.056821 C61.8922599,116.766994 60.5543955,117.624448 59.581939,118.126815 C58.9238119,118.467779 58.8668397,118.514182 58.91006,118.691725 C58.9925714,119.028654 60.0475394,124.157234 60.4424157,126.136439 C60.6486943,127.17547 60.9669528,128.89643 61.1496567,129.959672 C61.4718443,131.831947 61.4816671,131.928789 61.4384469,133.139311 C61.3598645,135.439304 60.7822843,137.23693 59.4778174,139.256485 C56.9926508,143.099894 52.5409611,145.551202 47.3486328,145.932517 C46.2524091,146.013218 45.8987886,146.019271 45.1620791,145.96278 Z M51.7453149,118.885409 C52.7217005,118.770409 53.9593724,118.504094 54.7609123,118.233744 C55.7431916,117.904886 56.9278204,117.3198 56.880671,117.186642 C56.8590608,117.128134 55.8551714,112.23157 54.6489324,106.304045 C53.4426935,100.37652 52.4368395,95.5082018 52.4132648,95.4839914 C52.3896901,95.4597809 51.9889201,95.516272 51.5233197,95.6110963 C48.1069524,96.3031116 45.3035273,98.2621405 44.0756782,100.816343 C43.6886602,101.62134 43.5413183,102.147918 43.4411258,103.067915 C43.2289535,105.022909 43.8576122,107.169569 45.1443981,108.87237 C45.8928949,109.864999 47.0343034,110.926223 48.0814131,111.606134 C48.4821831,111.866396 48.5588009,111.993501 48.277869,111.932975 C48.1796411,111.912799 47.8358433,111.83815 47.5136557,111.769554 C44.9813397,111.222801 42.5315352,109.79035 41.1425923,108.047197 C39.9226014,106.513869 39.3037654,104.920014 39.1269552,102.848003 C38.9010309,100.207047 39.5925556,97.6609144 41.2113518,95.1652205 C42.256497,93.553208 44.0599617,91.7979504 45.8673556,90.6358488 C47.1757516,89.7925181 49.1599558,88.9330471 50.5115721,88.6223464 C50.7591065,88.5658553 50.961456,88.493224 50.961456,88.4629609 C50.961456,88.3762068 48.4566438,76.1237016 48.4153881,76.0066844 C48.3544868,75.8351937 44.9597296,78.6193955 42.6729834,80.7135994 C41.4117368,81.8696484 38.7281498,84.6639378 37.7537287,85.8361271 C34.8127846,89.3728703 32.9130564,92.5545269 31.8502302,95.7160082 C30.7815104,98.9037175 30.516295,101.972392 31.0624422,104.875628 C31.726463,108.406319 34.0033864,112.10043 37.0484522,114.588054 C41.183848,117.965412 46.4508295,119.504793 51.7453149,118.885409 Z M59.5053212,115.528226 C62.3244628,113.107181 63.992373,110.353243 64.4854772,107.312814 C64.6505001,106.293957 64.6072798,104.14528 64.4049303,103.19502 C63.5798157,99.3455582 61.0612516,96.3737254 57.7411476,95.3326761 C57.0869496,95.1268873 56.9356786,95.110747 55.6469282,95.1087294 C54.8296718,95.1087294 54.2304815,95.1389925 54.1892257,95.1874134 C54.14797,95.2338167 54.9907656,99.4625753 56.3011262,105.771415 C57.4995069,111.547625 58.4817862,116.284803 58.4837508,116.298926 C58.491609,116.363487 58.8354067,116.103225 59.5053212,115.528226 Z M50.2836833,61.0163808 C55.959293,55.3349952 59.3127945,49.8029074 60.0121773,44.9628349 C60.169342,43.8733647 60.1673775,42.0959142 60.0062837,41.1274962 C59.6840961,39.1946952 58.8963081,37.4979462 57.5564791,35.8617233 C57.0240837,35.2120762 56.9435368,35.1777781 55.9376829,35.1797211 C54.8296718,35.1818131 53.8218533,35.7083904 52.7767081,36.8301413 C51.0439675,38.6842582 49.5960878,41.7145996 48.5293325,45.7073063 C47.0460908,51.2656221 46.5903132,58.2180563 47.4036404,62.9269888 L47.5313367,63.6714601 L48.3250184,62.9269888 C48.7611504,62.5174287 49.6412726,61.6579577 50.2836833,61.0163808 Z" id="G-Clef" fill="#000000"></path>
        <g id="Note" transform="translate(107.000000, 64.000000)" fill="#0C0C0C" fill-rule="nonzero">
            <path d="M9.19317249,2.29432169 C2.89792118,5.63645765 -0.455467984,11.6853565 1.60772834,16.2358031 C3.80810033,21.0910819 11.3712998,22.4609904 18.4877514,19.2951429 C25.6060568,16.1292955 29.5952737,9.61763938 27.3949018,4.76419689 C25.1945298,-0.0910819352 17.6313303,-1.46099041 10.5148787,1.70485706 C10.0699846,1.90318161 9.61211442,2.07028841 9.19317249,2.29432169 Z" id="note" transform="translate(14.500000, 10.500000) rotate(-180.000000) translate(-14.500000, -10.500000) "></path>
        </g>
        <g id="gravi-1" transform="translate(137.000000, 63.000000)" fill="#0E1517">
            <g id="gravitation" transform="translate(0.000000, 3.000000)">
                <path d="M7.17915625,14.032 C7.56978125,14.032 7.56978125,14.032 7.76509375,13.8562188 C7.96040625,13.6804375 7.96040625,13.6804375 7.96040625,13.328875 C7.96040625,12.93825 7.96040625,12.93825 7.72603125,12.7966484 C7.49165625,12.6550469 7.49165625,12.6550469 6.62251563,12.6550469 L6.62251563,12.6550469 L5.06001563,12.6550469 L5.06001563,2.08864063 C5.06001563,1.79567188 5.06001563,1.79567188 4.95259375,1.62477344 C4.84517188,1.453875 4.84517188,1.453875 4.659625,1.453875 C4.55220313,1.453875 4.55220313,1.453875 4.44966406,1.46852344 C4.347125,1.48317188 4.347125,1.48317188 4.23970313,1.51246875 L4.23970313,1.51246875 L1.3393125,2.29371875 C1.0268125,2.38160938 1.0268125,2.38160938 0.860796875,2.55739063 C0.69478125,2.73317188 0.69478125,2.73317188 0.69478125,2.96754688 C0.69478125,3.25075 0.69478125,3.25075 0.885210938,3.42164844 C1.07564063,3.59254688 1.07564063,3.59254688 1.378375,3.59254688 C1.42720313,3.59254688 1.42720313,3.59254688 1.49067969,3.58278125 C1.55415625,3.57301563 1.55415625,3.57301563 1.68110938,3.55348438 L1.68110938,3.55348438 L3.51704688,3.11403125 L3.51704688,12.6550469 L1.89595313,12.6550469 C1.0268125,12.6550469 1.0268125,12.6550469 0.7924375,12.7966484 C0.5580625,12.93825 0.5580625,12.93825 0.5580625,13.328875 C0.5580625,13.6804375 0.5580625,13.6804375 0.753375,13.8562188 C0.9486875,14.032 0.9486875,14.032 1.3393125,14.032 L1.3393125,14.032 Z M12.0248594,7.03004688 C13.3432188,7.03004688 13.3432188,7.03004688 14.2514219,6.12184375 C15.159625,5.21364063 15.159625,5.21364063 15.159625,3.89528125 C15.159625,2.57692188 15.159625,2.57692188 14.2465391,1.66383594 C13.3334531,0.75075 13.3334531,0.75075 12.0248594,0.75075 C10.7162656,0.75075 10.7162656,0.75075 9.79829688,1.66871875 C8.88032813,2.5866875 8.88032813,2.5866875 8.88032813,3.89528125 C8.88032813,5.21364063 8.88032813,5.21364063 9.78853125,6.12184375 C10.6967344,7.03004688 10.6967344,7.03004688 12.0248594,7.03004688 Z M12.0248594,5.5945 C11.3119688,5.5945 11.3119688,5.5945 10.8383359,5.10133594 C10.3647031,4.60817188 10.3647031,4.60817188 10.3647031,3.89528125 C10.3647031,3.18239063 10.3647031,3.18239063 10.8432188,2.68922656 C11.3217344,2.1960625 11.3217344,2.1960625 12.0248594,2.1960625 C12.7182188,2.1960625 12.7182188,2.1960625 13.2016172,2.68922656 C13.6850156,3.18239063 13.6850156,3.18239063 13.6850156,3.89528125 C13.6850156,4.60817188 13.6850156,4.60817188 13.2016172,5.10133594 C12.7182188,5.5945 12.7182188,5.5945 12.0248594,5.5945 Z" id="Combined-Shape"></path>
            </g>
        </g>
        <g id="int-up" transform="translate(428.000000, 25.000000)" fill="#0C0C0C" fill-rule="nonzero">
            <path d="M6.88654897,4.090985 C6.94514272,4.090985 6.94514272,4.090985 7.09162709,4.11051625 L7.09162709,4.11051625 L7.16975209,4.1300475 L8.16584584,4.2862975 L8.23084828,4.30308216 C8.32331655,4.33878773 8.32331655,4.33878773 8.38557241,4.43766468 C8.46858022,4.56950062 8.46858022,4.56950062 8.46858022,4.78434437 L8.46858022,4.78434437 L8.46858022,12.2062194 L8.96662709,12.2062194 L9.04865834,12.1993834 C9.20490834,12.1720397 9.20490834,12.1720397 9.29865834,12.0353209 C9.41584584,11.8644225 9.41584584,11.8644225 9.56233022,11.8644225 C9.75764272,11.8644225 9.75764272,11.8644225 9.89436147,12.0109069 C10.0310802,12.1573912 10.0310802,12.1573912 10.0310802,12.372235 C10.0310802,12.4601256 10.0310802,12.4601256 10.0213146,12.5333678 C10.011549,12.60661 10.011549,12.60661 9.98225209,12.684735 L9.98225209,12.684735 L9.90412709,13.0851256 L9.87424428,13.2167662 C9.80940053,13.4620787 9.80940053,13.4620787 9.70393178,13.5636412 C9.57209584,13.6905944 9.57209584,13.6905944 9.28889272,13.6905944 L9.28889272,13.6905944 L8.46858022,13.6905944 L8.46858022,15.3312194 L8.81037709,15.3312194 L8.98097658,15.3343085 C9.46885924,15.3528433 9.46885924,15.3528433 9.66975209,15.4825866 C9.90412709,15.6339537 9.90412709,15.6339537 9.90412709,16.0050475 C9.90412709,16.35661 9.90412709,16.35661 9.70881459,16.5323912 C9.51350209,16.7081725 9.51350209,16.7081725 9.12287709,16.7081725 L9.12287709,16.7081725 L5.96858022,16.7081725 L5.82073951,16.7039679 C5.47216095,16.6829446 5.47216095,16.6829446 5.33381459,16.5568053 C5.16779897,16.4054381 5.16779897,16.4054381 5.16779897,16.0050475 C5.16779897,15.653485 5.16779897,15.653485 5.33869741,15.4923522 C5.50959584,15.3312194 5.50959584,15.3312194 5.89045522,15.3312194 L5.89045522,15.3312194 L7.02326772,15.3312194 L7.02326772,13.6905944 L2.46272084,13.6905944 L2.36936147,13.6843444 C2.19123647,13.6593444 2.19123647,13.6593444 2.08186147,13.5343444 C1.94514272,13.3780944 1.94514272,13.3780944 1.94514272,13.0851256 L1.94514272,13.0851256 L1.94514272,12.4112975 L1.95300947,12.2800041 C1.99234324,11.9490579 1.99234324,11.9490579 2.22834584,11.590985 C2.27717397,11.51286 2.27717397,11.51286 2.30647084,11.4640319 L2.30647084,11.4640319 L6.42756459,4.47184437 L6.48029897,4.38121937 C6.58186147,4.21403187 6.58186147,4.21403187 6.65217397,4.15934437 C6.74006459,4.090985 6.74006459,4.090985 6.88654897,4.090985 Z M7.02326772,5.58512562 L3.32209584,12.2062194 L7.02326772,12.2062194 L7.02326772,5.58512562 Z M11.394945,7 L14.894945,2 L18.394945,7 L15.7888927,7 L15.7888927,11 L13.7888927,11 L13.7888927,7 L11.394945,7 Z" id="Combined-Shape"></path>
        </g>
        <g id="int-up" transform="translate(228.000000, 48.000000)" fill="#0C0C0C" fill-rule="nonzero">
            <path d="M6.04670522,4.07145375 C7.66779897,4.07145375 7.66779897,4.07145375 8.75666616,5.11637562 C9.84553334,6.1612975 9.84553334,6.1612975 9.84553334,7.684735 C9.84553334,9.5987975 9.84553334,9.5987975 6.52522084,12.7726256 C5.67561147,13.5636412 5.67561147,13.5636412 5.22639272,14.01286 L5.22639272,14.01286 L4.02522084,15.1652037 L8.48811147,15.1652037 L8.50979116,15.0052428 C8.56525991,14.7013366 8.56525991,14.7013366 8.71760366,14.5255553 C8.90803334,14.3058287 8.90803334,14.3058287 9.23029897,14.3058287 C9.55256459,14.3058287 9.55256459,14.3058287 9.73811147,14.5206725 C9.92365834,14.7355162 9.92365834,14.7355162 9.92365834,15.10661 C9.92365834,15.1359069 9.92365834,15.1359069 9.91389272,15.2091491 C9.90412709,15.2823912 9.90412709,15.2823912 9.90412709,15.3116881 L9.90412709,15.3116881 L9.82600209,16.0636412 L9.80959584,16.1794616 C9.76740834,16.4005553 9.76740834,16.4005553 9.65022084,16.5372741 C9.50373647,16.7081725 9.50373647,16.7081725 9.26936147,16.7081725 L9.26936147,16.7081725 L2.80451772,16.7081725 L2.63945153,16.7023402 C2.24543569,16.673179 2.24543569,16.673179 2.03791616,16.4982116 C1.78889272,16.2882506 1.78889272,16.2882506 1.78889272,15.8487975 C1.78889272,15.2140319 1.78889272,15.2140319 3.66389272,13.465985 L3.66389272,13.465985 L3.94709584,13.1925475 L4.03319278,13.1096393 C4.30702888,12.8465654 4.30702888,12.8465654 4.76740834,12.4112975 C8.14631459,9.22770375 8.14631459,9.22770375 8.14631459,7.77262562 C8.14631459,6.72770375 8.14631459,6.72770375 7.55061147,6.07828968 C6.95490834,5.42887562 6.95490834,5.42887562 6.00764272,5.42887562 C5.39240834,5.42887562 5.39240834,5.42887562 4.83088491,5.68278187 C4.26936147,5.93668812 4.26936147,5.93668812 3.92756459,6.36637562 C3.86897084,6.44450062 3.86897084,6.44450062 3.74201772,6.6300475 C3.38068959,7.28434437 3.38068959,7.28434437 2.93147084,7.28434437 C2.57990834,7.28434437 2.57990834,7.28434437 2.43342397,7.06950062 C2.28693959,6.85465687 2.28693959,6.85465687 2.28693959,6.24918812 C2.28693959,5.89762562 2.28693959,5.89762562 2.35529897,5.73649281 C2.42365834,5.57536 2.42365834,5.57536 2.60920522,5.38981312 C3.23420522,4.78434437 3.23420522,4.78434437 4.15705678,4.42789906 C5.07990834,4.07145375 5.07990834,4.07145375 6.04670522,4.07145375 Z M11.394945,7 L14.894945,2 L18.394945,7 L15.7888927,7 L15.7888927,11 L13.7888927,11 L13.7888927,7 L11.394945,7 Z" id="Combined-Shape"></path>
        </g>
        <g id="int-up" transform="translate(329.000000, 41.000000)" fill="#0C0C0C" fill-rule="nonzero">
            <path d="M6.16389272,4.07145375 C7.68733022,4.07145375 7.68733022,4.07145375 8.69807241,4.99430531 C9.70881459,5.91715687 9.70881459,5.91715687 9.70881459,7.26481312 C9.70881459,8.29020375 9.70881459,8.29020375 9.22541616,8.95426625 C8.74201772,9.61832875 8.74201772,9.61832875 7.72639272,9.9894225 C8.86897084,10.3019225 8.86897084,10.3019225 9.49885366,11.1271178 C10.1287365,11.9523131 10.1287365,11.9523131 10.1287365,13.1437194 C10.1287365,14.8527037 10.1287365,14.8527037 8.91779897,15.9415709 C7.70686147,17.0304381 7.70686147,17.0304381 5.78303334,17.0304381 C4.29865834,17.0304381 4.29865834,17.0304381 3.14143178,16.4591491 C1.98420522,15.88786 1.98420522,15.88786 1.98420522,15.2042662 C1.98420522,14.9112975 1.98420522,14.9112975 2.19416616,14.7208678 C2.40412709,14.5304381 2.40412709,14.5304381 2.70686147,14.5304381 C2.87287709,14.5304381 2.87287709,14.5304381 3.91291616,15.028485 C4.95295522,15.5265319 4.95295522,15.5265319 5.85139272,15.5265319 C7.01350209,15.5265319 7.01350209,15.5265319 7.74104116,14.8624694 C8.46858022,14.1984069 8.46858022,14.1984069 8.46858022,13.1437194 C8.46858022,12.2745787 8.46858022,12.2745787 7.96565053,11.6739928 C7.46272084,11.0734069 7.46272084,11.0734069 6.58381459,10.9073912 C6.32014272,10.8585631 6.32014272,10.8585631 5.89045522,10.8292662 C5.07014272,10.7804381 5.07014272,10.7804381 5.07014272,10.1456725 C5.07014272,9.56950062 5.07014272,9.56950062 5.87092397,9.47184437 C6.18342397,9.4425475 6.18342397,9.4425475 6.38850209,9.403485 C7.15022084,9.2862975 7.15022084,9.2862975 7.61897084,8.778485 C8.08772084,8.2706725 8.08772084,8.2706725 8.08772084,7.54801625 C8.08772084,6.62028187 8.08772084,6.62028187 7.51154897,6.03434437 C6.93537709,5.44840687 6.93537709,5.44840687 6.04670522,5.44840687 C5.22639272,5.44840687 5.22639272,5.44840687 4.36213491,5.95621937 C3.49787709,6.46403187 3.49787709,6.46403187 3.28303334,6.46403187 C3.00959584,6.46403187 3.00959584,6.46403187 2.82893178,6.28825062 C2.64826772,6.11246937 2.64826772,6.11246937 2.64826772,5.8487975 C2.64826772,5.25309437 2.64826772,5.25309437 3.74201772,4.66227406 C4.83576772,4.07145375 4.83576772,4.07145375 6.16389272,4.07145375 Z M11.394945,7 L14.894945,2 L18.394945,7 L15.7888927,7 L15.7888927,11 L13.7888927,11 L13.7888927,7 L11.394945,7 Z" id="Combined-Shape"></path>
        </g>
        <g id="int-down" transform="translate(428.000000, 105.000000)" fill="#0C0C0C" fill-rule="nonzero">
            <path d="M14,9 L16,9 L16,13 L18.394945,13 L14.894945,18 L11.394945,13 L14,13 L14,9 Z M6.88654897,4.090985 C6.94514272,4.090985 6.94514272,4.090985 7.09162709,4.11051625 C7.13068959,4.12028187 7.13068959,4.12028187 7.16975209,4.1300475 L7.16975209,4.1300475 L8.16584584,4.2862975 L8.23084828,4.30308216 C8.32331655,4.33878773 8.32331655,4.33878773 8.38557241,4.43766468 C8.46858022,4.56950062 8.46858022,4.56950062 8.46858022,4.78434437 L8.46858022,4.78434437 L8.46858022,12.2062194 L8.96662709,12.2062194 L9.04865834,12.1993834 C9.20490834,12.1720397 9.20490834,12.1720397 9.29865834,12.0353209 C9.41584584,11.8644225 9.41584584,11.8644225 9.56233022,11.8644225 C9.75764272,11.8644225 9.75764272,11.8644225 9.89436147,12.0109069 C10.0310802,12.1573912 10.0310802,12.1573912 10.0310802,12.372235 C10.0310802,12.4601256 10.0310802,12.4601256 10.0213146,12.5333678 C10.011549,12.60661 10.011549,12.60661 9.98225209,12.684735 L9.98225209,12.684735 L9.90412709,13.0851256 L9.87424428,13.2167662 C9.80940053,13.4620787 9.80940053,13.4620787 9.70393178,13.5636412 C9.57209584,13.6905944 9.57209584,13.6905944 9.28889272,13.6905944 L9.28889272,13.6905944 L8.46858022,13.6905944 L8.46858022,15.3312194 L8.81037709,15.3312194 L8.98097658,15.3343085 C9.46885924,15.3528433 9.46885924,15.3528433 9.66975209,15.4825866 C9.90412709,15.6339537 9.90412709,15.6339537 9.90412709,16.0050475 C9.90412709,16.35661 9.90412709,16.35661 9.70881459,16.5323912 C9.51350209,16.7081725 9.51350209,16.7081725 9.12287709,16.7081725 L9.12287709,16.7081725 L5.96858022,16.7081725 L5.82073951,16.7039679 C5.47216095,16.6829446 5.47216095,16.6829446 5.33381459,16.5568053 C5.16779897,16.4054381 5.16779897,16.4054381 5.16779897,16.0050475 C5.16779897,15.653485 5.16779897,15.653485 5.33869741,15.4923522 C5.50959584,15.3312194 5.50959584,15.3312194 5.89045522,15.3312194 L5.89045522,15.3312194 L7.02326772,15.3312194 L7.02326772,13.6905944 L2.46272084,13.6905944 L2.36936147,13.6843444 C2.19123647,13.6593444 2.19123647,13.6593444 2.08186147,13.5343444 C1.94514272,13.3780944 1.94514272,13.3780944 1.94514272,13.0851256 L1.94514272,13.0851256 L1.94514272,12.4112975 L1.95300947,12.2800041 C1.99234324,11.9490579 1.99234324,11.9490579 2.22834584,11.590985 C2.27717397,11.51286 2.27717397,11.51286 2.30647084,11.4640319 L2.30647084,11.4640319 L6.42756459,4.47184437 L6.48029897,4.38121937 C6.58186147,4.21403187 6.58186147,4.21403187 6.65217397,4.15934437 C6.74006459,4.090985 6.74006459,4.090985 6.88654897,4.090985 Z M7.02326772,5.58512562 L3.32209584,12.2062194 L7.02326772,12.2062194 L7.02326772,5.58512562 Z" id="Combined-Shape"></path>
        </g>
        <g id="int-down" transform="translate(328.000000, 89.000000)" fill="#0C0C0C" fill-rule="nonzero">
            <path d="M14,9 L16,9 L16,13 L18.394945,13 L14.894945,18 L11.394945,13 L14,13 L14,9 Z M6.16389272,4.07145375 C7.68733022,4.07145375 7.68733022,4.07145375 8.69807241,4.99430531 C9.70881459,5.91715687 9.70881459,5.91715687 9.70881459,7.26481312 C9.70881459,8.29020375 9.70881459,8.29020375 9.22541616,8.95426625 C8.74201772,9.61832875 8.74201772,9.61832875 7.72639272,9.9894225 C8.86897084,10.3019225 8.86897084,10.3019225 9.49885366,11.1271178 C10.1287365,11.9523131 10.1287365,11.9523131 10.1287365,13.1437194 C10.1287365,14.8527037 10.1287365,14.8527037 8.91779897,15.9415709 C7.70686147,17.0304381 7.70686147,17.0304381 5.78303334,17.0304381 C4.29865834,17.0304381 4.29865834,17.0304381 3.14143178,16.4591491 C1.98420522,15.88786 1.98420522,15.88786 1.98420522,15.2042662 C1.98420522,14.9112975 1.98420522,14.9112975 2.19416616,14.7208678 C2.40412709,14.5304381 2.40412709,14.5304381 2.70686147,14.5304381 C2.87287709,14.5304381 2.87287709,14.5304381 3.91291616,15.028485 C4.95295522,15.5265319 4.95295522,15.5265319 5.85139272,15.5265319 C7.01350209,15.5265319 7.01350209,15.5265319 7.74104116,14.8624694 C8.46858022,14.1984069 8.46858022,14.1984069 8.46858022,13.1437194 C8.46858022,12.2745787 8.46858022,12.2745787 7.96565053,11.6739928 C7.46272084,11.0734069 7.46272084,11.0734069 6.58381459,10.9073912 C6.32014272,10.8585631 6.32014272,10.8585631 5.89045522,10.8292662 C5.07014272,10.7804381 5.07014272,10.7804381 5.07014272,10.1456725 C5.07014272,9.56950062 5.07014272,9.56950062 5.87092397,9.47184437 C6.18342397,9.4425475 6.18342397,9.4425475 6.38850209,9.403485 C7.15022084,9.2862975 7.15022084,9.2862975 7.61897084,8.778485 C8.08772084,8.2706725 8.08772084,8.2706725 8.08772084,7.54801625 C8.08772084,6.62028187 8.08772084,6.62028187 7.51154897,6.03434437 C6.93537709,5.44840687 6.93537709,5.44840687 6.04670522,5.44840687 C5.22639272,5.44840687 5.22639272,5.44840687 4.36213491,5.95621937 C3.49787709,6.46403187 3.49787709,6.46403187 3.28303334,6.46403187 C3.00959584,6.46403187 3.00959584,6.46403187 2.82893178,6.28825062 C2.64826772,6.11246937 2.64826772,6.11246937 2.64826772,5.8487975 C2.64826772,5.25309437 2.64826772,5.25309437 3.74201772,4.66227406 C4.83576772,4.07145375 4.83576772,4.07145375 6.16389272,4.07145375 Z" id="Combined-Shape"></path>
        </g>
        <g id="int-down" transform="translate(228.000000, 81.000000)" fill="#0C0C0C" fill-rule="nonzero">
            <path d="M14,9 L16,9 L16,13 L18.394945,13 L14.894945,18 L11.394945,13 L14,13 L14,9 Z M6.04670522,4.07145375 C7.66779897,4.07145375 7.66779897,4.07145375 8.75666616,5.11637562 C9.84553334,6.1612975 9.84553334,6.1612975 9.84553334,7.684735 C9.84553334,9.5987975 9.84553334,9.5987975 6.52522084,12.7726256 C5.67561147,13.5636412 5.67561147,13.5636412 5.22639272,14.01286 L5.22639272,14.01286 L4.02522084,15.1652037 L8.48811147,15.1652037 L8.50979116,15.0052428 C8.56525991,14.7013366 8.56525991,14.7013366 8.71760366,14.5255553 C8.90803334,14.3058287 8.90803334,14.3058287 9.23029897,14.3058287 C9.55256459,14.3058287 9.55256459,14.3058287 9.73811147,14.5206725 C9.92365834,14.7355162 9.92365834,14.7355162 9.92365834,15.10661 C9.92365834,15.1359069 9.92365834,15.1359069 9.91389272,15.2091491 C9.90412709,15.2823912 9.90412709,15.2823912 9.90412709,15.3116881 L9.90412709,15.3116881 L9.82600209,16.0636412 L9.80959584,16.1794616 C9.76740834,16.4005553 9.76740834,16.4005553 9.65022084,16.5372741 C9.50373647,16.7081725 9.50373647,16.7081725 9.26936147,16.7081725 L9.26936147,16.7081725 L2.80451772,16.7081725 L2.63945153,16.7023402 C2.24543569,16.673179 2.24543569,16.673179 2.03791616,16.4982116 C1.78889272,16.2882506 1.78889272,16.2882506 1.78889272,15.8487975 C1.78889272,15.2140319 1.78889272,15.2140319 3.66389272,13.465985 L3.66389272,13.465985 L3.94709584,13.1925475 L4.03319278,13.1096393 C4.30702888,12.8465654 4.30702888,12.8465654 4.76740834,12.4112975 C8.14631459,9.22770375 8.14631459,9.22770375 8.14631459,7.77262562 C8.14631459,6.72770375 8.14631459,6.72770375 7.55061147,6.07828968 C6.95490834,5.42887562 6.95490834,5.42887562 6.00764272,5.42887562 C5.39240834,5.42887562 5.39240834,5.42887562 4.83088491,5.68278187 C4.26936147,5.93668812 4.26936147,5.93668812 3.92756459,6.36637562 C3.86897084,6.44450062 3.86897084,6.44450062 3.74201772,6.6300475 C3.38068959,7.28434437 3.38068959,7.28434437 2.93147084,7.28434437 C2.57990834,7.28434437 2.57990834,7.28434437 2.43342397,7.06950062 C2.28693959,6.85465687 2.28693959,6.85465687 2.28693959,6.24918812 C2.28693959,5.89762562 2.28693959,5.89762562 2.35529897,5.73649281 C2.42365834,5.57536 2.42365834,5.57536 2.60920522,5.38981312 C3.23420522,4.78434437 3.23420522,4.78434437 4.15705678,4.42789906 C5.07990834,4.07145375 5.07990834,4.07145375 6.04670522,4.07145375 Z" id="Combined-Shape"></path>
        </g>
        <g id="half-note" transform="translate(199.000000, 55.000000)" fill="#0C0C0C" fill-rule="nonzero">
            <path d="M10.5862708,2.18506828 C4.75733443,5.3680549 1.65234446,11.1289109 3.56271142,15.4626696 C5.6000929,20.0867447 12.6030554,21.3914194 19.1923624,18.3763266 C25.7833859,15.3612338 29.4771053,9.15965655 27.4397238,4.53733037 C25.4023424,-0.0867447002 18.3993799,-1.39141944 11.8100728,1.62367339 C11.3981339,1.81255391 10.97418,1.97170324 10.5862708,2.18506828 Z M12.4914885,6.10608807 C12.9051439,5.88747635 13.3239485,5.72482923 13.7633501,5.52370645 C19.3811678,2.95283264 24.8067473,2.83215897 25.8743558,5.25437681 C26.9419643,7.67484576 23.2482448,11.7270326 17.6304272,14.2979064 C12.0126095,16.8687802 6.58703001,16.9894539 5.51942152,14.567236 C4.53591723,12.3356476 7.60486254,8.6717152 12.4914885,6.10608807 Z" id="half" transform="translate(15.500000, 10.000000) rotate(-180.000000) translate(-15.500000, -10.000000) "></path>
        </g>
        <g id="half-note" transform="translate(199.000000, 75.000000)" fill="#0C0C0C" fill-rule="nonzero">
            <path d="M10.5862708,2.18506828 C4.75733443,5.3680549 1.65234446,11.1289109 3.56271142,15.4626696 C5.6000929,20.0867447 12.6030554,21.3914194 19.1923624,18.3763266 C25.7833859,15.3612338 29.4771053,9.15965655 27.4397238,4.53733037 C25.4023424,-0.0867447002 18.3993799,-1.39141944 11.8100728,1.62367339 C11.3981339,1.81255391 10.97418,1.97170324 10.5862708,2.18506828 Z M12.4914885,6.10608807 C12.9051439,5.88747635 13.3239485,5.72482923 13.7633501,5.52370645 C19.3811678,2.95283264 24.8067473,2.83215897 25.8743558,5.25437681 C26.9419643,7.67484576 23.2482448,11.7270326 17.6304272,14.2979064 C12.0126095,16.8687802 6.58703001,16.9894539 5.51942152,14.567236 C4.53591723,12.3356476 7.60486254,8.6717152 12.4914885,6.10608807 Z" id="half" transform="translate(15.500000, 10.000000) rotate(-180.000000) translate(-15.500000, -10.000000) "></path>
        </g>
        <g id="half-note" transform="translate(299.000000, 45.000000)" fill="#0C0C0C" fill-rule="nonzero">
            <path d="M10.5862708,2.18506828 C4.75733443,5.3680549 1.65234446,11.1289109 3.56271142,15.4626696 C5.6000929,20.0867447 12.6030554,21.3914194 19.1923624,18.3763266 C25.7833859,15.3612338 29.4771053,9.15965655 27.4397238,4.53733037 C25.4023424,-0.0867447002 18.3993799,-1.39141944 11.8100728,1.62367339 C11.3981339,1.81255391 10.97418,1.97170324 10.5862708,2.18506828 Z M12.4914885,6.10608807 C12.9051439,5.88747635 13.3239485,5.72482923 13.7633501,5.52370645 C19.3811678,2.95283264 24.8067473,2.83215897 25.8743558,5.25437681 C26.9419643,7.67484576 23.2482448,11.7270326 17.6304272,14.2979064 C12.0126095,16.8687802 6.58703001,16.9894539 5.51942152,14.567236 C4.53591723,12.3356476 7.60486254,8.6717152 12.4914885,6.10608807 Z" id="half" transform="translate(15.500000, 10.000000) rotate(-180.000000) translate(-15.500000, -10.000000) "></path>
        </g>
        <g id="half-note" transform="translate(299.000000, 85.000000)" fill="#0C0C0C" fill-rule="nonzero">
            <path d="M10.5862708,2.18506828 C4.75733443,5.3680549 1.65234446,11.1289109 3.56271142,15.4626696 C5.6000929,20.0867447 12.6030554,21.3914194 19.1923624,18.3763266 C25.7833859,15.3612338 29.4771053,9.15965655 27.4397238,4.53733037 C25.4023424,-0.0867447002 18.3993799,-1.39141944 11.8100728,1.62367339 C11.3981339,1.81255391 10.97418,1.97170324 10.5862708,2.18506828 Z M12.4914885,6.10608807 C12.9051439,5.88747635 13.3239485,5.72482923 13.7633501,5.52370645 C19.3811678,2.95283264 24.8067473,2.83215897 25.8743558,5.25437681 C26.9419643,7.67484576 23.2482448,11.7270326 17.6304272,14.2979064 C12.0126095,16.8687802 6.58703001,16.9894539 5.51942152,14.567236 C4.53591723,12.3356476 7.60486254,8.6717152 12.4914885,6.10608807 Z" id="half" transform="translate(15.500000, 10.000000) rotate(-180.000000) translate(-15.500000, -10.000000) "></path>
        </g>
        <g id="half-note" transform="translate(399.000000, 35.000000)" fill="#0C0C0C" fill-rule="nonzero">
            <path d="M10.5862708,2.18506828 C4.75733443,5.3680549 1.65234446,11.1289109 3.56271142,15.4626696 C5.6000929,20.0867447 12.6030554,21.3914194 19.1923624,18.3763266 C25.7833859,15.3612338 29.4771053,9.15965655 27.4397238,4.53733037 C25.4023424,-0.0867447002 18.3993799,-1.39141944 11.8100728,1.62367339 C11.3981339,1.81255391 10.97418,1.97170324 10.5862708,2.18506828 Z M12.4914885,6.10608807 C12.9051439,5.88747635 13.3239485,5.72482923 13.7633501,5.52370645 C19.3811678,2.95283264 24.8067473,2.83215897 25.8743558,5.25437681 C26.9419643,7.67484576 23.2482448,11.7270326 17.6304272,14.2979064 C12.0126095,16.8687802 6.58703001,16.9894539 5.51942152,14.567236 C4.53591723,12.3356476 7.60486254,8.6717152 12.4914885,6.10608807 Z" id="half" transform="translate(15.500000, 10.000000) rotate(-180.000000) translate(-15.500000, -10.000000) "></path>
        </g>
        <g id="half-note" transform="translate(399.000000, 95.000000)" fill="#0C0C0C" fill-rule="nonzero">
            <path d="M10.5862708,2.18506828 C4.75733443,5.3680549 1.65234446,11.1289109 3.56271142,15.4626696 C5.6000929,20.0867447 12.6030554,21.3914194 19.1923624,18.3763266 C25.7833859,15.3612338 29.4771053,9.15965655 27.4397238,4.53733037 C25.4023424,-0.0867447002 18.3993799,-1.39141944 11.8100728,1.62367339 C11.3981339,1.81255391 10.97418,1.97170324 10.5862708,2.18506828 Z M12.4914885,6.10608807 C12.9051439,5.88747635 13.3239485,5.72482923 13.7633501,5.52370645 C19.3811678,2.95283264 24.8067473,2.83215897 25.8743558,5.25437681 C26.9419643,7.67484576 23.2482448,11.7270326 17.6304272,14.2979064 C12.0126095,16.8687802 6.58703001,16.9894539 5.51942152,14.567236 C4.53591723,12.3356476 7.60486254,8.6717152 12.4914885,6.10608807 Z" id="half" transform="translate(15.500000, 10.000000) rotate(-180.000000) translate(-15.500000, -10.000000) "></path>
        </g>
        <line x1="437" y1="85" x2="516" y2="85" id="bar" stroke="#000000" stroke-linecap="round" stroke-linejoin="round" transform="translate(476.500000, 85.000000) rotate(90.000000) translate(-476.500000, -85.000000) "></line>
        <line x1="174.4312" y1="46.4368472" x2="174.4312" y2="125.436847" id="Path-9" stroke="#1D1D1D" stroke-dasharray="4,4"></line>
        <line x1="272.4312" y1="46.4368472" x2="272.4312" y2="125.436847" id="Path-9" stroke="#1D1D1D" stroke-dasharray="4,4"></line>
        <line x1="374.4312" y1="46.4368472" x2="374.4312" y2="125.436847" id="Path-9" stroke="#1D1D1D" stroke-dasharray="4,4"></line>
    </g>
</svg>