<?xml version="1.0" encoding="UTF-8" standalone="no"?><!DOCTYPE svg PUBLIC "-//W3C//DTD SVG 1.1//EN" "http://www.w3.org/Graphics/SVG/1.1/DTD/svg11.dtd"><svg width="580.0px" height="265.0px" viewBox="0 0 580 265" version="1.1" xmlns="http://www.w3.org/2000/svg" xmlns:xlink="http://www.w3.org/1999/xlink" xml:space="preserve" xmlns:serif="http://www.serif.com/" style="fill-rule:evenodd;clip-rule:evenodd;"><g id="M1-hamori-classification-juu"><g id="五線"><path id="horizon" d="M16,105.5l480,0" style="fill:none;stroke:#000;stroke-width:1px;"/><path id="horizon1" serif:id="horizon" d="M16,125.5l480,0" style="fill:none;stroke:#000;stroke-width:1px;"/><path id="horizon2" serif:id="horizon" d="M16,145.5l480,0" style="fill:none;stroke:#000;stroke-width:1px;"/><path id="horizon3" serif:id="horizon" d="M16,165.5l480,0" style="fill:none;stroke:#000;stroke-width:1px;"/><path id="horizon4" serif:id="horizon" d="M16,185.5l480,0" style="fill:none;stroke:#000;stroke-width:1px;"/></g><path id="bar" d="M17.5,104.5l-0,81" style="fill:none;stroke:#000;stroke-width:2px;stroke-linecap:round;stroke-linejoin:round;"/><path id="G-Clef" d="M45.162,205.963c-0.896,-0.067 -1.758,-0.212 -2.572,-0.434c-4.215,-1.144 -7.135,-4.322 -7.815,-8.51c-0.2,-1.227 -0.133,-3.147 0.148,-4.243c0.214,-0.839 0.733,-2.038 1.151,-2.663c0.705,-1.051 1.91,-2.046 3.112,-2.564c0.988,-0.428 1.52,-0.541 2.766,-0.585c0.988,-0.037 1.232,-0.021 1.803,0.127c2.488,0.639 4.503,2.772 5.377,5.693c0.197,0.66 0.215,0.827 0.219,2.125c0.003,1.232 -0.018,1.489 -0.173,2.037c-0.344,1.217 -0.932,2.198 -1.871,3.115c-1.375,1.348 -2.986,2.157 -5.161,2.597l-0.933,0.19l0.662,0.288c3.535,1.554 7.448,1.404 11.096,-0.419c3.193,-1.594 5.662,-4.479 6.511,-7.607c0.206,-0.756 0.218,-0.895 0.212,-2.334l-0.006,-1.529l-1.192,-5.916c-0.655,-3.254 -1.209,-5.976 -1.23,-6.05c-0.036,-0.115 -0.118,-0.099 -0.684,0.137c-3.656,1.527 -9.188,1.507 -14.237,-0.05c-6.917,-2.133 -12.563,-6.814 -15.506,-12.854c-0.918,-1.887 -1.454,-3.69 -1.751,-5.895c-0.133,-0.993 -0.112,-3.622 0.041,-4.871c0.82,-6.682 4.269,-13.382 10.772,-20.928c2.024,-2.348 6.454,-6.742 9.422,-9.347c0.79,-0.692 0.823,-0.736 0.762,-0.96c-0.137,-0.519 -0.614,-3.035 -0.762,-4.021c-0.683,-4.598 -0.682,-9.937 0.004,-14.609c1.077,-7.34 3.601,-13.508 7.275,-17.769c0.67,-0.778 2.088,-2.114 2.243,-2.114c0.05,0 0.48,0.589 0.953,1.309c4.397,6.662 6.723,12.596 7.359,18.761c0.158,1.542 0.114,5.159 -0.082,6.57c-0.644,4.656 -2.147,8.697 -4.725,12.7c-1.685,2.621 -4.224,5.599 -6.815,7.999c-0.591,0.549 -1.214,1.126 -1.383,1.284l-0.306,0.286l1.357,6.676l1.356,6.678l0.672,-0.052c1.889,-0.152 3.885,-0.041 5.312,0.292c1.899,0.446 4.037,1.463 5.636,2.68c0.892,0.68 2.377,2.199 3.004,3.074c1.499,2.09 2.477,4.582 2.75,7.001c0.136,1.197 0.055,3.525 -0.153,4.493c-0.823,3.832 -3.259,7.435 -6.97,10.306c-0.918,0.71 -2.256,1.567 -3.228,2.07c-0.658,0.341 -0.715,0.387 -0.672,0.565c0.083,0.337 1.138,5.465 1.532,7.444c0.207,1.039 0.525,2.76 0.708,3.824c0.322,1.872 0.332,1.969 0.288,3.179c-0.078,2.3 -0.656,4.098 -1.96,6.117c-2.485,3.844 -6.937,6.295 -12.129,6.677c-1.097,0.08 -1.45,0.086 -2.187,0.03Zm6.583,-27.078c0.977,-0.115 2.214,-0.381 3.016,-0.651c0.982,-0.329 2.167,-0.914 2.12,-1.047c-0.022,-0.059 -1.026,-4.955 -2.232,-10.883c-1.206,-5.927 -2.212,-10.796 -2.236,-10.82c-0.023,-0.024 -0.424,0.032 -0.89,0.127c-3.416,0.692 -6.219,2.651 -7.447,5.205c-0.387,0.805 -0.535,1.332 -0.635,2.252c-0.212,1.955 0.417,4.102 1.703,5.804c0.749,0.993 1.89,2.054 2.937,2.734c0.401,0.26 0.478,0.388 0.197,0.327c-0.098,-0.02 -0.442,-0.095 -0.764,-0.163c-2.533,-0.547 -4.982,-1.98 -6.371,-3.723c-1.22,-1.533 -1.839,-3.127 -2.016,-5.199c-0.226,-2.641 0.466,-5.187 2.084,-7.683c1.045,-1.612 2.849,-3.367 4.656,-4.529c1.309,-0.843 3.293,-1.703 4.645,-2.014c0.247,-0.056 0.449,-0.129 0.449,-0.159c0,-0.087 -2.504,-12.339 -2.546,-12.456c-0.061,-0.172 -3.455,2.612 -5.742,4.707c-1.261,1.156 -3.945,3.95 -4.919,5.122c-2.941,3.537 -4.841,6.719 -5.904,9.88c-1.068,3.188 -1.334,6.256 -0.788,9.16c0.664,3.53 2.941,7.224 5.986,9.712c4.136,3.377 9.403,4.917 14.697,4.297Zm7.76,-3.357c2.819,-2.421 4.487,-5.175 4.98,-8.215c0.166,-1.019 0.122,-3.168 -0.08,-4.118c-0.825,-3.849 -3.344,-6.821 -6.664,-7.862c-0.654,-0.206 -0.805,-0.222 -2.094,-0.224c-0.817,-0 -1.417,0.03 -1.458,0.078c-0.041,0.047 0.802,4.276 2.112,10.584c1.199,5.777 2.181,10.514 2.183,10.528c0.008,0.064 0.351,-0.196 1.021,-0.771Zm-9.221,-54.512c5.675,-5.681 9.029,-11.213 9.728,-16.053c0.157,-1.09 0.155,-2.867 -0.006,-3.836c-0.322,-1.932 -1.11,-3.629 -2.45,-5.265c-0.532,-0.65 -0.612,-0.684 -1.618,-0.682c-1.108,0.002 -2.116,0.528 -3.161,1.65c-1.733,1.854 -3.181,4.885 -4.248,8.877c-1.483,5.559 -1.939,12.511 -1.125,17.22l0.127,0.744l0.794,-0.744c0.436,-0.41 1.316,-1.269 1.959,-1.911Z"/><g id="Note"><path id="note" d="M126.807,143.706c6.295,-3.342 9.648,-9.391 7.585,-13.942c-2.2,-4.855 -9.763,-6.225 -16.88,-3.059c-7.118,3.166 -11.107,9.677 -8.907,14.531c2.2,4.855 9.764,6.225 16.88,3.059c0.445,-0.198 0.903,-0.365 1.322,-0.589Z" style="fill:#0c0c0c;fill-rule:nonzero;"/></g><g id="int-1"><path id="Combined-Shape" d="M144.989,141.276l-0,-12.492l-1.908,-0c-0,1.314 -1.314,2.286 -3.132,2.286l-0,1.548l2.7,-0l-0.018,8.658l2.358,-0Z" style="fill:#0c0c0c;fill-rule:nonzero;"/><circle id="Oval" cx="149" cy="132" r="2" style="fill:none;stroke:#0c0c0c;stroke-width:1px;"/></g><g id="int-up"><path id="Combined-Shape1" serif:id="Combined-Shape" d="M274.781,108.189c2.394,0 4.194,1.422 4.194,3.276c-0,1.314 -0.9,2.448 -2.286,2.898c1.638,0.414 2.736,1.602 2.736,3.114c-0,1.998 -1.962,3.546 -4.662,3.546c-2.772,0 -4.788,-1.602 -4.842,-4.176l2.34,0c0.054,1.422 1.098,2.232 2.43,2.232c1.35,0 2.322,-0.81 2.322,-1.89c-0,-1.134 -1.08,-1.944 -2.7,-1.944l-0.612,0l-0,-1.584l0.612,0c1.476,0 2.448,-0.774 2.448,-1.872c-0,-1.026 -0.882,-1.71 -2.052,-1.71c-1.206,0 -2.142,0.756 -2.196,2.178l-2.178,0c0.09,-2.502 1.872,-4.068 4.446,-4.068Zm5.428,2.91l3.396,-5.099l3.395,5.099l-2.528,0l-0,4.08l-1.941,-0l0,-4.08l-2.322,0Z" style="fill:#58c322;"/></g><g id="int-down"><path id="Combined-Shape2" serif:id="Combined-Shape" d="M281.685,154.954l1.964,-0l-0,4.02l2.351,0l-3.436,5.026l-3.436,-5.026l2.557,0l0,-4.02Zm-7.975,-4.96c2.394,-0 4.194,1.422 4.194,3.276c0,1.314 -0.9,2.448 -2.286,2.898c1.638,0.414 2.736,1.602 2.736,3.114c0,1.998 -1.962,3.546 -4.662,3.546c-2.772,-0 -4.788,-1.602 -4.842,-4.176l2.34,-0c0.054,1.422 1.098,2.232 2.43,2.232c1.35,-0 2.322,-0.81 2.322,-1.89c0,-1.134 -1.08,-1.944 -2.7,-1.944l-0.612,-0l0,-1.584l0.612,-0c1.476,-0 2.448,-0.774 2.448,-1.872c0,-1.026 -0.882,-1.71 -2.052,-1.71c-1.206,-0 -2.142,0.756 -2.196,2.178l-2.178,-0c0.09,-2.502 1.872,-4.068 4.446,-4.068Z" style="fill:#58c322;"/></g><g id="half-note"><path id="half" d="M259.414,122.815c5.829,-3.183 8.934,-8.944 7.023,-13.278c-2.037,-4.624 -9.04,-5.928 -15.629,-2.913c-6.591,3.015 -10.285,9.216 -8.248,13.839c2.038,4.624 9.041,5.928 15.63,2.913c0.412,-0.189 0.836,-0.348 1.224,-0.561Zm-1.905,-3.921c-0.414,0.219 -0.833,0.381 -1.272,0.582c-5.618,2.571 -11.044,2.692 -12.111,0.27c-1.068,-2.421 2.626,-6.473 8.244,-9.044c5.617,-2.571 11.043,-2.691 12.111,-0.269c0.983,2.231 -2.086,5.895 -6.972,8.461Z" style="fill:#58c322;"/></g><g id="half-note1" serif:id="half-note"><path id="half1" serif:id="half" d="M259.414,162.815c5.829,-3.183 8.934,-8.944 7.023,-13.278c-2.037,-4.624 -9.04,-5.928 -15.629,-2.913c-6.591,3.015 -10.285,9.216 -8.248,13.839c2.038,4.624 9.041,5.928 15.63,2.913c0.412,-0.189 0.836,-0.348 1.224,-0.561Zm-1.905,-3.921c-0.414,0.219 -0.833,0.381 -1.272,0.582c-5.618,2.571 -11.044,2.692 -12.111,0.27c-1.068,-2.421 2.626,-6.473 8.244,-9.044c5.617,-2.571 11.043,-2.691 12.111,-0.269c0.983,2.231 -2.086,5.895 -6.972,8.461Z" style="fill:#58c322;"/></g><path id="bar1" serif:id="bar" d="M496.5,106.55l0,78.95" style="fill:none;stroke:#000;stroke-width:1px;stroke-linecap:round;stroke-linejoin:round;"/><g id="int-down1" serif:id="int-down"><path id="Combined-Shape3" serif:id="Combined-Shape" d="M451.685,173.954l1.964,-0l-0,4.02l2.351,0l-3.436,5.026l-3.436,-5.026l2.557,0l0,-4.02Zm-5.527,-4.78l-3.114,4.266c0.396,-0.126 0.828,-0.198 1.296,-0.198c2.268,-0 4.05,1.71 4.05,4.086c0,2.628 -2.034,4.5 -4.842,4.5c-2.79,-0 -4.824,-1.872 -4.824,-4.446c0,-0.99 0.324,-1.854 0.828,-2.592l3.816,-5.616l2.79,-0Zm-2.61,5.778c-1.404,-0 -2.412,1.008 -2.412,2.43c0,1.422 1.026,2.43 2.412,2.43c1.404,-0 2.43,-1.008 2.43,-2.43c0,-1.422 -1.008,-2.43 -2.43,-2.43Z" style="fill:#3d7a1f;"/></g><g id="half-note2" serif:id="half-note"><path id="half2" serif:id="half" d="M429.414,192.815c5.829,-3.183 8.934,-8.944 7.023,-13.278c-2.037,-4.624 -9.04,-5.928 -15.629,-2.913c-6.591,3.015 -10.285,9.216 -8.248,13.839c2.038,4.624 9.041,5.928 15.63,2.913c0.412,-0.189 0.836,-0.348 1.224,-0.561Zm-1.905,-3.921c-0.414,0.219 -0.833,0.381 -1.272,0.582c-5.618,2.571 -11.044,2.692 -12.111,0.27c-1.068,-2.421 2.626,-6.473 8.244,-9.044c5.617,-2.571 11.043,-2.691 12.111,-0.269c0.983,2.231 -2.086,5.895 -6.972,8.461Z" style="fill:#3d7a1f;"/></g><g id="int-up1" serif:id="int-up"><path id="Combined-Shape4" serif:id="Combined-Shape" d="M446.229,67.369l-3.114,4.266c0.396,-0.126 0.828,-0.198 1.296,-0.198c2.268,0 4.05,1.71 4.05,4.086c-0,2.628 -2.034,4.5 -4.842,4.5c-2.79,0 -4.824,-1.872 -4.824,-4.446c-0,-0.99 0.324,-1.854 0.828,-2.592l3.816,-5.616l2.79,0Zm-2.61,5.778c-1.404,0 -2.412,1.008 -2.412,2.43c-0,1.422 1.026,2.43 2.412,2.43c1.404,0 2.43,-1.008 2.43,-2.43c-0,-1.422 -1.008,-2.43 -2.43,-2.43Zm5.59,-3.048l3.396,-5.099l3.395,5.099l-2.528,0l-0,4.08l-1.941,-0l0,-4.08l-2.322,0Z" style="fill:#3d7a1f;"/></g><g id="half-note3" serif:id="half-note"><path id="half3" serif:id="half" d="M429.414,91.815c5.829,-3.183 8.934,-8.944 7.023,-13.278c-2.037,-4.624 -9.04,-5.928 -15.629,-2.913c-6.591,3.015 -10.285,9.216 -8.248,13.839c2.038,4.624 9.041,5.928 15.63,2.913c0.412,-0.189 0.836,-0.348 1.224,-0.561Zm-1.905,-3.921c-0.414,0.219 -0.833,0.381 -1.272,0.582c-5.618,2.571 -11.044,2.692 -12.111,0.27c-1.068,-2.421 2.626,-6.473 8.244,-9.044c5.617,-2.571 11.043,-2.691 12.111,-0.269c0.983,2.231 -2.086,5.895 -6.972,8.461Z" style="fill:#3d7a1f;"/></g><g id="do-line"><rect id="Rectangle" x="403" y="83" width="45" height="2" style="fill:#3d7a1f;"/></g><path d="M254.093,25.505c0.032,0.224 0.008,0.432 -0.072,0.624c-0.08,0.192 -0.204,0.34 -0.372,0.444c-0.168,0.104 -0.364,0.16 -0.588,0.168c-0.224,0.008 -0.464,-0.06 -0.72,-0.204c-0.368,-0.192 -0.752,-0.44 -1.152,-0.744c-0.4,-0.304 -0.808,-0.688 -1.224,-1.152c-0.32,-0.368 -0.44,-0.612 -0.36,-0.732c0.08,-0.12 0.472,-0.204 1.176,-0.252c1.136,-0.08 1.952,0.028 2.448,0.324c0.496,0.296 0.784,0.804 0.864,1.524Zm14.4,14.448c-1.248,0.576 -2.252,1.016 -3.012,1.32c-0.76,0.304 -1.376,0.508 -1.848,0.612c-0.472,0.104 -0.86,0.128 -1.164,0.072c-0.304,-0.056 -0.624,-0.156 -0.96,-0.3c-0.944,-0.384 -1.724,-0.7 -2.34,-0.948c-0.616,-0.248 -1.152,-0.476 -1.608,-0.684c-0.456,-0.208 -0.884,-0.416 -1.284,-0.624c-0.4,-0.208 -0.864,-0.456 -1.392,-0.744c-0.608,-0.336 -1.108,-0.588 -1.5,-0.756c-0.392,-0.168 -0.768,-0.26 -1.128,-0.276c-0.36,-0.016 -0.744,0.056 -1.152,0.216c-0.408,0.16 -0.924,0.4 -1.548,0.72c-0.192,0.096 -0.36,0.168 -0.504,0.216c-0.144,0.048 -0.284,0.06 -0.42,0.036c-0.136,-0.024 -0.28,-0.088 -0.432,-0.192c-0.152,-0.104 -0.34,-0.26 -0.564,-0.468c-0.368,-0.336 -0.632,-0.608 -0.792,-0.816c-0.16,-0.208 -0.216,-0.368 -0.168,-0.48c0.048,-0.112 0.2,-0.188 0.456,-0.228c0.256,-0.04 0.632,-0.052 1.128,-0.036c0.24,0.016 0.596,-0.012 1.068,-0.084c0.472,-0.072 0.988,-0.172 1.548,-0.3c0.144,-0.032 0.272,-0.052 0.384,-0.06c0.112,-0.008 0.232,-0.012 0.36,-0.012c0.016,-0.288 -0.004,-0.54 -0.06,-0.756c-0.056,-0.216 -0.148,-0.428 -0.276,-0.636c-0.272,-0.448 -0.44,-0.896 -0.504,-1.344c-0.064,-0.448 0.056,-0.992 0.36,-1.632c0.304,-0.64 0.416,-1.008 0.336,-1.104c-0.08,-0.096 -0.424,0.016 -1.032,0.336c-0.32,0.16 -0.58,0.284 -0.78,0.372c-0.2,0.088 -0.368,0.14 -0.504,0.156c-0.136,0.016 -0.26,0.004 -0.372,-0.036c-0.112,-0.04 -0.232,-0.108 -0.36,-0.204c-0.624,-0.416 -0.92,-0.688 -0.888,-0.816c0.032,-0.128 0.328,-0.216 0.888,-0.264c0.208,-0.016 0.444,-0.06 0.708,-0.132c0.264,-0.072 0.524,-0.156 0.78,-0.252c0.256,-0.096 0.492,-0.208 0.708,-0.336c0.216,-0.128 0.388,-0.256 0.516,-0.384c0.112,-0.128 0.224,-0.228 0.336,-0.3c0.112,-0.072 0.24,-0.108 0.384,-0.108c0.144,0 0.316,0.036 0.516,0.108c0.2,0.072 0.452,0.18 0.756,0.324c0.432,0.208 0.756,0.388 0.972,0.54c0.216,0.152 0.34,0.296 0.372,0.432c0.032,0.136 -0.012,0.272 -0.132,0.408c-0.12,0.136 -0.308,0.3 -0.564,0.492c-0.384,0.288 -0.708,0.588 -0.972,0.9c-0.264,0.312 -0.464,0.604 -0.6,0.876c-0.136,0.272 -0.208,0.516 -0.216,0.732c-0.008,0.216 0.06,0.364 0.204,0.444c0.416,0.24 0.712,0.536 0.888,0.888c0.176,0.352 0.224,0.88 0.144,1.584c0.128,0.032 0.264,0.072 0.408,0.12c0.144,0.048 0.304,0.096 0.48,0.144c0.768,-1.024 1.356,-2.04 1.764,-3.048c0.408,-1.008 0.692,-2.112 0.852,-3.312c0.048,-0.432 0.08,-0.892 0.096,-1.38c0.016,-0.488 0.012,-0.952 -0.012,-1.392c-0.024,-0.44 -0.072,-0.828 -0.144,-1.164c-0.072,-0.336 -0.164,-0.576 -0.276,-0.72c-0.192,-0.208 -0.316,-0.392 -0.372,-0.552c-0.056,-0.16 -0.016,-0.28 0.12,-0.36c0.136,-0.08 0.38,-0.112 0.732,-0.096c0.352,0.016 0.84,0.088 1.464,0.216c0.592,-0.32 1.084,-0.604 1.476,-0.852c0.392,-0.248 0.708,-0.468 0.948,-0.66c0.24,-0.192 0.412,-0.364 0.516,-0.516c0.104,-0.152 0.156,-0.292 0.156,-0.42c0,-0.432 0.152,-0.68 0.456,-0.744c0.304,-0.064 0.904,0.144 1.8,0.624c0.48,0.256 0.832,0.484 1.056,0.684c0.224,0.2 0.356,0.368 0.396,0.504c0.04,0.136 -0.004,0.244 -0.132,0.324c-0.128,0.08 -0.304,0.136 -0.528,0.168c-0.176,0.032 -0.368,0.072 -0.576,0.12c-0.208,0.048 -0.508,0.132 -0.9,0.252c-0.392,0.12 -0.904,0.292 -1.536,0.516c-0.632,0.224 -1.46,0.52 -2.484,0.888c0.016,0.496 0.02,0.988 0.012,1.476c-0.008,0.488 -0.028,0.94 -0.06,1.356c0.992,-0.144 1.924,-0.308 2.796,-0.492c0.872,-0.184 1.644,-0.388 2.316,-0.612c0.56,-0.176 1.04,-0.26 1.44,-0.252c0.4,0.008 0.784,0.196 1.152,0.564c1.152,1.104 0.896,1.584 -0.768,1.44c-0.32,-0.032 -0.74,-0.036 -1.26,-0.012c-0.52,0.024 -1.076,0.068 -1.668,0.132c0.048,0.656 0.076,1.392 0.084,2.208c0.008,0.816 -0.004,1.608 -0.036,2.376c-0.032,0.768 -0.084,1.468 -0.156,2.1c-0.072,0.632 -0.172,1.1 -0.3,1.404c-0.304,0.768 -0.556,1.148 -0.756,1.14c-0.2,-0.008 -0.388,-0.372 -0.564,-1.092c-0.08,-0.288 -0.148,-0.744 -0.204,-1.368c-0.056,-0.624 -0.104,-1.316 -0.144,-2.076c-0.04,-0.76 -0.068,-1.532 -0.084,-2.316c-0.016,-0.784 -0.016,-1.472 0,-2.064c-0.368,0.048 -0.704,0.08 -1.008,0.096c-0.304,0.016 -0.6,0.024 -0.888,0.024c-0.128,1.712 -0.528,3.128 -1.2,4.248c-0.672,1.12 -1.656,2.072 -2.952,2.856c0.976,0.336 1.832,0.62 2.568,0.852c0.736,0.232 1.416,0.428 2.04,0.588c0.624,0.16 1.224,0.28 1.8,0.36c0.576,0.08 1.204,0.144 1.884,0.192c0.68,0.048 1.436,0.076 2.268,0.084c0.832,0.008 1.816,0.012 2.952,0.012c0.816,0 1.244,0.076 1.284,0.228c0.04,0.152 -0.308,0.396 -1.044,0.732Z" style="fill-rule:nonzero;"/><path d="M427.576,23.575c0.576,0.176 0.856,0.392 0.84,0.648c-0.016,0.256 -0.352,0.504 -1.008,0.744c-0.496,0.176 -1.032,0.328 -1.608,0.456c-0.576,0.128 -1.128,0.232 -1.656,0.312c-0.384,0.064 -0.708,0.104 -0.972,0.12c-0.264,0.016 -0.508,0.016 -0.732,-0c-0.224,-0.016 -0.444,-0.048 -0.66,-0.096c-0.216,-0.048 -0.46,-0.12 -0.732,-0.216c-0.48,-0.176 -0.716,-0.344 -0.708,-0.504c0.008,-0.16 0.236,-0.264 0.684,-0.312c0.656,-0.08 1.216,-0.172 1.68,-0.276c0.464,-0.104 0.952,-0.26 1.464,-0.468c0.432,-0.176 0.808,-0.312 1.128,-0.408c0.32,-0.096 0.604,-0.156 0.852,-0.18c0.248,-0.024 0.484,-0.016 0.708,0.024c0.224,0.04 0.464,0.092 0.72,0.156Zm-9.624,2.208c0.064,0.688 -0.072,1.132 -0.408,1.332c-0.336,0.2 -0.736,0.116 -1.2,-0.252c-0.368,-0.288 -0.7,-0.572 -0.996,-0.852c-0.296,-0.28 -0.636,-0.652 -1.02,-1.116c-0.384,-0.464 -0.552,-0.764 -0.504,-0.9c0.048,-0.136 0.32,-0.204 0.816,-0.204c0.608,-0 1.12,0.032 1.536,0.096c0.416,0.064 0.748,0.172 0.996,0.324c0.248,0.152 0.432,0.356 0.552,0.612c0.12,0.256 0.196,0.576 0.228,0.96Zm13.32,9.432c0.144,0.176 0.224,0.368 0.24,0.576c0.016,0.208 -0.06,0.408 -0.228,0.6c-0.168,0.192 -0.436,0.376 -0.804,0.552c-0.368,0.176 -0.864,0.312 -1.488,0.408c-1.392,0.24 -2.512,0.164 -3.36,-0.228c-0.848,-0.392 -1.344,-1.18 -1.488,-2.364c-0.016,-0.096 -0.024,-0.32 -0.024,-0.672c-0,-0.352 0.008,-0.732 0.024,-1.14c0.016,-0.408 0.032,-0.804 0.048,-1.188c0.016,-0.384 0.032,-0.672 0.048,-0.864c0.032,-0.208 0.028,-0.452 -0.012,-0.732c-0.04,-0.28 -0.132,-0.628 -0.276,-1.044c-0.192,0.032 -0.4,0.072 -0.624,0.12c-0.224,0.048 -0.448,0.096 -0.672,0.144c0.272,0.176 0.48,0.336 0.624,0.48c0.144,0.144 0.24,0.276 0.288,0.396c0.048,0.12 0.048,0.236 -0,0.348c-0.048,0.112 -0.12,0.24 -0.216,0.384c-0.08,0.112 -0.16,0.252 -0.24,0.42c-0.08,0.168 -0.136,0.308 -0.168,0.42c-0.272,1.056 -0.764,2.036 -1.476,2.94c-0.712,0.904 -1.66,1.636 -2.844,2.196c-0.32,0.144 -0.576,0.236 -0.768,0.276c-0.192,0.04 -0.308,0.016 -0.348,-0.072c-0.04,-0.088 0.016,-0.236 0.168,-0.444c0.152,-0.208 0.412,-0.488 0.78,-0.84c0.192,-0.176 0.392,-0.396 0.6,-0.66c0.208,-0.264 0.408,-0.544 0.6,-0.84c0.192,-0.296 0.372,-0.592 0.54,-0.888c0.168,-0.296 0.3,-0.556 0.396,-0.78c0.224,-0.48 0.392,-0.98 0.504,-1.5c0.112,-0.52 0.144,-1.02 0.096,-1.5c-0.128,0.032 -0.264,0.068 -0.408,0.108c-0.144,0.04 -0.296,0.084 -0.456,0.132c-0.288,0.08 -0.548,0.12 -0.78,0.12c-0.232,-0 -0.556,-0.12 -0.972,-0.36c-0.48,-0.288 -0.68,-0.504 -0.6,-0.648c0.08,-0.144 0.328,-0.224 0.744,-0.24c0.176,-0 0.468,-0.036 0.876,-0.108c0.408,-0.072 0.872,-0.16 1.392,-0.264c0.52,-0.104 1.072,-0.22 1.656,-0.348c0.584,-0.128 1.152,-0.26 1.704,-0.396c0.552,-0.136 1.06,-0.272 1.524,-0.408c0.464,-0.136 0.84,-0.252 1.128,-0.348c0.24,-0.08 0.448,-0.14 0.624,-0.18c0.176,-0.04 0.348,-0.056 0.516,-0.048c0.168,0.008 0.344,0.044 0.528,0.108c0.184,0.064 0.404,0.16 0.66,0.288c0.64,0.32 0.92,0.624 0.84,0.912c-0.08,0.288 -0.448,0.448 -1.104,0.48c-0.352,0.032 -0.828,0.072 -1.428,0.12c-0.6,0.048 -1.268,0.12 -2.004,0.216c0.288,0.24 0.508,0.44 0.66,0.6c0.152,0.16 0.244,0.308 0.276,0.444c0.032,0.136 0.02,0.272 -0.036,0.408c-0.056,0.136 -0.14,0.292 -0.252,0.468c-0.16,0.224 -0.264,0.672 -0.312,1.344c-0.048,0.672 -0.016,1.488 0.096,2.448c0.032,0.288 0.18,0.496 0.444,0.624c0.264,0.128 0.748,0.136 1.452,0.024c0.432,-0.064 0.776,-0.244 1.032,-0.54c0.256,-0.296 0.472,-0.82 0.648,-1.572c0.192,-0.848 0.384,-1.288 0.576,-1.32c0.192,-0.032 0.328,0.336 0.408,1.104c0.032,0.336 0.064,0.624 0.096,0.864c0.032,0.24 0.072,0.448 0.12,0.624c0.048,0.176 0.108,0.332 0.18,0.468c0.072,0.136 0.156,0.26 0.252,0.372Zm1.152,4.992c-0.336,0.192 -0.664,0.368 -0.984,0.528c-0.32,0.16 -0.644,0.308 -0.972,0.444c-0.328,0.136 -0.672,0.264 -1.032,0.384c-0.36,0.12 -0.756,0.236 -1.188,0.348c-0.368,0.096 -0.688,0.172 -0.96,0.228c-0.272,0.056 -0.52,0.084 -0.744,0.084c-0.224,-0 -0.44,-0.02 -0.648,-0.06c-0.208,-0.04 -0.44,-0.108 -0.696,-0.204c-0.784,-0.288 -1.484,-0.548 -2.1,-0.78c-0.616,-0.232 -1.188,-0.452 -1.716,-0.66c-0.528,-0.208 -1.036,-0.416 -1.524,-0.624c-0.488,-0.208 -0.996,-0.432 -1.524,-0.672c-0.528,-0.24 -0.996,-0.424 -1.404,-0.552c-0.408,-0.128 -0.784,-0.192 -1.128,-0.192c-0.344,-0 -0.672,0.056 -0.984,0.168c-0.312,0.112 -0.644,0.288 -0.996,0.528c-0.224,0.16 -0.44,0.216 -0.648,0.168c-0.208,-0.048 -0.544,-0.256 -1.008,-0.624c-0.368,-0.272 -0.64,-0.492 -0.816,-0.66c-0.176,-0.168 -0.256,-0.3 -0.24,-0.396c0.016,-0.096 0.128,-0.168 0.336,-0.216c0.208,-0.048 0.504,-0.088 0.888,-0.12c0.352,-0.032 0.688,-0.088 1.008,-0.168c0.32,-0.08 0.616,-0.176 0.888,-0.288c0.256,-0.096 0.528,-0.144 0.816,-0.144c0.048,-0.432 0.032,-0.792 -0.048,-1.08c-0.08,-0.288 -0.256,-0.648 -0.528,-1.08c-0.128,-0.192 -0.22,-0.364 -0.276,-0.516c-0.056,-0.152 -0.08,-0.32 -0.072,-0.504c0.008,-0.184 0.056,-0.408 0.144,-0.672c0.088,-0.264 0.228,-0.612 0.42,-1.044c0.176,-0.4 0.24,-0.64 0.192,-0.72c-0.048,-0.08 -0.184,-0.056 -0.408,0.072c-0.4,0.24 -0.728,0.416 -0.984,0.528c-0.256,0.112 -0.472,0.18 -0.648,0.204c-0.176,0.024 -0.34,0.008 -0.492,-0.048c-0.152,-0.056 -0.332,-0.148 -0.54,-0.276c-0.64,-0.368 -0.94,-0.624 -0.9,-0.768c0.04,-0.144 0.42,-0.28 1.14,-0.408c0.56,-0.096 1.02,-0.236 1.38,-0.42c0.36,-0.184 0.7,-0.404 1.02,-0.66c0.208,-0.16 0.392,-0.284 0.552,-0.372c0.16,-0.088 0.32,-0.128 0.48,-0.12c0.16,0.008 0.34,0.056 0.54,0.144c0.2,0.088 0.444,0.228 0.732,0.42c0.304,0.192 0.536,0.356 0.696,0.492c0.16,0.136 0.26,0.26 0.3,0.372c0.04,0.112 0.02,0.216 -0.06,0.312c-0.08,0.096 -0.2,0.216 -0.36,0.36c-0.496,0.432 -0.88,0.804 -1.152,1.116c-0.272,0.312 -0.456,0.584 -0.552,0.816c-0.096,0.232 -0.112,0.436 -0.048,0.612c0.064,0.176 0.192,0.344 0.384,0.504c0.208,0.176 0.372,0.34 0.492,0.492c0.12,0.152 0.196,0.336 0.228,0.552c0.032,0.216 0.02,0.476 -0.036,0.78c-0.056,0.304 -0.156,0.696 -0.3,1.176c0.256,0.08 0.548,0.172 0.876,0.276c0.328,0.104 0.708,0.22 1.14,0.348c1.104,0.352 2.176,0.644 3.216,0.876c1.04,0.232 2.1,0.416 3.18,0.552c1.08,0.136 2.212,0.212 3.396,0.228c1.184,0.016 2.48,-0.016 3.888,-0.096c0.896,-0.048 1.372,0.008 1.428,0.168c0.056,0.16 -0.292,0.448 -1.044,0.864Z" style="fill-rule:nonzero;"/><path id="Path-9" d="M174.431,18.01l0.069,232.99" style="fill:none;stroke:#1d1d1d;stroke-width:1px;stroke-dasharray:4,4;"/><path id="Path-91" serif:id="Path-9" d="M537.5,136l-380,0" style="fill:none;stroke:#1d1d1d;stroke-width:1px;stroke-dasharray:4,4;"/><path id="Path-92" serif:id="Path-9" d="M349.431,18.01l0.069,232.99" style="fill:none;stroke:#1d1d1d;stroke-width:1px;stroke-dasharray:4,4;"/><path id="上" d="M524.04,108.7c3.24,-0.52 7.16,-0.84 8.68,-0.84c1.78,0 3.78,0.04 5.64,0.26c0.46,0.06 0.7,0.08 0.88,0.08c0.3,0 0.52,-0.14 0.52,-0.5c0,-0.88 -1.4,-1.62 -2.22,-1.76c-0.56,0.16 -0.96,0.24 -1.58,0.24c-1.42,0 -2.92,0.04 -4.48,0.12l0.06,-5.76c1.4,-0.16 2.88,-0.34 4.2,-0.54c0.78,-0.12 1.04,-0.32 1.04,-0.78c0,-0.28 -0.34,-0.8 -1.78,-1.02c-0.38,0.24 -0.7,0.36 -1.12,0.44c-0.82,0.18 -1.54,0.28 -2.32,0.38l0.02,-1.96c0,-0.78 0.06,-1.22 0.22,-1.68c0.1,-0.28 0.16,-0.46 0.16,-0.58c0,-0.22 -0.1,-0.38 -0.46,-0.56c-0.94,-0.52 -1.64,-0.64 -1.96,-0.64c-0.22,0 -0.3,0.06 -0.3,0.22c0,0.08 0.02,0.16 0.06,0.26c0.26,0.64 0.4,1.4 0.4,2.8l0,9.54c-2.26,0.14 -4.56,0.36 -6.86,0.6c-0.34,0.02 -0.36,0.14 -0.36,0.26c0,0.16 0.4,0.64 0.98,1.18c0.16,0.16 0.38,0.24 0.58,0.24Z" style="fill:#0a0a0a;fill-rule:nonzero;"/><path id="下" d="M530.84,190c0.5,0 0.72,-0.5 0.72,-1.7l0.08,-9.3c-0,-1.1 0.12,-1.52 0.2,-1.72c0.06,-0.16 0.08,-0.28 0.08,-0.4c-0,-0.22 -0.16,-0.46 -0.94,-0.84c1.94,-0.18 4.56,-0.3 5.84,-0.3c0.36,0 0.72,0 1.1,0.02c0.46,0.02 0.78,0.06 0.96,0.06c0.48,-0.02 0.72,-0.18 0.72,-0.54c-0,-0.72 -1.26,-1.38 -2.08,-1.48c-0.56,0.26 -1.02,0.34 -1.64,0.38c-4.28,0.3 -8.58,0.64 -13.02,1.16c-0.3,0.04 -0.36,0.06 -0.36,0.16c-0,0.16 0.14,0.4 0.5,0.76c0.3,0.3 0.7,0.56 0.9,0.56c2,-0.28 3.92,-0.5 5.72,-0.66c0.16,0.46 0.24,0.96 0.24,1.84l-0.16,7.78c-0.02,1.02 -0.08,1.62 -0.26,2.14c0.12,1.28 0.72,2.08 1.4,2.08Zm5.1,-8.7c0.32,0 0.82,-0.34 0.82,-0.92c-0,-0.52 -0.28,-0.98 -0.94,-1.4c-0.64,-0.4 -1.98,-0.94 -3.18,-1.14l-0.14,-0.02c-0.22,-0 -0.36,0.12 -0.36,0.26c-0,0.1 0.06,0.2 0.18,0.3c0.76,0.7 1.52,1.48 2.12,2.1c0.5,0.5 1,0.82 1.5,0.82Z" style="fill:#080808;fill-rule:nonzero;"/><path d="M63.269,32.095c0.4,0.34 0.655,0.65 0.765,0.93c0.11,0.28 0.035,0.505 -0.225,0.675c-0.26,0.17 -0.72,0.275 -1.38,0.315c-0.66,0.04 -1.56,-0.01 -2.7,-0.15c-0.32,-0.04 -0.74,-0.065 -1.26,-0.075c-0.52,-0.01 -1.095,-0.01 -1.725,-0c-0.63,0.01 -1.275,0.035 -1.935,0.075c-0.66,0.04 -1.29,0.08 -1.89,0.12l-0.03,0.3c0.82,0.62 1.59,1.165 2.31,1.635c0.72,0.47 1.465,0.89 2.235,1.26c0.77,0.37 1.585,0.715 2.445,1.035c0.86,0.32 1.83,0.64 2.91,0.96c1.62,0.46 2.43,0.785 2.43,0.975c0,0.19 -0.76,0.435 -2.28,0.735c-1.12,0.22 -1.995,0.385 -2.625,0.495c-0.63,0.11 -1.145,0.145 -1.545,0.105c-0.4,-0.04 -0.745,-0.16 -1.035,-0.36c-0.29,-0.2 -0.645,-0.49 -1.065,-0.87c-0.72,-0.66 -1.375,-1.285 -1.965,-1.875c-0.59,-0.59 -1.215,-1.255 -1.875,-1.995c0.02,0.7 0.04,1.38 0.06,2.04c0.02,0.66 0.05,1.18 0.09,1.56c0.06,0.58 0.07,1.16 0.03,1.74c-0.04,0.58 -0.2,1.19 -0.48,1.83c-0.28,0.6 -0.62,0.91 -1.02,0.93c-0.4,0.02 -0.83,-0.28 -1.29,-0.9c-0.22,-0.3 -0.385,-0.555 -0.495,-0.765c-0.11,-0.21 -0.18,-0.435 -0.21,-0.675c-0.03,-0.24 -0.015,-0.51 0.045,-0.81c0.06,-0.3 0.16,-0.69 0.3,-1.17c0.16,-0.58 0.295,-1.215 0.405,-1.905c0.11,-0.69 0.175,-1.515 0.195,-2.475c-0.64,0.96 -1.29,1.79 -1.95,2.49c-0.66,0.7 -1.35,1.3 -2.07,1.8c-0.72,0.5 -1.485,0.92 -2.295,1.26c-0.81,0.34 -1.675,0.64 -2.595,0.9c-1.06,0.28 -1.62,0.34 -1.68,0.18c-0.06,-0.16 0.36,-0.52 1.26,-1.08c1.56,-0.96 2.95,-1.975 4.17,-3.045c1.22,-1.07 2.29,-2.315 3.21,-3.735c-1.26,0.2 -2.345,0.395 -3.255,0.585c-0.91,0.19 -1.595,0.345 -2.055,0.465c-0.72,0.2 -1.3,0.265 -1.74,0.195c-0.44,-0.07 -0.95,-0.315 -1.53,-0.735c-0.76,-0.56 -1.11,-0.935 -1.05,-1.125c0.06,-0.19 0.57,-0.285 1.53,-0.285c0.5,-0 1.115,-0.025 1.845,-0.075c0.73,-0.05 1.53,-0.11 2.4,-0.18c0.87,-0.07 1.79,-0.16 2.76,-0.27c0.97,-0.11 1.945,-0.225 2.925,-0.345c-0.06,-0.26 -0.13,-0.44 -0.21,-0.54c-0.16,-0.28 -0.28,-0.505 -0.36,-0.675c-0.08,-0.17 -0.08,-0.29 0,-0.36c0.08,-0.07 0.25,-0.09 0.51,-0.06c0.26,0.03 0.65,0.115 1.17,0.255c-0.16,-0.3 -0.36,-0.565 -0.6,-0.795c-0.24,-0.23 -0.51,-0.455 -0.81,-0.675c-0.44,-0.34 -0.64,-0.57 -0.6,-0.69c0.04,-0.12 0.37,-0.12 0.99,-0c0.62,0.12 1.03,0.125 1.23,0.015c0.2,-0.11 0.32,-0.345 0.36,-0.705c0.04,-0.36 0.065,-0.72 0.075,-1.08c0.01,-0.36 -0.035,-0.74 -0.135,-1.14c-0.7,0.84 -1.385,1.565 -2.055,2.175c-0.67,0.61 -1.345,1.135 -2.025,1.575c-0.68,0.44 -1.385,0.8 -2.115,1.08c-0.73,0.28 -1.505,0.51 -2.325,0.69c-0.8,0.18 -1.275,0.205 -1.425,0.075c-0.15,-0.13 0.155,-0.405 0.915,-0.825c1.32,-0.74 2.495,-1.505 3.525,-2.295c1.03,-0.79 1.995,-1.735 2.895,-2.835c-0.88,0.12 -1.71,0.25 -2.49,0.39c-0.78,0.14 -1.42,0.26 -1.92,0.36c-0.32,0.06 -0.575,0.11 -0.765,0.15c-0.19,0.04 -0.35,0.06 -0.48,0.06c-0.13,-0 -0.24,-0.01 -0.33,-0.03c-0.09,-0.02 -0.195,-0.06 -0.315,-0.12c-0.12,-0.06 -0.275,-0.15 -0.465,-0.27c-0.19,-0.12 -0.355,-0.23 -0.495,-0.33c-0.7,-0.52 -1,-0.87 -0.9,-1.05c0.1,-0.18 0.62,-0.25 1.56,-0.21c0.18,-0 0.425,-0.005 0.735,-0.015c0.31,-0.01 0.78,-0.035 1.41,-0.075c0.63,-0.04 1.47,-0.11 2.52,-0.21c1.05,-0.1 2.405,-0.23 4.065,-0.39c-0.32,-0.22 -0.63,-0.465 -0.93,-0.735c-0.3,-0.27 -0.62,-0.605 -0.96,-1.005c-0.4,-0.42 -0.53,-0.695 -0.39,-0.825c0.14,-0.13 0.56,-0.175 1.26,-0.135c0.6,0.02 1.1,0.08 1.5,0.18c0.34,-0.26 0.63,-0.485 0.87,-0.675c0.24,-0.19 0.45,-0.365 0.63,-0.525c0.18,-0.16 0.345,-0.315 0.495,-0.465c0.15,-0.15 0.305,-0.315 0.465,-0.495c-0.82,0.1 -1.785,0.31 -2.895,0.63c-1.11,0.32 -2.325,0.69 -3.645,1.11c-0.58,0.18 -0.99,0.275 -1.23,0.285c-0.24,0.01 -0.5,-0.095 -0.78,-0.315c-0.16,-0.12 -0.32,-0.245 -0.48,-0.375c-0.16,-0.13 -0.32,-0.275 -0.48,-0.435c-0.56,-0.5 -0.795,-0.86 -0.705,-1.08c0.09,-0.22 0.635,-0.29 1.635,-0.21c0.26,0.02 0.615,0.02 1.065,-0c0.45,-0.02 0.95,-0.06 1.5,-0.12c0.55,-0.06 1.125,-0.13 1.725,-0.21c0.6,-0.08 1.165,-0.165 1.695,-0.255c0.53,-0.09 1,-0.19 1.41,-0.3c0.41,-0.11 0.715,-0.215 0.915,-0.315c0.34,-0.18 0.64,-0.315 0.9,-0.405c0.26,-0.09 0.51,-0.125 0.75,-0.105c0.24,0.02 0.495,0.09 0.765,0.21c0.27,0.12 0.575,0.31 0.915,0.57c0.62,0.46 1.08,0.845 1.38,1.155c0.3,0.31 0.465,0.57 0.495,0.78c0.03,0.21 -0.06,0.375 -0.27,0.495c-0.21,0.12 -0.505,0.2 -0.885,0.24c-0.38,0.04 -0.725,0.085 -1.035,0.135c-0.31,0.05 -0.65,0.13 -1.02,0.24c-0.37,0.11 -0.79,0.255 -1.26,0.435c-0.47,0.18 -1.055,0.42 -1.755,0.72c0.4,0.64 0.47,1.17 0.21,1.59c0.5,-0.06 0.935,-0.125 1.305,-0.195c0.37,-0.07 0.695,-0.145 0.975,-0.225c0.28,-0.08 0.525,-0.165 0.735,-0.255c0.21,-0.09 0.425,-0.185 0.645,-0.285c0.26,-0.12 0.5,-0.215 0.72,-0.285c0.22,-0.07 0.445,-0.095 0.675,-0.075c0.23,0.02 0.48,0.09 0.75,0.21c0.27,0.12 0.585,0.3 0.945,0.54c0.68,0.46 1.175,0.865 1.485,1.215c0.31,0.35 0.475,0.64 0.495,0.87c0.02,0.23 -0.095,0.415 -0.345,0.555c-0.25,0.14 -0.605,0.23 -1.065,0.27c-0.5,0.04 -1.025,0.17 -1.575,0.39c-0.55,0.22 -1.245,0.53 -2.085,0.93c-0.58,0.28 -0.98,0.38 -1.2,0.3c-0.22,-0.08 -0.11,-0.44 0.33,-1.08c0.28,-0.42 0.495,-0.755 0.645,-1.005c0.15,-0.25 0.23,-0.435 0.24,-0.555c0.01,-0.12 -0.04,-0.195 -0.15,-0.225c-0.11,-0.03 -0.285,-0.035 -0.525,-0.015c-0.34,0.02 -0.71,0.05 -1.11,0.09c-0.4,0.04 -0.84,0.09 -1.32,0.15c0.22,0.32 0.385,0.695 0.495,1.125c0.11,0.43 0.165,0.89 0.165,1.38c0,0.49 -0.065,0.995 -0.195,1.515c-0.13,0.52 -0.315,1.03 -0.555,1.53c-0.22,0.46 -0.51,0.79 -0.87,0.99c0.24,0.1 0.36,0.27 0.36,0.51c1.04,-0.14 1.99,-0.28 2.85,-0.42c0.86,-0.14 1.62,-0.28 2.28,-0.42c0.8,-0.16 1.45,-0.275 1.95,-0.345c0.5,-0.07 0.91,-0.08 1.23,-0.03c0.32,0.05 0.6,0.15 0.84,0.3c0.24,0.15 0.51,0.355 0.81,0.615Z" style="fill-rule:nonzero;"/><g><path d="M79.002,32.937c-0.053,0.093 -0.097,0.193 -0.13,0.3c-0.033,0.106 -0.06,0.256 -0.08,0.45c-0.02,0.193 -0.033,0.436 -0.04,0.73c-0.007,0.293 -0.01,0.666 -0.01,1.12c-0,0.426 -0.02,0.883 -0.06,1.37c-0.04,0.486 -0.113,1.03 -0.22,1.63c-0.093,0.533 -0.257,0.983 -0.49,1.35c-0.233,0.366 -0.457,0.57 -0.67,0.61c-0.12,0.026 -0.26,-0.09 -0.42,-0.35c-0.16,-0.26 -0.28,-0.637 -0.36,-1.13c-0.013,-0.054 -0.06,-0.11 -0.14,-0.17c-0.08,-0.06 -0.167,-0.077 -0.26,-0.05c-0.307,0.066 -0.57,0.116 -0.79,0.15c-0.22,0.033 -0.47,0.036 -0.75,0.01c-0.067,0.346 -0.163,0.65 -0.29,0.91c-0.127,0.26 -0.25,0.39 -0.37,0.39c-0.267,-0 -0.51,-0.14 -0.73,-0.42c-0.22,-0.28 -0.317,-0.74 -0.29,-1.38c0.027,-0.694 0.037,-1.35 0.03,-1.97c-0.007,-0.62 -0.03,-1.177 -0.07,-1.67c-0.04,-0.494 -0.097,-0.917 -0.17,-1.27c-0.073,-0.354 -0.17,-0.61 -0.29,-0.77c-0.307,-0.454 -0.407,-0.74 -0.3,-0.86c0.107,-0.12 0.46,-0.147 1.06,-0.08c0.133,0.013 0.25,0.026 0.35,0.04c0.1,0.013 0.197,0.033 0.29,0.06c0.373,-0.747 0.67,-1.354 0.89,-1.82c0.22,-0.467 0.38,-0.844 0.48,-1.13c0.1,-0.287 0.147,-0.51 0.14,-0.67c-0.007,-0.16 -0.037,-0.307 -0.09,-0.44c-0.107,-0.227 -0.17,-0.417 -0.19,-0.57c-0.02,-0.154 0.023,-0.26 0.13,-0.32c0.107,-0.06 0.3,-0.077 0.58,-0.05c0.28,0.026 0.68,0.1 1.2,0.22c0.387,0.093 0.673,0.193 0.86,0.3c0.187,0.106 0.3,0.213 0.34,0.32c0.04,0.106 0.023,0.223 -0.05,0.35c-0.073,0.126 -0.183,0.256 -0.33,0.39c-0.227,0.2 -0.563,0.57 -1.01,1.11c-0.447,0.54 -0.95,1.21 -1.51,2.01c0.307,-0.08 0.577,-0.16 0.81,-0.24c0.233,-0.08 0.423,-0.174 0.57,-0.28c0.133,-0.08 0.247,-0.144 0.34,-0.19c0.093,-0.047 0.193,-0.067 0.3,-0.06c0.107,0.006 0.223,0.036 0.35,0.09c0.127,0.053 0.29,0.133 0.49,0.24c0.347,0.2 0.613,0.36 0.8,0.48c0.187,0.12 0.307,0.24 0.36,0.36c0.053,0.12 0.053,0.246 -0,0.38c-0.053,0.133 -0.14,0.306 -0.26,0.52Zm8.6,-0.4c-0.173,0.226 -0.313,0.6 -0.42,1.12c-0.107,0.52 -0.173,1.226 -0.2,2.12c-0.027,0.546 -0.083,1.16 -0.17,1.84c-0.087,0.68 -0.19,1.293 -0.31,1.84c-0.16,0.72 -0.403,1.343 -0.73,1.87c-0.327,0.526 -0.757,0.943 -1.29,1.25c-0.387,0.226 -0.703,0.333 -0.95,0.32c-0.247,-0.014 -0.43,-0.227 -0.55,-0.64c-0.08,-0.28 -0.203,-0.59 -0.37,-0.93c-0.167,-0.34 -0.377,-0.664 -0.63,-0.97c-0.52,-0.627 -0.757,-1.007 -0.71,-1.14c0.047,-0.134 0.423,-0.074 1.13,0.18c0.373,0.133 0.68,0.22 0.92,0.26c0.24,0.04 0.437,0.023 0.59,-0.05c0.153,-0.074 0.27,-0.217 0.35,-0.43c0.08,-0.214 0.16,-0.5 0.24,-0.86c0.187,-0.894 0.327,-1.787 0.42,-2.68c0.093,-0.894 0.16,-1.694 0.2,-2.4c0.027,-0.467 0.017,-0.777 -0.03,-0.93c-0.047,-0.154 -0.177,-0.217 -0.39,-0.19c-0.387,0.04 -0.71,0.08 -0.97,0.12c-0.26,0.04 -0.543,0.093 -0.85,0.16c-0.267,0.053 -0.503,0.066 -0.71,0.04c-0.207,-0.027 -0.423,-0.1 -0.65,-0.22c-0.28,0.293 -0.593,0.58 -0.94,0.86c-0.347,0.28 -0.747,0.56 -1.2,0.84c-0.253,0.16 -0.433,0.213 -0.54,0.16c-0.107,-0.054 -0.06,-0.2 0.14,-0.44c0.28,-0.334 0.527,-0.657 0.74,-0.97c0.213,-0.314 0.41,-0.634 0.59,-0.96c0.18,-0.327 0.357,-0.677 0.53,-1.05c0.173,-0.374 0.36,-0.8 0.56,-1.28c0.52,-1.24 0.7,-2.08 0.54,-2.52c-0.213,-0.547 -0.203,-0.867 0.03,-0.96c0.233,-0.094 0.75,-0 1.55,0.28c0.427,0.146 0.757,0.29 0.99,0.43c0.233,0.14 0.387,0.28 0.46,0.42c0.073,0.14 0.077,0.28 0.01,0.42c-0.067,0.14 -0.187,0.276 -0.36,0.41c-0.187,0.146 -0.383,0.366 -0.59,0.66c-0.207,0.293 -0.463,0.72 -0.77,1.28c-0.147,0.266 -0.3,0.526 -0.46,0.78c-0.16,0.253 -0.333,0.506 -0.52,0.76c0.213,-0.027 0.44,-0.057 0.68,-0.09c0.24,-0.034 0.44,-0.07 0.6,-0.11c0.24,-0.067 0.467,-0.14 0.68,-0.22c0.213,-0.08 0.373,-0.16 0.48,-0.24c0.16,-0.12 0.303,-0.21 0.43,-0.27c0.127,-0.06 0.25,-0.094 0.37,-0.1c0.12,-0.007 0.247,0.016 0.38,0.07c0.133,0.053 0.293,0.126 0.48,0.22c0.453,0.253 0.8,0.46 1.04,0.62c0.24,0.16 0.397,0.303 0.47,0.43c0.073,0.126 0.08,0.256 0.02,0.39c-0.06,0.133 -0.163,0.3 -0.31,0.5Zm-4.48,3.22c-0,0.346 -0.06,0.62 -0.18,0.82c-0.12,0.2 -0.263,0.336 -0.43,0.41c-0.167,0.073 -0.34,0.076 -0.52,0.01c-0.18,-0.067 -0.337,-0.2 -0.47,-0.4c-0.507,-0.707 -0.913,-1.4 -1.22,-2.08c-0.173,-0.387 -0.21,-0.627 -0.11,-0.72c0.1,-0.094 0.403,-0.067 0.91,0.08c0.413,0.12 0.753,0.243 1.02,0.37c0.267,0.126 0.477,0.263 0.63,0.41c0.153,0.146 0.253,0.31 0.3,0.49c0.047,0.18 0.07,0.383 0.07,0.61Zm-6.18,-2.92c-0,-0.094 -0.01,-0.17 -0.03,-0.23c-0.02,-0.06 -0.06,-0.104 -0.12,-0.13c-0.06,-0.027 -0.15,-0.04 -0.27,-0.04c-0.12,-0 -0.287,0.013 -0.5,0.04c-0.227,0.026 -0.467,0.056 -0.72,0.09c-0.253,0.033 -0.513,0.07 -0.78,0.11c0.053,0.186 0.097,0.433 0.13,0.74c0.033,0.306 0.05,0.74 0.05,1.3c0.107,-0.027 0.203,-0.057 0.29,-0.09c0.087,-0.034 0.143,-0.064 0.17,-0.09c0.2,-0.12 0.367,-0.187 0.5,-0.2c0.133,-0.014 0.32,0.013 0.56,0.08c0.347,0.106 0.53,0.266 0.55,0.48c0.02,0.213 -0.123,0.373 -0.43,0.48c-0.56,0.2 -1.1,0.3 -1.62,0.3l-0,1.04c-0,0.373 -0.013,0.793 -0.04,1.26c0.56,-0.147 0.973,-0.214 1.24,-0.2c0.267,0.013 0.493,0.086 0.68,0.22c0.067,0.04 0.117,0.003 0.15,-0.11c0.033,-0.114 0.077,-0.424 0.13,-0.93c0.053,-0.547 0.083,-1.15 0.09,-1.81c0.007,-0.66 -0.003,-1.43 -0.03,-2.31Z" style="fill-rule:nonzero;"/><path d="M99.582,26.977c0.387,0.226 0.547,0.446 0.48,0.66c-0.067,0.213 -0.367,0.373 -0.9,0.48c-0.213,0.04 -0.527,0.09 -0.94,0.15c-0.413,0.06 -0.867,0.123 -1.36,0.19c0.213,0.106 0.377,0.196 0.49,0.27c0.113,0.073 0.19,0.146 0.23,0.22c0.04,0.073 0.043,0.15 0.01,0.23c-0.033,0.08 -0.09,0.186 -0.17,0.32c-0.093,0.16 -0.16,0.546 -0.2,1.16c0.32,-0.147 0.59,-0.21 0.81,-0.19c0.22,0.02 0.49,0.11 0.81,0.27c0.28,0.146 0.493,0.27 0.64,0.37c0.147,0.1 0.24,0.2 0.28,0.3c0.04,0.1 0.037,0.21 -0.01,0.33c-0.047,0.12 -0.13,0.266 -0.25,0.44c-0.093,0.133 -0.16,0.41 -0.2,0.83c-0.04,0.42 -0.063,0.913 -0.07,1.48c-0.007,0.566 0.01,1.173 0.05,1.82c0.04,0.646 0.093,1.263 0.16,1.85c0.08,0.68 0.057,1.283 -0.07,1.81c-0.127,0.526 -0.33,1.01 -0.61,1.45c-0.187,0.293 -0.387,0.436 -0.6,0.43c-0.213,-0.007 -0.36,-0.157 -0.44,-0.45c-0.12,-0.4 -0.217,-0.71 -0.29,-0.93c-0.073,-0.22 -0.157,-0.377 -0.25,-0.47c-0.093,-0.094 -0.203,-0.14 -0.33,-0.14c-0.127,-0 -0.297,0.02 -0.51,0.06c-0.387,0.066 -0.843,0.13 -1.37,0.19c-0.527,0.06 -1.037,0.103 -1.53,0.13c-0.187,0.666 -0.413,1.043 -0.68,1.13c-0.267,0.086 -0.553,-0.124 -0.86,-0.63c-0.187,-0.32 -0.28,-0.617 -0.28,-0.89c-0,-0.274 0.053,-0.524 0.16,-0.75c0.08,-0.16 0.147,-0.404 0.2,-0.73c0.053,-0.327 0.1,-0.714 0.14,-1.16c0.04,-0.447 0.067,-0.944 0.08,-1.49c0.013,-0.547 0.013,-1.12 -0,-1.72c-0.013,-0.507 -0.057,-0.927 -0.13,-1.26c-0.073,-0.334 -0.17,-0.58 -0.29,-0.74c-0.107,-0.147 -0.173,-0.277 -0.2,-0.39c-0.027,-0.114 0.01,-0.2 0.11,-0.26c0.1,-0.06 0.277,-0.084 0.53,-0.07c0.253,0.013 0.607,0.073 1.06,0.18c0.173,-0.027 0.337,-0.047 0.49,-0.06c0.153,-0.014 0.31,-0.034 0.47,-0.06c-0,-0.467 -0.027,-0.914 -0.08,-1.34c-0.053,-0.427 -0.14,-0.814 -0.26,-1.16c-0.347,0.053 -0.633,0.073 -0.86,0.06c-0.227,-0.014 -0.447,-0.08 -0.66,-0.2c-0.413,-0.24 -0.607,-0.404 -0.58,-0.49c0.027,-0.087 0.32,-0.15 0.88,-0.19c0.28,-0.014 0.617,-0.054 1.01,-0.12c0.393,-0.067 0.813,-0.147 1.26,-0.24c0.447,-0.094 0.893,-0.2 1.34,-0.32c0.447,-0.12 0.863,-0.247 1.25,-0.38c0.467,-0.16 0.84,-0.244 1.12,-0.25c0.28,-0.007 0.587,0.083 0.92,0.27Zm9.74,11.98c0.307,0.266 0.403,0.57 0.29,0.91c-0.113,0.34 -0.477,0.63 -1.09,0.87c-0.493,0.2 -1.04,0.353 -1.64,0.46c-0.6,0.106 -1.2,0.166 -1.8,0.18c-0.6,0.013 -1.18,-0.017 -1.74,-0.09c-0.56,-0.074 -1.047,-0.197 -1.46,-0.37c-0.613,-0.254 -1.047,-0.69 -1.3,-1.31c-0.253,-0.62 -0.333,-1.517 -0.24,-2.69c0.04,-0.574 0.07,-1.067 0.09,-1.48c0.02,-0.414 0.023,-0.764 0.01,-1.05c-0.013,-0.287 -0.04,-0.527 -0.08,-0.72c-0.04,-0.194 -0.093,-0.35 -0.16,-0.47c-0.133,-0.24 -0.223,-0.44 -0.27,-0.6c-0.047,-0.16 -0.017,-0.27 0.09,-0.33c0.107,-0.06 0.3,-0.07 0.58,-0.03c0.28,0.04 0.673,0.14 1.18,0.3c0.427,-0.067 0.767,-0.12 1.02,-0.16c0.253,-0.04 0.52,-0.094 0.8,-0.16c0.093,-0.347 0.183,-0.707 0.27,-1.08c0.087,-0.374 0.15,-0.694 0.19,-0.96c0.053,-0.294 0.05,-0.47 -0.01,-0.53c-0.06,-0.06 -0.217,-0.07 -0.47,-0.03c-0.147,0.026 -0.27,0.05 -0.37,0.07c-0.1,0.02 -0.193,0.043 -0.28,0.07c-0.087,0.026 -0.18,0.056 -0.28,0.09c-0.1,0.033 -0.223,0.076 -0.37,0.13c-0.2,0.08 -0.377,0.136 -0.53,0.17c-0.153,0.033 -0.303,0.043 -0.45,0.03c-0.147,-0.014 -0.297,-0.057 -0.45,-0.13c-0.153,-0.074 -0.33,-0.184 -0.53,-0.33c-0.413,-0.307 -0.593,-0.507 -0.54,-0.6c0.053,-0.094 0.34,-0.154 0.86,-0.18c0.24,-0.014 0.52,-0.044 0.84,-0.09c0.32,-0.047 0.643,-0.11 0.97,-0.19c0.327,-0.08 0.633,-0.167 0.92,-0.26c0.287,-0.094 0.51,-0.2 0.67,-0.32c0.16,-0.107 0.303,-0.184 0.43,-0.23c0.127,-0.047 0.263,-0.064 0.41,-0.05c0.147,0.013 0.31,0.06 0.49,0.14c0.18,0.08 0.397,0.193 0.65,0.34c0.373,0.226 0.657,0.42 0.85,0.58c0.193,0.16 0.31,0.306 0.35,0.44c0.04,0.133 0.013,0.253 -0.08,0.36c-0.093,0.106 -0.24,0.226 -0.44,0.36c-0.133,0.08 -0.257,0.17 -0.37,0.27c-0.113,0.1 -0.227,0.223 -0.34,0.37c-0.113,0.146 -0.233,0.323 -0.36,0.53c-0.127,0.206 -0.263,0.456 -0.41,0.75c0.24,0.093 0.417,0.213 0.53,0.36c0.113,0.146 0.163,0.29 0.15,0.43c-0.013,0.14 -0.093,0.266 -0.24,0.38c-0.147,0.113 -0.367,0.183 -0.66,0.21c-0.24,0.026 -0.467,0.05 -0.68,0.07c-0.213,0.02 -0.427,0.04 -0.64,0.06c-0.213,0.02 -0.433,0.043 -0.66,0.07c-0.227,0.026 -0.48,0.06 -0.76,0.1c-0.067,0.56 -0.117,1.05 -0.15,1.47c-0.033,0.42 -0.06,0.8 -0.08,1.14c-0.02,0.34 -0.03,0.65 -0.03,0.93c-0,0.28 0.007,0.553 0.02,0.82c0.013,0.386 0.097,0.683 0.25,0.89c0.153,0.206 0.463,0.356 0.93,0.45c0.427,0.08 0.853,0.11 1.28,0.09c0.427,-0.02 0.967,-0.11 1.62,-0.27c0.24,-0.054 0.447,-0.13 0.62,-0.23c0.173,-0.1 0.327,-0.247 0.46,-0.44c0.133,-0.194 0.253,-0.457 0.36,-0.79c0.107,-0.334 0.22,-0.76 0.34,-1.28c0.08,-0.36 0.163,-0.654 0.25,-0.88c0.087,-0.227 0.17,-0.354 0.25,-0.38c0.08,-0.027 0.15,0.063 0.21,0.27c0.06,0.206 0.103,0.55 0.13,1.03c0.04,0.64 0.107,1.183 0.2,1.63c0.093,0.446 0.227,0.743 0.4,0.89Zm-13.34,-7.9c0.053,-0.68 0.067,-1.194 0.04,-1.54c-0.027,-0.347 -0.107,-0.654 -0.24,-0.92l-0.74,0.1c0.373,0.253 0.59,0.453 0.65,0.6c0.06,0.146 0.043,0.313 -0.05,0.5c-0.04,0.066 -0.07,0.133 -0.09,0.2c-0.02,0.066 -0.033,0.146 -0.04,0.24c-0.007,0.093 -0.01,0.213 -0.01,0.36l-0,0.54l0.48,-0.08Zm1.8,2.84c-0,-0.294 -0.003,-0.567 -0.01,-0.82c-0.007,-0.254 -0.017,-0.494 -0.03,-0.72c-0.027,-0.254 -0.077,-0.417 -0.15,-0.49c-0.073,-0.074 -0.223,-0.09 -0.45,-0.05c-0.04,0.426 -0.06,0.77 -0.06,1.03c-0,0.26 0.013,0.463 0.04,0.61c0.027,0.146 0.073,0.243 0.14,0.29c0.067,0.046 0.153,0.076 0.26,0.09c0.053,0.013 0.103,0.02 0.15,0.02c0.047,-0 0.083,0.013 0.11,0.04Zm-3.56,-1.6c-0.107,0.013 -0.2,0.02 -0.28,0.02l-0.24,-0l-0,1.29c-0,0.473 -0.007,0.963 -0.02,1.47l0.06,-0.18c0.133,-0.347 0.24,-0.744 0.32,-1.19c0.08,-0.447 0.133,-0.917 0.16,-1.41Zm3.56,2.58c-0.173,0.173 -0.48,0.24 -0.92,0.2c-0.187,-0.027 -0.347,-0.097 -0.48,-0.21c-0.133,-0.114 -0.243,-0.287 -0.33,-0.52c-0.087,-0.234 -0.143,-0.544 -0.17,-0.93c-0.027,-0.387 -0.02,-0.86 0.02,-1.42l-0.4,0.08c-0.027,0.773 -0.143,1.41 -0.35,1.91c-0.207,0.5 -0.477,0.923 -0.81,1.27c-0.147,0.16 -0.27,0.29 -0.37,0.39c-0.1,0.1 -0.203,0.19 -0.31,0.27c-0.013,0.626 -0.027,1.223 -0.04,1.79c-0.013,0.566 -0.033,1.056 -0.06,1.47c0.387,-0.027 0.797,-0.07 1.23,-0.13c0.433,-0.06 0.823,-0.124 1.17,-0.19c0.333,-0.067 0.62,-0.107 0.86,-0.12c0.24,-0.014 0.513,0.033 0.82,0.14c0.013,-0.187 0.03,-0.424 0.05,-0.71c0.02,-0.287 0.037,-0.607 0.05,-0.96c0.013,-0.354 0.023,-0.73 0.03,-1.13c0.007,-0.4 0.01,-0.8 0.01,-1.2Zm-0.78,1.36c0.133,0.04 0.233,0.106 0.3,0.2c0.067,0.093 0.1,0.193 0.1,0.3c-0,0.106 -0.037,0.203 -0.11,0.29c-0.073,0.086 -0.19,0.143 -0.35,0.17c-0.52,0.093 -0.933,0.16 -1.24,0.2c-0.307,0.04 -0.557,0.063 -0.75,0.07c-0.193,0.006 -0.347,-0.004 -0.46,-0.03c-0.113,-0.027 -0.23,-0.067 -0.35,-0.12c-0.507,-0.227 -0.44,-0.44 0.2,-0.64c0.693,-0.214 1.263,-0.354 1.71,-0.42c0.447,-0.067 0.763,-0.074 0.95,-0.02Z" style="fill-rule:nonzero;"/><path d="M127.902,40.297c0.373,0.266 0.643,0.51 0.81,0.73c0.167,0.22 0.203,0.396 0.11,0.53c-0.093,0.133 -0.327,0.213 -0.7,0.24c-0.373,0.026 -0.907,-0.02 -1.6,-0.14c-1.013,-0.187 -2.2,-0.29 -3.56,-0.31c-1.36,-0.02 -2.933,0.063 -4.72,0.25c-0.387,0.04 -0.81,0.09 -1.27,0.15c-0.46,0.06 -0.907,0.123 -1.34,0.19c-0.433,0.066 -0.83,0.133 -1.19,0.2c-0.36,0.066 -0.64,0.12 -0.84,0.16c-0.427,0.106 -0.753,0.146 -0.98,0.12c-0.227,-0.027 -0.48,-0.154 -0.76,-0.38c-0.533,-0.427 -0.757,-0.714 -0.67,-0.86c0.087,-0.147 0.47,-0.207 1.15,-0.18l0.36,-0c0.16,-0 0.387,-0.01 0.68,-0.03c0.293,-0.02 0.67,-0.047 1.13,-0.08c0.46,-0.034 1.03,-0.077 1.71,-0.13c-0,-1.04 -0.007,-1.914 -0.02,-2.62c-0.013,-0.707 -0.037,-1.29 -0.07,-1.75c-0.033,-0.46 -0.073,-0.81 -0.12,-1.05c-0.047,-0.24 -0.11,-0.414 -0.19,-0.52c-0.173,-0.227 -0.283,-0.424 -0.33,-0.59c-0.047,-0.167 -0.02,-0.287 0.08,-0.36c0.1,-0.074 0.277,-0.104 0.53,-0.09c0.253,0.013 0.593,0.086 1.02,0.22c0.147,-0.027 0.29,-0.044 0.43,-0.05c0.14,-0.007 0.277,-0.024 0.41,-0.05c0.107,-0.2 0.197,-0.404 0.27,-0.61c0.073,-0.207 0.143,-0.404 0.21,-0.59c-0.307,0.026 -0.63,0.066 -0.97,0.12c-0.34,0.053 -0.683,0.113 -1.03,0.18c-0.293,0.066 -0.527,0.113 -0.7,0.14c-0.173,0.026 -0.313,0.04 -0.42,0.04c-0.107,-0 -0.203,-0.014 -0.29,-0.04c-0.087,-0.027 -0.183,-0.074 -0.29,-0.14c-0.533,-0.307 -0.79,-0.514 -0.77,-0.62c0.02,-0.107 0.39,-0.18 1.11,-0.22c0.373,-0.027 0.883,-0.07 1.53,-0.13c0.647,-0.06 1.33,-0.137 2.05,-0.23c0.093,-0.48 0.133,-0.88 0.12,-1.2c-0.373,0.04 -0.73,0.083 -1.07,0.13c-0.34,0.046 -0.69,0.096 -1.05,0.15c-0.027,0.213 -0.083,0.366 -0.17,0.46c-0.087,0.093 -0.19,0.146 -0.31,0.16c-0.227,0.026 -0.427,-0.077 -0.6,-0.31c-0.173,-0.234 -0.347,-0.59 -0.52,-1.07c-0.16,-0.467 -0.313,-0.844 -0.46,-1.13c-0.147,-0.287 -0.32,-0.53 -0.52,-0.73c-0.28,-0.294 -0.477,-0.53 -0.59,-0.71c-0.113,-0.18 -0.133,-0.314 -0.06,-0.4c0.073,-0.087 0.25,-0.127 0.53,-0.12c0.28,0.006 0.673,0.056 1.18,0.15c0.413,-0.014 0.783,-0.03 1.11,-0.05c0.327,-0.02 0.65,-0.04 0.97,-0.06c0.32,-0.02 0.663,-0.047 1.03,-0.08c0.367,-0.034 0.797,-0.077 1.29,-0.13c0.613,-0.054 1.117,-0.104 1.51,-0.15c0.393,-0.047 0.717,-0.09 0.97,-0.13c0.253,-0.04 0.457,-0.08 0.61,-0.12c0.153,-0.04 0.29,-0.087 0.41,-0.14c0.24,-0.094 0.433,-0.167 0.58,-0.22c0.147,-0.054 0.287,-0.07 0.42,-0.05c0.133,0.02 0.277,0.073 0.43,0.16c0.153,0.086 0.35,0.216 0.59,0.39c0.347,0.24 0.61,0.44 0.79,0.6c0.18,0.16 0.287,0.3 0.32,0.42c0.033,0.12 -0,0.233 -0.1,0.34c-0.1,0.106 -0.25,0.226 -0.45,0.36c-0.173,0.106 -0.327,0.243 -0.46,0.41c-0.133,0.166 -0.293,0.423 -0.48,0.77c-0.093,0.173 -0.2,0.34 -0.32,0.5c-0.12,0.16 -0.233,0.293 -0.34,0.4c-0.227,0.2 -0.44,0.296 -0.64,0.29c-0.2,-0.007 -0.42,-0.137 -0.66,-0.39c-0.04,-0.04 -0.117,-0.057 -0.23,-0.05c-0.113,0.006 -0.343,0.03 -0.69,0.07c-0.267,0.026 -0.51,0.05 -0.73,0.07c-0.22,0.02 -0.443,0.036 -0.67,0.05c0.427,0.186 0.653,0.353 0.68,0.5c0.027,0.146 -0.073,0.333 -0.3,0.56c0.307,-0.067 0.597,-0.124 0.87,-0.17c0.273,-0.047 0.517,-0.104 0.73,-0.17c0.467,-0.134 0.89,-0.204 1.27,-0.21c0.38,-0.007 0.69,0.076 0.93,0.25c0.56,0.386 0.793,0.706 0.7,0.96c-0.093,0.253 -0.533,0.34 -1.32,0.26c-0.36,-0.04 -0.9,-0.047 -1.62,-0.02c-0.72,0.026 -1.48,0.073 -2.28,0.14c-0.107,0.16 -0.213,0.333 -0.32,0.52c-0.107,0.186 -0.227,0.393 -0.36,0.62c0.387,-0.067 0.73,-0.147 1.03,-0.24c0.3,-0.094 0.623,-0.214 0.97,-0.36c0.24,-0.094 0.433,-0.167 0.58,-0.22c0.147,-0.054 0.28,-0.08 0.4,-0.08c0.12,-0 0.233,0.026 0.34,0.08c0.107,0.053 0.24,0.133 0.4,0.24c0.387,0.253 0.683,0.463 0.89,0.63c0.207,0.166 0.343,0.313 0.41,0.44c0.067,0.126 0.067,0.243 -0,0.35c-0.067,0.106 -0.173,0.233 -0.32,0.38c-0.08,0.08 -0.15,0.206 -0.21,0.38c-0.06,0.173 -0.107,0.45 -0.14,0.83c-0.033,0.38 -0.06,0.886 -0.08,1.52c-0.02,0.633 -0.037,1.443 -0.05,2.43c0.787,-0.094 1.417,-0.16 1.89,-0.2c0.473,-0.04 0.857,-0.05 1.15,-0.03c0.293,0.02 0.53,0.07 0.71,0.15c0.18,0.08 0.363,0.186 0.55,0.32Zm-4.4,-12.52c0.027,-0.08 0.003,-0.157 -0.07,-0.23c-0.073,-0.074 -0.203,-0.104 -0.39,-0.09c-0.28,0.013 -0.547,0.033 -0.8,0.06c-0.253,0.026 -0.593,0.066 -1.02,0.12c0.467,0.106 0.71,0.246 0.73,0.42c0.02,0.173 -0.09,0.426 -0.33,0.76c-0.027,0.04 -0.073,0.113 -0.14,0.22c-0.067,0.106 -0.153,0.253 -0.26,0.44c0.387,-0.027 0.7,-0.04 0.94,-0.04c0.24,-0 0.393,0.02 0.46,0.06c0.107,0.066 0.197,0.086 0.27,0.06c0.073,-0.027 0.123,-0.074 0.15,-0.14c0.04,-0.134 0.08,-0.254 0.12,-0.36c0.04,-0.107 0.077,-0.22 0.11,-0.34c0.033,-0.12 0.067,-0.257 0.1,-0.41c0.033,-0.154 0.077,-0.33 0.13,-0.53Zm-3.34,1.8c0.133,-0.36 0.187,-0.677 0.16,-0.95c-0.027,-0.274 -0.113,-0.564 -0.26,-0.87c-0.267,0.026 -0.523,0.046 -0.77,0.06c-0.247,0.013 -0.503,0.026 -0.77,0.04c0.227,0.36 0.353,0.673 0.38,0.94c0.027,0.266 -0.02,0.58 -0.14,0.94c0.253,-0.027 0.493,-0.054 0.72,-0.08c0.227,-0.027 0.453,-0.054 0.68,-0.08Zm-2.28,0.28c-0.107,-0.347 -0.187,-0.654 -0.24,-0.92c-0.053,-0.267 -0.093,-0.607 -0.12,-1.02c-0.253,0.013 -0.503,0.02 -0.75,0.02l-0.75,-0c0.107,0.306 0.21,0.626 0.31,0.96c0.1,0.333 0.197,0.713 0.29,1.14l1.26,-0.18Zm4,4.96c-0.027,-0.227 -0.067,-0.367 -0.12,-0.42c-0.053,-0.054 -0.193,-0.08 -0.42,-0.08c-0.107,-0 -0.287,0.013 -0.54,0.04c-0.253,0.026 -0.547,0.06 -0.88,0.1c-0.333,0.04 -0.69,0.09 -1.07,0.15c-0.38,0.06 -0.743,0.116 -1.09,0.17c-0,0.106 0.003,0.213 0.01,0.32c0.007,0.106 0.01,0.22 0.01,0.34c0.373,-0.027 0.737,-0.077 1.09,-0.15c0.353,-0.074 0.697,-0.164 1.03,-0.27c0.267,-0.094 0.483,-0.134 0.65,-0.12c0.167,0.013 0.33,0.06 0.49,0.14c0.307,0.146 0.45,0.303 0.43,0.47c-0.02,0.166 -0.157,0.276 -0.41,0.33c-0.573,0.106 -1.133,0.193 -1.68,0.26c-0.547,0.066 -1.073,0.106 -1.58,0.12l-0,0.45c-0,0.153 0.007,0.316 0.02,0.49c0.4,-0.027 0.787,-0.08 1.16,-0.16c0.373,-0.08 0.733,-0.194 1.08,-0.34c0.2,-0.08 0.383,-0.12 0.55,-0.12c0.167,-0 0.357,0.053 0.57,0.16c0.293,0.146 0.407,0.313 0.34,0.5c-0.067,0.186 -0.22,0.306 -0.46,0.36c-0.64,0.146 -1.207,0.246 -1.7,0.3c-0.493,0.053 -1.007,0.08 -1.54,0.08l-0,0.88c0.427,-0.027 0.837,-0.08 1.23,-0.16c0.393,-0.08 0.77,-0.194 1.13,-0.34c0.2,-0.08 0.383,-0.12 0.55,-0.12c0.167,-0 0.357,0.053 0.57,0.16c0.293,0.146 0.407,0.313 0.34,0.5c-0.067,0.186 -0.22,0.306 -0.46,0.36c-0.707,0.146 -1.327,0.253 -1.86,0.32c-0.533,0.066 -1.033,0.086 -1.5,0.06l-0,1.04c0.733,-0.067 1.45,-0.127 2.15,-0.18c0.7,-0.054 1.31,-0.107 1.83,-0.16c0.027,-0.654 0.047,-1.277 0.06,-1.87c0.013,-0.594 0.023,-1.13 0.03,-1.61c0.007,-0.48 0.01,-0.894 0.01,-1.24c-0,-0.347 -0.007,-0.6 -0.02,-0.76Z" style="fill-rule:nonzero;"/></g></g></svg>