<?xml version="1.0" encoding="UTF-8" standalone="no"?><!DOCTYPE svg PUBLIC "-//W3C//DTD SVG 1.1//EN" "http://www.w3.org/Graphics/SVG/1.1/DTD/svg11.dtd"><svg width="489.0px" height="210.0px" viewBox="0 0 489 210" version="1.1" xmlns="http://www.w3.org/2000/svg" xmlns:xlink="http://www.w3.org/1999/xlink" xml:space="preserve" xmlns:serif="http://www.serif.com/" style="fill-rule:evenodd;clip-rule:evenodd;"><g id="M1-hamori-classification-octave-up"><g id="五線"><path id="horizon" d="M16,95.5l460,0" style="fill:none;stroke:#000;stroke-width:1px;"/><path id="horizon1" serif:id="horizon" d="M16,115.5l460,0" style="fill:none;stroke:#000;stroke-width:1px;"/><path id="horizon2" serif:id="horizon" d="M16,135.5l460,0" style="fill:none;stroke:#000;stroke-width:1px;"/><path id="horizon3" serif:id="horizon" d="M16,155.5l460,0" style="fill:none;stroke:#000;stroke-width:1px;"/><path id="horizon4" serif:id="horizon" d="M16,175.5l460,0" style="fill:none;stroke:#000;stroke-width:1px;"/></g><path id="bar" d="M17.5,94.5l-0,81" style="fill:none;stroke:#000;stroke-width:2px;stroke-linecap:round;stroke-linejoin:round;"/><path id="G-Clef" d="M45.162,195.963c-0.896,-0.067 -1.758,-0.212 -2.572,-0.434c-4.215,-1.144 -7.135,-4.322 -7.815,-8.51c-0.2,-1.227 -0.133,-3.147 0.148,-4.243c0.214,-0.839 0.733,-2.038 1.151,-2.663c0.705,-1.051 1.91,-2.046 3.112,-2.564c0.988,-0.428 1.52,-0.541 2.766,-0.585c0.988,-0.037 1.232,-0.021 1.803,0.127c2.488,0.639 4.503,2.772 5.377,5.693c0.197,0.66 0.215,0.827 0.219,2.125c0.003,1.232 -0.018,1.489 -0.173,2.037c-0.344,1.217 -0.932,2.198 -1.871,3.115c-1.375,1.348 -2.986,2.157 -5.161,2.597l-0.933,0.19l0.662,0.288c3.535,1.554 7.448,1.404 11.096,-0.419c3.193,-1.594 5.662,-4.479 6.511,-7.607c0.206,-0.756 0.218,-0.895 0.212,-2.334l-0.006,-1.529l-1.192,-5.916c-0.655,-3.254 -1.209,-5.976 -1.23,-6.05c-0.036,-0.115 -0.118,-0.099 -0.684,0.137c-3.656,1.527 -9.188,1.507 -14.237,-0.05c-6.917,-2.133 -12.563,-6.814 -15.506,-12.854c-0.918,-1.887 -1.454,-3.69 -1.751,-5.895c-0.133,-0.993 -0.112,-3.622 0.041,-4.871c0.82,-6.682 4.269,-13.382 10.772,-20.928c2.024,-2.348 6.454,-6.742 9.422,-9.347c0.79,-0.692 0.823,-0.736 0.762,-0.96c-0.137,-0.519 -0.614,-3.035 -0.762,-4.021c-0.683,-4.598 -0.682,-9.937 0.004,-14.609c1.077,-7.34 3.601,-13.508 7.275,-17.769c0.67,-0.778 2.088,-2.114 2.243,-2.114c0.05,0 0.48,0.589 0.953,1.309c4.397,6.662 6.723,12.596 7.359,18.761c0.158,1.542 0.114,5.159 -0.082,6.57c-0.644,4.656 -2.147,8.697 -4.725,12.7c-1.685,2.621 -4.224,5.599 -6.815,8c-0.591,0.548 -1.214,1.125 -1.383,1.283l-0.306,0.286l1.357,6.676l1.356,6.678l0.672,-0.052c1.889,-0.152 3.885,-0.041 5.312,0.292c1.899,0.446 4.037,1.463 5.636,2.68c0.892,0.68 2.377,2.199 3.004,3.074c1.499,2.09 2.477,4.582 2.75,7.001c0.136,1.197 0.055,3.525 -0.153,4.493c-0.823,3.832 -3.259,7.435 -6.97,10.306c-0.918,0.71 -2.256,1.567 -3.228,2.07c-0.658,0.341 -0.715,0.387 -0.672,0.565c0.083,0.337 1.138,5.465 1.532,7.444c0.207,1.039 0.525,2.76 0.708,3.824c0.322,1.872 0.332,1.969 0.288,3.179c-0.078,2.3 -0.656,4.098 -1.96,6.117c-2.485,3.844 -6.937,6.295 -12.129,6.677c-1.097,0.08 -1.45,0.086 -2.187,0.03Zm6.583,-27.078c0.977,-0.115 2.214,-0.381 3.016,-0.651c0.982,-0.329 2.167,-0.914 2.12,-1.047c-0.022,-0.059 -1.026,-4.955 -2.232,-10.883c-1.206,-5.927 -2.212,-10.796 -2.236,-10.82c-0.023,-0.024 -0.424,0.032 -0.89,0.127c-3.416,0.692 -6.219,2.651 -7.447,5.205c-0.387,0.805 -0.535,1.332 -0.635,2.252c-0.212,1.955 0.417,4.102 1.703,5.804c0.749,0.993 1.89,2.054 2.937,2.734c0.401,0.26 0.478,0.388 0.197,0.327c-0.098,-0.02 -0.442,-0.095 -0.764,-0.163c-2.533,-0.547 -4.982,-1.98 -6.371,-3.723c-1.22,-1.533 -1.839,-3.127 -2.016,-5.199c-0.226,-2.641 0.466,-5.187 2.084,-7.683c1.045,-1.612 2.849,-3.367 4.656,-4.529c1.309,-0.843 3.293,-1.703 4.645,-2.014c0.247,-0.056 0.449,-0.129 0.449,-0.159c0,-0.087 -2.504,-12.339 -2.546,-12.456c-0.061,-0.172 -3.455,2.612 -5.742,4.707c-1.261,1.156 -3.945,3.95 -4.919,5.122c-2.941,3.537 -4.841,6.719 -5.904,9.88c-1.068,3.188 -1.334,6.256 -0.788,9.16c0.664,3.53 2.941,7.224 5.986,9.712c4.136,3.377 9.403,4.917 14.697,4.297Zm7.76,-3.357c2.819,-2.421 4.487,-5.175 4.98,-8.215c0.166,-1.019 0.122,-3.168 -0.08,-4.118c-0.825,-3.849 -3.344,-6.821 -6.664,-7.862c-0.654,-0.206 -0.805,-0.222 -2.094,-0.224c-0.817,-0 -1.417,0.03 -1.458,0.078c-0.041,0.047 0.802,4.276 2.112,10.584c1.199,5.777 2.181,10.514 2.183,10.528c0.008,0.064 0.351,-0.196 1.021,-0.771Zm-9.221,-54.512c5.675,-5.681 9.029,-11.213 9.728,-16.053c0.157,-1.09 0.155,-2.867 -0.006,-3.836c-0.322,-1.932 -1.11,-3.629 -2.45,-5.265c-0.532,-0.65 -0.612,-0.684 -1.618,-0.682c-1.108,0.002 -2.116,0.528 -3.161,1.65c-1.733,1.854 -3.181,4.885 -4.248,8.877c-1.483,5.559 -1.939,12.511 -1.125,17.22l0.127,0.744l0.794,-0.744c0.436,-0.41 1.316,-1.269 1.959,-1.911Z"/><g id="Note"><path id="note" d="M126.807,132.706c6.295,-3.342 9.648,-9.391 7.585,-13.942c-2.2,-4.855 -9.763,-6.225 -16.88,-3.059c-7.118,3.166 -11.107,9.677 -8.907,14.531c2.2,4.855 9.764,6.225 16.88,3.059c0.445,-0.198 0.903,-0.365 1.322,-0.589Z" style="fill:#0c0c0c;fill-rule:nonzero;"/></g><g id="int-1"><path id="Combined-Shape" d="M145.989,131.276l-0,-12.492l-1.908,-0c-0,1.314 -1.314,2.286 -3.132,2.286l-0,1.548l2.7,-0l-0.018,8.658l2.358,-0Z" style="fill:#0c0c0c;fill-rule:nonzero;"/><circle id="Oval" cx="150" cy="122" r="2" style="fill:none;stroke:#0c0c0c;stroke-width:1px;"/></g><g id="half-note" opacity="0.3"><path id="half" d="M219.414,142.815c5.829,-3.183 8.934,-8.944 7.023,-13.278c-2.037,-4.624 -9.04,-5.928 -15.629,-2.913c-6.591,3.015 -10.285,9.216 -8.248,13.839c2.038,4.624 9.041,5.928 15.63,2.913c0.412,-0.189 0.836,-0.348 1.224,-0.561Zm-1.905,-3.921c-0.414,0.219 -0.833,0.381 -1.272,0.582c-5.618,2.571 -11.044,2.692 -12.111,0.27c-1.068,-2.421 2.626,-6.473 8.244,-9.044c5.617,-2.571 11.043,-2.691 12.111,-0.269c0.983,2.231 -2.086,5.895 -6.972,8.461Z" style="fill:#0c0c0c;fill-rule:nonzero;"/></g><g id="half-note1" serif:id="half-note"><path id="half1" serif:id="half" d="M219.414,72.815c5.829,-3.183 8.934,-8.944 7.023,-13.278c-2.037,-4.624 -9.04,-5.928 -15.629,-2.913c-6.591,3.015 -10.285,9.216 -8.248,13.839c2.038,4.624 9.041,5.928 15.63,2.913c0.412,-0.189 0.836,-0.348 1.224,-0.561Zm-1.905,-3.921c-0.414,0.219 -0.833,0.381 -1.272,0.582c-5.618,2.571 -11.044,2.692 -12.111,0.27c-1.068,-2.421 2.626,-6.473 8.244,-9.044c5.617,-2.571 11.043,-2.691 12.111,-0.269c0.983,2.231 -2.086,5.895 -6.972,8.461Z" style="fill:#0c0c0c;fill-rule:nonzero;"/></g><g id="half-note2" serif:id="half-note" opacity="0.3"><path id="half2" serif:id="half" d="M319.414,152.815c5.829,-3.183 8.934,-8.944 7.023,-13.278c-2.037,-4.624 -9.04,-5.928 -15.629,-2.913c-6.591,3.015 -10.285,9.216 -8.248,13.839c2.038,4.624 9.041,5.928 15.63,2.913c0.412,-0.189 0.836,-0.348 1.224,-0.561Zm-1.905,-3.921c-0.414,0.219 -0.833,0.381 -1.272,0.582c-5.618,2.571 -11.044,2.692 -12.111,0.27c-1.068,-2.421 2.626,-6.473 8.244,-9.044c5.617,-2.571 11.043,-2.691 12.111,-0.269c0.983,2.231 -2.086,5.895 -6.972,8.461Z" style="fill:#0c0c0c;fill-rule:nonzero;"/></g><g id="half-note3" serif:id="half-note" opacity="0.3"><path id="half3" serif:id="half" d="M419.414,162.815c5.829,-3.183 8.934,-8.944 7.023,-13.278c-2.037,-4.624 -9.04,-5.928 -15.629,-2.913c-6.591,3.015 -10.285,9.216 -8.248,13.839c2.038,4.624 9.041,5.928 15.63,2.913c0.412,-0.189 0.836,-0.348 1.224,-0.561Zm-1.905,-3.921c-0.414,0.219 -0.833,0.381 -1.272,0.582c-5.618,2.571 -11.044,2.692 -12.111,0.27c-1.068,-2.421 2.626,-6.473 8.244,-9.044c5.617,-2.571 11.043,-2.691 12.111,-0.269c0.983,2.231 -2.086,5.895 -6.972,8.461Z" style="fill:#0c0c0c;fill-rule:nonzero;"/></g><g id="half-note4" serif:id="half-note"><path id="half4" serif:id="half" d="M419.414,94.815c5.829,-3.183 8.934,-8.944 7.023,-13.278c-2.037,-4.624 -9.04,-5.928 -15.629,-2.913c-6.591,3.015 -10.285,9.216 -8.248,13.839c2.038,4.624 9.041,5.928 15.63,2.913c0.412,-0.189 0.836,-0.348 1.224,-0.561Zm-1.905,-3.921c-0.414,0.219 -0.833,0.381 -1.272,0.582c-5.618,2.571 -11.044,2.692 -12.111,0.27c-1.068,-2.421 2.626,-6.473 8.244,-9.044c5.617,-2.571 11.043,-2.691 12.111,-0.269c0.983,2.231 -2.086,5.895 -6.972,8.461Z" style="fill:#0c0c0c;fill-rule:nonzero;"/></g><path id="bar1" serif:id="bar" d="M476.5,95.5l0,79" style="fill:none;stroke:#000;stroke-width:1px;stroke-linecap:round;stroke-linejoin:round;"/><path id="Path-9" d="M174.431,96.937l0,79" style="fill:none;stroke:#1d1d1d;stroke-width:1px;stroke-dasharray:4,4;"/><path id="Path-91" serif:id="Path-9" d="M272.431,96.937l0,79" style="fill:none;stroke:#1d1d1d;stroke-width:1px;stroke-dasharray:4,4;"/><path id="Path-92" serif:id="Path-9" d="M374.431,96.937l0,79" style="fill:none;stroke:#1d1d1d;stroke-width:1px;stroke-dasharray:4,4;"/><path id="Line" d="M213.247,80.25l4.553,8.974l-4.001,0.023l0.201,34.25l0.003,0.5l-1,0.006l-0.003,-0.5l-0.201,-34.251l-3.999,0.024l4.447,-9.026Z" style="fill:#979797;fill-rule:nonzero;"/><path id="Line1" serif:id="Line" d="M314.247,88.25l4.553,8.974l-4.001,0.023l0.201,34.25l0.003,0.5l-1,0.006l-0.003,-0.5l-0.201,-34.251l-3.999,0.024l4.447,-9.026Z" style="fill:#979797;fill-rule:nonzero;"/><path id="Line2" serif:id="Line" d="M413.247,99.25l4.553,8.974l-4.001,0.023l0.201,34.25l0.003,0.5l-1,0.006l-0.003,-0.5l-0.201,-34.251l-3.999,0.024l4.447,-9.026Z" style="fill:#979797;fill-rule:nonzero;"/><g id="int-up"><path id="Combined-Shape1" serif:id="Combined-Shape" d="M237.407,53.369l-0,1.728l-5.058,10.764l-2.376,0l5.022,-10.53l-6.534,0l-0,-1.962l8.946,0Zm0.802,2.73l3.396,-5.099l3.395,5.099l-2.528,0l-0,4.08l-1.941,-0l0,-4.08l-2.322,0Z" style="fill:#0c0c0c;fill-rule:nonzero;"/></g><g id="int-up1" serif:id="int-up"><path id="Combined-Shape2" serif:id="Combined-Shape" d="M336.229,58.369l-3.114,4.266c0.396,-0.126 0.828,-0.198 1.296,-0.198c2.268,0 4.05,1.71 4.05,4.086c-0,2.628 -2.034,4.5 -4.842,4.5c-2.79,0 -4.824,-1.872 -4.824,-4.446c-0,-0.99 0.324,-1.854 0.828,-2.592l3.816,-5.616l2.79,0Zm-2.61,5.778c-1.404,0 -2.412,1.008 -2.412,2.43c-0,1.422 1.026,2.43 2.412,2.43c1.404,0 2.43,-1.008 2.43,-2.43c-0,-1.422 -1.008,-2.43 -2.43,-2.43Zm5.59,-3.048l3.396,-5.099l3.395,5.099l-2.528,0l-0,4.08l-1.941,-0l0,-4.08l-2.322,0Z" style="fill:#0c0c0c;fill-rule:nonzero;"/></g><g id="int-up2" serif:id="int-up"><path id="Combined-Shape3" serif:id="Combined-Shape" d="M436.705,68.369l-0,1.944l-5.814,0l-0.36,2.97c0.63,-0.522 1.584,-0.846 2.61,-0.846c2.574,0 4.194,1.764 4.194,4.212c-0,2.538 -1.998,4.374 -4.77,4.374c-2.502,0 -4.5,-1.584 -4.68,-3.96l2.358,0c0.18,1.188 1.152,1.926 2.322,1.926c1.332,0 2.376,-1.008 2.376,-2.484c-0,-1.422 -1.008,-2.43 -2.376,-2.43c-0.882,0 -1.71,0.486 -2.106,1.296l-2.232,0l1.026,-7.002l7.452,0Zm1.504,2.73l3.396,-5.099l3.395,5.099l-2.528,0l-0,4.08l-1.941,-0l0,-4.08l-2.322,0Z" style="fill:#0c0c0c;fill-rule:nonzero;"/></g><g id="do-line"><rect id="Rectangle" x="193" y="74" width="45" height="2" style="fill:#0c0c0c;"/></g><g id="half-note5" serif:id="half-note"><path id="half5" serif:id="half" d="M319.414,82.815c5.829,-3.183 8.934,-8.944 7.023,-13.278c-2.037,-4.624 -9.04,-5.928 -15.629,-2.913c-6.591,3.015 -10.285,9.216 -8.248,13.839c2.038,4.624 9.041,5.928 15.63,2.913c0.412,-0.189 0.836,-0.348 1.224,-0.561Zm-1.905,-3.921c-0.414,0.219 -0.833,0.381 -1.272,0.582c-5.618,2.571 -11.044,2.692 -12.111,0.27c-1.068,-2.421 2.626,-6.473 8.244,-9.044c5.617,-2.571 11.043,-2.691 12.111,-0.269c0.983,2.231 -2.086,5.895 -6.972,8.461Z" style="fill:#0c0c0c;fill-rule:nonzero;"/></g><g id="do-line1" serif:id="do-line"><rect id="Rectangle1" serif:id="Rectangle" x="293" y="74" width="45" height="2" style="fill:#0c0c0c;"/></g><g id="int-down"><path id="Combined-Shape4" serif:id="Combined-Shape" d="M242.685,123.954l1.964,-0l-0,4.02l2.351,0l-3.436,5.026l-3.436,-5.026l2.557,0l0,-4.02Zm-7.759,-4.96c2.448,-0 4.248,1.53 4.248,3.708c0,2.286 -1.854,3.51 -3.51,4.482c-1.368,0.792 -2.664,1.458 -2.754,2.52l6.444,-0l0,1.962l-9.126,-0l0,-0.216c0,-3.15 2.088,-4.356 3.672,-5.292c1.674,-0.99 2.952,-1.962 2.952,-3.33c0,-1.098 -0.81,-1.854 -1.98,-1.854c-1.116,-0 -2.07,0.72 -2.142,2.088l-2.268,-0c0.108,-2.502 1.944,-4.068 4.464,-4.068Z" style="fill:#aaa;"/></g><g id="int-down1" serif:id="int-down"><path id="Combined-Shape5" serif:id="Combined-Shape" d="M341.685,133.954l1.964,-0l-0,4.02l2.351,0l-3.436,5.026l-3.436,-5.026l2.557,0l0,-4.02Zm-7.975,-4.96c2.394,-0 4.194,1.422 4.194,3.276c0,1.314 -0.9,2.448 -2.286,2.898c1.638,0.414 2.736,1.602 2.736,3.114c0,1.998 -1.962,3.546 -4.662,3.546c-2.772,-0 -4.788,-1.602 -4.842,-4.176l2.34,-0c0.054,1.422 1.098,2.232 2.43,2.232c1.35,-0 2.322,-0.81 2.322,-1.89c0,-1.134 -1.08,-1.944 -2.7,-1.944l-0.612,-0l0,-1.584l0.612,-0c1.476,-0 2.448,-0.774 2.448,-1.872c0,-1.026 -0.882,-1.71 -2.052,-1.71c-1.206,-0 -2.142,0.756 -2.196,2.178l-2.178,-0c0.09,-2.502 1.872,-4.068 4.446,-4.068Z" style="fill:#aaa;"/></g><g id="int-down2" serif:id="int-down"><path id="Combined-Shape6" serif:id="Combined-Shape" d="M440.685,143.954l1.964,-0l-0,4.02l2.351,0l-3.436,5.026l-3.436,-5.026l2.557,0l0,-4.02Zm-5.239,-4.78l0,7.83l2.088,-0l0,1.944l-2.088,-0l0,2.718l-2.358,-0l0,-2.718l-5.976,-0l0,-1.728l5.508,-8.046l2.826,-0Zm-2.34,2.52l-3.726,5.31l3.708,-0l0.018,-5.31Z" style="fill:#aaa;"/></g><g id="「上ハモ」をオクターブ下げて「下ハモ」へ"><text x="122.525px" y="32px" style="font-family:'NotoSansSC-Bold', 'Noto Sans SC', sans-serif;font-weight:700;font-size:14px;">将“下和声”上移一个八度到“上和声”</text></g></g></svg>