<?xml version="1.0" encoding="UTF-8" standalone="no"?><!DOCTYPE svg PUBLIC "-//W3C//DTD SVG 1.1//EN" "http://www.w3.org/Graphics/SVG/1.1/DTD/svg11.dtd"><svg width="710.0px" height="710.0px" viewBox="0 0 710 710" version="1.1" xmlns="http://www.w3.org/2000/svg" xmlns:xlink="http://www.w3.org/1999/xlink" xml:space="preserve" xmlns:serif="http://www.serif.com/" style="fill-rule:evenodd;clip-rule:evenodd;"><g id="M1-hamori-classification-kanji-full"><g id="五線"><path id="horizon" d="M16,105.5l620,0" style="fill:none;stroke:#000;stroke-width:1px;"/><path id="horizon1" serif:id="horizon" d="M16,125.5l620,0" style="fill:none;stroke:#000;stroke-width:1px;"/><path id="horizon2" serif:id="horizon" d="M16,145.5l620,0" style="fill:none;stroke:#000;stroke-width:1px;"/><path id="horizon3" serif:id="horizon" d="M16,165.5l620,0" style="fill:none;stroke:#000;stroke-width:1px;"/><path id="horizon4" serif:id="horizon" d="M16,185.5l620,0" style="fill:none;stroke:#000;stroke-width:1px;"/></g><path id="bar" d="M17.5,104.5l-0,81" style="fill:none;stroke:#000;stroke-width:2px;stroke-linecap:round;stroke-linejoin:round;"/><path id="G-Clef" d="M45.162,205.963c-0.896,-0.067 -1.758,-0.212 -2.572,-0.434c-4.215,-1.144 -7.135,-4.322 -7.815,-8.51c-0.2,-1.227 -0.133,-3.147 0.148,-4.243c0.214,-0.839 0.733,-2.038 1.151,-2.663c0.705,-1.051 1.91,-2.046 3.112,-2.564c0.988,-0.428 1.52,-0.541 2.766,-0.585c0.988,-0.037 1.232,-0.021 1.803,0.127c2.488,0.639 4.503,2.772 5.377,5.693c0.197,0.66 0.215,0.827 0.219,2.125c0.003,1.232 -0.018,1.489 -0.173,2.037c-0.344,1.217 -0.932,2.198 -1.871,3.115c-1.375,1.348 -2.986,2.157 -5.161,2.597l-0.933,0.19l0.662,0.288c3.535,1.554 7.448,1.404 11.096,-0.419c3.193,-1.594 5.662,-4.479 6.511,-7.607c0.206,-0.756 0.218,-0.895 0.212,-2.334l-0.006,-1.529l-1.192,-5.916c-0.655,-3.254 -1.209,-5.976 -1.23,-6.05c-0.036,-0.115 -0.118,-0.099 -0.684,0.137c-3.656,1.527 -9.188,1.507 -14.237,-0.05c-6.917,-2.133 -12.563,-6.814 -15.506,-12.854c-0.918,-1.887 -1.454,-3.69 -1.751,-5.895c-0.133,-0.993 -0.112,-3.622 0.041,-4.871c0.82,-6.682 4.269,-13.382 10.772,-20.928c2.024,-2.348 6.454,-6.742 9.422,-9.347c0.79,-0.692 0.823,-0.736 0.762,-0.96c-0.137,-0.519 -0.614,-3.035 -0.762,-4.021c-0.683,-4.598 -0.682,-9.937 0.004,-14.609c1.077,-7.34 3.601,-13.508 7.275,-17.769c0.67,-0.778 2.088,-2.114 2.243,-2.114c0.05,0 0.48,0.589 0.953,1.309c4.397,6.662 6.723,12.596 7.359,18.761c0.158,1.542 0.114,5.159 -0.082,6.57c-0.644,4.656 -2.147,8.697 -4.725,12.7c-1.685,2.621 -4.224,5.599 -6.815,7.999c-0.591,0.549 -1.214,1.126 -1.383,1.284l-0.306,0.286l1.357,6.676l1.356,6.678l0.672,-0.052c1.889,-0.152 3.885,-0.041 5.312,0.292c1.899,0.446 4.037,1.463 5.636,2.68c0.892,0.68 2.377,2.199 3.004,3.074c1.499,2.09 2.477,4.582 2.75,7.001c0.136,1.197 0.055,3.525 -0.153,4.493c-0.823,3.832 -3.259,7.435 -6.97,10.306c-0.918,0.71 -2.256,1.567 -3.228,2.07c-0.658,0.341 -0.715,0.387 -0.672,0.565c0.083,0.337 1.138,5.465 1.532,7.444c0.207,1.039 0.525,2.76 0.708,3.824c0.322,1.872 0.332,1.969 0.288,3.179c-0.078,2.3 -0.656,4.098 -1.96,6.117c-2.485,3.844 -6.937,6.295 -12.129,6.677c-1.097,0.08 -1.45,0.086 -2.187,0.03Zm6.583,-27.078c0.977,-0.115 2.214,-0.381 3.016,-0.651c0.982,-0.329 2.167,-0.914 2.12,-1.047c-0.022,-0.059 -1.026,-4.955 -2.232,-10.883c-1.206,-5.927 -2.212,-10.796 -2.236,-10.82c-0.023,-0.024 -0.424,0.032 -0.89,0.127c-3.416,0.692 -6.219,2.651 -7.447,5.205c-0.387,0.805 -0.535,1.332 -0.635,2.252c-0.212,1.955 0.417,4.102 1.703,5.804c0.749,0.993 1.89,2.054 2.937,2.734c0.401,0.26 0.478,0.388 0.197,0.327c-0.098,-0.02 -0.442,-0.095 -0.764,-0.163c-2.533,-0.547 -4.982,-1.98 -6.371,-3.723c-1.22,-1.533 -1.839,-3.127 -2.016,-5.199c-0.226,-2.641 0.466,-5.187 2.084,-7.683c1.045,-1.612 2.849,-3.367 4.656,-4.529c1.309,-0.843 3.293,-1.703 4.645,-2.014c0.247,-0.056 0.449,-0.129 0.449,-0.159c0,-0.087 -2.504,-12.339 -2.546,-12.456c-0.061,-0.172 -3.455,2.612 -5.742,4.707c-1.261,1.156 -3.945,3.95 -4.919,5.122c-2.941,3.537 -4.841,6.719 -5.904,9.88c-1.068,3.188 -1.334,6.256 -0.788,9.16c0.664,3.53 2.941,7.224 5.986,9.712c4.136,3.377 9.403,4.917 14.697,4.297Zm7.76,-3.357c2.819,-2.421 4.487,-5.175 4.98,-8.215c0.166,-1.019 0.122,-3.168 -0.08,-4.118c-0.825,-3.849 -3.344,-6.821 -6.664,-7.862c-0.654,-0.206 -0.805,-0.222 -2.094,-0.224c-0.817,-0 -1.417,0.03 -1.458,0.078c-0.041,0.047 0.802,4.276 2.112,10.584c1.199,5.777 2.181,10.514 2.183,10.528c0.008,0.064 0.351,-0.196 1.021,-0.771Zm-9.221,-54.512c5.675,-5.681 9.029,-11.213 9.728,-16.053c0.157,-1.09 0.155,-2.867 -0.006,-3.836c-0.322,-1.932 -1.11,-3.629 -2.45,-5.265c-0.532,-0.65 -0.612,-0.684 -1.618,-0.682c-1.108,0.002 -2.116,0.528 -3.161,1.65c-1.733,1.854 -3.181,4.885 -4.248,8.877c-1.483,5.559 -1.939,12.511 -1.125,17.22l0.127,0.744l0.794,-0.744c0.436,-0.41 1.316,-1.269 1.959,-1.911Z"/><g id="五線1" serif:id="五線"><path id="horizon5" serif:id="horizon" d="M16,305.5l620,0" style="fill:none;stroke:#000;stroke-width:1px;"/><path id="horizon6" serif:id="horizon" d="M16,325.5l620,0" style="fill:none;stroke:#000;stroke-width:1px;"/><path id="horizon7" serif:id="horizon" d="M16,345.5l620,0" style="fill:none;stroke:#000;stroke-width:1px;"/><path id="horizon8" serif:id="horizon" d="M16,365.5l620,0" style="fill:none;stroke:#000;stroke-width:1px;"/><path id="horizon9" serif:id="horizon" d="M16,385.5l620,0" style="fill:none;stroke:#000;stroke-width:1px;"/></g><path id="bar1" serif:id="bar" d="M17.5,304.5l0,81" style="fill:none;stroke:#000;stroke-width:2px;stroke-linecap:round;stroke-linejoin:round;"/><path id="G-Clef1" serif:id="G-Clef" d="M45.162,405.963c-0.896,-0.067 -1.758,-0.212 -2.572,-0.434c-4.215,-1.144 -7.135,-4.322 -7.815,-8.51c-0.2,-1.227 -0.133,-3.147 0.148,-4.243c0.214,-0.839 0.733,-2.038 1.151,-2.663c0.705,-1.051 1.91,-2.046 3.112,-2.564c0.988,-0.428 1.52,-0.541 2.766,-0.585c0.988,-0.037 1.232,-0.021 1.803,0.127c2.488,0.639 4.503,2.772 5.377,5.693c0.197,0.66 0.215,0.827 0.219,2.125c0.003,1.232 -0.018,1.489 -0.173,2.037c-0.344,1.217 -0.932,2.198 -1.871,3.115c-1.375,1.348 -2.986,2.157 -5.161,2.597l-0.933,0.19l0.662,0.288c3.535,1.554 7.448,1.404 11.096,-0.419c3.193,-1.594 5.662,-4.479 6.511,-7.607c0.206,-0.756 0.218,-0.895 0.212,-2.334l-0.006,-1.529l-1.192,-5.916c-0.655,-3.254 -1.209,-5.976 -1.23,-6.05c-0.036,-0.115 -0.118,-0.099 -0.684,0.137c-3.656,1.527 -9.188,1.507 -14.237,-0.05c-6.917,-2.133 -12.563,-6.814 -15.506,-12.854c-0.918,-1.887 -1.454,-3.69 -1.751,-5.895c-0.133,-0.993 -0.112,-3.622 0.041,-4.871c0.82,-6.682 4.269,-13.382 10.772,-20.928c2.024,-2.348 6.454,-6.742 9.422,-9.347c0.79,-0.692 0.823,-0.736 0.762,-0.96c-0.137,-0.519 -0.614,-3.035 -0.762,-4.021c-0.683,-4.598 -0.682,-9.937 0.004,-14.609c1.077,-7.34 3.601,-13.508 7.275,-17.769c0.67,-0.778 2.088,-2.114 2.243,-2.114c0.05,-0 0.48,0.589 0.953,1.309c4.397,6.662 6.723,12.596 7.359,18.761c0.158,1.542 0.114,5.159 -0.082,6.57c-0.644,4.656 -2.147,8.697 -4.725,12.7c-1.685,2.621 -4.224,5.599 -6.815,7.999c-0.591,0.549 -1.214,1.126 -1.383,1.284l-0.306,0.286l1.357,6.676l1.356,6.678l0.672,-0.052c1.889,-0.152 3.885,-0.041 5.312,0.292c1.899,0.446 4.037,1.463 5.636,2.68c0.892,0.68 2.377,2.199 3.004,3.074c1.499,2.09 2.477,4.582 2.75,7.001c0.136,1.197 0.055,3.525 -0.153,4.493c-0.823,3.832 -3.259,7.435 -6.97,10.306c-0.918,0.71 -2.256,1.567 -3.228,2.07c-0.658,0.341 -0.715,0.387 -0.672,0.565c0.083,0.337 1.138,5.465 1.532,7.444c0.207,1.039 0.525,2.76 0.708,3.824c0.322,1.872 0.332,1.969 0.288,3.179c-0.078,2.3 -0.656,4.098 -1.96,6.117c-2.485,3.844 -6.937,6.295 -12.129,6.677c-1.097,0.08 -1.45,0.086 -2.187,0.03Zm6.583,-27.078c0.977,-0.115 2.214,-0.381 3.016,-0.651c0.982,-0.329 2.167,-0.914 2.12,-1.047c-0.022,-0.059 -1.026,-4.955 -2.232,-10.883c-1.206,-5.927 -2.212,-10.796 -2.236,-10.82c-0.023,-0.024 -0.424,0.032 -0.89,0.127c-3.416,0.692 -6.219,2.651 -7.447,5.205c-0.387,0.805 -0.535,1.332 -0.635,2.252c-0.212,1.955 0.417,4.102 1.703,5.804c0.749,0.993 1.89,2.054 2.937,2.734c0.401,0.26 0.478,0.388 0.197,0.327c-0.098,-0.02 -0.442,-0.095 -0.764,-0.163c-2.533,-0.547 -4.982,-1.98 -6.371,-3.723c-1.22,-1.533 -1.839,-3.127 -2.016,-5.199c-0.226,-2.641 0.466,-5.187 2.084,-7.683c1.045,-1.612 2.849,-3.367 4.656,-4.529c1.309,-0.843 3.293,-1.703 4.645,-2.014c0.247,-0.056 0.449,-0.129 0.449,-0.159c0,-0.087 -2.504,-12.339 -2.546,-12.456c-0.061,-0.172 -3.455,2.612 -5.742,4.707c-1.261,1.156 -3.945,3.95 -4.919,5.122c-2.941,3.537 -4.841,6.719 -5.904,9.88c-1.068,3.188 -1.334,6.256 -0.788,9.16c0.664,3.53 2.941,7.224 5.986,9.712c4.136,3.377 9.403,4.917 14.697,4.297Zm7.76,-3.357c2.819,-2.421 4.487,-5.175 4.98,-8.215c0.166,-1.019 0.122,-3.168 -0.08,-4.118c-0.825,-3.849 -3.344,-6.821 -6.664,-7.862c-0.654,-0.206 -0.805,-0.222 -2.094,-0.224c-0.817,-0 -1.417,0.03 -1.458,0.078c-0.041,0.047 0.802,4.276 2.112,10.584c1.199,5.777 2.181,10.514 2.183,10.528c0.008,0.064 0.351,-0.196 1.021,-0.771Zm-9.221,-54.512c5.675,-5.681 9.029,-11.213 9.728,-16.053c0.157,-1.09 0.155,-2.867 -0.006,-3.836c-0.322,-1.932 -1.11,-3.629 -2.45,-5.265c-0.532,-0.65 -0.612,-0.684 -1.618,-0.682c-1.108,0.002 -2.116,0.528 -3.161,1.65c-1.733,1.854 -3.181,4.885 -4.248,8.877c-1.483,5.559 -1.939,12.511 -1.125,17.22l0.127,0.744l0.794,-0.744c0.436,-0.41 1.316,-1.269 1.959,-1.911Z"/><g id="五線2" serif:id="五線"><path id="horizon10" serif:id="horizon" d="M16,545.5l620,0" style="fill:none;stroke:#000;stroke-width:1px;"/><path id="horizon11" serif:id="horizon" d="M16,565.5l620,0" style="fill:none;stroke:#000;stroke-width:1px;"/><path id="horizon12" serif:id="horizon" d="M16,585.5l620,0" style="fill:none;stroke:#000;stroke-width:1px;"/><path id="horizon13" serif:id="horizon" d="M16,605.5l620,0" style="fill:none;stroke:#000;stroke-width:1px;"/><path id="horizon14" serif:id="horizon" d="M16,625.5l620,0" style="fill:none;stroke:#000;stroke-width:1px;"/></g><path id="bar2" serif:id="bar" d="M17.5,544.5l0,81" style="fill:none;stroke:#000;stroke-width:2px;stroke-linecap:round;stroke-linejoin:round;"/><path id="G-Clef2" serif:id="G-Clef" d="M45.162,645.963c-0.896,-0.067 -1.758,-0.212 -2.572,-0.434c-4.215,-1.144 -7.135,-4.322 -7.815,-8.51c-0.2,-1.227 -0.133,-3.147 0.148,-4.243c0.214,-0.839 0.733,-2.038 1.151,-2.663c0.705,-1.051 1.91,-2.046 3.112,-2.564c0.988,-0.428 1.52,-0.541 2.766,-0.585c0.988,-0.037 1.232,-0.021 1.803,0.127c2.488,0.639 4.503,2.772 5.377,5.693c0.197,0.66 0.215,0.827 0.219,2.125c0.003,1.232 -0.018,1.489 -0.173,2.037c-0.344,1.217 -0.932,2.198 -1.871,3.115c-1.375,1.348 -2.986,2.157 -5.161,2.597l-0.933,0.19l0.662,0.288c3.535,1.554 7.448,1.404 11.096,-0.419c3.193,-1.594 5.662,-4.479 6.511,-7.607c0.206,-0.756 0.218,-0.895 0.212,-2.334l-0.006,-1.529l-1.192,-5.916c-0.655,-3.254 -1.209,-5.976 -1.23,-6.05c-0.036,-0.115 -0.118,-0.099 -0.684,0.137c-3.656,1.527 -9.188,1.507 -14.237,-0.05c-6.917,-2.133 -12.563,-6.814 -15.506,-12.854c-0.918,-1.887 -1.454,-3.69 -1.751,-5.895c-0.133,-0.993 -0.112,-3.622 0.041,-4.871c0.82,-6.682 4.269,-13.382 10.772,-20.928c2.024,-2.348 6.454,-6.742 9.422,-9.347c0.79,-0.692 0.823,-0.736 0.762,-0.96c-0.137,-0.519 -0.614,-3.035 -0.762,-4.021c-0.683,-4.598 -0.682,-9.937 0.004,-14.609c1.077,-7.34 3.601,-13.508 7.275,-17.769c0.67,-0.778 2.088,-2.114 2.243,-2.114c0.05,0 0.48,0.589 0.953,1.309c4.397,6.662 6.723,12.596 7.359,18.761c0.158,1.542 0.114,5.159 -0.082,6.57c-0.644,4.656 -2.147,8.697 -4.725,12.7c-1.685,2.621 -4.224,5.599 -6.815,8c-0.591,0.548 -1.214,1.125 -1.383,1.283l-0.306,0.286l1.357,6.676l1.356,6.678l0.672,-0.052c1.889,-0.152 3.885,-0.041 5.312,0.292c1.899,0.446 4.037,1.463 5.636,2.68c0.892,0.68 2.377,2.199 3.004,3.074c1.499,2.09 2.477,4.582 2.75,7.001c0.136,1.197 0.055,3.525 -0.153,4.493c-0.823,3.832 -3.259,7.435 -6.97,10.306c-0.918,0.71 -2.256,1.567 -3.228,2.07c-0.658,0.341 -0.715,0.387 -0.672,0.565c0.083,0.337 1.138,5.465 1.532,7.444c0.207,1.039 0.525,2.76 0.708,3.824c0.322,1.872 0.332,1.969 0.288,3.179c-0.078,2.3 -0.656,4.098 -1.96,6.117c-2.485,3.844 -6.937,6.295 -12.129,6.677c-1.097,0.08 -1.45,0.086 -2.187,0.03Zm6.583,-27.078c0.977,-0.115 2.214,-0.381 3.016,-0.651c0.982,-0.329 2.167,-0.914 2.12,-1.047c-0.022,-0.059 -1.026,-4.955 -2.232,-10.883c-1.206,-5.927 -2.212,-10.796 -2.236,-10.82c-0.023,-0.024 -0.424,0.032 -0.89,0.127c-3.416,0.692 -6.219,2.651 -7.447,5.205c-0.387,0.805 -0.535,1.332 -0.635,2.252c-0.212,1.955 0.417,4.102 1.703,5.804c0.749,0.993 1.89,2.054 2.937,2.734c0.401,0.26 0.478,0.388 0.197,0.327c-0.098,-0.02 -0.442,-0.095 -0.764,-0.163c-2.533,-0.547 -4.982,-1.98 -6.371,-3.723c-1.22,-1.533 -1.839,-3.127 -2.016,-5.199c-0.226,-2.641 0.466,-5.187 2.084,-7.683c1.045,-1.612 2.849,-3.367 4.656,-4.529c1.309,-0.843 3.293,-1.703 4.645,-2.014c0.247,-0.056 0.449,-0.129 0.449,-0.159c0,-0.087 -2.504,-12.339 -2.546,-12.456c-0.061,-0.172 -3.455,2.612 -5.742,4.707c-1.261,1.156 -3.945,3.95 -4.919,5.122c-2.941,3.537 -4.841,6.719 -5.904,9.88c-1.068,3.188 -1.334,6.256 -0.788,9.16c0.664,3.53 2.941,7.224 5.986,9.712c4.136,3.377 9.403,4.917 14.697,4.297Zm7.76,-3.357c2.819,-2.421 4.487,-5.175 4.98,-8.215c0.166,-1.019 0.122,-3.168 -0.08,-4.118c-0.825,-3.849 -3.344,-6.821 -6.664,-7.862c-0.654,-0.206 -0.805,-0.222 -2.094,-0.224c-0.817,-0 -1.417,0.03 -1.458,0.078c-0.041,0.047 0.802,4.276 2.112,10.584c1.199,5.777 2.181,10.514 2.183,10.528c0.008,0.064 0.351,-0.196 1.021,-0.771Zm-9.221,-54.512c5.675,-5.681 9.029,-11.213 9.728,-16.053c0.157,-1.09 0.155,-2.867 -0.006,-3.836c-0.322,-1.932 -1.11,-3.629 -2.45,-5.265c-0.532,-0.65 -0.612,-0.684 -1.618,-0.682c-1.108,0.002 -2.116,0.528 -3.161,1.65c-1.733,1.854 -3.181,4.885 -4.248,8.877c-1.483,5.559 -1.939,12.511 -1.125,17.22l0.127,0.744l0.794,-0.744c0.436,-0.41 1.316,-1.269 1.959,-1.911Z"/><g id="Note"><path id="note" d="M136.807,623.706c6.295,-3.342 9.648,-9.391 7.585,-13.942c-2.2,-4.855 -9.763,-6.225 -16.88,-3.059c-7.118,3.166 -11.107,9.677 -8.907,14.531c2.2,4.855 9.764,6.225 16.88,3.059c0.445,-0.198 0.903,-0.365 1.322,-0.589Z" style="fill:#0c0c0c;fill-rule:nonzero;"/></g><g id="half-note"><path id="half" d="M242.414,593.815c5.829,-3.183 8.934,-8.944 7.023,-13.278c-2.037,-4.624 -9.04,-5.928 -15.629,-2.913c-6.591,3.015 -10.285,9.216 -8.248,13.839c2.038,4.624 9.041,5.928 15.63,2.913c0.412,-0.189 0.836,-0.348 1.224,-0.561Zm-1.905,-3.921c-0.414,0.219 -0.833,0.381 -1.272,0.582c-5.618,2.571 -11.044,2.692 -12.111,0.27c-1.068,-2.421 2.626,-6.473 8.244,-9.044c5.617,-2.571 11.043,-2.691 12.111,-0.269c0.983,2.231 -2.086,5.895 -6.972,8.461Z" style="fill:#5c3df5;fill-rule:nonzero;"/></g><g id="int-1"><path id="Combined-Shape" d="M154.989,621.276l-0,-12.492l-1.908,-0c-0,1.314 -1.314,2.286 -3.132,2.286l-0,1.548l2.7,-0l-0.018,8.658l2.358,-0Z" style="fill:#0c0c0c;fill-rule:nonzero;"/><circle id="Oval" cx="159" cy="612" r="2" style="fill:none;stroke:#0c0c0c;stroke-width:1px;"/></g><g id="Note1" serif:id="Note"><path id="note1" serif:id="note" d="M126.807,143.706c6.295,-3.342 9.648,-9.391 7.585,-13.942c-2.2,-4.855 -9.763,-6.225 -16.88,-3.059c-7.118,3.166 -11.107,9.677 -8.907,14.531c2.2,4.855 9.764,6.225 16.88,3.059c0.445,-0.198 0.903,-0.365 1.322,-0.589Z" style="fill:#0c0c0c;fill-rule:nonzero;"/></g><g id="int-11" serif:id="int-1"><path id="Combined-Shape1" serif:id="Combined-Shape" d="M144.989,141.276l-0,-12.492l-1.908,-0c-0,1.314 -1.314,2.286 -3.132,2.286l-0,1.548l2.7,-0l-0.018,8.658l2.358,-0Z" style="fill:#0c0c0c;fill-rule:nonzero;"/><circle id="Oval1" serif:id="Oval" cx="149" cy="132" r="2" style="fill:none;stroke:#0c0c0c;stroke-width:1px;"/></g><g id="Note2" serif:id="Note"><path id="note2" serif:id="note" d="M126.807,343.706c6.295,-3.342 9.648,-9.391 7.585,-13.942c-2.2,-4.855 -9.763,-6.225 -16.88,-3.059c-7.118,3.166 -11.107,9.677 -8.907,14.531c2.2,4.855 9.764,6.225 16.88,3.059c0.445,-0.198 0.903,-0.365 1.322,-0.589Z" style="fill:#0c0c0c;fill-rule:nonzero;"/></g><g id="int-12" serif:id="int-1"><path id="Combined-Shape2" serif:id="Combined-Shape" d="M144.989,341.276l-0,-12.492l-1.908,-0c-0,1.314 -1.314,2.286 -3.132,2.286l-0,1.548l2.7,-0l-0.018,8.658l2.358,-0Z" style="fill:#0c0c0c;fill-rule:nonzero;"/><circle id="Oval2" serif:id="Oval" cx="149" cy="332" r="2" style="fill:none;stroke:#0c0c0c;stroke-width:1px;"/></g><g id="int-up"><path id="Combined-Shape3" serif:id="Combined-Shape" d="M476.517,89.369l-0,7.83l2.088,0l-0,1.944l-2.088,0l-0,2.718l-2.358,0l-0,-2.718l-5.976,0l-0,-1.728l5.508,-8.046l2.826,0Zm-2.34,2.52l-3.726,5.31l3.708,0l0.018,-5.31Zm5.032,0.21l3.396,-5.099l3.395,5.099l-2.528,0l-0,4.08l-1.941,-0l0,-4.08l-2.322,0Z" style="fill:#ffbf00;"/></g><g id="int-up1" serif:id="int-up"><path id="Combined-Shape4" serif:id="Combined-Shape" d="M272.517,570.369l-0,7.83l2.088,0l-0,1.944l-2.088,0l-0,2.718l-2.358,0l-0,-2.718l-5.976,0l-0,-1.728l5.508,-8.046l2.826,0Zm-11.906,3.222l-0,2.952l3.06,0l-0,1.368l-3.06,0l-0,2.952l-1.494,0l-0,-2.952l-3.042,0l-0,-1.368l3.042,0l-0,-2.952l1.494,0Zm9.566,-0.702l-3.726,5.31l3.708,0l0.018,-5.31Zm5.032,0.21l3.396,-5.099l3.395,5.099l-2.528,0l-0,4.08l-1.941,-0l0,-4.08l-2.322,0Z" style="fill:#5c3df5;fill-rule:nonzero;"/></g><g id="Note3" serif:id="Note"><path id="note3" serif:id="note" d="M421.807,593.706c6.295,-3.342 9.648,-9.391 7.585,-13.942c-2.2,-4.855 -9.763,-6.225 -16.88,-3.059c-7.118,3.166 -11.107,9.677 -8.907,14.531c2.2,4.855 9.764,6.225 16.88,3.059c0.445,-0.198 0.903,-0.365 1.322,-0.589Z" style="fill:#0c0c0c;fill-rule:nonzero;"/></g><g id="half-note1" serif:id="half-note"><path id="half1" serif:id="half" d="M242.414,663.815c5.829,-3.183 8.934,-8.944 7.023,-13.278c-2.037,-4.624 -9.04,-5.928 -15.629,-2.913c-6.591,3.015 -10.285,9.216 -8.248,13.839c2.038,4.624 9.041,5.928 15.63,2.913c0.412,-0.189 0.836,-0.348 1.224,-0.561Zm-1.905,-3.921c-0.414,0.219 -0.833,0.381 -1.272,0.582c-5.618,2.571 -11.044,2.692 -12.111,0.27c-1.068,-2.421 2.626,-6.473 8.244,-9.044c5.617,-2.571 11.043,-2.691 12.111,-0.269c0.983,2.231 -2.086,5.895 -6.972,8.461Z" style="fill:#5c3df5;fill-rule:nonzero;"/></g><g id="do-line"><rect id="Rectangle" x="216" y="645" width="45" height="2" style="fill:#5c3df5;"/></g><g id="int-13" serif:id="int-1"><path id="Combined-Shape5" serif:id="Combined-Shape" d="M439.989,591.276l-0,-12.492l-1.908,-0c-0,1.314 -1.314,2.286 -3.132,2.286l-0,1.548l2.7,-0l-0.018,8.658l2.358,-0Z" style="fill:#0c0c0c;fill-rule:nonzero;"/><circle id="Oval3" serif:id="Oval" cx="444" cy="582" r="2" style="fill:none;stroke:#0c0c0c;stroke-width:1px;"/></g><g id="int-down"><path id="Combined-Shape6" serif:id="Combined-Shape" d="M277.685,653.954l1.964,-0l-0,4.02l2.351,0l-3.436,5.026l-3.436,-5.026l2.557,0l0,-4.02Zm-18.883,-1.36c2.772,-0 4.788,1.944 4.788,4.626c0,2.682 -2.016,4.608 -4.788,4.608c-2.79,-0 -4.806,-1.926 -4.806,-4.608c0,-2.682 2.016,-4.626 4.806,-4.626Zm14.832,-3.42l0,1.944l-5.814,-0l-0.36,2.97c0.63,-0.522 1.584,-0.846 2.61,-0.846c2.574,-0 4.194,1.764 4.194,4.212c0,2.538 -1.998,4.374 -4.77,4.374c-2.502,-0 -4.5,-1.584 -4.68,-3.96l2.358,-0c0.18,1.188 1.152,1.926 2.322,1.926c1.332,-0 2.376,-1.008 2.376,-2.484c0,-1.422 -1.008,-2.43 -2.376,-2.43c-0.882,-0 -1.71,0.486 -2.106,1.296l-2.232,-0l1.026,-7.002l7.452,-0Zm-14.85,5.454c-1.386,-0 -2.376,1.08 -2.376,2.592c0,1.494 0.99,2.574 2.376,2.574c1.404,-0 2.394,-1.08 2.394,-2.574c0,-1.512 -0.99,-2.592 -2.394,-2.592Z" style="fill:#5c3df5;fill-rule:nonzero;"/></g><g id="half-note2" serif:id="half-note"><path id="half2" serif:id="half" d="M514.414,552.815c5.829,-3.183 8.934,-8.944 7.023,-13.278c-2.037,-4.624 -9.04,-5.928 -15.629,-2.913c-6.591,3.015 -10.285,9.216 -8.248,13.839c2.038,4.624 9.041,5.928 15.63,2.913c0.412,-0.189 0.836,-0.348 1.224,-0.561Zm-1.905,-3.921c-0.414,0.219 -0.833,0.381 -1.272,0.582c-5.618,2.571 -11.044,2.692 -12.111,0.27c-1.068,-2.421 2.626,-6.473 8.244,-9.044c5.617,-2.571 11.043,-2.691 12.111,-0.269c0.983,2.231 -2.086,5.895 -6.972,8.461Z" style="fill:#5c3df5;fill-rule:nonzero;"/></g><g id="int-up2" serif:id="int-up"><path id="Combined-Shape7" serif:id="Combined-Shape" d="M532.873,532.789c2.772,0 4.788,1.944 4.788,4.626c-0,2.682 -2.016,4.608 -4.788,4.608c-2.79,0 -4.806,-1.926 -4.806,-4.608c-0,-2.682 2.016,-4.626 4.806,-4.626Zm13.832,-3.42l-0,1.944l-5.814,0l-0.36,2.97c0.63,-0.522 1.584,-0.846 2.61,-0.846c2.574,0 4.194,1.764 4.194,4.212c-0,2.538 -1.998,4.374 -4.77,4.374c-2.502,0 -4.5,-1.584 -4.68,-3.96l2.358,0c0.18,1.188 1.152,1.926 2.322,1.926c1.332,0 2.376,-1.008 2.376,-2.484c-0,-1.422 -1.008,-2.43 -2.376,-2.43c-0.882,0 -1.71,0.486 -2.106,1.296l-2.232,0l1.026,-7.002l7.452,0Zm-13.85,5.454c-1.386,0 -2.376,1.08 -2.376,2.592c-0,1.494 0.99,2.574 2.376,2.574c1.404,0 2.394,-1.08 2.394,-2.574c-0,-1.512 -0.99,-2.592 -2.394,-2.592Zm15.354,-2.724l3.396,-5.099l3.395,5.099l-2.528,0l-0,4.08l-1.941,-0l0,-4.08l-2.322,0Z" style="fill:#5c3df5;fill-rule:nonzero;"/></g><g id="half-note3" serif:id="half-note"><path id="half3" serif:id="half" d="M514.414,622.815c5.829,-3.183 8.934,-8.944 7.023,-13.278c-2.037,-4.624 -9.04,-5.928 -15.629,-2.913c-6.591,3.015 -10.285,9.216 -8.248,13.839c2.038,4.624 9.041,5.928 15.63,2.913c0.412,-0.189 0.836,-0.348 1.224,-0.561Zm-1.905,-3.921c-0.414,0.219 -0.833,0.381 -1.272,0.582c-5.618,2.571 -11.044,2.692 -12.111,0.27c-1.068,-2.421 2.626,-6.473 8.244,-9.044c5.617,-2.571 11.043,-2.691 12.111,-0.269c0.983,2.231 -2.086,5.895 -6.972,8.461Z" style="fill:#5c3df5;fill-rule:nonzero;"/></g><g id="int-down1" serif:id="int-down"><path id="Combined-Shape8" serif:id="Combined-Shape" d="M550.685,612.954l1.964,-0l-0,4.02l2.351,0l-3.436,5.026l-3.436,-5.026l2.557,0l0,-4.02Zm-5.239,-4.78l0,7.83l2.088,-0l0,1.944l-2.088,-0l0,2.718l-2.358,-0l0,-2.718l-5.976,-0l0,-1.728l5.508,-8.046l2.826,-0Zm-12.906,3.222l0,2.952l3.06,-0l0,1.368l-3.06,-0l0,2.952l-1.494,-0l0,-2.952l-3.042,-0l0,-1.368l3.042,-0l0,-2.952l1.494,-0Zm10.566,-0.702l-3.726,5.31l3.708,-0l0.018,-5.31Z" style="fill:#5c3df5;fill-rule:nonzero;"/></g><g id="int-up3" serif:id="int-up"><path id="Combined-Shape9" serif:id="Combined-Shape" d="M253.997,112.189c2.448,0 4.248,1.53 4.248,3.708c-0,2.286 -1.854,3.51 -3.51,4.482c-1.368,0.792 -2.664,1.458 -2.754,2.52l6.444,0l-0,1.962l-9.126,0l-0,-0.216c-0,-3.15 2.088,-4.356 3.672,-5.292c1.674,-0.99 2.952,-1.962 2.952,-3.33c-0,-1.098 -0.81,-1.854 -1.98,-1.854c-1.116,0 -2.07,0.72 -2.142,2.088l-2.268,0c0.108,-2.502 1.944,-4.068 4.464,-4.068Zm5.212,2.91l3.396,-5.099l3.395,5.099l-2.528,0l-0,4.08l-1.941,-0l0,-4.08l-2.322,0Z" style="fill:#f50;"/></g><g id="int-up4" serif:id="int-up"><path id="Combined-Shape10" serif:id="Combined-Shape" d="M364.781,105.189c2.394,0 4.194,1.422 4.194,3.276c-0,1.314 -0.9,2.448 -2.286,2.898c1.638,0.414 2.736,1.602 2.736,3.114c-0,1.998 -1.962,3.546 -4.662,3.546c-2.772,0 -4.788,-1.602 -4.842,-4.176l2.34,0c0.054,1.422 1.098,2.232 2.43,2.232c1.35,0 2.322,-0.81 2.322,-1.89c-0,-1.134 -1.08,-1.944 -2.7,-1.944l-0.612,0l-0,-1.584l0.612,0c1.476,0 2.448,-0.774 2.448,-1.872c-0,-1.026 -0.882,-1.71 -2.052,-1.71c-1.206,0 -2.142,0.756 -2.196,2.178l-2.178,0c0.09,-2.502 1.872,-4.068 4.446,-4.068Zm5.428,2.91l3.396,-5.099l3.395,5.099l-2.528,0l-0,4.08l-1.941,-0l0,-4.08l-2.322,0Z" style="fill:#58c322;"/></g><g id="int-down2" serif:id="int-down"><path id="Combined-Shape11" serif:id="Combined-Shape" d="M481.685,173.954l1.964,-0l-0,4.02l2.351,0l-3.436,5.026l-3.436,-5.026l2.557,0l0,-4.02Zm-5.239,-4.78l0,7.83l2.088,-0l0,1.944l-2.088,-0l0,2.718l-2.358,-0l0,-2.718l-5.976,-0l0,-1.728l5.508,-8.046l2.826,-0Zm-2.34,2.52l-3.726,5.31l3.708,-0l0.018,-5.31Z" style="fill:#ffbf00;"/></g><g id="int-down3" serif:id="int-down"><path id="Combined-Shape12" serif:id="Combined-Shape" d="M371.685,157.954l1.964,-0l-0,4.02l2.351,0l-3.436,5.026l-3.436,-5.026l2.557,0l0,-4.02Zm-7.975,-4.96c2.394,-0 4.194,1.422 4.194,3.276c0,1.314 -0.9,2.448 -2.286,2.898c1.638,0.414 2.736,1.602 2.736,3.114c0,1.998 -1.962,3.546 -4.662,3.546c-2.772,-0 -4.788,-1.602 -4.842,-4.176l2.34,-0c0.054,1.422 1.098,2.232 2.43,2.232c1.35,-0 2.322,-0.81 2.322,-1.89c0,-1.134 -1.08,-1.944 -2.7,-1.944l-0.612,-0l0,-1.584l0.612,-0c1.476,-0 2.448,-0.774 2.448,-1.872c0,-1.026 -0.882,-1.71 -2.052,-1.71c-1.206,-0 -2.142,0.756 -2.196,2.178l-2.178,-0c0.09,-2.502 1.872,-4.068 4.446,-4.068Z" style="fill:#58c322;"/></g><g id="int-down4" serif:id="int-down"><path id="Combined-Shape13" serif:id="Combined-Shape" d="M261.685,149.954l1.964,-0l-0,4.02l2.351,0l-3.436,5.026l-3.436,-5.026l2.557,0l0,-4.02Zm-7.759,-4.96c2.448,-0 4.248,1.53 4.248,3.708c0,2.286 -1.854,3.51 -3.51,4.482c-1.368,0.792 -2.664,1.458 -2.754,2.52l6.444,-0l0,1.962l-9.126,-0l0,-0.216c0,-3.15 2.088,-4.356 3.672,-5.292c1.674,-0.99 2.952,-1.962 2.952,-3.33c0,-1.098 -0.81,-1.854 -1.98,-1.854c-1.116,-0 -2.07,0.72 -2.142,2.088l-2.268,-0c0.108,-2.502 1.944,-4.068 4.464,-4.068Z" style="fill:#f50;"/></g><g id="half-note4" serif:id="half-note"><path id="half4" serif:id="half" d="M239.414,132.815c5.829,-3.183 8.934,-8.944 7.023,-13.278c-2.037,-4.624 -9.04,-5.928 -15.629,-2.913c-6.591,3.015 -10.285,9.216 -8.248,13.839c2.038,4.624 9.041,5.928 15.63,2.913c0.412,-0.189 0.836,-0.348 1.224,-0.561Zm-1.905,-3.921c-0.414,0.219 -0.833,0.381 -1.272,0.582c-5.618,2.571 -11.044,2.692 -12.111,0.27c-1.068,-2.421 2.626,-6.473 8.244,-9.044c5.617,-2.571 11.043,-2.691 12.111,-0.269c0.983,2.231 -2.086,5.895 -6.972,8.461Z" style="fill:#f50;"/></g><g id="half-note5" serif:id="half-note"><path id="half5" serif:id="half" d="M239.414,152.815c5.829,-3.183 8.934,-8.944 7.023,-13.278c-2.037,-4.624 -9.04,-5.928 -15.629,-2.913c-6.591,3.015 -10.285,9.216 -8.248,13.839c2.038,4.624 9.041,5.928 15.63,2.913c0.412,-0.189 0.836,-0.348 1.224,-0.561Zm-1.905,-3.921c-0.414,0.219 -0.833,0.381 -1.272,0.582c-5.618,2.571 -11.044,2.692 -12.111,0.27c-1.068,-2.421 2.626,-6.473 8.244,-9.044c5.617,-2.571 11.043,-2.691 12.111,-0.269c0.983,2.231 -2.086,5.895 -6.972,8.461Z" style="fill:#f50;"/></g><g id="half-note6" serif:id="half-note"><path id="half6" serif:id="half" d="M349.414,122.815c5.829,-3.183 8.934,-8.944 7.023,-13.278c-2.037,-4.624 -9.04,-5.928 -15.629,-2.913c-6.591,3.015 -10.285,9.216 -8.248,13.839c2.038,4.624 9.041,5.928 15.63,2.913c0.412,-0.189 0.836,-0.348 1.224,-0.561Zm-1.905,-3.921c-0.414,0.219 -0.833,0.381 -1.272,0.582c-5.618,2.571 -11.044,2.692 -12.111,0.27c-1.068,-2.421 2.626,-6.473 8.244,-9.044c5.617,-2.571 11.043,-2.691 12.111,-0.269c0.983,2.231 -2.086,5.895 -6.972,8.461Z" style="fill:#58c322;"/></g><g id="half-note7" serif:id="half-note"><path id="half7" serif:id="half" d="M349.414,162.815c5.829,-3.183 8.934,-8.944 7.023,-13.278c-2.037,-4.624 -9.04,-5.928 -15.629,-2.913c-6.591,3.015 -10.285,9.216 -8.248,13.839c2.038,4.624 9.041,5.928 15.63,2.913c0.412,-0.189 0.836,-0.348 1.224,-0.561Zm-1.905,-3.921c-0.414,0.219 -0.833,0.381 -1.272,0.582c-5.618,2.571 -11.044,2.692 -12.111,0.27c-1.068,-2.421 2.626,-6.473 8.244,-9.044c5.617,-2.571 11.043,-2.691 12.111,-0.269c0.983,2.231 -2.086,5.895 -6.972,8.461Z" style="fill:#58c322;"/></g><g id="half-note8" serif:id="half-note"><path id="half8" serif:id="half" d="M459.414,112.815c5.829,-3.183 8.934,-8.944 7.023,-13.278c-2.037,-4.624 -9.04,-5.928 -15.629,-2.913c-6.591,3.015 -10.285,9.216 -8.248,13.839c2.038,4.624 9.041,5.928 15.63,2.913c0.412,-0.189 0.836,-0.348 1.224,-0.561Zm-1.905,-3.921c-0.414,0.219 -0.833,0.381 -1.272,0.582c-5.618,2.571 -11.044,2.692 -12.111,0.27c-1.068,-2.421 2.626,-6.473 8.244,-9.044c5.617,-2.571 11.043,-2.691 12.111,-0.269c0.983,2.231 -2.086,5.895 -6.972,8.461Z" style="fill:#ffbf00;"/></g><g id="half-note9" serif:id="half-note"><path id="half9" serif:id="half" d="M459.414,172.815c5.829,-3.183 8.934,-8.944 7.023,-13.278c-2.037,-4.624 -9.04,-5.928 -15.629,-2.913c-6.591,3.015 -10.285,9.216 -8.248,13.839c2.038,4.624 9.041,5.928 15.63,2.913c0.412,-0.189 0.836,-0.348 1.224,-0.561Zm-1.905,-3.921c-0.414,0.219 -0.833,0.381 -1.272,0.582c-5.618,2.571 -11.044,2.692 -12.111,0.27c-1.068,-2.421 2.626,-6.473 8.244,-9.044c5.617,-2.571 11.043,-2.691 12.111,-0.269c0.983,2.231 -2.086,5.895 -6.972,8.461Z" style="fill:#ffbf00;"/></g><g id="int-down5" serif:id="int-down"><path id="Combined-Shape14" serif:id="Combined-Shape" d="M483.685,367.954l1.964,-0l-0,4.02l2.351,0l-3.436,5.026l-3.436,-5.026l2.557,0l0,-4.02Zm-4.051,-4.78l0,1.944l-5.814,-0l-0.36,2.97c0.63,-0.522 1.584,-0.846 2.61,-0.846c2.574,-0 4.194,1.764 4.194,4.212c0,2.538 -1.998,4.374 -4.77,4.374c-2.502,-0 -4.5,-1.584 -4.68,-3.96l2.358,-0c0.18,1.188 1.152,1.926 2.322,1.926c1.332,-0 2.376,-1.008 2.376,-2.484c0,-1.422 -1.008,-2.43 -2.376,-2.43c-0.882,-0 -1.71,0.486 -2.106,1.296l-2.232,-0l1.026,-7.002l7.452,-0Z" style="fill:#cb9800;"/></g><g id="int-down6" serif:id="int-down"><path id="Combined-Shape15" serif:id="Combined-Shape" d="M371.685,373.954l1.964,-0l-0,4.02l2.351,0l-3.436,5.026l-3.436,-5.026l2.557,0l0,-4.02Zm-5.527,-4.78l-3.114,4.266c0.396,-0.126 0.828,-0.198 1.296,-0.198c2.268,-0 4.05,1.71 4.05,4.086c0,2.628 -2.034,4.5 -4.842,4.5c-2.79,-0 -4.824,-1.872 -4.824,-4.446c0,-0.99 0.324,-1.854 0.828,-2.592l3.816,-5.616l2.79,-0Zm-2.61,5.778c-1.404,-0 -2.412,1.008 -2.412,2.43c0,1.422 1.026,2.43 2.412,2.43c1.404,-0 2.43,-1.008 2.43,-2.43c0,-1.422 -1.008,-2.43 -2.43,-2.43Z" style="fill:#3d7a1f;"/></g><g id="int-down7" serif:id="int-down"><path id="Combined-Shape16" serif:id="Combined-Shape" d="M261.685,384.954l1.964,-0l-0,4.02l2.351,0l-3.436,5.026l-3.436,-5.026l2.557,0l0,-4.02Zm-3.349,-4.78l0,1.728l-5.058,10.764l-2.376,-0l5.022,-10.53l-6.534,-0l0,-1.962l8.946,-0Z" style="fill:#c2380a;"/></g><g id="half-note10" serif:id="half-note"><path id="half10" serif:id="half" d="M239.414,402.815c5.829,-3.183 8.934,-8.944 7.023,-13.278c-2.037,-4.624 -9.04,-5.928 -15.629,-2.913c-6.591,3.015 -10.285,9.216 -8.248,13.839c2.038,4.624 9.041,5.928 15.63,2.913c0.412,-0.189 0.836,-0.348 1.224,-0.561Zm-1.905,-3.921c-0.414,0.219 -0.833,0.381 -1.272,0.582c-5.618,2.571 -11.044,2.692 -12.111,0.27c-1.068,-2.421 2.626,-6.473 8.244,-9.044c5.617,-2.571 11.043,-2.691 12.111,-0.269c0.983,2.231 -2.086,5.895 -6.972,8.461Z" style="fill:#c2380a;"/></g><g id="half-note11" serif:id="half-note"><path id="half11" serif:id="half" d="M349.414,392.815c5.829,-3.183 8.934,-8.944 7.023,-13.278c-2.037,-4.624 -9.04,-5.928 -15.629,-2.913c-6.591,3.015 -10.285,9.216 -8.248,13.839c2.038,4.624 9.041,5.928 15.63,2.913c0.412,-0.189 0.836,-0.348 1.224,-0.561Zm-1.905,-3.921c-0.414,0.219 -0.833,0.381 -1.272,0.582c-5.618,2.571 -11.044,2.692 -12.111,0.27c-1.068,-2.421 2.626,-6.473 8.244,-9.044c5.617,-2.571 11.043,-2.691 12.111,-0.269c0.983,2.231 -2.086,5.895 -6.972,8.461Z" style="fill:#3d7a1f;"/></g><g id="half-note12" serif:id="half-note"><path id="half12" serif:id="half" d="M459.414,382.815c5.829,-3.183 8.934,-8.944 7.023,-13.278c-2.037,-4.624 -9.04,-5.928 -15.629,-2.913c-6.591,3.015 -10.285,9.216 -8.248,13.839c2.038,4.624 9.041,5.928 15.63,2.913c0.412,-0.189 0.836,-0.348 1.224,-0.561Zm-1.905,-3.921c-0.414,0.219 -0.833,0.381 -1.272,0.582c-5.618,2.571 -11.044,2.692 -12.111,0.27c-1.068,-2.421 2.626,-6.473 8.244,-9.044c5.617,-2.571 11.043,-2.691 12.111,-0.269c0.983,2.231 -2.086,5.895 -6.972,8.461Z" style="fill:#cb9800;"/></g><g id="half-note13" serif:id="half-note"><path id="half13" serif:id="half" d="M239.414,281.815c5.829,-3.183 8.934,-8.944 7.023,-13.278c-2.037,-4.624 -9.04,-5.928 -15.629,-2.913c-6.591,3.015 -10.285,9.216 -8.248,13.839c2.038,4.624 9.041,5.928 15.63,2.913c0.412,-0.189 0.836,-0.348 1.224,-0.561Zm-1.905,-3.921c-0.414,0.219 -0.833,0.381 -1.272,0.582c-5.618,2.571 -11.044,2.692 -12.111,0.27c-1.068,-2.421 2.626,-6.473 8.244,-9.044c5.617,-2.571 11.043,-2.691 12.111,-0.269c0.983,2.231 -2.086,5.895 -6.972,8.461Z" style="fill:#c2380a;"/></g><g id="half-note14" serif:id="half-note"><path id="half14" serif:id="half" d="M459.414,303.815c5.829,-3.183 8.934,-8.944 7.023,-13.278c-2.037,-4.624 -9.04,-5.928 -15.629,-2.913c-6.591,3.015 -10.285,9.216 -8.248,13.839c2.038,4.624 9.041,5.928 15.63,2.913c0.412,-0.189 0.836,-0.348 1.224,-0.561Zm-1.905,-3.921c-0.414,0.219 -0.833,0.381 -1.272,0.582c-5.618,2.571 -11.044,2.692 -12.111,0.27c-1.068,-2.421 2.626,-6.473 8.244,-9.044c5.617,-2.571 11.043,-2.691 12.111,-0.269c0.983,2.231 -2.086,5.895 -6.972,8.461Z" style="fill:#cb9800;"/></g><g id="int-up5" serif:id="int-up"><path id="Combined-Shape17" serif:id="Combined-Shape" d="M257.407,262.369l-0,1.728l-5.058,10.764l-2.376,0l5.022,-10.53l-6.534,0l-0,-1.962l8.946,0Zm0.802,2.73l3.396,-5.099l3.395,5.099l-2.528,0l-0,4.08l-1.941,-0l0,-4.08l-2.322,0Z" style="fill:#c2380a;"/></g><g id="int-up6" serif:id="int-up"><path id="Combined-Shape18" serif:id="Combined-Shape" d="M366.229,267.369l-3.114,4.266c0.396,-0.126 0.828,-0.198 1.296,-0.198c2.268,0 4.05,1.71 4.05,4.086c-0,2.628 -2.034,4.5 -4.842,4.5c-2.79,0 -4.824,-1.872 -4.824,-4.446c-0,-0.99 0.324,-1.854 0.828,-2.592l3.816,-5.616l2.79,0Zm-2.61,5.778c-1.404,0 -2.412,1.008 -2.412,2.43c-0,1.422 1.026,2.43 2.412,2.43c1.404,0 2.43,-1.008 2.43,-2.43c-0,-1.422 -1.008,-2.43 -2.43,-2.43Zm5.59,-3.048l3.396,-5.099l3.395,5.099l-2.528,0l-0,4.08l-1.941,-0l0,-4.08l-2.322,0Z" style="fill:#3d7a1f;"/></g><g id="int-up7" serif:id="int-up"><path id="Combined-Shape19" serif:id="Combined-Shape" d="M476.705,277.369l-0,1.944l-5.814,0l-0.36,2.97c0.63,-0.522 1.584,-0.846 2.61,-0.846c2.574,0 4.194,1.764 4.194,4.212c-0,2.538 -1.998,4.374 -4.77,4.374c-2.502,0 -4.5,-1.584 -4.68,-3.96l2.358,0c0.18,1.188 1.152,1.926 2.322,1.926c1.332,0 2.376,-1.008 2.376,-2.484c-0,-1.422 -1.008,-2.43 -2.376,-2.43c-0.882,0 -1.71,0.486 -2.106,1.296l-2.232,0l1.026,-7.002l7.452,0Zm1.504,2.73l3.396,-5.099l3.395,5.099l-2.528,0l-0,4.08l-1.941,-0l0,-4.08l-2.322,0Z" style="fill:#cb9800;"/></g><g id="do-line1" serif:id="do-line"><rect id="Rectangle1" serif:id="Rectangle" x="213" y="283" width="45" height="2" style="fill:#c2380a;"/></g><g id="half-note15" serif:id="half-note"><path id="half15" serif:id="half" d="M349.414,291.815c5.829,-3.183 8.934,-8.944 7.023,-13.278c-2.037,-4.624 -9.04,-5.928 -15.629,-2.913c-6.591,3.015 -10.285,9.216 -8.248,13.839c2.038,4.624 9.041,5.928 15.63,2.913c0.412,-0.189 0.836,-0.348 1.224,-0.561Zm-1.905,-3.921c-0.414,0.219 -0.833,0.381 -1.272,0.582c-5.618,2.571 -11.044,2.692 -12.111,0.27c-1.068,-2.421 2.626,-6.473 8.244,-9.044c5.617,-2.571 11.043,-2.691 12.111,-0.269c0.983,2.231 -2.086,5.895 -6.972,8.461Z" style="fill:#3d7a1f;"/></g><g id="do-line2" serif:id="do-line"><rect id="Rectangle2" serif:id="Rectangle" x="323" y="283" width="45" height="2" style="fill:#3d7a1f;"/></g><rect id="Rectangle3" serif:id="Rectangle" x="552" y="283" width="45" height="2" style="fill:#666;"/><rect id="Rectangle4" serif:id="Rectangle" x="552" y="405" width="45" height="2" style="fill:#666;"/><rect id="Rectangle5" serif:id="Rectangle" x="552" y="263" width="45" height="2" style="fill:#666;"/><g id="half-note16" serif:id="half-note"><path id="half16" serif:id="half" d="M579.414,142.815c5.829,-3.183 8.934,-8.944 7.023,-13.278c-2.037,-4.624 -9.04,-5.928 -15.629,-2.913c-6.591,3.015 -10.285,9.216 -8.248,13.839c2.038,4.624 9.041,5.928 15.63,2.913c0.412,-0.189 0.836,-0.348 1.224,-0.561Zm-1.905,-3.921c-0.414,0.219 -0.833,0.381 -1.272,0.582c-5.618,2.571 -11.044,2.692 -12.111,0.27c-1.068,-2.421 2.626,-6.473 8.244,-9.044c5.617,-2.571 11.043,-2.691 12.111,-0.269c0.983,2.231 -2.086,5.895 -6.972,8.461Z" style="fill:#aaa;"/></g><g id="gravi-1"><path id="Combined-Shape20" serif:id="Combined-Shape" d="M598.179,142.099c0.391,0 0.391,0 0.586,-0.176c0.195,-0.175 0.195,-0.175 0.195,-0.527c0,-0.391 0,-0.391 -0.234,-0.532c-0.234,-0.142 -0.234,-0.142 -1.103,-0.142l-1.563,0l0,-10.566c0,-0.293 0,-0.293 -0.107,-0.464c-0.108,-0.171 -0.108,-0.171 -0.293,-0.171c-0.108,0 -0.108,0 -0.21,0.015c-0.103,0.014 -0.103,0.014 -0.21,0.044l-2.901,0.781c-0.312,0.088 -0.312,0.088 -0.478,0.264c-0.166,0.175 -0.166,0.175 -0.166,0.41c-0,0.283 -0,0.283 0.19,0.454c0.191,0.171 0.191,0.171 0.493,0.171c0.049,-0 0.049,-0 0.113,-0.01c0.063,-0.01 0.063,-0.01 0.19,-0.029l1.836,-0.44l0,9.541l-1.621,0c-0.869,0 -0.869,0 -1.104,0.142c-0.234,0.141 -0.234,0.141 -0.234,0.532c0,0.352 0,0.352 0.195,0.527c0.196,0.176 0.196,0.176 0.586,0.176l5.84,0Zm4.846,-7.002c1.318,0 1.318,0 2.226,-0.908c0.909,-0.908 0.909,-0.908 0.909,-2.227c-0,-1.318 -0,-1.318 -0.913,-2.231c-0.914,-0.913 -0.914,-0.913 -2.222,-0.913c-1.309,-0 -1.309,-0 -2.227,0.918c-0.918,0.918 -0.918,0.918 -0.918,2.226c0,1.319 0,1.319 0.909,2.227c0.908,0.908 0.908,0.908 2.236,0.908Zm-0,-1.435c-0.713,-0 -0.713,-0 -1.187,-0.493c-0.473,-0.494 -0.473,-0.494 -0.473,-1.207c-0,-0.712 -0,-0.712 0.478,-1.206c0.479,-0.493 0.479,-0.493 1.182,-0.493c0.693,0 0.693,0 1.177,0.493c0.483,0.494 0.483,0.494 0.483,1.206c0,0.713 0,0.713 -0.483,1.207c-0.484,0.493 -0.484,0.493 -1.177,0.493Z" style="fill:#aaa;"/></g><path id="Combined-Shape21" serif:id="Combined-Shape" d="M610.685,395.954l1.964,-0l-0,4.02l2.351,0l-3.436,5.026l-3.436,-5.026l2.557,0l0,-4.02Zm-8.371,-4.96c2.718,-0 4.5,1.35 4.5,3.312c0,1.278 -0.756,2.25 -2.034,2.772c1.602,0.522 2.556,1.602 2.556,3.096c0,2.124 -1.998,3.654 -5.022,3.654c-3.024,-0 -5.022,-1.53 -5.022,-3.654c0,-1.494 0.954,-2.574 2.538,-3.096c-1.26,-0.522 -2.016,-1.494 -2.016,-2.772c0,-1.962 1.782,-3.312 4.5,-3.312Zm0,6.894c-1.548,-0 -2.628,0.828 -2.628,2.07c0,1.224 1.08,2.07 2.628,2.07c1.548,-0 2.61,-0.846 2.61,-2.07c0,-1.242 -1.062,-2.07 -2.61,-2.07Zm0,-5.184c-1.404,-0 -2.358,0.756 -2.358,1.89c0,1.098 0.954,1.854 2.358,1.854c1.404,-0 2.358,-0.756 2.358,-1.854c0,-1.134 -0.954,-1.89 -2.358,-1.89Z" style="fill:#666;"/><path id="half17" serif:id="half" d="M579.414,412.815c5.829,-3.183 8.934,-8.944 7.023,-13.278c-2.037,-4.624 -9.04,-5.928 -15.629,-2.913c-6.591,3.015 -10.285,9.216 -8.248,13.839c2.038,4.624 9.041,5.928 15.63,2.913c0.412,-0.189 0.836,-0.348 1.224,-0.561Zm-1.905,-3.921c-0.414,0.219 -0.833,0.381 -1.272,0.582c-5.618,2.571 -11.044,2.692 -12.111,0.27c-1.068,-2.421 2.626,-6.473 8.244,-9.044c5.617,-2.571 11.043,-2.691 12.111,-0.269c0.983,2.231 -2.086,5.895 -6.972,8.461Z" style="fill:#666;"/><path id="half18" serif:id="half" d="M579.414,271.815c5.829,-3.183 8.934,-8.944 7.023,-13.278c-2.037,-4.624 -9.04,-5.928 -15.629,-2.913c-6.591,3.015 -10.285,9.216 -8.248,13.839c2.038,4.624 9.041,5.928 15.63,2.913c0.412,-0.189 0.836,-0.348 1.224,-0.561Zm-1.905,-3.921c-0.414,0.219 -0.833,0.381 -1.272,0.582c-5.618,2.571 -11.044,2.692 -12.111,0.27c-1.068,-2.421 2.626,-6.473 8.244,-9.044c5.617,-2.571 11.043,-2.691 12.111,-0.269c0.983,2.231 -2.086,5.895 -6.972,8.461Z" style="fill:#666;"/><path id="Combined-Shape22" serif:id="Combined-Shape" d="M605.385,259.189c2.718,0 4.5,1.35 4.5,3.312c-0,1.278 -0.756,2.25 -2.034,2.772c1.602,0.522 2.556,1.602 2.556,3.096c-0,2.124 -1.998,3.654 -5.022,3.654c-3.024,0 -5.022,-1.53 -5.022,-3.654c-0,-1.494 0.954,-2.574 2.538,-3.096c-1.26,-0.522 -2.016,-1.494 -2.016,-2.772c-0,-1.962 1.782,-3.312 4.5,-3.312Zm-0,6.894c-1.548,0 -2.628,0.828 -2.628,2.07c-0,1.224 1.08,2.07 2.628,2.07c1.548,0 2.61,-0.846 2.61,-2.07c-0,-1.242 -1.062,-2.07 -2.61,-2.07Zm5.824,-3.984l3.396,-5.099l3.395,5.099l-2.528,0l-0,4.08l-1.941,-0l0,-4.08l-2.322,0Zm-5.824,-1.2c-1.404,0 -2.358,0.756 -2.358,1.89c-0,1.098 0.954,1.854 2.358,1.854c1.404,0 2.358,-0.756 2.358,-1.854c-0,-1.134 -0.954,-1.89 -2.358,-1.89Z" style="fill:#666;"/><path id="Path-9" d="M184.431,9.684l0,395" style="fill:none;stroke:#1d1d1d;stroke-width:1px;stroke-dasharray:4,4;"/><path id="Path-91" serif:id="Path-9" d="M292.431,9.684l0,395" style="fill:none;stroke:#1d1d1d;stroke-width:1px;stroke-dasharray:4,4;"/><path id="Path-92" serif:id="Path-9" d="M404.431,9.684l0,395" style="fill:none;stroke:#1d1d1d;stroke-width:1px;stroke-dasharray:4,4;"/><path id="Path-93" serif:id="Path-9" d="M516.431,9.684l0,395" style="fill:none;stroke:#1d1d1d;stroke-width:1px;stroke-dasharray:4,4;"/><path id="澄" d="M569.756,44.828c0.112,0 0.252,-0.028 0.392,-0.084c1.596,-0.728 3.052,-1.708 4.368,-2.884c0.112,0.224 0.336,0.532 0.728,1.008c0.168,0.224 0.364,0.28 0.644,0.28c1.568,-0.224 3.864,-0.504 5.516,-0.616c0.924,-0.056 1.232,-0.196 1.232,-0.56c0,-0.364 -0.868,-1.12 -1.764,-1.372c-0.504,0.196 -0.924,0.28 -1.54,0.364c-1.428,0.224 -3.108,0.392 -4.34,0.476c1.428,-1.288 2.632,-2.8 3.696,-4.396c2.492,2.632 4.788,4.956 6.328,6.468c0.476,0.476 0.7,0.56 1.344,0.56c1.288,0 2.072,-0.14 2.8,-0.336c0.336,-0.084 0.504,-0.168 0.504,-0.392c0,-0.196 -0.112,-0.336 -0.476,-0.56c-0.504,-0.28 -1.288,-0.672 -2.408,-1.316c-0.868,-0.504 -1.568,-0.98 -2.212,-1.456c0.728,-0.252 1.568,-0.7 2.66,-1.288c0.28,-0.14 0.42,-0.364 0.42,-0.532c0,-0.168 -0.112,-0.42 -0.28,-0.588c-0.924,-0.84 -1.484,-1.204 -1.848,-1.204c-0.224,0 -0.308,0.14 -0.308,0.56c0,0.196 -0.028,0.476 -0.14,0.756c-0.252,0.56 -0.84,1.12 -1.372,1.68c-0.812,-0.616 -1.26,-0.98 -1.708,-1.344c0.868,-0.42 1.652,-0.868 2.52,-1.428c0.224,-0.14 0.336,-0.336 0.336,-0.504c-0,-0.168 -0.084,-0.392 -0.252,-0.56c-0.924,-0.84 -1.624,-1.204 -1.904,-1.204c-0.224,0 -0.308,0.14 -0.308,0.56c-0,0.196 -0.028,0.476 -0.14,0.756c-0.224,0.532 -0.644,1.204 -1.036,1.708c-0.56,-0.504 -1.12,-1.036 -1.708,-1.54c0.308,-0.308 0.364,-0.448 0.364,-0.7c-0,-0.196 -0.308,-0.532 -0.784,-0.896c-0.42,-0.336 -0.84,-0.532 -1.288,-0.672c-0.42,0.392 -0.728,0.42 -1.456,0.532c-0.896,0.14 -2.128,0.28 -3.248,0.336c-0.308,0 -0.476,0.056 -0.476,0.224c-0,0.168 0.252,0.588 0.868,1.288c0.168,0.196 0.28,0.224 0.448,0.224c0.84,-0.14 1.68,-0.28 2.66,-0.448c-0.448,0.952 -0.952,1.848 -1.54,2.688c-0.476,-0.784 -2.072,-1.512 -3.248,-1.512c-0.224,0 -0.392,0.084 -0.392,0.28c-0,0.112 0.056,0.252 0.168,0.392c0.392,0.476 0.868,0.98 1.484,1.792c0.252,0.308 0.532,0.476 0.84,0.588c-1.232,1.456 -2.66,2.8 -4.284,4.144c-0.168,0.14 -0.252,0.308 -0.252,0.42c-0,0.196 0.168,0.308 0.392,0.308Zm0.14,-5.796c0.7,0 1.092,-0.42 1.092,-1.12c-0,-0.728 -0.56,-1.596 -1.456,-2.156c-0.84,-0.56 -2.072,-1.12 -2.884,-1.12c-0.28,0 -0.42,0.112 -0.42,0.336c-0,0.252 0.308,1.092 1.624,2.688c0.812,0.98 1.316,1.372 2.044,1.372Zm-2.24,5.516c0.672,0 1.092,-0.504 1.092,-1.036c-0,-0.84 -0.784,-1.54 -1.596,-1.96c-0.924,-0.476 -2.1,-0.7 -3.136,-0.7c-0.28,0 -0.42,0.084 -0.42,0.308c-0,0.224 0.588,1.232 1.848,2.324c0.784,0.672 1.68,1.064 2.212,1.064Zm7.364,6.16c0.476,0 0.784,-0.28 0.868,-0.784c2.128,-0.196 4.676,-0.364 6.972,-0.392c0.924,0 1.26,-0.14 1.26,-0.588c-0,-0.308 -0.168,-0.56 -0.504,-0.812c0.224,-0.448 0.42,-0.868 0.7,-1.484c0.196,-0.42 0.308,-0.588 0.588,-0.812c0.252,-0.168 0.308,-0.42 0.308,-0.588c-0,-0.224 -0.308,-0.588 -0.98,-1.064c-0.756,-0.504 -1.176,-0.616 -1.596,-0.728c-0.448,0.308 -0.784,0.476 -1.484,0.532c-1.876,0.168 -3.892,0.364 -6.58,0.616c-0.588,-0.224 -1.232,-0.392 -1.512,-0.392c-0.252,0 -0.392,0.14 -0.392,0.336c-0,0.196 0.112,0.42 0.168,0.532c0.28,0.476 0.42,1.064 0.616,2.184c0.14,0.812 0.196,1.26 0.196,1.596c-0,0.168 -0,0.308 -0.028,0.42c0.168,0.84 0.84,1.428 1.4,1.428Zm0.756,-2.436l-0.196,-2.212c2.268,-0.252 4.732,-0.476 6.44,-0.56c-0.112,0.7 -0.28,1.484 -0.504,2.38c-1.904,0.112 -3.836,0.252 -5.74,0.392Zm-9.184,7.924c0.28,0 0.616,-0.392 0.84,-0.868c0.868,-1.764 1.652,-3.416 2.044,-4.48c0.14,-0.364 0.28,-0.756 0.28,-0.952c-0,-0.252 -0.168,-0.392 -0.336,-0.392c-0.224,0 -0.364,0.112 -0.532,0.308c-0.84,0.924 -1.764,1.848 -2.716,2.772c-0.224,0.196 -0.336,0.28 -0.504,0.28c-0.252,0 -0.7,-0.14 -1.288,-0.28c-0.168,0 -0.336,0.14 -0.336,0.308c-0,0.196 0.336,1.064 0.924,1.932c0.532,0.784 1.036,1.372 1.624,1.372Zm5.572,0.756c3.248,-0.392 7.504,-0.756 9.772,-0.756c1.904,0 2.968,0.028 4.844,0.112c0.672,0 1.148,-0.168 1.148,-0.7c-0,-0.504 -0.756,-1.232 -2.52,-1.736c-0.644,0.252 -1.12,0.336 -1.792,0.364l-2.268,0.112c0.7,-0.644 1.316,-1.372 1.82,-2.1c0.308,-0.252 0.56,-0.476 0.56,-0.728c-0,-0.336 -0.336,-0.672 -1.064,-1.064c-0.644,-0.364 -1.176,-0.476 -1.54,-0.476c-0.224,0 -0.364,0.084 -0.364,0.392c0.084,0.308 0.112,0.532 0.112,0.784c-0,0.28 -0.056,0.56 -0.168,0.952c-0.252,0.784 -0.532,1.456 -0.952,2.352c-0.644,0.028 -2.296,0.14 -2.716,0.168c0.252,-0.168 0.392,-0.476 0.392,-0.812c-0,-1.008 -0.952,-2.016 -2.24,-2.604c-0.28,-0.14 -0.532,-0.196 -0.7,-0.196c-0.224,0 -0.336,0.112 -0.336,0.364c-0,0.336 0.476,1.596 1.092,2.52c0.308,0.504 0.532,0.7 0.812,0.784c-1.68,0.112 -3.416,0.252 -5.32,0.392c-0.392,0.028 -0.448,0.112 -0.448,0.224c-0,0.168 0.392,0.672 1.064,1.316c0.308,0.308 0.532,0.336 0.812,0.336Z" style="fill:#aaa;fill-rule:nonzero;"/><path id="bar3" serif:id="bar" d="M636.5,106.55l0,78.95" style="fill:none;stroke:#000;stroke-width:1px;stroke-linecap:round;stroke-linejoin:round;"/><path id="bar4" serif:id="bar" d="M636.5,305.55l0,78.95" style="fill:none;stroke:#000;stroke-width:1px;stroke-linecap:round;stroke-linejoin:round;"/><path id="Path-94" serif:id="Path-9" d="M332.5,545l-0.069,82.684" style="fill:none;stroke:#1d1d1d;stroke-width:1px;stroke-dasharray:4,4;"/><path id="bar5" serif:id="bar" d="M636.5,546.55l0,78.95" style="fill:none;stroke:#000;stroke-width:1px;stroke-linecap:round;stroke-linejoin:round;"/><path id="Path-13" d="M18,459.518l618.5,-0" style="fill:none;stroke:#aaa;stroke-width:1px;"/><path d="M454.184,37.242c0.46,0.2 0.63,0.475 0.51,0.825c-0.12,0.35 -0.56,0.635 -1.32,0.855c-0.28,0.08 -0.75,0.205 -1.41,0.375c-0.66,0.17 -1.3,0.325 -1.92,0.465c0.44,0.26 0.76,0.49 0.96,0.69c0.2,0.2 0.32,0.38 0.36,0.54c0.04,0.16 0.01,0.305 -0.09,0.435c-0.1,0.13 -0.23,0.255 -0.39,0.375c-0.24,0.18 -0.485,0.49 -0.735,0.93c-0.25,0.44 -0.605,1.14 -1.065,2.1c0.8,-0.18 1.37,-0.39 1.71,-0.63c0.18,-0.12 0.34,-0.205 0.48,-0.255c0.14,-0.05 0.295,-0.07 0.465,-0.06c0.17,0.01 0.36,0.06 0.57,0.15c0.21,0.09 0.485,0.215 0.825,0.375c0.86,0.44 1.31,0.835 1.35,1.185c0.04,0.35 -0.14,0.675 -0.54,0.975c-0.12,0.1 -0.235,0.205 -0.345,0.315c-0.11,0.11 -0.22,0.27 -0.33,0.48c-0.11,0.21 -0.225,0.48 -0.345,0.81c-0.12,0.33 -0.26,0.755 -0.42,1.275c0.58,0.32 0.835,0.645 0.765,0.975c-0.07,0.33 -0.395,0.535 -0.975,0.615c-0.48,0.06 -0.99,0.12 -1.53,0.18c-0.54,0.06 -1.08,0.12 -1.62,0.18c-0.02,0.62 -0.115,1.07 -0.285,1.35c-0.17,0.28 -0.365,0.47 -0.585,0.57c-0.22,0.1 -0.46,0.04 -0.72,-0.18c-0.26,-0.22 -0.43,-0.64 -0.51,-1.26c-0.06,-0.52 -0.115,-0.995 -0.165,-1.425c-0.05,-0.43 -0.105,-0.825 -0.165,-1.185c-0.44,0.64 -0.92,1.2 -1.44,1.68c-0.52,0.48 -1.11,0.92 -1.77,1.32c-0.96,0.58 -1.51,0.8 -1.65,0.66c-0.14,-0.14 0.19,-0.67 0.99,-1.59c0.28,-0.32 0.545,-0.65 0.795,-0.99c0.25,-0.34 0.495,-0.705 0.735,-1.095c0.24,-0.39 0.485,-0.81 0.735,-1.26c0.25,-0.45 0.515,-0.955 0.795,-1.515c-0.22,-0.32 -0.39,-0.595 -0.51,-0.825c-0.12,-0.23 -0.16,-0.405 -0.12,-0.525c0.04,-0.12 0.17,-0.195 0.39,-0.225c0.22,-0.03 0.56,-0.025 1.02,0.015c0.48,-1.02 0.845,-1.93 1.095,-2.73c0.25,-0.8 0.325,-1.49 0.225,-2.07c-0.74,0.1 -1.36,0.13 -1.86,0.09c-0.5,-0.04 -0.94,-0.16 -1.32,-0.36c-0.48,-0.24 -0.69,-0.435 -0.63,-0.585c0.06,-0.15 0.47,-0.285 1.23,-0.405c0.72,-0.12 1.34,-0.23 1.86,-0.33c0.52,-0.1 0.99,-0.205 1.41,-0.315c0.42,-0.11 0.805,-0.23 1.155,-0.36c0.35,-0.13 0.705,-0.275 1.065,-0.435c0.7,-0.34 1.28,-0.515 1.74,-0.525c0.46,-0.01 0.97,0.105 1.53,0.345Zm15.84,20.4c-1.36,0.38 -2.44,0.65 -3.24,0.81c-0.8,0.16 -1.45,0.23 -1.95,0.21c-0.5,-0.02 -0.905,-0.13 -1.215,-0.33c-0.31,-0.2 -0.655,-0.47 -1.035,-0.81c-0.58,-0.54 -1.185,-1.135 -1.815,-1.785c-0.63,-0.65 -1.285,-1.345 -1.965,-2.085c-1.58,1.66 -3.84,2.65 -6.78,2.97c-1.32,0.14 -2.065,0.115 -2.235,-0.075c-0.17,-0.19 0.395,-0.525 1.695,-1.005c0.74,-0.26 1.395,-0.515 1.965,-0.765c0.57,-0.25 1.08,-0.51 1.53,-0.78c0.45,-0.27 0.845,-0.565 1.185,-0.885c0.34,-0.32 0.66,-0.68 0.96,-1.08c-0.48,-0.48 -0.865,-0.86 -1.155,-1.14c-0.29,-0.28 -0.525,-0.49 -0.705,-0.63c-0.18,-0.14 -0.315,-0.235 -0.405,-0.285c-0.09,-0.05 -0.185,-0.095 -0.285,-0.135c-0.86,-0.26 -1.325,-0.525 -1.395,-0.795c-0.07,-0.27 0.385,-0.465 1.365,-0.585c0.14,-0.02 0.27,-0.025 0.39,-0.015c0.12,0.01 0.255,0.04 0.405,0.09c0.15,0.05 0.33,0.13 0.54,0.24c0.21,0.11 0.465,0.265 0.765,0.465c0.22,0.16 0.45,0.335 0.69,0.525c0.24,0.19 0.49,0.395 0.75,0.615c0.26,-0.58 0.45,-1.28 0.57,-2.1c-0.4,0.08 -0.72,0.135 -0.96,0.165c-0.24,0.03 -0.47,0.045 -0.69,0.045c-0.16,0.36 -0.355,0.52 -0.585,0.48c-0.23,-0.04 -0.525,-0.25 -0.885,-0.63c-0.06,-0.06 -0.14,-0.225 -0.24,-0.495c-0.1,-0.27 -0.2,-0.655 -0.3,-1.155c-0.18,-0.98 -0.415,-1.9 -0.705,-2.76c-0.29,-0.86 -0.575,-1.47 -0.855,-1.83c-0.5,-0.68 -0.615,-1.115 -0.345,-1.305c0.27,-0.19 1.125,-0.085 2.565,0.315c0.3,-0.04 0.61,-0.08 0.93,-0.12c0.32,-0.04 0.63,-0.085 0.93,-0.135l1.35,-0.225c-0.02,-0.78 -0.05,-1.37 -0.09,-1.77c-0.04,-0.4 -0.13,-0.75 -0.27,-1.05c-0.56,0.04 -1.015,0.035 -1.365,-0.015c-0.35,-0.05 -0.695,-0.145 -1.035,-0.285c-0.64,-0.26 -0.94,-0.46 -0.9,-0.6c0.04,-0.14 0.54,-0.29 1.5,-0.45c0.64,-0.1 1.205,-0.195 1.695,-0.285c0.49,-0.09 0.915,-0.175 1.275,-0.255c0.36,-0.08 0.675,-0.155 0.945,-0.225c0.27,-0.07 0.515,-0.145 0.735,-0.225c0.4,-0.14 0.74,-0.25 1.02,-0.33c0.28,-0.08 0.535,-0.135 0.765,-0.165c0.23,-0.03 0.445,-0.03 0.645,0c0.2,0.03 0.42,0.085 0.66,0.165c0.3,0.1 0.515,0.24 0.645,0.42c0.13,0.18 0.16,0.365 0.09,0.555c-0.07,0.19 -0.265,0.38 -0.585,0.57c-0.32,0.19 -0.78,0.345 -1.38,0.465c-0.4,0.08 -0.755,0.15 -1.065,0.21c-0.31,0.06 -0.665,0.12 -1.065,0.18c0.46,0.22 0.72,0.415 0.78,0.585c0.06,0.17 -0.01,0.445 -0.21,0.825c-0.16,0.28 -0.25,0.66 -0.27,1.14c0.94,-0.24 1.61,-0.47 2.01,-0.69c0.44,-0.26 0.845,-0.37 1.215,-0.33c0.37,0.04 0.875,0.23 1.515,0.57c0.58,0.3 1.02,0.56 1.32,0.78c0.3,0.22 0.495,0.415 0.585,0.585c0.09,0.17 0.095,0.325 0.015,0.465c-0.08,0.14 -0.21,0.29 -0.39,0.45c-0.22,0.18 -0.445,0.48 -0.675,0.9c-0.23,0.42 -0.415,0.86 -0.555,1.32c-0.2,0.7 -0.39,1.285 -0.57,1.755c-0.18,0.47 -0.365,0.86 -0.555,1.17c-0.19,0.31 -0.38,0.565 -0.57,0.765c-0.19,0.2 -0.385,0.36 -0.585,0.48c-0.36,0.22 -0.665,0.315 -0.915,0.285c-0.25,-0.03 -0.415,-0.145 -0.495,-0.345c-0.1,-0.24 -0.25,-0.39 -0.45,-0.45c-0.2,-0.06 -0.6,-0.04 -1.2,0.06c-0.1,0.9 -0.23,1.665 -0.39,2.295c-0.16,0.63 -0.38,1.235 -0.66,1.815c0.86,0.66 1.65,1.21 2.37,1.65c0.72,0.44 1.445,0.815 2.175,1.125c0.73,0.31 1.51,0.585 2.34,0.825c0.83,0.24 1.785,0.49 2.865,0.75c0.9,0.22 1.325,0.45 1.275,0.69c-0.05,0.24 -0.395,0.45 -1.035,0.63Zm-5.85,-15.48c0.04,-0.34 0.03,-0.56 -0.03,-0.66c-0.06,-0.1 -0.17,-0.16 -0.33,-0.18c-0.28,-0.02 -0.615,-0.015 -1.005,0.015c-0.39,0.03 -0.875,0.095 -1.455,0.195c-0.02,0.2 -0.03,0.405 -0.03,0.615l0,0.675c0.36,-0.04 0.62,-0.04 0.78,0c0.4,0.06 0.69,0.15 0.87,0.27c0.18,0.12 0.285,0.24 0.315,0.36c0.03,0.12 0,0.235 -0.09,0.345c-0.09,0.11 -0.205,0.205 -0.345,0.285c-0.42,0.2 -0.94,0.38 -1.56,0.54c0,0.6 -0.03,1.21 -0.09,1.83c0.4,-0.04 0.725,-0.075 0.975,-0.105c0.25,-0.03 0.405,-0.035 0.465,-0.015c0.22,0.04 0.38,0.04 0.48,0c0.1,-0.04 0.18,-0.16 0.24,-0.36c0.06,-0.18 0.125,-0.425 0.195,-0.735c0.07,-0.31 0.145,-0.64 0.225,-0.99c0.08,-0.35 0.155,-0.71 0.225,-1.08c0.07,-0.37 0.125,-0.705 0.165,-1.005Zm-5.31,-0.18c-0.56,0.1 -1.03,0.175 -1.41,0.225c-0.38,0.05 -0.74,0.095 -1.08,0.135c0.4,1.6 0.67,3.21 0.81,4.83c0.28,-0.04 0.53,-0.08 0.75,-0.12c0.22,-0.04 0.5,-0.1 0.84,-0.18c0.02,-0.28 0.035,-0.575 0.045,-0.885c0.01,-0.31 0.015,-0.645 0.015,-1.005c-0.44,0 -0.79,-0.03 -1.05,-0.09c-0.62,-0.16 -0.915,-0.355 -0.885,-0.585c0.03,-0.23 0.425,-0.415 1.185,-0.555c0.16,-0.04 0.305,-0.065 0.435,-0.075c0.13,-0.01 0.245,-0.035 0.345,-0.075l0,-1.62Zm-7.83,4.86c0.06,-0.4 0.02,-0.645 -0.12,-0.735c-0.14,-0.09 -0.43,-0.065 -0.87,0.075c-0.22,0.08 -0.43,0.135 -0.63,0.165c-0.2,0.03 -0.4,0.055 -0.6,0.075c0.04,0.6 0.085,1.185 0.135,1.755c0.05,0.57 0.095,1.145 0.135,1.725c0.32,-0.06 0.59,-0.12 0.81,-0.18c0.22,-0.06 0.45,-0.14 0.69,-0.24c0.06,-0.3 0.11,-0.55 0.15,-0.75c0.04,-0.2 0.075,-0.395 0.105,-0.585c0.03,-0.19 0.06,-0.385 0.09,-0.585c0.03,-0.2 0.065,-0.44 0.105,-0.72Z" style="fill:#ffbf00;fill-rule:nonzero;"/><path d="M667.459,131.198c0.04,0.28 0.01,0.54 -0.09,0.78c-0.1,0.24 -0.255,0.425 -0.465,0.555c-0.21,0.13 -0.455,0.2 -0.735,0.21c-0.28,0.01 -0.58,-0.075 -0.9,-0.255c-0.46,-0.24 -0.94,-0.55 -1.44,-0.93c-0.5,-0.38 -1.01,-0.86 -1.53,-1.44c-0.4,-0.46 -0.55,-0.765 -0.45,-0.915c0.1,-0.15 0.59,-0.255 1.47,-0.315c1.42,-0.1 2.44,0.035 3.06,0.405c0.62,0.37 0.98,1.005 1.08,1.905Zm18,18.06c-1.56,0.72 -2.815,1.27 -3.765,1.65c-0.95,0.38 -1.72,0.635 -2.31,0.765c-0.59,0.13 -1.075,0.16 -1.455,0.09c-0.38,-0.07 -0.78,-0.195 -1.2,-0.375c-1.18,-0.48 -2.155,-0.875 -2.925,-1.185c-0.77,-0.31 -1.44,-0.595 -2.01,-0.855c-0.57,-0.26 -1.105,-0.52 -1.605,-0.78c-0.5,-0.26 -1.08,-0.57 -1.74,-0.93c-0.76,-0.42 -1.385,-0.735 -1.875,-0.945c-0.49,-0.21 -0.96,-0.325 -1.41,-0.345c-0.45,-0.02 -0.93,0.07 -1.44,0.27c-0.51,0.2 -1.155,0.5 -1.935,0.9c-0.24,0.12 -0.45,0.21 -0.63,0.27c-0.18,0.06 -0.355,0.075 -0.525,0.045c-0.17,-0.03 -0.35,-0.11 -0.54,-0.24c-0.19,-0.13 -0.425,-0.325 -0.705,-0.585c-0.46,-0.42 -0.79,-0.76 -0.99,-1.02c-0.2,-0.26 -0.27,-0.46 -0.21,-0.6c0.06,-0.14 0.25,-0.235 0.57,-0.285c0.32,-0.05 0.79,-0.065 1.41,-0.045c0.3,0.02 0.745,-0.015 1.335,-0.105c0.59,-0.09 1.235,-0.215 1.935,-0.375c0.18,-0.04 0.34,-0.065 0.48,-0.075c0.14,-0.01 0.29,-0.015 0.45,-0.015c0.02,-0.36 -0.005,-0.675 -0.075,-0.945c-0.07,-0.27 -0.185,-0.535 -0.345,-0.795c-0.34,-0.56 -0.55,-1.12 -0.63,-1.68c-0.08,-0.56 0.07,-1.24 0.45,-2.04c0.38,-0.8 0.52,-1.26 0.42,-1.38c-0.1,-0.12 -0.53,0.02 -1.29,0.42c-0.4,0.2 -0.725,0.355 -0.975,0.465c-0.25,0.11 -0.46,0.175 -0.63,0.195c-0.17,0.02 -0.325,0.005 -0.465,-0.045c-0.14,-0.05 -0.29,-0.135 -0.45,-0.255c-0.78,-0.52 -1.15,-0.86 -1.11,-1.02c0.04,-0.16 0.41,-0.27 1.11,-0.33c0.26,-0.02 0.555,-0.075 0.885,-0.165c0.33,-0.09 0.655,-0.195 0.975,-0.315c0.32,-0.12 0.615,-0.26 0.885,-0.42c0.27,-0.16 0.485,-0.32 0.645,-0.48c0.14,-0.16 0.28,-0.285 0.42,-0.375c0.14,-0.09 0.3,-0.135 0.48,-0.135c0.18,-0 0.395,0.045 0.645,0.135c0.25,0.09 0.565,0.225 0.945,0.405c0.54,0.26 0.945,0.485 1.215,0.675c0.27,0.19 0.425,0.37 0.465,0.54c0.04,0.17 -0.015,0.34 -0.165,0.51c-0.15,0.17 -0.385,0.375 -0.705,0.615c-0.48,0.36 -0.885,0.735 -1.215,1.125c-0.33,0.39 -0.58,0.755 -0.75,1.095c-0.17,0.34 -0.26,0.645 -0.27,0.915c-0.01,0.27 0.075,0.455 0.255,0.555c0.52,0.3 0.89,0.67 1.11,1.11c0.22,0.44 0.28,1.1 0.18,1.98c0.16,0.04 0.33,0.09 0.51,0.15c0.18,0.06 0.38,0.12 0.6,0.18c0.96,-1.28 1.695,-2.55 2.205,-3.81c0.51,-1.26 0.865,-2.64 1.065,-4.14c0.06,-0.54 0.1,-1.115 0.12,-1.725c0.02,-0.61 0.015,-1.19 -0.015,-1.74c-0.03,-0.55 -0.09,-1.035 -0.18,-1.455c-0.09,-0.42 -0.205,-0.72 -0.345,-0.9c-0.24,-0.26 -0.395,-0.49 -0.465,-0.69c-0.07,-0.2 -0.02,-0.35 0.15,-0.45c0.17,-0.1 0.475,-0.14 0.915,-0.12c0.44,0.02 1.05,0.11 1.83,0.27c0.74,-0.4 1.355,-0.755 1.845,-1.065c0.49,-0.31 0.885,-0.585 1.185,-0.825c0.3,-0.24 0.515,-0.455 0.645,-0.645c0.13,-0.19 0.195,-0.365 0.195,-0.525c0,-0.54 0.19,-0.85 0.57,-0.93c0.38,-0.08 1.13,0.18 2.25,0.78c0.6,0.32 1.04,0.605 1.32,0.855c0.28,0.25 0.445,0.46 0.495,0.63c0.05,0.17 -0.005,0.305 -0.165,0.405c-0.16,0.1 -0.38,0.17 -0.66,0.21c-0.22,0.04 -0.46,0.09 -0.72,0.15c-0.26,0.06 -0.635,0.165 -1.125,0.315c-0.49,0.15 -1.13,0.365 -1.92,0.645c-0.79,0.28 -1.825,0.65 -3.105,1.11c0.02,0.62 0.025,1.235 0.015,1.845c-0.01,0.61 -0.035,1.175 -0.075,1.695c1.24,-0.18 2.405,-0.385 3.495,-0.615c1.09,-0.23 2.055,-0.485 2.895,-0.765c0.7,-0.22 1.3,-0.325 1.8,-0.315c0.5,0.01 0.98,0.245 1.44,0.705c1.44,1.38 1.12,1.98 -0.96,1.8c-0.4,-0.04 -0.925,-0.045 -1.575,-0.015c-0.65,0.03 -1.345,0.085 -2.085,0.165c0.06,0.82 0.095,1.74 0.105,2.76c0.01,1.02 -0.005,2.01 -0.045,2.97c-0.04,0.96 -0.105,1.835 -0.195,2.625c-0.09,0.79 -0.215,1.375 -0.375,1.755c-0.38,0.96 -0.695,1.435 -0.945,1.425c-0.25,-0.01 -0.485,-0.465 -0.705,-1.365c-0.1,-0.36 -0.185,-0.93 -0.255,-1.71c-0.07,-0.78 -0.13,-1.645 -0.18,-2.595c-0.05,-0.95 -0.085,-1.915 -0.105,-2.895c-0.02,-0.98 -0.02,-1.84 0,-2.58c-0.46,0.06 -0.88,0.1 -1.26,0.12c-0.38,0.02 -0.75,0.03 -1.11,0.03c-0.16,2.14 -0.66,3.91 -1.5,5.31c-0.84,1.4 -2.07,2.59 -3.69,3.57c1.22,0.42 2.29,0.775 3.21,1.065c0.92,0.29 1.77,0.535 2.55,0.735c0.78,0.2 1.53,0.35 2.25,0.45c0.72,0.1 1.505,0.18 2.355,0.24c0.85,0.06 1.795,0.095 2.835,0.105c1.04,0.01 2.27,0.015 3.69,0.015c1.02,-0 1.555,0.095 1.605,0.285c0.05,0.19 -0.385,0.495 -1.305,0.915Z" style="fill-rule:nonzero;"/><path d="M681.783,334.799c0.72,0.22 1.07,0.49 1.05,0.81c-0.02,0.32 -0.44,0.63 -1.26,0.93c-0.62,0.22 -1.29,0.41 -2.01,0.57c-0.72,0.16 -1.41,0.29 -2.07,0.39c-0.48,0.08 -0.885,0.13 -1.215,0.15c-0.33,0.02 -0.635,0.02 -0.915,-0c-0.28,-0.02 -0.555,-0.06 -0.825,-0.12c-0.27,-0.06 -0.575,-0.15 -0.915,-0.27c-0.6,-0.22 -0.895,-0.43 -0.885,-0.63c0.01,-0.2 0.295,-0.33 0.855,-0.39c0.82,-0.1 1.52,-0.215 2.1,-0.345c0.58,-0.13 1.19,-0.325 1.83,-0.585c0.54,-0.22 1.01,-0.39 1.41,-0.51c0.4,-0.12 0.755,-0.195 1.065,-0.225c0.31,-0.03 0.605,-0.02 0.885,0.03c0.28,0.05 0.58,0.115 0.9,0.195Zm-12.03,2.76c0.08,0.86 -0.09,1.415 -0.51,1.665c-0.42,0.25 -0.92,0.145 -1.5,-0.315c-0.46,-0.36 -0.875,-0.715 -1.245,-1.065c-0.37,-0.35 -0.795,-0.815 -1.275,-1.395c-0.48,-0.58 -0.69,-0.955 -0.63,-1.125c0.06,-0.17 0.4,-0.255 1.02,-0.255c0.76,-0 1.4,0.04 1.92,0.12c0.52,0.08 0.935,0.215 1.245,0.405c0.31,0.19 0.54,0.445 0.69,0.765c0.15,0.32 0.245,0.72 0.285,1.2Zm16.65,11.79c0.18,0.22 0.28,0.46 0.3,0.72c0.02,0.26 -0.075,0.51 -0.285,0.75c-0.21,0.24 -0.545,0.47 -1.005,0.69c-0.46,0.22 -1.08,0.39 -1.86,0.51c-1.74,0.3 -3.14,0.205 -4.2,-0.285c-1.06,-0.49 -1.68,-1.475 -1.86,-2.955c-0.02,-0.12 -0.03,-0.4 -0.03,-0.84c0,-0.44 0.01,-0.915 0.03,-1.425c0.02,-0.51 0.04,-1.005 0.06,-1.485c0.02,-0.48 0.04,-0.84 0.06,-1.08c0.04,-0.26 0.035,-0.565 -0.015,-0.915c-0.05,-0.35 -0.165,-0.785 -0.345,-1.305c-0.24,0.04 -0.5,0.09 -0.78,0.15c-0.28,0.06 -0.56,0.12 -0.84,0.18c0.34,0.22 0.6,0.42 0.78,0.6c0.18,0.18 0.3,0.345 0.36,0.495c0.06,0.15 0.06,0.295 0,0.435c-0.06,0.14 -0.15,0.3 -0.27,0.48c-0.1,0.14 -0.2,0.315 -0.3,0.525c-0.1,0.21 -0.17,0.385 -0.21,0.525c-0.34,1.32 -0.955,2.545 -1.845,3.675c-0.89,1.13 -2.075,2.045 -3.555,2.745c-0.4,0.18 -0.72,0.295 -0.96,0.345c-0.24,0.05 -0.385,0.02 -0.435,-0.09c-0.05,-0.11 0.02,-0.295 0.21,-0.555c0.19,-0.26 0.515,-0.61 0.975,-1.05c0.24,-0.22 0.49,-0.495 0.75,-0.825c0.26,-0.33 0.51,-0.68 0.75,-1.05c0.24,-0.37 0.465,-0.74 0.675,-1.11c0.21,-0.37 0.375,-0.695 0.495,-0.975c0.28,-0.6 0.49,-1.225 0.63,-1.875c0.14,-0.65 0.18,-1.275 0.12,-1.875c-0.16,0.04 -0.33,0.085 -0.51,0.135c-0.18,0.05 -0.37,0.105 -0.57,0.165c-0.36,0.1 -0.685,0.15 -0.975,0.15c-0.29,-0 -0.695,-0.15 -1.215,-0.45c-0.6,-0.36 -0.85,-0.63 -0.75,-0.81c0.1,-0.18 0.41,-0.28 0.93,-0.3c0.22,-0 0.585,-0.045 1.095,-0.135c0.51,-0.09 1.09,-0.2 1.74,-0.33c0.65,-0.13 1.34,-0.275 2.07,-0.435c0.73,-0.16 1.44,-0.325 2.13,-0.495c0.69,-0.17 1.325,-0.34 1.905,-0.51c0.58,-0.17 1.05,-0.315 1.41,-0.435c0.3,-0.1 0.56,-0.175 0.78,-0.225c0.22,-0.05 0.435,-0.07 0.645,-0.06c0.21,0.01 0.43,0.055 0.66,0.135c0.23,0.08 0.505,0.2 0.825,0.36c0.8,0.4 1.15,0.78 1.05,1.14c-0.1,0.36 -0.56,0.56 -1.38,0.6c-0.44,0.04 -1.035,0.09 -1.785,0.15c-0.75,0.06 -1.585,0.15 -2.505,0.27c0.36,0.3 0.635,0.55 0.825,0.75c0.19,0.2 0.305,0.385 0.345,0.555c0.04,0.17 0.025,0.34 -0.045,0.51c-0.07,0.17 -0.175,0.365 -0.315,0.585c-0.2,0.28 -0.33,0.84 -0.39,1.68c-0.06,0.84 -0.02,1.86 0.12,3.06c0.04,0.36 0.225,0.62 0.555,0.78c0.33,0.16 0.935,0.17 1.815,0.03c0.54,-0.08 0.97,-0.305 1.29,-0.675c0.32,-0.37 0.59,-1.025 0.81,-1.965c0.24,-1.06 0.48,-1.61 0.72,-1.65c0.24,-0.04 0.41,0.42 0.51,1.38c0.04,0.42 0.08,0.78 0.12,1.08c0.04,0.3 0.09,0.56 0.15,0.78c0.06,0.22 0.135,0.415 0.225,0.585c0.09,0.17 0.195,0.325 0.315,0.465Zm1.44,6.24c-0.42,0.24 -0.83,0.46 -1.23,0.66c-0.4,0.2 -0.805,0.385 -1.215,0.555c-0.41,0.17 -0.84,0.33 -1.29,0.48c-0.45,0.15 -0.945,0.295 -1.485,0.435c-0.46,0.12 -0.86,0.215 -1.2,0.285c-0.34,0.07 -0.65,0.105 -0.93,0.105c-0.28,-0 -0.55,-0.025 -0.81,-0.075c-0.26,-0.05 -0.55,-0.135 -0.87,-0.255c-0.98,-0.36 -1.855,-0.685 -2.625,-0.975c-0.77,-0.29 -1.485,-0.565 -2.145,-0.825c-0.66,-0.26 -1.295,-0.52 -1.905,-0.78c-0.61,-0.26 -1.245,-0.54 -1.905,-0.84c-0.66,-0.3 -1.245,-0.53 -1.755,-0.69c-0.51,-0.16 -0.98,-0.24 -1.41,-0.24c-0.43,-0 -0.84,0.07 -1.23,0.21c-0.39,0.14 -0.805,0.36 -1.245,0.66c-0.28,0.2 -0.55,0.27 -0.81,0.21c-0.26,-0.06 -0.68,-0.32 -1.26,-0.78c-0.46,-0.34 -0.8,-0.615 -1.02,-0.825c-0.22,-0.21 -0.32,-0.375 -0.3,-0.495c0.02,-0.12 0.16,-0.21 0.42,-0.27c0.26,-0.06 0.63,-0.11 1.11,-0.15c0.44,-0.04 0.86,-0.11 1.26,-0.21c0.4,-0.1 0.77,-0.22 1.11,-0.36c0.32,-0.12 0.66,-0.18 1.02,-0.18c0.06,-0.54 0.04,-0.99 -0.06,-1.35c-0.1,-0.36 -0.32,-0.81 -0.66,-1.35c-0.16,-0.24 -0.275,-0.455 -0.345,-0.645c-0.07,-0.19 -0.1,-0.4 -0.09,-0.63c0.01,-0.23 0.07,-0.51 0.18,-0.84c0.11,-0.33 0.285,-0.765 0.525,-1.305c0.22,-0.5 0.3,-0.8 0.24,-0.9c-0.06,-0.1 -0.23,-0.07 -0.51,0.09c-0.5,0.3 -0.91,0.52 -1.23,0.66c-0.32,0.14 -0.59,0.225 -0.81,0.255c-0.22,0.03 -0.425,0.01 -0.615,-0.06c-0.19,-0.07 -0.415,-0.185 -0.675,-0.345c-0.8,-0.46 -1.175,-0.78 -1.125,-0.96c0.05,-0.18 0.525,-0.35 1.425,-0.51c0.7,-0.12 1.275,-0.295 1.725,-0.525c0.45,-0.23 0.875,-0.505 1.275,-0.825c0.26,-0.2 0.49,-0.355 0.69,-0.465c0.2,-0.11 0.4,-0.16 0.6,-0.15c0.2,0.01 0.425,0.07 0.675,0.18c0.25,0.11 0.555,0.285 0.915,0.525c0.38,0.24 0.67,0.445 0.87,0.615c0.2,0.17 0.325,0.325 0.375,0.465c0.05,0.14 0.025,0.27 -0.075,0.39c-0.1,0.12 -0.25,0.27 -0.45,0.45c-0.62,0.54 -1.1,1.005 -1.44,1.395c-0.34,0.39 -0.57,0.73 -0.69,1.02c-0.12,0.29 -0.14,0.545 -0.06,0.765c0.08,0.22 0.24,0.43 0.48,0.63c0.26,0.22 0.465,0.425 0.615,0.615c0.15,0.19 0.245,0.42 0.285,0.69c0.04,0.27 0.025,0.595 -0.045,0.975c-0.07,0.38 -0.195,0.87 -0.375,1.47c0.32,0.1 0.685,0.215 1.095,0.345c0.41,0.13 0.885,0.275 1.425,0.435c1.38,0.44 2.72,0.805 4.02,1.095c1.3,0.29 2.625,0.52 3.975,0.69c1.35,0.17 2.765,0.265 4.245,0.285c1.48,0.02 3.1,-0.02 4.86,-0.12c1.12,-0.06 1.715,0.01 1.785,0.21c0.07,0.2 -0.365,0.56 -1.305,1.08Z" style="fill-rule:nonzero;"/><path d="M356.681,49.142c0.4,0.34 0.655,0.65 0.765,0.93c0.11,0.28 0.035,0.505 -0.225,0.675c-0.26,0.17 -0.72,0.275 -1.38,0.315c-0.66,0.04 -1.56,-0.01 -2.7,-0.15c-0.32,-0.04 -0.74,-0.065 -1.26,-0.075c-0.52,-0.01 -1.095,-0.01 -1.725,-0c-0.63,0.01 -1.275,0.035 -1.935,0.075c-0.66,0.04 -1.29,0.08 -1.89,0.12l-0.03,0.3c0.82,0.62 1.59,1.165 2.31,1.635c0.72,0.47 1.465,0.89 2.235,1.26c0.77,0.37 1.585,0.715 2.445,1.035c0.86,0.32 1.83,0.64 2.91,0.96c1.62,0.46 2.43,0.785 2.43,0.975c-0,0.19 -0.76,0.435 -2.28,0.735c-1.12,0.22 -1.995,0.385 -2.625,0.495c-0.63,0.11 -1.145,0.145 -1.545,0.105c-0.4,-0.04 -0.745,-0.16 -1.035,-0.36c-0.29,-0.2 -0.645,-0.49 -1.065,-0.87c-0.72,-0.66 -1.375,-1.285 -1.965,-1.875c-0.59,-0.59 -1.215,-1.255 -1.875,-1.995c0.02,0.7 0.04,1.38 0.06,2.04c0.02,0.66 0.05,1.18 0.09,1.56c0.06,0.58 0.07,1.16 0.03,1.74c-0.04,0.58 -0.2,1.19 -0.48,1.83c-0.28,0.6 -0.62,0.91 -1.02,0.93c-0.4,0.02 -0.83,-0.28 -1.29,-0.9c-0.22,-0.3 -0.385,-0.555 -0.495,-0.765c-0.11,-0.21 -0.18,-0.435 -0.21,-0.675c-0.03,-0.24 -0.015,-0.51 0.045,-0.81c0.06,-0.3 0.16,-0.69 0.3,-1.17c0.16,-0.58 0.295,-1.215 0.405,-1.905c0.11,-0.69 0.175,-1.515 0.195,-2.475c-0.64,0.96 -1.29,1.79 -1.95,2.49c-0.66,0.7 -1.35,1.3 -2.07,1.8c-0.72,0.5 -1.485,0.92 -2.295,1.26c-0.81,0.34 -1.675,0.64 -2.595,0.9c-1.06,0.28 -1.62,0.34 -1.68,0.18c-0.06,-0.16 0.36,-0.52 1.26,-1.08c1.56,-0.96 2.95,-1.975 4.17,-3.045c1.22,-1.07 2.29,-2.315 3.21,-3.735c-1.26,0.2 -2.345,0.395 -3.255,0.585c-0.91,0.19 -1.595,0.345 -2.055,0.465c-0.72,0.2 -1.3,0.265 -1.74,0.195c-0.44,-0.07 -0.95,-0.315 -1.53,-0.735c-0.76,-0.56 -1.11,-0.935 -1.05,-1.125c0.06,-0.19 0.57,-0.285 1.53,-0.285c0.5,-0 1.115,-0.025 1.845,-0.075c0.73,-0.05 1.53,-0.11 2.4,-0.18c0.87,-0.07 1.79,-0.16 2.76,-0.27c0.97,-0.11 1.945,-0.225 2.925,-0.345c-0.06,-0.26 -0.13,-0.44 -0.21,-0.54c-0.16,-0.28 -0.28,-0.505 -0.36,-0.675c-0.08,-0.17 -0.08,-0.29 -0,-0.36c0.08,-0.07 0.25,-0.09 0.51,-0.06c0.26,0.03 0.65,0.115 1.17,0.255c-0.16,-0.3 -0.36,-0.565 -0.6,-0.795c-0.24,-0.23 -0.51,-0.455 -0.81,-0.675c-0.44,-0.34 -0.64,-0.57 -0.6,-0.69c0.04,-0.12 0.37,-0.12 0.99,-0c0.62,0.12 1.03,0.125 1.23,0.015c0.2,-0.11 0.32,-0.345 0.36,-0.705c0.04,-0.36 0.065,-0.72 0.075,-1.08c0.01,-0.36 -0.035,-0.74 -0.135,-1.14c-0.7,0.84 -1.385,1.565 -2.055,2.175c-0.67,0.61 -1.345,1.135 -2.025,1.575c-0.68,0.44 -1.385,0.8 -2.115,1.08c-0.73,0.28 -1.505,0.51 -2.325,0.69c-0.8,0.18 -1.275,0.205 -1.425,0.075c-0.15,-0.13 0.155,-0.405 0.915,-0.825c1.32,-0.74 2.495,-1.505 3.525,-2.295c1.03,-0.79 1.995,-1.735 2.895,-2.835c-0.88,0.12 -1.71,0.25 -2.49,0.39c-0.78,0.14 -1.42,0.26 -1.92,0.36c-0.32,0.06 -0.575,0.11 -0.765,0.15c-0.19,0.04 -0.35,0.06 -0.48,0.06c-0.13,-0 -0.24,-0.01 -0.33,-0.03c-0.09,-0.02 -0.195,-0.06 -0.315,-0.12c-0.12,-0.06 -0.275,-0.15 -0.465,-0.27c-0.19,-0.12 -0.355,-0.23 -0.495,-0.33c-0.7,-0.52 -1,-0.87 -0.9,-1.05c0.1,-0.18 0.62,-0.25 1.56,-0.21c0.18,-0 0.425,-0.005 0.735,-0.015c0.31,-0.01 0.78,-0.035 1.41,-0.075c0.63,-0.04 1.47,-0.11 2.52,-0.21c1.05,-0.1 2.405,-0.23 4.065,-0.39c-0.32,-0.22 -0.63,-0.465 -0.93,-0.735c-0.3,-0.27 -0.62,-0.605 -0.96,-1.005c-0.4,-0.42 -0.53,-0.695 -0.39,-0.825c0.14,-0.13 0.56,-0.175 1.26,-0.135c0.6,0.02 1.1,0.08 1.5,0.18c0.34,-0.26 0.63,-0.485 0.87,-0.675c0.24,-0.19 0.45,-0.365 0.63,-0.525c0.18,-0.16 0.345,-0.315 0.495,-0.465c0.15,-0.15 0.305,-0.315 0.465,-0.495c-0.82,0.1 -1.785,0.31 -2.895,0.63c-1.11,0.32 -2.325,0.69 -3.645,1.11c-0.58,0.18 -0.99,0.275 -1.23,0.285c-0.24,0.01 -0.5,-0.095 -0.78,-0.315c-0.16,-0.12 -0.32,-0.245 -0.48,-0.375c-0.16,-0.13 -0.32,-0.275 -0.48,-0.435c-0.56,-0.5 -0.795,-0.86 -0.705,-1.08c0.09,-0.22 0.635,-0.29 1.635,-0.21c0.26,0.02 0.615,0.02 1.065,-0c0.45,-0.02 0.95,-0.06 1.5,-0.12c0.55,-0.06 1.125,-0.13 1.725,-0.21c0.6,-0.08 1.165,-0.165 1.695,-0.255c0.53,-0.09 1,-0.19 1.41,-0.3c0.41,-0.11 0.715,-0.215 0.915,-0.315c0.34,-0.18 0.64,-0.315 0.9,-0.405c0.26,-0.09 0.51,-0.125 0.75,-0.105c0.24,0.02 0.495,0.09 0.765,0.21c0.27,0.12 0.575,0.31 0.915,0.57c0.62,0.46 1.08,0.845 1.38,1.155c0.3,0.31 0.465,0.57 0.495,0.78c0.03,0.21 -0.06,0.375 -0.27,0.495c-0.21,0.12 -0.505,0.2 -0.885,0.24c-0.38,0.04 -0.725,0.085 -1.035,0.135c-0.31,0.05 -0.65,0.13 -1.02,0.24c-0.37,0.11 -0.79,0.255 -1.26,0.435c-0.47,0.18 -1.055,0.42 -1.755,0.72c0.4,0.64 0.47,1.17 0.21,1.59c0.5,-0.06 0.935,-0.125 1.305,-0.195c0.37,-0.07 0.695,-0.145 0.975,-0.225c0.28,-0.08 0.525,-0.165 0.735,-0.255c0.21,-0.09 0.425,-0.185 0.645,-0.285c0.26,-0.12 0.5,-0.215 0.72,-0.285c0.22,-0.07 0.445,-0.095 0.675,-0.075c0.23,0.02 0.48,0.09 0.75,0.21c0.27,0.12 0.585,0.3 0.945,0.54c0.68,0.46 1.175,0.865 1.485,1.215c0.31,0.35 0.475,0.64 0.495,0.87c0.02,0.23 -0.095,0.415 -0.345,0.555c-0.25,0.14 -0.605,0.23 -1.065,0.27c-0.5,0.04 -1.025,0.17 -1.575,0.39c-0.55,0.22 -1.245,0.53 -2.085,0.93c-0.58,0.28 -0.98,0.38 -1.2,0.3c-0.22,-0.08 -0.11,-0.44 0.33,-1.08c0.28,-0.42 0.495,-0.755 0.645,-1.005c0.15,-0.25 0.23,-0.435 0.24,-0.555c0.01,-0.12 -0.04,-0.195 -0.15,-0.225c-0.11,-0.03 -0.285,-0.035 -0.525,-0.015c-0.34,0.02 -0.71,0.05 -1.11,0.09c-0.4,0.04 -0.84,0.09 -1.32,0.15c0.22,0.32 0.385,0.695 0.495,1.125c0.11,0.43 0.165,0.89 0.165,1.38c-0,0.49 -0.065,0.995 -0.195,1.515c-0.13,0.52 -0.315,1.03 -0.555,1.53c-0.22,0.46 -0.51,0.79 -0.87,0.99c0.24,0.1 0.36,0.27 0.36,0.51c1.04,-0.14 1.99,-0.28 2.85,-0.42c0.86,-0.14 1.62,-0.28 2.28,-0.42c0.8,-0.16 1.45,-0.275 1.95,-0.345c0.5,-0.07 0.91,-0.08 1.23,-0.03c0.32,0.05 0.6,0.15 0.84,0.3c0.24,0.15 0.51,0.355 0.81,0.615Z" style="fill:#58c322;fill-rule:nonzero;"/><path d="M236.095,40.165c0.12,0.84 -0.02,1.44 -0.42,1.8c-0.4,0.36 -0.97,0.32 -1.71,-0.12c-0.34,-0.2 -0.735,-0.54 -1.185,-1.02c-0.45,-0.48 -0.865,-0.96 -1.245,-1.44c-0.44,-0.58 -0.6,-0.96 -0.48,-1.14c0.12,-0.18 0.64,-0.24 1.56,-0.18c0.66,0.04 1.2,0.105 1.62,0.195c0.42,0.09 0.76,0.22 1.02,0.39c0.26,0.17 0.45,0.38 0.57,0.63c0.12,0.25 0.21,0.545 0.27,0.885Zm-2.94,5.91c0.02,0.78 -0.19,1.295 -0.63,1.545c-0.44,0.25 -0.98,0.165 -1.62,-0.255c-0.28,-0.18 -0.61,-0.5 -0.99,-0.96c-0.38,-0.46 -0.75,-1.04 -1.11,-1.74c-0.3,-0.58 -0.38,-0.95 -0.24,-1.11c0.14,-0.16 0.59,-0.17 1.35,-0.03c0.66,0.12 1.2,0.26 1.62,0.42c0.42,0.16 0.75,0.345 0.99,0.555c0.24,0.21 0.405,0.445 0.495,0.705c0.09,0.26 0.135,0.55 0.135,0.87Zm19.05,10.68c-0.08,0.64 -0.22,1.12 -0.42,1.44c-0.2,0.32 -0.435,0.5 -0.705,0.54c-0.27,0.04 -0.565,-0.065 -0.885,-0.315c-0.32,-0.25 -0.63,-0.635 -0.93,-1.155c-0.26,-0.44 -0.515,-0.89 -0.765,-1.35c-0.25,-0.46 -0.495,-0.92 -0.735,-1.38c-1.6,0.54 -2.93,0.99 -3.99,1.35c-1.06,0.36 -1.94,0.68 -2.64,0.96c-0.7,0.28 -1.27,0.535 -1.71,0.765c-0.44,0.23 -0.84,0.475 -1.2,0.735c-0.26,0.18 -0.485,0.315 -0.675,0.405c-0.19,0.09 -0.39,0.11 -0.6,0.06c-0.21,-0.05 -0.445,-0.165 -0.705,-0.345c-0.26,-0.18 -0.58,-0.45 -0.96,-0.81c-0.54,-0.5 -0.94,-0.895 -1.2,-1.185c-0.26,-0.29 -0.355,-0.505 -0.285,-0.645c0.07,-0.14 0.305,-0.225 0.705,-0.255c0.4,-0.03 0.98,-0.035 1.74,-0.015c0.48,0.02 1.165,-0.055 2.055,-0.225c0.89,-0.17 1.945,-0.405 3.165,-0.705l0.12,-4.47c-0.52,0.06 -1.06,0.12 -1.62,0.18c-0.1,0.38 -0.255,0.68 -0.465,0.9c-0.21,0.22 -0.415,0.33 -0.615,0.33c-0.24,-0 -0.51,-0.165 -0.81,-0.495c-0.3,-0.33 -0.48,-0.835 -0.54,-1.515c-0.06,-0.58 -0.145,-1.165 -0.255,-1.755c-0.11,-0.59 -0.225,-1.135 -0.345,-1.635c-0.12,-0.5 -0.25,-0.93 -0.39,-1.29c-0.14,-0.36 -0.27,-0.61 -0.39,-0.75c-0.7,-0.78 -0.955,-1.295 -0.765,-1.545c0.19,-0.25 0.775,-0.265 1.755,-0.045c0.62,0.12 1.08,0.24 1.38,0.36c0.56,-0.04 1.12,-0.09 1.68,-0.15c0.56,-0.06 1.1,-0.13 1.62,-0.21c0.04,-1.72 0,-3.07 -0.12,-4.05c-0.12,-0.98 -0.3,-1.64 -0.54,-1.98c-0.42,-0.54 -0.705,-0.99 -0.855,-1.35c-0.15,-0.36 -0.155,-0.62 -0.015,-0.78c0.14,-0.16 0.45,-0.21 0.93,-0.15c0.48,0.06 1.14,0.24 1.98,0.54c0.64,0.24 1.135,0.46 1.485,0.66c0.35,0.2 0.59,0.405 0.72,0.615c0.13,0.21 0.17,0.425 0.12,0.645c-0.05,0.22 -0.145,0.46 -0.285,0.72c-0.1,0.16 -0.18,0.395 -0.24,0.705c-0.06,0.31 -0.12,0.675 -0.18,1.095c-0.06,0.42 -0.11,0.87 -0.15,1.35c-0.04,0.48 -0.07,0.96 -0.09,1.44c0.52,-0.12 0.985,-0.24 1.395,-0.36c0.41,-0.12 0.755,-0.26 1.035,-0.42c0.28,-0.14 0.525,-0.245 0.735,-0.315c0.21,-0.07 0.43,-0.095 0.66,-0.075c0.23,0.02 0.49,0.095 0.78,0.225c0.29,0.13 0.645,0.325 1.065,0.585c0.64,0.38 1.115,0.71 1.425,0.99c0.31,0.28 0.49,0.54 0.54,0.78c0.05,0.24 -0.03,0.46 -0.24,0.66c-0.21,0.2 -0.515,0.42 -0.915,0.66c-0.38,0.24 -0.715,0.54 -1.005,0.9c-0.29,0.36 -0.635,0.89 -1.035,1.59c1.54,1.2 1.5,1.88 -0.12,2.04c-0.2,0.02 -0.475,0.05 -0.825,0.09c-0.35,0.04 -0.74,0.085 -1.17,0.135c-0.43,0.05 -0.87,0.1 -1.32,0.15c-0.45,0.05 -0.885,0.105 -1.305,0.165l-0.15,4.11l2.94,-0.78c-0.06,-0.14 -0.12,-0.27 -0.18,-0.39c-0.06,-0.12 -0.11,-0.24 -0.15,-0.36c-0.36,-0.86 -0.44,-1.33 -0.24,-1.41c0.2,-0.08 0.84,0.2 1.92,0.84c0.88,0.52 1.585,0.975 2.115,1.365c0.53,0.39 0.93,0.765 1.2,1.125c0.27,0.36 0.43,0.735 0.48,1.125c0.05,0.39 0.045,0.835 -0.015,1.335Zm-17.1,-8.19c-0.22,0.48 -0.465,1.11 -0.735,1.89c-0.27,0.78 -0.535,1.58 -0.795,2.4c-0.26,0.82 -0.49,1.6 -0.69,2.34c-0.2,0.74 -0.33,1.32 -0.39,1.74c-0.08,0.66 -0.195,1.17 -0.345,1.53c-0.15,0.36 -0.355,0.54 -0.615,0.54c-0.26,-0 -0.575,-0.195 -0.945,-0.585c-0.37,-0.39 -0.825,-1.005 -1.365,-1.845c-0.36,-0.58 -0.62,-1.06 -0.78,-1.44c-0.16,-0.38 -0.22,-0.685 -0.18,-0.915c0.04,-0.23 0.16,-0.39 0.36,-0.48c0.2,-0.09 0.48,-0.135 0.84,-0.135c0.22,-0 0.45,-0.105 0.69,-0.315c0.24,-0.21 0.55,-0.575 0.93,-1.095c0.34,-0.48 0.625,-0.88 0.855,-1.2c0.23,-0.32 0.435,-0.62 0.615,-0.9c0.18,-0.28 0.355,-0.56 0.525,-0.84c0.17,-0.28 0.365,-0.62 0.585,-1.02c0.52,-0.9 0.95,-1.54 1.29,-1.92c0.34,-0.38 0.58,-0.535 0.72,-0.465c0.14,0.07 0.165,0.34 0.075,0.81c-0.09,0.47 -0.305,1.105 -0.645,1.905Zm12.21,-4.86c0.02,-0.16 0,-0.27 -0.06,-0.33c-0.06,-0.06 -0.22,-0.08 -0.48,-0.06c-0.42,0.02 -0.785,0.04 -1.095,0.06c-0.31,0.02 -0.695,0.06 -1.155,0.12l-0.18,4.59c0.3,-0.06 0.56,-0.115 0.78,-0.165c0.22,-0.05 0.41,-0.095 0.57,-0.135c0.32,-0.1 0.55,-0.2 0.69,-0.3c0.14,-0.1 0.24,-0.23 0.3,-0.39c0.06,-0.18 0.115,-0.36 0.165,-0.54c0.05,-0.18 0.1,-0.39 0.15,-0.63c0.05,-0.24 0.1,-0.535 0.15,-0.885c0.05,-0.35 0.105,-0.795 0.165,-1.335Zm-5.52,0.24c-0.4,0.06 -0.8,0.12 -1.2,0.18c-0.4,0.06 -0.79,0.11 -1.17,0.15c0.06,0.34 0.115,0.71 0.165,1.11c0.05,0.4 0.1,0.8 0.15,1.2c0.05,0.4 0.095,0.785 0.135,1.155c0.04,0.37 0.08,0.695 0.12,0.975c0.28,-0.04 0.56,-0.075 0.84,-0.105c0.28,-0.03 0.55,-0.065 0.81,-0.105l0.15,-4.56Z" style="fill:#f50;fill-rule:nonzero;"/><g><path d="M41.179,482.773c-0.336,0.08 -0.66,0.152 -0.972,0.216c-0.312,0.064 -0.652,0.128 -1.02,0.192c-0.368,0.064 -0.792,0.136 -1.272,0.216c-0.48,0.08 -1.056,0.176 -1.728,0.288c-0.752,0.112 -1.388,0.2 -1.908,0.264c-0.52,0.064 -0.968,0.096 -1.344,0.096c-0.376,-0 -0.704,-0.032 -0.984,-0.096c-0.28,-0.064 -0.548,-0.16 -0.804,-0.288c-0.688,-0.336 -1.016,-0.576 -0.984,-0.72c0.032,-0.144 0.456,-0.248 1.272,-0.312c0.384,-0.032 0.764,-0.072 1.14,-0.12c0.376,-0.048 0.776,-0.108 1.2,-0.18c0.424,-0.072 0.872,-0.16 1.344,-0.264c0.472,-0.104 0.988,-0.236 1.548,-0.396c0.752,-0.208 1.348,-0.368 1.788,-0.48c0.44,-0.112 0.804,-0.176 1.092,-0.192c0.288,-0.016 0.54,0.008 0.756,0.072c0.216,0.064 0.476,0.168 0.78,0.312c0.544,0.256 0.82,0.52 0.828,0.792c0.008,0.272 -0.236,0.472 -0.732,0.6Zm-0.624,4.512c0.512,0.4 0.716,0.744 0.612,1.032c-0.104,0.288 -0.54,0.44 -1.308,0.456c-0.56,0.016 -1.1,0.036 -1.62,0.06c-0.52,0.024 -1.036,0.076 -1.548,0.156c-1.04,0.176 -1.856,0.308 -2.448,0.396c-0.592,0.088 -1.052,0.14 -1.38,0.156c-0.328,0.016 -0.572,-0.008 -0.732,-0.072c-0.16,-0.064 -0.32,-0.16 -0.48,-0.288c-0.592,-0.464 -0.856,-0.756 -0.792,-0.876c0.064,-0.12 0.408,-0.188 1.032,-0.204c0.304,-0 0.7,-0.032 1.188,-0.096c0.488,-0.064 0.988,-0.144 1.5,-0.24c0.512,-0.096 1.008,-0.2 1.488,-0.312c0.48,-0.112 0.864,-0.216 1.152,-0.312c0.8,-0.272 1.448,-0.4 1.944,-0.384c0.496,0.016 0.96,0.192 1.392,0.528Zm5.472,6.096c0.72,0.832 0.98,1.368 0.78,1.608c-0.2,0.24 -0.844,0.272 -1.932,0.096c-0.624,-0.096 -1.208,-0.176 -1.752,-0.24c-0.544,-0.064 -1.144,-0.1 -1.8,-0.108c-0.656,-0.008 -1.416,0.004 -2.28,0.036c-0.864,0.032 -1.92,0.088 -3.168,0.168c-0.704,0.048 -1.408,0.108 -2.112,0.18c-0.704,0.072 -1.368,0.152 -1.992,0.24c-0.624,0.088 -1.188,0.18 -1.692,0.276c-0.504,0.096 -0.9,0.184 -1.188,0.264c-0.336,0.096 -0.616,0.164 -0.84,0.204c-0.224,0.04 -0.436,0.04 -0.636,-0c-0.2,-0.04 -0.416,-0.128 -0.648,-0.264c-0.232,-0.136 -0.524,-0.332 -0.876,-0.588c-0.688,-0.496 -1,-0.82 -0.936,-0.972c0.064,-0.152 0.576,-0.204 1.536,-0.156c0.224,0.016 0.552,0.016 0.984,-0c0.432,-0.016 0.816,-0.04 1.152,-0.072c1.568,-0.16 3.052,-0.312 4.452,-0.456c1.4,-0.144 2.672,-0.28 3.816,-0.408c1.144,-0.128 2.144,-0.244 3,-0.348c0.856,-0.104 1.524,-0.196 2.004,-0.276c0.656,-0.096 1.2,-0.152 1.632,-0.168c0.432,-0.016 0.8,0.008 1.104,0.072c0.304,0.064 0.56,0.172 0.768,0.324c0.208,0.152 0.416,0.348 0.624,0.588Z" style="fill:#5c3df5;fill-rule:nonzero;"/><path d="M70.627,488.701c-1.088,0.24 -1.948,0.416 -2.58,0.528c-0.632,0.112 -1.14,0.152 -1.524,0.12c-0.384,-0.032 -0.696,-0.132 -0.936,-0.3c-0.24,-0.168 -0.504,-0.412 -0.792,-0.732c-0.88,-0.96 -1.764,-1.96 -2.652,-3c-0.888,-1.04 -1.74,-2.064 -2.556,-3.072c-1.232,2.176 -2.584,3.96 -4.056,5.352c-1.472,1.392 -3.184,2.448 -5.136,3.168c-0.96,0.352 -1.46,0.464 -1.5,0.336c-0.04,-0.128 0.372,-0.528 1.236,-1.2c0.896,-0.688 1.652,-1.308 2.268,-1.86c0.616,-0.552 1.168,-1.12 1.656,-1.704c0.488,-0.584 0.964,-1.22 1.428,-1.908c0.464,-0.688 0.984,-1.528 1.56,-2.52c0.368,-0.608 0.612,-1.152 0.732,-1.632c0.12,-0.48 0.156,-0.8 0.108,-0.96c-0.112,-0.352 -0.172,-0.64 -0.18,-0.864c-0.008,-0.224 0.06,-0.368 0.204,-0.432c0.144,-0.064 0.38,-0.044 0.708,0.06c0.328,0.104 0.764,0.308 1.308,0.612c0.416,0.24 0.728,0.452 0.936,0.636c0.208,0.184 0.336,0.348 0.384,0.492c0.048,0.144 0.036,0.276 -0.036,0.396c-0.072,0.12 -0.188,0.236 -0.348,0.348c-0.176,0.112 -0.368,0.32 -0.576,0.624c1.072,0.992 2.028,1.828 2.868,2.508c0.84,0.68 1.644,1.256 2.412,1.728c0.768,0.472 1.536,0.868 2.304,1.188c0.768,0.32 1.616,0.616 2.544,0.888c0.496,0.144 0.86,0.272 1.092,0.384c0.232,0.112 0.348,0.216 0.348,0.312c0,0.096 -0.104,0.184 -0.312,0.264c-0.208,0.08 -0.512,0.16 -0.912,0.24Zm-3,7.08c0.608,0.624 0.852,1.064 0.732,1.32c-0.12,0.256 -0.692,0.328 -1.716,0.216c-0.384,-0.048 -0.844,-0.092 -1.38,-0.132c-0.536,-0.04 -1.12,-0.076 -1.752,-0.108c-0.632,-0.032 -1.296,-0.048 -1.992,-0.048c-0.696,-0 -1.404,0.016 -2.124,0.048c-0.384,0.016 -0.804,0.044 -1.26,0.084c-0.456,0.04 -0.904,0.084 -1.344,0.132c-0.44,0.048 -0.852,0.104 -1.236,0.168c-0.384,0.064 -0.696,0.12 -0.936,0.168c-0.464,0.096 -0.836,0.168 -1.116,0.216c-0.28,0.048 -0.516,0.056 -0.708,0.024c-0.192,-0.032 -0.376,-0.104 -0.552,-0.216c-0.176,-0.112 -0.384,-0.28 -0.624,-0.504c-0.416,-0.384 -0.58,-0.656 -0.492,-0.816c0.088,-0.16 0.46,-0.208 1.116,-0.144c0.256,0.032 0.6,0.044 1.032,0.036c0.432,-0.008 0.912,-0.028 1.44,-0.06c0.528,-0.032 1.092,-0.072 1.692,-0.12c0.6,-0.048 1.204,-0.104 1.812,-0.168l0.072,-2.688c-0.48,0.048 -0.868,0.072 -1.164,0.072c-0.296,-0 -0.54,-0.012 -0.732,-0.036c-0.192,-0.024 -0.352,-0.056 -0.48,-0.096c-0.128,-0.04 -0.256,-0.092 -0.384,-0.156c-0.608,-0.272 -0.884,-0.464 -0.828,-0.576c0.056,-0.112 0.468,-0.2 1.236,-0.264c0.272,-0.032 0.612,-0.068 1.02,-0.108c0.408,-0.04 0.86,-0.1 1.356,-0.18c0.016,-0.672 0.004,-1.188 -0.036,-1.548c-0.04,-0.36 -0.124,-0.692 -0.252,-0.996c-0.448,0.048 -0.832,0.048 -1.152,-0c-0.32,-0.048 -0.648,-0.144 -0.984,-0.288c-0.688,-0.304 -0.984,-0.524 -0.888,-0.66c0.096,-0.136 0.552,-0.204 1.368,-0.204c0.112,-0 0.304,-0.02 0.576,-0.06c0.272,-0.04 0.592,-0.096 0.96,-0.168c0.368,-0.072 0.764,-0.164 1.188,-0.276c0.424,-0.112 0.844,-0.24 1.26,-0.384c0.384,-0.128 0.704,-0.228 0.96,-0.3c0.256,-0.072 0.472,-0.116 0.648,-0.132c0.176,-0.016 0.344,-0 0.504,0.048c0.16,0.048 0.336,0.128 0.528,0.24c0.512,0.272 0.732,0.544 0.66,0.816c-0.072,0.272 -0.364,0.464 -0.876,0.576c-0.192,0.048 -0.376,0.088 -0.552,0.12c-0.176,0.032 -0.364,0.064 -0.564,0.096c-0.2,0.032 -0.436,0.072 -0.708,0.12c-0.272,0.048 -0.608,0.104 -1.008,0.168c0.544,0.128 0.872,0.28 0.984,0.456c0.112,0.176 0.064,0.504 -0.144,0.984c-0.032,0.08 -0.068,0.196 -0.108,0.348c-0.04,0.152 -0.076,0.332 -0.108,0.54c0.336,-0.128 0.628,-0.228 0.876,-0.3c0.248,-0.072 0.476,-0.112 0.684,-0.12c0.208,-0.008 0.412,0.016 0.612,0.072c0.2,0.056 0.428,0.148 0.684,0.276c0.336,0.176 0.472,0.392 0.408,0.648c-0.064,0.256 -0.288,0.448 -0.672,0.576c-0.224,0.08 -0.568,0.156 -1.032,0.228c-0.464,0.072 -1.016,0.148 -1.656,0.228l-0.024,2.688c0.72,-0.096 1.364,-0.184 1.932,-0.264c0.568,-0.08 1.012,-0.152 1.332,-0.216c0.64,-0.112 1.16,-0.188 1.56,-0.228c0.4,-0.04 0.736,-0.036 1.008,0.012c0.272,0.048 0.508,0.14 0.708,0.276c0.2,0.136 0.412,0.324 0.636,0.564Z" style="fill:#5c3df5;fill-rule:nonzero;"/><path d="M85.603,479.821c0.08,0.608 -0.028,1.016 -0.324,1.224c-0.296,0.208 -0.668,0.208 -1.116,-0c-0.416,-0.192 -0.828,-0.484 -1.236,-0.876c-0.408,-0.392 -0.772,-0.812 -1.092,-1.26c-0.208,-0.288 -0.284,-0.496 -0.228,-0.624c0.056,-0.128 0.268,-0.176 0.636,-0.144c0.608,0.032 1.12,0.084 1.536,0.156c0.416,0.072 0.756,0.176 1.02,0.312c0.264,0.136 0.456,0.3 0.576,0.492c0.12,0.192 0.196,0.432 0.228,0.72Zm8.472,6.456c0.288,0.32 0.496,0.596 0.624,0.828c0.128,0.232 0.14,0.42 0.036,0.564c-0.104,0.144 -0.336,0.228 -0.696,0.252c-0.36,0.024 -0.876,-0.012 -1.548,-0.108c-0.448,-0.064 -0.984,-0.108 -1.608,-0.132c-0.624,-0.024 -1.296,-0.024 -2.016,-0c-0.72,0.024 -1.48,0.064 -2.28,0.12c-0.8,0.056 -1.6,0.132 -2.4,0.228c-0.944,0.096 -1.764,0.188 -2.46,0.276c-0.696,0.088 -1.3,0.172 -1.812,0.252c-0.512,0.08 -0.96,0.16 -1.344,0.24c-0.384,0.08 -0.728,0.168 -1.032,0.264c-0.4,0.112 -0.744,0.196 -1.032,0.252c-0.288,0.056 -0.556,0.08 -0.804,0.072c-0.248,-0.008 -0.484,-0.06 -0.708,-0.156c-0.224,-0.096 -0.472,-0.232 -0.744,-0.408c-0.448,-0.288 -0.668,-0.5 -0.66,-0.636c0.008,-0.136 0.356,-0.228 1.044,-0.276c0.096,-0 0.42,-0.032 0.972,-0.096c0.552,-0.064 1.264,-0.148 2.136,-0.252c0.872,-0.104 1.884,-0.232 3.036,-0.384c1.152,-0.152 2.384,-0.316 3.696,-0.492c0.432,-0.848 0.716,-1.528 0.852,-2.04c0.136,-0.512 0.188,-0.944 0.156,-1.296c-0.048,-0.336 -0.016,-0.552 0.096,-0.648c-0.576,0.096 -1.172,0.196 -1.788,0.3c-0.616,0.104 -1.236,0.212 -1.86,0.324c-0.496,0.096 -0.888,0.164 -1.176,0.204c-0.288,0.04 -0.528,0.056 -0.72,0.048c-0.192,-0.008 -0.364,-0.044 -0.516,-0.108c-0.152,-0.064 -0.34,-0.16 -0.564,-0.288c-0.464,-0.256 -0.688,-0.448 -0.672,-0.576c0.016,-0.128 0.4,-0.224 1.152,-0.288c0.368,-0.032 0.864,-0.092 1.488,-0.18c0.624,-0.088 1.288,-0.196 1.992,-0.324c0.704,-0.128 1.408,-0.28 2.112,-0.456c0.704,-0.176 1.32,-0.368 1.848,-0.576c0.304,-0.112 0.572,-0.2 0.804,-0.264c0.232,-0.064 0.444,-0.096 0.636,-0.096c0.192,-0 0.38,0.024 0.564,0.072c0.184,0.048 0.388,0.12 0.612,0.216c0.304,0.128 0.528,0.268 0.672,0.42c0.144,0.152 0.188,0.3 0.132,0.444c-0.056,0.144 -0.224,0.276 -0.504,0.396c-0.28,0.12 -0.684,0.212 -1.212,0.276c-0.656,0.08 -1.56,0.216 -2.712,0.408c0.208,0.016 0.576,0.136 1.104,0.36c0.464,0.192 0.812,0.36 1.044,0.504c0.232,0.144 0.376,0.276 0.432,0.396c0.056,0.12 0.032,0.236 -0.072,0.348c-0.104,0.112 -0.26,0.232 -0.468,0.36c-0.096,0.064 -0.2,0.136 -0.312,0.216c-0.112,0.08 -0.244,0.192 -0.396,0.336c-0.152,0.144 -0.332,0.324 -0.54,0.54c-0.208,0.216 -0.456,0.484 -0.744,0.804c0.96,-0.128 1.824,-0.248 2.592,-0.36c0.768,-0.112 1.456,-0.232 2.064,-0.36c0.48,-0.096 0.896,-0.168 1.248,-0.216c0.352,-0.048 0.66,-0.056 0.924,-0.024c0.264,0.032 0.5,0.108 0.708,0.228c0.208,0.12 0.416,0.284 0.624,0.492Zm-11.184,-0.288c0,0.272 -0.048,0.476 -0.144,0.612c-0.096,0.136 -0.22,0.224 -0.372,0.264c-0.152,0.04 -0.308,0.04 -0.468,-0c-0.16,-0.04 -0.296,-0.108 -0.408,-0.204c-0.272,-0.224 -0.488,-0.452 -0.648,-0.684c-0.16,-0.232 -0.336,-0.556 -0.528,-0.972c-0.224,-0.496 -0.284,-0.804 -0.18,-0.924c0.104,-0.12 0.412,-0.1 0.924,0.06c0.336,0.096 0.62,0.196 0.852,0.3c0.232,0.104 0.42,0.22 0.564,0.348c0.144,0.128 0.248,0.288 0.312,0.48c0.064,0.192 0.096,0.432 0.096,0.72Zm6.792,5.256c-0.128,0.144 -0.228,0.32 -0.3,0.528c-0.072,0.208 -0.124,0.476 -0.156,0.804c-0.032,0.328 -0.044,0.724 -0.036,1.188c0.008,0.464 0.036,1.024 0.084,1.68c0.048,0.608 -0.024,1.196 -0.216,1.764c-0.192,0.568 -0.448,1.044 -0.768,1.428c-0.528,0.64 -0.932,0.916 -1.212,0.828c-0.28,-0.088 -0.548,-0.628 -0.804,-1.62c-0.08,-0.256 -0.204,-0.456 -0.372,-0.6c-0.168,-0.144 -0.324,-0.216 -0.468,-0.216c-0.144,-0 -0.36,0.008 -0.648,0.024c-0.288,0.016 -0.608,0.036 -0.96,0.06c-0.352,0.024 -0.72,0.052 -1.104,0.084c-0.384,0.032 -0.744,0.072 -1.08,0.12c-0.08,0.416 -0.196,0.74 -0.348,0.972c-0.152,0.232 -0.324,0.348 -0.516,0.348c-0.208,-0 -0.412,-0.076 -0.612,-0.228c-0.2,-0.152 -0.368,-0.344 -0.504,-0.576c-0.136,-0.232 -0.224,-0.488 -0.264,-0.768c-0.04,-0.28 -0.012,-0.556 0.084,-0.828c0.112,-0.288 0.18,-0.692 0.204,-1.212c0.024,-0.52 0.02,-1.056 -0.012,-1.608c-0.032,-0.552 -0.096,-1.064 -0.192,-1.536c-0.096,-0.472 -0.216,-0.796 -0.36,-0.972c-0.176,-0.224 -0.284,-0.416 -0.324,-0.576c-0.04,-0.16 0.012,-0.276 0.156,-0.348c0.144,-0.072 0.4,-0.096 0.768,-0.072c0.368,0.024 0.864,0.1 1.488,0.228c0.48,-0.064 0.972,-0.136 1.476,-0.216c0.504,-0.08 0.976,-0.164 1.416,-0.252c0.44,-0.088 0.828,-0.176 1.164,-0.264c0.336,-0.088 0.576,-0.18 0.72,-0.276c0.352,-0.224 0.72,-0.336 1.104,-0.336c0.384,-0 0.856,0.168 1.416,0.504c0.384,0.224 0.688,0.42 0.912,0.588c0.224,0.168 0.38,0.32 0.468,0.456c0.088,0.136 0.112,0.276 0.072,0.42c-0.04,0.144 -0.132,0.304 -0.276,0.48Zm-2.76,3.96c0.032,-0.528 0.048,-1.1 0.048,-1.716c0,-0.616 -0.016,-1.34 -0.048,-2.172c-0.016,-0.224 -0.124,-0.376 -0.324,-0.456c-0.2,-0.08 -0.548,-0.104 -1.044,-0.072c-0.368,0.032 -0.908,0.088 -1.62,0.168c-0.712,0.08 -1.468,0.184 -2.268,0.312c0.032,0.256 0.048,0.54 0.048,0.852c0,0.312 -0.008,0.628 -0.024,0.948c0.352,-0.032 0.684,-0.088 0.996,-0.168c0.312,-0.08 0.676,-0.192 1.092,-0.336c0.32,-0.128 0.596,-0.204 0.828,-0.228c0.232,-0.024 0.476,0.02 0.732,0.132c0.56,0.24 0.852,0.48 0.876,0.72c0.024,0.24 -0.22,0.424 -0.732,0.552c-0.864,0.192 -1.592,0.312 -2.184,0.36c-0.592,0.048 -1.12,0.048 -1.584,-0c0,0.4 0.004,0.772 0.012,1.116c0.008,0.344 0.004,0.652 -0.012,0.924c0.64,-0.08 1.18,-0.156 1.62,-0.228c0.44,-0.072 0.772,-0.148 0.996,-0.228c0.464,-0.144 0.868,-0.18 1.212,-0.108c0.344,0.072 0.724,0.3 1.14,0.684c0.064,-0.096 0.112,-0.216 0.144,-0.36c0.032,-0.144 0.064,-0.376 0.096,-0.696Z" style="fill:#5c3df5;fill-rule:nonzero;"/></g></g></svg>