<?xml version="1.0" encoding="UTF-8" standalone="no"?><!DOCTYPE svg PUBLIC "-//W3C//DTD SVG 1.1//EN" "http://www.w3.org/Graphics/SVG/1.1/DTD/svg11.dtd"><svg width="849.0px" height="190.0px" viewBox="0 0 849 190" version="1.1" xmlns="http://www.w3.org/2000/svg" xmlns:xlink="http://www.w3.org/1999/xlink" xml:space="preserve" xmlns:serif="http://www.serif.com/" style="fill-rule:evenodd;clip-rule:evenodd;stroke-linecap:square;"><g id="m1-line-tsuiku"><g id="Group"><path id="Rectangle" d="M172,25c0,-2.208 -1.792,-4 -4,-4l-157,0c-2.208,0 -4,1.792 -4,4l0,92c0,2.208 1.792,4 4,4l157,0c2.208,0 4,-1.792 4,-4l0,-92Z" style="fill:#58c322;"/><circle id="Oval" cx="28" cy="60" r="10" style="fill:#fff;"/><circle id="Oval1" serif:id="Oval" cx="83" cy="70" r="10" style="fill:#fff;"/><circle id="Oval2" serif:id="Oval" cx="123" cy="110" r="10" style="fill:#fff;"/><path id="Path-18" d="M28,60l55,10l40,40l28,0" style="fill:none;fill-rule:nonzero;stroke:#fff;stroke-width:4px;"/></g><g id="Group1" serif:id="Group"><path id="Rectangle1" serif:id="Rectangle" d="M342,25c0,-2.208 -1.792,-4 -4,-4l-157,0c-2.208,0 -4,1.792 -4,4l0,92c0,2.208 1.792,4 4,4l157,0c2.208,0 4,-1.792 4,-4l0,-92Z" style="fill:#ffbf00;"/><circle id="Oval3" serif:id="Oval" cx="198" cy="50" r="10" style="fill:#fff;"/><circle id="Oval4" serif:id="Oval" cx="253" cy="60" r="10" style="fill:#fff;"/><circle id="Oval5" serif:id="Oval" cx="293" cy="100" r="10" style="fill:#fff;"/><path id="Path-181" serif:id="Path-18" d="M198,50l55,10l40,40l28,0" style="fill:none;fill-rule:nonzero;stroke:#fff;stroke-width:4px;"/></g><g id="Group2" serif:id="Group"><path id="Rectangle2" serif:id="Rectangle" d="M512,25c0,-2.208 -1.792,-4 -4,-4l-157,0c-2.208,0 -4,1.792 -4,4l0,92c0,2.208 1.792,4 4,4l157,0c2.208,0 4,-1.792 4,-4l0,-92Z" style="fill:#58c322;"/><circle id="Oval6" serif:id="Oval" cx="368" cy="76" r="10" style="fill:#fff;"/><circle id="Oval7" serif:id="Oval" cx="398" cy="76" r="10" style="fill:#fff;"/><circle id="Oval8" serif:id="Oval" cx="428" cy="76" r="10" style="fill:#fff;"/><circle id="Oval9" serif:id="Oval" cx="458" cy="76" r="10" style="fill:#fff;"/><path id="Path-182" serif:id="Path-18" d="M368,76l111,0" style="fill:none;fill-rule:nonzero;stroke:#fff;stroke-width:4px;"/></g><g id="Group3" serif:id="Group"><path id="Rectangle3" serif:id="Rectangle" d="M682,25c0,-2.208 -1.792,-4 -4,-4l-157,0c-2.208,0 -4,1.792 -4,4l0,92c0,2.208 1.792,4 4,4l157,0c2.208,0 4,-1.792 4,-4l0,-92Z" style="fill:#ffbf00;"/><circle id="Oval10" serif:id="Oval" cx="538" cy="66" r="10" style="fill:#fff;"/><circle id="Oval11" serif:id="Oval" cx="568" cy="66" r="10" style="fill:#fff;"/><circle id="Oval12" serif:id="Oval" cx="598" cy="66" r="10" style="fill:#fff;"/><circle id="Oval13" serif:id="Oval" cx="628" cy="66" r="10" style="fill:#fff;"/><path id="Path-183" serif:id="Path-18" d="M538,66l111,0" style="fill:none;fill-rule:nonzero;stroke:#fff;stroke-width:4px;"/></g><g id="Group4" serif:id="Group"><path id="Rectangle4" serif:id="Rectangle" d="M842,25c0,-2.208 -1.792,-4 -4,-4l-147,0c-2.208,0 -4,1.792 -4,4l0,92c0,2.208 1.792,4 4,4l147,0c2.208,0 4,-1.792 4,-4l0,-92Z" style="fill:#f50;"/><circle id="Oval14" serif:id="Oval" cx="708" cy="60" r="10" style="fill:#fff;"/><path id="Path-184" serif:id="Path-18" d="M708,60l62,0" style="fill:none;fill-rule:nonzero;stroke:#fff;stroke-width:4px;"/></g><g id="A--提示-" serif:id="A-(提示)"><text x="41.564px" y="159px" style="font-family:'HiraginoSans-W6', 'Hiragino Sans', sans-serif;font-weight:600;font-size:24px;">A (提出)</text></g><g id="A---変形-" serif:id="A’-(変形)"><text x="208.324px" y="159px" style="font-family:'HiraginoSans-W6', 'Hiragino Sans', sans-serif;font-weight:600;font-size:24px;">A’ (変形)</text></g><g id="B--提示-" serif:id="B-(提示)"><text x="381.712px" y="159px" style="font-family:'HiraginoSans-W6', 'Hiragino Sans', sans-serif;font-weight:600;font-size:24px;">B (提出)</text></g><g id="B---変形-" serif:id="B’-(変形)"><text x="548.472px" y="159px" style="font-family:'HiraginoSans-W6', 'Hiragino Sans', sans-serif;font-weight:600;font-size:24px;">B’ (変形)</text></g><g id="X--解消-" serif:id="X-(解消)"><text x="712.528px" y="159px" style="font-family:'HiraginoSans-W6', 'Hiragino Sans', sans-serif;font-weight:600;font-size:24px;">X (解决)</text></g></g></svg>