<?xml version="1.0" encoding="UTF-8" standalone="no"?><!DOCTYPE svg PUBLIC "-//W3C//DTD SVG 1.1//EN" "http://www.w3.org/Graphics/SVG/1.1/DTD/svg11.dtd"><svg width="1243.0px" height="405.0px" viewBox="0 0 1243 405" version="1.1" xmlns="http://www.w3.org/2000/svg" xmlns:xlink="http://www.w3.org/1999/xlink" xml:space="preserve" xmlns:serif="http://www.serif.com/" style="fill-rule:evenodd;clip-rule:evenodd;stroke-linecap:square;"><g id="m1-line-watari"><rect x="0" y="0" width="1243" height="405" style="fill:#fff;"/><path id="Path-35" d="M47,123l1170,0" style="fill:none;fill-rule:nonzero;stroke:#888;stroke-width:2px;stroke-dasharray:8,8;"/><path id="Path-351" serif:id="Path-35" d="M47,164l1170,0" style="fill:none;fill-rule:nonzero;stroke:#ccc;stroke-width:1px;"/><path id="Path-352" serif:id="Path-35" d="M47,204l1170,0" style="fill:none;fill-rule:nonzero;stroke:#ccc;stroke-width:1px;"/><path id="Path-353" serif:id="Path-35" d="M47,244l1170,0" style="fill:none;fill-rule:nonzero;stroke:#ccc;stroke-width:1px;"/><path id="Path-354" serif:id="Path-35" d="M47,284l1170,0" style="fill:none;fill-rule:nonzero;stroke:#ccc;stroke-width:1px;"/><path id="Path-355" serif:id="Path-35" d="M47,324l1170,0" style="fill:none;fill-rule:nonzero;stroke:#ccc;stroke-width:1px;"/><circle id="Oval" cx="64" cy="204" r="15" style="fill:#0c0c0c;"/><circle id="Oval1" serif:id="Oval" cx="134" cy="184" r="15" style="fill:#0c0c0c;"/><circle id="Oval2" serif:id="Oval" cx="204" cy="164" r="15" style="fill:#0c0c0c;"/><circle id="Oval3" serif:id="Oval" cx="264" cy="164" r="15" style="fill:#0c0c0c;"/><circle id="Oval4" serif:id="Oval" cx="324" cy="164" r="15" style="fill:#0c0c0c;"/><circle id="Oval5" serif:id="Oval" cx="374" cy="164" r="15" style="fill:#0c0c0c;"/><circle id="Oval6" serif:id="Oval" cx="434" cy="124" r="15" style="fill:#0c0c0c;"/><circle id="Oval7" serif:id="Oval" cx="494" cy="224" r="15" style="fill:#0c0c0c;"/><circle id="Oval8" serif:id="Oval" cx="544" cy="204" r="15" style="fill:#0c0c0c;"/><path id="Path-18" d="M64,204l140,-40l170,0l60,-40l60,100l50,-20" style="fill:none;fill-rule:nonzero;stroke:#0c0c0c;stroke-width:4px;"/><circle id="Oval9" serif:id="Oval" cx="659" cy="204" r="15" style="fill:#0c0c0c;"/><circle id="Oval10" serif:id="Oval" cx="729" cy="224" r="15" style="fill:#0c0c0c;"/><circle id="Oval11" serif:id="Oval" cx="779" cy="304" r="15" style="fill:#0c0c0c;"/><circle id="Oval12" serif:id="Oval" cx="839" cy="304" r="15" style="fill:#0c0c0c;"/><circle id="Oval13" serif:id="Oval" cx="899" cy="304" r="15" style="fill:#0c0c0c;"/><circle id="Oval14" serif:id="Oval" cx="969" cy="124" r="15" style="fill:#0c0c0c;"/><circle id="Oval15" serif:id="Oval" cx="1039" cy="104" r="15" style="fill:#0c0c0c;"/><circle id="Oval16" serif:id="Oval" cx="1089" cy="124" r="15" style="fill:#0c0c0c;"/><circle id="Oval17" serif:id="Oval" cx="1159" cy="144" r="15" style="fill:#0c0c0c;"/><path id="Path-181" serif:id="Path-18" d="M659,204l70,20l50,80l120,0l70,-185l70,-15l50,20l70,20" style="fill:none;fill-rule:nonzero;stroke:#0c0c0c;stroke-width:4px;"/><path id="Line-6" d="M449,144l-12.157,23.921l-5.948,-8.039l-42.205,31.226l-1.608,1.189l-2.379,-3.215l1.607,-1.19l42.206,-31.226l-5.947,-8.039l26.431,-4.627Z" style="fill:#ffbf00;fill-rule:nonzero;"/><path id="Line-61" serif:id="Line-6" d="M989,131l2.699,26.697l-9.349,-3.55l-56.98,150.063l-0.71,1.87l-3.74,-1.42l0.71,-1.87l56.981,-150.063l-9.349,-3.55l19.738,-18.177Z" style="fill:#f50;fill-rule:nonzero;"/><path id="Line" d="M1199,361l19,9.5l-19,9.5l0,-8l-1164,0l0,-3l1164,0l0,-8Z" style="fill-rule:nonzero;"/><path id="Line1" serif:id="Line" d="M36.5,21l9.5,19l-8,0l0,332l-3,0l0,-332l-8,0l9.5,-19Z" style="fill-rule:nonzero;"/><g id="と"><g transform="matrix(1,0,0,1,364,74)"><text x="0px" y="0px" style="font-family:'HiraginoSans-W6', 'Hiragino Sans', sans-serif;font-weight:600;font-size:20px;">と</text><text x="0px" y="20px" style="font-family:'HiraginoSans-W6', 'Hiragino Sans', sans-serif;font-weight:600;font-size:20px;">to</text></g></g><g id="ど"><g transform="matrix(1,0,0,1,424,74)"><text x="0px" y="0px" style="font-family:'HiraginoSans-W6', 'Hiragino Sans', sans-serif;font-weight:600;font-size:20px;">ど</text><text x="0px" y="20px" style="font-family:'HiraginoSans-W6', 'Hiragino Sans', sans-serif;font-weight:600;font-size:20px;">do</text></g></g><g id="く"><g transform="matrix(1,0,0,1,484,74)"><text x="0px" y="0px" style="font-family:'HiraginoSans-W6', 'Hiragino Sans', sans-serif;font-weight:600;font-size:20px;">く</text><text x="0px" y="20px" style="font-family:'HiraginoSans-W6', 'Hiragino Sans', sans-serif;font-weight:600;font-size:20px;">ku</text></g></g><g id="は"><g transform="matrix(1,0,0,1,957,64)"><text x="0px" y="0px" style="font-family:'HiraginoSans-W6', 'Hiragino Sans', sans-serif;font-weight:600;font-size:20px;">は</text><text x="0px" y="20px" style="font-family:'HiraginoSans-W6', 'Hiragino Sans', sans-serif;font-weight:600;font-size:20px;">ha</text></g></g><g id="ば"><g transform="matrix(1,0,0,1,1024,64)"><text x="0px" y="0px" style="font-family:'HiraginoSans-W6', 'Hiragino Sans', sans-serif;font-weight:600;font-size:20px;">ば</text><text x="0px" y="20px" style="font-family:'HiraginoSans-W6', 'Hiragino Sans', sans-serif;font-weight:600;font-size:20px;">ba</text></g></g><g id="たい"><g transform="matrix(1,0,0,1,1067,64)"><text x="0px" y="0px" style="font-family:'HiraginoSans-W6', 'Hiragino Sans', sans-serif;font-weight:600;font-size:20px;">たい</text><text x="0px" y="20px" style="font-family:'HiraginoSans-W6', 'Hiragino Sans', sans-serif;font-weight:600;font-size:20px;">ta i</text></g></g></g></svg>