<?xml version="1.0" encoding="UTF-8" standalone="no"?><!DOCTYPE svg PUBLIC "-//W3C//DTD SVG 1.1//EN" "http://www.w3.org/Graphics/SVG/1.1/DTD/svg11.dtd"><svg width="420.0px" height="515.0px" viewBox="0 0 420 515" version="1.1" xmlns="http://www.w3.org/2000/svg" xmlns:xlink="http://www.w3.org/1999/xlink" xml:space="preserve" xmlns:serif="http://www.serif.com/" style="fill-rule:evenodd;clip-rule:evenodd;stroke-linecap:square;"><g id="m1-line-carmen"><g id="Group"><path id="Rectangle" d="M370,20c0,-2.208 -1.792,-4 -4,-4l-241.141,0c-2.208,0 -4,1.792 -4,4l0,102c0,2.208 1.792,4 4,4l241.141,0c2.208,0 4,-1.792 4,-4l0,-102Z" style="fill:#58c322;"/><circle id="Oval" cx="147" cy="60" r="10" style="fill:#fff;"/><circle id="Oval1" serif:id="Oval" cx="187" cy="60" r="10" style="fill:#fff;"/><circle id="Oval2" serif:id="Oval" cx="217" cy="60" r="10" style="fill:#fff;"/><circle id="Oval3" serif:id="Oval" cx="247" cy="60" r="10" style="fill:#fff;"/><circle id="Oval4" serif:id="Oval" cx="277" cy="90" r="10" style="fill:#fff;"/><circle id="Oval5" serif:id="Oval" cx="307" cy="110" r="10" style="fill:#fff;"/><circle id="Oval6" serif:id="Oval" cx="337" cy="90" r="10" style="fill:#fff;"/></g><g id="提示"><text x="25px" y="80px" style="font-family:'HiraginoSans-W6', 'Hiragino Sans', sans-serif;font-weight:600;font-size:28px;">提出</text></g><g id="展開"><text x="25px" y="260.663px" style="font-family:'HiraginoSans-W6', 'Hiragino Sans', sans-serif;font-weight:600;font-size:28px;">展开</text></g><g id="解消"><text x="25px" y="438.663px" style="font-family:'HiraginoSans-W6', 'Hiragino Sans', sans-serif;font-weight:600;font-size:28px;">解决</text></g><path id="Path-21" d="M85.421,140l-32.421,0l-0,80" style="fill:none;fill-rule:nonzero;stroke:#000;stroke-width:2px;"/><path id="Path-22" d="M53,293l0,72l42,0" style="fill:none;fill-rule:nonzero;stroke:#000;stroke-width:2px;"/><path id="Path-26" d="M147,60l100,0l30,30l30,20l30,-20" style="fill:none;fill-rule:nonzero;stroke:#fff;stroke-width:4px;"/><g id="Group1" serif:id="Group"><path id="Rectangle1" serif:id="Rectangle" d="M370,140c0,-2.208 -1.792,-4 -4,-4l-241.141,0c-2.208,0 -4,1.792 -4,4l0,102c0,2.208 1.792,4 4,4l241.141,0c2.208,0 4,-1.792 4,-4l0,-102Z" style="fill:#ffbf00;"/><circle id="Oval7" serif:id="Oval" cx="147" cy="180" r="10" style="fill:#fff;"/><circle id="Oval8" serif:id="Oval" cx="187" cy="180" r="10" style="fill:#fff;"/><circle id="Oval9" serif:id="Oval" cx="217" cy="180" r="10" style="fill:#fff;"/><circle id="Oval10" serif:id="Oval" cx="247" cy="180" r="10" style="fill:#fff;"/><g id="_-" serif:id="★"><text x="263px" y="177px" style="font-family:'HiraginoSans-W6', 'Hiragino Sans', sans-serif;font-weight:600;font-size:28px;fill:#fff;">★</text></g><g id="_-1" serif:id="★"><text x="293px" y="167px" style="font-family:'HiraginoSans-W6', 'Hiragino Sans', sans-serif;font-weight:600;font-size:28px;fill:#fff;">★</text></g><g id="_-2" serif:id="★"><text x="323px" y="177px" style="font-family:'HiraginoSans-W6', 'Hiragino Sans', sans-serif;font-weight:600;font-size:28px;fill:#fff;">★</text></g></g><path id="Path-261" serif:id="Path-26" d="M147,180l100,0l30,-13l30,-11l30,11" style="fill:none;fill-rule:nonzero;stroke:#fff;stroke-width:4px;"/><g id="Group2" serif:id="Group"><path id="Rectangle2" serif:id="Rectangle" d="M370,260c0,-2.208 -1.792,-4 -4,-4l-241.141,0c-2.208,0 -4,1.792 -4,4l0,102c0,2.208 1.792,4 4,4l241.141,0c2.208,0 4,-1.792 4,-4l0,-102Z" style="fill:#ffbf00;"/><circle id="Oval11" serif:id="Oval" cx="147" cy="300" r="10" style="fill:#fff;"/><circle id="Oval12" serif:id="Oval" cx="187" cy="300" r="10" style="fill:#fff;"/><circle id="Oval13" serif:id="Oval" cx="217" cy="300" r="10" style="fill:#fff;"/><g id="_-3" serif:id="★"><text x="263px" y="307px" style="font-family:'HiraginoSans-W6', 'Hiragino Sans', sans-serif;font-weight:600;font-size:28px;fill:#fff;">★</text></g><g id="_-4" serif:id="★"><text x="235px" y="297px" style="font-family:'HiraginoSans-W6', 'Hiragino Sans', sans-serif;font-weight:600;font-size:28px;fill:#fff;">★</text></g><g id="_-5" serif:id="★"><text x="293px" y="317px" style="font-family:'HiraginoSans-W6', 'Hiragino Sans', sans-serif;font-weight:600;font-size:28px;fill:#fff;">★</text></g><g id="_-6" serif:id="★"><text x="323px" y="307px" style="font-family:'HiraginoSans-W6', 'Hiragino Sans', sans-serif;font-weight:600;font-size:28px;fill:#fff;">★</text></g></g><g id="Group3" serif:id="Group"><path id="Rectangle3" serif:id="Rectangle" d="M370,382c0,-2.208 -1.792,-4 -4,-4l-242,0c-2.208,0 -4,1.792 -4,4l0,92c0,2.208 1.792,4 4,4l242,0c2.208,0 4,-1.792 4,-4l0,-92Z" style="fill:#f50;"/><circle id="Oval14" serif:id="Oval" cx="148" cy="407" r="10" style="fill:#fff;"/><path id="Path-18" d="M148,408l40,0" style="fill:none;fill-rule:nonzero;stroke:#fff;stroke-width:4px;"/></g><path id="Path-262" serif:id="Path-26" d="M147,300l68,0l34,-13l28,10l30,13l30,-13" style="fill:none;fill-rule:nonzero;stroke:#fff;stroke-width:4px;"/><path id="Path-25" d="M133,6l0,365" style="fill:none;fill-rule:nonzero;stroke:#000;stroke-width:1px;stroke-dasharray:4,4;"/><path id="Path-251" serif:id="Path-25" d="M231,6l0,365" style="fill:none;fill-rule:nonzero;stroke:#000;stroke-width:1px;stroke-dasharray:4,4;"/></g></svg>