<?xml version="1.0" encoding="UTF-8" standalone="no"?><!DOCTYPE svg PUBLIC "-//W3C//DTD SVG 1.1//EN" "http://www.w3.org/Graphics/SVG/1.1/DTD/svg11.dtd"><svg width="440.0px" height="515.0px" viewBox="0 0 440 515" version="1.1" xmlns="http://www.w3.org/2000/svg" xmlns:xlink="http://www.w3.org/1999/xlink" xml:space="preserve" xmlns:serif="http://www.serif.com/" style="fill-rule:evenodd;clip-rule:evenodd;stroke-linecap:square;"><g id="m1-line-monster"><g id="Group"><path id="Rectangle" d="M431,20c0,-2.208 -1.792,-4 -4,-4l-282,0c-2.208,0 -4,1.792 -4,4l0,102c0,2.208 1.792,4 4,4l282,0c2.208,0 4,-1.792 4,-4l0,-102Z" style="fill:#58c322;"/><circle id="Oval" cx="167" cy="90" r="10" style="fill:#fff;"/><circle id="Oval1" serif:id="Oval" cx="207" cy="60" r="10" style="fill:#fff;"/><circle id="Oval2" serif:id="Oval" cx="257" cy="50" r="10" style="fill:#fff;"/><circle id="Oval3" serif:id="Oval" cx="297" cy="60" r="10" style="fill:#fff;"/><circle id="Oval4" serif:id="Oval" cx="327" cy="70" r="10" style="fill:#fff;"/><circle id="Oval5" serif:id="Oval" cx="357" cy="60" r="10" style="fill:#fff;"/><circle id="Oval6" serif:id="Oval" cx="397" cy="90" r="10" style="fill:#fff;"/><path id="Path-18" d="M167,90l40,-30l50,-10l40,10l30,10l30,-10l40,30" style="fill:none;fill-rule:nonzero;stroke:#fff;stroke-width:4px;"/></g><g id="Group1" serif:id="Group"><path id="Rectangle1" serif:id="Rectangle" d="M431,140c0,-2.208 -1.792,-4 -4,-4l-282,0c-2.208,0 -4,1.792 -4,4l0,102c0,2.208 1.792,4 4,4l282,0c2.208,0 4,-1.792 4,-4l0,-102Z" style="fill:#ffbf00;"/><circle id="Oval7" serif:id="Oval" cx="167" cy="210" r="10" style="fill:#fff;"/><circle id="Oval8" serif:id="Oval" cx="207" cy="180" r="10" style="fill:#fff;"/><circle id="Oval9" serif:id="Oval" cx="257" cy="170" r="10" style="fill:#fff;"/><circle id="Oval10" serif:id="Oval" cx="297" cy="180" r="10" style="fill:#fff;"/><circle id="Oval11" serif:id="Oval" cx="327" cy="190" r="10" style="fill:#fff;"/><circle id="Oval12" serif:id="Oval" cx="357" cy="180" r="10" style="fill:#fff;"/><path id="Path-181" serif:id="Path-18" d="M167,210l40,-30l50,-10l40,10l30,10l30,-10l40,10" style="fill:none;fill-rule:nonzero;stroke:#fff;stroke-width:4px;"/></g><g id="_-" serif:id="★"><text x="383px" y="199px" style="font-family:'HiraginoSans-W6', 'Hiragino Sans', sans-serif;font-weight:600;font-size:28px;fill:#fff;">★</text></g><g id="Group2" serif:id="Group"><path id="Rectangle2" serif:id="Rectangle" d="M431,260c0,-2.208 -1.792,-4 -4,-4l-282,0c-2.208,0 -4,1.792 -4,4l0,102c0,2.208 1.792,4 4,4l282,0c2.208,0 4,-1.792 4,-4l0,-102Z" style="fill:#ffbf00;"/><circle id="Oval13" serif:id="Oval" cx="257" cy="290" r="10" style="fill:#fff;"/><circle id="Oval14" serif:id="Oval" cx="297" cy="300" r="10" style="fill:#fff;"/><circle id="Oval15" serif:id="Oval" cx="327" cy="310" r="10" style="fill:#fff;"/><circle id="Oval16" serif:id="Oval" cx="357" cy="300" r="10" style="fill:#fff;"/><path id="Path-182" serif:id="Path-18" d="M166,349l41,-39l50,-20l40,10l30,10l30,-10l40,-20" style="fill:none;fill-rule:nonzero;stroke:#fff;stroke-width:4px;"/></g><g id="_-1" serif:id="★"><text x="383px" y="289px" style="font-family:'HiraginoSans-W6', 'Hiragino Sans', sans-serif;font-weight:600;font-size:28px;fill:#fff;">★</text></g><g id="_-2" serif:id="★"><text x="152px" y="360px" style="font-family:'HiraginoSans-W6', 'Hiragino Sans', sans-serif;font-weight:600;font-size:28px;fill:#fff;">★</text></g><g id="_-3" serif:id="★"><text x="197px" y="316px" style="font-family:'HiraginoSans-W6', 'Hiragino Sans', sans-serif;font-weight:600;font-size:28px;fill:#fff;">★</text></g><g id="Group3" serif:id="Group"><path id="Rectangle3" serif:id="Rectangle" d="M431,382c0,-2.208 -1.792,-4 -4,-4l-312,0c-2.208,0 -4,1.792 -4,4l0,102c0,2.208 1.792,4 4,4l312,0c2.208,0 4,-1.792 4,-4l0,-102Z" style="fill:#ffbf00;"/><circle id="Oval17" serif:id="Oval" cx="257" cy="412" r="10" style="fill:#fff;"/><circle id="Oval18" serif:id="Oval" cx="297" cy="422" r="10" style="fill:#fff;"/><circle id="Oval19" serif:id="Oval" cx="327" cy="432" r="10" style="fill:#fff;"/><circle id="Oval20" serif:id="Oval" cx="357" cy="422" r="10" style="fill:#fff;"/><path id="Path-183" serif:id="Path-18" d="M136,442l58,-20l63,-10l40,10l30,10l30,-10l40,-30" style="fill:none;fill-rule:nonzero;stroke:#fff;stroke-width:4px;"/></g><g id="_-4" serif:id="★"><text x="383px" y="401px" style="font-family:'HiraginoSans-W6', 'Hiragino Sans', sans-serif;font-weight:600;font-size:28px;fill:#fff;">★</text></g><g id="_-5" serif:id="★"><text x="122px" y="452px" style="font-family:'HiraginoSans-W6', 'Hiragino Sans', sans-serif;font-weight:600;font-size:28px;fill:#fff;">★</text></g><g id="_-6" serif:id="★"><text x="152px" y="442px" style="font-family:'HiraginoSans-W6', 'Hiragino Sans', sans-serif;font-weight:600;font-size:28px;fill:#fff;">★</text></g><g id="_-7" serif:id="★"><text x="180px" y="432px" style="font-family:'HiraginoSans-W6', 'Hiragino Sans', sans-serif;font-weight:600;font-size:28px;fill:#fff;">★</text></g><path id="Path-25" d="M247,6l0,497" style="fill:none;fill-rule:nonzero;stroke:#000;stroke-width:1px;stroke-dasharray:4,4;"/><path id="Path-251" serif:id="Path-25" d="M368,6l0,497" style="fill:none;fill-rule:nonzero;stroke:#000;stroke-width:1px;stroke-dasharray:4,4;"/><g id="提示"><text x="34px" y="80px" style="font-family:'HiraginoSans-W6', 'Hiragino Sans', sans-serif;font-weight:600;font-size:28px;">提出</text></g><g id="展開"><text x="25px" y="330px" style="font-family:'HiraginoSans-W6', 'Hiragino Sans', sans-serif;font-weight:600;font-size:28px;">展开</text></g><path id="Path-21" d="M85.421,139l-32.421,0l-0,139" style="fill:none;fill-rule:nonzero;stroke:#000;stroke-width:2px;"/><path id="Path-22" d="M53,348l0,141l42,0" style="fill:none;fill-rule:nonzero;stroke:#000;stroke-width:2px;"/></g></svg>