<?xml version="1.0" encoding="UTF-8" standalone="no"?><!DOCTYPE svg PUBLIC "-//W3C//DTD SVG 1.1//EN" "http://www.w3.org/Graphics/SVG/1.1/DTD/svg11.dtd"><svg width="770.0px" height="425.0px" viewBox="0 0 770 425" version="1.1" xmlns="http://www.w3.org/2000/svg" xmlns:xlink="http://www.w3.org/1999/xlink" xml:space="preserve" xmlns:serif="http://www.serif.com/" style="fill-rule:evenodd;clip-rule:evenodd;stroke-linecap:square;"><g id="m1-line-manekin-inherit"><g id="Group"><path id="Rectangle" d="M21,61l347,0l-7,15l7,15l-7,23l9,16l-9,16l7,15l-347,0c-2.209,0 -4,-1.791 -4,-4l0,-92c0,-2.209 1.791,-4 4,-4Z" style="fill:#f50;fill-rule:nonzero;"/><circle id="Oval" cx="59" cy="120" r="10" style="fill:#fff;"/><circle id="Oval1" serif:id="Oval" cx="119" cy="110" r="10" style="fill:#fff;"/><circle id="Oval2" serif:id="Oval" cx="168" cy="100" r="10" style="fill:#fff;"/><circle id="Oval3" serif:id="Oval" cx="228" cy="100" r="10" style="fill:#fff;"/><circle id="Oval4" serif:id="Oval" cx="288" cy="90" r="10" style="fill:#fff;"/><path id="Path-18" d="M59,120l59.806,-10l51.833,-10l57.813,0l59.806,-9l59.742,0" style="fill:none;fill-rule:nonzero;stroke:#fff;stroke-width:4px;"/></g><g id="Group1" serif:id="Group"><path id="Rectangle1" serif:id="Rectangle" d="M21,171l343,0c2.209,0 4,1.791 4,4l0,92c0,2.209 -1.791,4 -4,4l-343,0c-2.209,0 -4,-1.791 -4,-4l0,-92c0,-2.209 1.791,-4 4,-4Z" style="fill:#58c322;fill-rule:nonzero;"/><circle id="Oval5" serif:id="Oval" cx="59" cy="240" r="10" style="fill:#fff;"/><circle id="Oval6" serif:id="Oval" cx="119" cy="240" r="10" style="fill:#fff;"/><circle id="Oval7" serif:id="Oval" cx="168" cy="230" r="10" style="fill:#fff;"/><circle id="Oval8" serif:id="Oval" cx="228" cy="220" r="10" style="fill:#fff;"/><circle id="Oval9" serif:id="Oval" cx="288" cy="230" r="10" style="fill:#fff;"/><path id="Path-181" serif:id="Path-18" d="M59,240l60,0l49,-10l60.452,-10l59.548,10l60,0" style="fill:none;fill-rule:nonzero;stroke:#fff;stroke-width:4px;"/></g><g id="Group2" serif:id="Group"><path id="Rectangle2" serif:id="Rectangle" d="M382,171l343,0c2.209,0 4,1.791 4,4l0,92c0,2.209 -1.791,4 -4,4l-343,0c-2.209,0 -4,-1.791 -4,-4l0,-92c0,-2.209 1.791,-4 4,-4Z" style="fill:#ffbf00;fill-rule:nonzero;"/><circle id="Oval10" serif:id="Oval" cx="420" cy="230" r="10" style="fill:#fff;"/><circle id="Oval11" serif:id="Oval" cx="480" cy="230" r="10" style="fill:#fff;"/><circle id="Oval12" serif:id="Oval" cx="529" cy="220" r="10" style="fill:#fff;"/><circle id="Oval13" serif:id="Oval" cx="589" cy="210" r="10" style="fill:#fff;"/><circle id="Oval14" serif:id="Oval" cx="649" cy="220" r="10" style="fill:#fff;"/><path id="Path-182" serif:id="Path-18" d="M420,230l60,0l49,-10l60.452,-10l59.548,10l60,0" style="fill:none;fill-rule:nonzero;stroke:#fff;stroke-width:4px;"/></g><path id="Path-27" d="M58.839,120.5l-0.339,119" style="fill:none;fill-rule:nonzero;stroke:#fff;stroke-width:1px;stroke-dasharray:4,4;"/><path id="Path-271" serif:id="Path-27" d="M118.596,106.5l0,133" style="fill:none;fill-rule:nonzero;stroke:#fff;stroke-width:1px;stroke-dasharray:4,4;"/><path id="Path-272" serif:id="Path-27" d="M167.5,101.5l-0.092,131" style="fill:none;fill-rule:nonzero;stroke:#fff;stroke-width:1px;stroke-dasharray:4,4;"/><path id="Path-273" serif:id="Path-27" d="M227.173,104.296l-0,105.204" style="fill:none;fill-rule:nonzero;stroke:#fff;stroke-width:1px;stroke-dasharray:4,4;"/><path id="Path-274" serif:id="Path-27" d="M287.5,88.5l0.437,137" style="fill:none;fill-rule:nonzero;stroke:#fff;stroke-width:1px;stroke-dasharray:4,4;"/><g id="と"><text x="48px" y="43px" style="font-family:'HiraginoSans-W6', 'Hiragino Sans', sans-serif;font-weight:600;font-size:20px;">と</text></g><g id="び"><text x="108px" y="43px" style="font-family:'HiraginoSans-W6', 'Hiragino Sans', sans-serif;font-weight:600;font-size:20px;">び</text></g><g id="こ"><text x="159px" y="43px" style="font-family:'HiraginoSans-W6', 'Hiragino Sans', sans-serif;font-weight:600;font-size:20px;">こ</text></g><g id="め"><text x="217px" y="43px" style="font-family:'HiraginoSans-W6', 'Hiragino Sans', sans-serif;font-weight:600;font-size:20px;">め</text></g><g id="よ"><text x="275px" y="43px" style="font-family:'HiraginoSans-W6', 'Hiragino Sans', sans-serif;font-weight:600;font-size:20px;">よ</text></g><g id="わ"><text x="48px" y="298px" style="font-family:'HiraginoSans-W6', 'Hiragino Sans', sans-serif;font-weight:600;font-size:20px;">わ</text></g><g id="か"><text x="108px" y="298px" style="font-family:'HiraginoSans-W6', 'Hiragino Sans', sans-serif;font-weight:600;font-size:20px;">か</text></g><g id="す"><text x="159px" y="298px" style="font-family:'HiraginoSans-W6', 'Hiragino Sans', sans-serif;font-weight:600;font-size:20px;">す</text></g><g id="ぎ"><text x="217px" y="298px" style="font-family:'HiraginoSans-W6', 'Hiragino Sans', sans-serif;font-weight:600;font-size:20px;">ぎ</text></g><g id="る"><text x="275px" y="298px" style="font-family:'HiraginoSans-W6', 'Hiragino Sans', sans-serif;font-weight:600;font-size:20px;">る</text></g><g id="そ"><text x="412px" y="298px" style="font-family:'HiraginoSans-W6', 'Hiragino Sans', sans-serif;font-weight:600;font-size:20px;">そ</text></g><g id="れ"><text x="472px" y="298px" style="font-family:'HiraginoSans-W6', 'Hiragino Sans', sans-serif;font-weight:600;font-size:20px;">れ</text></g><g id="だ"><text x="523px" y="298px" style="font-family:'HiraginoSans-W6', 'Hiragino Sans', sans-serif;font-weight:600;font-size:20px;">だ</text></g><g id="け"><text x="581px" y="298px" style="font-family:'HiraginoSans-W6', 'Hiragino Sans', sans-serif;font-weight:600;font-size:20px;">け</text></g><g id="で"><text x="639px" y="298px" style="font-family:'HiraginoSans-W6', 'Hiragino Sans', sans-serif;font-weight:600;font-size:20px;">で</text></g><g id="提示"><text x="151px" y="350px" style="font-family:'HiraginoSans-W6', 'Hiragino Sans', sans-serif;font-weight:600;font-size:28px;">提出</text></g><g id="_-かつ前リクイデーションの展開-" serif:id="(かつ前リクイデーションの展開)"><text x="71.88px" y="385px" style="font-family:'HarmonyOS_Sans_SC_Bold', 'HarmonyOS Sans SC';font-weight:700;font-size:20px;fill:#888;">(利用前面解决进行展开)</text></g><g id="展開"><text x="528.899px" y="350px" style="font-family:'HiraginoSans-W6', 'Hiragino Sans', sans-serif;font-weight:600;font-size:28px;">展开</text></g><path id="Path-19" d="M378,321l0,18l127,0" style="fill:none;fill-rule:nonzero;stroke:#000;stroke-width:1.5px;"/><path id="Path-20" d="M609,339l122,0l0,-18" style="fill:none;fill-rule:nonzero;stroke:#000;stroke-width:1.5px;"/></g></svg>