<?xml version="1.0" encoding="UTF-8" standalone="no"?><!DOCTYPE svg PUBLIC "-//W3C//DTD SVG 1.1//EN" "http://www.w3.org/Graphics/SVG/1.1/DTD/svg11.dtd"><svg width="1030.0px" height="400.0px" viewBox="0 0 1030 400" version="1.1" xmlns="http://www.w3.org/2000/svg" xmlns:xlink="http://www.w3.org/1999/xlink" xml:space="preserve" xmlns:serif="http://www.serif.com/" style="fill-rule:evenodd;clip-rule:evenodd;stroke-linecap:square;"><g id="m1-line-re-expose"><g id="Group"><path id="Rectangle" d="M261,145c0,-2.208 -1.792,-4 -4,-4l-246,0c-2.208,0 -4,1.792 -4,4l0,92c0,2.208 1.792,4 4,4l246,0c2.208,0 4,-1.792 4,-4l0,-92Z" style="fill:#58c322;"/><circle id="Oval" cx="28" cy="170" r="10" style="fill:#fff;"/><circle id="Oval1" serif:id="Oval" cx="58" cy="170" r="10" style="fill:#fff;"/><circle id="Oval2" serif:id="Oval" cx="83" cy="180" r="10" style="fill:#fff;"/><circle id="Oval3" serif:id="Oval" cx="113" cy="180" r="10" style="fill:#fff;"/><circle id="Oval4" serif:id="Oval" cx="143" cy="190" r="10" style="fill:#fff;"/><circle id="Oval5" serif:id="Oval" cx="183" cy="190" r="10" style="fill:#fff;"/><circle id="Oval6" serif:id="Oval" cx="213" cy="200" r="10" style="fill:#fff;"/><path id="Path-18" d="M28,170l30,0l26,10l29,0l30,11l40,0l32,9" style="fill:none;fill-rule:nonzero;stroke:#fff;stroke-width:4px;"/></g><g id="Group1" serif:id="Group"><path id="Rectangle1" serif:id="Rectangle" d="M525,145c0,-2.208 -1.792,-4 -4,-4l-246,0c-2.208,0 -4,1.792 -4,4l0,92c0,2.208 1.792,4 4,4l246,0c2.208,0 4,-1.792 4,-4l0,-92Z" style="fill:#ffbf00;"/><circle id="Oval7" serif:id="Oval" cx="292" cy="180" r="10" style="fill:#fff;"/><circle id="Oval8" serif:id="Oval" cx="322" cy="180" r="10" style="fill:#fff;"/><circle id="Oval9" serif:id="Oval" cx="347" cy="190" r="10" style="fill:#fff;"/><circle id="Oval10" serif:id="Oval" cx="377" cy="190" r="10" style="fill:#fff;"/><circle id="Oval11" serif:id="Oval" cx="407" cy="200" r="10" style="fill:#fff;"/><circle id="Oval12" serif:id="Oval" cx="447" cy="200" r="10" style="fill:#fff;"/><circle id="Oval13" serif:id="Oval" cx="477" cy="210" r="10" style="fill:#fff;"/><path id="Path-181" serif:id="Path-18" d="M292,180l30,0l26,10l29,0l30,11l40,0l32,9" style="fill:none;fill-rule:nonzero;stroke:#fff;stroke-width:4px;"/></g><g id="Group2" serif:id="Group"><path id="Rectangle2" serif:id="Rectangle" d="M789,145c0,-2.208 -1.792,-4 -4,-4l-246,0c-2.208,0 -4,1.792 -4,4l0,92c0,2.208 1.792,4 4,4l246,0c2.208,0 4,-1.792 4,-4l0,-92Z" style="fill:#58c322;"/><circle id="Oval14" serif:id="Oval" cx="556" cy="170" r="10" style="fill:#fff;"/><circle id="Oval15" serif:id="Oval" cx="586" cy="170" r="10" style="fill:#fff;"/><circle id="Oval16" serif:id="Oval" cx="611" cy="180" r="10" style="fill:#fff;"/><circle id="Oval17" serif:id="Oval" cx="641" cy="180" r="10" style="fill:#fff;"/><circle id="Oval18" serif:id="Oval" cx="671" cy="190" r="10" style="fill:#fff;"/><circle id="Oval19" serif:id="Oval" cx="711" cy="190" r="10" style="fill:#fff;"/><circle id="Oval20" serif:id="Oval" cx="741" cy="200" r="10" style="fill:#fff;"/><path id="Path-182" serif:id="Path-18" d="M556,170l30,0l26,10l29,0l30,11l40,0l32,9" style="fill:none;fill-rule:nonzero;stroke:#fff;stroke-width:4px;"/></g><g id="Group3" serif:id="Group"><path id="Rectangle3" serif:id="Rectangle" d="M1009,145c0,-2.208 -1.792,-4 -4,-4l-202,0c-2.208,0 -4,1.792 -4,4l0,92c0,2.208 1.792,4 4,4l202,0c2.208,0 4,-1.792 4,-4l0,-92Z" style="fill:#f50;"/><circle id="Oval21" serif:id="Oval" cx="820" cy="200" r="10" style="fill:#fff;"/><circle id="Oval22" serif:id="Oval" cx="850" cy="190" r="10" style="fill:#fff;"/><circle id="Oval23" serif:id="Oval" cx="875" cy="180" r="10" style="fill:#fff;"/><circle id="Oval24" serif:id="Oval" cx="905" cy="180" r="10" style="fill:#fff;"/><circle id="Oval25" serif:id="Oval" cx="935" cy="170" r="10" style="fill:#fff;"/><path id="Path-183" serif:id="Path-18" d="M820,200l30,-10l26,-10l29,0l30,-9l40,0" style="fill:none;fill-rule:nonzero;stroke:#fff;stroke-width:4px;"/></g><g id="A--提示-" serif:id="A-(提示)"><text x="78.658px" y="289px" style="font-family:'HiraginoSans-W6', 'Hiragino Sans', sans-serif;font-weight:600;font-size:28px;">A (提出)</text></g><g id="A---変形-" serif:id="A’-(変形)"><g transform="matrix(1,0,0,1,331.878,289)"><text x="0px" y="0px" style="font-family:'HiraginoSans-W6', 'Hiragino Sans', sans-serif;font-weight:600;font-size:28px;">A’ (</text><text x="50.876px" y="0px" style="font-family:'HarmonyOS_Sans_SC_Medium', 'HarmonyOS Sans SC';font-weight:500;font-size:28px;">变</text><text x="78.876px" y="0px" style="font-family:'HiraginoSans-W6', 'Hiragino Sans', sans-serif;font-weight:600;font-size:28px;">形)</text></g></g><g id="前半"><text x="243px" y="51px" style="font-family:'HiraginoSans-W6', 'Hiragino Sans', sans-serif;font-weight:600;font-size:28px;">前半</text></g><g id="後半"><text x="751px" y="51px" style="font-family:'HiraginoSans-W6', 'Hiragino Sans', sans-serif;font-weight:600;font-size:28px;">后半</text></g><g id="A--再提示-" serif:id="A-(再提示)"><text x="590.658px" y="289px" style="font-family:'HiraginoSans-W6', 'Hiragino Sans', sans-serif;font-weight:600;font-size:28px;">A (再提出)</text></g><g id="X--解消-" serif:id="X-(解消)"><text x="849.616px" y="289px" style="font-family:'HiraginoSans-W6', 'Hiragino Sans', sans-serif;font-weight:600;font-size:28px;">X (解决)</text></g><path id="Path-30" d="M28,300c75,61 683,61 751,0" style="fill:none;fill-rule:nonzero;stroke:#000;stroke-width:2px;"/><path id="Path-301" serif:id="Path-30" d="M17,122.75c49.634,-61.333 451.999,-61.333 497,0" style="fill:none;fill-rule:nonzero;stroke:#000;stroke-width:2px;"/><path id="Path-302" serif:id="Path-30" d="M537,122.75c47.137,-61.333 429.262,-61.333 472,0" style="fill:none;fill-rule:nonzero;stroke:#000;stroke-width:2px;"/><path id="Path-303" serif:id="Path-30" d="M789,300c31.323,61.333 180.584,61.333 210,0" style="fill:none;fill-rule:nonzero;stroke:#000;stroke-width:2px;"/></g></svg>