<?xml version="1.0" encoding="UTF-8" standalone="no"?><!DOCTYPE svg PUBLIC "-//W3C//DTD SVG 1.1//EN" "http://www.w3.org/Graphics/SVG/1.1/DTD/svg11.dtd"><svg width="810.0px" height="570.0px" viewBox="0 0 810 570" version="1.1" xmlns="http://www.w3.org/2000/svg" xmlns:xlink="http://www.w3.org/1999/xlink" xml:space="preserve" xmlns:serif="http://www.serif.com/" style="fill-rule:evenodd;clip-rule:evenodd;stroke-linecap:square;"><g id="m1-line-koukai-large"><g id="Group"><path id="Rectangle" d="M121,29l165,0l0,100l-165,0c-2.209,0 -4,-1.791 -4,-4l0,-92c0,-2.209 1.791,-4 4,-4Z" style="fill:#58c322;fill-rule:nonzero;"/><circle id="Oval" cx="138" cy="58" r="10" style="fill:#fff;"/><circle id="Oval1" serif:id="Oval" cx="188" cy="108" r="10" style="fill:#fff;"/><circle id="Oval2" serif:id="Oval" cx="228" cy="98" r="10" style="fill:#fff;"/><circle id="Oval3" serif:id="Oval" cx="258" cy="78" r="10" style="fill:#fff;"/><path id="Path-18" d="M138,60l50,48l40,-10l30,-20" style="fill:none;fill-rule:nonzero;stroke:#fff;stroke-width:4px;"/></g><g id="Group1" serif:id="Group"><rect id="Rectangle1" serif:id="Rectangle" x="287" y="29" width="169" height="100" style="fill:#58c322;"/><circle id="Oval4" serif:id="Oval" cx="308" cy="58" r="10" style="fill:#fff;"/><circle id="Oval5" serif:id="Oval" cx="358" cy="108" r="10" style="fill:#fff;"/><circle id="Oval6" serif:id="Oval" cx="398" cy="98" r="10" style="fill:#fff;"/><circle id="Oval7" serif:id="Oval" cx="428" cy="78" r="10" style="fill:#fff;"/><path id="Path-181" serif:id="Path-18" d="M308,60l50,48l40,-10l30,-20" style="fill:none;fill-rule:nonzero;stroke:#fff;stroke-width:4px;"/></g><g id="Group2" serif:id="Group"><rect id="Rectangle2" serif:id="Rectangle" x="457" y="29" width="169" height="100" style="fill:#58c322;"/><circle id="Oval8" serif:id="Oval" cx="478" cy="58" r="10" style="fill:#fff;"/><circle id="Oval9" serif:id="Oval" cx="528" cy="108" r="10" style="fill:#fff;"/><circle id="Oval10" serif:id="Oval" cx="568" cy="98" r="10" style="fill:#fff;"/><circle id="Oval11" serif:id="Oval" cx="598" cy="78" r="10" style="fill:#fff;"/><path id="Path-182" serif:id="Path-18" d="M478,60l50,48l40,-10l30,-20" style="fill:none;fill-rule:nonzero;stroke:#fff;stroke-width:4px;"/></g><g id="Group3" serif:id="Group"><path id="Rectangle3" serif:id="Rectangle" d="M627,29l151,0c2.209,0 4,1.791 4,4l0,92c0,2.209 -1.791,4 -4,4l-151,0l0,-100Z" style="fill:#58c322;fill-rule:nonzero;"/><circle id="Oval12" serif:id="Oval" cx="648" cy="58" r="10" style="fill:#fff;"/><path id="Path-183" serif:id="Path-18" d="M648,60l40,0" style="fill:none;fill-rule:nonzero;stroke:#fff;stroke-width:4px;"/></g><g id="Group4" serif:id="Group"><path id="Rectangle4" serif:id="Rectangle" d="M121,149l165,0l0,100l-165,0c-2.209,0 -4,-1.791 -4,-4l0,-92c0,-2.209 1.791,-4 4,-4Z" style="fill:#ffbf00;fill-rule:nonzero;"/><circle id="Oval13" serif:id="Oval" cx="138" cy="178" r="10" style="fill:#fff;"/><circle id="Oval14" serif:id="Oval" cx="188" cy="228" r="10" style="fill:#fff;"/><circle id="Oval15" serif:id="Oval" cx="228" cy="218" r="10" style="fill:#fff;"/><circle id="Oval16" serif:id="Oval" cx="258" cy="198" r="10" style="fill:#fff;"/><path id="Path-184" serif:id="Path-18" d="M138,180l50,48l40,-10l30,-20" style="fill:none;fill-rule:nonzero;stroke:#fff;stroke-width:4px;"/></g><g id="Group5" serif:id="Group"><rect id="Rectangle5" serif:id="Rectangle" x="287" y="149" width="169" height="100" style="fill:#ffbf00;"/><circle id="Oval17" serif:id="Oval" cx="308" cy="178" r="10" style="fill:#fff;"/><circle id="Oval18" serif:id="Oval" cx="358" cy="228" r="10" style="fill:#fff;"/><circle id="Oval19" serif:id="Oval" cx="398" cy="218" r="10" style="fill:#fff;"/><circle id="Oval20" serif:id="Oval" cx="428" cy="198" r="10" style="fill:#fff;"/><path id="Path-185" serif:id="Path-18" d="M308,180l50,48l40,-10l30,-20" style="fill:none;fill-rule:nonzero;stroke:#fff;stroke-width:4px;"/></g><g id="Group6" serif:id="Group"><rect id="Rectangle6" serif:id="Rectangle" x="457" y="149" width="169" height="100" style="fill:#ffbf00;"/><circle id="Oval21" serif:id="Oval" cx="478" cy="178" r="10" style="fill:#fff;"/><circle id="Oval22" serif:id="Oval" cx="528" cy="228" r="10" style="fill:#fff;"/><circle id="Oval23" serif:id="Oval" cx="568" cy="218" r="10" style="fill:#fff;"/><circle id="Oval24" serif:id="Oval" cx="598" cy="198" r="10" style="fill:#fff;"/><path id="Path-186" serif:id="Path-18" d="M478,180l50,48l40,-10l30,-20" style="fill:none;fill-rule:nonzero;stroke:#fff;stroke-width:4px;"/></g><g id="Group7" serif:id="Group"><path id="Rectangle7" serif:id="Rectangle" d="M627,149l151,0c2.209,0 4,1.791 4,4l0,92c0,2.209 -1.791,4 -4,4l-151,0l0,-100Z" style="fill:#ffbf00;fill-rule:nonzero;"/><circle id="Oval25" serif:id="Oval" cx="648" cy="178" r="10" style="fill:#fff;"/><path id="Path-187" serif:id="Path-18" d="M648,180l40,0" style="fill:none;fill-rule:nonzero;stroke:#fff;stroke-width:4px;"/></g><g id="Group8" serif:id="Group"><path id="Rectangle8" serif:id="Rectangle" d="M121,269l165,0l0,100l-165,0c-2.209,0 -4,-1.791 -4,-4l0,-92c0,-2.209 1.791,-4 4,-4Z" style="fill:#ffbf00;fill-rule:nonzero;"/><circle id="Oval26" serif:id="Oval" cx="138" cy="298" r="10" style="fill:#fff;"/><circle id="Oval27" serif:id="Oval" cx="188" cy="348" r="10" style="fill:#fff;"/><circle id="Oval28" serif:id="Oval" cx="228" cy="338" r="10" style="fill:#fff;"/><circle id="Oval29" serif:id="Oval" cx="258" cy="318" r="10" style="fill:#fff;"/><path id="Path-188" serif:id="Path-18" d="M138,300l50,48l40,-10l30,-20" style="fill:none;fill-rule:nonzero;stroke:#fff;stroke-width:4px;"/></g><g id="Group9" serif:id="Group"><rect id="Rectangle9" serif:id="Rectangle" x="287" y="269" width="169" height="100" style="fill:#ffbf00;"/><circle id="Oval30" serif:id="Oval" cx="308" cy="298" r="10" style="fill:#fff;"/><circle id="Oval31" serif:id="Oval" cx="358" cy="348" r="10" style="fill:#fff;"/><circle id="Oval32" serif:id="Oval" cx="398" cy="338" r="10" style="fill:#fff;"/><circle id="Oval33" serif:id="Oval" cx="428" cy="318" r="10" style="fill:#fff;"/><path id="Path-189" serif:id="Path-18" d="M308,300l50,48l40,-10l30,-20" style="fill:none;fill-rule:nonzero;stroke:#fff;stroke-width:4px;"/></g><g id="Group10" serif:id="Group"><rect id="Rectangle10" serif:id="Rectangle" x="457" y="269" width="169" height="100" style="fill:#ffbf00;"/><circle id="Oval34" serif:id="Oval" cx="478" cy="298" r="10" style="fill:#fff;"/><circle id="Oval35" serif:id="Oval" cx="528" cy="348" r="10" style="fill:#fff;"/><circle id="Oval36" serif:id="Oval" cx="568" cy="338" r="10" style="fill:#fff;"/><circle id="Oval37" serif:id="Oval" cx="598" cy="318" r="10" style="fill:#fff;"/><path id="Path-1810" serif:id="Path-18" d="M478,300l50,48l40,-10l30,-20" style="fill:none;fill-rule:nonzero;stroke:#fff;stroke-width:4px;"/></g><g id="Group11" serif:id="Group"><path id="Rectangle11" serif:id="Rectangle" d="M627,269l151,0c2.209,0 4,1.791 4,4l0,92c0,2.209 -1.791,4 -4,4l-151,0l0,-100Z" style="fill:#ffbf00;fill-rule:nonzero;"/><circle id="Oval38" serif:id="Oval" cx="648" cy="298" r="10" style="fill:#fff;"/><path id="Path-1811" serif:id="Path-18" d="M648,300l40,0" style="fill:none;fill-rule:nonzero;stroke:#fff;stroke-width:4px;"/></g><g id="Group12" serif:id="Group"><path id="Rectangle12" serif:id="Rectangle" d="M121,389l165,0l0,100l-165,0c-2.209,0 -4,-1.791 -4,-4l0,-92c0,-2.209 1.791,-4 4,-4Z" style="fill:#ffbf00;fill-rule:nonzero;"/><circle id="Oval39" serif:id="Oval" cx="138" cy="418" r="10" style="fill:#fff;"/><circle id="Oval40" serif:id="Oval" cx="188" cy="468" r="10" style="fill:#fff;"/><circle id="Oval41" serif:id="Oval" cx="228" cy="458" r="10" style="fill:#fff;"/><circle id="Oval42" serif:id="Oval" cx="258" cy="438" r="10" style="fill:#fff;"/><path id="Path-1812" serif:id="Path-18" d="M138,420l50,48l40,-10l30,-20" style="fill:none;fill-rule:nonzero;stroke:#fff;stroke-width:4px;"/></g><g id="Group13" serif:id="Group"><rect id="Rectangle13" serif:id="Rectangle" x="287" y="389" width="169" height="100" style="fill:#ffbf00;"/><circle id="Oval43" serif:id="Oval" cx="308" cy="418" r="10" style="fill:#fff;"/><circle id="Oval44" serif:id="Oval" cx="358" cy="468" r="10" style="fill:#fff;"/><circle id="Oval45" serif:id="Oval" cx="398" cy="458" r="10" style="fill:#fff;"/><circle id="Oval46" serif:id="Oval" cx="428" cy="438" r="10" style="fill:#fff;"/><path id="Path-1813" serif:id="Path-18" d="M308,420l50,48l40,-10l30,-20" style="fill:none;fill-rule:nonzero;stroke:#fff;stroke-width:4px;"/></g><g id="Group14" serif:id="Group"><path id="Rectangle14" serif:id="Rectangle" d="M457,389l321,0c2.209,0 4,1.791 4,4l0,92c0,2.209 -1.791,4 -4,4l-321,0l0,-100Z" style="fill:#f50;fill-rule:nonzero;"/></g><g id="Group15" serif:id="Group"><circle id="Oval47" serif:id="Oval" cx="478" cy="408" r="10" style="fill:#fff;"/><circle id="Oval48" serif:id="Oval" cx="528" cy="418" r="10" style="fill:#fff;"/><circle id="Oval49" serif:id="Oval" cx="568" cy="438" r="10" style="fill:#fff;"/><circle id="Oval50" serif:id="Oval" cx="598" cy="453" r="10" style="fill:#fff;"/><circle id="Oval51" serif:id="Oval" cx="638" cy="464" r="10" style="fill:#fff;"/><circle id="Oval52" serif:id="Oval" cx="698" cy="472" r="10" style="fill:#fff;"/><circle id="Oval53" serif:id="Oval" cx="728" cy="478" r="10" style="fill:#fff;"/><path id="Path-1814" serif:id="Path-18" d="M478,408l50,10l70,35l40,11l60,8l30,6l31,0" style="fill:none;fill-rule:nonzero;stroke:#fff;stroke-width:4px;"/></g><g id="解消"><text x="592px" y="534px" style="font-family:'HiraginoSans-W6', 'Hiragino Sans', sans-serif;font-weight:600;font-size:28px;">解决</text></g><g id="提示"><text x="34px" y="90px" style="font-family:'HiraginoSans-W6', 'Hiragino Sans', sans-serif;font-weight:600;font-size:28px;">提出</text></g><g id="展開"><text x="25px" y="330px" style="font-family:'HiraginoSans-W6', 'Hiragino Sans', sans-serif;font-weight:600;font-size:28px;">展开</text></g><path id="Path-21" d="M97,149l-44,0l0,139" style="fill:none;fill-rule:nonzero;stroke:#000;stroke-width:2px;"/><path id="Path-22" d="M53,348l0,141l57,0" style="fill:none;fill-rule:nonzero;stroke:#000;stroke-width:2px;"/><path id="Path-23" d="M457,497l0,26l121,0" style="fill:none;fill-rule:nonzero;stroke:#000;stroke-width:2px;"/><path id="Path-24" d="M658,523l124,0l0,-26" style="fill:none;fill-rule:nonzero;stroke:#000;stroke-width:2px;"/></g></svg>