<?xml version="1.0" encoding="UTF-8" standalone="no"?><!DOCTYPE svg PUBLIC "-//W3C//DTD SVG 1.1//EN" "http://www.w3.org/Graphics/SVG/1.1/DTD/svg11.dtd"><svg width="1030.0px" height="200.0px" viewBox="0 0 1030 200" version="1.1" xmlns="http://www.w3.org/2000/svg" xmlns:xlink="http://www.w3.org/1999/xlink" xml:space="preserve" xmlns:serif="http://www.serif.com/" style="fill-rule:evenodd;clip-rule:evenodd;stroke-linecap:square;"><g id="m1-line-manekin"><g id="Group"><path id="Rectangle" d="M261,15c0,-2.208 -1.792,-4 -4,-4l-246,0c-2.208,0 -4,1.792 -4,4l0,92c0,2.208 1.792,4 4,4l246,0c2.208,0 4,-1.792 4,-4l0,-92Z" style="fill:#58c322;"/><circle id="Oval" cx="28" cy="40" r="10" style="fill:#fff;"/><circle id="Oval1" serif:id="Oval" cx="58" cy="40" r="10" style="fill:#fff;"/><circle id="Oval2" serif:id="Oval" cx="83" cy="50" r="10" style="fill:#fff;"/><circle id="Oval3" serif:id="Oval" cx="113" cy="50" r="10" style="fill:#fff;"/><circle id="Oval4" serif:id="Oval" cx="143" cy="60" r="10" style="fill:#fff;"/><circle id="Oval5" serif:id="Oval" cx="183" cy="60" r="10" style="fill:#fff;"/><circle id="Oval6" serif:id="Oval" cx="213" cy="70" r="10" style="fill:#fff;"/><path id="Path-18" d="M28,40l30,0l26,10l29,0l30,11l40,0l32,9" style="fill:none;fill-rule:nonzero;stroke:#fff;stroke-width:4px;"/></g><g id="Group1" serif:id="Group"><path id="Rectangle1" serif:id="Rectangle" d="M525,15c0,-2.208 -1.792,-4 -4,-4l-246,0c-2.208,0 -4,1.792 -4,4l0,92c0,2.208 1.792,4 4,4l246,0c2.208,0 4,-1.792 4,-4l0,-92Z" style="fill:#ffbf00;"/><circle id="Oval7" serif:id="Oval" cx="292" cy="50" r="10" style="fill:#fff;"/><circle id="Oval8" serif:id="Oval" cx="322" cy="50" r="10" style="fill:#fff;"/><circle id="Oval9" serif:id="Oval" cx="347" cy="60" r="10" style="fill:#fff;"/><circle id="Oval10" serif:id="Oval" cx="377" cy="60" r="10" style="fill:#fff;"/><circle id="Oval11" serif:id="Oval" cx="407" cy="70" r="10" style="fill:#fff;"/><circle id="Oval12" serif:id="Oval" cx="447" cy="70" r="10" style="fill:#fff;"/><circle id="Oval13" serif:id="Oval" cx="477" cy="80" r="10" style="fill:#fff;"/><path id="Path-181" serif:id="Path-18" d="M292,50l30,0l26,10l29,0l30,11l40,0l32,9" style="fill:none;fill-rule:nonzero;stroke:#fff;stroke-width:4px;"/></g><g id="Group2" serif:id="Group"><path id="Rectangle2" serif:id="Rectangle" d="M789,15c0,-2.208 -1.792,-4 -4,-4l-246,0c-2.208,0 -4,1.792 -4,4l0,92c0,2.208 1.792,4 4,4l246,0c2.208,0 4,-1.792 4,-4l0,-92Z" style="fill:#ffbf00;"/><circle id="Oval14" serif:id="Oval" cx="556" cy="40" r="10" style="fill:#fff;"/><circle id="Oval15" serif:id="Oval" cx="586" cy="40" r="10" style="fill:#fff;"/><circle id="Oval16" serif:id="Oval" cx="611" cy="50" r="10" style="fill:#fff;"/><circle id="Oval17" serif:id="Oval" cx="641" cy="50" r="10" style="fill:#fff;"/><circle id="Oval18" serif:id="Oval" cx="671" cy="60" r="10" style="fill:#fff;"/><circle id="Oval19" serif:id="Oval" cx="711" cy="60" r="10" style="fill:#fff;"/><circle id="Oval20" serif:id="Oval" cx="741" cy="70" r="10" style="fill:#fff;"/><path id="Path-182" serif:id="Path-18" d="M556,40l30,0l26,10l29,0l30,11l40,0l32,9" style="fill:none;fill-rule:nonzero;stroke:#fff;stroke-width:4px;"/></g><g id="Group3" serif:id="Group"><path id="Rectangle3" serif:id="Rectangle" d="M1009,15c0,-2.208 -1.792,-4 -4,-4l-202,0c-2.208,0 -4,1.792 -4,4l0,92c0,2.208 1.792,4 4,4l202,0c2.208,0 4,-1.792 4,-4l0,-92Z" style="fill:#f50;"/><circle id="Oval21" serif:id="Oval" cx="820" cy="70" r="10" style="fill:#fff;"/><circle id="Oval22" serif:id="Oval" cx="850" cy="60" r="10" style="fill:#fff;"/><circle id="Oval23" serif:id="Oval" cx="875" cy="50" r="10" style="fill:#fff;"/><circle id="Oval24" serif:id="Oval" cx="905" cy="50" r="10" style="fill:#fff;"/><circle id="Oval25" serif:id="Oval" cx="935" cy="40" r="10" style="fill:#fff;"/><path id="Path-183" serif:id="Path-18" d="M820,70l30,-10l26,-10l29,0l30,-9l40,0" style="fill:none;fill-rule:nonzero;stroke:#fff;stroke-width:4px;"/></g><path id="Path-25" d="M21.5,30.5l239.5,0l15,10l258,0l12,-10l227.5,0" style="fill:none;fill-rule:nonzero;stroke:#000;stroke-width:1px;stroke-dasharray:4,4;"/><g id="提示"><text x="106px" y="159px" style="font-family:'HiraginoSans-W6', 'Hiragino Sans', sans-serif;font-weight:600;font-size:28px;">提出</text></g><g id="展開"><text x="507px" y="159px" style="font-family:'HiraginoSans-W6', 'Hiragino Sans', sans-serif;font-weight:600;font-size:28px;">展开</text></g><g id="解消"><text x="876px" y="159px" style="font-family:'HiraginoSans-W6', 'Hiragino Sans', sans-serif;font-weight:600;font-size:28px;">解决</text></g><path id="Path-19" d="M274,130l0,18l220,0" style="fill:none;fill-rule:nonzero;stroke:#000;stroke-width:1.5px;"/><path id="Path-20" d="M573,148l216,0l0,-18" style="fill:none;fill-rule:nonzero;stroke:#000;stroke-width:1.5px;"/></g></svg>