<?xml version="1.0" encoding="UTF-8" standalone="no"?><!DOCTYPE svg PUBLIC "-//W3C//DTD SVG 1.1//EN" "http://www.w3.org/Graphics/SVG/1.1/DTD/svg11.dtd"><svg width="680.0px" height="170.0px" viewBox="0 0 680 170" version="1.1" xmlns="http://www.w3.org/2000/svg" xmlns:xlink="http://www.w3.org/1999/xlink" xml:space="preserve" xmlns:serif="http://www.serif.com/" style="fill-rule:evenodd;clip-rule:evenodd;stroke-linecap:square;"><g id="m1-line-koukai"><g id="Group"><path id="Rectangle" d="M172,15c0,-2.208 -1.792,-4 -4,-4l-157,0c-2.208,0 -4,1.792 -4,4l0,92c0,2.208 1.792,4 4,4l157,0c2.208,0 4,-1.792 4,-4l0,-92Z" style="fill:#58c322;"/><circle id="Oval" cx="28" cy="40" r="10" style="fill:#fff;"/><circle id="Oval1" serif:id="Oval" cx="78" cy="90" r="10" style="fill:#fff;"/><circle id="Oval2" serif:id="Oval" cx="118" cy="80" r="10" style="fill:#fff;"/><circle id="Oval3" serif:id="Oval" cx="148" cy="60" r="10" style="fill:#fff;"/><path id="Path-18" d="M28,42l50,48l40,-10l30,-20" style="fill:none;fill-rule:nonzero;stroke:#fff;stroke-width:4px;"/></g><g id="Group1" serif:id="Group"><path id="Rectangle1" serif:id="Rectangle" d="M342,15c0,-2.208 -1.792,-4 -4,-4l-157,0c-2.208,0 -4,1.792 -4,4l0,92c0,2.208 1.792,4 4,4l157,0c2.208,0 4,-1.792 4,-4l0,-92Z" style="fill:#ffbf00;"/><circle id="Oval4" serif:id="Oval" cx="198" cy="40" r="10" style="fill:#fff;"/><circle id="Oval5" serif:id="Oval" cx="248" cy="90" r="10" style="fill:#fff;"/><circle id="Oval6" serif:id="Oval" cx="288" cy="80" r="10" style="fill:#fff;"/><circle id="Oval7" serif:id="Oval" cx="318" cy="60" r="10" style="fill:#fff;"/><path id="Path-181" serif:id="Path-18" d="M198,42l50,48l40,-10l30,-20" style="fill:none;fill-rule:nonzero;stroke:#fff;stroke-width:4px;"/></g><g id="Group2" serif:id="Group"><path id="Rectangle2" serif:id="Rectangle" d="M512,15c0,-2.208 -1.792,-4 -4,-4l-157,0c-2.208,0 -4,1.792 -4,4l0,92c0,2.208 1.792,4 4,4l157,0c2.208,0 4,-1.792 4,-4l0,-92Z" style="fill:#ffbf00;"/><circle id="Oval8" serif:id="Oval" cx="368" cy="40" r="10" style="fill:#fff;"/><circle id="Oval9" serif:id="Oval" cx="418" cy="90" r="10" style="fill:#fff;"/><circle id="Oval10" serif:id="Oval" cx="458" cy="80" r="10" style="fill:#fff;"/><circle id="Oval11" serif:id="Oval" cx="488" cy="60" r="10" style="fill:#fff;"/><path id="Path-182" serif:id="Path-18" d="M368,42l50,48l40,-10l30,-20" style="fill:none;fill-rule:nonzero;stroke:#fff;stroke-width:4px;"/></g><g id="Group3" serif:id="Group"><path id="Rectangle3" serif:id="Rectangle" d="M672,15c0,-2.208 -1.792,-4 -4,-4l-147,0c-2.208,0 -4,1.792 -4,4l0,92c0,2.208 1.792,4 4,4l147,0c2.208,0 4,-1.792 4,-4l0,-92Z" style="fill:#f50;"/><circle id="Oval12" serif:id="Oval" cx="538" cy="40" r="10" style="fill:#fff;"/><path id="Path-183" serif:id="Path-18" d="M538,42l40,0" style="fill:none;fill-rule:nonzero;stroke:#fff;stroke-width:4px;"/></g><g id="提示"><text x="61px" y="149px" style="font-family:'HiraginoSans-W6', 'Hiragino Sans', sans-serif;font-weight:600;font-size:28px;">提出</text></g><g id="展開"><text x="317px" y="149px" style="font-family:'HiraginoSans-W6', 'Hiragino Sans', sans-serif;font-weight:600;font-size:28px;">展开</text></g><g id="解消"><text x="572px" y="149px" style="font-family:'HiraginoSans-W6', 'Hiragino Sans', sans-serif;font-weight:600;font-size:28px;">解决</text></g><path id="Path-19" d="M177,120l0,18l127,0" style="fill:none;fill-rule:nonzero;stroke:#000;stroke-width:1.5px;"/><path id="Path-20" d="M383,138l129,0l0,-18" style="fill:none;fill-rule:nonzero;stroke:#000;stroke-width:1.5px;"/></g></svg>