<?xml version="1.0" encoding="UTF-8" standalone="no"?><!DOCTYPE svg PUBLIC "-//W3C//DTD SVG 1.1//EN" "http://www.w3.org/Graphics/SVG/1.1/DTD/svg11.dtd"><svg width="540.0px" height="340.0px" viewBox="0 0 540 340" version="1.1" xmlns="http://www.w3.org/2000/svg" xmlns:xlink="http://www.w3.org/1999/xlink" xml:space="preserve" xmlns:serif="http://www.serif.com/" style="fill-rule:evenodd;clip-rule:evenodd;stroke-linecap:square;"><g id="m1-line-manekin-contrast"><g id="Group"><path id="Rectangle" d="M523,55c0,-2.208 -1.792,-4 -4,-4l-498,0c-2.208,0 -4,1.792 -4,4l0,92c0,2.208 1.792,4 4,4l498,0c2.208,0 4,-1.792 4,-4l0,-92Z" style="fill:#58c322;"/><circle id="Oval" cx="59" cy="80" r="10" style="fill:#fff;"/><circle id="Oval1" serif:id="Oval" cx="119" cy="80" r="10" style="fill:#fff;"/><circle id="Oval2" serif:id="Oval" cx="168" cy="90" r="10" style="fill:#fff;"/><circle id="Oval3" serif:id="Oval" cx="228" cy="90" r="10" style="fill:#fff;"/><circle id="Oval4" serif:id="Oval" cx="288" cy="100" r="10" style="fill:#fff;"/><circle id="Oval5" serif:id="Oval" cx="368" cy="100" r="10" style="fill:#fff;"/><circle id="Oval6" serif:id="Oval" cx="427" cy="110" r="10" style="fill:#fff;"/><path id="Path-18" d="M59,80l59.84,0l51.861,10l57.844,0l59.84,11l79.786,0l63.829,9" style="fill:none;fill-rule:nonzero;stroke:#fff;stroke-width:4px;"/></g><g id="Group1" serif:id="Group"><path id="Rectangle1" serif:id="Rectangle" d="M21,181l347,0l-7,15l7,15l-7,23l9,16l-9,16l7,15l-347,0c-2.209,0 -4,-1.791 -4,-4l0,-92c0,-2.209 1.791,-4 4,-4Z" style="fill:#f50;fill-rule:nonzero;"/><circle id="Oval7" serif:id="Oval" cx="59" cy="240" r="10" style="fill:#fff;"/><circle id="Oval8" serif:id="Oval" cx="119" cy="230" r="10" style="fill:#fff;"/><circle id="Oval9" serif:id="Oval" cx="168" cy="220" r="10" style="fill:#fff;"/><circle id="Oval10" serif:id="Oval" cx="228" cy="220" r="10" style="fill:#fff;"/><circle id="Oval11" serif:id="Oval" cx="288" cy="210" r="10" style="fill:#fff;"/><path id="Path-181" serif:id="Path-18" d="M59,240l59.806,-10l51.833,-10l57.813,0l59.806,-9l59.742,0" style="fill:none;fill-rule:nonzero;stroke:#fff;stroke-width:4px;"/></g><path id="Line-5" d="M49.653,51.358l1.995,0.147l367.065,27.225l0.74,-9.972l23.047,13.742l-24.822,10.192l0.74,-9.973l-367.066,-27.224l-1.994,-0.148l0.295,-3.989Z" style="fill-rule:nonzero;"/><path id="Line-51" serif:id="Line-5" d="M418.014,221.216l24.986,9.784l-22.818,14.118l-0.904,-9.959l-367.597,33.333l-1.992,0.18l-0.361,-3.983l1.991,-0.181l367.598,-33.333l-0.903,-9.959Z" style="fill-rule:nonzero;"/><g id="モチーフは下がる"><text x="167.8px" y="40px" style="font-family:'HarmonyOS_Sans_SC_Bold', 'HarmonyOS Sans SC';font-weight:700;font-size:20px;">动机下降进行</text></g><g id="リクイデーションは上がる"><text x="171px" y="311px" style="font-family:'HarmonyOS_Sans_SC_Bold', 'HarmonyOS Sans SC';font-weight:700;font-size:20px;">解决上行进行</text></g></g></svg>