<?xml version="1.0" encoding="UTF-8" standalone="no"?><!DOCTYPE svg PUBLIC "-//W3C//DTD SVG 1.1//EN" "http://www.w3.org/Graphics/SVG/1.1/DTD/svg11.dtd"><svg width="690.0px" height="170.0px" viewBox="0 0 690 170" version="1.1" xmlns="http://www.w3.org/2000/svg" xmlns:xlink="http://www.w3.org/1999/xlink" xml:space="preserve" xmlns:serif="http://www.serif.com/" style="fill-rule:evenodd;clip-rule:evenodd;stroke-linecap:square;"><g id="m1-line-pirates"><g id="Group"><path id="Rectangle" d="M172,15c0,-2.208 -1.792,-4 -4,-4l-157,0c-2.208,0 -4,1.792 -4,4l0,92c0,2.208 1.792,4 4,4l157,0c2.208,0 4,-1.792 4,-4l0,-92Z" style="fill:#58c322;"/><circle id="Oval" cx="28" cy="90" r="10" style="fill:#fff;"/><circle id="Oval1" serif:id="Oval" cx="53" cy="70" r="10" style="fill:#fff;"/><circle id="Oval2" serif:id="Oval" cx="79" cy="60" r="10" style="fill:#fff;"/><circle id="Oval3" serif:id="Oval" cx="129" cy="60" r="10" style="fill:#fff;"/><path id="Path-18" d="M28,90l25,-20l30,-10l51,0" style="fill:none;fill-rule:nonzero;stroke:#fff;stroke-width:4px;"/></g><g id="Group1" serif:id="Group"><path id="Rectangle1" serif:id="Rectangle" d="M342,15c0,-2.208 -1.792,-4 -4,-4l-157,0c-2.208,0 -4,1.792 -4,4l0,92c0,2.208 1.792,4 4,4l157,0c2.208,0 4,-1.792 4,-4l0,-92Z" style="fill:#ffbf00;"/><circle id="Oval4" serif:id="Oval" cx="198" cy="60" r="10" style="fill:#fff;"/><circle id="Oval5" serif:id="Oval" cx="223" cy="50" r="10" style="fill:#fff;"/><circle id="Oval6" serif:id="Oval" cx="249" cy="40" r="10" style="fill:#fff;"/><circle id="Oval7" serif:id="Oval" cx="304" cy="40" r="10" style="fill:#fff;"/><path id="Path-181" serif:id="Path-18" d="M198,60l25,-10l30,-10l51,0" style="fill:none;fill-rule:nonzero;stroke:#fff;stroke-width:4px;"/></g><g id="Group2" serif:id="Group"><path id="Rectangle2" serif:id="Rectangle" d="M682,15c0,-2.208 -1.792,-4 -4,-4l-157,0c-2.208,0 -4,1.792 -4,4l0,92c0,2.208 1.792,4 4,4l157,0c2.208,0 4,-1.792 4,-4l0,-92Z" style="fill:#f50;"/><circle id="Oval8" serif:id="Oval" cx="538" cy="60" r="10" style="fill:#fff;"/><circle id="Oval9" serif:id="Oval" cx="563" cy="70" r="10" style="fill:#fff;"/><circle id="Oval10" serif:id="Oval" cx="589" cy="70" r="10" style="fill:#fff;"/><circle id="Oval11" serif:id="Oval" cx="619" cy="60" r="10" style="fill:#fff;"/><path id="Path-182" serif:id="Path-18" d="M538,60l25,10l26,0l33,-9" style="fill:none;fill-rule:nonzero;stroke:#fff;stroke-width:4px;"/></g><g id="Group3" serif:id="Group"><path id="Rectangle3" serif:id="Rectangle" d="M512,15c0,-2.208 -1.792,-4 -4,-4l-157,0c-2.208,0 -4,1.792 -4,4l0,92c0,2.208 1.792,4 4,4l157,0c2.208,0 4,-1.792 4,-4l0,-92Z" style="fill:#ffbf00;"/><circle id="Oval12" serif:id="Oval" cx="368" cy="40" r="10" style="fill:#fff;"/><circle id="Oval13" serif:id="Oval" cx="393" cy="30" r="10" style="fill:#fff;"/><circle id="Oval14" serif:id="Oval" cx="419" cy="50" r="10" style="fill:#fff;"/><circle id="Oval15" serif:id="Oval" cx="474" cy="50" r="10" style="fill:#fff;"/><path id="Path-183" serif:id="Path-18" d="M368,40l25,-10l30,20l51,0" style="fill:none;fill-rule:nonzero;stroke:#fff;stroke-width:4px;"/></g><g id="提示"><text x="61px" y="149px" style="font-family:'HiraginoSans-W6', 'Hiragino Sans', sans-serif;font-weight:600;font-size:28px;">提出</text></g><g id="展開"><text x="317px" y="149px" style="font-family:'HiraginoSans-W6', 'Hiragino Sans', sans-serif;font-weight:600;font-size:28px;">展开</text></g><g id="解消"><text x="572px" y="149px" style="font-family:'HiraginoSans-W6', 'Hiragino Sans', sans-serif;font-weight:600;font-size:28px;">解决</text></g><path id="Path-19" d="M177,120l0,18l127,0" style="fill:none;fill-rule:nonzero;stroke:#000;stroke-width:1.5px;"/><path id="Path-20" d="M383,138l129,0l0,-18" style="fill:none;fill-rule:nonzero;stroke:#000;stroke-width:1.5px;"/></g></svg>