<?xml version="1.0" encoding="UTF-8" standalone="no"?><!DOCTYPE svg PUBLIC "-//W3C//DTD SVG 1.1//EN" "http://www.w3.org/Graphics/SVG/1.1/DTD/svg11.dtd"><svg width="900.0px" height="270.0px" viewBox="0 0 900 270" version="1.1" xmlns="http://www.w3.org/2000/svg" xmlns:xlink="http://www.w3.org/1999/xlink" xml:space="preserve" xmlns:serif="http://www.serif.com/" style="fill-rule:evenodd;clip-rule:evenodd;stroke-linecap:square;"><g id="m1-melody-timing"><path id="Rectangle" d="M261,145c0,-2.208 -1.792,-4 -4,-4l-246,0c-2.208,0 -4,1.792 -4,4l0,92c0,2.208 1.792,4 4,4l246,0c2.208,0 4,-1.792 4,-4l0,-92Z" style="fill:#58c322;"/><path id="Rectangle1" serif:id="Rectangle" d="M875,145c0,-2.208 -1.792,-4 -4,-4l-601,0c-2.208,0 -4,1.792 -4,4l0,92c0,2.208 1.792,4 4,4l601,0c2.208,0 4,-1.792 4,-4l0,-92Z" style="fill:#ffbf00;"/><rect id="Rectangle2" serif:id="Rectangle" x="336" y="109" width="254" height="20"/><rect id="Rectangle3" serif:id="Rectangle" x="266" y="39" width="254" height="20"/><rect id="Rectangle4" serif:id="Rectangle" x="166" y="74" width="297" height="20"/><g id="メロパート"><text x="77px" y="202px" style="font-family:'HiraginoSans-W6', 'Hiragino Sans', sans-serif;font-weight:600;font-size:28px;fill:#fff;">主歌部分</text></g><g id="サビパート"><text x="316px" y="202px" style="font-family:'HiraginoSans-W6', 'Hiragino Sans', sans-serif;font-weight:600;font-size:28px;fill:#fff;">副歌部分</text></g><path id="Path-37" d="M266,24l0,238" style="fill:none;fill-rule:nonzero;stroke:#000;stroke-width:1px;stroke-dasharray:4,4;"/><g id="_-" serif:id="}"><path id="path-1" d="M634.39,131.444c8.856,-0 13.608,-4.32 13.608,-12.528l0,-20.952c0,-9.828 0.972,-11.88 5.832,-12.852l0,-4.644c-4.792,-0.852 -5.804,-2.963 -5.831,-12.441l-0.001,-21.363c0,-8.208 -4.752,-12.528 -13.608,-12.528l-3.348,0l0,4.968l2.592,0c6.372,0 8.964,2.376 8.964,7.992l-0,17.712c-0,13.608 0.648,15.66 5.616,18.036c-4.912,2.242 -5.601,4.273 -5.616,17.469l-0,18.171c-0,5.616 -2.592,7.992 -8.964,7.992l-2.592,0l0,4.968l3.348,0Z" style="fill:#fff;fill-rule:nonzero;"/><path id="path-11" serif:id="path-1" d="M634.39,131.444c8.856,-0 13.608,-4.32 13.608,-12.528l0,-20.952c0,-9.828 0.972,-11.88 5.832,-12.852l0,-4.644c-4.792,-0.852 -5.804,-2.963 -5.831,-12.441l-0.001,-21.363c0,-8.208 -4.752,-12.528 -13.608,-12.528l-3.348,0l0,4.968l2.592,0c6.372,0 8.964,2.376 8.964,7.992l-0,17.712c-0,13.608 0.648,15.66 5.616,18.036c-4.912,2.242 -5.601,4.273 -5.616,17.469l-0,18.171c-0,5.616 -2.592,7.992 -8.964,7.992l-2.592,0l0,4.968l3.348,0Z" style="fill-rule:nonzero;"/></g><g id="メロディが入る-タイミング"><text x="674.63px" y="84px" style="font-family:'NotoSansSC-Bold', 'Noto Sans SC', sans-serif;font-weight:700;font-size:28px;">旋律进入的</text><text x="687.664px" y="112px" style="font-family:'NotoSansSC-Bold', 'Noto Sans SC', sans-serif;font-weight:700;font-size:28px;">时间安排</text></g><path id="_-1" serif:id="①" d="M242,61.772c3.528,0 6.888,-1.4 9.492,-3.92c2.464,-2.408 3.92,-5.936 3.92,-9.492c0,-7.42 -5.992,-13.412 -13.412,-13.412c-7.42,0 -13.412,5.992 -13.412,13.412c0,7.392 6.02,13.412 13.412,13.412Zm0,-1.176c-6.748,0 -12.236,-5.488 -12.236,-12.236c0,-6.748 5.488,-12.236 12.236,-12.236c6.776,0 12.236,5.46 12.236,12.236c0,6.748 -5.488,12.236 -12.236,12.236Zm2.24,-2.856c-0.14,-0.952 -0.196,-1.736 -0.196,-2.996l0,-11.564c0,-1.176 0.084,-2.8 0.196,-3.78c-0.789,0.076 -1.208,0.106 -2.098,0.111l-2.41,0.001c-1.568,-0.028 -1.568,-0.028 -2.324,-0.14l0,2.996c0.924,-0.112 1.54,-0.14 2.38,-0.14l1.036,0l0,12.516c0,1.26 -0.056,1.96 -0.168,2.996l3.584,0Z" style="fill-rule:nonzero;"/><path id="_-2" serif:id="②" d="M142,96.772c3.528,0 6.888,-1.4 9.492,-3.92c2.464,-2.408 3.92,-5.936 3.92,-9.492c0,-7.42 -5.992,-13.412 -13.412,-13.412c-7.42,0 -13.412,5.992 -13.412,13.412c0,7.392 6.02,13.412 13.412,13.412Zm0,-1.176c-6.748,0 -12.236,-5.488 -12.236,-12.236c0,-6.748 5.488,-12.236 12.236,-12.236c6.776,0 12.236,5.46 12.236,12.236c0,6.748 -5.488,12.236 -12.236,12.236Zm6.86,-3.052l0,-3.052c-0.882,0.101 -1.651,0.134 -2.755,0.139l-6.765,0.001c0.504,-1.624 1.4,-2.604 4.284,-4.592c0.924,-0.644 2.296,-1.624 2.52,-1.792c1.736,-1.316 2.464,-2.604 2.464,-4.396c0,-3.08 -2.492,-5.04 -6.468,-5.04c-2.352,0 -4.172,0.7 -5.32,2.044c-0.84,0.952 -1.232,1.848 -1.596,3.668l3.388,0.42c0.112,-1.036 0.28,-1.54 0.672,-2.1c0.588,-0.896 1.54,-1.344 2.856,-1.344c1.904,0 3.08,0.924 3.08,2.408c0,1.12 -0.532,1.904 -1.932,2.856c-2.828,1.932 -2.968,2.044 -3.724,2.688c-2.016,1.736 -3.192,3.388 -3.892,5.516c-0.28,0.868 -0.364,1.232 -0.532,2.548c0.84,-0.084 1.26,-0.112 2.968,-0.112l7.476,-0c1.12,-0 2.072,0.056 3.276,0.14Z" style="fill-rule:nonzero;"/><path id="_-3" serif:id="③" d="M312,130.772c3.528,0 6.888,-1.4 9.492,-3.92c2.464,-2.408 3.92,-5.936 3.92,-9.492c-0,-7.42 -5.992,-13.412 -13.412,-13.412c-7.42,0 -13.412,5.992 -13.412,13.412c-0,7.392 6.02,13.412 13.412,13.412Zm-0,-1.176c-6.748,0 -12.236,-5.488 -12.236,-12.236c-0,-6.748 5.488,-12.236 12.236,-12.236c6.776,0 12.236,5.46 12.236,12.236c-0,6.748 -5.488,12.236 -12.236,12.236Zm-0.084,-2.688c4.368,0 7,-1.988 7,-5.264c-0,-1.512 -0.532,-2.716 -1.568,-3.5c-0.812,-0.644 -1.568,-0.896 -3.136,-1.092c1.596,-0.308 2.38,-0.672 3.108,-1.484c0.672,-0.756 1.008,-1.792 1.008,-3.108c-0,-2.772 -2.52,-4.648 -6.244,-4.648c-2.52,-0 -4.368,0.7 -5.572,2.1c-0.56,0.672 -0.84,1.204 -1.232,2.464l3.416,0.56c0.224,-0.868 0.42,-1.232 0.812,-1.652c0.588,-0.532 1.372,-0.812 2.408,-0.812c1.876,-0 2.996,0.924 2.996,2.52c-0,1.792 -1.232,2.772 -3.472,2.772c-1.064,-0 -1.484,-0.028 -2.24,-0.112l-0,2.828c0.868,-0.084 1.652,-0.14 2.408,-0.14c2.632,-0 3.892,0.952 3.892,2.912c-0,1.876 -1.372,2.996 -3.612,2.996c-1.12,-0 -2.044,-0.308 -2.772,-0.924c-0.56,-0.476 -0.784,-0.896 -1.036,-1.82l-3.36,0.644c0.42,1.344 0.728,1.932 1.316,2.604c1.288,1.456 3.164,2.156 5.88,2.156Z" style="fill-rule:nonzero;"/></g></svg>