<?xml version="1.0" encoding="UTF-8" standalone="no"?><!DOCTYPE svg PUBLIC "-//W3C//DTD SVG 1.1//EN" "http://www.w3.org/Graphics/SVG/1.1/DTD/svg11.dtd"><svg width="880.0px" height="335.0px" viewBox="0 0 880 335" version="1.1" xmlns="http://www.w3.org/2000/svg" xmlns:xlink="http://www.w3.org/1999/xlink" xml:space="preserve" xmlns:serif="http://www.serif.com/" style="fill-rule:evenodd;clip-rule:evenodd;stroke-linecap:square;"><g id="m1-melody-3-phases2"><path id="Combined-Shape" d="M81.392,271.588c1.372,0 2.52,0.336 3.612,1.064c1.96,1.344 2.94,3.304 2.94,5.908c0,4.144 -2.576,6.888 -6.468,6.888c-1.876,-0 -3.248,-0.588 -4.34,-1.848l0,7.196l-3.556,-0l0,-18.76l3.556,-0l0,1.596c1.064,-1.428 2.324,-2.044 4.256,-2.044Zm621.678,-0c1.848,-0 3.052,0.56 4.144,1.932l0,-1.484l3.556,-0l0,18.76l-3.556,-0l0,-7.196c-1.148,1.288 -2.492,1.848 -4.396,1.848c-3.78,-0 -6.356,-2.772 -6.356,-6.832c0,-4.144 2.716,-7.028 6.608,-7.028Zm-359.926,-5.264l5.572,11.34l5.6,-11.34l4.34,-0l0,18.676l-3.836,-0l0,-11.648l-6.104,12.208l-6.076,-12.208l0,11.648l-3.836,-0l0,-18.676l4.34,-0Zm-170.976,-0l5.572,11.34l5.6,-11.34l4.34,-0l0,18.676l-3.836,-0l0,-11.648l-6.104,12.208l-6.076,-12.208l0,11.648l-3.836,-0l0,-18.676l4.34,-0Zm619.046,5.264c4.088,-0 7.028,2.968 7.028,7.056c0,3.808 -3.108,6.804 -7.084,6.804c-4.088,-0 -7.028,-2.884 -7.028,-6.916c0,-4.116 2.884,-6.944 7.084,-6.944Zm-32.76,0c1.764,0 2.968,0.616 4.228,2.1l0,-1.652l3.556,-0l0,12.964l-3.556,-0l0,-1.792c-1.204,1.54 -2.604,2.24 -4.508,2.24c-3.64,-0 -6.244,-2.828 -6.244,-6.776c0,-4.088 2.744,-7.084 6.524,-7.084Zm-9.184,-5.264l0,18.676l-3.556,-0l0,-1.708c-1.12,1.54 -2.352,2.156 -4.34,2.156c-3.836,-0 -6.412,-2.744 -6.412,-6.804c0,-2.184 0.728,-4.004 2.072,-5.264c1.232,-1.148 2.8,-1.792 4.396,-1.792c1.764,-0 3.024,0.56 4.284,1.876l0,-7.14l3.556,-0Zm-31.668,5.712l0,7.98c0,1.456 0.868,2.436 2.156,2.436c1.316,-0 2.1,-0.84 2.1,-2.212l0,-8.204l3.556,-0l0,8.204c0,1.904 -0.392,2.968 -1.456,3.864c-1.036,0.868 -2.492,1.344 -4.2,1.344c-1.792,-0 -3.332,-0.504 -4.34,-1.428c-0.924,-0.84 -1.372,-2.072 -1.372,-3.78l0,-8.204l3.556,-0Zm-569.654,-0.448c1.764,-0 2.968,0.616 4.228,2.1l0,-1.652l3.556,-0l0,12.964l-3.556,-0l0,-1.792c-1.204,1.54 -2.604,2.24 -4.508,2.24c-3.64,-0 -6.244,-2.828 -6.244,-6.776c0,-4.088 2.744,-7.084 6.524,-7.084Zm49.672,-0c4.088,-0 7.028,2.968 7.028,7.056c0,3.808 -3.108,6.804 -7.084,6.804c-4.088,-0 -7.028,-2.884 -7.028,-6.916c0,-4.116 2.884,-6.944 7.084,-6.944Zm333.628,-0c2.968,-0 4.76,1.568 4.844,4.2l-3.36,-0l0,-0.224c0,-0.784 -0.7,-1.344 -1.652,-1.344c-0.868,-0 -1.428,0.476 -1.428,1.176c0,0.336 0.14,0.672 0.364,0.84c0.082,0.064 0.148,0.115 0.217,0.16l0.086,0.052c0.255,0.144 0.64,0.259 1.909,0.656c2.912,0.896 4.06,2.044 4.06,4.144c0,2.52 -2.016,4.2 -5.04,4.2c-3.08,-0 -4.956,-1.568 -5.096,-4.256l3.416,-0c0.168,1.12 0.672,1.624 1.708,1.624c0.84,-0 1.428,-0.504 1.428,-1.232c0,-0.784 -0.504,-1.148 -2.408,-1.736c-2.8,-0.84 -4.06,-2.1 -4.06,-4.144c0,-2.464 1.988,-4.116 5.012,-4.116Zm-406.988,-0c4.144,-0 7.028,2.912 7.028,7.084l-0.028,0.7l-10.136,-0c0.308,1.792 1.624,2.912 3.388,2.912c1.316,-0 2.436,-0.644 2.996,-1.68l3.276,0.896c-1.288,2.52 -3.556,3.948 -6.3,3.948c-4.116,-0 -7.056,-2.912 -7.056,-6.944c0,-4.06 2.828,-6.916 6.832,-6.916Zm378.4,-0c4.088,-0 7.028,2.968 7.028,7.056c0,3.808 -3.108,6.804 -7.084,6.804c-4.088,-0 -7.028,-2.884 -7.028,-6.916c0,-4.116 2.884,-6.944 7.084,-6.944Zm-32.76,0c1.764,0 2.968,0.616 4.228,2.1l0,-1.652l3.556,-0l0,12.964l-3.556,-0l0,-1.792c-1.204,1.54 -2.604,2.24 -4.508,2.24c-3.64,-0 -6.244,-2.828 -6.244,-6.776c0,-4.088 2.744,-7.084 6.524,-7.084Zm-359.304,-0c2.968,-0 4.76,1.568 4.844,4.2l-3.36,-0l0,-0.224c0,-0.784 -0.7,-1.344 -1.652,-1.344c-0.868,-0 -1.428,0.476 -1.428,1.176c0,0.336 0.14,0.672 0.364,0.84c0.392,0.308 0.42,0.308 2.212,0.868c2.912,0.896 4.06,2.044 4.06,4.144c0,2.52 -2.016,4.2 -5.04,4.2c-3.08,-0 -4.956,-1.568 -5.096,-4.256l3.416,0c0.168,1.12 0.672,1.624 1.708,1.624c0.84,-0 1.428,-0.504 1.428,-1.232c0,-0.784 -0.504,-1.148 -2.408,-1.736c-2.8,-0.84 -4.06,-2.1 -4.06,-4.144c0,-2.464 1.988,-4.116 5.012,-4.116Zm257.468,0c1.764,0 2.968,0.616 4.228,2.1l0,-1.652l3.556,-0l0,12.964l-3.556,-0l0,-1.792c-1.204,1.54 -2.604,2.24 -4.508,2.24c-3.64,-0 -6.244,-2.828 -6.244,-6.776c0,-4.088 2.744,-7.084 6.524,-7.084Zm68.6,-0c1.764,-0 2.968,0.616 4.228,2.1l0,-1.652l3.556,-0l0,12.964l-3.556,-0l0,-1.792c-1.204,1.54 -2.604,2.24 -4.508,2.24c-3.64,-0 -6.244,-2.828 -6.244,-6.776c0,-4.088 2.744,-7.084 6.524,-7.084Zm-38.556,-0c4.144,-0 7.028,2.912 7.028,7.084l-0.028,0.7l-10.136,-0c0.308,1.792 1.624,2.912 3.388,2.912c1.316,-0 2.436,-0.644 2.996,-1.68l3.276,0.896c-1.288,2.52 -3.556,3.948 -6.3,3.948c-4.116,-0 -7.056,-2.912 -7.056,-6.944c0,-4.06 2.828,-6.916 6.832,-6.916Zm-301.232,-0c4.088,-0 7.028,2.968 7.028,7.056c0,3.808 -3.108,6.804 -7.084,6.804c-4.088,-0 -7.028,-2.884 -7.028,-6.916c0,-4.116 2.884,-6.944 7.084,-6.944Zm422.528,0c1.232,0 2.408,0.448 3.192,1.204c0.84,0.84 1.148,1.876 1.148,4.004l0,8.204l-3.556,-0l0,-8.036c0,-0.728 -0.084,-1.148 -0.308,-1.512c-0.336,-0.532 -1.008,-0.868 -1.708,-0.868c-1.372,-0 -2.296,1.036 -2.296,2.548l0,7.868l-3.556,-0l0,-12.964l3.556,-0l0,1.596c0.952,-1.484 1.904,-2.044 3.528,-2.044Zm288.554,-0c1.232,-0 2.408,0.448 3.192,1.204c0.84,0.84 1.148,1.876 1.148,4.004l0,8.204l-3.556,-0l0,-8.036c0,-0.728 -0.084,-1.148 -0.308,-1.512c-0.336,-0.532 -1.008,-0.868 -1.708,-0.868c-1.372,-0 -2.296,1.036 -2.296,2.548l0,7.868l-3.556,-0l0,-12.964l3.556,-0l0,1.596c0.952,-1.484 1.904,-2.044 3.528,-2.044Zm-322.91,-3.08l0,3.472l1.624,-0l0,2.996l-1.624,-0l0,6.216c0,0.616 0.224,0.784 1.008,0.84l0.616,-0l0,2.968l-2.828,-0c-1.736,-0.056 -2.38,-0.756 -2.352,-2.464l0,-7.56l-1.484,-0l0,-2.996l1.484,-0l0,-3.472l3.556,-0Zm296.394,3.528l0,12.964l-3.556,-0l0,-12.964l3.556,-0Zm-7.84,-3.528l0,3.472l1.624,-0l0,2.996l-1.624,-0l0,6.216c0,0.616 0.224,0.784 1.008,0.84l0.616,-0l0,2.968l-2.828,-0c-1.736,-0.056 -2.38,-0.756 -2.352,-2.464l0,-7.56l-1.484,-0l0,-2.996l1.484,-0l0,-3.472l3.556,-0Zm-41.356,3.528l0,12.964l-3.556,-0l0,-12.964l3.556,-0Zm-349.342,-5.712l0,10.696l3.612,-4.984l4.116,-0l-4.396,6.216l4.396,6.748l-4.116,-0l-3.612,-5.376l0,5.376l-3.556,-0l0,-18.676l3.556,-0Zm310.87,5.712l0,12.964l-3.556,-0l0,-12.964l3.556,-0Zm-11.956,-5.712l0,15.512l6.244,-0l0,3.164l-10.08,-0l0,-18.676l3.836,-0Zm-188.93,5.712l0,12.964l-3.556,-0l0,-12.964l3.556,-0Zm-435.772,-5.712l0,3.136l-6.552,-0l0,4.592l6.552,-0l0,3.136l-6.552,-0l0,4.676l6.552,-0l0,3.136l-10.388,-0l0,-18.676l10.388,-0Zm403.544,5.712l0,12.964l-3.556,-0l0,-12.964l3.556,-0Zm-397.832,-0l2.38,3.444l2.296,-3.444l4.34,-0l-4.62,6.524l4.536,6.44l-4.312,-0l-2.24,-3.528l-2.38,3.528l-4.2,-0l4.508,-6.44l-4.788,-6.524l4.48,-0Zm148.148,-3.528l0,3.472l1.624,-0l0,2.996l-1.624,-0l0,6.216c0,0.616 0.224,0.784 1.008,0.84l0.616,-0l0,2.968l-2.828,-0c-1.736,-0.056 -2.38,-0.756 -2.352,-2.464l0,-7.56l-1.484,-0l0,-2.996l1.484,-0l0,-3.472l3.556,-0Zm7.84,3.528l0,12.964l-3.556,-0l0,-12.964l3.556,-0Zm8.787,-5.717l0.257,0.005l0,3.276c-1.232,0.14 -1.708,0.616 -1.708,1.708l0,0.728l1.708,-0l0,2.996l-1.708,-0l0,9.968l-3.556,-0l0,-9.968l-1.428,-0l0,-2.996l1.428,-0l0,-0.728c0,-3.472 1.708,-5.096 5.264,-4.984l-0.257,-0.005Zm227.149,5.269c0.084,-0 0.224,-0 0.42,0.028l0,3.64c-0.28,-0.028 -0.56,-0.056 -0.756,-0.056c-0.98,-0 -1.876,0.448 -2.38,1.176c-0.42,0.588 -0.532,1.148 -0.532,2.38l0,6.244l-3.556,-0l-0,-12.964l3.556,-0l0,1.904c0.364,-0.952 0.616,-1.344 1.148,-1.736c0.56,-0.392 1.316,-0.616 2.1,-0.616Zm-36.428,-5.264l3.78,12.516l3.948,-12.516l3.948,-0l-5.88,18.676l-4.088,-0l-5.656,-18.676l3.948,-0Zm-49.532,8.26c-2.016,-0 -3.444,1.652 -3.444,4.032c0,2.268 1.484,3.976 3.416,3.976c1.988,-0 3.584,-1.848 3.584,-4.088c0,-2.296 -1.456,-3.92 -3.556,-3.92Zm101.836,-0c-2.016,-0 -3.444,1.652 -3.444,4.032c0,2.268 1.484,3.976 3.416,3.976c1.988,-0 3.584,-1.848 3.584,-4.088c0,-2.296 -1.456,-3.92 -3.556,-3.92Zm-33.236,-0c-2.016,-0 -3.444,1.652 -3.444,4.032c0,2.268 1.484,3.976 3.416,3.976c1.988,-0 3.584,-1.848 3.584,-4.088c0,-2.296 -1.456,-3.92 -3.556,-3.92Zm-288.716,-0c-2.016,-0 -3.444,1.652 -3.444,4.032c0,2.268 1.484,3.976 3.416,3.976c1.988,-0 3.584,-1.848 3.584,-4.088c0,-2.296 -1.456,-3.92 -3.556,-3.92Zm-67.984,-0c-2.1,-0 -3.556,1.68 -3.556,4.088c0,2.352 1.372,3.92 3.444,3.92c2.072,-0 3.556,-1.652 3.556,-3.948c0,-2.38 -1.428,-4.06 -3.444,-4.06Zm678.49,-0c-2.016,-0 -3.444,1.652 -3.444,4.032c0,2.268 1.484,3.976 3.416,3.976c1.988,-0 3.584,-1.848 3.584,-4.088c0,-2.296 -1.456,-3.92 -3.556,-3.92Zm-16.912,-0c-2.044,-0 -3.528,1.708 -3.528,4.088c0,2.24 1.484,3.92 3.5,3.92c1.96,-0 3.472,-1.708 3.472,-3.948c0,-2.352 -1.456,-4.06 -3.444,-4.06Zm-38.5,-0c-2.044,-0 -3.5,1.68 -3.5,4.004c0,2.296 1.456,4.004 3.444,4.004c2.016,-0 3.528,-1.708 3.528,-3.976c0,-2.352 -1.456,-4.032 -3.472,-4.032Zm-506.15,0.196c-2.1,-0 -3.5,1.484 -3.5,3.752c0,2.24 1.4,3.752 3.472,3.752c2.044,-0 3.472,-1.54 3.472,-3.696c0,-2.352 -1.316,-3.808 -3.444,-3.808Zm-100.744,-0c-2.1,-0 -3.5,1.484 -3.5,3.752c0,2.24 1.4,3.752 3.472,3.752c2.044,-0 3.472,-1.54 3.472,-3.696c0,-2.352 -1.316,-3.808 -3.444,-3.808Zm405.784,-0c-2.1,-0 -3.5,1.484 -3.5,3.752c0,2.24 1.4,3.752 3.472,3.752c2.044,-0 3.472,-1.54 3.472,-3.696c0,-2.352 -1.316,-3.808 -3.444,-3.808Zm288.554,-0c-2.1,-0 -3.5,1.484 -3.5,3.752c0,2.24 1.4,3.752 3.472,3.752c2.044,-0 3.472,-1.54 3.472,-3.696c0,-2.352 -1.316,-3.808 -3.444,-3.808Zm-393.05,-0.196c-1.708,-0 -2.856,0.98 -3.192,2.744l6.496,-0c-0.308,-1.708 -1.54,-2.744 -3.304,-2.744Zm-273.848,-0c-1.708,-0 -2.856,0.98 -3.192,2.744l6.496,-0c-0.308,-1.708 -1.54,-2.744 -3.304,-2.744Zm366.808,-8.232c1.148,-0 1.96,0.84 1.96,2.016c0,1.092 -0.84,1.932 -1.96,1.932c-1.148,-0 -1.988,-0.84 -1.988,-1.96c0,-1.148 0.84,-1.988 1.988,-1.988Zm-32.228,-0c1.148,-0 1.96,0.84 1.96,2.016c0,1.092 -0.84,1.932 -1.96,1.932c-1.148,-0 -1.988,-0.84 -1.988,-1.96c0,-1.148 0.84,-1.988 1.988,-1.988Zm-241.844,-0c1.148,-0 1.96,0.84 1.96,2.016c0,1.092 -0.84,1.932 -1.96,1.932c-1.148,-0 -1.988,-0.84 -1.988,-1.96c0,-1.148 0.84,-1.988 1.988,-1.988Zm474.958,-0c1.148,-0 1.96,0.84 1.96,2.016c0,1.092 -0.84,1.932 -1.96,1.932c-1.148,-0 -1.988,-0.84 -1.988,-1.96c0,-1.148 0.84,-1.988 1.988,-1.988Zm38.472,-0c1.148,-0 1.96,0.84 1.96,2.016c0,1.092 -0.84,1.932 -1.96,1.932c-1.148,-0 -1.988,-0.84 -1.988,-1.96c0,-1.148 0.84,-1.988 1.988,-1.988Zm49.196,-0c1.148,-0 1.96,0.84 1.96,2.016c0,1.092 -0.84,1.932 -1.96,1.932c-1.148,-0 -1.988,-0.84 -1.988,-1.96c0,-1.148 0.84,-1.988 1.988,-1.988Z" style="fill-rule:nonzero;"/><path id="Path-17" d="M167,288l61,0" style="fill:none;fill-rule:nonzero;stroke:#2b2a26;stroke-width:2px;"/><path id="Path-171" serif:id="Path-17" d="M418,288l120,0" style="fill:none;fill-rule:nonzero;stroke:#2b2a26;stroke-width:2px;"/><path id="Path-172" serif:id="Path-17" d="M678,288l136,0" style="fill:none;fill-rule:nonzero;stroke:#2b2a26;stroke-width:2px;"/><path id="Path" d="M245.239,46.932c0,-9.645 -7.824,-17.476 -17.461,-17.476l-182.71,0c-9.637,0 -17.461,7.831 -17.461,17.476l-0,182.859c-0,9.645 7.824,17.476 17.461,17.476l182.71,-0c9.637,-0 17.461,-7.831 17.461,-17.476l0,-182.859Z" style="fill:#58c322;"/><path id="Path1" serif:id="Path" d="M550.871,46.932c0,-9.645 -7.824,-17.476 -17.461,-17.476l-182.71,0c-9.636,0 -17.461,7.831 -17.461,17.476l0,182.859c0,9.645 7.825,17.476 17.461,17.476l182.71,-0c9.637,-0 17.461,-7.831 17.461,-17.476l0,-182.859Z" style="fill:#ffbf00;"/><path id="Path2" serif:id="Path" d="M852.504,46.932c-0,-9.645 -7.825,-17.476 -17.461,-17.476l-182.71,0c-9.637,0 -17.462,7.831 -17.462,17.476l0,182.859c0,9.645 7.825,17.476 17.462,17.476l182.71,-0c9.636,-0 17.461,-7.831 17.461,-17.476l-0,-182.859Z" style="fill:#f50;"/><path id="Combined-Shape1" serif:id="Combined-Shape" d="M164.349,122.099c8.533,0 15.476,6.949 15.476,15.489c0,8.54 -6.943,15.489 -15.476,15.489c-8.533,-0 -15.476,-6.949 -15.476,-15.489c-0,-8.54 6.943,-15.489 15.476,-15.489Zm-28.573,-46.604l34.821,16.777l0.05,0.036c0.022,0.012 0.046,0.018 0.068,0.031c0.038,0.024 0.067,0.054 0.102,0.084c0.039,0.03 0.076,0.055 0.111,0.091c0.049,0.048 0.091,0.097 0.133,0.157c0.027,0.037 0.057,0.067 0.079,0.109c0.038,0.061 0.064,0.127 0.091,0.2c0.014,0.036 0.034,0.072 0.045,0.109c0.025,0.091 0.036,0.181 0.041,0.278c0.001,0.018 0.009,0.042 0.009,0.061l0,26.107c-0.833,-0.327 -1.695,-0.593 -2.579,-0.799l0,-23.209l-30.952,15.489l0,38.413l8.712,-4.356c0.335,0.798 0.722,1.567 1.157,2.305l-10.582,5.294c-0.018,0.012 -0.04,0.006 -0.059,0.018c-0.165,0.073 -0.339,0.121 -0.518,0.121c-0.178,0 -0.352,-0.048 -0.517,-0.121c-0.019,-0.012 -0.041,-0.006 -0.059,-0.018l-33.532,-16.777c-0.437,-0.218 -0.712,-0.666 -0.712,-1.156l-0,-41.305c-0,-0.109 0.016,-0.224 0.044,-0.333c0.009,-0.03 0.028,-0.061 0.038,-0.091c0.027,-0.079 0.054,-0.151 0.094,-0.218c0.022,-0.036 0.052,-0.072 0.079,-0.109c0.04,-0.054 0.078,-0.108 0.127,-0.157c0.034,-0.036 0.074,-0.06 0.113,-0.091c0.038,-0.03 0.073,-0.072 0.116,-0.096c0.014,-0.007 0.031,-0.013 0.046,-0.019c0.013,-0.012 0.023,-0.024 0.038,-0.03l32.241,-16.777c0.36,-0.188 0.788,-0.194 1.155,-0.018Zm-1.85,72.155c-0.712,0 -1.29,0.575 -1.29,1.289c0,0.714 0.578,1.289 1.29,1.289c0.712,-0 1.29,-0.575 1.29,-1.289c-0,-0.714 -0.578,-1.289 -1.29,-1.289Zm30.423,-19.918c-0.777,-0 -1.407,0.629 -1.407,1.408l0,7.04l-7.035,-0c-0.776,-0 -1.406,0.629 -1.406,1.408c-0,0.779 0.63,1.408 1.406,1.408l7.035,0l0,7.04c0,0.779 0.63,1.408 1.407,1.408c0.777,0 1.407,-0.629 1.407,-1.408l-0,-7.04l7.034,0c0.777,0 1.407,-0.629 1.407,-1.408c0,-0.779 -0.63,-1.408 -1.407,-1.408l-7.034,-0l-0,-7.04c-0,-0.779 -0.63,-1.408 -1.407,-1.408Zm-34.292,16.046c-0.712,0 -1.29,0.575 -1.29,1.289c0,0.714 0.578,1.288 1.29,1.288c0.712,0 1.29,-0.574 1.29,-1.288c-0,-0.714 -0.578,-1.289 -1.29,-1.289Zm3.869,-3.872c-0.712,-0 -1.29,0.575 -1.29,1.289c0,0.714 0.578,1.288 1.29,1.288c0.712,0 1.29,-0.574 1.29,-1.288c-0,-0.714 -0.578,-1.289 -1.29,-1.289Zm-15.476,-0c-0.712,-0 -1.289,0.575 -1.289,1.289c-0,0.714 0.577,1.288 1.289,1.288c0.712,0 1.29,-0.574 1.29,-1.288c-0,-0.714 -0.578,-1.289 -1.29,-1.289Zm7.738,-0c-0.712,-0 -1.29,0.575 -1.29,1.289c0,0.714 0.578,1.288 1.29,1.288c0.712,0 1.29,-0.574 1.29,-1.288c-0,-0.714 -0.578,-1.289 -1.29,-1.289Zm-11.607,-3.878c-0.712,-0 -1.289,0.58 -1.289,1.294c-0,0.714 0.577,1.289 1.289,1.289c0.712,0 1.29,-0.575 1.29,-1.289c-0,-0.714 -0.578,-1.294 -1.29,-1.294Zm15.476,-0c-0.712,-0 -1.29,0.58 -1.29,1.294c0,0.714 0.578,1.289 1.29,1.289c0.712,0 1.29,-0.575 1.29,-1.289c-0,-0.714 -0.578,-1.294 -1.29,-1.294Zm-7.738,-0c-0.712,-0 -1.289,0.58 -1.289,1.294c-0,0.714 0.577,1.289 1.289,1.289c0.712,0 1.29,-0.575 1.29,-1.289c-0,-0.714 -0.578,-1.294 -1.29,-1.294Zm11.607,-3.873c-0.712,0 -1.29,0.581 -1.29,1.295c0,0.714 0.578,1.289 1.29,1.289c0.712,-0 1.29,-0.575 1.29,-1.289c-0,-0.714 -0.578,-1.295 -1.29,-1.295Zm-23.214,0c-0.712,0 -1.289,0.581 -1.289,1.295c-0,0.714 0.577,1.289 1.289,1.289c0.712,-0 1.29,-0.575 1.29,-1.289c-0,-0.714 -0.578,-1.295 -1.29,-1.295Zm7.738,0c-0.712,0 -1.289,0.581 -1.289,1.295c-0,0.714 0.577,1.289 1.289,1.289c0.712,-0 1.29,-0.575 1.29,-1.289c-0,-0.714 -0.578,-1.295 -1.29,-1.295Zm7.738,0c-0.712,0 -1.29,0.581 -1.29,1.295c0,0.714 0.578,1.289 1.29,1.289c0.712,-0 1.29,-0.575 1.29,-1.289c-0,-0.714 -0.578,-1.295 -1.29,-1.295Zm-19.345,-3.866c-0.712,0 -1.289,0.575 -1.289,1.289c-0,0.714 0.577,1.289 1.289,1.289c0.712,-0 1.29,-0.575 1.29,-1.289c-0,-0.714 -0.578,-1.289 -1.29,-1.289Zm15.476,0c-0.712,0 -1.289,0.575 -1.289,1.289c-0,0.714 0.577,1.289 1.289,1.289c0.712,-0 1.29,-0.575 1.29,-1.289c-0,-0.714 -0.578,-1.289 -1.29,-1.289Zm7.738,0c-0.712,0 -1.29,0.575 -1.29,1.289c0,0.714 0.578,1.289 1.29,1.289c0.712,-0 1.29,-0.575 1.29,-1.289c-0,-0.714 -0.578,-1.289 -1.29,-1.289Zm-15.476,0c-0.712,0 -1.289,0.575 -1.289,1.289c-0,0.714 0.577,1.289 1.289,1.289c0.712,-0 1.29,-0.575 1.29,-1.289c-0,-0.714 -0.578,-1.289 -1.29,-1.289Zm11.607,-3.872c-0.712,0 -1.29,0.575 -1.29,1.289c0,0.714 0.578,1.289 1.29,1.289c0.712,-0 1.29,-0.575 1.29,-1.289c-0,-0.714 -0.578,-1.289 -1.29,-1.289Zm-7.738,0c-0.712,0 -1.289,0.575 -1.289,1.289c-0,0.714 0.577,1.289 1.289,1.289c0.712,-0 1.29,-0.575 1.29,-1.289c-0,-0.714 -0.578,-1.289 -1.29,-1.289Zm15.476,0c-0.712,0 -1.29,0.575 -1.29,1.289c0,0.714 0.578,1.289 1.29,1.289c0.712,-0 1.29,-0.575 1.29,-1.289c-0,-0.714 -0.578,-1.289 -1.29,-1.289Zm-23.214,0c-0.712,0 -1.289,0.575 -1.289,1.289c-0,0.714 0.577,1.289 1.289,1.289c0.712,-0 1.29,-0.575 1.29,-1.289c-0,-0.714 -0.578,-1.289 -1.29,-1.289Zm-3.869,-3.872c-0.712,-0 -1.289,0.575 -1.289,1.289c-0,0.714 0.577,1.288 1.289,1.288c0.712,0 1.29,-0.574 1.29,-1.288c-0,-0.714 -0.578,-1.289 -1.29,-1.289Zm7.738,-0c-0.712,-0 -1.289,0.575 -1.289,1.289c-0,0.714 0.577,1.288 1.289,1.288c0.712,0 1.29,-0.574 1.29,-1.288c-0,-0.714 -0.578,-1.289 -1.29,-1.289Zm15.476,-0c-0.712,-0 -1.29,0.575 -1.29,1.289c0,0.714 0.578,1.288 1.29,1.288c0.712,0 1.29,-0.574 1.29,-1.288c-0,-0.714 -0.578,-1.289 -1.29,-1.289Zm-7.738,-0c-0.712,-0 -1.289,0.575 -1.289,1.289c-0,0.714 0.577,1.288 1.289,1.288c0.712,0 1.29,-0.574 1.29,-1.288c-0,-0.714 -0.578,-1.289 -1.29,-1.289Zm-3.869,-3.878c-0.712,-0 -1.289,0.581 -1.289,1.295c-0,0.713 0.577,1.288 1.289,1.288c0.712,0 1.29,-0.575 1.29,-1.288c-0,-0.714 -0.578,-1.295 -1.29,-1.295Zm7.738,-0c-0.712,-0 -1.29,0.581 -1.29,1.295c0,0.713 0.578,1.288 1.29,1.288c0.712,0 1.29,-0.575 1.29,-1.288c-0,-0.714 -0.578,-1.295 -1.29,-1.295Zm-15.476,-0c-0.712,-0 -1.289,0.581 -1.289,1.295c-0,0.713 0.577,1.288 1.289,1.288c0.712,0 1.29,-0.575 1.29,-1.288c-0,-0.714 -0.578,-1.295 -1.29,-1.295Zm23.214,-0c-0.712,-0 -1.29,0.581 -1.29,1.295c0,0.713 0.578,1.288 1.29,1.288c0.712,0 1.29,-0.575 1.29,-1.288c-0,-0.714 -0.578,-1.295 -1.29,-1.295Zm-11.607,-3.872c-0.712,-0 -1.289,0.58 -1.289,1.294c-0,0.714 0.577,1.289 1.289,1.289c0.712,0 1.29,-0.575 1.29,-1.289c-0,-0.714 -0.578,-1.294 -1.29,-1.294Zm-7.738,-0c-0.712,-0 -1.289,0.58 -1.289,1.294c-0,0.714 0.577,1.289 1.289,1.289c0.712,0 1.29,-0.575 1.29,-1.289c-0,-0.714 -0.578,-1.294 -1.29,-1.294Zm15.476,-0c-0.712,-0 -1.29,0.58 -1.29,1.294c0,0.714 0.578,1.289 1.29,1.289c0.712,0 1.29,-0.575 1.29,-1.289c-0,-0.714 -0.578,-1.294 -1.29,-1.294Zm-23.214,-0c-0.712,-0 -1.289,0.58 -1.289,1.294c-0,0.714 0.577,1.289 1.289,1.289c0.712,0 1.29,-0.575 1.29,-1.289c-0,-0.714 -0.578,-1.294 -1.29,-1.294Zm11.607,-3.867c-0.712,0 -1.289,0.575 -1.289,1.289c-0,0.714 0.577,1.289 1.289,1.289c0.712,-0 1.29,-0.575 1.29,-1.289c-0,-0.714 -0.578,-1.289 -1.29,-1.289Zm7.738,0c-0.712,0 -1.29,0.575 -1.29,1.289c0,0.714 0.578,1.289 1.29,1.289c0.712,-0 1.29,-0.575 1.29,-1.289c-0,-0.714 -0.578,-1.289 -1.29,-1.289Zm-15.476,0c-0.712,0 -1.289,0.575 -1.289,1.289c-0,0.714 0.577,1.289 1.289,1.289c0.712,-0 1.29,-0.575 1.29,-1.289c-0,-0.714 -0.578,-1.289 -1.29,-1.289Zm23.214,0c-0.712,0 -1.29,0.575 -1.29,1.289c0,0.714 0.578,1.289 1.29,1.289c0.151,-0 0.289,-0.036 0.42,-0.085c0.056,-0.018 0.106,-0.042 0.158,-0.066c0.05,-0.025 0.096,-0.061 0.143,-0.097c0.138,-0.097 0.253,-0.212 0.344,-0.357c0.13,-0.2 0.225,-0.424 0.225,-0.684c-0,-0.714 -0.578,-1.289 -1.29,-1.289Zm1.311,-30.826l-29.425,15.313l30.693,15.356l30.604,-15.313l-31.872,-15.356Zm-12.918,26.954c-0.712,0 -1.289,0.575 -1.289,1.289c-0,0.714 0.577,1.289 1.289,1.289c0.712,-0 1.29,-0.575 1.29,-1.289c-0,-0.714 -0.578,-1.289 -1.29,-1.289Zm-7.738,0c-0.712,0 -1.289,0.575 -1.289,1.289c-0,0.714 0.577,1.289 1.289,1.289c0.712,-0 1.29,-0.575 1.29,-1.289c-0,-0.714 -0.578,-1.289 -1.29,-1.289Zm-7.738,0c-0.712,0 -1.289,0.575 -1.289,1.289c-0,0.714 0.577,1.289 1.289,1.289c0.712,-0 1.29,-0.575 1.29,-1.289c-0,-0.714 -0.578,-1.289 -1.29,-1.289Zm11.607,-3.872c-0.712,0 -1.289,0.575 -1.289,1.289c-0,0.714 0.577,1.288 1.289,1.288c0.151,0 0.289,-0.036 0.42,-0.084c0.056,-0.018 0.106,-0.043 0.158,-0.067c0.05,-0.024 0.097,-0.06 0.143,-0.097c0.138,-0.096 0.253,-0.211 0.344,-0.357c0.13,-0.199 0.225,-0.423 0.225,-0.683c-0,-0.714 -0.578,-1.289 -1.29,-1.289Zm-7.738,0c-0.712,0 -1.289,0.575 -1.289,1.289c-0,0.714 0.577,1.288 1.289,1.288c0.712,0 1.29,-0.574 1.29,-1.288c-0,-0.714 -0.578,-1.289 -1.29,-1.289Zm-3.869,-3.878c-0.712,-0 -1.289,0.581 -1.289,1.295c-0,0.714 0.577,1.288 1.289,1.288c0.712,0 1.29,-0.574 1.29,-1.288c-0,-0.714 -0.578,-1.295 -1.29,-1.295Z" style="fill:#fff;"/><g id="提示"><text x="104.696px" y="216.044px" style="font-family:'HiraginoSans-W6', 'Hiragino Sans', sans-serif;font-weight:600;font-size:36px;fill:#fff;">提出</text></g><g id="展開"><text x="406.992px" y="215.642px" style="font-family:'HiraginoSans-W6', 'Hiragino Sans', sans-serif;font-weight:600;font-size:36px;fill:#fff;">展开</text></g><path id="Combined-Shape2" serif:id="Combined-Shape" d="M462.33,124.971l6.228,9.796c0.255,0.402 0.274,0.908 0.049,1.327l-9.181,17.064c-0.229,0.425 -0.673,0.69 -1.155,0.69l-18.362,0c-0.465,0 -0.897,-0.246 -1.132,-0.651l-7.327,-12.57c1.108,-0.211 2.1,-0.865 2.678,-1.858l8.042,-13.798l20.16,0Zm-32.225,-21.002c0.454,0 0.874,0.234 1.114,0.62l9.804,15.751c0.257,0.412 0.265,0.935 0.019,1.355l-9.18,15.751c-0.235,0.404 -0.668,0.651 -1.134,0.651l-18.361,0c-0.466,0 -0.898,-0.247 -1.133,-0.651l-9.181,-15.751c-0.237,-0.41 -0.237,-0.914 0,-1.323l9.181,-15.752c0.235,-0.404 0.667,-0.651 1.133,-0.651l17.738,0Zm-3.311,5.251l-10.492,-0c-0.453,-0 -0.874,0.233 -1.113,0.617l-6.557,10.503c-0.385,0.615 -0.197,1.426 0.417,1.809c0.216,0.135 0.456,0.2 0.694,0.2c0.438,-0 0.864,-0.22 1.113,-0.617l6.172,-9.887l9.766,0c0.724,0 1.311,-0.587 1.311,-1.313c0,-0.725 -0.587,-1.312 -1.311,-1.312Zm38.034,-32.815c0.465,-0 0.893,0.247 1.13,0.646l13.115,22.243c0.249,0.421 0.242,0.945 -0.016,1.361l-13.115,21.071c-0.24,0.386 -0.661,0.62 -1.114,0.62l-21.243,-0c0.4,-1.12 0.307,-2.363 -0.337,-3.395l-9.801,-15.748c-0.722,-1.164 -1.971,-1.859 -3.342,-1.859l-3.994,0l-0.431,-0.689c-0.258,-0.416 -0.265,-0.94 -0.015,-1.361l13.115,-22.243c0.236,-0.399 0.665,-0.646 1.129,-0.646l24.919,-0Zm-3.934,5.25l-17.05,0c-0.455,0 -0.878,0.236 -1.118,0.625l-10.492,17.064c-0.379,0.617 -0.187,1.427 0.43,1.806c0.214,0.131 0.451,0.194 0.686,0.194c0.441,0 0.871,-0.222 1.119,-0.625l10.108,-16.439l16.317,0c0.724,0 1.311,-0.586 1.311,-1.312c0,-0.726 -0.587,-1.313 -1.311,-1.313Z" style="fill:#fff;"/><g id="解消"><text x="712px" y="216px" style="font-family:'HiraginoSans-W6', 'Hiragino Sans', sans-serif;font-weight:600;font-size:36px;fill:#fff;">解决</text></g><path id="Combined-Shape3" serif:id="Combined-Shape" d="M730.804,95.388c0.411,0.021 0.743,0.157 0.994,0.441l15.389,17.328c4.746,4.352 7.343,10.106 7.311,16.215c-0.031,6.018 -2.64,11.651 -7.346,15.864c-4.274,4.265 -9.951,6.613 -15.989,6.613c-6.049,-0 -11.736,-2.358 -16.015,-6.64c-4.278,-4.279 -6.633,-9.973 -6.633,-16.028c0,-6.055 2.355,-11.747 6.633,-16.029l14.671,-17.301c0.245,-0.29 0.605,-0.459 0.985,-0.463Zm-9.938,21.326c-0.513,-0.512 -1.344,-0.512 -1.855,0l-0.151,0.151c-3.283,3.286 -5.091,7.659 -5.091,12.316c0,4.657 1.808,9.031 5.091,12.315c3.285,3.289 7.655,5.101 12.303,5.101c0.725,-0 1.312,-0.587 1.312,-1.313c0,-0.726 -0.587,-1.313 -1.312,-1.313c-3.946,-0 -7.657,-1.539 -10.448,-4.332c-2.787,-2.789 -4.322,-6.502 -4.322,-10.458c0,-3.954 1.535,-7.669 4.322,-10.459l0.151,-0.151c0.513,-0.512 0.513,-1.343 -0,-1.857Zm45.659,-41.837c0.499,-0.629 1.56,-0.629 2.058,-0l11.198,14.153c6.409,6.491 6.414,17.649 0.001,24.915c-0.018,0.021 -0.038,0.042 -0.059,0.062c-3.354,3.338 -7.763,5.008 -12.169,5.008c-4.407,-0 -8.814,-1.669 -12.169,-5.008c-6.481,-6.841 -6.486,-18.043 -0.037,-24.997l11.177,-14.133Zm-5.335,17.488c-0.528,-0.493 -1.359,-0.463 -1.853,0.066l-0.142,0.151c-4.57,4.929 -4.609,12.878 -0.049,17.762c2.254,2.209 5.239,3.427 8.408,3.427c0.722,-0 1.312,-0.587 1.312,-1.313c-0,-0.727 -0.59,-1.314 -1.312,-1.314c-2.477,0 -4.811,-0.95 -6.531,-2.635c-3.6,-3.856 -3.557,-10.2 0.093,-14.137l0.14,-0.151c0.493,-0.531 0.465,-1.362 -0.066,-1.856Z" style="fill:#fff;"/><g id="Group"><path id="Path3" serif:id="Path" d="M257.33,146.303l-0,-5.597l55.315,0l-0,-8.395l11.183,11.193l-11.183,11.193l-0,-8.394l-55.315,-0Z" style="fill:#2b2a26;"/></g><g id="Group1" serif:id="Group"><path id="Path4" serif:id="Path" d="M559.594,146.303l0,-5.597l55.315,0l-0,-8.395l11.184,11.193l-11.184,11.193l-0,-8.394l-55.315,-0Z" style="fill:#2b2a26;"/></g></g></svg>