<?xml version="1.0" encoding="UTF-8"?>
<svg width="770px" height="165px" viewBox="0 0 770 165" version="1.1" xmlns="http://www.w3.org/2000/svg" xmlns:xlink="http://www.w3.org/1999/xlink">
    <!-- Generator: Sketch 64 (93537) - https://sketch.com -->
    <title>m1-motion-types</title>
    <desc>Created with Sketch.</desc>
    <g id="m1-motion-types" stroke="none" stroke-width="1" fill="none" fill-rule="evenodd">
        <g id="大譜表" transform="translate(42.000000, 33.000000)" stroke="#000000" stroke-width="0.5">
            <rect id="外枠" fill-opacity="0.776471" fill="#FFFFFF" x="0" y="0" width="704" height="80"></rect>
            <line x1="0" y1="60" x2="704" y2="60" id="_--G線"></line>
            <line x1="0" y1="40" x2="704" y2="40" id="_--B線"></line>
            <line x1="0" y1="20" x2="704" y2="20" id="_--D線"></line>
        </g>
        <line x1="41" y1="33" x2="41" y2="113" id="bar-0" stroke="#000000" stroke-width="0.5"></line>
        <path d="M76.2517358,84.2071144 C74.4140104,84.5851137 72.7108743,85.5967785 71.0855009,87.2077755 C69.4578013,88.8487725 68.5864603,90.7201023 68.4442276,92.7904318 C68.3545014,94.0920961 68.6961256,95.6017599 69.4455055,97.2287569 C70.1928915,98.8850872 71.4141647,100.128752 73.0485107,100.98475 C73.6018222,101.142083 73.8474061,101.456082 73.819159,101.870415 C73.8088571,102.018081 73.5918526,102.151748 73.081078,102.235414 C70.4378107,101.368749 68.3206049,99.7660855 66.7547166,97.4880898 C65.1908223,95.1807607 64.4750066,92.6347654 64.6112575,89.7911041 C64.9093479,86.7507764 66.0209557,83.9747815 67.9440872,81.4924528 C69.8987889,78.9827908 72.3031186,77.276794 75.1570763,76.3747957 L73.8397628,65.7331488 C69.0271156,69.2041423 65.0615501,72.8824688 61.9091698,76.8247948 C58.7591157,80.7377876 56.9738968,85.1017795 56.5239365,89.9151038 C56.4345426,92.0784331 56.7336299,94.2090958 57.42286,96.2777587 C58.1100962,98.3757548 59.2253596,100.295751 60.7649946,102.096081 C63.8751704,105.669741 68.1006095,107.715404 73.3795007,108.259237 C75.1909728,108.265736 77.1347081,108.073403 79.2406151,107.684071 L76.2517358,84.2071144 L76.2517358,84.2071144 L76.2517358,84.2071144 Z M78.400512,84.0587814 L81.4472148,107.123739 C86.1256051,105.604741 88.6764876,101.769415 89.0955421,95.6760931 C88.9699255,93.6167636 88.5050108,91.7421004 87.6117367,90.0457703 C86.7503653,88.3217735 85.5390616,86.9304427 83.9489141,85.8691114 C82.3584342,84.8081133 80.5286845,84.2061144 78.400512,84.0587814 L78.400512,84.0587814 Z M74.4568796,52.8778394 C75.4731119,52.3538403 76.6674672,51.3961755 77.9791312,50.0308447 C79.2888014,48.6948472 80.5871726,47.0908501 81.8406808,45.2755202 C83.1257593,43.4328569 84.1762204,41.5438604 84.9927288,39.6091974 C85.8065786,37.7042009 86.2601944,35.8632043 86.3781677,34.1475409 C86.4290126,33.4082089 86.4207046,32.6645436 86.3176856,32.0038782 C86.2728225,30.9308802 86.0046409,30.0798818 85.4815704,29.4792162 C84.956506,28.9078839 84.2672759,28.5628846 83.3806482,28.5015514 C81.6070604,28.3788849 79.9354946,29.3628831 78.3659508,31.4535459 C77.1420191,33.2708758 76.0709542,35.4552051 75.2458055,37.9538671 C74.3887542,40.4801958 73.8294609,42.9975244 73.5935142,45.5665196 C73.5396785,48.5051808 73.8480708,50.9335097 74.4568796,52.8778394 L74.4568796,52.8778394 L74.4568796,52.8778394 Z M72.4765893,54.4645031 C71.475976,49.5808455 71.0725405,44.649188 71.2666149,39.6698639 C71.5158544,36.4775365 72.0465682,33.512542 72.8587564,30.7752138 C73.6410359,28.0355522 74.6632499,25.6992232 75.9287215,23.706227 C77.1649491,21.711564 78.544074,20.2319001 80.0361873,19.2652352 C81.3721107,18.4065701 82.3232083,17.9672376 82.825675,18.0019042 C83.2098361,18.0285708 83.5248747,18.1989039 83.8023613,18.48557 C84.0795155,18.7722361 84.4334355,19.2425686 84.8654505,19.8669008 C88.0394316,25.1092243 89.3979526,31.2658796 88.9137635,38.3055331 C88.6837986,41.6478603 88.0165016,44.8708543 86.9058907,48.0631817 C85.8268501,51.2278424 84.3440416,54.2158369 82.4617855,56.9684984 C80.547959,59.7484933 78.3649539,62.1234888 75.8811999,64.1211518 L77.474006,75.9407965 C78.7846731,75.8827966 79.6796088,75.8257967 80.1820755,75.8607966 C82.4288859,76.0161297 84.4061853,76.6284619 86.2033678,77.7037932 C88.0005502,78.7794579 89.5092796,80.1617886 90.6979855,81.8784521 C91.8890177,83.5657823 92.7676697,85.4691121 93.3349387,87.5887748 C93.8722989,89.7064376 94.1079132,91.8921002 93.9533848,94.140096 C93.7134503,97.6304228 92.5772508,100.761417 90.5471126,103.503745 C88.5169743,106.24574 85.6234707,108.155737 81.8346991,109.260401 C81.9716146,110.726398 82.2411255,112.855061 82.6764637,115.589389 C83.0805639,118.351718 83.3756634,120.541714 83.5610975,122.159377 C83.746864,123.777041 83.7594921,125.323371 83.6554762,126.831702 C83.494966,129.168364 82.7907815,131.200027 81.5412612,132.956024 C80.2624967,134.710354 78.6274861,136.023685 76.6073174,136.89435 C74.6167252,137.767015 72.4539916,138.122348 70.1483607,137.963014 C66.8966169,137.737682 64.1220836,136.62435 61.8221021,134.652354 C59.5244469,132.650691 58.3925676,130.105696 58.4899371,126.962368 C58.6743743,125.578371 59.0891087,124.299373 59.7657107,123.098042 C60.4423127,121.896711 61.3096659,120.946046 62.3970144,120.248714 C63.4571128,119.519715 64.6976605,119.189383 66.093069,119.196716 C67.2458844,119.276716 68.3172817,119.677715 69.3092546,120.370381 C70.2693249,121.090713 71.0379793,122.005711 71.5836475,123.143042 C72.0994069,124.278373 72.3413353,125.513704 72.2516092,126.815035 C72.1316419,128.560365 71.4387563,129.998363 70.1729523,131.129027 C68.9071483,132.260025 67.3568791,132.776691 65.5537149,132.652024 L64.8737897,132.605024 C65.9043117,134.459354 67.7333968,135.507352 70.3640359,135.689352 C71.6943098,135.781352 73.0744316,135.579686 74.470837,135.141353 C75.8988128,134.675687 77.1024731,134.016022 78.1429646,133.137023 C79.1837885,132.258025 79.9032596,131.29736 80.2425576,130.251029 C80.8284364,129.073031 81.1810271,127.403367 81.3252537,125.303371 C81.4229555,123.883707 81.3727753,122.45371 81.2046218,121.015379 C81.034142,119.606715 80.7483475,117.714719 80.3455766,115.368723 C79.9404794,113.052394 79.6487031,111.249064 79.4958363,110.020066 C77.6916751,110.340733 75.8426509,110.450732 73.921181,110.317733 C70.6990137,110.094733 67.6991679,109.233401 64.9233053,107.703737 C62.147775,106.174407 59.7610582,104.166411 57.7365694,101.648749 C55.7413247,99.13342 54.2395741,96.3547585 53.234973,93.2537643 C52.2582867,90.1844367 51.8531896,87.0061092 52.047264,83.7504486 C52.3732692,80.7417876 53.1342803,77.8817929 54.3854622,75.2344645 C55.6389704,72.5571361 57.1779408,70.0484741 59.0296236,67.7394784 C60.8813064,65.430816 62.7778523,63.3331533 64.7175997,61.4761567 C66.6845973,59.6508268 69.2517634,57.3024978 72.4765893,54.4645031 L72.4765893,54.4645031 L72.4765893,54.4645031 Z" id="G" stroke="#131516" stroke-width="0.5" fill="#131516"></path>
        <text id="上行" fill="#0C0C0C" font-family="HiraginoSans-W5, Hiragino Sans" font-size="15.9866778" font-weight="400">
            <tspan x="196.513322" y="138">上行</tspan>
        </text>
        <g id="Note" transform="translate(142.000000, 72.000000)" fill="#0C0C0C" fill-rule="nonzero">
            <path d="M14.1931725,2.29432169 C7.89792118,5.63645765 4.54453202,11.6853565 6.60772834,16.2358031 C8.80810033,21.0910819 16.3712998,22.4609904 23.4877514,19.2951429 C30.6060568,16.1292955 34.5952737,9.61763938 32.3949018,4.76419689 C30.1945298,-0.0910819352 22.6313303,-1.46099041 15.5148787,1.70485706 C15.0699846,1.90318161 14.6121144,2.07028841 14.1931725,2.29432169 Z" id="note" transform="translate(19.500000, 10.500000) rotate(-180.000000) translate(-19.500000, -10.500000) "></path>
        </g>
        <g id="Note" transform="translate(242.000000, 63.000000)" fill="#0C0C0C" fill-rule="nonzero">
            <path d="M14.1931725,2.29432169 C7.89792118,5.63645765 4.54453202,11.6853565 6.60772834,16.2358031 C8.80810033,21.0910819 16.3712998,22.4609904 23.4877514,19.2951429 C30.6060568,16.1292955 34.5952737,9.61763938 32.3949018,4.76419689 C30.1945298,-0.0910819352 22.6313303,-1.46099041 15.5148787,1.70485706 C15.0699846,1.90318161 14.6121144,2.07028841 14.1931725,2.29432169 Z" id="note" transform="translate(19.500000, 10.500000) rotate(-180.000000) translate(-19.500000, -10.500000) "></path>
        </g>
        <path id="Line-2" d="M227.539692,69.8968284 L242.5,74.5 L229.841278,83.7063433 L228.854,77.787 L188.664399,84.4863939 L187.678005,84.6507929 L187.349207,82.6780051 L188.335601,82.5136061 L228.526,75.814 L227.539692,69.8968284 Z" fill="#0C0C0C" fill-rule="nonzero"></path>
        <text id="下行" fill="#0C0C0C" font-family="HiraginoSans-W5, Hiragino Sans" font-size="15.9866778" font-weight="400">
            <tspan x="406.513322" y="138">下行</tspan>
        </text>
        <text id="保留" fill="#0C0C0C" font-family="HiraginoSans-W5, Hiragino Sans" font-size="15.9866778" font-weight="400">
            <tspan x="626.513322" y="138">保留</tspan>
        </text>
        <g id="Note" transform="translate(352.000000, 72.000000)" fill="#0C0C0C" fill-rule="nonzero">
            <path d="M14.1931725,2.29432169 C7.89792118,5.63645765 4.54453202,11.6853565 6.60772834,16.2358031 C8.80810033,21.0910819 16.3712998,22.4609904 23.4877514,19.2951429 C30.6060568,16.1292955 34.5952737,9.61763938 32.3949018,4.76419689 C30.1945298,-0.0910819352 22.6313303,-1.46099041 15.5148787,1.70485706 C15.0699846,1.90318161 14.6121144,2.07028841 14.1931725,2.29432169 Z" id="note" transform="translate(19.500000, 10.500000) rotate(-180.000000) translate(-19.500000, -10.500000) "></path>
        </g>
        <g id="Note" transform="translate(452.000000, 84.000000)" fill="#0C0C0C" fill-rule="nonzero">
            <path d="M14.1931725,2.29432169 C7.89792118,5.63645765 4.54453202,11.6853565 6.60772834,16.2358031 C8.80810033,21.0910819 16.3712998,22.4609904 23.4877514,19.2951429 C30.6060568,16.1292955 34.5952737,9.61763938 32.3949018,4.76419689 C30.1945298,-0.0910819352 22.6313303,-1.46099041 15.5148787,1.70485706 C15.0699846,1.90318161 14.6121144,2.07028841 14.1931725,2.29432169 Z" id="note" transform="translate(19.500000, 10.500000) rotate(-180.000000) translate(-19.500000, -10.500000) "></path>
        </g>
        <path id="Line-2" d="M397.157345,84.8642479 L398.146549,85.0107965 L438.297,90.958 L439.176992,85.0238945 L452,94 L437.125311,98.872743 L438.004,92.937 L397.853451,86.9892035 L396.864248,86.8426548 L397.157345,84.8642479 Z" fill="#0C0C0C" fill-rule="nonzero"></path>
        <g id="Note" transform="translate(572.000000, 72.000000)" fill="#0C0C0C" fill-rule="nonzero">
            <path d="M14.1931725,2.29432169 C7.89792118,5.63645765 4.54453202,11.6853565 6.60772834,16.2358031 C8.80810033,21.0910819 16.3712998,22.4609904 23.4877514,19.2951429 C30.6060568,16.1292955 34.5952737,9.61763938 32.3949018,4.76419689 C30.1945298,-0.0910819352 22.6313303,-1.46099041 15.5148787,1.70485706 C15.0699846,1.90318161 14.6121144,2.07028841 14.1931725,2.29432169 Z" id="note" transform="translate(19.500000, 10.500000) rotate(-180.000000) translate(-19.500000, -10.500000) "></path>
        </g>
        <g id="Note" transform="translate(672.000000, 72.000000)" fill="#0C0C0C" fill-rule="nonzero">
            <path d="M14.1931725,2.29432169 C7.89792118,5.63645765 4.54453202,11.6853565 6.60772834,16.2358031 C8.80810033,21.0910819 16.3712998,22.4609904 23.4877514,19.2951429 C30.6060568,16.1292955 34.5952737,9.61763938 32.3949018,4.76419689 C30.1945298,-0.0910819352 22.6313303,-1.46099041 15.5148787,1.70485706 C15.0699846,1.90318161 14.6121144,2.07028841 14.1931725,2.29432169 Z" id="note" transform="translate(19.500000, 10.500000) rotate(-180.000000) translate(-19.500000, -10.500000) "></path>
        </g>
        <path id="Line-2" d="M658,79 L672,86 L658,93 L658,87 L617,87 L617,85 L658,85 L658,79 Z" fill="#0C0C0C" fill-rule="nonzero"></path>
        <line x1="315" y1="33" x2="315" y2="113" id="bar-01" stroke="#000000" stroke-width="0.5"></line>
        <line x1="535" y1="33" x2="535" y2="113" id="bar-01" stroke="#000000" stroke-width="0.5"></line>
    </g>
</svg>