<?xml version="1.0" encoding="UTF-8"?>
<svg width="680px" height="230px" viewBox="0 0 680 230" version="1.1" xmlns="http://www.w3.org/2000/svg" xmlns:xlink="http://www.w3.org/1999/xlink">
    <title>m1-range-division-so-border</title>
    <g id="m1-range-division-so-border" stroke="none" stroke-width="1" fill="none" fill-rule="evenodd">
        <rect fill="#FFFFFF" x="0" y="0" width="680" height="230"></rect>
        <g id="五線" transform="translate(16.000000, 46.000000)" stroke="#000000">
            <line x1="0" y1="10.5" x2="630" y2="10.5" id="horizon"></line>
            <line x1="0" y1="30.5" x2="630" y2="30.5" id="horizon"></line>
            <line x1="0" y1="50.5" x2="630" y2="50.5" id="horizon"></line>
            <line x1="0" y1="70.5" x2="630" y2="70.5" id="horizon"></line>
            <line x1="0" y1="90.5" x2="630" y2="90.5" id="horizon"></line>
        </g>
        <line x1="606" y1="96" x2="685" y2="96" id="bar" stroke="#000000" stroke-linecap="round" stroke-linejoin="round" transform="translate(645.500000, 96.000000) rotate(90.000000) translate(-645.500000, -96.000000) "></line>
        <line x1="-23" y1="96" x2="58" y2="96" id="bar" stroke="#000000" stroke-width="2" stroke-linecap="round" stroke-linejoin="round" transform="translate(17.500000, 96.000000) rotate(90.000000) translate(-17.500000, -96.000000) "></line>
        <path d="M45.1620791,156.96278 C44.2662404,156.896201 43.4037992,156.750938 42.5904719,156.529009 C38.3745292,155.385065 35.4551952,152.207444 34.7754579,148.019036 C34.575073,146.792373 34.641868,144.871677 34.9227998,143.776154 C35.1369367,142.936859 35.6555802,141.738442 36.0740312,141.113005 C36.7793077,140.061868 37.9835821,139.067222 39.1858919,138.548715 C40.1740649,138.120997 40.7064603,138.008015 41.9519904,137.963629 C42.9401634,137.927313 43.1837686,137.943454 43.7554552,138.090734 C46.2425863,138.730293 48.2582234,140.86283 49.132452,143.784225 C49.3289078,144.443959 49.3465889,144.611415 49.350518,145.908692 C49.3544471,147.141407 49.3328369,147.397634 49.1776368,147.946404 C48.8338391,149.16298 48.2464361,150.143503 47.3073771,151.061482 C45.9321861,152.409197 44.321248,153.21823 42.1464817,153.658053 L41.2133164,153.847702 L41.8753726,154.13621 C45.4096135,155.689713 49.3230142,155.540416 52.9711994,153.716562 C56.1636071,152.122707 58.6330572,149.237628 59.4817465,146.110445 C59.6880252,145.353869 59.6998125,145.214659 59.6939188,143.776154 L59.6880252,142.246861 L58.4955381,136.331441 C57.8413401,133.077153 57.2873346,130.355495 57.2657245,130.280846 C57.2303624,130.165847 57.1478509,130.181987 56.5820581,130.418039 C52.9260146,131.945315 47.3938176,131.925139 42.3449021,130.3676 C35.4276914,128.235063 29.7815501,123.554376 26.8386413,117.513869 C25.9211925,115.627471 25.384868,113.823793 25.0882196,111.618624 C24.9546296,110.625996 24.9762398,107.997145 25.1294754,106.748289 C25.9486963,100.066205 29.3984611,93.3659626 35.90115,85.8203724 C37.9246453,83.4719587 42.3547249,79.077762 45.3231729,76.4731211 C46.1129254,75.7811058 46.1463229,75.7367199 46.0854216,75.5127733 C45.9479025,74.9942661 45.4705148,72.4783969 45.3231729,71.491821 C44.6395065,66.8938531 44.6414711,61.5554489 45.327102,56.882832 C46.4036801,49.5430306 48.9281379,43.3754185 52.6018624,39.1143793 C53.2717769,38.3356098 54.6901882,37 54.8453883,37 C54.8945023,37 55.3247406,37.5891209 55.7981992,38.3093818 C60.1948813,44.9712907 62.5209186,50.9048684 63.1574356,57.070463 C63.3146003,58.6118617 63.27138,62.2293064 63.0749241,63.6395651 C62.4305489,68.2960417 60.9276616,72.3371693 58.3501608,76.3399637 C56.6645695,78.9607449 54.1263599,81.9386302 51.5351071,84.3394998 C50.943775,84.88827 50.3210099,85.4652858 50.1520579,85.6226537 L49.8455867,85.909144 L51.2030967,92.5851756 L52.5586421,99.2632247 L53.2305211,99.2107687 C55.1204265,99.0594534 57.116418,99.170418 58.5426875,99.5033117 C60.4424157,99.9491874 62.5798554,100.966026 64.1790061,102.182601 C65.0709157,102.862512 66.5561219,104.381717 67.1828161,105.257329 C68.6817743,107.347497 69.6601245,109.839156 69.9331981,112.258184 C70.0687527,113.454583 69.9882058,115.782822 69.7799625,116.75124 C68.9568125,120.582543 66.5207599,124.185865 62.8097087,127.056821 C61.8922599,127.766994 60.5543955,128.624448 59.581939,129.126815 C58.9238119,129.467779 58.8668397,129.514182 58.91006,129.691725 C58.9925714,130.028654 60.0475394,135.157234 60.4424157,137.136439 C60.6486943,138.17547 60.9669528,139.89643 61.1496567,140.959672 C61.4718443,142.831947 61.4816671,142.928789 61.4384469,144.139311 C61.3598645,146.439304 60.7822843,148.23693 59.4778174,150.256485 C56.9926508,154.099894 52.5409611,156.551202 47.3486328,156.932517 C46.2524091,157.013218 45.8987886,157.019271 45.1620791,156.96278 Z M51.7453149,129.885409 C52.7217005,129.770409 53.9593724,129.504094 54.7609123,129.233744 C55.7431916,128.904886 56.9278204,128.3198 56.880671,128.186642 C56.8590608,128.128134 55.8551714,123.23157 54.6489324,117.304045 C53.4426935,111.37652 52.4368395,106.508202 52.4132648,106.483991 C52.3896901,106.459781 51.9889201,106.516272 51.5233197,106.611096 C48.1069524,107.303112 45.3035273,109.262141 44.0756782,111.816343 C43.6886602,112.62134 43.5413183,113.147918 43.4411258,114.067915 C43.2289535,116.022909 43.8576122,118.169569 45.1443981,119.87237 C45.8928949,120.864999 47.0343034,121.926223 48.0814131,122.606134 C48.4821831,122.866396 48.5588009,122.993501 48.277869,122.932975 C48.1796411,122.912799 47.8358433,122.83815 47.5136557,122.769554 C44.9813397,122.222801 42.5315352,120.79035 41.1425923,119.047197 C39.9226014,117.513869 39.3037654,115.920014 39.1269552,113.848003 C38.9010309,111.207047 39.5925556,108.660914 41.2113518,106.16522 C42.256497,104.553208 44.0599617,102.79795 45.8673556,101.635849 C47.1757516,100.792518 49.1599558,99.9330471 50.5115721,99.6223464 C50.7591065,99.5658553 50.961456,99.493224 50.961456,99.4629609 C50.961456,99.3762068 48.4566438,87.1237016 48.4153881,87.0066844 C48.3544868,86.8351937 44.9597296,89.6193955 42.6729834,91.7135994 C41.4117368,92.8696484 38.7281498,95.6639378 37.7537287,96.8361271 C34.8127846,100.37287 32.9130564,103.554527 31.8502302,106.716008 C30.7815104,109.903717 30.516295,112.972392 31.0624422,115.875628 C31.726463,119.406319 34.0033864,123.10043 37.0484522,125.588054 C41.183848,128.965412 46.4508295,130.504793 51.7453149,129.885409 Z M59.5053212,126.528226 C62.3244628,124.107181 63.992373,121.353243 64.4854772,118.312814 C64.6505001,117.293957 64.6072798,115.14528 64.4049303,114.19502 C63.5798157,110.345558 61.0612516,107.373725 57.7411476,106.332676 C57.0869496,106.126887 56.9356786,106.110747 55.6469282,106.108729 C54.8296718,106.108729 54.2304815,106.138992 54.1892257,106.187413 C54.14797,106.233817 54.9907656,110.462575 56.3011262,116.771415 C57.4995069,122.547625 58.4817862,127.284803 58.4837508,127.298926 C58.491609,127.363487 58.8354067,127.103225 59.5053212,126.528226 Z M50.2836833,72.0163808 C55.959293,66.3349952 59.3127945,60.8029074 60.0121773,55.9628349 C60.169342,54.8733647 60.1673775,53.0959142 60.0062837,52.1274962 C59.6840961,50.1946952 58.8963081,48.4979462 57.5564791,46.8617233 C57.0240837,46.2120762 56.9435368,46.1777781 55.9376829,46.1797211 C54.8296718,46.1818131 53.8218533,46.7083904 52.7767081,47.8301413 C51.0439675,49.6842582 49.5960878,52.7145996 48.5293325,56.7073063 C47.0460908,62.2656221 46.5903132,69.2180563 47.4036404,73.9269888 L47.5313367,74.6714601 L48.3250184,73.9269888 C48.7611504,73.5174287 49.6412726,72.6579577 50.2836833,72.0163808 Z" id="G-Clef" fill="#000000"></path>
        <path d="M259.193172,128.294322 C252.897921,131.636458 249.544532,137.685356 251.607728,142.235803 C253.8081,147.091082 261.3713,148.46099 268.487751,145.295143 C275.606057,142.129295 279.595274,135.617639 277.394902,130.764197 C275.19453,125.908918 267.63133,124.53901 260.514879,127.704857 C260.069985,127.903182 259.612114,128.070288 259.193172,128.294322 Z" id="Path" fill="#000000" transform="translate(264.500000, 136.500000) rotate(-180.000000) translate(-264.500000, -136.500000) "></path>
        <path d="M326.193172,118.294322 C319.897921,121.636458 316.544532,127.685356 318.607728,132.235803 C320.8081,137.091082 328.3713,138.46099 335.487751,135.295143 C342.606057,132.129295 346.595274,125.617639 344.394902,120.764197 C342.19453,115.908918 334.63133,114.53901 327.514879,117.704857 C327.069985,117.903182 326.612114,118.070288 326.193172,118.294322 Z" id="Path" fill="#000000" transform="translate(331.500000, 126.500000) rotate(-180.000000) translate(-331.500000, -126.500000) "></path>
        <path d="M393.193172,108.294322 C386.897921,111.636458 383.544532,117.685356 385.607728,122.235803 C387.8081,127.091082 395.3713,128.46099 402.487751,125.295143 C409.606057,122.129295 413.595274,115.617639 411.394902,110.764197 C409.19453,105.908918 401.63133,104.53901 394.514879,107.704857 C394.069985,107.903182 393.612114,108.070288 393.193172,108.294322 Z" id="Path" fill="#000000" transform="translate(398.500000, 116.500000) rotate(-180.000000) translate(-398.500000, -116.500000) "></path>
        <path d="M460.193172,98.2943217 C453.897921,101.636458 450.544532,107.685356 452.607728,112.235803 C454.8081,117.091082 462.3713,118.46099 469.487751,115.295143 C476.606057,112.129295 480.595274,105.617639 478.394902,100.764197 C476.19453,95.9089181 468.63133,94.5390096 461.514879,97.7048571 C461.069985,97.9031816 460.612114,98.0702884 460.193172,98.2943217 Z" id="Path" fill="#000000" transform="translate(465.500000, 106.500000) rotate(-180.000000) translate(-465.500000, -106.500000) "></path>
        <path d="M192.193172,138.294322 C185.897921,141.636458 182.544532,147.685356 184.607728,152.235803 C186.8081,157.091082 194.3713,158.46099 201.487751,155.295143 C208.606057,152.129295 212.595274,145.617639 210.394902,140.764197 C208.19453,135.908918 200.63133,134.53901 193.514879,137.704857 C193.069985,137.903182 192.612114,138.070288 192.193172,138.294322 Z" id="Path" fill="#000000" transform="translate(197.500000, 146.500000) rotate(-180.000000) translate(-197.500000, -146.500000) "></path>
        <path d="M125.193172,148.294322 C118.897921,151.636458 115.544532,157.685356 117.607728,162.235803 C119.8081,167.091082 127.3713,168.46099 134.487751,165.295143 C141.606057,162.129295 145.595274,155.617639 143.394902,150.764197 C141.19453,145.908918 133.63133,144.53901 126.514879,147.704857 C126.069985,147.903182 125.612114,148.070288 125.193172,148.294322 Z" id="Path" fill="#000000" transform="translate(130.500000, 156.500000) rotate(-180.000000) translate(-130.500000, -156.500000) "></path>
        <path d="M527.193172,88.2943217 C520.897921,91.6364576 517.544532,97.6853565 519.607728,102.235803 C521.8081,107.091082 529.3713,108.46099 536.487751,105.295143 C543.606057,102.129295 547.595274,95.6176394 545.394902,90.7641969 C543.19453,85.9089181 535.63133,84.5390096 528.514879,87.7048571 C528.069985,87.9031816 527.612114,88.0702884 527.193172,88.2943217 Z" id="Path" fill="#000000" transform="translate(532.500000, 96.500000) rotate(-180.000000) translate(-532.500000, -96.500000) "></path>
        <path d="M594.193172,78.2943217 C587.897921,81.6364576 584.544532,87.6853565 586.607728,92.2358031 C588.8081,97.0910819 596.3713,98.4609904 603.487751,95.2951429 C610.606057,92.1292955 614.595274,85.6176394 612.394902,80.7641969 C610.19453,75.9089181 602.63133,74.5390096 595.514879,77.7048571 C595.069985,77.9031816 594.612114,78.0702884 594.193172,78.2943217 Z" id="Path" fill="#000000" transform="translate(599.500000, 86.500000) rotate(-180.000000) translate(-599.500000, -86.500000) "></path>
        <g id="Group" transform="translate(108.000000, 156.000000)" fill="#0C0C0C" fill-rule="nonzero">
            <g id="Rectangle">
                <rect x="0" y="0" width="45" height="2"></rect>
            </g>
        </g>
        <polyline id="Path-17" stroke="#000000" stroke-width="2" stroke-linecap="square" fill-rule="nonzero" transform="translate(264.500000, 172.000000) scale(-1, -1) translate(-264.500000, -172.000000) " points="130 197 130 183.666667 399 147 399 167"></polyline>
        <polyline id="Path-17" stroke="#000000" stroke-width="2" stroke-linecap="square" fill-rule="nonzero" points="396 96 396 82.6666667 600 46 600 66"></polyline>
        <g id="Degree" transform="translate(197.152984, 182.000000)" fill="#000000">
            <path d="M32.879125,20.8975191 C35.159125,20.8975191 36.959125,19.4575191 36.959125,17.6175191 C36.959125,16.7175191 36.459125,16.0775191 35.179125,15.3775191 C34.259125,14.8775191 33.859125,14.4775191 33.859125,14.0575191 C33.859125,13.3975191 34.519125,12.8575191 35.319125,12.8575191 C36.179125,12.8575191 36.659125,13.4375191 36.659125,14.4975191 L37.379125,14.4175191 L37.619125,12.5575191 C36.859125,12.2575191 36.199125,12.1175191 35.439125,12.1175191 C33.259125,12.1175191 31.639125,13.4375191 31.639125,15.2175191 C31.639125,16.1375191 32.199125,16.8375191 33.459125,17.4975191 C34.319125,17.9575191 34.739125,18.3775191 34.739125,18.7775191 C34.739125,19.5175191 33.959125,20.1175191 32.999125,20.1175191 C31.939125,20.1175191 31.499125,19.5775191 31.439125,18.1575191 L30.679125,18.2575191 L30.479125,20.4175191 C31.339125,20.7575191 32.039125,20.8975191 32.879125,20.8975191 Z M41.799375,20.8975191 C43.259375,20.8975191 44.739375,20.2575191 46.039375,19.0975191 L45.659375,18.5775191 C44.699375,19.1975191 44.039375,19.4375191 43.339375,19.4375191 C41.959375,19.4375191 41.119375,18.4975191 41.119375,16.9775191 C41.119375,16.5175191 41.199375,16.0575191 41.319375,15.7575191 L45.779375,15.7575191 C46.259375,15.7575191 46.399375,15.7175191 46.539375,15.5575191 C46.759375,15.3175191 46.899375,14.7775191 46.899375,14.2375191 C46.899375,12.9375191 45.879375,12.1175191 44.259375,12.1175191 C41.259375,12.1175191 38.679375,14.7375191 38.679375,17.7575191 C38.679375,19.6375191 39.939375,20.8975191 41.799375,20.8975191 Z M44.039375,14.9575191 L41.559375,14.9575191 C42.159375,13.6175191 42.919375,12.9575191 43.899375,12.9575191 C44.559375,12.9575191 44.959375,13.3375191 44.959375,13.9775191 C44.959375,14.6575191 44.679375,14.9575191 44.039375,14.9575191 Z M49.019625,25.1575191 C51.059625,25.1575191 53.059625,24.2575191 54.319625,22.7775191 C54.859625,22.1375191 55.199625,21.3375191 55.199625,20.7375191 C55.199625,20.0375191 54.819625,19.5975191 54.019625,19.3775191 C53.579625,19.2575191 52.519625,19.1975191 50.919625,19.1775191 C50.099625,19.1775191 49.719625,19.0175191 49.719625,18.7175191 C49.719625,18.4975191 49.859625,18.3375191 50.439625,17.9375191 L50.679625,17.7775191 C50.899625,17.7975191 51.019625,17.7975191 51.199625,17.7975191 C53.479625,17.7975191 55.359625,16.3175191 55.359625,14.4775191 C55.359625,14.2375191 55.339625,14.0575191 55.259625,13.7775191 L56.979625,13.8175191 L57.199625,12.7775191 L54.679625,12.7975191 C53.979625,12.2975191 53.339625,12.1175191 52.439625,12.1175191 C50.019625,12.1175191 48.139625,13.6375191 48.139625,15.5975191 C48.139625,16.5575191 48.599625,17.1375191 49.719625,17.6375191 L47.659625,19.1175191 C47.559625,19.3775191 47.519625,19.4975191 47.519625,19.6575191 C47.519625,20.0775191 47.659625,20.3975191 47.959625,20.6775191 L46.379625,21.9175191 C46.119625,22.1175191 45.919625,22.6175191 45.919625,23.0575191 C45.919625,24.2975191 47.179625,25.1575191 49.019625,25.1575191 Z M51.339625,17.0575191 C50.639625,17.0575191 50.239625,16.5775191 50.239625,15.6975191 C50.239625,14.0575191 51.059625,12.8375191 52.159625,12.8375191 C52.899625,12.8375191 53.279625,13.2975191 53.279625,14.1775191 C53.279625,15.8575191 52.459625,17.0575191 51.339625,17.0575191 Z M50.239625,24.1175191 C48.939625,24.1175191 47.999625,23.4375191 47.999625,22.5175191 C47.999625,21.9775191 48.179625,21.5575191 48.679625,21.0175191 C49.519625,21.2975191 50.099625,21.3975191 50.779625,21.3575191 C51.0462917,21.3441858 51.1529583,21.3397414 51.2062917,21.3382599 L51.2457978,21.3375466 C51.2507361,21.3375191 51.2551806,21.3375191 51.259625,21.3375191 C52.479625,21.3375191 53.039625,21.6175191 53.039625,22.2175191 C53.039625,23.1975191 51.659625,24.1175191 50.239625,24.1175191 Z M72.119875,20.6975191 L72.279875,19.9375191 L72.159875,19.9375191 C71.559875,19.9375191 71.299875,19.7975191 71.299875,19.4375191 C71.299875,19.1975191 71.319875,19.1375191 71.539875,18.0575191 L72.059875,15.6175191 C72.199875,14.9775191 72.279875,14.2575191 72.279875,13.7775191 C72.279875,12.7375191 71.439875,12.1175191 70.079875,12.1175191 C69.319875,12.1175191 68.219875,12.5375191 66.659875,13.3975191 C66.439875,12.5575191 65.739875,12.1175191 64.619875,12.1175191 C63.799875,12.1175191 63.299875,12.2975191 61.419875,13.2175191 C61.579875,12.7175191 61.599875,12.6375191 61.799875,12.1375191 L61.419875,11.8775191 C60.719875,12.2175191 58.699875,12.8775191 57.999875,12.9775191 L57.839875,13.6775191 C58.699875,13.6975191 58.879875,13.7975191 58.879875,14.2575191 C58.879875,14.4975191 58.799875,14.9175191 58.599875,15.9175191 L58.139875,18.0575191 C57.799875,19.7975191 57.719875,19.8775191 56.619875,19.9375191 L56.359875,19.9375191 L56.199875,20.6975191 C56.879875,20.6175191 57.319875,20.5975191 58.199875,20.5975191 C59.059875,20.5975191 59.819875,20.6175191 60.879875,20.6975191 L61.039875,19.9375191 L60.959875,19.9375191 C60.399875,19.9375191 60.159875,19.7775191 60.159875,19.4175191 C60.159875,19.2255191 60.172675,19.0847191 60.290435,18.5445591 L60.3584883,18.2391132 C60.3714306,18.1819636 60.3852083,18.1215191 60.399875,18.0575191 L61.239875,14.0375191 C62.019875,13.5775191 62.639875,13.3775191 63.279875,13.3775191 C63.919875,13.3775191 64.379875,13.7775191 64.379875,14.3575191 C64.379875,14.5775191 64.279875,15.2375191 64.139875,15.8575191 L63.679875,18.0575191 C63.319875,19.7775191 63.239875,19.8775191 62.199875,19.9375191 L62.119875,19.9375191 L61.959875,20.6975191 C62.679875,20.6375191 63.119875,20.6175191 63.939875,20.6175191 C64.819875,20.6175191 65.459875,20.6375191 66.419875,20.6975191 L66.579875,19.9375191 L66.499875,19.9375191 C65.939875,19.9375191 65.679875,19.7775191 65.679875,19.4375191 C65.679875,19.1975191 65.699875,19.0975191 65.919875,18.0575191 L66.479875,15.4375191 C66.659875,14.5375191 66.679875,14.4775191 66.719875,14.0775191 C67.799875,13.5175191 68.299875,13.3575191 68.819875,13.3575191 C69.539875,13.3575191 69.939875,13.7175191 69.939875,14.3575191 C69.939875,14.6975191 69.879875,15.1375191 69.759875,15.7575191 L69.259875,18.0575191 C68.919875,19.7775191 68.839875,19.8775191 67.779875,19.9375191 L67.659875,19.9375191 L67.499875,20.6975191 C68.079875,20.6175191 68.559875,20.5975191 68.939875,20.5975191 L69.719875,20.5975191 C70.439875,20.5975191 71.179875,20.6375191 72.119875,20.6975191 Z M77.400125,20.8975191 C78.860125,20.8975191 80.340125,20.2575191 81.640125,19.0975191 L81.260125,18.5775191 C80.300125,19.1975191 79.640125,19.4375191 78.940125,19.4375191 C77.560125,19.4375191 76.720125,18.4975191 76.720125,16.9775191 C76.720125,16.5175191 76.800125,16.0575191 76.920125,15.7575191 L81.380125,15.7575191 C81.860125,15.7575191 82.000125,15.7175191 82.140125,15.5575191 C82.360125,15.3175191 82.500125,14.7775191 82.500125,14.2375191 C82.500125,12.9375191 81.480125,12.1175191 79.860125,12.1175191 C76.860125,12.1175191 74.280125,14.7375191 74.280125,17.7575191 C74.280125,19.6375191 75.540125,20.8975191 77.400125,20.8975191 Z M79.640125,14.9575191 L77.160125,14.9575191 C77.760125,13.6175191 78.520125,12.9575191 79.500125,12.9575191 C80.160125,12.9575191 80.560125,13.3375191 80.560125,13.9775191 C80.560125,14.6575191 80.280125,14.9575191 79.640125,14.9575191 Z M92.600375,20.6975191 L92.760375,19.9375191 L92.600375,19.9375191 C91.920375,19.9375191 91.660375,19.7975191 91.660375,19.3975191 C91.660375,19.1575191 91.700375,18.9175191 91.880375,18.0575191 L92.420375,15.4975191 C92.560375,14.9175191 92.660375,14.0575191 92.660375,13.6775191 C92.660375,12.7575191 91.820375,12.1175191 90.580375,12.1175191 C89.920375,12.1175191 89.720375,12.1975191 87.780375,13.1375191 C87.660375,13.1775191 87.580375,13.2175191 87.420375,13.3175191 C87.580375,12.7375191 87.620375,12.6375191 87.800375,12.1375191 L87.440375,11.8775191 C86.720375,12.2175191 85.100375,12.7375191 84.000375,12.9775191 L83.860375,13.6775191 L83.960375,13.6775191 C84.660375,13.6775191 84.880375,13.7975191 84.880375,14.2375191 C84.880375,14.5375191 84.800375,14.9975191 84.620375,15.8975191 L84.160375,18.0575191 C83.800375,19.7975191 83.720375,19.8775191 82.640375,19.9375191 L82.420375,19.9375191 L82.260375,20.6975191 C83.060375,20.6375191 83.560375,20.6175191 84.560375,20.6175191 C85.560375,20.6175191 86.060375,20.6375191 86.920375,20.6975191 L87.080375,19.9375191 L87.000375,19.9375191 C86.400375,19.9375191 86.160375,19.7975191 86.160375,19.4175191 L86.1607658,19.3467925 C86.1636968,19.1817406 86.1886103,19.0634015 86.400375,18.0575191 L87.240375,14.1575191 C88.060375,13.6175191 88.700375,13.3775191 89.380375,13.3775191 C89.940375,13.3775191 90.320375,13.7575191 90.320375,14.3375191 C90.320375,14.5775191 90.260375,15.0375191 90.160375,15.4775191 L89.620375,18.0575191 C89.260375,19.7775191 89.180375,19.8775191 88.240375,19.9375191 L88.120375,19.9375191 L87.960375,20.6975191 C88.980375,20.6375191 89.520375,20.6175191 90.260375,20.6175191 C91.000375,20.6175191 91.560375,20.6375191 92.600375,20.6975191 Z M96.940625,20.8975191 C97.600625,20.8975191 98.320625,20.7775191 99.000625,20.5375191 C99.160625,20.4975191 99.260625,20.4575191 99.300625,20.4575191 C99.320625,20.4375191 99.380625,20.4175191 99.440625,20.4175191 L99.500625,19.6975191 C99.120625,19.8175191 98.920625,19.8575191 98.640625,19.8575191 C97.960625,19.8575191 97.620625,19.5775191 97.620625,19.0175191 C97.620625,18.7175191 97.760625,17.8775191 98.000625,16.7775191 L98.640625,13.7175191 L100.740625,13.7175191 L101.140625,12.7975191 L98.880625,12.7975191 L99.480625,10.0975191 L98.760625,10.0375191 C98.000625,11.3775191 96.800625,12.4375191 95.500625,12.9575191 L95.220625,13.7175191 L96.280625,13.7175191 L95.340625,18.1375191 C95.180625,18.8975191 95.140625,19.1775191 95.140625,19.4775191 C95.140625,20.3975191 95.780625,20.8975191 96.940625,20.8975191 Z"></path>
        </g>
        <g id="Degree" transform="translate(432.152984, 22.000000)" fill="#000000">
            <path d="M32.879125,20.8975191 C35.159125,20.8975191 36.959125,19.4575191 36.959125,17.6175191 C36.959125,16.7175191 36.459125,16.0775191 35.179125,15.3775191 C34.259125,14.8775191 33.859125,14.4775191 33.859125,14.0575191 C33.859125,13.3975191 34.519125,12.8575191 35.319125,12.8575191 C36.179125,12.8575191 36.659125,13.4375191 36.659125,14.4975191 L37.379125,14.4175191 L37.619125,12.5575191 C36.859125,12.2575191 36.199125,12.1175191 35.439125,12.1175191 C33.259125,12.1175191 31.639125,13.4375191 31.639125,15.2175191 C31.639125,16.1375191 32.199125,16.8375191 33.459125,17.4975191 C34.319125,17.9575191 34.739125,18.3775191 34.739125,18.7775191 C34.739125,19.5175191 33.959125,20.1175191 32.999125,20.1175191 C31.939125,20.1175191 31.499125,19.5775191 31.439125,18.1575191 L30.679125,18.2575191 L30.479125,20.4175191 C31.339125,20.7575191 32.039125,20.8975191 32.879125,20.8975191 Z M41.799375,20.8975191 C43.259375,20.8975191 44.739375,20.2575191 46.039375,19.0975191 L45.659375,18.5775191 C44.699375,19.1975191 44.039375,19.4375191 43.339375,19.4375191 C41.959375,19.4375191 41.119375,18.4975191 41.119375,16.9775191 C41.119375,16.5175191 41.199375,16.0575191 41.319375,15.7575191 L45.779375,15.7575191 C46.259375,15.7575191 46.399375,15.7175191 46.539375,15.5575191 C46.759375,15.3175191 46.899375,14.7775191 46.899375,14.2375191 C46.899375,12.9375191 45.879375,12.1175191 44.259375,12.1175191 C41.259375,12.1175191 38.679375,14.7375191 38.679375,17.7575191 C38.679375,19.6375191 39.939375,20.8975191 41.799375,20.8975191 Z M44.039375,14.9575191 L41.559375,14.9575191 C42.159375,13.6175191 42.919375,12.9575191 43.899375,12.9575191 C44.559375,12.9575191 44.959375,13.3375191 44.959375,13.9775191 C44.959375,14.6575191 44.679375,14.9575191 44.039375,14.9575191 Z M49.019625,25.1575191 C51.059625,25.1575191 53.059625,24.2575191 54.319625,22.7775191 C54.859625,22.1375191 55.199625,21.3375191 55.199625,20.7375191 C55.199625,20.0375191 54.819625,19.5975191 54.019625,19.3775191 C53.579625,19.2575191 52.519625,19.1975191 50.919625,19.1775191 C50.099625,19.1775191 49.719625,19.0175191 49.719625,18.7175191 C49.719625,18.4975191 49.859625,18.3375191 50.439625,17.9375191 L50.679625,17.7775191 C50.899625,17.7975191 51.019625,17.7975191 51.199625,17.7975191 C53.479625,17.7975191 55.359625,16.3175191 55.359625,14.4775191 C55.359625,14.2375191 55.339625,14.0575191 55.259625,13.7775191 L56.979625,13.8175191 L57.199625,12.7775191 L54.679625,12.7975191 C53.979625,12.2975191 53.339625,12.1175191 52.439625,12.1175191 C50.019625,12.1175191 48.139625,13.6375191 48.139625,15.5975191 C48.139625,16.5575191 48.599625,17.1375191 49.719625,17.6375191 L47.659625,19.1175191 C47.559625,19.3775191 47.519625,19.4975191 47.519625,19.6575191 C47.519625,20.0775191 47.659625,20.3975191 47.959625,20.6775191 L46.379625,21.9175191 C46.119625,22.1175191 45.919625,22.6175191 45.919625,23.0575191 C45.919625,24.2975191 47.179625,25.1575191 49.019625,25.1575191 Z M51.339625,17.0575191 C50.639625,17.0575191 50.239625,16.5775191 50.239625,15.6975191 C50.239625,14.0575191 51.059625,12.8375191 52.159625,12.8375191 C52.899625,12.8375191 53.279625,13.2975191 53.279625,14.1775191 C53.279625,15.8575191 52.459625,17.0575191 51.339625,17.0575191 Z M50.239625,24.1175191 C48.939625,24.1175191 47.999625,23.4375191 47.999625,22.5175191 C47.999625,21.9775191 48.179625,21.5575191 48.679625,21.0175191 C49.519625,21.2975191 50.099625,21.3975191 50.779625,21.3575191 C51.0462917,21.3441858 51.1529583,21.3397414 51.2062917,21.3382599 L51.2457978,21.3375466 C51.2507361,21.3375191 51.2551806,21.3375191 51.259625,21.3375191 C52.479625,21.3375191 53.039625,21.6175191 53.039625,22.2175191 C53.039625,23.1975191 51.659625,24.1175191 50.239625,24.1175191 Z M72.119875,20.6975191 L72.279875,19.9375191 L72.159875,19.9375191 C71.559875,19.9375191 71.299875,19.7975191 71.299875,19.4375191 C71.299875,19.1975191 71.319875,19.1375191 71.539875,18.0575191 L72.059875,15.6175191 C72.199875,14.9775191 72.279875,14.2575191 72.279875,13.7775191 C72.279875,12.7375191 71.439875,12.1175191 70.079875,12.1175191 C69.319875,12.1175191 68.219875,12.5375191 66.659875,13.3975191 C66.439875,12.5575191 65.739875,12.1175191 64.619875,12.1175191 C63.799875,12.1175191 63.299875,12.2975191 61.419875,13.2175191 C61.579875,12.7175191 61.599875,12.6375191 61.799875,12.1375191 L61.419875,11.8775191 C60.719875,12.2175191 58.699875,12.8775191 57.999875,12.9775191 L57.839875,13.6775191 C58.699875,13.6975191 58.879875,13.7975191 58.879875,14.2575191 C58.879875,14.4975191 58.799875,14.9175191 58.599875,15.9175191 L58.139875,18.0575191 C57.799875,19.7975191 57.719875,19.8775191 56.619875,19.9375191 L56.359875,19.9375191 L56.199875,20.6975191 C56.879875,20.6175191 57.319875,20.5975191 58.199875,20.5975191 C59.059875,20.5975191 59.819875,20.6175191 60.879875,20.6975191 L61.039875,19.9375191 L60.959875,19.9375191 C60.399875,19.9375191 60.159875,19.7775191 60.159875,19.4175191 C60.159875,19.2255191 60.172675,19.0847191 60.290435,18.5445591 L60.3584883,18.2391132 C60.3714306,18.1819636 60.3852083,18.1215191 60.399875,18.0575191 L61.239875,14.0375191 C62.019875,13.5775191 62.639875,13.3775191 63.279875,13.3775191 C63.919875,13.3775191 64.379875,13.7775191 64.379875,14.3575191 C64.379875,14.5775191 64.279875,15.2375191 64.139875,15.8575191 L63.679875,18.0575191 C63.319875,19.7775191 63.239875,19.8775191 62.199875,19.9375191 L62.119875,19.9375191 L61.959875,20.6975191 C62.679875,20.6375191 63.119875,20.6175191 63.939875,20.6175191 C64.819875,20.6175191 65.459875,20.6375191 66.419875,20.6975191 L66.579875,19.9375191 L66.499875,19.9375191 C65.939875,19.9375191 65.679875,19.7775191 65.679875,19.4375191 C65.679875,19.1975191 65.699875,19.0975191 65.919875,18.0575191 L66.479875,15.4375191 C66.659875,14.5375191 66.679875,14.4775191 66.719875,14.0775191 C67.799875,13.5175191 68.299875,13.3575191 68.819875,13.3575191 C69.539875,13.3575191 69.939875,13.7175191 69.939875,14.3575191 C69.939875,14.6975191 69.879875,15.1375191 69.759875,15.7575191 L69.259875,18.0575191 C68.919875,19.7775191 68.839875,19.8775191 67.779875,19.9375191 L67.659875,19.9375191 L67.499875,20.6975191 C68.079875,20.6175191 68.559875,20.5975191 68.939875,20.5975191 L69.719875,20.5975191 C70.439875,20.5975191 71.179875,20.6375191 72.119875,20.6975191 Z M77.400125,20.8975191 C78.860125,20.8975191 80.340125,20.2575191 81.640125,19.0975191 L81.260125,18.5775191 C80.300125,19.1975191 79.640125,19.4375191 78.940125,19.4375191 C77.560125,19.4375191 76.720125,18.4975191 76.720125,16.9775191 C76.720125,16.5175191 76.800125,16.0575191 76.920125,15.7575191 L81.380125,15.7575191 C81.860125,15.7575191 82.000125,15.7175191 82.140125,15.5575191 C82.360125,15.3175191 82.500125,14.7775191 82.500125,14.2375191 C82.500125,12.9375191 81.480125,12.1175191 79.860125,12.1175191 C76.860125,12.1175191 74.280125,14.7375191 74.280125,17.7575191 C74.280125,19.6375191 75.540125,20.8975191 77.400125,20.8975191 Z M79.640125,14.9575191 L77.160125,14.9575191 C77.760125,13.6175191 78.520125,12.9575191 79.500125,12.9575191 C80.160125,12.9575191 80.560125,13.3375191 80.560125,13.9775191 C80.560125,14.6575191 80.280125,14.9575191 79.640125,14.9575191 Z M92.600375,20.6975191 L92.760375,19.9375191 L92.600375,19.9375191 C91.920375,19.9375191 91.660375,19.7975191 91.660375,19.3975191 C91.660375,19.1575191 91.700375,18.9175191 91.880375,18.0575191 L92.420375,15.4975191 C92.560375,14.9175191 92.660375,14.0575191 92.660375,13.6775191 C92.660375,12.7575191 91.820375,12.1175191 90.580375,12.1175191 C89.920375,12.1175191 89.720375,12.1975191 87.780375,13.1375191 C87.660375,13.1775191 87.580375,13.2175191 87.420375,13.3175191 C87.580375,12.7375191 87.620375,12.6375191 87.800375,12.1375191 L87.440375,11.8775191 C86.720375,12.2175191 85.100375,12.7375191 84.000375,12.9775191 L83.860375,13.6775191 L83.960375,13.6775191 C84.660375,13.6775191 84.880375,13.7975191 84.880375,14.2375191 C84.880375,14.5375191 84.800375,14.9975191 84.620375,15.8975191 L84.160375,18.0575191 C83.800375,19.7975191 83.720375,19.8775191 82.640375,19.9375191 L82.420375,19.9375191 L82.260375,20.6975191 C83.060375,20.6375191 83.560375,20.6175191 84.560375,20.6175191 C85.560375,20.6175191 86.060375,20.6375191 86.920375,20.6975191 L87.080375,19.9375191 L87.000375,19.9375191 C86.400375,19.9375191 86.160375,19.7975191 86.160375,19.4175191 L86.1607658,19.3467925 C86.1636968,19.1817406 86.1886103,19.0634015 86.400375,18.0575191 L87.240375,14.1575191 C88.060375,13.6175191 88.700375,13.3775191 89.380375,13.3775191 C89.940375,13.3775191 90.320375,13.7575191 90.320375,14.3375191 C90.320375,14.5775191 90.260375,15.0375191 90.160375,15.4775191 L89.620375,18.0575191 C89.260375,19.7775191 89.180375,19.8775191 88.240375,19.9375191 L88.120375,19.9375191 L87.960375,20.6975191 C88.980375,20.6375191 89.520375,20.6175191 90.260375,20.6175191 C91.000375,20.6175191 91.560375,20.6375191 92.600375,20.6975191 Z M96.940625,20.8975191 C97.600625,20.8975191 98.320625,20.7775191 99.000625,20.5375191 C99.160625,20.4975191 99.260625,20.4575191 99.300625,20.4575191 C99.320625,20.4375191 99.380625,20.4175191 99.440625,20.4175191 L99.500625,19.6975191 C99.120625,19.8175191 98.920625,19.8575191 98.640625,19.8575191 C97.960625,19.8575191 97.620625,19.5775191 97.620625,19.0175191 C97.620625,18.7175191 97.760625,17.8775191 98.000625,16.7775191 L98.640625,13.7175191 L100.740625,13.7175191 L101.140625,12.7975191 L98.880625,12.7975191 L99.480625,10.0975191 L98.760625,10.0375191 C98.000625,11.3775191 96.800625,12.4375191 95.500625,12.9575191 L95.220625,13.7175191 L96.280625,13.7175191 L95.340625,18.1375191 C95.180625,18.8975191 95.140625,19.1775191 95.140625,19.4775191 C95.140625,20.3975191 95.780625,20.8975191 96.940625,20.8975191 Z"></path>
        </g>
    </g>
</svg>