<?xml version="1.0" encoding="UTF-8"?>
<svg id="_图层_1" data-name="图层 1" xmlns="http://www.w3.org/2000/svg" version="1.1" viewBox="0 0 730 300">
  <defs>
    <style>
      .cls-1 {
        fill: #58c322;
      }

      .cls-1, .cls-2, .cls-3 {
        stroke-width: 0px;
      }

      .cls-1, .cls-3 {
        fill-rule: evenodd;
      }

      .cls-4, .cls-5, .cls-6, .cls-7 {
        isolation: isolate;
      }

      .cls-2 {
        fill: #0c0c0c;
      }

      .cls-8 {
        stroke-dasharray: 0 0 4 8;
        stroke-linecap: square;
      }

      .cls-8, .cls-9, .cls-6, .cls-10, .cls-11, .cls-12 {
        fill: none;
      }

      .cls-8, .cls-10, .cls-11, .cls-12 {
        stroke: #000;
      }

      .cls-5 {
        font-family: NotoSansJP-Regular-90ms-RKSJ-H, 'Noto Sans JP';
        font-size: 18px;
      }

      .cls-5, .cls-3, .cls-7 {
        fill: #000;
      }

      .cls-9 {
        stroke-width: .8px;
      }

      .cls-9, .cls-6 {
        stroke: #58c322;
      }

      .cls-6 {
        opacity: .5;
        stroke-width: .9px;
      }

      .cls-10, .cls-11 {
        stroke-linecap: round;
        stroke-linejoin: round;
      }

      .cls-11 {
        stroke-width: 2px;
      }

      .cls-7 {
        font-family: ArialMT, Arial;
        font-size: 14px;
      }
    </style>
  </defs>
  <g id="M1-segments-kawaikute">
    <g id="_五線" data-name="五線">
      <line id="horizon" class="cls-12" x1="36" y1="74.5" x2="706" y2="74.5"/>
      <line id="horizon-2" data-name="horizon" class="cls-12" x1="36" y1="94.5" x2="706" y2="94.5"/>
      <line id="horizon-3" data-name="horizon" class="cls-12" x1="36" y1="114.5" x2="706" y2="114.5"/>
      <line id="horizon-4" data-name="horizon" class="cls-12" x1="36" y1="134.5" x2="706" y2="134.5"/>
      <line id="horizon-5" data-name="horizon" class="cls-12" x1="36" y1="154.5" x2="706" y2="154.5"/>
    </g>
    <line id="bar" class="cls-11" x1="37.5" y1="73.5" x2="37.5" y2="154.5"/>
    <path id="G-Clef" class="cls-3" d="M65.2,175c-.9,0-1.8-.2-2.6-.4-4.2-1.1-7.1-4.3-7.8-8.5-.2-1.2-.1-3.1.1-4.2.2-.8.7-2,1.2-2.7.7-1.1,1.9-2,3.1-2.6,1-.4,1.5-.5,2.8-.6,1,0,1.2,0,1.8.1,2.5.6,4.5,2.8,5.4,5.7.2.7.2.8.2,2.1,0,1.2,0,1.5-.2,2-.3,1.2-.9,2.2-1.9,3.1-1.4,1.3-3,2.2-5.2,2.6l-.9.2.7.3c3.5,1.6,7.4,1.4,11.1-.4,3.2-1.6,5.7-4.5,6.5-7.6.2-.8.2-.9.2-2.3v-1.5s-1.2-5.9-1.2-5.9c-.7-3.3-1.2-6-1.2-6.1,0-.1-.1,0-.7.1-3.7,1.5-9.2,1.5-14.2,0-6.9-2.1-12.6-6.8-15.5-12.9-.9-1.9-1.5-3.7-1.8-5.9-.1-1-.1-3.6,0-4.9.8-6.7,4.3-13.4,10.8-20.9,2-2.3,6.5-6.7,9.4-9.3.8-.7.8-.7.8-1-.1-.5-.6-3-.8-4-.7-4.6-.7-9.9,0-14.6,1.1-7.3,3.6-13.5,7.3-17.8.7-.8,2.1-2.1,2.2-2.1s.5.6,1,1.3c4.4,6.7,6.7,12.6,7.4,18.8.2,1.5.1,5.2,0,6.6-.6,4.7-2.1,8.7-4.7,12.7-1.7,2.6-4.2,5.6-6.8,8-.6.5-1.2,1.1-1.4,1.3l-.3.3,1.4,6.7,1.4,6.7h.7c1.9-.2,3.9,0,5.3.2,1.9.4,4,1.5,5.6,2.7.9.7,2.4,2.2,3,3.1,1.5,2.1,2.5,4.6,2.8,7,.1,1.2,0,3.5-.2,4.5-.8,3.8-3.3,7.4-7,10.3-.9.7-2.3,1.6-3.2,2.1-.7.3-.7.4-.7.6,0,.3,1.1,5.5,1.5,7.4.2,1,.5,2.8.7,3.8.3,1.9.3,2,.3,3.2,0,2.3-.7,4.1-2,6.1-2.5,3.8-6.9,6.3-12.1,6.7-1.1,0-1.4,0-2.2,0ZM71.7,147.9c1-.1,2.2-.4,3-.7,1-.3,2.2-.9,2.1-1,0,0-1-5-2.2-10.9s-2.2-10.8-2.2-10.8c0,0-.4,0-.9.1-3.4.7-6.2,2.7-7.4,5.2-.4.8-.5,1.3-.6,2.3-.2,2,.4,4.1,1.7,5.8.7,1,1.9,2.1,2.9,2.7.4.3.5.4.2.3,0,0-.4,0-.8-.2-2.5-.5-5-2-6.4-3.7-1.2-1.5-1.8-3.1-2-5.2-.2-2.6.5-5.2,2.1-7.7,1-1.6,2.8-3.4,4.7-4.5,1.3-.8,3.3-1.7,4.6-2,.2,0,.4-.1.4-.2,0,0-2.5-12.3-2.5-12.5,0-.2-3.5,2.6-5.7,4.7-1.3,1.2-3.9,4-4.9,5.1-2.9,3.5-4.8,6.7-5.9,9.9-1.1,3.2-1.3,6.3-.8,9.2.7,3.5,2.9,7.2,6,9.7,4.1,3.4,9.4,4.9,14.7,4.3ZM79.5,144.5c2.8-2.4,4.5-5.2,5-8.2.2-1,.1-3.2,0-4.1-.8-3.8-3.3-6.8-6.7-7.9-.7-.2-.8-.2-2.1-.2-.8,0-1.4,0-1.5,0,0,0,.8,4.3,2.1,10.6,1.2,5.8,2.2,10.5,2.2,10.5,0,0,.4-.2,1-.8ZM70.3,90c5.7-5.7,9-11.2,9.7-16.1.2-1.1.2-2.9,0-3.8-.3-1.9-1.1-3.6-2.4-5.3-.5-.6-.6-.7-1.6-.7-1.1,0-2.1.5-3.2,1.7-1.7,1.9-3.2,4.9-4.2,8.9-1.5,5.6-1.9,12.5-1.1,17.2v.7c.1,0,.9-.7.9-.7.4-.4,1.3-1.3,2-1.9Z"/>
    <path id="quarter" class="cls-3" d="M219.8,162.7c6.3-3.3,9.6-9.4,7.6-13.9-2.2-4.9-9.8-6.2-16.9-3.1-7.1,3.2-11.1,9.7-8.9,14.5,2.2,4.9,9.8,6.2,16.9,3.1.4-.2.9-.4,1.3-.6Z"/>
    <path id="quarter-2" data-name="quarter" class="cls-1" d="M283.8,152.7c6.3-3.3,9.6-9.4,7.6-13.9-2.2-4.9-9.8-6.2-16.9-3.1-7.1,3.2-11.1,9.7-8.9,14.5,2.2,4.9,9.8,6.2,16.9,3.1.4-.2.9-.4,1.3-.6Z"/>
    <path id="quarter-3" data-name="quarter" class="cls-3" d="M349.8,142.7c6.3-3.3,9.6-9.4,7.6-13.9-2.2-4.9-9.8-6.2-16.9-3.1-7.1,3.2-11.1,9.7-8.9,14.5,2.2,4.9,9.8,6.2,16.9,3.1.4-.2.9-.4,1.3-.6Z"/>
    <path id="quarter-4" data-name="quarter" class="cls-1" d="M424.8,132.7c6.3-3.3,9.6-9.4,7.6-13.9-2.2-4.9-9.8-6.2-16.9-3.1-7.1,3.2-11.1,9.7-8.9,14.5,2.2,4.9,9.8,6.2,16.9,3.1.4-.2.9-.4,1.3-.6Z"/>
    <path id="quarter-5" data-name="quarter" class="cls-1" d="M634.8,102.7c6.3-3.3,9.6-9.4,7.6-13.9-2.2-4.9-9.8-6.2-16.9-3.1-7.1,3.2-11.1,9.7-8.9,14.5,2.2,4.9,9.8,6.2,16.9,3.1.4-.2.9-.4,1.3-.6Z"/>
    <path id="quarter-6" data-name="quarter" class="cls-1" d="M148.8,172.7c6.3-3.3,9.6-9.4,7.6-13.9-2.2-4.9-9.8-6.2-16.9-3.1-7.1,3.2-11.1,9.7-8.9,14.5,2.2,4.9,9.8,6.2,16.9,3.1.4-.2.9-.4,1.3-.6Z"/>
    <path id="quarter-7" data-name="quarter" class="cls-3" d="M494.8,122.7c6.3-3.3,9.6-9.4,7.6-13.9-2.2-4.9-9.8-6.2-16.9-3.1-7.1,3.2-11.1,9.7-8.9,14.5,2.2,4.9,9.8,6.2,16.9,3.1.4-.2.9-.4,1.3-.6Z"/>
    <path id="quarter-8" data-name="quarter" class="cls-3" d="M564.8,112.7c6.3-3.3,9.6-9.4,7.6-13.9-2.2-4.9-9.8-6.2-16.9-3.1-7.1,3.2-11.1,9.7-8.9,14.5,2.2,4.9,9.8,6.2,16.9,3.1.4-.2.9-.4,1.3-.6Z"/>
    <circle id="Oval" class="cls-9" cx="143" cy="165" r="27"/>
    <circle id="Oval-2" data-name="Oval" class="cls-6" cx="142.5" cy="164.5" r="37.5"/>
    <circle id="Oval-3" data-name="Oval" class="cls-9" cx="630" cy="95" r="27"/>
    <circle id="Oval-4" data-name="Oval" class="cls-6" cx="629.5" cy="94.5" r="37.5"/>
    <line id="bar-2" data-name="bar" class="cls-10" x1="705.5" y1="74.5" x2="705.5" y2="153.5"/>
    <line id="Path-46" class="cls-8" x1="418" y1="46" x2="418.5" y2="95.5"/>
    <line id="Path-46-2" data-name="Path-46" class="cls-8" x1="629" y1="46" x2="629.5" y2="70.5"/>
    <line id="Path-46-3" data-name="Path-46" class="cls-8" x1="142" y1="46" x2="142.5" y2="138.5"/>
    <line id="Path-46-4" data-name="Path-46" class="cls-8" x1="418.5" y1="145.5" x2="418.5" y2="191.5"/>
    <line id="Path-46-5" data-name="Path-46" class="cls-8" x1="629.5" y1="145.5" x2="629.5" y2="191.5"/>
    <line id="Path-46-6" data-name="Path-46" class="cls-8" x1="418.5" y1="236.3" x2="418.5" y2="279.7"/>
    <line id="Path-46-7" data-name="Path-46" class="cls-8" x1="141.5" y1="236.3" x2="141.5" y2="279.7"/>
    <line id="Path-46-8" data-name="Path-46" class="cls-8" x1="630.5" y1="236.3" x2="630.5" y2="279.7"/>
    <g id="_ド" data-name="ド" class="cls-4">
      <text class="cls-5" transform="translate(132 219)"><tspan x="0" y="0">do</tspan></text>
    </g>
    <g id="_レ" data-name="レ" class="cls-4">
      <text class="cls-5" transform="translate(207 219)"><tspan x="0" y="0">re</tspan></text>
    </g>
    <g id="_ミ" data-name="ミ" class="cls-4">
      <text class="cls-5" transform="translate(265 219)"><tspan x="0" y="0">mi</tspan></text>
    </g>
    <g id="_ファ" data-name="ファ" class="cls-4">
      <text class="cls-5" transform="translate(338 219)"><tspan x="0" y="0">fa</tspan></text>
    </g>
    <g id="_ソ" data-name="ソ" class="cls-4">
      <text class="cls-5" transform="translate(409 219)"><tspan x="0" y="0">sol</tspan></text>
    </g>
    <g id="_ラ" data-name="ラ" class="cls-4">
      <text class="cls-5" transform="translate(486 219)"><tspan x="0" y="0">la</tspan></text>
    </g>
    <g id="_シ" data-name="シ" class="cls-4">
      <text class="cls-5" transform="translate(549 219)"><tspan x="0" y="0">si</tspan></text>
    </g>
    <g id="_ド-2" data-name="ド" class="cls-4">
      <text class="cls-5" transform="translate(621 219)"><tspan x="0" y="0">do</tspan></text>
    </g>
    <g id="_Key-:-D_" data-name="(Key-:-D)" class="cls-4">
      <text class="cls-7" transform="translate(35 38)"><tspan x="0" y="0">(Key : D)</tspan></text>
    </g>
    <g id="sharp">
      <path class="cls-1" d="M261,125v9.7l2-.7v4l-2,.7v10l2-.7v4l-2,.7v10.3h-2v-9.7l-3,1v9.7h-2v-9l-3,1v-4l3-1v-10l-3,1v-4l3-1v-11h2v10.3l3-1v-10.3h2ZM259,139.3l-3,1v10l3-1v-10Z"/>
    </g>
    <g id="sharp-2" data-name="sharp">
      <path class="cls-2" d="M540,84v9.7l2-.7v4l-2,.7v10l2-.7v4l-2,.7v10.3h-2v-9.7l-3,1v9.7h-2v-9l-3,1v-4l3-1v-10l-3,1v-4l3-1v-11h2v10.3l3-1v-10.3h2ZM538,98.3l-3,1v10l3-1v-10Z"/>
    </g>
  </g>
</svg>