<?xml version="1.0" encoding="UTF-8" standalone="no"?><!DOCTYPE svg PUBLIC "-//W3C//DTD SVG 1.1//EN" "http://www.w3.org/Graphics/SVG/1.1/DTD/svg11.dtd"><svg width="702.0px" height="395.0px" viewBox="0 0 702 395" version="1.1" xmlns="http://www.w3.org/2000/svg" xmlns:xlink="http://www.w3.org/1999/xlink" xml:space="preserve" xmlns:serif="http://www.serif.com/" style="fill-rule:evenodd;clip-rule:evenodd;stroke-linecap:square;"><g id="m1-segments-oshakasama"><rect x="0" y="0" width="702" height="395" style="fill:#fff;"/><g id="Group"><path id="Path-35" d="M66,260l580,0" style="fill:none;fill-rule:nonzero;stroke:#ccc;stroke-width:1px;"/><path id="Path-351" serif:id="Path-35" d="M66,280l580,0" style="fill:none;fill-rule:nonzero;stroke:#ccc;stroke-width:1px;"/><path id="Path-352" serif:id="Path-35" d="M66,300l580,0" style="fill:none;fill-rule:nonzero;stroke:#ccc;stroke-width:1px;"/><path id="Path-353" serif:id="Path-35" d="M66,320l580,0" style="fill:none;fill-rule:nonzero;stroke:#ccc;stroke-width:1px;"/><path id="Path-354" serif:id="Path-35" d="M66,340l580,0" style="fill:none;fill-rule:nonzero;stroke:#ccc;stroke-width:1px;"/><path id="Path-355" serif:id="Path-35" d="M66,240l580,0" style="fill:none;fill-rule:nonzero;stroke:#ccc;stroke-width:1px;"/><path id="Path-356" serif:id="Path-35" d="M66,120l580,0" style="fill:none;fill-rule:nonzero;stroke:#ccc;stroke-width:1px;"/><path id="Path-357" serif:id="Path-35" d="M66,140l580,0" style="fill:none;fill-rule:nonzero;stroke:#ccc;stroke-width:1px;"/><path id="Path-358" serif:id="Path-35" d="M66,160l580,0" style="fill:none;fill-rule:nonzero;stroke:#ccc;stroke-width:1px;"/><path id="Path-359" serif:id="Path-35" d="M66,180l580,0" style="fill:none;fill-rule:nonzero;stroke:#ccc;stroke-width:1px;"/><path id="Path-3510" serif:id="Path-35" d="M66,200l580,0" style="fill:none;fill-rule:nonzero;stroke:#ccc;stroke-width:1px;"/><path id="Path-3511" serif:id="Path-35" d="M66,100l580,0" style="fill:none;fill-rule:nonzero;stroke:#ccc;stroke-width:1px;"/><path id="border" d="M61,280l580,0" style="fill:none;fill-rule:nonzero;stroke:#000;stroke-width:2px;stroke-dasharray:4,8;"/><path id="do" d="M61,220l580,0" style="fill:none;fill-rule:nonzero;stroke:#000;stroke-width:2px;"/><path id="border1" serif:id="border" d="M61,140l580,0" style="fill:none;fill-rule:nonzero;stroke:#000;stroke-width:2px;stroke-dasharray:4,8;"/><path id="do1" serif:id="do" d="M61,80l580,0" style="fill:none;fill-rule:nonzero;stroke:#000;stroke-width:2px;"/><path id="Line" d="M622,351l19,9.5l-19,9.5l0,-8l-563,0l0,-3l563,0l0,-8Z" style="fill-rule:nonzero;"/><path id="Line1" serif:id="Line" d="M65.5,46l9.5,19l-8,0l0,297l-3,0l0,-297l-8,0l9.5,-19Z" style="fill-rule:nonzero;"/><path id="Path" d="M146,361l0,-281" style="fill:none;fill-rule:nonzero;stroke:#000;stroke-opacity:0.25;stroke-width:1px;"/><path id="Path1" serif:id="Path" d="M227,361l0,-281" style="fill:none;fill-rule:nonzero;stroke:#000;stroke-opacity:0.25;stroke-width:1px;"/><path id="Path2" serif:id="Path" d="M307,361l0,-281" style="fill:none;fill-rule:nonzero;stroke:#000;stroke-opacity:0.25;stroke-width:1px;"/><path id="Path3" serif:id="Path" d="M387,361l0,-281" style="fill:none;fill-rule:nonzero;stroke:#000;stroke-opacity:0.25;stroke-width:1px;"/><path id="Path4" serif:id="Path" d="M468,361l0,-281" style="fill:none;fill-rule:nonzero;stroke:#000;stroke-opacity:0.25;stroke-width:1px;"/><path id="Path5" serif:id="Path" d="M549,361l0,-281" style="fill:none;fill-rule:nonzero;stroke:#000;stroke-opacity:0.25;stroke-width:1px;"/><path id="Path6" serif:id="Path" d="M630,361l0,-281" style="fill:none;fill-rule:nonzero;stroke:#000;stroke-opacity:0.25;stroke-width:1px;"/><g id="Degree"><path d="M38.88,365.438c0.96,-0.32 1.96,-0.48 3.3,-0.56l0.16,-0.7l-0.08,-0c-0.62,-0 -0.82,-0.14 -0.82,-0.56c-0,-0.28 0.06,-0.64 0.34,-1.98l1.5,-6.98c0.36,-1.62 0.72,-2.92 0.96,-3.56l-0.38,-0.26c-0.78,0.4 -2.7,1.02 -3.4,1.1l-0.14,0.7c0.76,-0 0.96,0.12 0.96,0.56c-0,0.24 -0.08,0.72 -0.3,1.72l-0.5,2.34c-0.64,-0.46 -1.22,-0.64 -2,-0.64c-2.8,-0 -5.28,2.74 -5.28,5.84c-0,1.82 1,2.94 2.6,2.94c0.94,-0 1.8,-0.34 3.18,-1.26c-0.12,0.3 -0.18,0.5 -0.36,0.92l0.26,0.38Zm-1.54,-1.52c-1.08,-0 -1.72,-0.84 -1.72,-2.2c-0,-2.18 1.46,-4.18 3.02,-4.18c0.86,-0 1.42,0.52 1.42,1.3c-0,0.26 -0.08,0.72 -0.24,1.46l-0.6,2.86c-0.72,0.56 -1.24,0.76 -1.88,0.76Zm10.68,1.48c3.2,-0 5.88,-2.46 5.88,-5.36c-0,-2.08 -1.5,-3.46 -3.74,-3.46c-3.24,-0 -5.96,2.46 -5.96,5.38c0,2.08 1.5,3.44 3.82,3.44Zm0.4,-0.82c-1.18,-0 -1.8,-0.9 -1.8,-2.6c0,-2.6 1.34,-4.56 3.1,-4.56c1.16,-0 1.8,0.9 1.8,2.56c-0,2.62 -1.32,4.6 -3.1,4.6Z"/></g><g id="Degree1" serif:id="Degree"><path d="M38.88,225.438c0.96,-0.32 1.96,-0.48 3.3,-0.56l0.16,-0.7l-0.08,-0c-0.62,-0 -0.82,-0.14 -0.82,-0.56c-0,-0.28 0.06,-0.64 0.34,-1.98l1.5,-6.98c0.36,-1.62 0.72,-2.92 0.96,-3.56l-0.38,-0.26c-0.78,0.4 -2.7,1.02 -3.4,1.1l-0.14,0.7c0.76,-0 0.96,0.12 0.96,0.56c-0,0.24 -0.08,0.72 -0.3,1.72l-0.5,2.34c-0.64,-0.46 -1.22,-0.64 -2,-0.64c-2.8,-0 -5.28,2.74 -5.28,5.84c-0,1.82 1,2.94 2.6,2.94c0.94,-0 1.8,-0.34 3.18,-1.26c-0.12,0.3 -0.18,0.5 -0.36,0.92l0.26,0.38Zm-1.54,-1.52c-1.08,-0 -1.72,-0.84 -1.72,-2.2c-0,-2.18 1.46,-4.18 3.02,-4.18c0.86,-0 1.42,0.52 1.42,1.3c-0,0.26 -0.08,0.72 -0.24,1.46l-0.6,2.86c-0.72,0.56 -1.24,0.76 -1.88,0.76Zm10.68,1.48c3.2,-0 5.88,-2.46 5.88,-5.36c-0,-2.08 -1.5,-3.46 -3.74,-3.46c-3.24,-0 -5.96,2.46 -5.96,5.38c0,2.08 1.5,3.44 3.82,3.44Zm0.4,-0.82c-1.18,-0 -1.8,-0.9 -1.8,-2.6c0,-2.6 1.34,-4.56 3.1,-4.56c1.16,-0 1.8,0.9 1.8,2.56c-0,2.62 -1.32,4.6 -3.1,4.6Z"/></g><g id="Degree2" serif:id="Degree"><path d="M38.88,85.438c0.96,-0.32 1.96,-0.48 3.3,-0.56l0.16,-0.7l-0.08,-0c-0.62,-0 -0.82,-0.14 -0.82,-0.56c-0,-0.28 0.06,-0.64 0.34,-1.98l1.5,-6.98c0.36,-1.62 0.72,-2.92 0.96,-3.56l-0.38,-0.26c-0.78,0.4 -2.7,1.02 -3.4,1.1l-0.14,0.7c0.76,-0 0.96,0.12 0.96,0.56c-0,0.24 -0.08,0.72 -0.3,1.72l-0.5,2.34c-0.64,-0.46 -1.22,-0.64 -2,-0.64c-2.8,-0 -5.28,2.74 -5.28,5.84c-0,1.82 1,2.94 2.6,2.94c0.94,-0 1.8,-0.34 3.18,-1.26c-0.12,0.3 -0.18,0.5 -0.36,0.92l0.26,0.38Zm-1.54,-1.52c-1.08,-0 -1.72,-0.84 -1.72,-2.2c-0,-2.18 1.46,-4.18 3.02,-4.18c0.86,-0 1.42,0.52 1.42,1.3c-0,0.26 -0.08,0.72 -0.24,1.46l-0.6,2.86c-0.72,0.56 -1.24,0.76 -1.88,0.76Zm10.68,1.48c3.2,-0 5.88,-2.46 5.88,-5.36c-0,-2.08 -1.5,-3.46 -3.74,-3.46c-3.24,-0 -5.96,2.46 -5.96,5.38c0,2.08 1.5,3.44 3.82,3.44Zm0.4,-0.82c-1.18,-0 -1.8,-0.9 -1.8,-2.6c0,-2.6 1.34,-4.56 3.1,-4.56c1.16,-0 1.8,0.9 1.8,2.56c-0,2.62 -1.32,4.6 -3.1,4.6Z"/></g><g id="Degree3" serif:id="Degree"><path d="M42.01,142.907c1.71,0 3.06,-1.08 3.06,-2.46c-0,-0.675 -0.375,-1.155 -1.335,-1.68c-0.69,-0.375 -0.99,-0.675 -0.99,-0.99c-0,-0.495 0.495,-0.9 1.095,-0.9c0.645,0 1.005,0.435 1.005,1.23l0.54,-0.06l0.18,-1.395c-0.57,-0.225 -1.065,-0.33 -1.635,-0.33c-1.635,0 -2.85,0.99 -2.85,2.325c-0,0.69 0.42,1.215 1.365,1.71c0.645,0.345 0.96,0.66 0.96,0.96c-0,0.555 -0.585,1.005 -1.305,1.005c-0.795,0 -1.125,-0.405 -1.17,-1.47l-0.57,0.075l-0.15,1.62c0.645,0.255 1.17,0.36 1.8,0.36Zm7.245,0c2.4,0 4.41,-1.845 4.41,-4.02c0,-1.56 -1.125,-2.595 -2.805,-2.595c-2.43,0 -4.47,1.845 -4.47,4.035c0,1.56 1.125,2.58 2.865,2.58Zm0.3,-0.615c-0.885,0 -1.35,-0.675 -1.35,-1.95c0,-1.95 1.005,-3.42 2.325,-3.42c0.87,0 1.35,0.675 1.35,1.92c0,1.965 -0.99,3.45 -2.325,3.45Z"/></g><g id="Degree4" serif:id="Degree"><path d="M42.01,283.907c1.71,0 3.06,-1.08 3.06,-2.46c-0,-0.675 -0.375,-1.155 -1.335,-1.68c-0.69,-0.375 -0.99,-0.675 -0.99,-0.99c-0,-0.495 0.495,-0.9 1.095,-0.9c0.645,0 1.005,0.435 1.005,1.23l0.54,-0.06l0.18,-1.395c-0.57,-0.225 -1.065,-0.33 -1.635,-0.33c-1.635,0 -2.85,0.99 -2.85,2.325c-0,0.69 0.42,1.215 1.365,1.71c0.645,0.345 0.96,0.66 0.96,0.96c-0,0.555 -0.585,1.005 -1.305,1.005c-0.795,0 -1.125,-0.405 -1.17,-1.47l-0.57,0.075l-0.15,1.62c0.645,0.255 1.17,0.36 1.8,0.36Zm7.245,0c2.4,0 4.41,-1.845 4.41,-4.02c0,-1.56 -1.125,-2.595 -2.805,-2.595c-2.43,0 -4.47,1.845 -4.47,4.035c0,1.56 1.125,2.58 2.865,2.58Zm0.3,-0.615c-0.885,0 -1.35,-0.675 -1.35,-1.95c0,-1.95 1.005,-3.42 2.325,-3.42c0.87,0 1.35,0.675 1.35,1.92c0,1.965 -0.99,3.45 -2.325,3.45Z"/></g><g id="_-" serif:id="①"><text x="45px" y="325px" style="font-family:'HiraMinProN-W6', 'Hiragino Mincho ProN', serif;font-weight:600;font-size:14px;">①</text></g><g id="_-1" serif:id="②"><text x="45px" y="257px" style="font-family:'HiraMinProN-W6', 'Hiragino Mincho ProN', serif;font-weight:600;font-size:14px;">②</text></g><g id="_-2" serif:id="③"><text x="45px" y="182px" style="font-family:'HiraMinProN-W6', 'Hiragino Mincho ProN', serif;font-weight:600;font-size:14px;">③</text></g><g id="_-3" serif:id="④"><text x="45px" y="117px" style="font-family:'HiraMinProN-W6', 'Hiragino Mincho ProN', serif;font-weight:600;font-size:14px;">④</text></g></g><rect id="Rectangle" x="67.5" y="320.5" width="158" height="40" style="fill:#58c322;fill-opacity:0.45;stroke:#58c322;stroke-width:1px;stroke-linecap:butt;"/><path id="Combined-Shape" d="M286.5,320.5l0,20l20,0l0,20l-79,0l0,-40l59,0Z" style="fill:#58c322;fill-opacity:0.45;fill-rule:nonzero;stroke:#58c322;stroke-width:1px;stroke-linecap:butt;"/><path id="Combined-Shape1" serif:id="Combined-Shape" d="M386.5,200.5l0,79l-79,0l0,-19l59,0l0,-60l20,0Z" style="fill:#ffbf00;fill-opacity:0.49;fill-rule:nonzero;stroke:#ffbf00;stroke-width:1px;stroke-linecap:butt;"/><rect id="Rectangle1" serif:id="Rectangle" x="387.5" y="168.5" width="161" height="51" style="fill:#f50;fill-opacity:0.49;stroke:#f50;stroke-width:1px;stroke-linecap:butt;"/><g id="メロ"><text x="67px" y="383px" style="font-family:'HiraginoSans-W6', 'Hiragino Sans', sans-serif;font-weight:600;font-size:14px;fill:#979797;">主歌</text></g><path id="Line-2" d="M361,374l9,4.5l-9,4.5l0,-4l-258,0l0,-1l258,0l0,-4Z" style="fill:#979797;fill-rule:nonzero;"/><g id="サビ"><text x="387px" y="383px" style="font-family:'HiraginoSans-W6', 'Hiragino Sans', sans-serif;font-weight:600;font-size:14px;fill:#979797;">副歌</text></g><path id="Line-21" serif:id="Line-2" d="M545,374l9,4.5l-9,4.5l0,-4l-122,0l0,-1l122,0l0,-4Z" style="fill:#979797;fill-rule:nonzero;"/><g id="_-Key-:-Dm-" serif:id="(Key-:-Dm)"><text x="56px" y="27px" style="font-family:'HiraginoSans-W6', 'Hiragino Sans', sans-serif;font-weight:600;font-size:13.86px;">(Key : Dm)</text></g></g></svg>