<?xml version="1.0" encoding="UTF-8" standalone="no"?><!DOCTYPE svg PUBLIC "-//W3C//DTD SVG 1.1//EN" "http://www.w3.org/Graphics/SVG/1.1/DTD/svg11.dtd"><svg width="710.0px" height="232.0px" viewBox="0 0 710 232" version="1.1" xmlns="http://www.w3.org/2000/svg" xmlns:xlink="http://www.w3.org/1999/xlink" xml:space="preserve" xmlns:serif="http://www.serif.com/" style="fill-rule:evenodd;clip-rule:evenodd;"><g id="M1-tendency-resolution"><g id="五線"><path id="horizon" d="M16,79.5l670,0" style="fill:none;stroke:#000;stroke-width:1px;"/><path id="horizon1" serif:id="horizon" d="M16,99.5l670,0" style="fill:none;stroke:#000;stroke-width:1px;"/><path id="horizon2" serif:id="horizon" d="M16,119.5l670,0" style="fill:none;stroke:#000;stroke-width:1px;"/><path id="horizon3" serif:id="horizon" d="M16,139.5l670,0" style="fill:none;stroke:#000;stroke-width:1px;"/><path id="horizon4" serif:id="horizon" d="M16,159.5l670,0" style="fill:none;stroke:#000;stroke-width:1px;"/></g><path id="bar" d="M17.5,78.5l-0,81" style="fill:none;stroke:#000;stroke-width:2px;stroke-linecap:round;stroke-linejoin:round;"/><path id="G-Clef" d="M45.162,179.963c-0.896,-0.067 -1.758,-0.212 -2.572,-0.434c-4.215,-1.144 -7.135,-4.322 -7.815,-8.51c-0.2,-1.227 -0.133,-3.147 0.148,-4.243c0.214,-0.839 0.733,-2.038 1.151,-2.663c0.705,-1.051 1.91,-2.046 3.112,-2.564c0.988,-0.428 1.52,-0.541 2.766,-0.585c0.988,-0.037 1.232,-0.021 1.803,0.127c2.488,0.639 4.503,2.772 5.377,5.693c0.197,0.66 0.215,0.827 0.219,2.125c0.003,1.232 -0.018,1.489 -0.173,2.037c-0.344,1.217 -0.932,2.198 -1.871,3.115c-1.375,1.348 -2.986,2.157 -5.161,2.597l-0.933,0.19l0.662,0.288c3.535,1.554 7.448,1.404 11.096,-0.419c3.193,-1.594 5.662,-4.479 6.511,-7.607c0.206,-0.756 0.218,-0.895 0.212,-2.334l-0.006,-1.529l-1.192,-5.916c-0.655,-3.254 -1.209,-5.976 -1.23,-6.05c-0.036,-0.115 -0.118,-0.099 -0.684,0.137c-3.656,1.527 -9.188,1.507 -14.237,-0.05c-6.917,-2.133 -12.563,-6.814 -15.506,-12.854c-0.918,-1.887 -1.454,-3.69 -1.751,-5.895c-0.133,-0.993 -0.112,-3.622 0.041,-4.871c0.82,-6.682 4.269,-13.382 10.772,-20.928c2.024,-2.348 6.454,-6.742 9.422,-9.347c0.79,-0.692 0.823,-0.736 0.762,-0.96c-0.137,-0.519 -0.614,-3.035 -0.762,-4.021c-0.683,-4.598 -0.682,-9.937 0.004,-14.609c1.077,-7.34 3.601,-13.508 7.275,-17.769c0.67,-0.778 2.088,-2.114 2.243,-2.114c0.05,-0 0.48,0.589 0.953,1.309c4.397,6.662 6.723,12.596 7.359,18.761c0.158,1.542 0.114,5.159 -0.082,6.57c-0.644,4.656 -2.147,8.697 -4.725,12.7c-1.685,2.621 -4.224,5.599 -6.815,7.999c-0.591,0.549 -1.214,1.126 -1.383,1.284l-0.306,0.286l1.357,6.676l1.356,6.678l0.672,-0.052c1.889,-0.152 3.885,-0.041 5.312,0.292c1.899,0.446 4.037,1.463 5.636,2.68c0.892,0.68 2.377,2.199 3.004,3.074c1.499,2.09 2.477,4.582 2.75,7.001c0.136,1.197 0.055,3.525 -0.153,4.493c-0.823,3.832 -3.259,7.435 -6.97,10.306c-0.918,0.71 -2.256,1.567 -3.228,2.07c-0.658,0.341 -0.715,0.387 -0.672,0.565c0.083,0.337 1.138,5.465 1.532,7.444c0.207,1.039 0.525,2.76 0.708,3.824c0.322,1.872 0.332,1.969 0.288,3.179c-0.078,2.3 -0.656,4.098 -1.96,6.117c-2.485,3.844 -6.937,6.295 -12.129,6.677c-1.097,0.08 -1.45,0.086 -2.187,0.03Zm6.583,-27.078c0.977,-0.115 2.214,-0.381 3.016,-0.651c0.982,-0.329 2.167,-0.914 2.12,-1.047c-0.022,-0.059 -1.026,-4.955 -2.232,-10.883c-1.206,-5.927 -2.212,-10.796 -2.236,-10.82c-0.023,-0.024 -0.424,0.032 -0.89,0.127c-3.416,0.692 -6.219,2.651 -7.447,5.205c-0.387,0.805 -0.535,1.332 -0.635,2.252c-0.212,1.955 0.417,4.102 1.703,5.804c0.749,0.993 1.89,2.054 2.937,2.734c0.401,0.26 0.478,0.388 0.197,0.327c-0.098,-0.02 -0.442,-0.095 -0.764,-0.163c-2.533,-0.547 -4.982,-1.98 -6.371,-3.723c-1.22,-1.533 -1.839,-3.127 -2.016,-5.199c-0.226,-2.641 0.466,-5.187 2.084,-7.683c1.045,-1.612 2.849,-3.367 4.656,-4.529c1.309,-0.843 3.293,-1.703 4.645,-2.014c0.247,-0.056 0.449,-0.129 0.449,-0.159c0,-0.087 -2.504,-12.339 -2.546,-12.456c-0.061,-0.172 -3.455,2.612 -5.742,4.707c-1.261,1.156 -3.945,3.95 -4.919,5.122c-2.941,3.537 -4.841,6.719 -5.904,9.88c-1.068,3.188 -1.334,6.256 -0.788,9.16c0.664,3.53 2.941,7.224 5.986,9.712c4.136,3.377 9.403,4.917 14.697,4.297Zm7.76,-3.357c2.819,-2.421 4.487,-5.175 4.98,-8.215c0.166,-1.019 0.122,-3.168 -0.08,-4.118c-0.825,-3.849 -3.344,-6.821 -6.664,-7.862c-0.654,-0.206 -0.805,-0.222 -2.094,-0.224c-0.817,-0 -1.417,0.03 -1.458,0.078c-0.041,0.047 0.802,4.276 2.112,10.584c1.199,5.777 2.181,10.514 2.183,10.528c0.008,0.064 0.351,-0.196 1.021,-0.771Zm-9.221,-54.512c5.675,-5.681 9.029,-11.213 9.728,-16.053c0.157,-1.09 0.155,-2.867 -0.006,-3.836c-0.322,-1.932 -1.11,-3.629 -2.45,-5.265c-0.532,-0.65 -0.612,-0.684 -1.618,-0.682c-1.108,0.002 -2.116,0.528 -3.161,1.65c-1.733,1.854 -3.181,4.885 -4.248,8.877c-1.483,5.559 -1.939,12.511 -1.125,17.22l0.127,0.744l0.794,-0.744c0.436,-0.41 1.316,-1.269 1.959,-1.911Z" style="fill-rule:nonzero;"/><path id="quarter" d="M204.807,177.706c6.295,-3.342 9.648,-9.391 7.585,-13.942c-2.2,-4.855 -9.763,-6.225 -16.88,-3.059c-7.118,3.166 -11.107,9.677 -8.907,14.531c2.2,4.855 9.764,6.225 16.88,3.059c0.445,-0.198 0.903,-0.365 1.322,-0.589Z" style="fill:#ffbf00;fill-rule:nonzero;"/><path id="quarter1" serif:id="quarter" d="M196.807,29.706c6.295,-3.342 9.648,-9.391 7.585,-13.942c-2.2,-4.855 -9.763,-6.225 -16.88,-3.059c-7.118,3.166 -11.107,9.677 -8.907,14.531c2.2,4.855 9.764,6.225 16.88,3.059c0.445,-0.198 0.903,-0.365 1.322,-0.589Z" style="fill:#ffbf00;fill-rule:nonzero;"/><path id="quarter2" serif:id="quarter" d="M274.807,167.706c6.295,-3.342 9.648,-9.391 7.585,-13.942c-2.2,-4.855 -9.763,-6.225 -16.88,-3.059c-7.118,3.166 -11.107,9.677 -8.907,14.531c2.2,4.855 9.764,6.225 16.88,3.059c0.445,-0.198 0.903,-0.365 1.322,-0.589Z" style="fill:#58c322;fill-rule:nonzero;"/><path id="quarter3" serif:id="quarter" d="M106.807,30.706c6.295,-3.342 9.648,-9.391 7.585,-13.942c-2.2,-4.855 -9.763,-6.225 -16.88,-3.059c-7.118,3.166 -11.107,9.677 -8.907,14.531c2.2,4.855 9.764,6.225 16.88,3.059c0.445,-0.198 0.903,-0.365 1.322,-0.589Z" style="fill:#58c322;fill-rule:nonzero;"/><g id="無-微" serif:id="無/微"><text x="119px" y="28px" style="font-family:'HiraginoSans-W4', 'Hiragino Sans', sans-serif;font-size:16px;">无/微</text></g><g id="傾性-:"><g transform="matrix(1,0,0,1,20,28)"><text x="0px" y="0px" style="font-family:'STHeitiSC-Medium', 'Heiti SC';font-size:16px;">倾</text><text x="16px" y="0px" style="font-family:'HiraginoSans-W4', 'Hiragino Sans', sans-serif;font-size:16px;">向性 :</text></g></g><g id="中"><text x="213px" y="28px" style="font-family:'HiraginoSans-W4', 'Hiragino Sans', sans-serif;font-size:16px;">中</text></g><path id="quarter4" serif:id="quarter" d="M267.807,29.706c6.295,-3.342 9.648,-9.391 7.585,-13.942c-2.2,-4.855 -9.763,-6.225 -16.88,-3.059c-7.118,3.166 -11.107,9.677 -8.907,14.531c2.2,4.855 9.764,6.225 16.88,3.059c0.445,-0.198 0.903,-0.365 1.322,-0.589Z" style="fill:#f63;fill-rule:nonzero;"/><g id="強"><text x="284px" y="28px" style="font-family:'HiraginoSans-W4', 'Hiragino Sans', sans-serif;font-size:16px;">强</text></g><g id="第一の解決"><text x="390px" y="28px" style="font-family:'HiraginoSans-W4', 'Hiragino Sans', sans-serif;font-size:16px;">第一的解决</text></g><g id="第二の解決"><text x="555px" y="28px" style="font-family:'HiraginoSans-W4', 'Hiragino Sans', sans-serif;font-size:16px;">第二的解决</text></g><path id="quarter5" serif:id="quarter" d="M344.807,157.706c6.295,-3.342 9.648,-9.391 7.585,-13.942c-2.2,-4.855 -9.763,-6.225 -16.88,-3.059c-7.118,3.166 -11.107,9.677 -8.907,14.531c2.2,4.855 9.764,6.225 16.88,3.059c0.445,-0.198 0.903,-0.365 1.322,-0.589Z" style="fill:#f63;fill-rule:nonzero;"/><path id="quarter6" serif:id="quarter" d="M419.807,147.706c6.295,-3.342 9.648,-9.391 7.585,-13.942c-2.2,-4.855 -9.763,-6.225 -16.88,-3.059c-7.118,3.166 -11.107,9.677 -8.907,14.531c2.2,4.855 9.764,6.225 16.88,3.059c0.445,-0.198 0.903,-0.365 1.322,-0.589Z" style="fill:#58c322;fill-rule:nonzero;"/><path id="quarter7" serif:id="quarter" d="M644.807,117.706c6.295,-3.342 9.648,-9.391 7.585,-13.942c-2.2,-4.855 -9.763,-6.225 -16.88,-3.059c-7.118,3.166 -11.107,9.677 -8.907,14.531c2.2,4.855 9.764,6.225 16.88,3.059c0.445,-0.198 0.903,-0.365 1.322,-0.589Z" style="fill:#58c322;fill-rule:nonzero;"/><path id="quarter8" serif:id="quarter" d="M133.807,187.706c6.295,-3.342 9.648,-9.391 7.585,-13.942c-2.2,-4.855 -9.763,-6.225 -16.88,-3.059c-7.118,3.166 -11.107,9.677 -8.907,14.531c2.2,4.855 9.764,6.225 16.88,3.059c0.445,-0.198 0.903,-0.365 1.322,-0.589Z" style="fill:#58c322;fill-rule:nonzero;"/><rect id="Rectangle" x="106" y="179" width="45" height="2" style="fill:#58c322;"/><path id="quarter9" serif:id="quarter" d="M494.807,137.706c6.295,-3.342 9.648,-9.391 7.585,-13.942c-2.2,-4.855 -9.763,-6.225 -16.88,-3.059c-7.118,3.166 -11.107,9.677 -8.907,14.531c2.2,4.855 9.764,6.225 16.88,3.059c0.445,-0.198 0.903,-0.365 1.322,-0.589Z" style="fill:#ffbf00;fill-rule:nonzero;"/><path id="quarter10" serif:id="quarter" d="M564.807,127.706c6.295,-3.342 9.648,-9.391 7.585,-13.942c-2.2,-4.855 -9.763,-6.225 -16.88,-3.059c-7.118,3.166 -11.107,9.677 -8.907,14.531c2.2,4.855 9.764,6.225 16.88,3.059c0.445,-0.198 0.903,-0.365 1.322,-0.589Z" style="fill:#f63;fill-rule:nonzero;"/><circle id="Oval" cx="128" cy="180" r="27" style="fill:none;stroke:#58c322;stroke-width:0.83px;"/><circle id="Oval1" serif:id="Oval" cx="127.5" cy="179.5" r="37.5" style="fill:none;stroke:#58c322;stroke-opacity:0.49;stroke-width:0.92px;"/><circle id="Oval2" serif:id="Oval" cx="270" cy="160" r="27" style="fill:none;stroke:#58c322;stroke-opacity:0.5;stroke-width:0.83px;"/><circle id="Oval3" serif:id="Oval" cx="414" cy="140" r="27" style="fill:none;stroke:#58c322;stroke-opacity:0.5;stroke-width:0.83px;"/><circle id="Oval4" serif:id="Oval" cx="640" cy="110" r="27" style="fill:none;stroke:#58c322;stroke-width:0.83px;"/><circle id="Oval5" serif:id="Oval" cx="639.5" cy="109.5" r="37.5" style="fill:none;stroke:#58c322;stroke-opacity:0.49;stroke-width:0.92px;"/><path id="Line-2" d="M301.515,148.26l1.269,5.864l18.38,-3.976l0.977,-0.212l0.423,1.955l-0.978,0.211l-18.379,3.976l1.269,5.865l-15.163,-3.881l12.202,-9.802Z" style="fill:#f63;fill-rule:nonzero;"/><path id="Line-21" serif:id="Line-2" d="M364.235,15.22l14.077,6.842l-13.92,7.157l-0.068,-6.001l-27.844,0.313l-1,0.011l-0.022,-1.999l1,-0.012l27.843,-0.313l-0.066,-5.998Z" style="fill-rule:nonzero;"/><path id="Line-22" serif:id="Line-2" d="M447.515,128.26l1.269,5.864l18.38,-3.976l0.977,-0.212l0.423,1.955l-0.978,0.211l-18.379,3.976l1.269,5.865l-15.163,-3.881l12.202,-9.802Z" style="fill:#ffbf00;fill-rule:nonzero;"/><path id="Line-23" serif:id="Line-2" d="M160.515,168.26l1.269,5.864l18.38,-3.976l0.977,-0.212l0.423,1.955l-0.978,0.211l-18.379,3.976l1.269,5.865l-15.164,-3.881l12.203,-9.802Z" style="fill:#ffbf00;fill-rule:nonzero;"/><path id="Line-24" serif:id="Line-2" d="M223.72,164.851l0.173,0.985l-4.924,0.868l-0.173,-0.985l4.924,-0.868Zm20.081,-7.603l9.645,2.868l-8.082,5.995l-0.696,-3.939l-1.571,0.277l-0.492,0.087l-0.174,-0.985l0.492,-0.087l1.572,-0.277l-0.694,-3.939Zm-12.203,6.214l0.174,0.984l-0.493,0.087l-4.431,0.782l-0.174,-0.985l4.432,-0.782l0.492,-0.086Zm7.879,-1.39l0.173,0.985l-0.492,0.087l-4.432,0.781l-0.173,-0.984l4.431,-0.782l0.493,-0.087Z" style="fill-rule:nonzero;"/><path id="Line-25" serif:id="Line-2" d="M366.72,145.851l0.173,0.985l-4.924,0.868l-0.173,-0.985l4.924,-0.868Zm20.081,-7.603l9.645,2.868l-8.082,5.995l-0.696,-3.939l-1.571,0.277l-0.492,0.087l-0.174,-0.985l0.492,-0.087l1.572,-0.277l-0.694,-3.939Zm-12.203,6.214l0.174,0.984l-0.493,0.087l-4.431,0.782l-0.174,-0.985l4.432,-0.782l0.492,-0.086Zm7.879,-1.39l0.173,0.985l-0.492,0.087l-4.432,0.781l-0.173,-0.984l4.431,-0.782l0.493,-0.087Z" style="fill-rule:nonzero;"/><path id="Line-26" serif:id="Line-2" d="M535.2,18.559l9.011,4.479l-8.989,4.521l-0.01,-4.001l-3.836,0.01l-0.5,0.001l-0.002,-1l0.5,-0.001l3.835,-0.01l-0.009,-3.999Zm-23.326,4.055l0.002,1l-0.5,0.002l-4.5,0.01l-0.002,-1l5,-0.012Zm8,-0.019l0.002,1l-0.5,0.002l-4.5,0.01l-0.002,-1l5,-0.012Zm8,-0.018l0.002,1l-0.5,0.001l-4.5,0.01l-0.002,-1l5,-0.011Z" style="fill-rule:nonzero;"/><path id="Line-27" serif:id="Line-2" d="M514.353,152.214l0.498,0.048c0.991,0.095 1.98,0.161 2.967,0.2l0.988,0.028l0.5,0.01l-0.02,1l-0.5,-0.01c-1.006,-0.02 -2.013,-0.068 -3.021,-0.146l-1.01,-0.087l-0.497,-0.048l0.095,-0.995Zm12.838,-0.243l0.133,0.991l-0.495,0.067c-1.004,0.135 -2.008,0.241 -3.014,0.318l-1.006,0.067l-0.499,0.029l-0.058,-0.999l0.5,-0.028c0.987,-0.057 1.973,-0.142 2.959,-0.255l0.984,-0.123l0.496,-0.067Zm-20.658,-1.173l0.486,0.12c0.972,0.24 1.943,0.452 2.913,0.637l0.968,0.176l0.493,0.085l-0.17,0.986l-0.493,-0.085c-0.985,-0.17 -1.973,-0.368 -2.961,-0.593l-0.99,-0.235l-0.485,-0.12l0.239,-0.971Zm28.421,-0.533l0.275,0.961l-0.481,0.138c-0.978,0.28 -1.956,0.532 -2.936,0.757l-0.979,0.216l-0.489,0.104l-0.207,-0.979l0.489,-0.103c0.963,-0.203 1.925,-0.433 2.886,-0.69l0.961,-0.266l0.481,-0.138Zm-35.962,-1.936l0.466,0.181c0.937,0.366 1.873,0.706 2.808,1.021l0.934,0.306l0.476,0.152l-0.304,0.953l-0.477,-0.152c-0.948,-0.303 -1.898,-0.631 -2.849,-0.985l-0.952,-0.363l-0.465,-0.181l0.363,-0.932Zm43.438,-0.817l0.396,0.919l-0.459,0.198c-0.936,0.404 -1.873,0.783 -2.81,1.138l-0.938,0.346l-0.47,0.169l-0.339,-0.941l0.47,-0.169c0.923,-0.332 1.846,-0.69 2.768,-1.071l0.923,-0.39l0.459,-0.199Zm-50.641,-2.536l0.443,0.232c0.894,0.468 1.786,0.914 2.677,1.336l0.89,0.416l0.455,0.208l-0.417,0.909l-0.454,-0.208c-0.902,-0.413 -1.805,-0.849 -2.71,-1.309l-0.905,-0.467l-0.443,-0.232l0.464,-0.885Zm57.736,-1.074l0.494,0.87l-0.434,0.247c-0.888,0.504 -1.775,0.986 -2.663,1.446l-0.887,0.453l-0.447,0.224l-0.449,-0.894l0.447,-0.224c0.876,-0.44 1.752,-0.901 2.629,-1.384l0.876,-0.491l0.434,-0.247Zm38.909,-1.375l0.499,0.034c1.071,0.072 2.129,0.104 3.173,0.096l0.78,-0.013l0.5,-0.013l0.026,0.999l-0.499,0.014c-1.063,0.028 -2.138,0.016 -3.228,-0.038l-0.819,-0.047l-0.499,-0.034l0.067,-0.998Zm12.743,-1.008l0.232,0.973l-0.486,0.115c-1.047,0.25 -2.106,0.455 -3.18,0.616l-0.808,0.112l-0.496,0.064l-0.128,-0.992l0.496,-0.064c1.053,-0.135 2.092,-0.313 3.117,-0.534l0.767,-0.174l0.486,-0.116Zm-44.984,-1.881l0.571,0.821l-0.411,0.285c-0.838,0.582 -1.676,1.145 -2.514,1.687l-0.837,0.536l-0.423,0.268l-0.534,-0.846l0.422,-0.267c0.829,-0.524 1.657,-1.067 2.486,-1.63l0.829,-0.569l0.411,-0.285Zm24.397,1.618l0.487,0.112c1.053,0.244 2.094,0.453 3.121,0.628l0.769,0.124l0.494,0.076l-0.152,0.988l-0.494,-0.076c-1.042,-0.16 -2.095,-0.355 -3.161,-0.586l-0.802,-0.179l-0.487,-0.113l0.225,-0.974Zm28.015,-2.484l0.431,0.903l-0.451,0.215c-0.982,0.469 -1.977,0.895 -2.984,1.278l-0.758,0.278l-0.471,0.168l-0.335,-0.942l0.471,-0.168c0.987,-0.351 1.962,-0.745 2.925,-1.181l0.721,-0.335l0.451,-0.216Zm-35.597,0.135l0.469,0.172c0.954,0.351 1.898,0.675 2.832,0.973l0.932,0.289l0.478,0.145l-0.29,0.957l-0.478,-0.144c-0.942,-0.286 -1.894,-0.597 -2.854,-0.934l-0.965,-0.347l-0.469,-0.172l0.345,-0.939Zm-7.304,-3.154l0.451,0.216c0.917,0.44 1.825,0.858 2.725,1.254l0.897,0.388l0.46,0.196l-0.392,0.92l-0.46,-0.196c-0.905,-0.386 -1.817,-0.793 -2.739,-1.223l-0.924,-0.437l-0.451,-0.216l0.433,-0.902Zm-3.18,-0.929l0.63,0.776l-0.388,0.315c-0.704,0.571 -1.407,1.128 -2.11,1.672l-1.054,0.804l-0.399,0.301l-0.602,-0.798l0.399,-0.301c0.696,-0.525 1.393,-1.064 2.09,-1.616l1.046,-0.838l0.388,-0.315Zm52.813,-0.209l0.59,0.807l-0.403,0.295c-0.885,0.647 -1.78,1.255 -2.685,1.824l-0.68,0.42l-0.429,0.258l-0.516,-0.856l0.428,-0.259c0.889,-0.537 1.769,-1.112 2.64,-1.726l0.652,-0.468l0.403,-0.295Zm11.004,-9.981l-2.844,9.652l-2.952,-2.751l-0.372,0.349c-0.247,0.227 -0.495,0.452 -0.743,0.673l-0.748,0.653l-0.38,0.326l-0.651,-0.759l0.38,-0.326c0.491,-0.421 0.979,-0.856 1.465,-1.303l0.315,-0.296l-2.898,-2.701l9.428,-3.517Z" style="fill-rule:nonzero;"/><path id="Line-28" serif:id="Line-2" d="M601.33,107.668l15.123,4.035l-12.302,9.678l-1.21,-5.878l-22.365,4.601l-0.979,0.202l-0.403,-1.959l0.98,-0.201l22.364,-4.602l-1.208,-5.876Z" style="fill:#f63;fill-rule:nonzero;"/><path id="bar1" serif:id="bar" d="M685.5,79.5l0,79" style="fill:none;stroke:#000;stroke-width:1px;stroke-linecap:round;stroke-linejoin:round;"/></g></svg>