<?xml version="1.0" encoding="UTF-8" standalone="no"?><!DOCTYPE svg PUBLIC "-//W3C//DTD SVG 1.1//EN" "http://www.w3.org/Graphics/SVG/1.1/DTD/svg11.dtd"><svg width="680.0px" height="410.0px" viewBox="0 0 680 410" version="1.1" xmlns="http://www.w3.org/2000/svg" xmlns:xlink="http://www.w3.org/1999/xlink" xml:space="preserve" xmlns:serif="http://www.serif.com/" style="fill-rule:evenodd;clip-rule:evenodd;"><g id="m2-hamori-ue-tendency1"><g id="五線"><path id="horizon" d="M16,244.5l648,0" style="fill:none;stroke:#000;stroke-width:1px;"/><path id="horizon1" serif:id="horizon" d="M16,264.5l648,0" style="fill:none;stroke:#000;stroke-width:1px;"/><path id="horizon2" serif:id="horizon" d="M16,284.5l648,0" style="fill:none;stroke:#000;stroke-width:1px;"/><path id="horizon3" serif:id="horizon" d="M16,304.5l648,0" style="fill:none;stroke:#000;stroke-width:1px;"/><path id="horizon4" serif:id="horizon" d="M16,324.5l648,0" style="fill:none;stroke:#000;stroke-width:1px;"/></g><g id="五線1" serif:id="五線"><path id="horizon5" serif:id="horizon" d="M17,54.5l648,0" style="fill:none;stroke:#000;stroke-width:1px;"/><path id="horizon6" serif:id="horizon" d="M17,74.5l648,0" style="fill:none;stroke:#000;stroke-width:1px;"/><path id="horizon7" serif:id="horizon" d="M17,94.5l648,0" style="fill:none;stroke:#000;stroke-width:1px;"/><path id="horizon8" serif:id="horizon" d="M17,114.5l648,0" style="fill:none;stroke:#000;stroke-width:1px;"/><path id="horizon9" serif:id="horizon" d="M17,134.5l648,0" style="fill:none;stroke:#000;stroke-width:1px;"/></g><path id="bar" d="M17,55l0.5,268.437" style="fill:none;stroke:#000;stroke-width:2.72px;stroke-linecap:round;stroke-linejoin:round;"/><g id="F"><path id="Shape" d="M28,313.596c5.774,-3.899 10.087,-6.851 12.864,-8.892c2.778,-2.004 5.702,-4.518 8.699,-7.506c2.996,-2.988 5.518,-6.377 7.565,-10.131c1.608,-2.769 2.997,-5.976 4.13,-9.62c1.133,-3.607 1.717,-7.105 1.827,-10.421c-0,-3.098 -0.402,-6.049 -1.243,-8.819c-0.804,-2.806 -2.192,-5.101 -4.166,-6.96c-1.973,-1.822 -4.532,-2.733 -7.711,-2.733c-3.07,0 -5.957,0.62 -8.662,1.822c-2.668,1.239 -4.568,3.207 -5.628,5.976c-0,0.255 -0.146,0.583 -0.366,1.057c0.073,0.583 0.366,1.02 0.914,1.348c0.548,0.328 1.023,0.474 1.462,0.474c0.219,0 0.84,-0.109 1.791,-0.328c0.986,-0.218 1.791,-0.364 2.448,-0.364c1.937,-0 3.655,0.692 5.227,2.04c1.535,1.349 2.302,2.988 2.302,4.92c-0,1.384 -0.402,2.696 -1.17,3.899c-0.767,1.202 -1.827,2.186 -3.179,2.879c-1.352,0.728 -2.851,1.056 -4.459,1.056c-2.924,0 -5.409,-0.874 -7.455,-2.66c-2.01,-1.822 -3.034,-4.117 -3.034,-6.996c0,-3.681 1.133,-6.851 3.363,-9.547c2.265,-2.697 5.116,-4.701 8.625,-6.049c3.472,-1.385 6.98,-2.041 10.562,-2.041c3.91,-0 7.638,0.984 11.11,2.988c3.508,1.968 6.249,4.701 8.296,8.09c2.047,3.425 3.107,7.069 3.107,11.004c-0,6.997 -2.339,13.483 -7.017,19.496c-4.678,6.012 -10.453,11.223 -17.36,15.669c-4.605,3.024 -12.061,7.105 -22.33,12.243l-0.512,-1.894Zm50.764,-58.373c-0,-1.311 0.475,-2.405 1.425,-3.279c0.914,-0.911 2.047,-1.348 3.399,-1.348c1.169,-0 2.266,0.51 3.252,1.494c0.987,0.947 1.462,2.077 1.462,3.316c0,1.311 -0.511,2.441 -1.462,3.352c-1.023,0.875 -2.156,1.312 -3.435,1.312c-1.352,-0 -2.449,-0.437 -3.326,-1.421c-0.877,-0.948 -1.315,-2.077 -1.315,-3.426Zm-0,19.095c-0,-1.312 0.475,-2.442 1.352,-3.316c0.913,-0.911 2.046,-1.348 3.472,-1.348c1.169,-0 2.229,0.473 3.252,1.457c0.951,0.984 1.462,2.041 1.462,3.207c0,1.421 -0.475,2.551 -1.388,3.462c-0.951,0.911 -2.047,1.384 -3.326,1.384c-1.426,0 -2.559,-0.473 -3.472,-1.348c-0.877,-0.875 -1.352,-2.041 -1.352,-3.498Z" style="fill:#131516;stroke:#131516;stroke-width:0.5px;"/></g><path id="G-Clef" d="M45.162,154.963c-0.896,-0.067 -1.758,-0.212 -2.572,-0.434c-4.215,-1.144 -7.135,-4.322 -7.815,-8.51c-0.2,-1.227 -0.133,-3.147 0.148,-4.243c0.214,-0.839 0.733,-2.038 1.151,-2.663c0.705,-1.051 1.91,-2.046 3.112,-2.564c0.988,-0.428 1.52,-0.541 2.766,-0.585c0.988,-0.037 1.232,-0.021 1.803,0.127c2.488,0.639 4.503,2.772 5.377,5.693c0.197,0.66 0.215,0.827 0.219,2.125c0.003,1.232 -0.018,1.489 -0.173,2.037c-0.344,1.217 -0.932,2.198 -1.871,3.115c-1.375,1.348 -2.986,2.157 -5.161,2.597l-0.933,0.19l0.662,0.288c3.535,1.554 7.448,1.404 11.096,-0.419c3.193,-1.594 5.662,-4.479 6.511,-7.607c0.206,-0.756 0.218,-0.895 0.212,-2.334l-0.006,-1.529l-1.192,-5.916c-0.655,-3.254 -1.209,-5.976 -1.23,-6.05c-0.036,-0.115 -0.118,-0.099 -0.684,0.137c-3.656,1.527 -9.188,1.507 -14.237,-0.05c-6.917,-2.133 -12.563,-6.814 -15.506,-12.854c-0.918,-1.887 -1.454,-3.69 -1.751,-5.895c-0.133,-0.993 -0.112,-3.622 0.041,-4.871c0.82,-6.682 4.269,-13.382 10.772,-20.928c2.024,-2.348 6.454,-6.742 9.422,-9.347c0.79,-0.692 0.823,-0.736 0.762,-0.96c-0.137,-0.519 -0.614,-3.035 -0.762,-4.021c-0.683,-4.598 -0.682,-9.937 0.004,-14.609c1.077,-7.34 3.601,-13.508 7.275,-17.769c0.67,-0.778 2.088,-2.114 2.243,-2.114c0.05,-0 0.48,0.589 0.953,1.309c4.397,6.662 6.723,12.596 7.359,18.761c0.158,1.542 0.114,5.159 -0.082,6.57c-0.644,4.656 -2.147,8.697 -4.725,12.7c-1.685,2.621 -4.224,5.599 -6.815,7.999c-0.591,0.549 -1.214,1.126 -1.383,1.284l-0.306,0.286l1.357,6.676l1.356,6.678l0.672,-0.052c1.889,-0.152 3.885,-0.041 5.312,0.292c1.899,0.446 4.037,1.463 5.636,2.68c0.892,0.68 2.377,2.199 3.004,3.074c1.499,2.09 2.477,4.582 2.75,7.001c0.136,1.197 0.055,3.525 -0.153,4.493c-0.823,3.832 -3.259,7.435 -6.97,10.306c-0.918,0.71 -2.256,1.567 -3.228,2.07c-0.658,0.341 -0.715,0.387 -0.672,0.565c0.083,0.337 1.138,5.465 1.532,7.444c0.207,1.039 0.525,2.76 0.708,3.824c0.322,1.872 0.332,1.969 0.288,3.179c-0.078,2.3 -0.656,4.098 -1.96,6.117c-2.485,3.844 -6.937,6.295 -12.129,6.677c-1.097,0.08 -1.45,0.086 -2.187,0.03Zm6.583,-27.078c0.977,-0.115 2.214,-0.381 3.016,-0.651c0.982,-0.329 2.167,-0.914 2.12,-1.047c-0.022,-0.059 -1.026,-4.955 -2.232,-10.883c-1.206,-5.927 -2.212,-10.796 -2.236,-10.82c-0.023,-0.024 -0.424,0.032 -0.89,0.127c-3.416,0.692 -6.219,2.651 -7.447,5.205c-0.387,0.805 -0.535,1.332 -0.635,2.252c-0.212,1.955 0.417,4.102 1.703,5.804c0.749,0.993 1.89,2.054 2.937,2.734c0.401,0.26 0.478,0.388 0.197,0.327c-0.098,-0.02 -0.442,-0.095 -0.764,-0.163c-2.533,-0.547 -4.982,-1.98 -6.371,-3.723c-1.22,-1.533 -1.839,-3.127 -2.016,-5.199c-0.226,-2.641 0.466,-5.187 2.084,-7.683c1.045,-1.612 2.849,-3.367 4.656,-4.529c1.309,-0.843 3.293,-1.703 4.645,-2.014c0.247,-0.056 0.449,-0.129 0.449,-0.159c0,-0.087 -2.504,-12.339 -2.546,-12.456c-0.061,-0.172 -3.455,2.612 -5.742,4.707c-1.261,1.156 -3.945,3.95 -4.919,5.122c-2.941,3.537 -4.841,6.719 -5.904,9.88c-1.068,3.188 -1.334,6.256 -0.788,9.16c0.664,3.53 2.941,7.224 5.986,9.712c4.136,3.377 9.403,4.917 14.697,4.297Zm7.76,-3.357c2.819,-2.421 4.487,-5.175 4.98,-8.215c0.166,-1.019 0.122,-3.168 -0.08,-4.118c-0.825,-3.849 -3.344,-6.821 -6.664,-7.862c-0.654,-0.206 -0.805,-0.222 -2.094,-0.224c-0.817,-0 -1.417,0.03 -1.458,0.078c-0.041,0.047 0.802,4.276 2.112,10.584c1.199,5.777 2.181,10.514 2.183,10.528c0.008,0.064 0.351,-0.196 1.021,-0.771Zm-9.221,-54.512c5.675,-5.681 9.029,-11.213 9.728,-16.053c0.157,-1.09 0.155,-2.867 -0.006,-3.836c-0.322,-1.932 -1.11,-3.629 -2.45,-5.265c-0.532,-0.65 -0.612,-0.684 -1.618,-0.682c-1.108,0.002 -2.116,0.528 -3.161,1.65c-1.733,1.854 -3.181,4.885 -4.248,8.877c-1.483,5.559 -1.939,12.511 -1.125,17.22l0.127,0.744l0.794,-0.744c0.436,-0.41 1.316,-1.269 1.959,-1.911Z"/><path id="bar1" serif:id="bar" d="M664.25,55l0.5,268.437" style="fill:none;stroke:#000;stroke-width:1px;stroke-linecap:round;stroke-linejoin:round;"/><g id="half-note"><path id="half" d="M188.414,112.815c5.829,-3.183 8.934,-8.944 7.023,-13.278c-2.037,-4.624 -9.04,-5.928 -15.629,-2.913c-6.591,3.015 -10.285,9.216 -8.248,13.839c2.038,4.624 9.041,5.928 15.63,2.913c0.412,-0.189 0.836,-0.348 1.224,-0.561Zm-1.905,-3.921c-0.414,0.219 -0.833,0.381 -1.272,0.582c-5.618,2.571 -11.044,2.692 -12.111,0.27c-1.068,-2.421 2.626,-6.473 8.244,-9.044c5.617,-2.571 11.043,-2.691 12.111,-0.269c0.983,2.231 -2.086,5.895 -6.972,8.461Z" style="fill:#0c0c0c;fill-rule:nonzero;"/></g><g id="half-note1" serif:id="half-note"><path id="half1" serif:id="half" d="M188.414,92.815c5.829,-3.183 8.934,-8.944 7.023,-13.278c-2.037,-4.624 -9.04,-5.928 -15.629,-2.913c-6.591,3.015 -10.285,9.216 -8.248,13.839c2.038,4.624 9.041,5.928 15.63,2.913c0.412,-0.189 0.836,-0.348 1.224,-0.561Zm-1.905,-3.921c-0.414,0.219 -0.833,0.381 -1.272,0.582c-5.618,2.571 -11.044,2.692 -12.111,0.27c-1.068,-2.421 2.626,-6.473 8.244,-9.044c5.617,-2.571 11.043,-2.691 12.111,-0.269c0.983,2.231 -2.086,5.895 -6.972,8.461Z" style="fill:#58c322;"/></g><path id="Path-9" d="M410.431,56.054l0.069,267.383" style="fill:none;stroke:#1d1d1d;stroke-width:1px;"/><g id="whole"><path d="M475.987,64c-8.832,0 -15.987,4.498 -15.987,10.014c0,5.515 7.155,9.986 15.987,9.986c8.832,0 16.013,-4.471 16.013,-9.986c0,-5.516 -7.181,-10.014 -16.013,-10.014Zm-3.907,1.813c2.297,-0.031 5.127,0.909 7.788,2.788c4.729,3.34 7.102,8.369 5.303,11.204c-1.8,2.834 -7.093,2.42 -11.822,-0.92c-4.731,-3.34 -7.103,-8.37 -5.304,-11.204c0.788,-1.241 2.25,-1.843 4.035,-1.868Z" style="fill:#0c0c0c;fill-rule:nonzero;"/></g><g id="whole1" serif:id="whole"><path d="M475.987,44c-8.832,0 -15.987,4.498 -15.987,10.014c0,5.515 7.155,9.986 15.987,9.986c8.832,0 16.013,-4.471 16.013,-9.986c0,-5.516 -7.181,-10.014 -16.013,-10.014Zm-3.907,1.813c2.297,-0.031 5.127,0.909 7.788,2.788c4.729,3.34 7.102,8.369 5.303,11.204c-1.8,2.834 -7.093,2.42 -11.822,-0.92c-4.731,-3.34 -7.103,-8.37 -5.304,-11.204c0.788,-1.241 2.25,-1.843 4.035,-1.868Z" style="fill:#58c322;"/></g><g id="whole2" serif:id="whole"><path d="M182.987,325c-8.832,0 -15.987,4.498 -15.987,10.014c0,5.515 7.155,9.986 15.987,9.986c8.832,0 16.013,-4.471 16.013,-9.986c0,-5.516 -7.181,-10.014 -16.013,-10.014Zm-3.907,1.813c2.297,-0.031 5.127,0.909 7.788,2.788c4.729,3.34 7.102,8.369 5.303,11.204c-1.8,2.834 -7.093,2.42 -11.822,-0.92c-4.731,-3.34 -7.103,-8.37 -5.304,-11.204c0.788,-1.241 2.25,-1.843 4.035,-1.868Z" style="fill:#0c0c0c;fill-rule:nonzero;"/></g><g id="whole3" serif:id="whole"><path d="M182.987,285c-8.832,0 -15.987,4.498 -15.987,10.014c0,5.515 7.155,9.986 15.987,9.986c8.832,0 16.013,-4.471 16.013,-9.986c0,-5.516 -7.181,-10.014 -16.013,-10.014Zm-3.907,1.813c2.297,-0.031 5.127,0.909 7.788,2.788c4.729,3.34 7.102,8.369 5.303,11.204c-1.8,2.834 -7.093,2.42 -11.822,-0.92c-4.731,-3.34 -7.103,-8.37 -5.304,-11.204c0.788,-1.241 2.25,-1.843 4.035,-1.868Z" style="fill:#0c0c0c;fill-rule:nonzero;"/></g><g id="whole4" serif:id="whole"><path d="M182.987,305c-8.832,0 -15.987,4.498 -15.987,10.014c0,5.515 7.155,9.986 15.987,9.986c8.832,0 16.013,-4.471 16.013,-9.986c0,-5.516 -7.181,-10.014 -16.013,-10.014Zm-3.907,1.813c2.297,-0.031 5.127,0.909 7.788,2.788c4.729,3.34 7.102,8.369 5.303,11.204c-1.8,2.834 -7.093,2.42 -11.822,-0.92c-4.731,-3.34 -7.103,-8.37 -5.304,-11.204c0.788,-1.241 2.25,-1.843 4.035,-1.868Z" style="fill:#0c0c0c;fill-rule:nonzero;"/></g><g id="whole5" serif:id="whole"><path d="M475.987,315c-8.832,0 -15.987,4.498 -15.987,10.014c0,5.515 7.155,9.986 15.987,9.986c8.832,0 16.013,-4.471 16.013,-9.986c0,-5.516 -7.181,-10.014 -16.013,-10.014Zm-3.907,1.813c2.297,-0.031 5.127,0.909 7.788,2.788c4.729,3.34 7.102,8.369 5.303,11.204c-1.8,2.834 -7.093,2.42 -11.822,-0.92c-4.731,-3.34 -7.103,-8.37 -5.304,-11.204c0.788,-1.241 2.25,-1.843 4.035,-1.868Z" style="fill:#0c0c0c;fill-rule:nonzero;"/></g><g id="whole6" serif:id="whole"><path d="M475.987,275c-8.832,0 -15.987,4.498 -15.987,10.014c0,5.515 7.155,9.986 15.987,9.986c8.832,0 16.013,-4.471 16.013,-9.986c0,-5.516 -7.181,-10.014 -16.013,-10.014Zm-3.907,1.813c2.297,-0.031 5.127,0.909 7.788,2.788c4.729,3.34 7.102,8.369 5.303,11.204c-1.8,2.834 -7.093,2.42 -11.822,-0.92c-4.731,-3.34 -7.103,-8.37 -5.304,-11.204c0.788,-1.241 2.25,-1.843 4.035,-1.868Z" style="fill:#0c0c0c;fill-rule:nonzero;"/></g><g id="whole7" serif:id="whole"><path d="M475.987,295c-8.832,0 -15.987,4.498 -15.987,10.014c0,5.515 7.155,9.986 15.987,9.986c8.832,0 16.013,-4.471 16.013,-9.986c0,-5.516 -7.181,-10.014 -16.013,-10.014Zm-3.907,1.813c2.297,-0.031 5.127,0.909 7.788,2.788c4.729,3.34 7.102,8.369 5.303,11.204c-1.8,2.834 -7.093,2.42 -11.822,-0.92c-4.731,-3.34 -7.103,-8.37 -5.304,-11.204c0.788,-1.241 2.25,-1.843 4.035,-1.868Z" style="fill:#0c0c0c;fill-rule:nonzero;"/></g><g id="Note"><path id="note" d="M296.807,102.706c6.295,-3.342 9.648,-9.391 7.585,-13.942c-2.2,-4.855 -9.763,-6.225 -16.88,-3.059c-7.118,3.166 -11.107,9.677 -8.907,14.531c2.2,4.855 9.764,6.225 16.88,3.059c0.445,-0.198 0.903,-0.365 1.322,-0.589Z" style="fill:#0c0c0c;fill-rule:nonzero;"/></g><g id="Note1" serif:id="Note"><path id="note1" serif:id="note" d="M296.807,82.706c6.295,-3.342 9.648,-9.391 7.585,-13.942c-2.2,-4.855 -9.763,-6.225 -16.88,-3.059c-7.118,3.166 -11.107,9.677 -8.907,14.531c2.2,4.855 9.764,6.225 16.88,3.059c0.445,-0.198 0.903,-0.365 1.322,-0.589Z" style="fill:#58c322;"/></g><g id="Note2" serif:id="Note"><path id="note2" serif:id="note" d="M356.807,92.706c6.295,-3.342 9.648,-9.391 7.585,-13.942c-2.2,-4.855 -9.763,-6.225 -16.88,-3.059c-7.118,3.166 -11.107,9.677 -8.907,14.531c2.2,4.855 9.764,6.225 16.88,3.059c0.445,-0.198 0.903,-0.365 1.322,-0.589Z" style="fill:#0c0c0c;fill-rule:nonzero;"/></g><rect id="Rectangle" x="171" y="107" width="2" height="60" style="fill:#0c0c0c;"/><rect id="Rectangle1" serif:id="Rectangle" x="194" y="32" width="2" height="50" style="fill:#58c322;"/><rect id="Rectangle2" serif:id="Rectangle" x="303" y="22" width="2" height="50" style="fill:#58c322;"/><g id="Note3" serif:id="Note"><path id="note3" serif:id="note" d="M356.807,72.706c6.295,-3.342 9.648,-9.391 7.585,-13.942c-2.2,-4.855 -9.763,-6.225 -16.88,-3.059c-7.118,3.166 -11.107,9.677 -8.907,14.531c2.2,4.855 9.764,6.225 16.88,3.059c0.445,-0.198 0.903,-0.365 1.322,-0.589Z" style="fill:#58c322;"/></g><rect id="Rectangle3" serif:id="Rectangle" x="363" y="12" width="2" height="50" style="fill:#58c322;"/><rect id="Rectangle4" serif:id="Rectangle" x="278" y="97" width="2" height="60" style="fill:#0c0c0c;"/><rect id="Rectangle5" serif:id="Rectangle" x="338" y="87" width="2" height="60" style="fill:#0c0c0c;"/><g id="CN-Root"><path id="Combined-Shape" d="M175.279,384.088l-0,-1.82l-1.898,-0l-0,-13.884l1.898,-0l-0,-1.82l-6.474,-0l-0,1.82l1.898,-0l-0,13.884l-1.898,-0l-0,1.82l6.474,-0Zm10.375,-0l5.72,-15.704l1.482,-0l-0,-1.82l-6.63,-0l-0,1.82l2.574,-0l-4.394,12.298l-0.234,1.066l-0.156,-0l-0.234,-1.066l-4.316,-12.298l2.574,-0l-0,-1.82l-6.864,-0l-0,1.82l1.456,-0l5.59,15.704l3.432,-0Z" style="fill:#0c0c0c;fill-rule:nonzero;"/></g><g id="CN-Root1" serif:id="CN-Root"><path id="Combined-Shape1" serif:id="Combined-Shape" d="M477.143,384.088l5.72,-15.704l1.482,-0l0,-1.82l-6.63,-0l0,1.82l2.574,-0l-4.394,12.298l-0.234,1.066l-0.156,-0l-0.234,-1.066l-4.316,-12.298l2.574,-0l0,-1.82l-6.864,-0l0,1.82l1.456,-0l5.59,15.704l3.432,-0Z" style="fill:#0c0c0c;fill-rule:nonzero;"/></g></g></svg>