<?xml version="1.0" encoding="UTF-8" standalone="no"?><!DOCTYPE svg PUBLIC "-//W3C//DTD SVG 1.1//EN" "http://www.w3.org/Graphics/SVG/1.1/DTD/svg11.dtd"><svg width="1070.0px" height="530.0px" viewBox="0 0 1070 530" version="1.1" xmlns="http://www.w3.org/2000/svg" xmlns:xlink="http://www.w3.org/1999/xlink" xml:space="preserve" xmlns:serif="http://www.serif.com/" style="fill-rule:evenodd;clip-rule:evenodd;"><g id="m2-hamori-kakehashi-kou"><g id="五線"><path id="horizon" d="M16,319.5l1006,0" style="fill:none;stroke:#000;stroke-width:1px;"/><path id="horizon1" serif:id="horizon" d="M16,339.5l1006,0" style="fill:none;stroke:#000;stroke-width:1px;"/><path id="horizon2" serif:id="horizon" d="M16,359.5l1006,0" style="fill:none;stroke:#000;stroke-width:1px;"/><path id="horizon3" serif:id="horizon" d="M16,379.5l1006,0" style="fill:none;stroke:#000;stroke-width:1px;"/><path id="horizon4" serif:id="horizon" d="M16,399.5l1006,0" style="fill:none;stroke:#000;stroke-width:1px;"/></g><g id="五線1" serif:id="五線"><path id="horizon5" serif:id="horizon" d="M17,89.5l1006,0" style="fill:none;stroke:#000;stroke-width:1px;"/><path id="horizon6" serif:id="horizon" d="M17,109.5l1006,0" style="fill:none;stroke:#000;stroke-width:1px;"/><path id="horizon7" serif:id="horizon" d="M17,129.5l1006,0" style="fill:none;stroke:#000;stroke-width:1px;"/><path id="horizon8" serif:id="horizon" d="M17,149.5l1006,0" style="fill:none;stroke:#000;stroke-width:1px;"/><path id="horizon9" serif:id="horizon" d="M17,169.5l1006,0" style="fill:none;stroke:#000;stroke-width:1px;"/></g><path id="bar" d="M17,90l0.5,308.354" style="fill:none;stroke:#000;stroke-width:2.72px;stroke-linecap:round;stroke-linejoin:round;"/><g id="F"><path id="Shape" d="M28,388.596c5.774,-3.899 10.087,-6.851 12.864,-8.892c2.778,-2.004 5.702,-4.518 8.699,-7.506c2.996,-2.988 5.518,-6.377 7.565,-10.131c1.608,-2.769 2.997,-5.976 4.13,-9.62c1.133,-3.607 1.717,-7.105 1.827,-10.421c-0,-3.098 -0.402,-6.049 -1.243,-8.819c-0.804,-2.806 -2.192,-5.101 -4.166,-6.96c-1.973,-1.822 -4.532,-2.733 -7.711,-2.733c-3.07,0 -5.957,0.62 -8.662,1.822c-2.668,1.239 -4.568,3.207 -5.628,5.976c-0,0.255 -0.146,0.583 -0.366,1.057c0.073,0.583 0.366,1.02 0.914,1.348c0.548,0.328 1.023,0.474 1.462,0.474c0.219,0 0.84,-0.109 1.791,-0.328c0.986,-0.218 1.791,-0.364 2.448,-0.364c1.937,-0 3.655,0.692 5.227,2.04c1.535,1.349 2.302,2.988 2.302,4.92c-0,1.384 -0.402,2.696 -1.17,3.899c-0.767,1.202 -1.827,2.186 -3.179,2.879c-1.352,0.728 -2.851,1.056 -4.459,1.056c-2.924,0 -5.409,-0.874 -7.455,-2.66c-2.01,-1.822 -3.034,-4.117 -3.034,-6.996c0,-3.681 1.133,-6.851 3.363,-9.547c2.265,-2.697 5.116,-4.701 8.625,-6.049c3.472,-1.385 6.98,-2.041 10.562,-2.041c3.91,-0 7.638,0.984 11.11,2.988c3.508,1.968 6.249,4.701 8.296,8.09c2.047,3.425 3.107,7.069 3.107,11.004c-0,6.997 -2.339,13.483 -7.017,19.496c-4.678,6.012 -10.453,11.223 -17.36,15.669c-4.605,3.024 -12.061,7.105 -22.33,12.243l-0.512,-1.894Zm50.764,-58.373c-0,-1.311 0.475,-2.405 1.425,-3.279c0.914,-0.911 2.047,-1.348 3.399,-1.348c1.169,-0 2.266,0.51 3.252,1.494c0.987,0.947 1.462,2.077 1.462,3.316c0,1.311 -0.511,2.441 -1.462,3.352c-1.023,0.875 -2.156,1.312 -3.435,1.312c-1.352,-0 -2.449,-0.437 -3.326,-1.421c-0.877,-0.948 -1.315,-2.077 -1.315,-3.426Zm-0,19.095c-0,-1.312 0.475,-2.442 1.352,-3.316c0.913,-0.911 2.046,-1.348 3.472,-1.348c1.169,-0 2.229,0.473 3.252,1.457c0.951,0.984 1.462,2.041 1.462,3.207c0,1.421 -0.475,2.551 -1.388,3.462c-0.951,0.911 -2.047,1.384 -3.326,1.384c-1.426,0 -2.559,-0.473 -3.472,-1.348c-0.877,-0.875 -1.352,-2.041 -1.352,-3.498Z" style="fill:#131516;stroke:#131516;stroke-width:0.5px;"/></g><path id="G-Clef" d="M45.162,189.963c-0.896,-0.067 -1.758,-0.212 -2.572,-0.434c-4.215,-1.144 -7.135,-4.322 -7.815,-8.51c-0.2,-1.227 -0.133,-3.147 0.148,-4.243c0.214,-0.839 0.733,-2.038 1.151,-2.663c0.705,-1.051 1.91,-2.046 3.112,-2.564c0.988,-0.428 1.52,-0.541 2.766,-0.585c0.988,-0.037 1.232,-0.021 1.803,0.127c2.488,0.639 4.503,2.772 5.377,5.693c0.197,0.66 0.215,0.827 0.219,2.125c0.003,1.232 -0.018,1.489 -0.173,2.037c-0.344,1.217 -0.932,2.198 -1.871,3.115c-1.375,1.348 -2.986,2.157 -5.161,2.597l-0.933,0.19l0.662,0.288c3.535,1.554 7.448,1.404 11.096,-0.419c3.193,-1.594 5.662,-4.479 6.511,-7.607c0.206,-0.756 0.218,-0.895 0.212,-2.334l-0.006,-1.529l-1.192,-5.916c-0.655,-3.254 -1.209,-5.976 -1.23,-6.05c-0.036,-0.115 -0.118,-0.099 -0.684,0.137c-3.656,1.527 -9.188,1.507 -14.237,-0.05c-6.917,-2.133 -12.563,-6.814 -15.506,-12.854c-0.918,-1.887 -1.454,-3.69 -1.751,-5.895c-0.133,-0.993 -0.112,-3.622 0.041,-4.871c0.82,-6.682 4.269,-13.382 10.772,-20.928c2.024,-2.348 6.454,-6.742 9.422,-9.347c0.79,-0.692 0.823,-0.736 0.762,-0.96c-0.137,-0.519 -0.614,-3.035 -0.762,-4.021c-0.683,-4.598 -0.682,-9.937 0.004,-14.609c1.077,-7.34 3.601,-13.508 7.275,-17.769c0.67,-0.778 2.088,-2.114 2.243,-2.114c0.05,0 0.48,0.589 0.953,1.309c4.397,6.662 6.723,12.596 7.359,18.761c0.158,1.542 0.114,5.159 -0.082,6.57c-0.644,4.656 -2.147,8.697 -4.725,12.7c-1.685,2.621 -4.224,5.599 -6.815,8c-0.591,0.548 -1.214,1.125 -1.383,1.283l-0.306,0.286l1.357,6.676l1.356,6.678l0.672,-0.052c1.889,-0.152 3.885,-0.041 5.312,0.292c1.899,0.446 4.037,1.463 5.636,2.68c0.892,0.68 2.377,2.199 3.004,3.074c1.499,2.09 2.477,4.582 2.75,7.001c0.136,1.197 0.055,3.525 -0.153,4.493c-0.823,3.832 -3.259,7.435 -6.97,10.306c-0.918,0.71 -2.256,1.567 -3.228,2.07c-0.658,0.341 -0.715,0.387 -0.672,0.565c0.083,0.337 1.138,5.465 1.532,7.444c0.207,1.039 0.525,2.76 0.708,3.824c0.322,1.872 0.332,1.969 0.288,3.179c-0.078,2.3 -0.656,4.098 -1.96,6.117c-2.485,3.844 -6.937,6.295 -12.129,6.677c-1.097,0.08 -1.45,0.086 -2.187,0.03Zm6.583,-27.078c0.977,-0.115 2.214,-0.381 3.016,-0.651c0.982,-0.329 2.167,-0.914 2.12,-1.047c-0.022,-0.059 -1.026,-4.955 -2.232,-10.883c-1.206,-5.927 -2.212,-10.796 -2.236,-10.82c-0.023,-0.024 -0.424,0.032 -0.89,0.127c-3.416,0.692 -6.219,2.651 -7.447,5.205c-0.387,0.805 -0.535,1.332 -0.635,2.252c-0.212,1.955 0.417,4.102 1.703,5.804c0.749,0.993 1.89,2.054 2.937,2.734c0.401,0.26 0.478,0.388 0.197,0.327c-0.098,-0.02 -0.442,-0.095 -0.764,-0.163c-2.533,-0.547 -4.982,-1.98 -6.371,-3.723c-1.22,-1.533 -1.839,-3.127 -2.016,-5.199c-0.226,-2.641 0.466,-5.187 2.084,-7.683c1.045,-1.612 2.849,-3.367 4.656,-4.529c1.309,-0.843 3.293,-1.703 4.645,-2.014c0.247,-0.056 0.449,-0.129 0.449,-0.159c0,-0.087 -2.504,-12.339 -2.546,-12.456c-0.061,-0.172 -3.455,2.612 -5.742,4.707c-1.261,1.156 -3.945,3.95 -4.919,5.122c-2.941,3.537 -4.841,6.719 -5.904,9.88c-1.068,3.188 -1.334,6.256 -0.788,9.16c0.664,3.53 2.941,7.224 5.986,9.712c4.136,3.377 9.403,4.917 14.697,4.297Zm7.76,-3.357c2.819,-2.421 4.487,-5.175 4.98,-8.215c0.166,-1.019 0.122,-3.168 -0.08,-4.118c-0.825,-3.849 -3.344,-6.821 -6.664,-7.862c-0.654,-0.206 -0.805,-0.222 -2.094,-0.224c-0.817,-0 -1.417,0.03 -1.458,0.078c-0.041,0.047 0.802,4.276 2.112,10.584c1.199,5.777 2.181,10.514 2.183,10.528c0.008,0.064 0.351,-0.196 1.021,-0.771Zm-9.221,-54.512c5.675,-5.681 9.029,-11.213 9.728,-16.053c0.157,-1.09 0.155,-2.867 -0.006,-3.836c-0.322,-1.932 -1.11,-3.629 -2.45,-5.265c-0.532,-0.65 -0.612,-0.684 -1.618,-0.682c-1.108,0.002 -2.116,0.528 -3.161,1.65c-1.733,1.854 -3.181,4.885 -4.248,8.877c-1.483,5.559 -1.939,12.511 -1.125,17.22l0.127,0.744l0.794,-0.744c0.436,-0.41 1.316,-1.269 1.959,-1.911Z"/><path id="bar1" serif:id="bar" d="M377.219,90l0.5,308.354" style="fill:none;stroke:#000;stroke-width:1px;stroke-linecap:round;stroke-linejoin:round;"/><path id="bar2" serif:id="bar" d="M876.219,90l0.5,308.354" style="fill:none;stroke:#000;stroke-width:1px;stroke-linecap:round;stroke-linejoin:round;"/><g id="half-note"><path id="half" d="M449.414,397.815c5.829,-3.183 8.934,-8.944 7.023,-13.278c-2.037,-4.624 -9.04,-5.928 -15.629,-2.913c-6.591,3.015 -10.285,9.216 -8.248,13.839c2.038,4.624 9.041,5.928 15.63,2.913c0.412,-0.189 0.836,-0.348 1.224,-0.561Zm-1.905,-3.921c-0.414,0.219 -0.833,0.381 -1.272,0.582c-5.618,2.571 -11.044,2.692 -12.111,0.27c-1.068,-2.421 2.626,-6.473 8.244,-9.044c5.617,-2.571 11.043,-2.691 12.111,-0.269c0.983,2.231 -2.086,5.895 -6.972,8.461Z" style="fill:#0c0c0c;fill-rule:nonzero;"/></g><g id="half-note1" serif:id="half-note"><path id="half1" serif:id="half" d="M449.414,357.815c5.829,-3.183 8.934,-8.944 7.023,-13.278c-2.037,-4.624 -9.04,-5.928 -15.629,-2.913c-6.591,3.015 -10.285,9.216 -8.248,13.839c2.038,4.624 9.041,5.928 15.63,2.913c0.412,-0.189 0.836,-0.348 1.224,-0.561Zm-1.905,-3.921c-0.414,0.219 -0.833,0.381 -1.272,0.582c-5.618,2.571 -11.044,2.692 -12.111,0.27c-1.068,-2.421 2.626,-6.473 8.244,-9.044c5.617,-2.571 11.043,-2.691 12.111,-0.269c0.983,2.231 -2.086,5.895 -6.972,8.461Z" style="fill:#0c0c0c;fill-rule:nonzero;"/></g><rect id="Rectangle" x="455" y="309" width="2" height="80"/><g id="half-note2" serif:id="half-note"><path id="half2" serif:id="half" d="M449.414,377.815c5.829,-3.183 8.934,-8.944 7.023,-13.278c-2.037,-4.624 -9.04,-5.928 -15.629,-2.913c-6.591,3.015 -10.285,9.216 -8.248,13.839c2.038,4.624 9.041,5.928 15.63,2.913c0.412,-0.189 0.836,-0.348 1.224,-0.561Zm-1.905,-3.921c-0.414,0.219 -0.833,0.381 -1.272,0.582c-5.618,2.571 -11.044,2.692 -12.111,0.27c-1.068,-2.421 2.626,-6.473 8.244,-9.044c5.617,-2.571 11.043,-2.691 12.111,-0.269c0.983,2.231 -2.086,5.895 -6.972,8.461Z" style="fill:#0c0c0c;fill-rule:nonzero;"/></g><g id="CN-Root"><path id="Combined-Shape" d="M438.279,431.088l-0,-1.82l-1.898,-0l-0,-13.884l1.898,-0l-0,-1.82l-6.474,-0l-0,1.82l1.898,-0l-0,13.884l-1.898,-0l-0,1.82l6.474,-0Zm10.375,-0l5.72,-15.704l1.482,-0l-0,-1.82l-6.63,-0l-0,1.82l2.574,-0l-4.394,12.298l-0.234,1.066l-0.156,-0l-0.234,-1.066l-4.316,-12.298l2.574,-0l-0,-1.82l-6.864,-0l-0,1.82l1.456,-0l5.59,15.704l3.432,-0Z" style="fill:#0c0c0c;fill-rule:nonzero;"/></g><g id="「栄光の架橋」より引用--作詞・作曲：北" serif:id="「栄光の架橋」より引用,-作詞・作曲：北"><text x="739px" y="510px" style="font-family:'NotoSansSC-Bold', 'Noto Sans SC', sans-serif;font-weight:700;font-size:13px;fill:#aaa;">节选自《栄光の架橋》, 作词・作曲：北川悠仁</text></g><g id="_-下が主旋律、上がハモリ" serif:id="※下が主旋律、上がハモリ"><text x="24px" y="33px" style="font-family:'HiraginoSans-W6', 'Hiragino Sans', sans-serif;font-weight:600;font-size:13px;fill:#aaa;">※下面是主旋律、上面是和声</text></g><g id="half-note3" serif:id="half-note"><path id="half3" serif:id="half" d="M669.414,387.815c5.829,-3.183 8.934,-8.944 7.023,-13.278c-2.037,-4.624 -9.04,-5.928 -15.629,-2.913c-6.591,3.015 -10.285,9.216 -8.248,13.839c2.038,4.624 9.041,5.928 15.63,2.913c0.412,-0.189 0.836,-0.348 1.224,-0.561Zm-1.905,-3.921c-0.414,0.219 -0.833,0.381 -1.272,0.582c-5.618,2.571 -11.044,2.692 -12.111,0.27c-1.068,-2.421 2.626,-6.473 8.244,-9.044c5.617,-2.571 11.043,-2.691 12.111,-0.269c0.983,2.231 -2.086,5.895 -6.972,8.461Z" style="fill:#0c0c0c;fill-rule:nonzero;"/></g><g id="half-note4" serif:id="half-note"><path id="half4" serif:id="half" d="M669.414,347.815c5.829,-3.183 8.934,-8.944 7.023,-13.278c-2.037,-4.624 -9.04,-5.928 -15.629,-2.913c-6.591,3.015 -10.285,9.216 -8.248,13.839c2.038,4.624 9.041,5.928 15.63,2.913c0.412,-0.189 0.836,-0.348 1.224,-0.561Zm-1.905,-3.921c-0.414,0.219 -0.833,0.381 -1.272,0.582c-5.618,2.571 -11.044,2.692 -12.111,0.27c-1.068,-2.421 2.626,-6.473 8.244,-9.044c5.617,-2.571 11.043,-2.691 12.111,-0.269c0.983,2.231 -2.086,5.895 -6.972,8.461Z" style="fill:#0c0c0c;fill-rule:nonzero;"/></g><rect id="Rectangle1" serif:id="Rectangle" x="675" y="299" width="2" height="80"/><g id="half-note5" serif:id="half-note"><path id="half5" serif:id="half" d="M669.414,367.815c5.829,-3.183 8.934,-8.944 7.023,-13.278c-2.037,-4.624 -9.04,-5.928 -15.629,-2.913c-6.591,3.015 -10.285,9.216 -8.248,13.839c2.038,4.624 9.041,5.928 15.63,2.913c0.412,-0.189 0.836,-0.348 1.224,-0.561Zm-1.905,-3.921c-0.414,0.219 -0.833,0.381 -1.272,0.582c-5.618,2.571 -11.044,2.692 -12.111,0.27c-1.068,-2.421 2.626,-6.473 8.244,-9.044c5.617,-2.571 11.043,-2.691 12.111,-0.269c0.983,2.231 -2.086,5.895 -6.972,8.461Z" style="fill:#0c0c0c;fill-rule:nonzero;"/></g><g id="CN-Root1" serif:id="CN-Root"><path id="Combined-Shape1" serif:id="Combined-Shape" d="M666.143,431.088l5.72,-15.704l1.482,-0l0,-1.82l-6.63,-0l0,1.82l2.574,-0l-4.394,12.298l-0.234,1.066l-0.156,-0l-0.234,-1.066l-4.316,-12.298l2.574,-0l0,-1.82l-6.864,-0l0,1.82l1.456,-0l5.59,15.704l3.432,-0Z" style="fill:#0c0c0c;fill-rule:nonzero;"/></g><g id="half-note6" serif:id="half-note"><path id="half6" serif:id="half" d="M939.414,357.815c5.829,-3.183 8.934,-8.944 7.023,-13.278c-2.037,-4.624 -9.04,-5.928 -15.629,-2.913c-6.591,3.015 -10.285,9.216 -8.248,13.839c2.038,4.624 9.041,5.928 15.63,2.913c0.412,-0.189 0.836,-0.348 1.224,-0.561Zm-1.905,-3.921c-0.414,0.219 -0.833,0.381 -1.272,0.582c-5.618,2.571 -11.044,2.692 -12.111,0.27c-1.068,-2.421 2.626,-6.473 8.244,-9.044c5.617,-2.571 11.043,-2.691 12.111,-0.269c0.983,2.231 -2.086,5.895 -6.972,8.461Z" style="fill:#0c0c0c;fill-rule:nonzero;"/></g><g id="half-note7" serif:id="half-note"><path id="half7" serif:id="half" d="M939.414,317.815c5.829,-3.183 8.934,-8.944 7.023,-13.278c-2.037,-4.624 -9.04,-5.928 -15.629,-2.913c-6.591,3.015 -10.285,9.216 -8.248,13.839c2.038,4.624 9.041,5.928 15.63,2.913c0.412,-0.189 0.836,-0.348 1.224,-0.561Zm-1.905,-3.921c-0.414,0.219 -0.833,0.381 -1.272,0.582c-5.618,2.571 -11.044,2.692 -12.111,0.27c-1.068,-2.421 2.626,-6.473 8.244,-9.044c5.617,-2.571 11.043,-2.691 12.111,-0.269c0.983,2.231 -2.086,5.895 -6.972,8.461Z" style="fill:#0c0c0c;fill-rule:nonzero;"/></g><rect id="Rectangle2" serif:id="Rectangle" x="922" y="312" width="2" height="80"/><g id="half-note8" serif:id="half-note"><path id="half8" serif:id="half" d="M939.414,337.815c5.829,-3.183 8.934,-8.944 7.023,-13.278c-2.037,-4.624 -9.04,-5.928 -15.629,-2.913c-6.591,3.015 -10.285,9.216 -8.248,13.839c2.038,4.624 9.041,5.928 15.63,2.913c0.412,-0.189 0.836,-0.348 1.224,-0.561Zm-1.905,-3.921c-0.414,0.219 -0.833,0.381 -1.272,0.582c-5.618,2.571 -11.044,2.692 -12.111,0.27c-1.068,-2.421 2.626,-6.473 8.244,-9.044c5.617,-2.571 11.043,-2.691 12.111,-0.269c0.983,2.231 -2.086,5.895 -6.972,8.461Z" style="fill:#0c0c0c;fill-rule:nonzero;"/></g><g id="CN-Root2" serif:id="CN-Root"><path id="Combined-Shape2" serif:id="Combined-Shape" d="M937.742,431.088l0,-1.82l-1.898,-0l0,-13.884l1.898,-0l0,-1.82l-6.474,-0l0,1.82l1.898,-0l0,13.884l-1.898,-0l0,1.82l6.474,-0Z" style="fill:#0c0c0c;fill-rule:nonzero;"/></g><g id="sharp"><path d="M102.914,93.588l-0,-9.906l4.107,-1.163l-0,9.856l-4.107,1.213Zm8.086,-2.396l-2.823,0.829l-0,-9.856l2.823,-0.809l0,-4.094l-2.823,0.809l-0,-10.071l-1.156,0l-0,10.376l-4.107,1.211l-0,-9.793l-1.091,0l0,10.166l-2.823,0.811l-0,4.103l2.823,-0.809l0,9.837l-2.823,0.807l-0,4.086l2.823,-0.809l0,10.014l1.091,0l-0,-10.372l4.107,-1.159l-0,9.743l1.156,-0l-0,-10.109l2.823,-0.811l0,-4.1Z" style="fill:#0c0c0c;fill-rule:nonzero;"/></g><g id="sharp1" serif:id="sharp"><path d="M117.914,125.588l-0,-9.906l4.107,-1.163l-0,9.856l-4.107,1.213Zm8.086,-2.396l-2.823,0.829l-0,-9.856l2.823,-0.809l0,-4.094l-2.823,0.809l-0,-10.071l-1.156,0l-0,10.376l-4.107,1.211l-0,-9.793l-1.091,0l0,10.166l-2.823,0.811l-0,4.103l2.823,-0.809l0,9.837l-2.823,0.807l-0,4.086l2.823,-0.809l0,10.014l1.091,-0l-0,-10.372l4.107,-1.159l-0,9.743l1.156,-0l-0,-10.109l2.823,-0.811l0,-4.1Z" style="fill:#0c0c0c;fill-rule:nonzero;"/></g><g id="sharp2" serif:id="sharp"><path d="M128.914,85.588l-0,-9.906l4.107,-1.163l-0,9.856l-4.107,1.213Zm8.086,-2.396l-2.823,0.829l-0,-9.856l2.823,-0.809l-0,-4.094l-2.823,0.809l-0,-10.071l-1.156,0l-0,10.376l-4.107,1.211l-0,-9.793l-1.091,0l0,10.166l-2.823,0.811l-0,4.103l2.823,-0.809l0,9.837l-2.823,0.807l-0,4.086l2.823,-0.809l0,10.014l1.091,-0l-0,-10.372l4.107,-1.159l-0,9.743l1.156,-0l-0,-10.109l2.823,-0.811l-0,-4.1Z" style="fill:#0c0c0c;fill-rule:nonzero;"/></g><g id="sharp3" serif:id="sharp"><path d="M143.914,115.588l-0,-9.906l4.107,-1.163l-0,9.856l-4.107,1.213Zm8.086,-2.396l-2.823,0.829l-0,-9.856l2.823,-0.809l-0,-4.094l-2.823,0.809l-0,-10.071l-1.156,0l-0,10.376l-4.107,1.211l-0,-9.793l-1.091,0l0,10.166l-2.823,0.811l0,4.103l2.823,-0.809l0,9.837l-2.823,0.807l0,4.086l2.823,-0.809l0,10.014l1.091,0l-0,-10.372l4.107,-1.159l-0,9.743l1.156,-0l-0,-10.109l2.823,-0.811l-0,-4.1Z" style="fill:#0c0c0c;fill-rule:nonzero;"/></g><g id="sharp4" serif:id="sharp"><path d="M102.914,343.588l-0,-9.906l4.107,-1.163l-0,9.856l-4.107,1.213Zm8.086,-2.396l-2.823,0.829l-0,-9.856l2.823,-0.809l0,-4.094l-2.823,0.809l-0,-10.071l-1.156,0l-0,10.376l-4.107,1.211l-0,-9.793l-1.091,0l0,10.166l-2.823,0.811l-0,4.103l2.823,-0.809l0,9.837l-2.823,0.807l-0,4.086l2.823,-0.809l0,10.014l1.091,0l-0,-10.372l4.107,-1.159l-0,9.743l1.156,-0l-0,-10.109l2.823,-0.811l0,-4.1Z" style="fill:#0c0c0c;fill-rule:nonzero;"/></g><g id="sharp5" serif:id="sharp"><path d="M117.914,375.588l-0,-9.906l4.107,-1.163l-0,9.856l-4.107,1.213Zm8.086,-2.396l-2.823,0.829l-0,-9.856l2.823,-0.809l0,-4.094l-2.823,0.809l-0,-10.071l-1.156,0l-0,10.376l-4.107,1.211l-0,-9.793l-1.091,0l0,10.166l-2.823,0.811l-0,4.103l2.823,-0.809l0,9.837l-2.823,0.807l-0,4.086l2.823,-0.809l0,10.014l1.091,0l-0,-10.372l4.107,-1.159l-0,9.743l1.156,-0l-0,-10.109l2.823,-0.811l0,-4.1Z" style="fill:#0c0c0c;fill-rule:nonzero;"/></g><g id="sharp6" serif:id="sharp"><path d="M128.914,335.588l-0,-9.906l4.107,-1.163l-0,9.856l-4.107,1.213Zm8.086,-2.396l-2.823,0.829l-0,-9.856l2.823,-0.809l-0,-4.094l-2.823,0.809l-0,-10.071l-1.156,0l-0,10.376l-4.107,1.211l-0,-9.793l-1.091,0l0,10.166l-2.823,0.811l-0,4.103l2.823,-0.809l0,9.837l-2.823,0.807l-0,4.086l2.823,-0.809l0,10.014l1.091,0l-0,-10.372l4.107,-1.159l-0,9.743l1.156,-0l-0,-10.109l2.823,-0.811l-0,-4.1Z" style="fill:#0c0c0c;fill-rule:nonzero;"/></g><g id="sharp7" serif:id="sharp"><path d="M143.914,365.588l-0,-9.906l4.107,-1.163l-0,9.856l-4.107,1.213Zm8.086,-2.396l-2.823,0.829l-0,-9.856l2.823,-0.809l-0,-4.094l-2.823,0.809l-0,-10.071l-1.156,0l-0,10.376l-4.107,1.211l-0,-9.793l-1.091,0l0,10.166l-2.823,0.811l0,4.103l2.823,-0.809l0,9.837l-2.823,0.807l0,4.086l2.823,-0.809l0,10.014l1.091,0l-0,-10.372l4.107,-1.159l-0,9.743l1.156,-0l-0,-10.109l2.823,-0.811l-0,-4.1Z" style="fill:#0c0c0c;fill-rule:nonzero;"/></g><g id="ワンピース"><rect id="Rectangle3" serif:id="Rectangle" x="6" y="498" width="45.75" height="31.5" style="fill:#0f181d;"/></g><g id="ワンピース1"><rect id="Rectangle4" serif:id="Rectangle" x="3" y="498" width="48.5" height="31.5" style="fill:#0f181d;"/></g><path id="Combined-Shape3" serif:id="Combined-Shape" d="M325,441c2.209,0 4,1.791 4,4l0,56c0,2.209 -1.791,4 -4,4l-226.712,0l-19.288,8l9.893,-19.391l0,-48.609c0,-2.209 1.791,-4 4,-4l232.107,0Z" style="fill:#f6f6f6;"/><rect id="Rectangle5" serif:id="Rectangle" x="36" y="522" width="8" height="3" style="fill-opacity:0.1;"/><rect id="Rectangle6" serif:id="Rectangle" x="-5" y="503" width="8" height="16" style="fill:#f0f1f1;"/><rect id="Rectangle7" serif:id="Rectangle" x="3" y="498" width="3" height="22" style="fill:#f0f1f1;"/><rect id="Rectangle8" serif:id="Rectangle" x="49" y="498" width="3" height="22" style="fill:#f0f1f1;"/><rect id="Rectangle9" serif:id="Rectangle" x="-7" y="520" width="8" height="9" style="fill:#f0f1f1;"/><g id="腕4"><rect id="Rectangle10" serif:id="Rectangle" x="52" y="503" width="6.5" height="17.25" style="fill:#f0f1f1;"/></g><g id="腕5"><rect id="Rectangle11" serif:id="Rectangle" x="56" y="517" width="8.5" height="8.5" style="fill:#f0f1f1;"/></g><g id="腕6"><rect id="Rectangle12" serif:id="Rectangle" x="65" y="520" width="17.25" height="8.5" style="fill:#f0f1f1;"/></g><g id="肌"><rect id="Rectangle13" serif:id="Rectangle" x="76" y="520" width="8.5" height="8.5" style="fill:#f8ba91;"/></g><g id="棒"><rect id="Rectangle14" serif:id="Rectangle" x="82" y="476" width="1.5" height="51.25" style="fill:#afafaf;"/></g><g id="肌1"><rect id="Rectangle15" serif:id="Rectangle" x="83" y="520" width="4.25" height="8.5" style="fill:#f8ba91;"/></g><rect id="Rectangle16" serif:id="Rectangle" x="4" y="520" width="3" height="9" style="fill-opacity:0.1;"/><rect id="Rectangle17" serif:id="Rectangle" x="23" y="466" width="16" height="34" style="fill:#e7a376;"/><rect id="Rectangle18" serif:id="Rectangle" x="33" y="492" width="6" height="12" style="fill:#f0f1f1;"/><rect id="Rectangle19" serif:id="Rectangle" x="23" y="492" width="6" height="12" style="fill:#f0f1f1;"/><rect id="Rectangle20" serif:id="Rectangle" x="29" y="498" width="6" height="12" style="fill:#f0f1f1;"/><rect id="Rectangle21" serif:id="Rectangle" x="28" y="498" width="6" height="5" style="fill:#f0f1f1;"/><rect id="Rectangle22" serif:id="Rectangle" x="36" y="456" width="13" height="43" style="fill:#c05633;"/><path id="Path" d="M16,468l28,0l0,18.05c0,0.522 -0.48,0.95 -1.072,0.95l-26.928,0l0,-19Z" style="fill:#ffc59d;"/><rect id="Rectangle23" serif:id="Rectangle" x="25" y="467" width="4" height="7" style="fill:#131010;fill-opacity:0.7;"/><rect id="Rectangle24" serif:id="Rectangle" x="39" y="467" width="4" height="7" style="fill:#131010;fill-opacity:0.7;"/><rect id="Rectangle25" serif:id="Rectangle" x="48" y="471" width="6" height="13" style="fill:#da5e48;fill-opacity:0.6;"/><rect id="Rectangle26" serif:id="Rectangle" x="8" y="490" width="17" height="10" style="fill:#e7683e;"/><rect id="Rectangle27" serif:id="Rectangle" x="5" y="454" width="19" height="39" style="fill:#e7683e;"/><rect id="Rectangle28" serif:id="Rectangle" x="20" y="459" width="25" height="9" style="fill:#e7683e;"/><rect id="Rectangle29" serif:id="Rectangle" x="28" y="463" width="10" height="8" style="fill:#e7683e;"/><rect id="Rectangle30" serif:id="Rectangle" x="37" y="460" width="5" height="10" style="fill:#e7683e;"/><rect id="Rectangle31" serif:id="Rectangle" x="23" y="466" width="5" height="6" style="fill:#e7683e;"/><rect id="Rectangle32" serif:id="Rectangle" x="17" y="448" width="24" height="18" style="fill:#e7683e;"/><rect id="Rectangle33" serif:id="Rectangle" x="37" y="443" width="9" height="25" style="fill:#e7683e;"/><rect id="Rectangle34" serif:id="Rectangle" x="41" y="440" width="4" height="29" style="fill:#e7683e;"/><rect id="Rectangle35" serif:id="Rectangle" x="37" y="448" width="12" height="18" style="fill:#e7683e;"/><rect id="Rectangle36" serif:id="Rectangle" x="9" y="440" width="9" height="17" style="fill:#e7683e;"/><rect id="Rectangle37" serif:id="Rectangle" x="3" y="461" width="6" height="33" style="fill-opacity:0.1;"/><path id="Path1" serif:id="Path" d="M29.25,450.82l0,1.62l-2.75,0l-0.006,2.16l-4.394,0l0,2.7l-6.6,0l0,2.7l-16.5,0l0,-5.4l3.85,0l0,-16.2l7.15,-0l0,-2.7l5.5,-0l0.064,-2.7l5.481,-0l-0.045,2.7l2.75,-0l0,3.78l2.75,0l0.032,4.32l5.455,0l0.013,7.02l-2.75,0Z" style="fill:#2999c1;"/><g id="Clipped"><g id="Group"><g><g id="ハットの影"><g id="Group1" serif:id="Group"><rect id="Rectangle38" serif:id="Rectangle" x="3.25" y="438.75" width="2.75" height="16.25" style="fill-opacity:0.1;"/></g><g id="Group2" serif:id="Group"><rect id="Rectangle39" serif:id="Rectangle" x="21.75" y="435.75" width="1.75" height="3.75" style="fill-opacity:0.1;"/></g><g id="Group3" serif:id="Group"><rect id="Rectangle40" serif:id="Rectangle" x="24.5" y="439.5" width="1.75" height="4.25" style="fill-opacity:0.1;"/></g><g id="Group4" serif:id="Group"><rect id="Rectangle41" serif:id="Rectangle" x="30" y="443.75" width="1.75" height="7" style="fill-opacity:0.1;"/></g><g id="Group5" serif:id="Group"><rect id="Rectangle42" serif:id="Rectangle" x="-1" y="454.75" width="2.75" height="5.5" style="fill-opacity:0.1;"/></g></g><g id="ハットのライン"><g id="帽子のライン"><rect id="Rectangle43" serif:id="Rectangle" x="4.5" y="449.75" width="11" height="2.75" style="fill:#e1e1e1;"/></g><g id="帽子のライン1"><rect id="Rectangle44" serif:id="Rectangle" x="15.5" y="448.25" width="5.5" height="2.75" style="fill:#e1e1e1;"/></g><g id="帽子のライン2"><rect id="Rectangle45" serif:id="Rectangle" x="20.75" y="447" width="2.75" height="2.75" style="fill:#e1e1e1;"/></g><g id="帽子のライン3"><rect id="Rectangle46" serif:id="Rectangle" x="23.5" y="445.25" width="2.75" height="2.75" style="fill:#e1e1e1;"/></g></g></g></g></g><rect id="Rectangle47" serif:id="Rectangle" x="10" y="473" width="9" height="3" style="fill:#2999c1;"/><rect id="Rectangle48" serif:id="Rectangle" x="10" y="476" width="9" height="3" style="fill:#2999c1;fill-opacity:0.5;"/><rect id="Rectangle49" serif:id="Rectangle" x="44" y="476" width="7" height="3" style="fill:#2999c1;fill-opacity:0.5;"/><path id="Path2" serif:id="Path" d="M30,482.181c0.565,1.754 0.689,1.794 4.968,1.819c3.304,0.019 3.662,-0.582 4.032,-2" style="fill:none;stroke:#e38474;stroke-opacity:0.9;stroke-width:1.43px;"/><path id="quarter" d="M210.357,136.295c-7.064,3.166 -14.572,1.796 -16.756,-3.059c-2.185,-4.853 1.775,-11.365 8.842,-14.53c6.164,-2.763 12.667,-2.071 15.674,1.375l0,-46.081l1.883,-0l0,49.999l-0.224,-0.001c0.357,4.146 -2.837,8.89 -8.107,11.708c-0.415,0.224 -0.87,0.391 -1.312,0.589Z"/><path id="quarter1" serif:id="quarter" d="M289.357,148.295c-7.064,3.166 -14.572,1.796 -16.756,-3.059c-2.185,-4.853 1.775,-11.365 8.842,-14.53c6.164,-2.763 12.667,-2.071 15.674,1.375l0,-46.081l1.883,-0l0,49.999l-0.224,-0.001c0.357,4.146 -2.837,8.89 -8.107,11.708c-0.415,0.224 -0.87,0.391 -1.312,0.589Z"/><path id="quarter2" serif:id="quarter" d="M673.357,168.295c-7.064,3.166 -14.572,1.796 -16.756,-3.059c-2.185,-4.853 1.775,-11.365 8.842,-14.53c6.164,-2.763 12.667,-2.071 15.674,1.375l0,-46.081l1.883,-0l-0,49.999l-0.224,-0.001c0.357,4.146 -2.837,8.89 -8.107,11.708c-0.415,0.224 -0.87,0.391 -1.312,0.589Z"/><path id="quarter3" serif:id="quarter" d="M727.357,177.295c-7.064,3.166 -14.572,1.796 -16.756,-3.059c-2.185,-4.853 1.775,-11.365 8.842,-14.53c6.164,-2.763 12.667,-2.071 15.674,1.375l0,-46.081l1.883,-0l-0,49.999l-0.224,-0.001c0.357,4.146 -2.837,8.89 -8.107,11.708c-0.415,0.224 -0.87,0.391 -1.312,0.589Z"/><path id="quarter4" serif:id="quarter" d="M784.357,177.295c-7.064,3.166 -14.572,1.796 -16.756,-3.059c-2.185,-4.853 1.775,-11.365 8.842,-14.53c6.164,-2.763 12.667,-2.071 15.674,1.375l0,-46.081l1.883,0l-0,49.999l-0.224,-0.001c0.357,4.146 -2.837,8.89 -8.107,11.708c-0.415,0.224 -0.87,0.391 -1.312,0.589Z"/><path id="quarter5" serif:id="quarter" d="M839.357,177.295c-7.064,3.166 -14.572,1.796 -16.756,-3.059c-2.185,-4.853 1.775,-11.365 8.842,-14.53c6.164,-2.763 12.667,-2.071 15.674,1.375l0,-46.081l1.883,-0l-0,49.999l-0.224,-0.001c0.357,4.146 -2.837,8.89 -8.107,11.708c-0.415,0.224 -0.87,0.391 -1.312,0.589Z" style="fill:#ffbf00;"/><path id="quarter6" serif:id="quarter" d="M936.357,177.295c-7.064,3.166 -14.572,1.796 -16.756,-3.059c-2.185,-4.853 1.775,-11.365 8.842,-14.53c6.164,-2.763 12.667,-2.071 15.674,1.375l0,-46.081l1.883,0l-0,49.999l-0.224,-0.001c0.357,4.146 -2.837,8.89 -8.107,11.708c-0.415,0.224 -0.87,0.391 -1.312,0.589Z" style="fill:#ffbf00;"/><path id="_-" serif:id=")" d="M920.5,150.52c-7.1,-6.717 -19.271,-12.02 -35.5,-12.02c-16.156,0 -28.4,5.303 -35.5,12.02l0,1.98c6.158,-6.646 19.199,-12.303 35.5,-12.303c16.156,-0 29.342,5.657 35.5,12.303l0,-1.98Z" style="fill:#ffbf00;fill-rule:nonzero;"/><path id="_-1" serif:id=")" d="M846.5,216.48c7.1,6.717 19.271,12.02 35.5,12.02c16.156,-0 28.4,-5.303 35.5,-12.02l0,-1.98c-6.158,6.646 -19.199,12.303 -35.5,12.303c-16.156,0 -29.342,-5.657 -35.5,-12.303l0,1.98Z" style="fill-rule:nonzero;"/><g id="どり"><g transform="matrix(1,0,0,1,179,285)"><text x="0px" y="0px" style="font-family:'HiraginoSans-W3', 'Hiragino Sans', sans-serif;font-weight:300;font-size:20px;">ど<tspan x="19.833px " y="0px ">り</tspan></text><text x="4.163px" y="14px" style="font-family:'HiraginoSans-W3', 'Hiragino Sans', sans-serif;font-weight:300;font-size:14px;">d<tspan x="13.09px 21.723px 26.269px 32.172px " y="14px 14px 14px 14px ">o ri</tspan></text></g></g><g id="つ"><g transform="matrix(1,0,0,1,270,285)"><text x="0px" y="0px" style="font-family:'HiraginoSans-W3', 'Hiragino Sans', sans-serif;font-weight:300;font-size:20px;">つ</text><text x="-0.058px" y="14px" style="font-family:'HiraginoSans-W3', 'Hiragino Sans', sans-serif;font-weight:300;font-size:14px;">t<tspan x="5.313px 12.714px " y="14px 14px ">su</tspan></text></g></g><g id="い"><g transform="matrix(1,0,0,1,327,285)"><text x="0px" y="0px" style="font-family:'HiraginoSans-W3', 'Hiragino Sans', sans-serif;font-weight:300;font-size:20px;">い</text><text x="8.251px" y="14px" style="font-family:'HiraginoSans-W3', 'Hiragino Sans', sans-serif;font-weight:300;font-size:14px;">i</text></g></g><g id="た"><g transform="matrix(1,0,0,1,434,285)"><text x="0px" y="0px" style="font-family:'HiraginoSans-W3', 'Hiragino Sans', sans-serif;font-weight:300;font-size:20px;">た</text><text x="3.206px" y="14px" style="font-family:'HiraginoSans-W3', 'Hiragino Sans', sans-serif;font-weight:300;font-size:14px;">t<tspan x="8.577px " y="14px ">a</tspan></text></g></g><g id="い1" serif:id="い"><g transform="matrix(1,0,0,1,581,285)"><text x="0px" y="0px" style="font-family:'HiraginoSans-W3', 'Hiragino Sans', sans-serif;font-weight:300;font-size:20px;">い</text><text x="8.251px" y="14px" style="font-family:'HiraginoSans-W3', 'Hiragino Sans', sans-serif;font-weight:300;font-size:14px;">i</text></g></g><g id="ま"><g transform="matrix(1,0,0,1,656,285)"><text x="0px" y="0px" style="font-family:'HiraginoSans-W3', 'Hiragino Sans', sans-serif;font-weight:300;font-size:20px;">ま</text><text x="-0.058px" y="14px" style="font-family:'HiraginoSans-W3', 'Hiragino Sans', sans-serif;font-weight:300;font-size:14px;">m<tspan x="12.859px " y="14px ">a</tspan></text></g></g><g id="が"><g transform="matrix(1,0,0,1,710,285)"><text x="0px" y="0px" style="font-family:'HiraginoSans-W3', 'Hiragino Sans', sans-serif;font-weight:300;font-size:20px;">が</text><text x="1.463px" y="14px" style="font-family:'HiraginoSans-W3', 'Hiragino Sans', sans-serif;font-weight:300;font-size:14px;">g<tspan x="10.32px " y="14px ">a</tspan></text></g></g><g id="あ"><g transform="matrix(1,0,0,1,764,285)"><text x="0px" y="0px" style="font-family:'HiraginoSans-W3', 'Hiragino Sans', sans-serif;font-weight:300;font-size:20px;">あ</text><text x="5.892px" y="14px" style="font-family:'HiraginoSans-W3', 'Hiragino Sans', sans-serif;font-weight:300;font-size:14px;">a</text></g></g><g id="る"><g transform="matrix(1,0,0,1,823,285)"><text x="0px" y="0px" style="font-family:'HiraginoSans-W3', 'Hiragino Sans', sans-serif;font-weight:300;font-size:20px;">る</text><text x="2.639px" y="14px" style="font-family:'HiraginoSans-W3', 'Hiragino Sans', sans-serif;font-weight:300;font-size:14px;">r<tspan x="8.542px " y="14px ">u</tspan></text></g></g><path id="quarter7" serif:id="quarter" d="M346.357,158.295c-7.064,3.166 -14.572,1.796 -16.756,-3.059c-2.185,-4.853 1.775,-11.365 8.842,-14.53c6.164,-2.763 12.667,-2.071 15.674,1.375l0,-46.081l1.883,-0l0,49.999l-0.224,-0.001c0.357,4.146 -2.837,8.89 -8.107,11.708c-0.415,0.224 -0.87,0.391 -1.312,0.589Z"/><path id="quarter8" serif:id="quarter" d="M202.285,139.686c6.803,-3.131 14.033,-1.776 16.137,3.026c2.103,4.801 -1.71,11.241 -8.515,14.372c-5.705,2.626 -11.71,2.097 -14.741,-0.974l0.001,39.89l-2.167,0l0,-44.151l0.216,0.001c-0.344,-4.101 2.731,-8.793 7.806,-11.581c0.4,-0.221 0.838,-0.387 1.263,-0.583Z"/><path id="quarter9" serif:id="quarter" d="M210.357,136.295c-7.064,3.166 -14.572,1.796 -16.756,-3.059c-2.185,-4.853 1.775,-11.365 8.842,-14.53c6.164,-2.763 12.667,-2.071 15.674,1.375l0,-46.081l1.883,-0l0,49.999l-0.224,-0.001c0.357,4.146 -2.837,8.89 -8.107,11.708c-0.415,0.224 -0.87,0.391 -1.312,0.589Z"/><path id="quarter10" serif:id="quarter" d="M451.357,148.295c-7.064,3.166 -14.572,1.796 -16.756,-3.059c-2.185,-4.853 1.775,-11.365 8.842,-14.53c6.164,-2.763 12.667,-2.071 15.674,1.375l0,-46.081l1.883,-0l0,49.999l-0.224,-0.001c0.357,4.146 -2.837,8.89 -8.107,11.708c-0.415,0.224 -0.87,0.391 -1.312,0.589Z" style="fill:#ffbf00;"/><g id="_8-Note" serif:id="8-Note"><path d="M608.62,97l-0.001,5.068c2.032,6.167 8.966,9.165 12.749,12.836c4.463,4.33 6.093,9.325 5.911,14.004c-0.049,1.25 -0.434,6.664 -4.619,12.092c5.597,-13.618 0.386,-19.084 -4.705,-23.433c-4.372,-3.734 -7.949,-7.316 -9.336,-12.767l0.001,40.055c0.828,4.441 -2.86,9.769 -8.951,12.504c-6.784,3.047 -13.992,1.729 -16.09,-2.942c-1.966,-4.379 1.231,-10.2 7.231,-13.416c0.4,-0.214 0.835,-0.375 1.259,-0.566c5.225,-2.346 10.701,-2.103 13.901,0.266l-0.001,-43.701l2.651,0Z" style="fill:#0c0c0c;fill-rule:nonzero;"/></g><path id="quarter11" serif:id="quarter" d="M444.285,159.686c6.803,-3.131 14.033,-1.776 16.137,3.026c2.103,4.801 -1.71,11.241 -8.515,14.372c-5.705,2.626 -11.71,2.097 -14.741,-0.974l0.001,39.89l-2.167,0l-0,-44.151l0.216,0.001c-0.344,-4.101 2.731,-8.793 7.806,-11.581c0.4,-0.221 0.838,-0.387 1.263,-0.583Z"/><g id="Degree"><path d="M466.32,185.22c1.96,0 3.74,-0.84 5,-2.38c0.88,-1.08 1.4,-2.4 1.4,-3.58c-0,-1.86 -1.36,-3 -3.62,-3c-0.48,0 -0.84,0.04 -1.42,0.14l0.88,-2.24l4.7,0l0.96,-2l-5.92,0l-2.46,6.28l0.34,0.32c0.68,-0.2 1.22,-0.28 1.84,-0.28c1.62,0 2.56,0.78 2.56,2.1c-0,1.86 -1.64,3.72 -3.26,3.72c-0.58,0 -1.02,-0.36 -1.26,-1c-0.24,-0.72 -0.4,-0.86 -0.96,-0.86c-0.74,0 -1.36,0.58 -1.36,1.28c-0,0.88 1.06,1.5 2.58,1.5Z" style="fill:#0c0c0c;fill-rule:nonzero;"/></g><g id="Degree1" serif:id="Degree"><path d="M474.96,144l0.16,-0.78c-0.88,-0.08 -1.12,-0.34 -2.04,-2.08l-1.68,-3.32c-0.06,-0.12 -0.1,-0.18 -0.12,-0.2l-0.12,-0.22l-0.04,-0.08c2.14,-0.7 3.5,-2.32 3.5,-4.14c-0,-0.82 -0.36,-1.52 -0.98,-1.9c-0.66,-0.4 -1.66,-0.64 -2.72,-0.64c-0.14,-0 -0.38,-0 -0.7,0.02c-1.16,0.06 -2.12,0.1 -2.92,0.1c-0.88,-0 -1.52,-0.02 -2.62,-0.1l-0.18,0.82l0.22,-0c0.74,-0 1.16,0.26 1.16,0.76c-0,0.18 -0.12,0.9 -0.22,1.44l-1.56,7.3c-0.36,1.86 -0.62,2.16 -1.88,2.2l-0.2,0l-0.18,0.82c1.04,-0.06 1.68,-0.08 2.74,-0.08c1.14,0 1.9,0.02 3.12,0.08l0.16,-0.82l-0.24,0c-0.86,0 -1.28,-0.26 -1.28,-0.78c-0,-0.2 0.08,-0.72 0.24,-1.42l0.64,-3.08l0.28,0.02l0.06,-0c0.24,-0 0.46,-0.02 0.94,-0.04l2.26,4.78c0.54,1.22 0.72,1.3 2.76,1.34l1.44,-0Zm-7.22,-6.94c-0.06,-0 -0.18,-0 -0.34,-0.02l0.86,-3.96c0.06,-0.26 0.16,-0.68 0.34,-1.48l0.82,-0.02c1.72,0 2.54,0.64 2.54,1.98c-0,1 -0.44,1.96 -1.18,2.58c-0.64,0.54 -1.92,0.92 -3.04,0.92Z" style="fill:#ffbf00;"/></g><g id="Degree2" serif:id="Degree"><path d="M952.32,206.22c1.96,0 3.74,-0.84 5,-2.38c0.88,-1.08 1.4,-2.4 1.4,-3.58c-0,-1.86 -1.36,-3 -3.62,-3c-0.48,0 -0.84,0.04 -1.42,0.14l0.88,-2.24l4.7,0l0.96,-2l-5.92,0l-2.46,6.28l0.34,0.32c0.68,-0.2 1.22,-0.28 1.84,-0.28c1.62,0 2.56,0.78 2.56,2.1c-0,1.86 -1.64,3.72 -3.26,3.72c-0.58,0 -1.02,-0.36 -1.26,-1c-0.24,-0.72 -0.4,-0.86 -0.96,-0.86c-0.74,0 -1.36,0.58 -1.36,1.28c-0,0.88 1.06,1.5 2.58,1.5Z" style="fill:#0c0c0c;fill-rule:nonzero;"/></g><g id="Degree3" serif:id="Degree"><path d="M960.96,165l0.16,-0.78c-0.88,-0.08 -1.12,-0.34 -2.04,-2.08l-1.68,-3.32c-0.06,-0.12 -0.1,-0.18 -0.12,-0.2l-0.12,-0.22l-0.04,-0.08c2.14,-0.7 3.5,-2.32 3.5,-4.14c-0,-0.82 -0.36,-1.52 -0.98,-1.9c-0.66,-0.4 -1.66,-0.64 -2.72,-0.64c-0.14,-0 -0.38,-0 -0.7,0.02c-1.16,0.06 -2.12,0.1 -2.92,0.1c-0.88,-0 -1.52,-0.02 -2.62,-0.1l-0.18,0.82l0.22,-0c0.74,-0 1.16,0.26 1.16,0.76c-0,0.18 -0.12,0.9 -0.22,1.44l-1.56,7.3c-0.36,1.86 -0.62,2.16 -1.88,2.2l-0.2,0l-0.18,0.82c1.04,-0.06 1.68,-0.08 2.74,-0.08c1.14,0 1.9,0.02 3.12,0.08l0.16,-0.82l-0.24,0c-0.86,0 -1.28,-0.26 -1.28,-0.78c-0,-0.2 0.08,-0.72 0.24,-1.42l0.64,-3.08l0.28,0.02l0.06,-0c0.24,-0 0.46,-0.02 0.94,-0.04l2.26,4.78c0.54,1.22 0.72,1.3 2.76,1.34l1.44,-0Zm-7.22,-6.94c-0.06,-0 -0.18,-0 -0.34,-0.02l0.86,-3.96c0.06,-0.26 0.16,-0.68 0.34,-1.48l0.82,-0.02c1.72,0 2.54,0.64 2.54,1.98c-0,1 -0.44,1.96 -1.18,2.58c-0.64,0.54 -1.92,0.92 -3.04,0.92Z" style="fill:#ffbf00;"/></g><path id="quarter12" serif:id="quarter" d="M281.285,150.686c6.803,-3.131 14.033,-1.776 16.137,3.026c2.103,4.801 -1.71,11.241 -8.515,14.372c-5.705,2.626 -11.71,2.097 -14.741,-0.974l0.001,39.89l-2.167,0l-0,-44.151l0.216,0.001c-0.344,-4.101 2.731,-8.793 7.806,-11.581c0.4,-0.221 0.838,-0.387 1.263,-0.583Z"/><path id="Rectangle50" serif:id="Rectangle" d="M330,220l-58,-9l0,-10l58,9l0,10Z"/><path id="Rectangle51" serif:id="Rectangle" d="M356,105l-58,-9l-0,-10l58,9l-0,10Z"/><path id="quarter13" serif:id="quarter" d="M337.285,160.686c6.803,-3.131 14.033,-1.776 16.137,3.026c2.103,4.801 -1.71,11.241 -8.515,14.372c-5.705,2.626 -11.71,2.097 -14.741,-0.974l0.001,39.89l-2.167,0l-0,-44.151l0.216,0.001c-0.344,-4.101 2.731,-8.793 7.806,-11.581c0.4,-0.221 0.838,-0.387 1.263,-0.583Z"/><path id="quarter14" serif:id="quarter" d="M664.285,170.686c6.803,-3.131 14.033,-1.776 16.137,3.026c2.103,4.801 -1.71,11.241 -8.515,14.372c-5.705,2.626 -11.71,2.097 -14.741,-0.974l0.001,39.89l-2.167,0l0,-44.151l0.216,0.001c-0.344,-4.101 2.731,-8.793 7.806,-11.581c0.4,-0.221 0.838,-0.387 1.263,-0.583Z"/><path id="Rectangle52" serif:id="Rectangle" d="M824,252l-169,-21l0,-10l169,21l0,10Z"/><path id="Rectangle53" serif:id="Rectangle" d="M850,123l-170,-11l-0,-10l170,11l-0,10Z"/><path id="quarter15" serif:id="quarter" d="M719.285,180.686c6.803,-3.131 14.033,-1.776 16.137,3.026c2.103,4.801 -1.71,11.241 -8.515,14.372c-5.705,2.626 -11.71,2.097 -14.741,-0.974l0.001,39.89l-2.167,0l0,-44.151l0.216,0.001c-0.344,-4.101 2.731,-8.793 7.806,-11.581c0.4,-0.221 0.838,-0.387 1.263,-0.583Z"/><g id="_8-Note-Rev" serif:id="8-Note-Rev"><path id="_8-Note1" serif:id="8-Note" d="M598.983,184.205c4.186,5.499 4.571,10.984 4.619,12.25c0.183,4.74 -1.448,9.8 -5.911,14.187c-4.695,4.615 -12.99,6.277 -12.654,12.563c-0.438,-6.506 3.074,-9.925 9.241,-15.261c5.091,-4.406 10.302,-9.943 4.705,-23.739Zm-6.914,-22.564c6.784,-3.047 13.992,-1.729 16.09,2.942c2.098,4.671 -1.706,10.935 -8.49,13.982c-5.671,2.546 -11.638,2.043 -14.669,-0.919l-0,44.633l-2,0l-0,-50l0.023,0.001c0.283,-3.678 3.225,-7.629 7.787,-10.074c0.4,-0.214 0.835,-0.375 1.259,-0.565Z" style="fill:#0c0c0c;fill-rule:nonzero;"/></g><g id="_8-Rest" serif:id="8-Rest"><path id="_8休" serif:id="8休" d="M540.903,114.125c-1.785,0.339 -3.151,1.58 -3.769,3.294c-0.134,0.553 -0.134,0.688 -0.134,1.445c0,1.04 0.065,1.593 0.549,2.415c0.683,1.379 2.119,2.485 3.756,2.89c1.717,0.487 4.587,0.069 7.872,-1.027l0.817,-0.283l-4.037,11.232l-3.969,11.218c0,-0 0.134,0.069 0.35,0.218c0.402,0.269 1.085,0.473 1.569,0.473c0.817,0 1.851,-0.473 1.985,-0.892c-0,-0.134 1.915,-6.684 4.236,-14.459l4.103,-14.256l-0.134,-0.201c-0.333,-0.418 -1.016,-0.553 -1.435,-0.218c-0.134,0.135 -0.347,0.419 -0.481,0.622c-0.618,1.041 -2.187,2.89 -3.004,3.577c-0.752,0.623 -1.167,0.688 -1.85,0.419c-0.618,-0.339 -0.821,-0.688 -1.236,-2.551c-0.402,-1.849 -0.882,-2.689 -1.916,-3.376c-0.954,-0.619 -2.187,-0.823 -3.272,-0.54Z" style="fill:#0c0c0c;fill-rule:nonzero;"/></g><g id="do-line"><rect id="Rectangle54" serif:id="Rectangle" x="701" y="188" width="45" height="2" style="fill:#0c0c0c;"/></g><g id="do-line1" serif:id="do-line"><rect id="Rectangle55" serif:id="Rectangle" x="759" y="188" width="45" height="2" style="fill:#0c0c0c;"/></g><path id="quarter16" serif:id="quarter" d="M775.285,180.686c6.803,-3.131 14.033,-1.776 16.137,3.026c2.103,4.801 -1.71,11.241 -8.515,14.372c-5.705,2.626 -11.71,2.097 -14.741,-0.974l0.001,39.89l-2.167,0l0,-44.151l0.216,0.001c-0.344,-4.101 2.731,-8.793 7.806,-11.581c0.4,-0.221 0.838,-0.387 1.263,-0.583Z"/><path id="quarter17" serif:id="quarter" d="M831.285,190.686c6.803,-3.131 14.033,-1.776 16.137,3.026c2.103,4.801 -1.71,11.241 -8.515,14.372c-5.705,2.626 -11.71,2.097 -14.741,-0.974l0.001,39.89l-2.167,0l0,-44.151l0.216,0.001c-0.344,-4.101 2.731,-8.793 7.806,-11.581c0.4,-0.221 0.838,-0.387 1.263,-0.583Z"/><path id="quarter18" serif:id="quarter" d="M930.285,190.686c6.803,-3.131 14.033,-1.776 16.137,3.026c2.103,4.801 -1.71,11.241 -8.515,14.372c-5.705,2.626 -11.71,2.097 -14.741,-0.974l0.001,39.89l-2.167,0l0,-44.151l0.216,0.001c-0.344,-4.101 2.731,-8.793 7.806,-11.581c0.4,-0.221 0.838,-0.387 1.263,-0.583Z"/><g id="do-line2" serif:id="do-line"><rect id="Rectangle56" serif:id="Rectangle" x="812" y="188" width="45" height="2" style="fill:#0c0c0c;"/></g><g><path d="M128.812,472.351c-0.444,-0.06 -0.666,-0.342 -0.666,-0.846l0.18,-0.342c0.3,-0.168 0.594,-0.372 0.882,-0.612c0.744,-0.624 1.23,-1.176 1.458,-1.656c-0.384,-0.264 -0.807,-0.594 -1.269,-0.99c-0.462,-0.396 -0.777,-0.654 -0.945,-0.774c-0.132,-0.084 -0.198,-0.204 -0.198,-0.36c0,-0.048 0.015,-0.141 0.045,-0.279c0.03,-0.138 0.171,-0.879 0.423,-2.223c0.252,-1.344 0.462,-2.508 0.63,-3.492l-1.764,0.072c-0.444,-0.06 -0.666,-0.348 -0.666,-0.864l0.18,-0.36c0.372,-0.132 0.78,-0.204 1.224,-0.216c0.444,-0.012 0.888,-0.018 1.332,-0.018c0.144,-0.948 0.33,-1.728 0.558,-2.34c0.18,-0.144 0.408,-0.216 0.684,-0.216l0.36,0.18c0.12,0.132 0.18,0.306 0.18,0.522c0,0.228 -0.078,0.546 -0.234,0.954c-0.084,0.216 -0.138,0.516 -0.162,0.9l1.476,-0c0.024,-0.336 0.12,-0.63 0.288,-0.882c0.144,-0.12 0.354,-0.18 0.63,-0.18l0.36,0.18c0.12,0.132 0.18,0.336 0.18,0.612l-0.018,0.27c0.132,-0.024 0.264,-0.036 0.396,-0.036c0.312,-0 0.594,0.066 0.846,0.198c0.108,0.144 0.162,0.366 0.162,0.666l-0.162,0.342c-0.336,0.156 -0.696,0.234 -1.08,0.234l-0.396,-0.018c-0.132,2.4 -0.558,4.932 -1.278,7.596c0.504,0.216 1.326,0.666 2.466,1.35c0.144,0.156 0.216,0.378 0.216,0.666l-0.18,0.342c-0.168,0.12 -0.354,0.18 -0.558,0.18c-0.168,-0 -0.594,-0.21 -1.278,-0.63c-0.396,-0.228 -0.804,-0.426 -1.224,-0.594c-0.276,0.468 -0.753,1.011 -1.431,1.629c-0.678,0.618 -1.227,0.963 -1.647,1.035Zm13.032,-2.916c-0.12,-0 -0.258,-0.012 -0.414,-0.036c-2.256,-0.06 -3.756,-0.09 -4.5,-0.09c-0.396,-0 -0.666,-0.015 -0.81,-0.045c-0.144,-0.03 -0.264,-0.189 -0.36,-0.477c-0.072,-0.204 -0.108,-0.954 -0.108,-2.25c0,-0.492 0.012,-1.488 0.036,-2.988c0.024,-1.5 0.045,-2.352 0.063,-2.556c0.018,-0.204 0.231,-0.336 0.639,-0.396l5.184,-0.036c0.552,0.06 0.834,0.246 0.846,0.558c0.048,2.808 0.072,4.836 0.072,6.084c0,1.116 -0.027,1.767 -0.081,1.953c-0.054,0.186 -0.243,0.279 -0.567,0.279Zm-0.72,-1.494l-0.108,-6.012l-3.888,0.036l-0.036,5.94l4.032,0.036Zm-9.9,-0.45c0.624,-2.256 0.996,-4.494 1.116,-6.714l-1.53,-0c-0.432,1.884 -0.744,3.792 -0.936,5.724l1.35,0.99Z" style="fill-rule:nonzero;"/><path d="M153.202,472.729l-0.108,-0l-0.342,-0.162c-0.108,-0.144 -0.174,-0.306 -0.198,-0.486l-0.072,-4.266c-0.78,0.624 -1.548,1.233 -2.304,1.827c-0.756,0.594 -1.584,1.023 -2.484,1.287l-0.342,-0.198c-0.108,-0.12 -0.162,-0.324 -0.162,-0.612l0.162,-0.324c1.5,-0.792 2.706,-1.644 3.618,-2.556l-3.618,-0.018c-0.432,-0.06 -0.648,-0.336 -0.648,-0.828l0.18,-0.342l0.342,-0.162l5.292,-0l0.036,-1.044c-1.932,-0.06 -3.111,-0.09 -3.537,-0.09c-0.426,-0 -0.711,-0.096 -0.855,-0.288c-0.144,-0.192 -0.408,-2.376 -0.792,-6.552c0,-0.312 0.096,-0.507 0.288,-0.585c0.192,-0.078 0.432,-0.117 0.72,-0.117c6.672,0.12 10.14,0.21 10.404,0.27c0.204,0.06 0.306,0.288 0.306,0.684l-0.018,0.36c-0.144,1.044 -0.27,2.283 -0.378,3.717c-0.108,1.434 -0.201,2.238 -0.279,2.412c-0.078,0.174 -0.333,0.273 -0.765,0.297l-3.762,-0.072l-0.036,0.972l4.968,0.036l0.342,0.162c0.12,0.156 0.18,0.372 0.18,0.648l-0.18,0.342c-0.18,0.12 -0.366,0.186 -0.558,0.198l-4.104,-0.054c0.432,0.348 0.87,0.666 1.314,0.954l2.97,1.854c0.12,0.132 0.18,0.336 0.18,0.612l-0.18,0.342c-0.132,0.132 -0.3,0.198 -0.504,0.198l-0.18,-0.018c-0.78,-0.324 -1.512,-0.741 -2.196,-1.251c-0.684,-0.51 -1.38,-0.981 -2.088,-1.413l0.072,3.744l-0.18,0.36c-0.144,0.108 -0.312,0.162 -0.504,0.162Zm4.068,-9.108l0.18,-2.052l-3.528,-0.09l0,2.088l3.348,0.054Zm-4.68,-0.09l0,-2.052l-3.474,0.036l0.216,1.944l3.258,0.072Zm4.986,-3.312l0.072,-1.512l-3.69,-0.108l-0.072,1.53l3.69,0.09Zm-8.64,-0.054l3.618,-0.036l0.054,-1.53l-3.816,-0.036l0.144,1.602Z" style="fill-rule:nonzero;"/><path d="M166.162,472.747l-0.108,-0l-0.36,-0.18c-0.192,-0.468 -0.288,-0.972 -0.288,-1.512l-0.126,-7.326c-0.216,0.324 -0.387,0.651 -0.513,0.981c-0.126,0.33 -0.273,0.657 -0.441,0.981c-0.144,0.12 -0.354,0.18 -0.63,0.18l-0.36,-0.18c-0.144,-0.18 -0.216,-0.39 -0.216,-0.63c0.612,-1.332 1.224,-2.67 1.836,-4.014c0.612,-1.344 1.26,-2.658 1.944,-3.942c0.168,-0.144 0.402,-0.216 0.702,-0.216l0.36,0.18c0.144,0.156 0.216,0.378 0.216,0.666c-0.336,0.54 -0.858,1.686 -1.566,3.438l0.252,11.034l-0.162,0.36c-0.156,0.12 -0.336,0.18 -0.54,0.18Zm2.898,-3.708c-0.192,-0.024 -0.36,-0.096 -0.504,-0.216c-0.12,-0.168 -0.192,-0.354 -0.216,-0.558c0.492,-1.308 0.942,-2.316 1.35,-3.024c0.168,-0.156 0.36,-0.234 0.576,-0.234c0.084,-0 0.252,0.066 0.504,0.198c0.12,0.144 0.18,0.354 0.18,0.63c-0.444,0.84 -0.741,1.455 -0.891,1.845c-0.15,0.39 -0.309,0.771 -0.477,1.143c-0.168,0.12 -0.342,0.192 -0.522,0.216Zm8.586,0.108l-0.108,-0l-0.342,-0.18c-0.264,-0.444 -0.525,-0.888 -0.783,-1.332c-0.258,-0.444 -0.765,-1.008 -1.521,-1.692l-0.036,-0.432l0.18,-0.342c0.144,-0.132 0.318,-0.198 0.522,-0.198l0.198,0.018l0.342,0.18c0.912,1.056 1.497,1.776 1.755,2.16c0.258,0.384 0.423,0.81 0.495,1.278l-0.18,0.36c-0.132,0.12 -0.306,0.18 -0.522,0.18Zm-4.032,3.366c-0.084,-0 -0.186,-0.018 -0.306,-0.054c-0.468,-0.204 -0.9,-0.51 -1.296,-0.918c-0.408,-0.324 -0.63,-0.72 -0.666,-1.188l0.162,-0.36c0.144,-0.108 0.318,-0.162 0.522,-0.162c0.168,-0 0.384,0.102 0.648,0.306l0.072,-8.982l-3.276,-0.036c-0.144,0.396 -0.267,0.795 -0.369,1.197c-0.102,0.402 -0.249,0.789 -0.441,1.161c-0.144,0.12 -0.354,0.18 -0.63,0.18l-0.36,-0.18c-0.108,-0.156 -0.162,-0.378 -0.162,-0.666c0.252,-0.912 0.555,-1.827 0.909,-2.745c0.354,-0.918 0.681,-1.827 0.981,-2.727c0.168,-0.108 0.354,-0.162 0.558,-0.162c0.06,-0 0.216,0.054 0.468,0.162c0.108,0.168 0.162,0.39 0.162,0.666c-0.3,0.876 -0.486,1.452 -0.558,1.728l8.316,0.036c0.408,-0 0.612,0.156 0.612,0.468c0,0.108 -0.03,0.24 -0.09,0.396c-0.084,0.42 -0.222,0.813 -0.414,1.179c-0.192,0.366 -0.39,0.735 -0.594,1.107c-0.144,0.12 -0.354,0.18 -0.63,0.18l-0.36,-0.18c-0.12,-0.168 -0.18,-0.354 -0.18,-0.558c0,-0.06 0.168,-0.45 0.504,-1.17l-3.042,-0l-0.036,10.746c-0.06,0.384 -0.228,0.576 -0.504,0.576Z" style="fill-rule:nonzero;"/><path d="M185.476,472.351c-0.3,-0.108 -0.48,-0.258 -0.54,-0.45c-0.06,-0.192 -0.138,-1.446 -0.234,-3.762c0,-0.3 0.066,-0.48 0.198,-0.54c0.132,-0.06 0.288,-0.09 0.468,-0.09c0.12,0.012 2.628,0.066 7.524,0.162c0.324,0.024 0.498,0.147 0.522,0.369c0.024,0.222 0.054,1.287 0.09,3.195c0,0.672 -0.18,1.02 -0.54,1.044c-0.36,0.024 -2.856,0.048 -7.488,0.072Zm6.642,-1.404l-0.072,-1.908l-5.976,-0.108l0.144,1.98l5.904,0.036Zm-8.37,-4.14c-0.468,-0 -0.918,-0.078 -1.35,-0.234c-0.12,-0.168 -0.18,-0.39 -0.18,-0.666l0.18,-0.36c0.372,-0.132 0.768,-0.198 1.188,-0.198c0.156,-0 0.324,0.012 0.504,0.036l4.752,-0l-0.036,-0.918c-0.588,-0 -1.161,-0.012 -1.719,-0.036c-0.558,-0.024 -1.095,-0.12 -1.611,-0.288c-0.12,-0.132 -0.18,-0.342 -0.18,-0.63l0.18,-0.342c0.216,-0.144 0.462,-0.216 0.738,-0.216c0.096,-0 0.198,0.012 0.306,0.036l2.214,0.108l-0.036,-0.954l-2.628,0.036c-0.444,-0.06 -0.666,-0.342 -0.666,-0.846l0.18,-0.36l0.342,-0.162l2.736,-0.036c0,-0.624 0.246,-0.936 0.738,-0.936l0.108,-0l0.36,0.18c0.132,0.156 0.198,0.342 0.198,0.558l-0.018,0.162c0.96,-0 1.554,-0.006 1.782,-0.018c0.432,-0 0.846,0.078 1.242,0.234c0.108,0.156 0.162,0.378 0.162,0.666l-0.162,0.342c-0.348,0.144 -0.714,0.216 -1.098,0.216c-0.144,-0 -0.294,-0.012 -0.45,-0.036l-1.44,-0.036l0.018,0.954l2.322,-0l0.36,0.162c0.12,0.144 0.18,0.36 0.18,0.648l-0.18,0.342c-0.168,0.12 -0.342,0.192 -0.522,0.216l-2.052,-0l0,0.918c2.364,0.024 3.744,0.036 4.14,0.036c0.396,-0 0.756,0.066 1.08,0.198c0.12,0.144 0.18,0.354 0.18,0.63l-0.18,0.36c-0.204,0.144 -0.438,0.216 -0.702,0.216l-10.98,0.018Zm-0.684,-4.482c-0.192,-0.024 -0.354,-0.096 -0.486,-0.216c-0.264,-0.336 -0.396,-1.476 -0.396,-3.42c0,-0.336 0.084,-0.528 0.252,-0.576c0.12,-0.036 0.27,-0.054 0.45,-0.054c0.192,0.012 2.076,0.018 5.652,0.018c-0.024,-0.144 -0.036,-0.288 -0.036,-0.432c0,-0.396 0.078,-0.756 0.234,-1.08c0.144,-0.108 0.318,-0.162 0.522,-0.162c0.06,-0 0.216,0.054 0.468,0.162c0.144,0.336 0.216,0.702 0.216,1.098c0,0.144 -0.012,0.294 -0.036,0.45c4.02,0.036 6.114,0.096 6.282,0.18c0.108,0.06 0.162,0.204 0.162,0.432c0,0.132 -0.036,0.369 -0.108,0.711c-0.072,0.342 -0.129,0.72 -0.171,1.134c-0.042,0.414 -0.147,0.807 -0.315,1.179c-0.144,0.12 -0.354,0.18 -0.63,0.18l-0.36,-0.18c-0.132,-0.156 -0.198,-0.342 -0.198,-0.558c0,-0.06 0.09,-0.57 0.27,-1.53l-11.214,-0.198l0.144,2.286l-0.18,0.36c-0.156,0.12 -0.33,0.192 -0.522,0.216Z" style="fill-rule:nonzero;"/><path d="M202.198,472.567l-0.108,-0l-0.36,-0.18c-0.156,-0.216 -0.234,-0.468 -0.234,-0.756c0.012,-0.144 0.078,-4.836 0.198,-14.076c0.06,-0.444 0.342,-0.666 0.846,-0.666l0.36,0.18l0.18,0.342l-0.108,13.572c0,0.516 -0.078,0.984 -0.234,1.404c-0.156,0.12 -0.336,0.18 -0.54,0.18Zm4.716,-0.486l-0.126,-0c-0.372,-0 -0.576,-0.108 -0.612,-0.324c-0.036,-0.216 -0.132,-3.918 -0.288,-11.106c0,-0.66 0.102,-0.99 0.306,-0.99l2.196,0.036c0.708,-1.332 1.2,-2.208 1.476,-2.628c0.168,-0.144 0.402,-0.216 0.702,-0.216l0.36,0.18c0.108,0.132 0.162,0.342 0.162,0.63l-1.08,2.034l3.564,-0c0.336,0.024 0.51,0.204 0.522,0.54l-0.09,11.178c-0.048,0.372 -0.201,0.57 -0.459,0.594c-0.258,0.024 -2.469,0.048 -6.633,0.072Zm0.558,-1.404l5.148,-0.036l0.072,-4.878l-5.346,0.036l0.126,4.878Zm-7.506,-3.924l-0.108,-0l-0.342,-0.18c-0.132,-0.168 -0.198,-0.354 -0.198,-0.558c0.156,-1.596 0.336,-2.712 0.54,-3.348c0.168,-0.132 0.408,-0.198 0.72,-0.198l0.342,0.162c0.144,0.168 0.216,0.372 0.216,0.612c-0.24,1.704 -0.45,2.814 -0.63,3.33c-0.144,0.12 -0.324,0.18 -0.54,0.18Zm4.806,-0.99c-0.192,-0.024 -0.354,-0.096 -0.486,-0.216c-0.144,-0.468 -0.309,-0.918 -0.495,-1.35c-0.186,-0.432 -0.327,-0.882 -0.423,-1.35c0.06,-0.468 0.354,-0.702 0.882,-0.702l0.342,0.18c0.144,0.492 0.315,0.966 0.513,1.422c0.198,0.456 0.321,0.942 0.369,1.458l-0.18,0.342c-0.156,0.12 -0.33,0.192 -0.522,0.216Zm2.574,-1.332l5.382,-0.036l0,-3.312l-5.454,-0l0.072,3.348Z" style="fill-rule:nonzero;"/><path d="M221.422,471.199l-0.108,-0l-0.342,-0.18c-0.144,-0.192 -0.216,-0.414 -0.216,-0.666c0.756,-3.648 1.86,-6.912 3.312,-9.792l-6.228,-0.18l0.36,2.538l-0.18,0.342c-0.168,0.12 -0.354,0.18 -0.558,0.18l-0.108,-0l-0.378,-0.18c-0.228,-0.516 -0.378,-1.077 -0.45,-1.683c-0.072,-0.606 -0.108,-1.245 -0.108,-1.917c0,-0.252 0.075,-0.414 0.225,-0.486c0.15,-0.072 0.339,-0.132 0.567,-0.18l8.154,0.18c0.432,0.048 0.648,0.21 0.648,0.486c0,0.096 -0.03,0.216 -0.09,0.36c-1.668,2.988 -2.988,6.654 -3.96,10.998c-0.144,0.12 -0.324,0.18 -0.54,0.18Z" style="fill-rule:nonzero;"/><path d="M232.672,470.731c-0.9,-0 -1.698,-0.504 -2.394,-1.512c-0.384,-0.54 -0.63,-1.257 -0.738,-2.151c-0.108,-0.894 -0.174,-1.797 -0.198,-2.709l-1.962,0.072c-0.444,-0.06 -0.666,-0.312 -0.666,-0.756l0,-0.126l0.162,-0.342c0.216,-0.144 0.456,-0.216 0.72,-0.216l1.71,-0c0.024,-0.372 0.042,-0.759 0.054,-1.161c0.012,-0.402 0.09,-0.765 0.234,-1.089c0.156,-0.12 0.342,-0.18 0.558,-0.18l0.108,-0l0.342,0.18c0.144,0.18 0.216,0.396 0.216,0.648c0,0.096 -0.012,0.198 -0.036,0.306l-0.108,1.332l3.096,0.072l0.396,0.198c0.108,0.168 0.162,0.354 0.162,0.558c0,0.06 -0.054,0.216 -0.162,0.468c-0.216,0.144 -0.462,0.216 -0.738,0.216l-2.718,-0.144c0.048,0.936 0.114,1.767 0.198,2.493c0.084,0.726 0.366,1.341 0.846,1.845c0.36,0.396 0.678,0.594 0.954,0.594c0.084,-0 0.225,-0.045 0.423,-0.135c0.198,-0.09 0.531,-0.225 0.999,-0.405l0.342,0.18c0.12,0.168 0.18,0.36 0.18,0.576l0,0.108l-0.18,0.342c-0.564,0.492 -1.164,0.738 -1.8,0.738Z" style="fill-rule:nonzero;"/><path d="M243.544,471.055l-0.108,-0l-0.36,-0.18c-0.132,-0.18 -0.198,-0.402 -0.198,-0.666c0.108,-0.408 0.168,-0.834 0.18,-1.278c0.012,-0.444 0.018,-0.888 0.018,-1.332c0,-0.948 -0.312,-1.662 -0.936,-2.142c-0.192,-0.132 -0.408,-0.198 -0.648,-0.198c-0.636,-0 -1.272,0.378 -1.908,1.134c-0.9,1.092 -1.35,1.992 -1.35,2.7l0,0.306c0,0.396 -0.06,0.762 -0.18,1.098c-0.144,0.12 -0.318,0.18 -0.522,0.18l-0.108,-0l-0.36,-0.18c-0.18,-0.468 -0.306,-0.966 -0.378,-1.494l-0.396,-9.018c0.06,-0.468 0.318,-0.702 0.774,-0.702l0.108,-0l0.36,0.18c0.108,0.132 0.162,0.3 0.162,0.504l0.288,6.228c1.116,-1.548 2.232,-2.322 3.348,-2.322c0.24,-0 0.591,0.048 1.053,0.144c0.462,0.096 0.858,0.369 1.188,0.819c0.33,0.45 0.555,0.879 0.675,1.287c0.12,0.408 0.18,1.002 0.18,1.782c0,0.072 -0.006,0.354 -0.018,0.846c-0.012,0.492 -0.03,0.906 -0.054,1.242c-0.024,0.336 -0.12,0.63 -0.288,0.882c-0.144,0.12 -0.318,0.18 -0.522,0.18Z" style="fill-rule:nonzero;"/><path d="M260.446,472.477c-0.252,-0 -0.528,-0.156 -0.828,-0.468c-0.528,-0.528 -0.984,-0.96 -1.368,-1.296c-0.228,-0.192 -0.342,-0.462 -0.342,-0.81l0.18,-0.36c0.144,-0.12 0.36,-0.18 0.648,-0.18c0.312,0.168 0.762,0.558 1.35,1.17c0.204,-1.512 0.378,-3.09 0.522,-4.734c0.144,-1.644 0.282,-3.18 0.414,-4.608l-5.184,-0.036c-0.072,0.516 -0.177,0.963 -0.315,1.341c-0.138,0.378 -0.315,0.801 -0.531,1.269c-0.144,0.12 -0.354,0.18 -0.63,0.18l-0.342,-0.18c-0.132,-0.144 -0.198,-0.318 -0.198,-0.522l0.018,-0.18c0.372,-0.828 0.636,-1.788 0.792,-2.88c0.156,-1.092 0.396,-2.166 0.72,-3.222c0.144,-0.12 0.354,-0.18 0.63,-0.18l0.36,0.18c0.12,0.132 0.18,0.3 0.18,0.504l-0.018,0.198c-0.168,0.6 -0.306,1.302 -0.414,2.106l5.76,0.036c0.348,-0 0.528,0.252 0.54,0.756c-0.228,2.604 -0.402,4.776 -0.522,6.516c-0.12,1.74 -0.312,3.096 -0.576,4.068c-0.252,0.888 -0.534,1.332 -0.846,1.332Zm-8.64,-3.204l-2.34,-0.018l-2.25,0.018c-0.288,-0 -0.45,-0.12 -0.486,-0.36c-0.036,-0.24 -0.096,-2.874 -0.18,-7.902c0.012,-0.552 0.216,-0.858 0.612,-0.918c0.12,-0.012 0.252,-0.018 0.396,-0.018c0.336,-0 0.75,0.036 1.242,0.108c0.132,-0.468 0.324,-0.894 0.576,-1.278c0.252,-0.384 0.474,-0.786 0.666,-1.206c0.144,-0.12 0.354,-0.18 0.63,-0.18l0.36,0.18c0.12,0.132 0.18,0.3 0.18,0.504c0,0.24 -0.15,0.6 -0.45,1.08c-0.18,0.3 -0.336,0.612 -0.468,0.936c1.284,-0 2.049,0.027 2.295,0.081c0.246,0.054 0.369,0.321 0.369,0.801l0,0.198c-0.096,4.776 -0.186,7.299 -0.27,7.569c-0.084,0.27 -0.378,0.405 -0.882,0.405Zm-3.69,-1.404l3.294,-0.036l0.036,-2.916l-3.42,0.036l0.09,2.916Zm9.846,-0.846l-0.108,-0l-0.36,-0.162l-1.368,-1.548c-0.12,-0.144 -0.18,-0.354 -0.18,-0.63l0.18,-0.36c0.144,-0.132 0.318,-0.198 0.522,-0.198c0.096,-0 0.27,0.066 0.522,0.198l1.242,1.512c0.168,0.168 0.252,0.39 0.252,0.666l-0.18,0.36c-0.144,0.108 -0.318,0.162 -0.522,0.162Zm-10.008,-3.438l3.492,-0.036l0.072,-1.926l-3.6,-0.108l0.036,2.07Z" style="fill-rule:nonzero;"/><path d="M275.422,472.711l-0.108,-0l-0.342,-0.18c-0.12,-0.144 -0.192,-0.306 -0.216,-0.486l0,-2.502l-4.05,0.072c-0.444,-0.06 -0.666,-0.348 -0.666,-0.864l0.18,-0.342l0.36,-0.18l4.14,-0.072l-0.036,-1.098l-3.024,0.036c-0.492,-0.024 -0.738,-0.192 -0.738,-0.504c0,-0.096 0.024,-0.21 0.072,-0.342l1.476,-2.988l-1.548,-0c-0.444,-0.06 -0.666,-0.336 -0.666,-0.828l0.18,-0.36l0.342,-0.18l2.538,-0c0.168,-0.348 0.327,-0.705 0.477,-1.071c0.15,-0.366 0.309,-0.729 0.477,-1.089c0.156,-0.12 0.378,-0.18 0.666,-0.18l0.342,0.18c0.132,0.144 0.198,0.324 0.198,0.54c0,0.096 -0.204,0.636 -0.612,1.62l4.482,0.036l0.342,0.18c0.12,0.144 0.18,0.354 0.18,0.63l-0.18,0.36c-0.156,0.108 -0.33,0.174 -0.522,0.198l-5.04,-0.036l-1.242,2.466l1.764,-0.036l-0.018,-0.324c0,-0.312 0.078,-0.588 0.234,-0.828c0.144,-0.12 0.354,-0.18 0.63,-0.18l0.36,0.18c0.132,0.228 0.198,0.492 0.198,0.792c0,0.108 -0.012,0.228 -0.036,0.36c0.384,0.048 0.777,0.072 1.179,0.072c0.402,-0 0.765,0.072 1.089,0.216c0.12,0.132 0.18,0.342 0.18,0.63l-0.18,0.36c-0.252,0.156 -0.54,0.234 -0.864,0.234l-1.368,-0.144l0.036,1.098c1.308,-0 2.058,-0.006 2.25,-0.018c0.384,-0 0.732,0.078 1.044,0.234c0.144,0.168 0.216,0.39 0.216,0.666l-0.18,0.36c-0.192,0.12 -0.39,0.192 -0.594,0.216l-2.7,-0.072l0,2.646l-0.18,0.342c-0.132,0.12 -0.306,0.18 -0.522,0.18Zm-9.9,-0.288l-0.342,-0.18c-0.12,-0.156 -0.18,-0.378 -0.18,-0.666l0.18,-0.342c0.516,-0.372 1.032,-0.747 1.548,-1.125c0.516,-0.378 1.068,-0.675 1.656,-0.891l0.36,0.18c0.12,0.144 0.18,0.354 0.18,0.63l-0.252,0.396c-0.528,0.348 -1.044,0.717 -1.548,1.107c-0.504,0.39 -1.038,0.687 -1.602,0.891Zm2.214,-9.396c-0.42,-0.12 -0.87,-0.18 -1.35,-0.18c-0.48,-0 -0.918,-0.084 -1.314,-0.252c-0.12,-0.132 -0.18,-0.342 -0.18,-0.63l0.18,-0.342c0.288,-0.144 0.582,-0.216 0.882,-0.216c0.108,-0 0.291,0.024 0.549,0.072c0.258,0.048 0.558,0.084 0.9,0.108c0.342,0.024 0.669,0.102 0.981,0.234c0.12,0.144 0.18,0.36 0.18,0.648l-0.18,0.342c-0.192,0.144 -0.408,0.216 -0.648,0.216Zm11.412,-1.584l-0.09,-0l-0.342,-0.18c-0.12,-0.144 -0.18,-0.318 -0.18,-0.522c0,-0.06 0.138,-0.726 0.414,-1.998l-7.254,-0.036l0.216,2.142l-0.18,0.342c-0.144,0.12 -0.354,0.18 -0.63,0.18l-0.36,-0.18c-0.204,-0.444 -0.324,-0.939 -0.36,-1.485c-0.036,-0.546 -0.078,-1.077 -0.126,-1.593c-0.024,-0.108 -0.036,-0.204 -0.036,-0.288c0,-0.324 0.21,-0.486 0.63,-0.486l8.91,0.036c0.48,0.048 0.72,0.252 0.72,0.612c0,0.096 -0.018,0.198 -0.054,0.306c-0.276,1.536 -0.51,2.514 -0.702,2.934c-0.156,0.144 -0.348,0.216 -0.576,0.216Zm-10.512,-2.16c-0.948,-0.348 -2.022,-0.654 -3.222,-0.918c-0.132,-0.168 -0.198,-0.354 -0.198,-0.558c0,-0.06 0.054,-0.216 0.162,-0.468c0.18,-0.12 0.396,-0.18 0.648,-0.18l0.234,0.018c1.296,0.288 2.262,0.576 2.898,0.864c0.12,0.168 0.18,0.39 0.18,0.666l-0.18,0.36c-0.156,0.12 -0.33,0.192 -0.522,0.216Z" style="fill-rule:nonzero;"/><path d="M283.396,472.783l-0.108,-0l-0.36,-0.18c-0.132,-0.144 -0.198,-0.318 -0.198,-0.522c0,-0.324 0.258,-0.69 0.774,-1.098c0.348,-0.276 0.714,-0.579 1.098,-0.909c0.384,-0.33 0.81,-0.543 1.278,-0.639l0.378,0.18c0.108,0.144 0.162,0.318 0.162,0.522c0,0.06 -0.054,0.216 -0.162,0.468c-1.044,0.612 -1.824,1.278 -2.34,1.998c-0.144,0.12 -0.318,0.18 -0.522,0.18Zm14.328,-0.81l-0.108,-0l-0.342,-0.18l-0.738,-1.404c-0.612,0.12 -1.209,0.219 -1.791,0.297c-0.582,0.078 -1.242,0.153 -1.98,0.225c-0.738,0.072 -1.452,0.195 -2.142,0.369c-0.69,0.174 -1.383,0.333 -2.079,0.477l-0.36,-0.18c-0.12,-0.132 -0.18,-0.342 -0.18,-0.63l0.18,-0.342c1.536,-0.6 2.976,-0.918 4.32,-0.954l0.036,-4.194l-3.042,0.144c-0.36,-0.06 -0.57,-0.216 -0.63,-0.468c-0.06,-0.252 -0.192,-1.83 -0.396,-4.734c0,-0.444 0.3,-0.666 0.9,-0.666l3.168,-0l-0.072,-1.764l0.18,-0.342c0.144,-0.12 0.354,-0.18 0.63,-0.18l0.432,0.216c0.12,0.276 0.18,0.588 0.18,0.936c0,0.576 0.006,0.978 0.018,1.206l3.258,0.072c0.348,0.084 0.522,0.258 0.522,0.522l-0.018,4.734c0,0.18 -0.21,0.27 -0.63,0.27l-0.324,-0.018l-2.808,0.036l-0.036,4.014l2.034,-0.324l-0.666,-1.206c-0.12,-0.132 -0.18,-0.342 -0.18,-0.63l0.18,-0.342c0.156,-0.12 0.378,-0.18 0.666,-0.18l0.342,0.18c0.816,1.212 1.542,2.718 2.178,4.518l-0.162,0.342c-0.144,0.12 -0.324,0.18 -0.54,0.18Zm-7.614,-7.83l2.466,-0.072l0,-2.952l-2.664,-0l0.198,3.024Zm3.834,-0.108l2.34,-0.036l0.036,-2.736l-2.376,-0.072l0,2.844Zm-8.478,-0.198c-0.084,-0 -0.942,-0.27 -2.574,-0.81c-0.12,-0.144 -0.18,-0.354 -0.18,-0.63l0.18,-0.36c0.204,-0.132 0.432,-0.198 0.684,-0.198l0.234,0.018c1.104,0.336 1.836,0.594 2.196,0.774c0.12,0.168 0.18,0.39 0.18,0.666l-0.18,0.36c-0.156,0.12 -0.336,0.18 -0.54,0.18Zm0.828,-4.032c-1.164,-0.48 -2.214,-0.822 -3.15,-1.026c-0.12,-0.132 -0.18,-0.342 -0.18,-0.63l0.18,-0.342c0.204,-0.144 0.438,-0.216 0.702,-0.216c0.096,-0 0.198,0.012 0.306,0.036c1.008,0.252 1.908,0.582 2.7,0.99c0.12,0.132 0.18,0.342 0.18,0.63l-0.18,0.342c-0.168,0.12 -0.354,0.192 -0.558,0.216Z" style="fill-rule:nonzero;"/><path d="M136.984,490.819l-0.108,-0l-0.342,-0.18c-0.12,-0.144 -0.192,-0.306 -0.216,-0.486l-0.234,-14.04c0.012,-0.36 0.3,-0.558 0.864,-0.594c2.496,0.048 3.945,0.09 4.347,0.126c0.402,0.036 0.765,0.096 1.089,0.18c0.204,0.06 0.306,0.186 0.306,0.378c0,0.096 -0.051,0.276 -0.153,0.54c-0.102,0.264 -0.411,0.762 -0.927,1.494c-0.516,0.732 -0.924,1.284 -1.224,1.656c1.044,1.38 1.566,2.856 1.566,4.428c0,1.584 -0.246,2.376 -0.738,2.376c-0.672,-0 -1.872,-0.672 -3.6,-2.016l0.072,5.598l-0.162,0.36c-0.144,0.12 -0.324,0.18 -0.54,0.18Zm-3.798,-0.414c-0.096,-0 -0.198,-0.03 -0.306,-0.09c-0.372,-0.072 -0.702,-0.27 -0.99,-0.594c-0.444,-0.372 -0.714,-0.828 -0.81,-1.368l0.18,-0.36c0.144,-0.108 0.318,-0.162 0.522,-0.162c0.216,-0 0.498,0.186 0.846,0.558c0.252,-0.984 0.438,-2.376 0.558,-4.176l-2.574,-0.018c-0.192,1.572 -0.684,3.066 -1.476,4.482c-0.144,0.108 -0.318,0.162 -0.522,0.162c-0.06,-0 -0.216,-0.054 -0.468,-0.162c-0.12,-0.168 -0.18,-0.396 -0.18,-0.684c0.672,-1.32 1.098,-2.622 1.278,-3.906c-0.144,0.024 -0.288,0.036 -0.432,0.036c-0.372,-0 -0.708,-0.072 -1.008,-0.216c-0.12,-0.144 -0.18,-0.354 -0.18,-0.63l0.18,-0.36c0.36,-0.156 0.756,-0.234 1.188,-0.234c0.144,-0 0.294,0.012 0.45,0.036l0.216,-2.016l-0.288,0.018c-0.456,-0 -0.876,-0.096 -1.26,-0.288c-0.12,-0.144 -0.18,-0.36 -0.18,-0.648l0.18,-0.342c0.192,-0.132 0.396,-0.198 0.612,-0.198l1.044,0.126c0.048,-0.372 0.084,-0.75 0.108,-1.134c0.024,-0.384 0.072,-0.762 0.144,-1.134l-1.692,-0l-0.36,-0.18c-0.108,-0.132 -0.162,-0.342 -0.162,-0.63l0.162,-0.342l0.396,-0.216l5.994,-0c0.336,0.036 0.528,0.162 0.576,0.378l0.018,0.306c0,0.576 -0.06,2.031 -0.18,4.365c-0.12,2.334 -0.249,4.161 -0.387,5.481c-0.138,1.32 -0.405,2.604 -0.801,3.852c-0.096,0.192 -0.228,0.288 -0.396,0.288Zm7.38,-5.436c0.036,-0.144 0.054,-0.312 0.054,-0.504c0,-0.156 -0.021,-0.387 -0.063,-0.693c-0.042,-0.306 -0.171,-0.792 -0.387,-1.458c-0.216,-0.666 -0.678,-1.227 -1.386,-1.683c-0.156,-0.192 -0.234,-0.354 -0.234,-0.486c0,-0.072 0.045,-0.162 0.135,-0.27c0.09,-0.108 0.372,-0.492 0.846,-1.152c0.474,-0.66 0.849,-1.26 1.125,-1.8l-3.204,-0.036l0.108,7.092c0.192,-0.216 0.45,-0.324 0.774,-0.324l2.232,1.314Zm-7.236,-2.124l0.036,-2.106l-2.322,-0l-0.198,2.07l2.484,0.036Zm0.072,-3.474l0.072,-2.268l-2.034,-0c-0.096,0.348 -0.156,0.72 -0.18,1.116c-0.024,0.396 -0.06,0.78 -0.108,1.152l2.25,-0Z" style="fill-rule:nonzero;"/><path d="M149.008,490.297c-0.42,-0.084 -0.786,-0.3 -1.098,-0.648c-0.264,-0.216 -0.396,-0.504 -0.396,-0.864l0.18,-0.342c0.12,-0.096 0.294,-0.144 0.522,-0.144l0.27,0.018l-0.108,-5.256l-1.746,0.054c-0.276,-0.024 -0.447,-0.195 -0.513,-0.513c-0.066,-0.318 -0.111,-0.795 -0.135,-1.431c-0.024,-0.636 -0.048,-1.158 -0.072,-1.566c0,-0.42 0.099,-0.669 0.297,-0.747c0.198,-0.078 0.477,-0.123 0.837,-0.135c0.36,-0.012 1.008,-0.018 1.944,-0.018c0.924,-0 1.545,0.003 1.863,0.009c0.318,0.006 0.573,0.039 0.765,0.099c0.192,0.06 0.288,0.318 0.288,0.774l0.018,2.844c-0.048,0.372 -0.156,0.57 -0.324,0.594c-0.168,0.024 -0.792,0.036 -1.872,0.036c0.06,2.94 0.09,4.782 0.09,5.526c0,0.12 -0.003,0.303 -0.009,0.549c-0.006,0.246 -0.081,0.495 -0.225,0.747c-0.144,0.252 -0.336,0.39 -0.576,0.414Zm3.582,0.414c-0.444,-0.06 -0.666,-0.336 -0.666,-0.828c1.164,-1.824 2.022,-3.585 2.574,-5.283c0.552,-1.698 0.924,-3.435 1.116,-5.211l-2.664,-0c-0.432,-0.06 -0.648,-0.336 -0.648,-0.828l0.18,-0.342l0.324,-0.18l3.024,-0l0.072,-2.502c0.06,-0.432 0.33,-0.648 0.81,-0.648l0.36,0.18c0.108,0.144 0.174,0.324 0.198,0.54l-0.108,2.466l3.438,-0l0.342,0.18c0.12,0.156 0.18,0.378 0.18,0.666l-0.18,0.324c-0.288,0.156 -0.612,0.234 -0.972,0.234c-0.24,-0.012 -1.242,-0.03 -3.006,-0.054l-0.18,1.44c0.252,0.552 0.432,1.104 0.54,1.656c0.084,0.504 0.126,1.218 0.126,2.142c0,1.428 0.048,2.37 0.144,2.826c0.096,0.456 0.282,0.822 0.558,1.098c0.276,0.276 0.552,0.447 0.828,0.513c0.276,0.066 0.57,0.111 0.882,0.135l-0.036,-1.134c0.06,-0.432 0.33,-0.648 0.81,-0.648l0.342,0.18c0.132,0.336 0.198,0.69 0.198,1.062l0.018,1.368c0,0.288 -0.096,0.462 -0.288,0.522c-0.132,0.036 -0.288,0.054 -0.468,0.054c-2.292,-0 -3.66,-0.87 -4.104,-2.61c-0.18,-0.708 -0.27,-1.986 -0.27,-3.834c-0.3,1.104 -0.711,2.175 -1.233,3.213c-0.522,1.038 -1.065,2.043 -1.629,3.015c-0.192,0.168 -0.396,0.264 -0.612,0.288Zm-6.786,-2.16l-0.09,-0l-0.342,-0.162c-0.12,-0.144 -0.18,-0.354 -0.18,-0.63c0.192,-0.324 0.348,-0.657 0.468,-0.999c0.12,-0.342 0.288,-0.681 0.504,-1.017c0.132,-0.096 0.294,-0.144 0.486,-0.144c0.072,-0 0.228,0.048 0.468,0.144c0.12,0.168 0.18,0.39 0.18,0.666c-0.168,0.324 -0.315,0.654 -0.441,0.99c-0.126,0.336 -0.291,0.654 -0.495,0.954c-0.156,0.132 -0.342,0.198 -0.558,0.198Zm6.264,-0.558l-0.108,-0l-0.378,-0.198c-0.228,-0.372 -0.48,-0.735 -0.756,-1.089c-0.276,-0.354 -0.444,-0.747 -0.504,-1.179l0.162,-0.36c0.144,-0.12 0.318,-0.18 0.522,-0.18c0.096,-0 0.264,0.06 0.504,0.18c0.228,0.456 0.489,0.864 0.783,1.224c0.294,0.36 0.441,0.726 0.441,1.098l-0.144,0.342c-0.144,0.108 -0.318,0.162 -0.522,0.162Zm-1.476,-6.264l-0.036,-1.692l-3.294,-0l0.126,1.692l3.204,-0Zm-5.058,-3.546c-0.432,-0.06 -0.648,-0.336 -0.648,-0.828l0.18,-0.342c0.276,-0.144 0.573,-0.222 0.891,-0.234c0.318,-0.012 1.101,-0.036 2.349,-0.072c-0.024,-0.504 -0.072,-0.966 -0.144,-1.386l0.18,-0.324c0.18,-0.144 0.402,-0.216 0.666,-0.216l0.36,0.18c0.168,0.264 0.252,0.54 0.252,0.828c0,0.372 0.012,0.678 0.036,0.918c0.528,0.012 1.05,0.018 1.566,0.018c0.516,-0 1.008,0.072 1.476,0.216c0.12,0.132 0.18,0.336 0.18,0.612l-0.18,0.342c-0.264,0.156 -0.558,0.234 -0.882,0.234l-0.342,-0.018l-5.94,0.072Zm14.112,-0.594l-0.108,-0l-0.324,-0.162c-0.24,-0.396 -0.54,-0.708 -0.9,-0.936c-0.12,-0.156 -0.18,-0.372 -0.18,-0.648l0.18,-0.342c0.144,-0.132 0.318,-0.198 0.522,-0.198l0.162,0.018l1.026,0.9c0.216,0.192 0.324,0.42 0.324,0.684c0,0.096 -0.066,0.27 -0.198,0.522c-0.132,0.108 -0.3,0.162 -0.504,0.162Z" style="fill-rule:nonzero;"/><path d="M170.986,490.675l-0.108,-0l-0.342,-0.18c-0.12,-0.144 -0.192,-0.306 -0.216,-0.486l0,-5.148c-0.96,0.744 -1.884,1.494 -2.772,2.25c-0.888,0.756 -1.824,1.38 -2.808,1.872l-0.342,-0.18c-0.12,-0.132 -0.18,-0.342 -0.18,-0.63l0.18,-0.342c2.256,-1.764 3.798,-3 4.626,-3.708l-1.53,-0.018c-1.056,-0 -2.064,0.048 -3.024,0.144l-0.36,-0.162c-0.144,-0.168 -0.216,-0.39 -0.216,-0.666l0.18,-0.36c0.636,-0.216 1.314,-0.324 2.034,-0.324c0.72,-0 2.088,-0.018 4.104,-0.054l-0.036,-4.338l-3.69,0.072l-0.378,-0.18c-0.108,-0.168 -0.162,-0.396 -0.162,-0.684l0.162,-0.342c0.348,-0.144 0.708,-0.216 1.08,-0.216c0.372,-0 1.356,-0.012 2.952,-0.036l0,-1.476c0.06,-0.444 0.342,-0.666 0.846,-0.666l0.36,0.18l0.162,0.342l0,1.62l4.212,0.108l0.342,0.18c0.12,0.132 0.18,0.342 0.18,0.63l-0.18,0.36c-0.156,0.12 -0.33,0.192 -0.522,0.216l-3.996,-0.108l0.036,4.302l6.282,-0.108l0.342,0.18c0.12,0.132 0.18,0.342 0.18,0.63l-0.18,0.342c-0.156,0.12 -0.33,0.192 -0.522,0.216l-5.184,0.072c0.492,0.42 2.208,1.77 5.148,4.05c0.12,0.144 0.18,0.36 0.18,0.648l-0.18,0.342c-0.168,0.12 -0.39,0.18 -0.666,0.18c-0.396,-0.204 -2.16,-1.548 -5.292,-4.032l0,4.986l-0.18,0.342c-0.132,0.12 -0.306,0.18 -0.522,0.18Zm-3.186,-8.676l-0.126,-0l-0.342,-0.162l-1.008,-1.404c-0.12,-0.168 -0.18,-0.396 -0.18,-0.684l0.18,-0.342c0.156,-0.12 0.372,-0.18 0.648,-0.18l0.36,0.18c0.252,0.396 0.501,0.741 0.747,1.035c0.246,0.294 0.381,0.639 0.405,1.035l-0.162,0.36c-0.144,0.108 -0.318,0.162 -0.522,0.162Zm5.994,-0.126l-0.108,-0l-0.342,-0.18c-0.12,-0.168 -0.192,-0.354 -0.216,-0.558c0.096,-0.36 0.237,-0.696 0.423,-1.008c0.186,-0.312 0.375,-0.624 0.567,-0.936c0.168,-0.144 0.402,-0.216 0.702,-0.216l0.342,0.18c0.12,0.144 0.18,0.354 0.18,0.63c-0.54,0.948 -0.876,1.584 -1.008,1.908c-0.144,0.12 -0.324,0.18 -0.54,0.18Z" style="fill-rule:nonzero;"/><path d="M191.956,479.749c-0.384,-0 -0.726,-0.192 -1.026,-0.576c-0.24,-0.3 -0.36,-0.678 -0.36,-1.134c0,-0.096 0.018,-0.312 0.054,-0.648c0.036,-0.336 0.201,-0.738 0.495,-1.206c0.294,-0.468 0.579,-0.87 0.855,-1.206c0.24,-0.288 0.492,-0.432 0.756,-0.432c0.204,-0 0.36,0.126 0.468,0.378l0,0.342c-0.072,0.168 -0.24,0.357 -0.504,0.567c-0.264,0.21 -0.468,0.495 -0.612,0.855c0.492,0.012 0.894,0.204 1.206,0.576c0.18,0.228 0.27,0.498 0.27,0.81c0,0.228 -0.042,0.474 -0.126,0.738c-0.216,0.624 -0.708,0.936 -1.476,0.936Zm3.294,-0.18l-0.234,-0.018c-0.852,-0.168 -1.278,-0.672 -1.278,-1.512c0,-0.096 0.015,-0.318 0.045,-0.666c0.03,-0.348 0.156,-0.774 0.378,-1.278c0.222,-0.504 0.555,-0.966 0.999,-1.386c0.12,-0.072 0.264,-0.108 0.432,-0.108c0.216,-0 0.378,0.12 0.486,0.36l0,0.306c-0.288,0.264 -0.63,0.744 -1.026,1.44l0.306,-0.018c0.648,-0 1.122,0.216 1.422,0.648c0.132,0.204 0.198,0.432 0.198,0.684c0,0.096 -0.027,0.264 -0.081,0.504c-0.054,0.24 -0.249,0.48 -0.585,0.72c-0.288,0.216 -0.642,0.324 -1.062,0.324Z" style="fill-rule:nonzero;"/><path d="M206.824,490.585l-0.09,-0l-0.324,-0.18c-0.12,-0.12 -0.18,-0.318 -0.18,-0.594l0.216,-0.378c0.636,-0.492 1.098,-0.972 1.386,-1.44c-0.3,-0.216 -0.606,-0.408 -0.918,-0.576c-0.12,-0.144 -0.18,-0.354 -0.18,-0.63l0.18,-0.36c0.132,-0.108 0.3,-0.162 0.504,-0.162c0.24,-0 0.618,0.18 1.134,0.54l0.432,-1.044c-0.612,0.048 -0.966,0.072 -1.062,0.072c-0.492,-0 -0.771,-0.102 -0.837,-0.306c-0.066,-0.204 -0.219,-2.172 -0.459,-5.904c0,-0.468 0.165,-0.738 0.495,-0.81c0.33,-0.072 0.774,-0.123 1.332,-0.153c0.558,-0.03 1.113,-0.081 1.665,-0.153l0.018,-1.818c-1.128,0.024 -2.112,0.102 -2.952,0.234c-0.432,-0.06 -0.648,-0.294 -0.648,-0.702l0,-0.126l0.162,-0.324c0.504,-0.156 1.032,-0.252 1.584,-0.288c0.552,-0.036 2.322,-0.102 5.31,-0.198c0.252,-0 0.468,0.084 0.648,0.252c0.108,0.132 0.162,0.294 0.162,0.486c0,0.06 -0.054,0.216 -0.162,0.468c-0.168,0.12 -0.354,0.18 -0.558,0.18l-0.162,-0.018l-2.034,0.036l-0.036,1.782l2.502,-0c0.348,-0 0.522,0.228 0.522,0.684c-0.048,3.828 -0.114,5.862 -0.198,6.102c-0.084,0.24 -0.372,0.366 -0.864,0.378l-2.97,0.072c-0.084,0.348 -0.201,0.672 -0.351,0.972c-0.15,0.3 -0.297,0.606 -0.441,0.918c1.596,0.684 3.168,1.266 4.716,1.746c0.12,0.12 0.18,0.318 0.18,0.594l-0.18,0.342c-0.156,0.108 -0.366,0.162 -0.63,0.162c-0.816,-0.168 -1.623,-0.405 -2.421,-0.711c-0.798,-0.306 -1.587,-0.621 -2.367,-0.945c-0.384,0.516 -0.852,1.014 -1.404,1.494c-0.192,0.204 -0.432,0.306 -0.72,0.306Zm-4.968,-4.158c-0.228,-0.012 -0.39,-0.204 -0.486,-0.576c-0.096,-0.372 -0.228,-1.542 -0.396,-3.51l-0.918,1.674c-0.144,0.12 -0.348,0.18 -0.612,0.18l-0.342,-0.18c-0.108,-0.168 -0.174,-0.354 -0.198,-0.558c0.432,-0.972 0.885,-1.935 1.359,-2.889c0.474,-0.954 0.891,-1.935 1.251,-2.943c-0.612,0.048 -1.17,0.108 -1.674,0.18l-0.324,-0.18c-0.12,-0.144 -0.18,-0.354 -0.18,-0.63l0.18,-0.342c0.612,-0.204 1.266,-0.318 1.962,-0.342c0.696,-0.024 1.986,-0.06 3.87,-0.108l0.342,0.18c0.108,0.132 0.162,0.3 0.162,0.504c0,0.06 -0.054,0.21 -0.162,0.45c-0.168,0.108 -0.342,0.174 -0.522,0.198l-2.178,0.036c-0.108,0.36 -0.231,0.696 -0.369,1.008c-0.138,0.312 -0.267,0.63 -0.387,0.954l3.078,-0.072c0.324,0.048 0.507,0.207 0.549,0.477c0.042,0.27 0.063,1.233 0.063,2.889c0,1.668 -0.012,2.61 -0.036,2.826c-0.024,0.216 -0.21,0.36 -0.558,0.432c-0.348,0.072 -0.852,0.129 -1.512,0.171c-0.66,0.042 -1.314,0.099 -1.962,0.171Zm0.702,-1.404l1.998,-0.162l-0.072,-4.086l-2.286,0.072l0.36,4.176Zm5.706,-0.54l1.17,-0.036l0.36,-1.494l-1.674,0.072l0.144,1.458Zm2.592,-0.18l2.124,-0.036l0.108,-1.386l-1.944,-0c-0.072,0.504 -0.168,0.978 -0.288,1.422Zm-0.918,-2.7l0.144,-1.782l-2.106,0.216l0.036,1.566l1.926,-0Zm3.222,-0.036l0,-1.782l-1.746,-0l-0.144,1.782l1.89,-0Z" style="fill-rule:nonzero;"/><path d="M220.846,479.227c-0.168,-0.072 -0.288,-0.186 -0.36,-0.342l0,-0.324c0.072,-0.168 0.249,-0.306 0.531,-0.414c0.282,-0.108 0.597,-0.282 0.945,-0.522c-0.372,-0.132 -0.702,-0.36 -0.99,-0.684c-0.252,-0.264 -0.378,-0.576 -0.378,-0.936c0,-0.072 0.018,-0.24 0.054,-0.504c0.036,-0.264 0.228,-0.516 0.576,-0.756c0.288,-0.192 0.6,-0.288 0.936,-0.288c0.072,-0 0.228,0.018 0.468,0.054c0.24,0.036 0.516,0.24 0.828,0.612c0.24,0.288 0.36,0.606 0.36,0.954c0,0.108 -0.033,0.306 -0.099,0.594c-0.066,0.288 -0.165,0.561 -0.297,0.819c-0.132,0.258 -0.333,0.507 -0.603,0.747c-0.27,0.24 -0.567,0.453 -0.891,0.639c-0.324,0.186 -0.684,0.303 -1.08,0.351Zm-3.294,-0.252l-0.396,-0.198c-0.06,-0.132 -0.09,-0.276 -0.09,-0.432l0,-0.126l1.368,-0.702c-0.336,-0.084 -0.618,-0.288 -0.846,-0.612c-0.228,-0.324 -0.342,-0.678 -0.342,-1.062c0,-0.012 0.003,-0.126 0.009,-0.342c0.006,-0.216 0.189,-0.45 0.549,-0.702c0.252,-0.18 0.528,-0.27 0.828,-0.27c0.516,-0 0.93,0.18 1.242,0.54c0.264,0.324 0.396,0.708 0.396,1.152c0,0.216 -0.036,0.48 -0.108,0.792c-0.072,0.312 -0.279,0.624 -0.621,0.936c-0.342,0.312 -0.666,0.558 -0.972,0.738c-0.306,0.18 -0.645,0.276 -1.017,0.288Z" style="fill-rule:nonzero;"/><path d="M248.926,490.477c-0.252,-0 -0.528,-0.156 -0.828,-0.468c-0.528,-0.528 -0.984,-0.96 -1.368,-1.296c-0.228,-0.192 -0.342,-0.462 -0.342,-0.81l0.18,-0.36c0.144,-0.12 0.36,-0.18 0.648,-0.18c0.312,0.168 0.762,0.558 1.35,1.17c0.204,-1.512 0.378,-3.09 0.522,-4.734c0.144,-1.644 0.282,-3.18 0.414,-4.608l-5.184,-0.036c-0.072,0.516 -0.177,0.963 -0.315,1.341c-0.138,0.378 -0.315,0.801 -0.531,1.269c-0.144,0.12 -0.354,0.18 -0.63,0.18l-0.342,-0.18c-0.132,-0.144 -0.198,-0.318 -0.198,-0.522l0.018,-0.18c0.372,-0.828 0.636,-1.788 0.792,-2.88c0.156,-1.092 0.396,-2.166 0.72,-3.222c0.144,-0.12 0.354,-0.18 0.63,-0.18l0.36,0.18c0.12,0.132 0.18,0.3 0.18,0.504l-0.018,0.198c-0.168,0.6 -0.306,1.302 -0.414,2.106l5.76,0.036c0.348,-0 0.528,0.252 0.54,0.756c-0.228,2.604 -0.402,4.776 -0.522,6.516c-0.12,1.74 -0.312,3.096 -0.576,4.068c-0.252,0.888 -0.534,1.332 -0.846,1.332Zm-8.64,-3.204l-2.34,-0.018l-2.25,0.018c-0.288,-0 -0.45,-0.12 -0.486,-0.36c-0.036,-0.24 -0.096,-2.874 -0.18,-7.902c0.012,-0.552 0.216,-0.858 0.612,-0.918c0.12,-0.012 0.252,-0.018 0.396,-0.018c0.336,-0 0.75,0.036 1.242,0.108c0.132,-0.468 0.324,-0.894 0.576,-1.278c0.252,-0.384 0.474,-0.786 0.666,-1.206c0.144,-0.12 0.354,-0.18 0.63,-0.18l0.36,0.18c0.12,0.132 0.18,0.3 0.18,0.504c0,0.24 -0.15,0.6 -0.45,1.08c-0.18,0.3 -0.336,0.612 -0.468,0.936c1.284,-0 2.049,0.027 2.295,0.081c0.246,0.054 0.369,0.321 0.369,0.801l0,0.198c-0.096,4.776 -0.186,7.299 -0.27,7.569c-0.084,0.27 -0.378,0.405 -0.882,0.405Zm-3.69,-1.404l3.294,-0.036l0.036,-2.916l-3.42,0.036l0.09,2.916Zm9.846,-0.846l-0.108,-0l-0.36,-0.162l-1.368,-1.548c-0.12,-0.144 -0.18,-0.354 -0.18,-0.63l0.18,-0.36c0.144,-0.132 0.318,-0.198 0.522,-0.198c0.096,-0 0.27,0.066 0.522,0.198l1.242,1.512c0.168,0.168 0.252,0.39 0.252,0.666l-0.18,0.36c-0.144,0.108 -0.318,0.162 -0.522,0.162Zm-10.008,-3.438l3.492,-0.036l0.072,-1.926l-3.6,-0.108l0.036,2.07Z" style="fill-rule:nonzero;"/></g></g></svg>