<?xml version="1.0" encoding="UTF-8"?>
<svg width="680px" height="410px" viewBox="0 0 680 410" version="1.1" xmlns="http://www.w3.org/2000/svg" xmlns:xlink="http://www.w3.org/1999/xlink">
    <title>m2-hamori-poschange</title>
    <g id="m2-hamori-poschange" stroke="none" stroke-width="1" fill="none" fill-rule="evenodd">
        <g id="五線" transform="translate(16.000000, 234.000000)" stroke="#000000">
            <line x1="0" y1="10.5" x2="648" y2="10.5" id="horizon"></line>
            <line x1="0" y1="30.5" x2="648" y2="30.5" id="horizon"></line>
            <line x1="0" y1="50.5" x2="648" y2="50.5" id="horizon"></line>
            <line x1="0" y1="70.5" x2="648" y2="70.5" id="horizon"></line>
            <line x1="0" y1="90.5" x2="648" y2="90.5" id="horizon"></line>
        </g>
        <g id="五線" transform="translate(17.000000, 44.000000)" stroke="#000000">
            <line x1="0" y1="10.5" x2="648" y2="10.5" id="horizon"></line>
            <line x1="0" y1="30.5" x2="648" y2="30.5" id="horizon"></line>
            <line x1="0" y1="50.5" x2="648" y2="50.5" id="horizon"></line>
            <line x1="0" y1="70.5" x2="648" y2="70.5" id="horizon"></line>
            <line x1="0" y1="90.5" x2="648" y2="90.5" id="horizon"></line>
        </g>
        <line x1="-117.5" y1="189.5" x2="150.937238" y2="189" id="bar" stroke="#000000" stroke-width="2.72167481" stroke-linecap="round" stroke-linejoin="round" transform="translate(17.000000, 189.500000) rotate(90.000000) translate(-17.000000, -189.500000) "></line>
        <g id="F" transform="translate(28.000000, 246.000000)" fill="#131516" stroke="#131516" stroke-width="0.5">
            <path d="M0,67.5955531 C5.77440082,63.6965104 10.086928,60.7448987 12.8644879,58.7042782 C15.6420478,56.7000974 18.565795,54.1857614 21.562636,51.19771 C24.5594769,48.2096586 27.0812089,44.8207711 29.127832,41.067487 C30.735893,38.2980735 32.1246729,35.0913842 33.257625,31.447419 C34.390577,27.8398936 34.9753265,24.341687 35.084967,21.0256788 C35.084967,17.9283084 34.6829517,14.9766967 33.8423744,12.2072832 C33.0383439,9.40143003 31.649564,7.105732 29.6760346,5.24730978 C27.7025052,3.42532722 25.1442263,2.51433594 21.9646512,2.51433594 C18.8947166,2.51433594 16.0075162,3.13381001 13.30305,4.3363185 C10.6351306,5.57526664 8.73469491,7.54300781 7.67483653,10.3124213 C7.67483653,10.5674989 7.52864917,10.8954557 7.30936812,11.3691712 C7.3824618,11.9522056 7.67483653,12.3894814 8.22303914,12.7174383 C8.77124175,13.0453952 9.24635067,13.1911538 9.68491276,13.1911538 C9.90419381,13.1911538 10.5254901,13.0818348 11.475708,12.8631969 C12.4624726,12.644559 13.2665031,12.4988004 13.9243463,12.4988004 C15.8613288,12.4988004 17.5790303,13.1911538 19.1505445,14.5394209 C20.6855118,15.887688 21.4529954,17.5274723 21.4529954,19.4587738 C21.4529954,20.8434805 21.0509802,22.155308 20.2834965,23.3578165 C19.5160129,24.560325 18.4561545,25.5441955 17.1039214,26.2365489 C15.7516883,26.9653419 14.2532678,27.2932988 12.6452069,27.2932988 C9.7214596,27.2932988 7.23627444,26.4187472 5.18965137,24.6332043 C3.17957513,22.8112217 2.1562636,20.5155237 2.1562636,17.6367912 C2.1562636,13.9563864 3.28921566,10.7861368 5.51857293,8.08960258 C7.78447705,5.39306839 10.6351306,3.38888757 14.1436273,2.04062047 C17.6155772,0.655913723 21.1240739,0 24.7056643,0 C28.6161762,0 32.3439539,0.983870584 35.8159038,2.9880514 C39.3244005,4.95579257 42.0654135,7.68876642 44.1120366,11.077654 C46.1586597,14.5029812 47.2185181,18.1469463 47.2185181,22.0824287 C47.2185181,29.0788417 44.8795203,35.5650996 40.2015247,41.5776421 C35.5235291,47.5901846 29.7491283,52.8010547 22.8417754,57.2466921 C18.2368735,60.2711832 10.781318,64.3524241 0.511655769,69.490415 L0,67.5955531 Z M50.7635616,9.22341259 C50.7635616,7.91158515 51.2386705,6.81839561 52.1888884,5.94384398 C53.1025594,5.0328527 54.2355115,4.59557688 55.5877446,4.59557688 C56.7572435,4.59557688 57.8536487,5.105732 58.8404134,6.08960258 C59.8271781,7.03703352 60.302287,8.1666627 60.302287,9.40561085 C60.302287,10.7174383 59.7906312,11.8470675 58.8404134,12.7580588 C57.8171018,13.6326104 56.6841498,14.0698862 55.4050104,14.0698862 C54.0527773,14.0698862 52.956372,13.6326104 52.0792479,12.6487398 C51.2021237,11.7013089 50.7635616,10.5716797 50.7635616,9.22341259 Z M50.7635616,28.3177899 C50.7635616,27.0059624 51.2386705,25.8763332 52.1157947,25.0017816 C53.0294657,24.0907903 54.1624178,23.6535145 55.5877446,23.6535145 C56.7572435,23.6535145 57.8171018,24.12723 58.8404134,25.1111005 C59.7906312,26.0949711 60.302287,27.151721 60.302287,28.3177899 C60.302287,29.7389363 59.8271781,30.8685654 58.9135071,31.7795567 C57.9632892,32.690548 56.866884,33.1642635 55.5877446,33.1642635 C54.1624178,33.1642635 53.0294657,32.690548 52.1157947,31.8159964 C51.2386705,30.9414447 50.7635616,29.7753759 50.7635616,28.3177899 Z" id="Shape"></path>
        </g>
        <path d="M45.1620791,154.96278 C44.2662404,154.896201 43.4037992,154.750938 42.5904719,154.529009 C38.3745292,153.385065 35.4551952,150.207444 34.7754579,146.019036 C34.575073,144.792373 34.641868,142.871677 34.9227998,141.776154 C35.1369367,140.936859 35.6555802,139.738442 36.0740312,139.113005 C36.7793077,138.061868 37.9835821,137.067222 39.1858919,136.548715 C40.1740649,136.120997 40.7064603,136.008015 41.9519904,135.963629 C42.9401634,135.927313 43.1837686,135.943454 43.7554552,136.090734 C46.2425863,136.730293 48.2582234,138.86283 49.132452,141.784225 C49.3289078,142.443959 49.3465889,142.611415 49.350518,143.908692 C49.3544471,145.141407 49.3328369,145.397634 49.1776368,145.946404 C48.8338391,147.16298 48.2464361,148.143503 47.3073771,149.061482 C45.9321861,150.409197 44.321248,151.21823 42.1464817,151.658053 L41.2133164,151.847702 L41.8753726,152.13621 C45.4096135,153.689713 49.3230142,153.540416 52.9711994,151.716562 C56.1636071,150.122707 58.6330572,147.237628 59.4817465,144.110445 C59.6880252,143.353869 59.6998125,143.214659 59.6939188,141.776154 L59.6880252,140.246861 L58.4955381,134.331441 C57.8413401,131.077153 57.2873346,128.355495 57.2657245,128.280846 C57.2303624,128.165847 57.1478509,128.181987 56.5820581,128.418039 C52.9260146,129.945315 47.3938176,129.925139 42.3449021,128.3676 C35.4276914,126.235063 29.7815501,121.554376 26.8386413,115.513869 C25.9211925,113.627471 25.384868,111.823793 25.0882196,109.618624 C24.9546296,108.625996 24.9762398,105.997145 25.1294754,104.748289 C25.9486963,98.0662046 29.3984611,91.3659626 35.90115,83.8203724 C37.9246453,81.4719587 42.3547249,77.077762 45.3231729,74.4731211 C46.1129254,73.7811058 46.1463229,73.7367199 46.0854216,73.5127733 C45.9479025,72.9942661 45.4705148,70.4783969 45.3231729,69.491821 C44.6395065,64.8938531 44.6414711,59.5554489 45.327102,54.882832 C46.4036801,47.5430306 48.9281379,41.3754185 52.6018624,37.1143793 C53.2717769,36.3356098 54.6901882,35 54.8453883,35 C54.8945023,35 55.3247406,35.5891209 55.7981992,36.3093818 C60.1948813,42.9712907 62.5209186,48.9048684 63.1574356,55.070463 C63.3146003,56.6118617 63.27138,60.2293064 63.0749241,61.6395651 C62.4305489,66.2960417 60.9276616,70.3371693 58.3501608,74.3399637 C56.6645695,76.9607449 54.1263599,79.9386302 51.5351071,82.3394998 C50.943775,82.88827 50.3210099,83.4652858 50.1520579,83.6226537 L49.8455867,83.909144 L51.2030967,90.5851756 L52.5586421,97.2632247 L53.2305211,97.2107687 C55.1204265,97.0594534 57.116418,97.170418 58.5426875,97.5033117 C60.4424157,97.9491874 62.5798554,98.9660263 64.1790061,100.182601 C65.0709157,100.862512 66.5561219,102.381717 67.1828161,103.257329 C68.6817743,105.347497 69.6601245,107.839156 69.9331981,110.258184 C70.0687527,111.454583 69.9882058,113.782822 69.7799625,114.75124 C68.9568125,118.582543 66.5207599,122.185865 62.8097087,125.056821 C61.8922599,125.766994 60.5543955,126.624448 59.581939,127.126815 C58.9238119,127.467779 58.8668397,127.514182 58.91006,127.691725 C58.9925714,128.028654 60.0475394,133.157234 60.4424157,135.136439 C60.6486943,136.17547 60.9669528,137.89643 61.1496567,138.959672 C61.4718443,140.831947 61.4816671,140.928789 61.4384469,142.139311 C61.3598645,144.439304 60.7822843,146.23693 59.4778174,148.256485 C56.9926508,152.099894 52.5409611,154.551202 47.3486328,154.932517 C46.2524091,155.013218 45.8987886,155.019271 45.1620791,154.96278 Z M51.7453149,127.885409 C52.7217005,127.770409 53.9593724,127.504094 54.7609123,127.233744 C55.7431916,126.904886 56.9278204,126.3198 56.880671,126.186642 C56.8590608,126.128134 55.8551714,121.23157 54.6489324,115.304045 C53.4426935,109.37652 52.4368395,104.508202 52.4132648,104.483991 C52.3896901,104.459781 51.9889201,104.516272 51.5233197,104.611096 C48.1069524,105.303112 45.3035273,107.262141 44.0756782,109.816343 C43.6886602,110.62134 43.5413183,111.147918 43.4411258,112.067915 C43.2289535,114.022909 43.8576122,116.169569 45.1443981,117.87237 C45.8928949,118.864999 47.0343034,119.926223 48.0814131,120.606134 C48.4821831,120.866396 48.5588009,120.993501 48.277869,120.932975 C48.1796411,120.912799 47.8358433,120.83815 47.5136557,120.769554 C44.9813397,120.222801 42.5315352,118.79035 41.1425923,117.047197 C39.9226014,115.513869 39.3037654,113.920014 39.1269552,111.848003 C38.9010309,109.207047 39.5925556,106.660914 41.2113518,104.16522 C42.256497,102.553208 44.0599617,100.79795 45.8673556,99.6358488 C47.1757516,98.7925181 49.1599558,97.9330471 50.5115721,97.6223464 C50.7591065,97.5658553 50.961456,97.493224 50.961456,97.4629609 C50.961456,97.3762068 48.4566438,85.1237016 48.4153881,85.0066844 C48.3544868,84.8351937 44.9597296,87.6193955 42.6729834,89.7135994 C41.4117368,90.8696484 38.7281498,93.6639378 37.7537287,94.8361271 C34.8127846,98.3728703 32.9130564,101.554527 31.8502302,104.716008 C30.7815104,107.903717 30.516295,110.972392 31.0624422,113.875628 C31.726463,117.406319 34.0033864,121.10043 37.0484522,123.588054 C41.183848,126.965412 46.4508295,128.504793 51.7453149,127.885409 Z M59.5053212,124.528226 C62.3244628,122.107181 63.992373,119.353243 64.4854772,116.312814 C64.6505001,115.293957 64.6072798,113.14528 64.4049303,112.19502 C63.5798157,108.345558 61.0612516,105.373725 57.7411476,104.332676 C57.0869496,104.126887 56.9356786,104.110747 55.6469282,104.108729 C54.8296718,104.108729 54.2304815,104.138992 54.1892257,104.187413 C54.14797,104.233817 54.9907656,108.462575 56.3011262,114.771415 C57.4995069,120.547625 58.4817862,125.284803 58.4837508,125.298926 C58.491609,125.363487 58.8354067,125.103225 59.5053212,124.528226 Z M50.2836833,70.0163808 C55.959293,64.3349952 59.3127945,58.8029074 60.0121773,53.9628349 C60.169342,52.8733647 60.1673775,51.0959142 60.0062837,50.1274962 C59.6840961,48.1946952 58.8963081,46.4979462 57.5564791,44.8617233 C57.0240837,44.2120762 56.9435368,44.1777781 55.9376829,44.1797211 C54.8296718,44.1818131 53.8218533,44.7083904 52.7767081,45.8301413 C51.0439675,47.6842582 49.5960878,50.7145996 48.5293325,54.7073063 C47.0460908,60.2656221 46.5903132,67.2180563 47.4036404,71.9269888 L47.5313367,72.6714601 L48.3250184,71.9269888 C48.7611504,71.5174287 49.6412726,70.6579577 50.2836833,70.0163808 Z" id="G-Clef" fill="#000000"></path>
        <line x1="529.75" y1="189.5" x2="798.187238" y2="189" id="bar" stroke="#000000" stroke-linecap="round" stroke-linejoin="round" transform="translate(664.250000, 189.500000) rotate(90.000000) translate(-664.250000, -189.500000) "></line>
        <g id="half-note" transform="translate(168.000000, 95.000000)" fill="#0C0C0C" fill-rule="nonzero">
            <path d="M10.5862708,2.18506828 C4.75733443,5.3680549 1.65234446,11.1289109 3.56271142,15.4626696 C5.6000929,20.0867447 12.6030554,21.3914194 19.1923624,18.3763266 C25.7833859,15.3612338 29.4771053,9.15965655 27.4397238,4.53733037 C25.4023424,-0.0867447002 18.3993799,-1.39141944 11.8100728,1.62367339 C11.3981339,1.81255391 10.97418,1.97170324 10.5862708,2.18506828 Z M12.4914885,6.10608807 C12.9051439,5.88747635 13.3239485,5.72482923 13.7633501,5.52370645 C19.3811678,2.95283264 24.8067473,2.83215897 25.8743558,5.25437681 C26.9419643,7.67484576 23.2482448,11.7270326 17.6304272,14.2979064 C12.0126095,16.8687802 6.58703001,16.9894539 5.51942152,14.567236 C4.53591723,12.3356476 7.60486254,8.6717152 12.4914885,6.10608807 Z" id="half" transform="translate(15.500000, 10.000000) rotate(-180.000000) translate(-15.500000, -10.000000) "></path>
        </g>
        <g id="half-note" transform="translate(168.000000, 115.000000)" fill="#58C322">
            <path d="M10.5862708,2.18506828 C4.75733443,5.3680549 1.65234446,11.1289109 3.56271142,15.4626696 C5.6000929,20.0867447 12.6030554,21.3914194 19.1923624,18.3763266 C25.7833859,15.3612338 29.4771053,9.15965655 27.4397238,4.53733037 C25.4023424,-0.0867447002 18.3993799,-1.39141944 11.8100728,1.62367339 C11.3981339,1.81255391 10.97418,1.97170324 10.5862708,2.18506828 Z M12.4914885,6.10608807 C12.9051439,5.88747635 13.3239485,5.72482923 13.7633501,5.52370645 C19.3811678,2.95283264 24.8067473,2.83215897 25.8743558,5.25437681 C26.9419643,7.67484576 23.2482448,11.7270326 17.6304272,14.2979064 C12.0126095,16.8687802 6.58703001,16.9894539 5.51942152,14.567236 C4.53591723,12.3356476 7.60486254,8.6717152 12.4914885,6.10608807 Z" id="half" transform="translate(15.500000, 10.000000) rotate(-180.000000) translate(-15.500000, -10.000000) "></path>
        </g>
        <g id="int-down" transform="translate(184.000000, 115.000000)" fill="#58C322">
            <path d="M26.6851932,8.9538298 L28.6487248,8.9538298 L28.6487248,12.9743499 L31,12.9743499 L27.5638196,18 L24.1276392,12.9743499 L26.6851932,12.9743499 L26.6851932,8.9538298 Z M18.710172,3.99363524 C21.104172,3.99363524 22.904172,5.41563524 22.904172,7.26963524 C22.904172,8.58363524 22.004172,9.71763524 20.618172,10.1676352 C22.256172,10.5816352 23.354172,11.7696352 23.354172,13.2816352 C23.354172,15.2796352 21.392172,16.8276352 18.692172,16.8276352 C15.920172,16.8276352 13.904172,15.2256352 13.850172,12.6516352 L13.850172,12.6516352 L16.190172,12.6516352 C16.244172,14.0736352 17.288172,14.8836352 18.620172,14.8836352 C19.970172,14.8836352 20.942172,14.0736352 20.942172,12.9936352 C20.942172,11.8596352 19.862172,11.0496352 18.242172,11.0496352 L18.242172,11.0496352 L17.630172,11.0496352 L17.630172,9.46563524 L18.242172,9.46563524 C19.718172,9.46563524 20.690172,8.69163524 20.690172,7.59363524 C20.690172,6.56763524 19.808172,5.88363524 18.638172,5.88363524 C17.432172,5.88363524 16.496172,6.63963524 16.442172,8.06163524 L16.442172,8.06163524 L14.264172,8.06163524 C14.354172,5.55963524 16.136172,3.99363524 18.710172,3.99363524 Z" id="Combined-Shape"></path>
        </g>
        <line x1="410.4312" y1="56.054443" x2="410.5" y2="323.437238" id="Path-9" stroke="#1D1D1D"></line>
        <g id="whole" transform="translate(461.000000, 84.000000)" fill="#0C0C0C" fill-rule="nonzero">
            <path d="M14.986755,0 C6.15480132,0 -1,4.49813804 -1,10.0138564 C-1,15.5287088 6.15480132,20 14.986755,20 C23.8187086,20 31,15.5287088 31,10.0138564 C31,4.49813804 23.8187086,0 14.986755,0 Z M11.080298,1.81345804 C13.3774834,1.78228111 16.2069536,2.72191911 18.8675497,4.60119512 C23.5968543,7.94059063 25.9701987,12.9704685 24.1705298,15.804971 C22.3708609,18.6394735 17.0778146,18.2246471 12.3485099,14.8852516 C7.61837748,11.54499 5.24586093,6.51511215 7.04470199,3.68060968 C7.83278146,2.44046073 9.29470199,1.83770676 11.080298,1.81345804 Z"></path>
        </g>
        <g id="whole" transform="translate(461.000000, 135.000000)" fill="#3D7A1F">
            <path d="M14.986755,0 C6.15480132,0 -1,4.49813804 -1,10.0138564 C-1,15.5287088 6.15480132,20 14.986755,20 C23.8187086,20 31,15.5287088 31,10.0138564 C31,4.49813804 23.8187086,0 14.986755,0 Z M11.080298,1.81345804 C13.3774834,1.78228111 16.2069536,2.72191911 18.8675497,4.60119512 C23.5968543,7.94059063 25.9701987,12.9704685 24.1705298,15.804971 C22.3708609,18.6394735 17.0778146,18.2246471 12.3485099,14.8852516 C7.61837748,11.54499 5.24586093,6.51511215 7.04470199,3.68060968 C7.83278146,2.44046073 9.29470199,1.83770676 11.080298,1.81345804 Z"></path>
        </g>
        <g id="whole" transform="translate(168.000000, 325.000000)" fill="#0C0C0C" fill-rule="nonzero">
            <path d="M14.986755,0 C6.15480132,0 -1,4.49813804 -1,10.0138564 C-1,15.5287088 6.15480132,20 14.986755,20 C23.8187086,20 31,15.5287088 31,10.0138564 C31,4.49813804 23.8187086,0 14.986755,0 Z M11.080298,1.81345804 C13.3774834,1.78228111 16.2069536,2.72191911 18.8675497,4.60119512 C23.5968543,7.94059063 25.9701987,12.9704685 24.1705298,15.804971 C22.3708609,18.6394735 17.0778146,18.2246471 12.3485099,14.8852516 C7.61837748,11.54499 5.24586093,6.51511215 7.04470199,3.68060968 C7.83278146,2.44046073 9.29470199,1.83770676 11.080298,1.81345804 Z"></path>
        </g>
        <g id="whole" transform="translate(168.000000, 285.000000)" fill="#0C0C0C" fill-rule="nonzero">
            <path d="M14.986755,0 C6.15480132,0 -1,4.49813804 -1,10.0138564 C-1,15.5287088 6.15480132,20 14.986755,20 C23.8187086,20 31,15.5287088 31,10.0138564 C31,4.49813804 23.8187086,0 14.986755,0 Z M11.080298,1.81345804 C13.3774834,1.78228111 16.2069536,2.72191911 18.8675497,4.60119512 C23.5968543,7.94059063 25.9701987,12.9704685 24.1705298,15.804971 C22.3708609,18.6394735 17.0778146,18.2246471 12.3485099,14.8852516 C7.61837748,11.54499 5.24586093,6.51511215 7.04470199,3.68060968 C7.83278146,2.44046073 9.29470199,1.83770676 11.080298,1.81345804 Z"></path>
        </g>
        <g id="whole" transform="translate(168.000000, 305.000000)" fill="#0C0C0C" fill-rule="nonzero">
            <path d="M14.986755,0 C6.15480132,0 -1,4.49813804 -1,10.0138564 C-1,15.5287088 6.15480132,20 14.986755,20 C23.8187086,20 31,15.5287088 31,10.0138564 C31,4.49813804 23.8187086,0 14.986755,0 Z M11.080298,1.81345804 C13.3774834,1.78228111 16.2069536,2.72191911 18.8675497,4.60119512 C23.5968543,7.94059063 25.9701987,12.9704685 24.1705298,15.804971 C22.3708609,18.6394735 17.0778146,18.2246471 12.3485099,14.8852516 C7.61837748,11.54499 5.24586093,6.51511215 7.04470199,3.68060968 C7.83278146,2.44046073 9.29470199,1.83770676 11.080298,1.81345804 Z"></path>
        </g>
        <g id="whole" transform="translate(461.000000, 315.000000)" fill="#0C0C0C" fill-rule="nonzero">
            <path d="M14.986755,0 C6.15480132,0 -1,4.49813804 -1,10.0138564 C-1,15.5287088 6.15480132,20 14.986755,20 C23.8187086,20 31,15.5287088 31,10.0138564 C31,4.49813804 23.8187086,0 14.986755,0 Z M11.080298,1.81345804 C13.3774834,1.78228111 16.2069536,2.72191911 18.8675497,4.60119512 C23.5968543,7.94059063 25.9701987,12.9704685 24.1705298,15.804971 C22.3708609,18.6394735 17.0778146,18.2246471 12.3485099,14.8852516 C7.61837748,11.54499 5.24586093,6.51511215 7.04470199,3.68060968 C7.83278146,2.44046073 9.29470199,1.83770676 11.080298,1.81345804 Z"></path>
        </g>
        <g id="whole" transform="translate(461.000000, 275.000000)" fill="#0C0C0C" fill-rule="nonzero">
            <path d="M14.986755,0 C6.15480132,0 -1,4.49813804 -1,10.0138564 C-1,15.5287088 6.15480132,20 14.986755,20 C23.8187086,20 31,15.5287088 31,10.0138564 C31,4.49813804 23.8187086,0 14.986755,0 Z M11.080298,1.81345804 C13.3774834,1.78228111 16.2069536,2.72191911 18.8675497,4.60119512 C23.5968543,7.94059063 25.9701987,12.9704685 24.1705298,15.804971 C22.3708609,18.6394735 17.0778146,18.2246471 12.3485099,14.8852516 C7.61837748,11.54499 5.24586093,6.51511215 7.04470199,3.68060968 C7.83278146,2.44046073 9.29470199,1.83770676 11.080298,1.81345804 Z"></path>
        </g>
        <g id="whole" transform="translate(461.000000, 295.000000)" fill="#0C0C0C" fill-rule="nonzero">
            <path d="M14.986755,0 C6.15480132,0 -1,4.49813804 -1,10.0138564 C-1,15.5287088 6.15480132,20 14.986755,20 C23.8187086,20 31,15.5287088 31,10.0138564 C31,4.49813804 23.8187086,0 14.986755,0 Z M11.080298,1.81345804 C13.3774834,1.78228111 16.2069536,2.72191911 18.8675497,4.60119512 C23.5968543,7.94059063 25.9701987,12.9704685 24.1705298,15.804971 C22.3708609,18.6394735 17.0778146,18.2246471 12.3485099,14.8852516 C7.61837748,11.54499 5.24586093,6.51511215 7.04470199,3.68060968 C7.83278146,2.44046073 9.29470199,1.83770676 11.080298,1.81345804 Z"></path>
        </g>
        <g id="Note" transform="translate(277.000000, 74.000000)" fill="#0C0C0C" fill-rule="nonzero">
            <path d="M9.19317249,2.29432169 C2.89792118,5.63645765 -0.455467984,11.6853565 1.60772834,16.2358031 C3.80810033,21.0910819 11.3712998,22.4609904 18.4877514,19.2951429 C25.6060568,16.1292955 29.5952737,9.61763938 27.3949018,4.76419689 C25.1945298,-0.0910819352 17.6313303,-1.46099041 10.5148787,1.70485706 C10.0699846,1.90318161 9.61211442,2.07028841 9.19317249,2.29432169 Z" id="note" transform="translate(14.500000, 10.500000) rotate(-180.000000) translate(-14.500000, -10.500000) "></path>
        </g>
        <g id="Note" transform="translate(277.000000, 104.000000)" fill="#FFBF00">
            <path d="M9.19317249,2.29432169 C2.89792118,5.63645765 -0.455467984,11.6853565 1.60772834,16.2358031 C3.80810033,21.0910819 11.3712998,22.4609904 18.4877514,19.2951429 C25.6060568,16.1292955 29.5952737,9.61763938 27.3949018,4.76419689 C25.1945298,-0.0910819352 17.6313303,-1.46099041 10.5148787,1.70485706 C10.0699846,1.90318161 9.61211442,2.07028841 9.19317249,2.29432169 Z" id="note" transform="translate(14.500000, 10.500000) rotate(-180.000000) translate(-14.500000, -10.500000) "></path>
        </g>
        <g id="int-down" transform="translate(291.000000, 114.000000)" fill="#FFBF00">
            <path d="M26.6851932,8.9538298 L28.6487248,8.9538298 L28.6487248,12.9743499 L31,12.9743499 L27.5638196,18 L24.1276392,12.9743499 L26.6851932,12.9743499 L26.6851932,8.9538298 Z M21.446172,4.17363524 L21.446172,12.0036352 L23.534172,12.0036352 L23.534172,13.9476352 L21.446172,13.9476352 L21.446172,16.6656352 L19.088172,16.6656352 L19.088172,13.9476352 L13.112172,13.9476352 L13.112172,12.2196352 L18.620172,4.17363524 L21.446172,4.17363524 Z M19.106172,6.69363524 L15.380172,12.0036352 L19.088172,12.0036352 L19.106172,6.69363524 Z" id="Combined-Shape"></path>
        </g>
        <g id="Note" transform="translate(337.000000, 64.000000)" fill="#0C0C0C" fill-rule="nonzero">
            <path d="M9.19317249,2.29432169 C2.89792118,5.63645765 -0.455467984,11.6853565 1.60772834,16.2358031 C3.80810033,21.0910819 11.3712998,22.4609904 18.4877514,19.2951429 C25.6060568,16.1292955 29.5952737,9.61763938 27.3949018,4.76419689 C25.1945298,-0.0910819352 17.6313303,-1.46099041 10.5148787,1.70485706 C10.0699846,1.90318161 9.61211442,2.07028841 9.19317249,2.29432169 Z" id="note" transform="translate(14.500000, 10.500000) rotate(-180.000000) translate(-14.500000, -10.500000) "></path>
        </g>
        <rect id="Rectangle" fill="#0C0C0C" x="195" y="45" width="2" height="60"></rect>
        <rect id="Rectangle" fill="#58C322" x="171" y="126" width="2" height="50"></rect>
        <rect id="Rectangle" fill="#FFBF00" x="278" y="116" width="2" height="50"></rect>
        <g id="Note" transform="translate(337.000000, 124.000000)" fill="#FF5500">
            <path d="M9.19317249,2.29432169 C2.89792118,5.63645765 -0.455467984,11.6853565 1.60772834,16.2358031 C3.80810033,21.0910819 11.3712998,22.4609904 18.4877514,19.2951429 C25.6060568,16.1292955 29.5952737,9.61763938 27.3949018,4.76419689 C25.1945298,-0.0910819352 17.6313303,-1.46099041 10.5148787,1.70485706 C10.0699846,1.90318161 9.61211442,2.07028841 9.19317249,2.29432169 Z" id="note" transform="translate(14.500000, 10.500000) rotate(-180.000000) translate(-14.500000, -10.500000) "></path>
        </g>
        <g id="int-down" transform="translate(351.000000, 134.000000)" fill="#FF5500">
            <path d="M26.6851932,8.9538298 L28.6487248,8.9538298 L28.6487248,12.9743499 L31,12.9743499 L27.5638196,18 L24.1276392,12.9743499 L26.6851932,12.9743499 L26.6851932,8.9538298 Z M23.336172,4.17363524 L23.336172,5.90163524 L18.278172,16.6656352 L15.902172,16.6656352 L20.924172,6.13563524 L14.390172,6.13563524 L14.390172,4.17363524 L23.336172,4.17363524 Z" id="Combined-Shape"></path>
        </g>
        <g id="int-down" transform="translate(481.000000, 139.000000)" fill="#3D7A1F">
            <path d="M26.6851932,8.9538298 L28.6487248,8.9538298 L28.6487248,12.9743499 L31,12.9743499 L27.5638196,18 L24.1276392,12.9743499 L26.6851932,12.9743499 L26.6851932,8.9538298 Z M21.158172,4.17363524 L18.044172,8.43963524 C18.440172,8.31363524 18.872172,8.24163524 19.340172,8.24163524 C21.608172,8.24163524 23.390172,9.95163524 23.390172,12.3276352 C23.390172,14.9556352 21.356172,16.8276352 18.548172,16.8276352 C15.758172,16.8276352 13.724172,14.9556352 13.724172,12.3816352 C13.724172,11.3916352 14.048172,10.5276352 14.552172,9.78963524 L14.552172,9.78963524 L18.368172,4.17363524 L21.158172,4.17363524 Z M18.548172,9.95163524 C17.144172,9.95163524 16.136172,10.9596352 16.136172,12.3816352 C16.136172,13.8036352 17.162172,14.8116352 18.548172,14.8116352 C19.952172,14.8116352 20.978172,13.8036352 20.978172,12.3816352 C20.978172,10.9596352 19.970172,9.95163524 18.548172,9.95163524 Z" id="Combined-Shape"></path>
        </g>
        <rect id="Rectangle" fill="#FF6633" x="338" y="136" width="2" height="50"></rect>
        <rect id="Rectangle" fill="#0C0C0C" x="302" y="25" width="2" height="60"></rect>
        <rect id="Rectangle" fill="#0C0C0C" x="362" y="15" width="2" height="60"></rect>
        <g id="CN-Root" transform="translate(159.000000, 354.000000)" fill="#0C0C0C" fill-rule="nonzero">
            <path d="M16.2786459,30.0879121 L16.2786459,28.2679121 L14.3806459,28.2679121 L14.3806459,14.3839121 L16.2786459,14.3839121 L16.2786459,12.5639121 L9.80464594,12.5639121 L9.80464594,14.3839121 L11.7026459,14.3839121 L11.7026459,28.2679121 L9.80464594,28.2679121 L9.80464594,30.0879121 L16.2786459,30.0879121 Z M26.6535425,30.0879121 L32.3735425,14.3839121 L33.8555425,14.3839121 L33.8555425,12.5639121 L27.2255425,12.5639121 L27.2255425,14.3839121 L29.7995425,14.3839121 L25.4055425,26.6819121 L25.1715425,27.7479121 L25.0155425,27.7479121 L24.7815425,26.6819121 L20.4655425,14.3839121 L23.0395425,14.3839121 L23.0395425,12.5639121 L16.1755425,12.5639121 L16.1755425,14.3839121 L17.6315425,14.3839121 L23.2215425,30.0879121 L26.6535425,30.0879121 Z" id="Combined-Shape"></path>
        </g>
        <g id="CN-Root" transform="translate(454.000000, 354.000000)" fill="#0C0C0C" fill-rule="nonzero">
            <path d="M23.1430942,30.0879121 L28.8630942,14.3839121 L30.3450942,14.3839121 L30.3450942,12.5639121 L23.7150942,12.5639121 L23.7150942,14.3839121 L26.2890942,14.3839121 L21.8950942,26.6819121 L21.6610942,27.7479121 L21.5050942,27.7479121 L21.2710942,26.6819121 L16.9550942,14.3839121 L19.5290942,14.3839121 L19.5290942,12.5639121 L12.6650942,12.5639121 L12.6650942,14.3839121 L14.1210942,14.3839121 L19.7110942,30.0879121 L23.1430942,30.0879121 Z" id="Combined-Shape"></path>
        </g>
    </g>
</svg>