<?xml version="1.0" encoding="UTF-8"?>
<svg width="1300px" height="340px" viewBox="0 0 1300 340" version="1.1" xmlns="http://www.w3.org/2000/svg" xmlns:xlink="http://www.w3.org/1999/xlink">
    <title>M2-hamori-pittari</title>
    <g id="M2-hamori-pittari" stroke="none" stroke-width="1" fill="none" fill-rule="evenodd">
        <g id="五線" transform="translate(16.000000, 211.000000)" stroke="#000000">
            <line x1="0" y1="10.5" x2="1260" y2="10.5" id="horizon"></line>
            <line x1="0" y1="30.5" x2="1260" y2="30.5" id="horizon"></line>
            <line x1="0" y1="50.5" x2="1260" y2="50.5" id="horizon"></line>
            <line x1="0" y1="70.5" x2="1260" y2="70.5" id="horizon"></line>
            <line x1="0" y1="90.5" x2="1260" y2="90.5" id="horizon"></line>
        </g>
        <g id="五線" transform="translate(17.000000, 51.000000)" stroke="#000000">
            <line x1="0" y1="10.5" x2="1260" y2="10.5" id="horizon"></line>
            <line x1="0" y1="30.5" x2="1260" y2="30.5" id="horizon"></line>
            <line x1="0" y1="50.5" x2="1260" y2="50.5" id="horizon"></line>
            <line x1="0" y1="70.5" x2="1260" y2="70.5" id="horizon"></line>
            <line x1="0" y1="90.5" x2="1260" y2="90.5" id="horizon"></line>
        </g>
        <line x1="-102.5" y1="181.5" x2="136" y2="181" id="bar" stroke="#000000" stroke-width="2.72167481" stroke-linecap="round" stroke-linejoin="round" transform="translate(17.000000, 181.500000) rotate(90.000000) translate(-17.000000, -181.500000) "></line>
        <g id="F" transform="translate(28.000000, 223.000000)" fill="#131516" stroke="#131516" stroke-width="0.5">
            <path d="M0,67.5955531 C5.77440082,63.6965104 10.086928,60.7448987 12.8644879,58.7042782 C15.6420478,56.7000974 18.565795,54.1857614 21.562636,51.19771 C24.5594769,48.2096586 27.0812089,44.8207711 29.127832,41.067487 C30.735893,38.2980735 32.1246729,35.0913842 33.257625,31.447419 C34.390577,27.8398936 34.9753265,24.341687 35.084967,21.0256788 C35.084967,17.9283084 34.6829517,14.9766967 33.8423744,12.2072832 C33.0383439,9.40143003 31.649564,7.105732 29.6760346,5.24730978 C27.7025052,3.42532722 25.1442263,2.51433594 21.9646512,2.51433594 C18.8947166,2.51433594 16.0075162,3.13381001 13.30305,4.3363185 C10.6351306,5.57526664 8.73469491,7.54300781 7.67483653,10.3124213 C7.67483653,10.5674989 7.52864917,10.8954557 7.30936812,11.3691712 C7.3824618,11.9522056 7.67483653,12.3894814 8.22303914,12.7174383 C8.77124175,13.0453952 9.24635067,13.1911538 9.68491276,13.1911538 C9.90419381,13.1911538 10.5254901,13.0818348 11.475708,12.8631969 C12.4624726,12.644559 13.2665031,12.4988004 13.9243463,12.4988004 C15.8613288,12.4988004 17.5790303,13.1911538 19.1505445,14.5394209 C20.6855118,15.887688 21.4529954,17.5274723 21.4529954,19.4587738 C21.4529954,20.8434805 21.0509802,22.155308 20.2834965,23.3578165 C19.5160129,24.560325 18.4561545,25.5441955 17.1039214,26.2365489 C15.7516883,26.9653419 14.2532678,27.2932988 12.6452069,27.2932988 C9.7214596,27.2932988 7.23627444,26.4187472 5.18965137,24.6332043 C3.17957513,22.8112217 2.1562636,20.5155237 2.1562636,17.6367912 C2.1562636,13.9563864 3.28921566,10.7861368 5.51857293,8.08960258 C7.78447705,5.39306839 10.6351306,3.38888757 14.1436273,2.04062047 C17.6155772,0.655913723 21.1240739,0 24.7056643,0 C28.6161762,0 32.3439539,0.983870584 35.8159038,2.9880514 C39.3244005,4.95579257 42.0654135,7.68876642 44.1120366,11.077654 C46.1586597,14.5029812 47.2185181,18.1469463 47.2185181,22.0824287 C47.2185181,29.0788417 44.8795203,35.5650996 40.2015247,41.5776421 C35.5235291,47.5901846 29.7491283,52.8010547 22.8417754,57.2466921 C18.2368735,60.2711832 10.781318,64.3524241 0.511655769,69.490415 L0,67.5955531 Z M50.7635616,9.22341259 C50.7635616,7.91158515 51.2386705,6.81839561 52.1888884,5.94384398 C53.1025594,5.0328527 54.2355115,4.59557688 55.5877446,4.59557688 C56.7572435,4.59557688 57.8536487,5.105732 58.8404134,6.08960258 C59.8271781,7.03703352 60.302287,8.1666627 60.302287,9.40561085 C60.302287,10.7174383 59.7906312,11.8470675 58.8404134,12.7580588 C57.8171018,13.6326104 56.6841498,14.0698862 55.4050104,14.0698862 C54.0527773,14.0698862 52.956372,13.6326104 52.0792479,12.6487398 C51.2021237,11.7013089 50.7635616,10.5716797 50.7635616,9.22341259 Z M50.7635616,28.3177899 C50.7635616,27.0059624 51.2386705,25.8763332 52.1157947,25.0017816 C53.0294657,24.0907903 54.1624178,23.6535145 55.5877446,23.6535145 C56.7572435,23.6535145 57.8171018,24.12723 58.8404134,25.1111005 C59.7906312,26.0949711 60.302287,27.151721 60.302287,28.3177899 C60.302287,29.7389363 59.8271781,30.8685654 58.9135071,31.7795567 C57.9632892,32.690548 56.866884,33.1642635 55.5877446,33.1642635 C54.1624178,33.1642635 53.0294657,32.690548 52.1157947,31.8159964 C51.2386705,30.9414447 50.7635616,29.7753759 50.7635616,28.3177899 Z" id="Shape"></path>
        </g>
        <path d="M45.1620791,161.96278 C44.2662404,161.896201 43.4037992,161.750938 42.5904719,161.529009 C38.3745292,160.385065 35.4551952,157.207444 34.7754579,153.019036 C34.575073,151.792373 34.641868,149.871677 34.9227998,148.776154 C35.1369367,147.936859 35.6555802,146.738442 36.0740312,146.113005 C36.7793077,145.061868 37.9835821,144.067222 39.1858919,143.548715 C40.1740649,143.120997 40.7064603,143.008015 41.9519904,142.963629 C42.9401634,142.927313 43.1837686,142.943454 43.7554552,143.090734 C46.2425863,143.730293 48.2582234,145.86283 49.132452,148.784225 C49.3289078,149.443959 49.3465889,149.611415 49.350518,150.908692 C49.3544471,152.141407 49.3328369,152.397634 49.1776368,152.946404 C48.8338391,154.16298 48.2464361,155.143503 47.3073771,156.061482 C45.9321861,157.409197 44.321248,158.21823 42.1464817,158.658053 L41.2133164,158.847702 L41.8753726,159.13621 C45.4096135,160.689713 49.3230142,160.540416 52.9711994,158.716562 C56.1636071,157.122707 58.6330572,154.237628 59.4817465,151.110445 C59.6880252,150.353869 59.6998125,150.214659 59.6939188,148.776154 L59.6880252,147.246861 L58.4955381,141.331441 C57.8413401,138.077153 57.2873346,135.355495 57.2657245,135.280846 C57.2303624,135.165847 57.1478509,135.181987 56.5820581,135.418039 C52.9260146,136.945315 47.3938176,136.925139 42.3449021,135.3676 C35.4276914,133.235063 29.7815501,128.554376 26.8386413,122.513869 C25.9211925,120.627471 25.384868,118.823793 25.0882196,116.618624 C24.9546296,115.625996 24.9762398,112.997145 25.1294754,111.748289 C25.9486963,105.066205 29.3984611,98.3659626 35.90115,90.8203724 C37.9246453,88.4719587 42.3547249,84.077762 45.3231729,81.4731211 C46.1129254,80.7811058 46.1463229,80.7367199 46.0854216,80.5127733 C45.9479025,79.9942661 45.4705148,77.4783969 45.3231729,76.491821 C44.6395065,71.8938531 44.6414711,66.5554489 45.327102,61.882832 C46.4036801,54.5430306 48.9281379,48.3754185 52.6018624,44.1143793 C53.2717769,43.3356098 54.6901882,42 54.8453883,42 C54.8945023,42 55.3247406,42.5891209 55.7981992,43.3093818 C60.1948813,49.9712907 62.5209186,55.9048684 63.1574356,62.070463 C63.3146003,63.6118617 63.27138,67.2293064 63.0749241,68.6395651 C62.4305489,73.2960417 60.9276616,77.3371693 58.3501608,81.3399637 C56.6645695,83.9607449 54.1263599,86.9386302 51.5351071,89.3394998 C50.943775,89.88827 50.3210099,90.4652858 50.1520579,90.6226537 L49.8455867,90.909144 L51.2030967,97.5851756 L52.5586421,104.263225 L53.2305211,104.210769 C55.1204265,104.059453 57.116418,104.170418 58.5426875,104.503312 C60.4424157,104.949187 62.5798554,105.966026 64.1790061,107.182601 C65.0709157,107.862512 66.5561219,109.381717 67.1828161,110.257329 C68.6817743,112.347497 69.6601245,114.839156 69.9331981,117.258184 C70.0687527,118.454583 69.9882058,120.782822 69.7799625,121.75124 C68.9568125,125.582543 66.5207599,129.185865 62.8097087,132.056821 C61.8922599,132.766994 60.5543955,133.624448 59.581939,134.126815 C58.9238119,134.467779 58.8668397,134.514182 58.91006,134.691725 C58.9925714,135.028654 60.0475394,140.157234 60.4424157,142.136439 C60.6486943,143.17547 60.9669528,144.89643 61.1496567,145.959672 C61.4718443,147.831947 61.4816671,147.928789 61.4384469,149.139311 C61.3598645,151.439304 60.7822843,153.23693 59.4778174,155.256485 C56.9926508,159.099894 52.5409611,161.551202 47.3486328,161.932517 C46.2524091,162.013218 45.8987886,162.019271 45.1620791,161.96278 Z M51.7453149,134.885409 C52.7217005,134.770409 53.9593724,134.504094 54.7609123,134.233744 C55.7431916,133.904886 56.9278204,133.3198 56.880671,133.186642 C56.8590608,133.128134 55.8551714,128.23157 54.6489324,122.304045 C53.4426935,116.37652 52.4368395,111.508202 52.4132648,111.483991 C52.3896901,111.459781 51.9889201,111.516272 51.5233197,111.611096 C48.1069524,112.303112 45.3035273,114.262141 44.0756782,116.816343 C43.6886602,117.62134 43.5413183,118.147918 43.4411258,119.067915 C43.2289535,121.022909 43.8576122,123.169569 45.1443981,124.87237 C45.8928949,125.864999 47.0343034,126.926223 48.0814131,127.606134 C48.4821831,127.866396 48.5588009,127.993501 48.277869,127.932975 C48.1796411,127.912799 47.8358433,127.83815 47.5136557,127.769554 C44.9813397,127.222801 42.5315352,125.79035 41.1425923,124.047197 C39.9226014,122.513869 39.3037654,120.920014 39.1269552,118.848003 C38.9010309,116.207047 39.5925556,113.660914 41.2113518,111.16522 C42.256497,109.553208 44.0599617,107.79795 45.8673556,106.635849 C47.1757516,105.792518 49.1599558,104.933047 50.5115721,104.622346 C50.7591065,104.565855 50.961456,104.493224 50.961456,104.462961 C50.961456,104.376207 48.4566438,92.1237016 48.4153881,92.0066844 C48.3544868,91.8351937 44.9597296,94.6193955 42.6729834,96.7135994 C41.4117368,97.8696484 38.7281498,100.663938 37.7537287,101.836127 C34.8127846,105.37287 32.9130564,108.554527 31.8502302,111.716008 C30.7815104,114.903717 30.516295,117.972392 31.0624422,120.875628 C31.726463,124.406319 34.0033864,128.10043 37.0484522,130.588054 C41.183848,133.965412 46.4508295,135.504793 51.7453149,134.885409 Z M59.5053212,131.528226 C62.3244628,129.107181 63.992373,126.353243 64.4854772,123.312814 C64.6505001,122.293957 64.6072798,120.14528 64.4049303,119.19502 C63.5798157,115.345558 61.0612516,112.373725 57.7411476,111.332676 C57.0869496,111.126887 56.9356786,111.110747 55.6469282,111.108729 C54.8296718,111.108729 54.2304815,111.138992 54.1892257,111.187413 C54.14797,111.233817 54.9907656,115.462575 56.3011262,121.771415 C57.4995069,127.547625 58.4817862,132.284803 58.4837508,132.298926 C58.491609,132.363487 58.8354067,132.103225 59.5053212,131.528226 Z M50.2836833,77.0163808 C55.959293,71.3349952 59.3127945,65.8029074 60.0121773,60.9628349 C60.169342,59.8733647 60.1673775,58.0959142 60.0062837,57.1274962 C59.6840961,55.1946952 58.8963081,53.4979462 57.5564791,51.8617233 C57.0240837,51.2120762 56.9435368,51.1777781 55.9376829,51.1797211 C54.8296718,51.1818131 53.8218533,51.7083904 52.7767081,52.8301413 C51.0439675,54.6842582 49.5960878,57.7145996 48.5293325,61.7073063 C47.0460908,67.2656221 46.5903132,74.2180563 47.4036404,78.9269888 L47.5313367,79.6714601 L48.3250184,78.9269888 C48.7611504,78.5174287 49.6412726,77.6579577 50.2836833,77.0163808 Z" id="G-Clef" fill="#000000"></path>
        <path d="M203.642579,56.7048253 C210.707056,53.5390368 218.215019,54.9089198 220.399321,59.764108 C222.583623,64.61746 218.623541,71.1289946 211.557223,74.294783 C205.392602,77.0573205 198.890281,76.366082 195.882386,72.9190097 L195.882937,132 L194,132 L194,69.001827 L194.22429,69.0020667 C193.867394,64.8558297 197.060558,60.1126251 202.330525,57.2942789 C202.746408,57.0702498 203.200934,56.9031461 203.642579,56.7048253 Z" id="quarter" fill="#000000" transform="translate(207.500000, 93.500000) rotate(-180.000000) translate(-207.500000, -93.500000) "></path>
        <path d="M253.642579,46.7048253 C260.707056,43.5390368 268.215019,44.9089198 270.399321,49.764108 C272.583623,54.61746 268.623541,61.1289946 261.557223,64.294783 C255.392602,67.0573205 248.890281,66.366082 245.882386,62.9190097 L245.882937,122 L244,122 L244,59.001827 L244.22429,59.0020667 C243.867394,54.8558297 247.060558,50.1126251 252.330525,47.2942789 C252.746408,47.0702498 253.200934,46.9031461 253.642579,46.7048253 Z" id="quarter" fill="#000000" transform="translate(257.500000, 83.500000) rotate(-180.000000) translate(-257.500000, -83.500000) "></path>
        <path d="M303.642579,36.7048253 C310.707056,33.5390368 318.215019,34.9089198 320.399321,39.764108 C322.583623,44.61746 318.623541,51.1289946 311.557223,54.294783 C305.392602,57.0573205 298.890281,56.366082 295.882386,52.9190097 L295.882937,112 L294,112 L294,49.001827 L294.22429,49.0020667 C293.867394,44.8558297 297.060558,40.1126251 302.330525,37.2942789 C302.746408,37.0702498 303.200934,36.9031461 303.642579,36.7048253 Z" id="quarter" fill="#000000" transform="translate(307.500000, 73.500000) rotate(-180.000000) translate(-307.500000, -73.500000) "></path>
        <path d="M353.642579,26.7048253 C360.707056,23.5390368 368.215019,24.9089198 370.399321,29.764108 C372.583623,34.61746 368.623541,41.1289946 361.557223,44.294783 C355.392602,47.0573205 348.890281,46.366082 345.882386,42.9190097 L345.882937,102 L344,102 L344,39.001827 L344.22429,39.0020667 C343.867394,34.8558297 347.060558,30.1126251 352.330525,27.2942789 C352.746408,27.0702498 353.200934,26.9031461 353.642579,26.7048253 Z" id="quarter" fill="#000000" transform="translate(357.500000, 63.500000) rotate(-180.000000) translate(-357.500000, -63.500000) "></path>
        <polygon id="Rectangle" fill="#000000" transform="translate(295.000000, 44.500000) rotate(-180.000000) translate(-295.000000, -44.500000) " points="219 54 371 25 371 35 219 64"></polygon>
        <path d="M204.571181,134.540868 C210.850717,131.679541 217.524461,132.917679 219.466063,137.305932 C221.407665,141.692525 217.887592,147.577829 211.60642,150.439155 C206.340652,152.83855 200.797682,152.35527 198.000323,149.549111 L198,186 L196,186 L196,145.655236 L196.19942,145.656048 C195.881827,141.908424 198.720248,137.621066 203.404911,135.073632 C203.774585,134.871149 204.178608,134.720116 204.571181,134.540868 Z" id="quarter" fill="#FF8000"></path>
        <path d="M254.571181,124.540868 C260.850717,121.679541 267.524461,122.917679 269.466063,127.305932 C271.407665,131.692525 267.887592,137.577829 261.60642,140.439155 C256.340652,142.83855 250.797682,142.35527 248.000323,139.549111 L248,176 L246,176 L246,135.655236 L246.19942,135.656048 C245.881827,131.908424 248.720248,127.621066 253.404911,125.073632 C253.774585,124.871149 254.178608,124.720116 254.571181,124.540868 Z" id="quarter" fill="#FF8000"></path>
        <path d="M304.571181,114.540868 C310.850717,111.679541 317.524461,112.917679 319.466063,117.305932 C321.407665,121.692525 317.887592,127.577829 311.60642,130.439155 C306.340652,132.83855 300.797682,132.35527 298.000323,129.549111 L298,166 L296,166 L296,125.655236 L296.19942,125.656048 C295.881827,121.908424 298.720248,117.621066 303.404911,115.073632 C303.774585,114.871149 304.178608,114.720116 304.571181,114.540868 Z" id="quarter" fill="#FF8000"></path>
        <path d="M354.571181,104.540868 C360.850717,101.679541 367.524461,102.917679 369.466063,107.305932 C371.407665,111.692525 367.887592,117.577829 361.60642,120.439155 C356.340652,122.83855 350.797682,122.35527 348.000323,119.549111 L348,156 L346,156 L346,115.655236 L346.19942,115.656048 C345.881827,111.908424 348.720248,107.621066 353.404911,105.073632 C353.774585,104.871149 354.178608,104.720116 354.571181,104.540868 Z" id="quarter" fill="#FF8000"></path>
        <path d="M414.571181,123.540868 C420.850717,120.679541 427.524461,121.917679 429.466063,126.305932 C431.407665,130.692525 427.887592,136.577829 421.60642,139.439155 C416.340652,141.83855 410.797682,141.35527 408.000323,138.549111 L408,175 L406,175 L406,134.655236 L406.19942,134.656048 C405.881827,130.908424 408.720248,126.621066 413.404911,124.073632 C413.774585,123.871149 414.178608,123.720116 414.571181,123.540868 Z" id="quarter" fill="#FF8000"></path>
        <path d="M511.571181,123.540868 C517.850717,120.679541 524.524461,121.917679 526.466063,126.305932 C528.407665,130.692525 524.887592,136.577829 518.60642,139.439155 C513.340652,141.83855 507.797682,141.35527 505.000323,138.549111 L505,175 L503,175 L503,134.655236 L503.19942,134.656048 C502.881827,130.908424 505.720248,126.621066 510.404911,124.073632 C510.774585,123.871149 511.178608,123.720116 511.571181,123.540868 Z" id="quarter" fill="#FF8000"></path>
        <polygon id="Rectangle" fill="#000000" transform="translate(295.000000, 44.500000) rotate(-180.000000) translate(-295.000000, -44.500000) " points="219 54 371 25 371 35 219 64"></polygon>
        <polygon id="Rectangle" fill="#FF850B" transform="translate(272.000000, 171.500000) rotate(-180.000000) translate(-272.000000, -171.500000) " points="196 181 348 152 348 162 196 191"></polygon>
        <path d="M686.571181,124.540868 C692.850717,121.679541 699.524461,122.917679 701.466063,127.305932 C703.407665,131.692525 699.887592,137.577829 693.60642,140.439155 C688.340652,142.83855 682.797682,142.35527 680.000323,139.549111 L680,176 L678,176 L678,135.655236 L678.19942,135.656048 C677.881827,131.908424 680.720248,127.621066 685.404911,125.073632 C685.774585,124.871149 686.178608,124.720116 686.571181,124.540868 Z" id="quarter" fill="#FF8000"></path>
        <path d="M736.571181,114.540868 C742.850717,111.679541 749.524461,112.917679 751.466063,117.305932 C753.407665,121.692525 749.887592,127.577829 743.60642,130.439155 C738.340652,132.83855 732.797682,132.35527 730.000323,129.549111 L730,166 L728,166 L728,125.655236 L728.19942,125.656048 C727.881827,121.908424 730.720248,117.621066 735.404911,115.073632 C735.774585,114.871149 736.178608,114.720116 736.571181,114.540868 Z" id="quarter" fill="#FF8000"></path>
        <path d="M786.571181,104.540868 C792.850717,101.679541 799.524461,102.917679 801.466063,107.305932 C803.407665,111.692525 799.887592,117.577829 793.60642,120.439155 C788.340652,122.83855 782.797682,122.35527 780.000323,119.549111 L780,156 L778,156 L778,115.655236 L778.19942,115.656048 C777.881827,111.908424 780.720248,107.621066 785.404911,105.073632 C785.774585,104.871149 786.178608,104.720116 786.571181,104.540868 Z" id="quarter" fill="#FF8000"></path>
        <path d="M836.571181,94.5408679 C842.850717,91.6795413 849.524461,92.9176792 851.466063,97.3059318 C853.407665,101.692525 849.887592,107.577829 843.60642,110.439155 C838.340652,112.83855 832.797682,112.35527 830.000323,109.549111 L830,146 L828,146 L828,105.655236 L828.19942,105.656048 C827.881827,101.908424 830.720248,97.6210661 835.404911,95.0736324 C835.774585,94.8711487 836.178608,94.7201158 836.571181,94.5408679 Z" id="quarter" fill="#FF8000"></path>
        <path d="M896.571181,113.540868 C902.850717,110.679541 909.524461,111.917679 911.466063,116.305932 C913.407665,120.692525 909.887592,126.577829 903.60642,129.439155 C898.340652,131.83855 892.797682,131.35527 890.000323,128.549111 L890,165 L888,165 L888,124.655236 L888.19942,124.656048 C887.881827,120.908424 890.720248,116.621066 895.404911,114.073632 C895.774585,113.871149 896.178608,113.720116 896.571181,113.540868 Z" id="quarter" fill="#FF8000"></path>
        <path d="M993.571181,113.540868 C999.850717,110.679541 1006.52446,111.917679 1008.46606,116.305932 C1010.40766,120.692525 1006.88759,126.577829 1000.60642,129.439155 C995.340652,131.83855 989.797682,131.35527 987.000323,128.549111 L987,165 L985,165 L985,124.655236 L985.19942,124.656048 C984.881827,120.908424 987.720248,116.621066 992.404911,114.073632 C992.774585,113.871149 993.178608,113.720116 993.571181,113.540868 Z" id="quarter" fill="#FF8000"></path>
        <polygon id="Rectangle" fill="#FF850B" transform="translate(754.000000, 161.500000) rotate(-180.000000) translate(-754.000000, -161.500000) " points="678 171 830 142 830 152 678 181"></polygon>
        <line x1="997.75" y1="181.25" x2="1236.25" y2="180.75" id="bar" stroke="#000000" stroke-linecap="round" stroke-linejoin="round" transform="translate(1117.250000, 181.250000) rotate(90.000000) translate(-1117.250000, -181.250000) "></line>
        <path d="M130.925,139.186635 L130.925,136.486635 C129.65,136.561635 129.65,136.561635 128.8625,135.886635 C128.075,135.211635 128.075,135.211635 127.775,134.086635 C127.475,132.961635 127.475,132.961635 127.4375,131.799135 C127.4,130.636635 127.4,130.636635 127.475,129.211635 L127.475,129.211635 L130.925,129.211635 L130.925,126.511635 L127.475,126.511635 L127.475,108.286635 L119.6,117.961635 L119.6,126.511635 L109.55,126.511635 C113.9,121.486635 113.9,121.486635 118.25,115.711635 C122.6,109.936635 122.6,109.936635 127.25,103.111635 L127.25,103.111635 L115.25,103.111635 C114.5,110.086635 114.5,110.086635 112.5875,116.124135 C110.675,122.161635 110.675,122.161635 107,126.511635 L107,126.511635 L107,129.211635 L119.6,129.211635 C119.675,130.561635 119.675,130.561635 119.6,131.911635 C119.525,133.261635 119.525,133.261635 119.15,134.349135 C118.775,135.436635 118.775,135.436635 117.95,136.036635 C117.125,136.636635 117.125,136.636635 115.85,136.486635 L115.85,136.486635 L115.85,139.186635 L130.925,139.186635 Z" id="Combined-Shape" fill="#000000"></path>
        <path d="M130.925,99.1866352 L130.925,96.4866352 C129.65,96.5616352 129.65,96.5616352 128.8625,95.8866352 C128.075,95.2116352 128.075,95.2116352 127.775,94.0866352 C127.475,92.9616352 127.475,92.9616352 127.4375,91.7991352 C127.4,90.6366352 127.4,90.6366352 127.475,89.2116352 L127.475,89.2116352 L130.925,89.2116352 L130.925,86.5116352 L127.475,86.5116352 L127.475,68.2866352 L119.6,77.9616352 L119.6,86.5116352 L109.55,86.5116352 C113.9,81.4866352 113.9,81.4866352 118.25,75.7116352 C122.6,69.9366352 122.6,69.9366352 127.25,63.1116352 L127.25,63.1116352 L115.25,63.1116352 C114.5,70.0866352 114.5,70.0866352 112.5875,76.1241352 C110.675,82.1616352 110.675,82.1616352 107,86.5116352 L107,86.5116352 L107,89.2116352 L119.6,89.2116352 C119.675,90.5616352 119.675,90.5616352 119.6,91.9116352 C119.525,93.2616352 119.525,93.2616352 119.15,94.3491352 C118.775,95.4366352 118.775,95.4366352 117.95,96.0366352 C117.125,96.6366352 117.125,96.6366352 115.85,96.4866352 L115.85,96.4866352 L115.85,99.1866352 L130.925,99.1866352 Z" id="Combined-Shape" fill="#000000"></path>
        <path d="M130.925,299.186635 L130.925,296.486635 C129.65,296.561635 129.65,296.561635 128.8625,295.886635 C128.075,295.211635 128.075,295.211635 127.775,294.086635 C127.475,292.961635 127.475,292.961635 127.4375,291.799135 C127.4,290.636635 127.4,290.636635 127.475,289.211635 L127.475,289.211635 L130.925,289.211635 L130.925,286.511635 L127.475,286.511635 L127.475,268.286635 L119.6,277.961635 L119.6,286.511635 L109.55,286.511635 C113.9,281.486635 113.9,281.486635 118.25,275.711635 C122.6,269.936635 122.6,269.936635 127.25,263.111635 L127.25,263.111635 L115.25,263.111635 C114.5,270.086635 114.5,270.086635 112.5875,276.124135 C110.675,282.161635 110.675,282.161635 107,286.511635 L107,286.511635 L107,289.211635 L119.6,289.211635 C119.675,290.561635 119.675,290.561635 119.6,291.911635 C119.525,293.261635 119.525,293.261635 119.15,294.349135 C118.775,295.436635 118.775,295.436635 117.95,296.036635 C117.125,296.636635 117.125,296.636635 115.85,296.486635 L115.85,296.486635 L115.85,299.186635 L130.925,299.186635 Z" id="Combined-Shape" fill="#000000"></path>
        <path d="M130.925,259.186635 L130.925,256.486635 C129.65,256.561635 129.65,256.561635 128.8625,255.886635 C128.075,255.211635 128.075,255.211635 127.775,254.086635 C127.475,252.961635 127.475,252.961635 127.4375,251.799135 C127.4,250.636635 127.4,250.636635 127.475,249.211635 L127.475,249.211635 L130.925,249.211635 L130.925,246.511635 L127.475,246.511635 L127.475,228.286635 L119.6,237.961635 L119.6,246.511635 L109.55,246.511635 C113.9,241.486635 113.9,241.486635 118.25,235.711635 C122.6,229.936635 122.6,229.936635 127.25,223.111635 L127.25,223.111635 L115.25,223.111635 C114.5,230.086635 114.5,230.086635 112.5875,236.124135 C110.675,242.161635 110.675,242.161635 107,246.511635 L107,246.511635 L107,249.211635 L119.6,249.211635 C119.675,250.561635 119.675,250.561635 119.6,251.911635 C119.525,253.261635 119.525,253.261635 119.15,254.349135 C118.775,255.436635 118.775,255.436635 117.95,256.036635 C117.125,256.636635 117.125,256.636635 115.85,256.486635 L115.85,256.486635 L115.85,259.186635 L130.925,259.186635 Z" id="Combined-Shape" fill="#000000"></path>
        <path d="M413.642579,46.7048253 C420.707056,43.5390368 428.215019,44.9089198 430.399321,49.764108 C432.583623,54.61746 428.623541,61.1289946 421.557223,64.294783 C415.392602,67.0573205 408.890281,66.366082 405.882386,62.9190097 L405.882937,122 L404,122 L404,59.001827 L404.22429,59.0020667 C403.867394,54.8558297 407.060558,50.1126251 412.330525,47.2942789 C412.746408,47.0702498 413.200934,46.9031461 413.642579,46.7048253 Z" id="quarter" fill="#000000" transform="translate(417.500000, 83.500000) rotate(-180.000000) translate(-417.500000, -83.500000) "></path>
        <path d="M510.642579,46.7048253 C517.707056,43.5390368 525.215019,44.9089198 527.399321,49.764108 C529.583623,54.61746 525.623541,61.1289946 518.557223,64.294783 C512.392602,67.0573205 505.890281,66.366082 502.882386,62.9190097 L502.882937,122 L501,122 L501,59.001827 L501.22429,59.0020667 C500.867394,54.8558297 504.060558,50.1126251 509.330525,47.2942789 C509.746408,47.0702498 510.200934,46.9031461 510.642579,46.7048253 Z" id="quarter" fill="#000000" transform="translate(514.500000, 83.500000) rotate(-180.000000) translate(-514.500000, -83.500000) "></path>
        <path d="M687.642579,46.7048253 C694.707056,43.5390368 702.215019,44.9089198 704.399321,49.764108 C706.583623,54.61746 702.623541,61.1289946 695.557223,64.294783 C689.392602,67.0573205 682.890281,66.366082 679.882386,62.9190097 L679.882937,122 L678,122 L678,59.001827 L678.22429,59.0020667 C677.867394,54.8558297 681.060558,50.1126251 686.330525,47.2942789 C686.746408,47.0702498 687.200934,46.9031461 687.642579,46.7048253 Z" id="quarter" fill="#000000" transform="translate(691.500000, 83.500000) rotate(-180.000000) translate(-691.500000, -83.500000) "></path>
        <path d="M737.642579,36.7048253 C744.707056,33.5390368 752.215019,34.9089198 754.399321,39.764108 C756.583623,44.61746 752.623541,51.1289946 745.557223,54.294783 C739.392602,57.0573205 732.890281,56.366082 729.882386,52.9190097 L729.882937,112 L728,112 L728,49.001827 L728.22429,49.0020667 C727.867394,44.8558297 731.060558,40.1126251 736.330525,37.2942789 C736.746408,37.0702498 737.200934,36.9031461 737.642579,36.7048253 Z" id="quarter" fill="#000000" transform="translate(741.500000, 73.500000) rotate(-180.000000) translate(-741.500000, -73.500000) "></path>
        <path d="M787.642579,26.7048253 C794.707056,23.5390368 802.215019,24.9089198 804.399321,29.764108 C806.583623,34.61746 802.623541,41.1289946 795.557223,44.294783 C789.392602,47.0573205 782.890281,46.366082 779.882386,42.9190097 L779.882937,102 L778,102 L778,39.001827 L778.22429,39.0020667 C777.867394,34.8558297 781.060558,30.1126251 786.330525,27.2942789 C786.746408,27.0702498 787.200934,26.9031461 787.642579,26.7048253 Z" id="quarter" fill="#000000" transform="translate(791.500000, 63.500000) rotate(-180.000000) translate(-791.500000, -63.500000) "></path>
        <path d="M837.642579,16.7048253 C844.707056,13.5390368 852.215019,14.9089198 854.399321,19.764108 C856.583623,24.61746 852.623541,31.1289946 845.557223,34.294783 C839.392602,37.0573205 832.890281,36.366082 829.882386,32.9190097 L829.882937,92 L828,92 L828,29.001827 L828.22429,29.0020667 C827.867394,24.8558297 831.060558,20.1126251 836.330525,17.2942789 C836.746408,17.0702498 837.200934,16.9031461 837.642579,16.7048253 Z" id="quarter" fill="#000000" transform="translate(841.500000, 53.500000) rotate(-180.000000) translate(-841.500000, -53.500000) "></path>
        <polygon id="Rectangle" fill="#000000" transform="translate(779.000000, 34.500000) rotate(-180.000000) translate(-779.000000, -34.500000) " points="703 44 855 15 855 25 703 54"></polygon>
        <path d="M897.642579,36.7048253 C904.707056,33.5390368 912.215019,34.9089198 914.399321,39.764108 C916.583623,44.61746 912.623541,51.1289946 905.557223,54.294783 C899.392602,57.0573205 892.890281,56.366082 889.882386,52.9190097 L889.882937,112 L888,112 L888,49.001827 L888.22429,49.0020667 C887.867394,44.8558297 891.060558,40.1126251 896.330525,37.2942789 C896.746408,37.0702498 897.200934,36.9031461 897.642579,36.7048253 Z" id="quarter" fill="#000000" transform="translate(901.500000, 73.500000) rotate(-180.000000) translate(-901.500000, -73.500000) "></path>
        <path d="M994.642579,36.7048253 C1001.70706,33.5390368 1009.21502,34.9089198 1011.39932,39.764108 C1013.58362,44.61746 1009.62354,51.1289946 1002.55722,54.294783 C996.392602,57.0573205 989.890281,56.366082 986.882386,52.9190097 L986.882937,112 L985,112 L985,49.001827 L985.22429,49.0020667 C984.867394,44.8558297 988.060558,40.1126251 993.330525,37.2942789 C993.746408,37.0702498 994.200934,36.9031461 994.642579,36.7048253 Z" id="quarter" fill="#000000" transform="translate(998.500000, 73.500000) rotate(-180.000000) translate(-998.500000, -73.500000) "></path>
        <path d="M1173.98593,261 C1164.60198,261 1157,265.498138 1157,271.013856 C1157,276.528709 1164.60198,281 1173.98593,281 C1183.36988,281 1191,276.528709 1191,271.013856 C1191,265.498138 1183.36988,261 1173.98593,261 Z M1169.83532,262.813458 C1172.27608,262.782281 1175.28239,263.721919 1178.10927,265.601195 C1183.13416,268.940591 1185.65584,273.970469 1183.74369,276.804971 C1181.83154,279.639473 1176.20768,279.224647 1171.18279,275.885252 C1166.15703,272.54499 1163.63623,267.515112 1165.5475,264.68061 C1166.38483,263.440461 1167.93812,262.837707 1169.83532,262.813458 Z" id="whole" fill="#050001" fill-rule="nonzero"></path>
        <path d="M1173.98593,241 C1164.60198,241 1157,245.498138 1157,251.013856 C1157,256.528709 1164.60198,261 1173.98593,261 C1183.36988,261 1191,256.528709 1191,251.013856 C1191,245.498138 1183.36988,241 1173.98593,241 Z M1169.83532,242.813458 C1172.27608,242.782281 1175.28239,243.721919 1178.10927,245.601195 C1183.13416,248.940591 1185.65584,253.970469 1183.74369,256.804971 C1181.83154,259.639473 1176.20768,259.224647 1171.18279,255.885252 C1166.15703,252.54499 1163.63623,247.515112 1165.5475,244.68061 C1166.38483,243.440461 1167.93812,242.837707 1169.83532,242.813458 Z" id="whole" fill="#050001" fill-rule="nonzero"></path>
        <path d="M1173.98593,221 C1164.60198,221 1157,225.498138 1157,231.013856 C1157,236.528709 1164.60198,241 1173.98593,241 C1183.36988,241 1191,236.528709 1191,231.013856 C1191,225.498138 1183.36988,221 1173.98593,221 Z M1169.83532,222.813458 C1172.27608,222.782281 1175.28239,223.721919 1178.10927,225.601195 C1183.13416,228.940591 1185.65584,233.970469 1183.74369,236.804971 C1181.83154,239.639473 1176.20768,239.224647 1171.18279,235.885252 C1166.15703,232.54499 1163.63623,227.515112 1165.5475,224.68061 C1166.38483,223.440461 1167.93812,222.837707 1169.83532,222.813458 Z" id="whole" fill="#050001" fill-rule="nonzero"></path>
        <path d="M1173.98593,111 C1164.60198,111 1157,115.498138 1157,121.013856 C1157,126.528709 1164.60198,131 1173.98593,131 C1183.36988,131 1191,126.528709 1191,121.013856 C1191,115.498138 1183.36988,111 1173.98593,111 Z M1169.83532,112.813458 C1172.27608,112.782281 1175.28239,113.721919 1178.10927,115.601195 C1183.13416,118.940591 1185.65584,123.970469 1183.74369,126.804971 C1181.83154,129.639473 1176.20768,129.224647 1171.18279,125.885252 C1166.15703,122.54499 1163.63623,117.515112 1165.5475,114.68061 C1166.38483,113.440461 1167.93812,112.837707 1169.83532,112.813458 Z" id="whole" fill="#050001" fill-rule="nonzero"></path>
        <path d="M1174.48717,132 C1165.93121,132 1159,136.048324 1159,141.012471 C1159,145.975838 1165.93121,150 1174.48717,150 C1183.04312,150 1190,145.975838 1190,141.012471 C1190,136.048324 1183.04312,132 1174.48717,132 Z M1170.70279,133.632112 C1172.92819,133.604053 1175.66924,134.449727 1178.24669,136.141076 C1182.8282,139.146532 1185.12738,143.673422 1183.38395,146.224474 C1181.64052,148.775526 1176.51288,148.402182 1171.93137,145.396726 C1167.34905,142.390491 1165.05068,137.863601 1166.79331,135.312549 C1167.55676,134.196415 1168.97299,133.653936 1170.70279,133.632112 Z" id="whole" fill="#FF8000" fill-rule="nonzero"></path>
        <line x1="502.75" y1="181.25" x2="741.25" y2="180.75" id="bar" stroke="#000000" stroke-linecap="round" stroke-linejoin="round" transform="translate(622.250000, 181.250000) rotate(90.000000) translate(-622.250000, -181.250000) "></line>
        <path d="M220.985927,301 C211.601976,301 204,305.498138 204,311.013856 C204,316.528709 211.601976,321 220.985927,321 C230.369878,321 238,316.528709 238,311.013856 C238,305.498138 230.369878,301 220.985927,301 Z M216.835317,302.813458 C219.276076,302.782281 222.282388,303.721919 225.109272,305.601195 C230.134158,308.940591 232.655836,313.970469 230.743688,316.804971 C228.83154,319.639473 223.207678,319.224647 218.182792,315.885252 C213.157026,312.54499 210.636227,307.515112 212.547496,304.68061 C213.38483,303.440461 214.938121,302.837707 216.835317,302.813458 Z" id="whole" fill="#050001" fill-rule="nonzero"></path>
        <path d="M220.985927,281 C211.601976,281 204,285.498138 204,291.013856 C204,296.528709 211.601976,301 220.985927,301 C230.369878,301 238,296.528709 238,291.013856 C238,285.498138 230.369878,281 220.985927,281 Z M216.835317,282.813458 C219.276076,282.782281 222.282388,283.721919 225.109272,285.601195 C230.134158,288.940591 232.655836,293.970469 230.743688,296.804971 C228.83154,299.639473 223.207678,299.224647 218.182792,295.885252 C213.157026,292.54499 210.636227,287.515112 212.547496,284.68061 C213.38483,283.440461 214.938121,282.837707 216.835317,282.813458 Z" id="whole" fill="#050001" fill-rule="nonzero"></path>
        <path d="M220.985927,261 C211.601976,261 204,265.498138 204,271.013856 C204,276.528709 211.601976,281 220.985927,281 C230.369878,281 238,276.528709 238,271.013856 C238,265.498138 230.369878,261 220.985927,261 Z M216.835317,262.813458 C219.276076,262.782281 222.282388,263.721919 225.109272,265.601195 C230.134158,268.940591 232.655836,273.970469 230.743688,276.804971 C228.83154,279.639473 223.207678,279.224647 218.182792,275.885252 C213.157026,272.54499 210.636227,267.515112 212.547496,264.68061 C213.38483,263.440461 214.938121,262.837707 216.835317,262.813458 Z" id="whole" fill="#050001" fill-rule="nonzero"></path>
        <path d="M220.985927,241 C211.601976,241 204,245.498138 204,251.013856 C204,256.528709 211.601976,261 220.985927,261 C230.369878,261 238,256.528709 238,251.013856 C238,245.498138 230.369878,241 220.985927,241 Z M216.835317,242.813458 C219.276076,242.782281 222.282388,243.721919 225.109272,245.601195 C230.134158,248.940591 232.655836,253.970469 230.743688,256.804971 C228.83154,259.639473 223.207678,259.224647 218.182792,255.885252 C213.157026,252.54499 210.636227,247.515112 212.547496,244.68061 C213.38483,243.440461 214.938121,242.837707 216.835317,242.813458 Z" id="whole" fill="#050001" fill-rule="nonzero"></path>
        <path d="M690.985927,291 C681.601976,291 674,295.498138 674,301.013856 C674,306.528709 681.601976,311 690.985927,311 C700.369878,311 708,306.528709 708,301.013856 C708,295.498138 700.369878,291 690.985927,291 Z M686.835317,292.813458 C689.276076,292.782281 692.282388,293.721919 695.109272,295.601195 C700.134158,298.940591 702.655836,303.970469 700.743688,306.804971 C698.83154,309.639473 693.207678,309.224647 688.182792,305.885252 C683.157026,302.54499 680.636227,297.515112 682.547496,294.68061 C683.38483,293.440461 684.938121,292.837707 686.835317,292.813458 Z" id="whole" fill="#050001" fill-rule="nonzero"></path>
        <path d="M690.985927,271 C681.601976,271 674,275.498138 674,281.013856 C674,286.528709 681.601976,291 690.985927,291 C700.369878,291 708,286.528709 708,281.013856 C708,275.498138 700.369878,271 690.985927,271 Z M686.835317,272.813458 C689.276076,272.782281 692.282388,273.721919 695.109272,275.601195 C700.134158,278.940591 702.655836,283.970469 700.743688,286.804971 C698.83154,289.639473 693.207678,289.224647 688.182792,285.885252 C683.157026,282.54499 680.636227,277.515112 682.547496,274.68061 C683.38483,273.440461 684.938121,272.837707 686.835317,272.813458 Z" id="whole" fill="#050001" fill-rule="nonzero"></path>
        <path d="M690.985927,251 C681.601976,251 674,255.498138 674,261.013856 C674,266.528709 681.601976,271 690.985927,271 C700.369878,271 708,266.528709 708,261.013856 C708,255.498138 700.369878,251 690.985927,251 Z M686.835317,252.813458 C689.276076,252.782281 692.282388,253.721919 695.109272,255.601195 C700.134158,258.940591 702.655836,263.970469 700.743688,266.804971 C698.83154,269.639473 693.207678,269.224647 688.182792,265.885252 C683.157026,262.54499 680.636227,257.515112 682.547496,254.68061 C683.38483,253.440461 684.938121,252.837707 686.835317,252.813458 Z" id="whole" fill="#050001" fill-rule="nonzero"></path>
    </g>
</svg>