<?xml version="1.0" encoding="UTF-8" standalone="no"?><!DOCTYPE svg PUBLIC "-//W3C//DTD SVG 1.1//EN" "http://www.w3.org/Graphics/SVG/1.1/DTD/svg11.dtd"><svg width="1500.0px" height="1250.0px" viewBox="0 0 1500 1250" version="1.1" xmlns="http://www.w3.org/2000/svg" xmlns:xlink="http://www.w3.org/1999/xlink" xml:space="preserve" xmlns:serif="http://www.serif.com/" style="fill-rule:evenodd;clip-rule:evenodd;stroke-linecap:round;stroke-linejoin:round;stroke-miterlimit:1.5;"><g><g id="melo_modal-chordal-combination"><rect x="0" y="0" width="1500.01" height="1250" style="fill:none;"/><g id="大譜表"><g id="外枠"><rect x="345.988" y="137.414" width="1090.8" height="700" style="fill:#fff;fill-opacity:0.78;stroke:#000;stroke-width:2.01px;"/></g><g id="_--G線" serif:id="↑ G線"><path d="M346.002,317.413l1090.81,-0" style="fill:none;stroke:#000;stroke-width:1.99px;"/></g><g id="_--E線" serif:id="↑ E線"><path d="M346.002,377.412l1090.81,-0" style="fill:none;stroke:#000;stroke-width:1.99px;"/></g><g id="_--B線" serif:id="↑ B線"><path d="M346.002,257.412l1090.81,-0" style="fill:none;stroke:#000;stroke-width:1.99px;"/></g><g id="_--D線" serif:id="↑ D線"><path d="M346.002,197.413l1090.81,-0" style="fill:none;stroke:#000;stroke-width:1.99px;"/></g><g id="_--B線1" serif:id="↓ B線"><path d="M346.002,777.412l1090.81,0" style="fill:none;stroke:#000;stroke-width:1.99px;"/></g><g id="_--D線1" serif:id="↓ D線"><path d="M346.002,717.412l1090.81,0" style="fill:none;stroke:#000;stroke-width:1.99px;"/></g><g id="_--F線" serif:id="↓ F線"><path d="M346.002,657.412l1090.81,0" style="fill:none;stroke:#000;stroke-width:1.99px;"/></g><g id="_--A線" serif:id="↓ A線"><path d="M346.002,597.413l1090.81,-0" style="fill:none;stroke:#000;stroke-width:1.99px;"/></g></g><g><path d="M938.009,879.991l-420.006,0l0,90.003l420.006,0l40.007,-44.999l-40.007,-45.004Z" style="fill:#f63;"/></g><g><path d="M1408.04,879.991l-460.012,0l40.007,45.004l-40.007,44.999l460.012,0l0,-90.003Z" style="fill:#49b656;"/></g><g><path d="M938.009,989.991l-420.006,0l0,90.003l420.006,0l40.007,-44.999l-40.007,-45.004Z" style="fill:#f63;"/></g><g><rect x="518.003" y="1099.99" width="890.004" height="90" style="fill:#49b656;"/></g><g><path d="M1408.04,989.991l-460.012,0l40.007,45.004l-40.007,44.999l460.012,0l0,-90.003Z" style="fill:#49b656;"/></g><g id="bar3"><path d="M1435.72,138.416l-0,698" style="fill:none;stroke:#000;stroke-width:3.99px;"/></g><g><g transform="matrix(1,0,0,1,-1.13687e-13,9.68341e-06)"><text x="581.814px" y="1052.99px" style="font-family:'Arial-BoldMT', 'Arial', sans-serif;font-weight:700;font-size:48px;fill:#fff;">4th(</text></g><g transform="matrix(1,0,0,1,-1.13687e-13,9.68341e-06)"><text x="669.799px" y="1052.99px" style="font-family:'NotoSansSC-Bold', 'Noto Sans SC', sans-serif;font-weight:700;font-size:48px;fill:#fff;">浑浊度强</text></g><g transform="matrix(1,0,0,1,-2.27374e-13,9.68341e-06)"><text x="861.799px" y="1052.99px" style="font-family:'Arial-BoldMT', 'Arial', sans-serif;font-weight:700;font-size:48px;fill:#fff;">)</text></g></g><g><g transform="matrix(1,0,0,1,-1.13687e-13,8.66019e-06)"><text x="564.163px" y="941.724px" style="font-family:'HiraKakuProN-W6', 'Hiragino Kaku Gothic ProN', sans-serif;font-weight:600;font-size:48px;fill:#fff;">第</text></g><g transform="matrix(1,0,0,1,-1.13687e-13,8.66019e-06)"><text x="612.163px" y="941.724px" style="font-family:'Arial-BoldMT', 'Arial', sans-serif;font-weight:700;font-size:48px;fill:#fff;">IV</text></g><g transform="matrix(1,0,0,1,-1.13687e-13,8.66019e-06)"><text x="657.516px" y="941.724px" style="font-family:'HiraKakuProN-W6', 'Hiragino Kaku Gothic ProN', sans-serif;font-weight:600;font-size:48px;fill:#fff;">音</text></g><g transform="matrix(1,0,0,1,-1.13687e-13,8.66019e-06)"><text x="705.515px" y="941.724px" style="font-family:'Arial-BoldMT', 'Arial', sans-serif;font-weight:700;font-size:48px;fill:#fff;">(</text></g><g transform="matrix(1,0,0,1,-1.13687e-13,8.66019e-06)"><text x="721.499px" y="941.724px" style="font-family:'NotoSansSC-Bold', 'Noto Sans SC', sans-serif;font-weight:700;font-size:48px;fill:#fff;">强倾向</text></g><g transform="matrix(1,0,0,1,-2.27374e-13,8.66019e-06)"><text x="865.5px" y="941.724px" style="font-family:'Arial-BoldMT', 'Arial', sans-serif;font-weight:700;font-size:48px;fill:#fff;">)</text></g></g><g><g transform="matrix(1,0,0,1,-2.27374e-13,8.66019e-06)"><text x="1036.84px" y="941.724px" style="font-family:'HiraKakuProN-W6', 'Hiragino Kaku Gothic ProN', sans-serif;font-weight:600;font-size:48px;fill:#fff;">第</text></g><g transform="matrix(1,0,0,1,0,8.66019e-06)"><text x="1084.84px" y="941.724px" style="font-family:'Arial-BoldMT', 'Arial', sans-serif;font-weight:700;font-size:48px;fill:#fff;">III</text></g><g transform="matrix(1,0,0,1,-2.27374e-13,8.66019e-06)"><text x="1124.85px" y="941.724px" style="font-family:'HiraKakuProN-W6', 'Hiragino Kaku Gothic ProN', sans-serif;font-weight:600;font-size:48px;fill:#fff;">音</text></g><g transform="matrix(1,0,0,1,-2.27374e-13,8.66019e-06)"><text x="1172.85px" y="941.724px" style="font-family:'Arial-BoldMT', 'Arial', sans-serif;font-weight:700;font-size:48px;fill:#fff;">(</text></g><g transform="matrix(1,0,0,1,-2.27374e-13,8.66019e-06)"><text x="1188.83px" y="941.724px" style="font-family:'NotoSansSC-Bold', 'Noto Sans SC', sans-serif;font-weight:700;font-size:48px;fill:#fff;">低倾向</text></g><g transform="matrix(1,0,0,1,-2.27374e-13,8.66019e-06)"><text x="1332.83px" y="941.724px" style="font-family:'Arial-BoldMT', 'Arial', sans-serif;font-weight:700;font-size:48px;fill:#fff;">)</text></g></g><g><g transform="matrix(1,0,0,1,0,9.68341e-06)"><text x="1078.47px" y="1052.99px" style="font-family:'Arial-BoldMT', 'Arial', sans-serif;font-weight:700;font-size:48px;fill:#fff;">3rd(</text></g><g transform="matrix(1,0,0,1,-2.27374e-13,9.68341e-06)"><text x="1169.15px" y="1052.99px" style="font-family:'HiraKakuProN-W6', 'Hiragino Kaku Gothic ProN', sans-serif;font-weight:600;font-size:48px;fill:#fff;">澄明</text></g><g transform="matrix(1,0,0,1,-2.27374e-13,9.68341e-06)"><text x="1265.15px" y="1052.99px" style="font-family:'Arial-BoldMT', 'Arial', sans-serif;font-weight:700;font-size:48px;fill:#fff;">)</text></g></g><g><g><g transform="matrix(1,0,0,1,-1.13687e-13,1.0695e-05)"><text x="887.586px" y="1162.99px" style="font-family:'Arial-BoldMT', 'Arial', sans-serif;font-weight:700;font-size:48px;fill:#fff;">T</text></g><g transform="matrix(1,0,0,1,-1.13687e-13,1.0695e-05)"><text x="913.343px" y="1162.99px" style="font-family:'Arial-BoldMT', 'Arial', sans-serif;font-weight:700;font-size:48px;fill:#fff;">onic</text></g></g></g><g id="path7229"><path d="M733.803,658.041c-27.719,-0 -50.175,13.494 -50.175,30.042c0,16.544 22.456,29.958 50.175,29.958c27.719,0 50.258,-13.414 50.258,-29.958c0,-16.548 -22.539,-30.042 -50.258,-30.042Zm-12.26,5.44c7.209,-0.093 16.09,2.726 24.44,8.364c14.843,10.018 22.292,25.108 16.644,33.611c-5.649,8.504 -22.261,7.259 -37.104,-2.759c-14.846,-10.021 -22.292,-25.111 -16.646,-33.614c2.473,-3.721 7.062,-5.529 12.666,-5.602Z" style="fill-rule:nonzero;"/></g><g id="path72291" serif:id="path7229"><path d="M733.803,598.041c-27.719,-0 -50.175,13.494 -50.175,30.042c0,16.544 22.456,29.958 50.175,29.958c27.719,0 50.258,-13.414 50.258,-29.958c0,-16.548 -22.539,-30.042 -50.258,-30.042Zm-12.26,5.44c7.209,-0.093 16.09,2.726 24.44,8.364c14.843,10.018 22.292,25.108 16.644,33.611c-5.649,8.504 -22.261,7.259 -37.104,-2.759c-14.846,-10.021 -22.292,-25.111 -16.646,-33.614c2.473,-3.721 7.062,-5.529 12.666,-5.602Z" style="fill-rule:nonzero;"/></g><g><path d="M781.375,363.744l1.357,-18.236l289.547,21.542l1.26,-16.938l24.116,27.994l-27.993,24.118l1.26,-16.938l-289.547,-21.542Z" style="fill:#f1ab31;"/></g><g id="_2分音符-Ba." serif:id="2分音符 Ba."><g id="onpu"><path d="M741.848,370.824c17.818,-9.549 27.31,-26.831 21.47,-39.833c-6.228,-13.872 -27.635,-17.786 -47.777,-8.741c-20.147,9.046 -31.438,27.65 -25.21,41.518c6.227,13.872 27.634,17.786 47.776,8.741c1.26,-0.567 2.556,-1.044 3.741,-1.685Zm-5.823,-11.763c-1.265,0.656 -2.545,1.144 -3.888,1.747c-17.173,7.713 -33.758,8.075 -37.021,0.808c-3.264,-7.261 8.027,-19.418 25.2,-27.13c17.172,-7.713 33.757,-8.075 37.021,-0.808c3.006,6.694 -6.375,17.686 -21.312,25.383Z"/></g><g id="しっぽ"><rect x="760.041" y="157.374" width="5" height="180"/></g></g><g id="_2分音符-Ba.1" serif:id="2分音符 Ba."><g id="onpu1" serif:id="onpu"><path d="M1181.85,400.825c17.818,-9.549 27.309,-26.832 21.469,-39.833c-6.228,-13.873 -27.634,-17.787 -47.777,-8.741c-20.147,9.045 -31.438,27.65 -25.21,41.517c6.228,13.872 27.634,17.786 47.777,8.741c1.259,-0.567 2.555,-1.044 3.741,-1.684Zm-5.824,-11.763c-1.265,0.655 -2.545,1.143 -3.888,1.747c-17.173,7.712 -33.758,8.074 -37.021,0.808c-3.264,-7.262 8.027,-19.418 25.2,-27.131c17.173,-7.713 33.758,-8.075 37.021,-0.808c3.006,6.695 -6.375,17.687 -21.312,25.384Z"/></g><g id="しっぽ1" serif:id="しっぽ"><rect x="1200.04" y="187.374" width="5" height="180"/></g></g><g id="path72292" serif:id="path7229"><path d="M733.803,718.041c-27.719,-0 -50.175,13.494 -50.175,30.042c0,16.544 22.456,29.958 50.175,29.958c27.719,0 50.258,-13.414 50.258,-29.958c0,-16.548 -22.539,-30.042 -50.258,-30.042Zm-12.26,5.44c7.209,-0.093 16.09,2.726 24.44,8.364c14.843,10.018 22.292,25.108 16.644,33.611c-5.649,8.504 -22.261,7.259 -37.104,-2.759c-14.846,-10.021 -22.292,-25.111 -16.646,-33.614c2.473,-3.721 7.062,-5.529 12.666,-5.602Z" style="fill-rule:nonzero;"/></g><g id="bar-0" serif:id="bar 0"><path d="M346,139.416l0,698" style="fill:none;stroke:#000;stroke-width:6.02px;"/></g><g id="_-" serif:id="{"><path d="M270.761,483.045c69.329,-122.929 -74.672,-186.966 49.231,-320c-121.774,155.495 56.111,167.938 -49.231,320c69.329,122.929 -74.672,186.966 49.231,320c-121.774,-155.496 56.111,-167.939 -49.231,-320Z" style="fill-rule:nonzero;"/><path d="M330.65,151.919l-9.809,12.529l-0.345,0.455l-0.357,0.443l-0.357,0.456l-0.344,0.443l-0.689,0.911l-0.345,0.443l-0.332,0.443l-0.345,0.443l-0.332,0.455l-0.345,0.443l-0.997,1.33l-0.32,0.443l-0.332,0.43l-0.32,0.443l-0.332,0.444l-0.32,0.43l-0.32,0.443l-0.32,0.431l-0.32,0.443l-0.308,0.431l-0.32,0.431l-0.308,0.43l-0.32,0.431l-0.615,0.862l-0.308,0.443l-0.295,0.418l-0.308,0.431l-0.295,0.431l-0.308,0.431l-0.295,0.418l-0.296,0.431l-0.295,0.418l-0.296,0.431l-0.295,0.419l-0.283,0.418l-0.295,0.431l-1.699,2.511l-0.271,0.418l-0.283,0.406l-0.541,0.837l-0.271,0.406l-0.271,0.419l-0.271,0.406l-0.258,0.418l-0.271,0.406l-0.258,0.407l-0.271,0.406l-0.259,0.418l-0.775,1.219l-0.246,0.394l-0.259,0.418l-0.246,0.394l-0.246,0.406l-0.258,0.406l-0.247,0.394l-0.246,0.406l-0.234,0.394l-0.246,0.406l-0.246,0.394l-0.234,0.406l-0.246,0.394l-0.935,1.575l-0.222,0.394l-0.467,0.788l-0.444,0.788l-0.221,0.381l-0.222,0.394l-0.221,0.382l-0.222,0.393l-0.221,0.382l-0.209,0.394l-0.222,0.381l-0.209,0.394l-0.419,0.763l-0.221,0.382l-0.197,0.381l-0.419,0.763l-0.197,0.382l-0.209,0.381l-0.197,0.382l-0.197,0.369l-0.393,0.763l-0.197,0.37l-0.197,0.381l-0.185,0.369l-0.197,0.382l-0.197,0.369l-0.184,0.369l-0.185,0.382l-0.739,1.477l-0.172,0.369l-0.184,0.369l-0.173,0.369l-0.184,0.37l-0.173,0.357l-0.517,1.107l-0.172,0.357l-0.16,0.369l-0.172,0.357l-0.16,0.357l-0.173,0.37l-0.32,0.713l-0.16,0.37l-0.48,1.07l-0.147,0.357l-0.16,0.357l-0.148,0.357l-0.16,0.357l-0.148,0.345l-0.443,1.07l-0.147,0.345l-0.136,0.357l-0.147,0.345l-0.136,0.357l-0.148,0.344l-0.135,0.357l-0.541,1.379l-0.136,0.356l-0.135,0.345l-0.123,0.345l-0.136,0.344l-0.123,0.345l-0.135,0.345l-0.123,0.332l-0.369,1.034l-0.124,0.332l-0.11,0.345l-0.123,0.332l-0.123,0.345l-0.111,0.332l-0.123,0.344l-0.222,0.665l-0.111,0.345l-0.332,0.997l-0.098,0.332l-0.111,0.332l-0.099,0.333l-0.11,0.332l-0.197,0.664l-0.111,0.333l-0.099,0.332l-0.098,0.32l-0.099,0.332l-0.086,0.333l-0.098,0.32l-0.099,0.332l-0.086,0.32l-0.086,0.332l-0.098,0.32l-0.087,0.333l-0.086,0.32l-0.086,0.332l-0.344,1.28l-0.074,0.32l-0.086,0.32l-0.074,0.32l-0.086,0.32l-0.37,1.6l-0.074,0.308l-0.147,0.64l-0.062,0.307l-0.074,0.32l-0.061,0.308l-0.074,0.32l-0.062,0.308l-0.061,0.32l-0.123,0.615l-0.062,0.32l-0.184,0.923l-0.05,0.308l-0.061,0.308l-0.049,0.307l-0.062,0.32l-0.049,0.296l-0.148,0.923l-0.061,0.307l-0.05,0.308l-0.036,0.295l-0.099,0.616l-0.037,0.308l-0.049,0.295l-0.037,0.308l-0.049,0.295l-0.037,0.308l-0.037,0.295l-0.049,0.308l-0.074,0.591l-0.037,0.307l-0.025,0.296l-0.11,0.886l-0.025,0.307l-0.037,0.296l-0.049,0.591l-0.037,0.295l-0.049,0.591l-0.025,0.283l-0.098,1.181l-0.013,0.283l-0.049,0.591l-0.012,0.283l-0.025,0.296l-0.025,0.578l-0.024,0.296l-0.025,0.566l-0.037,0.874l-0.012,0.283l0,0.283l-0.025,0.566l0,0.295l-0.012,0.283l0,0.283l-0.012,0.283l-0,1.133l-0.013,0.283l0,0.283l0.013,0.283l-0,1.12l0.012,0.283l0,0.283l0.012,0.271l0,0.283l0.025,0.554l0,0.283l0.074,1.661l0.024,0.542l0.074,1.108l0.074,1.083l0.049,0.554l0.037,0.541l0.099,1.083l0.061,0.529l0.05,0.542l0.123,1.083l0.061,0.529l0.074,0.53l0.062,0.529l0.073,0.541l0.148,1.059l0.086,0.529l0.074,0.529l0.086,0.517l0.086,0.529l0.087,0.517l0.086,0.53l0.098,0.529l0.086,0.517l0.197,1.034l0.099,0.529l0.11,0.517l0.099,0.517l0.111,0.504l0.332,1.551l0.123,0.505l0.111,0.517l0.123,0.516l0.123,0.505l0.111,0.505l0.135,0.517l0.246,1.009l0.136,0.504l0.123,0.505l0.406,1.514l0.148,0.505l0.27,1.009l0.148,0.492l0.296,1.009l0.147,0.493l0.148,0.504l0.148,0.493l0.147,0.504l0.16,0.492l0.148,0.505l0.32,0.985l0.148,0.492l0.16,0.492l0.172,0.505l0.48,1.477l0.172,0.492l0.16,0.492l0.345,0.985l0.16,0.492l0.172,0.493l0.173,0.48l0.516,1.477l0.185,0.492l0.172,0.48l0.173,0.492l0.184,0.493l0.173,0.48l0.357,0.984l0.369,0.972l0.357,0.973l1.477,3.889l0.381,0.985l0.369,0.96l0.382,0.984l1.502,3.889l0.763,1.945l0.381,0.985l0.369,0.972l0.382,0.985l0.369,0.972l0.382,0.985l0.369,0.984l0.369,0.972l0.739,1.97l0.369,0.997l0.172,0.492l0.369,0.985l0.173,0.504l0.184,0.492l0.173,0.493l0.184,0.504l0.173,0.493l0.172,0.504l0.184,0.493l0.173,0.504l0.172,0.493l0.517,1.513l0.16,0.505l0.172,0.492l0.16,0.505l0.173,0.505l0.16,0.504l0.172,0.517l0.64,2.019l0.16,0.516l0.148,0.505l0.16,0.517l0.147,0.517l0.16,0.505l0.739,2.584l0.135,0.505l0.148,0.529l0.271,1.034l0.147,0.529l0.123,0.517l0.136,0.529l0.135,0.517l0.136,0.529l0.738,3.176l0.111,0.529l0.111,0.542l0.123,0.529l0.098,0.529l0.222,1.083l0.098,0.542l0.111,0.541l0.295,1.625l0.086,0.541l0.099,0.554l0.086,0.542l0.086,0.553l0.086,0.542l0.074,0.554l0.086,0.554l0.222,1.661l0.061,0.566l0.074,0.554l0.062,0.566l0.061,0.554l0.062,0.566l0.049,0.567l0.062,0.566l0.098,1.132l0.037,0.578l0.049,0.567l0.037,0.578l0.037,0.566l0.037,0.579l0.025,0.578l0.037,0.579l0.049,1.169l-0,0.283l0.024,0.591l0,0.295l0.025,0.579l0,0.59l0.012,0.296l0,2.67l-0.012,0.296l0,0.308l-0.012,0.295l-0,0.295l-0.013,0.308l0,0.295l-0.049,1.207l-0.049,1.218l-0.012,0.295l-0.025,0.308l-0.012,0.308l-0.025,0.307l-0.012,0.308l-0.049,0.616l-0.013,0.307l-0.123,1.539l-0.037,0.307l-0.024,0.32l-0.025,0.308l-0.037,0.308l-0.024,0.307l-0.037,0.32l-0.037,0.308l-0.025,0.32l-0.037,0.308l-0.037,0.32l-0.037,0.308l-0.037,0.32l-0.037,0.307l-0.073,0.64l-0.05,0.32l-0.037,0.32l-0.049,0.308l-0.037,0.32l-0.098,0.64l-0.037,0.32l-0.148,0.96l-0.061,0.32l-0.05,0.332l-0.098,0.64l-0.062,0.32l-0.049,0.333l-0.123,0.64l-0.049,0.332l-0.062,0.32l-0.123,0.664l-0.061,0.32l-0.074,0.333l-0.062,0.332l-0.061,0.32l-0.074,0.332l-0.062,0.333l-0.073,0.332l-0.062,0.332l-0.074,0.32l-0.147,0.665l-0.074,0.345l-0.148,0.664l-0.086,0.332l-0.074,0.333l-0.074,0.344l-0.172,0.665l-0.074,0.345l-0.172,0.664l-0.173,0.689l-0.086,0.333l-0.098,0.344l-0.173,0.69l-0.098,0.332l-0.086,0.345l-0.689,2.412l-0.111,0.344l-0.099,0.357l-0.11,0.345l-0.099,0.345l-0.111,0.357l-0.11,0.344l-0.111,0.357l-0.222,0.689l-0.221,0.714l-0.123,0.345l-0.111,0.357l-0.123,0.357l-0.111,0.357l-0.492,1.427l-0.123,0.345l-0.123,0.369l-0.136,0.357l-0.123,0.357l-0.135,0.357l-0.123,0.369l-0.271,0.714l-0.136,0.369l-0.135,0.357l-0.135,0.369l-0.136,0.357l-0.147,0.369l-0.136,0.37l-0.147,0.357l-0.136,0.369l-0.886,2.215l-0.16,0.369l-0.148,0.37l-0.16,0.369l-0.147,0.381l-0.32,0.739l-0.16,0.381l-0.16,0.37l-0.16,0.381l-0.173,0.382l-0.16,0.369l-0.16,0.382l-0.172,0.369l-1.206,2.671l-0.185,0.381l-0.172,0.382l-0.185,0.393l-0.369,0.764l-0.185,0.393l-0.184,0.382l-0.185,0.394l-0.197,0.381l-0.369,0.788l-0.197,0.382l-0.985,1.969l-0.209,0.394l-0.197,0.393l-0.209,0.394l-0.197,0.406l-0.628,1.182l-0.418,0.812l-0.222,0.394l-0.209,0.406l-0.221,0.394l-0.222,0.406l-0.209,0.406l-0.443,0.813l-0.234,0.406l-0.443,0.812l-0.234,0.406l-0.221,0.407l-0.234,0.406l-0.234,0.418l-0.468,0.812l-0.234,0.419l-0.246,0.406l-0.234,0.419l-0.246,0.418l-0.246,0.406l-0.234,0.419l-0.492,0.837l-0.259,0.418l-0.246,0.406l-0.246,0.431l-0.775,1.255l-0.247,0.419l-0.258,0.431l-0.271,0.418l-0.258,0.418l-0.259,0.431l-0.27,0.431l-0.271,0.418l-0.259,0.431l-0.541,0.862l-0.283,0.431l-0.271,0.418l-0.271,0.443l-0.566,0.862l-0.271,0.43l-0.566,0.862l-0.295,0.443l-0.283,0.431l-0.283,0.443l-0.296,0.431l-0.295,0.443l-0.283,0.443l-0.296,0.431l-0.295,0.443l-0.308,0.443l-0.591,0.886l-0.615,0.886l-0.308,0.455l-0.012,0.013l0.012,0.012l0.308,0.455l0.615,0.887l0.591,0.886l0.308,0.443l0.295,0.443l0.296,0.431l0.283,0.443l0.295,0.443l0.296,0.431l0.283,0.443l0.283,0.43l0.295,0.443l0.566,0.862l0.271,0.431l0.283,0.431l0.283,0.443l0.271,0.418l0.271,0.431l0.283,0.431l0.541,0.861l0.259,0.431l0.271,0.418l0.27,0.431l0.259,0.419l0.258,0.43l0.271,0.419l0.258,0.431l0.247,0.418l0.517,0.837l0.258,0.431l0.246,0.406l0.246,0.418l0.259,0.419l0.492,0.837l0.234,0.418l0.246,0.406l0.246,0.419l0.234,0.418l0.246,0.406l0.234,0.419l0.468,0.812l0.234,0.419l0.234,0.406l0.221,0.406l0.234,0.406l0.443,0.812l0.234,0.407l0.443,0.812l0.209,0.406l0.222,0.406l0.221,0.394l0.209,0.406l0.222,0.406l0.418,0.788l0.21,0.406l0.418,0.788l0.197,0.406l0.209,0.394l0.197,0.394l0.209,0.394l0.985,1.969l0.197,0.381l0.185,0.394l0.197,0.394l0.184,0.382l0.185,0.393l0.369,0.764l0.185,0.393l0.184,0.382l0.185,0.394l0.172,0.381l0.185,0.382l1.034,2.289l0.172,0.369l0.172,0.382l0.16,0.381l0.16,0.37l0.173,0.381l0.16,0.382l0.32,0.738l0.16,0.382l0.16,0.369l0.147,0.369l0.16,0.382l0.148,0.369l0.16,0.369l0.886,2.216l0.136,0.369l0.147,0.357l0.136,0.369l0.147,0.369l0.136,0.357l0.135,0.369l0.135,0.357l0.136,0.369l0.271,0.714l0.123,0.37l0.135,0.356l0.123,0.357l0.136,0.357l0.123,0.37l0.123,0.344l0.492,1.428l0.111,0.357l0.123,0.357l0.111,0.357l0.123,0.344l0.221,0.714l0.222,0.689l0.111,0.357l0.11,0.345l0.111,0.357l0.099,0.344l0.11,0.345l0.099,0.357l0.111,0.345l0.59,2.067l0.087,0.345l0.098,0.344l0.098,0.333l0.173,0.689l0.098,0.345l0.086,0.332l0.173,0.689l0.172,0.665l0.074,0.344l0.172,0.665l0.074,0.345l0.074,0.332l0.086,0.332l0.148,0.665l0.074,0.344l0.147,0.665l0.074,0.32l0.062,0.332l0.073,0.333l0.062,0.332l0.074,0.332l0.061,0.32l0.062,0.333l0.074,0.332l0.061,0.32l0.123,0.665l0.062,0.32l0.049,0.332l0.123,0.64l0.049,0.332l0.062,0.32l0.098,0.64l0.05,0.332l0.061,0.32l0.148,0.96l0.037,0.32l0.098,0.64l0.037,0.32l0.049,0.308l0.037,0.32l0.05,0.32l0.073,0.64l0.037,0.308l0.037,0.32l0.037,0.308l0.037,0.32l0.037,0.307l0.025,0.32l0.037,0.308l0.037,0.32l0.024,0.308l0.037,0.307l0.049,0.628l0.037,0.308l0.123,1.538l0.013,0.308l0.049,0.615l0.012,0.308l0.025,0.308l0.012,0.307l0.025,0.308l0.037,0.911l0.037,0.898l0.036,0.911l0,0.295l0.013,0.308l-0,0.295l0.012,0.296l0,0.307l0.012,0.296l0,2.671l-0.012,0.295l0,0.591l-0.025,0.578l0,0.296l-0.024,0.59l-0,0.283l-0.049,1.17l-0.037,0.578l-0.025,0.579l-0.037,0.578l-0.037,0.566l-0.037,0.579l-0.049,0.566l-0.037,0.578l-0.098,1.133l-0.062,0.566l-0.049,0.566l-0.062,0.566l-0.061,0.554l-0.062,0.566l-0.074,0.554l-0.061,0.566l-0.222,1.662l-0.086,0.553l-0.074,0.554l-0.086,0.542l-0.086,0.554l-0.086,0.541l-0.099,0.554l-0.086,0.542l-0.295,1.624l-0.111,0.542l-0.098,0.541l-0.222,1.083l-0.098,0.53l-0.123,0.529l-0.111,0.541l-0.111,0.53l-0.123,0.529l-0.123,0.541l-0.123,0.517l-0.369,1.588l-0.136,0.529l-0.135,0.517l-0.136,0.529l-0.123,0.517l-0.147,0.53l-0.271,1.033l-0.148,0.517l-0.135,0.53l-0.148,0.504l-0.591,2.068l-0.16,0.504l-0.147,0.517l-0.16,0.517l-0.148,0.505l-0.16,0.517l-0.48,1.514l-0.16,0.517l-0.172,0.504l-0.16,0.505l-0.173,0.504l-0.16,0.505l-0.172,0.492l-0.16,0.505l-0.517,1.514l-0.172,0.492l-0.173,0.505l-0.184,0.492l-0.172,0.505l-0.173,0.492l-0.184,0.505l-0.173,0.492l-0.184,0.492l-0.173,0.505l-0.369,0.984l-0.172,0.493l-0.369,0.997l-1.108,2.954l-0.369,0.972l-0.382,0.984l-0.369,0.973l-0.382,0.984l-0.369,0.973l-0.381,0.984l-0.763,1.945l-1.502,3.889l-0.382,0.972l-0.369,0.985l-0.381,0.972l-1.477,3.89l-0.357,0.972l-0.369,0.972l-0.357,0.985l-0.173,0.48l-0.184,0.492l-0.173,0.492l-0.172,0.48l-0.185,0.493l-0.516,1.477l-0.173,0.48l-0.172,0.492l-0.16,0.492l-0.345,0.985l-0.16,0.492l-0.172,0.493l-0.48,1.476l-0.172,0.505l-0.16,0.492l-0.148,0.493l-0.32,0.984l-0.148,0.505l-0.16,0.492l-0.147,0.505l-0.148,0.492l-0.148,0.505l-0.147,0.492l-0.296,1.009l-0.148,0.493l-0.27,1.009l-0.148,0.504l-0.406,1.514l-0.123,0.505l-0.136,0.505l-0.246,1.009l-0.135,0.517l-0.111,0.504l-0.123,0.517l-0.123,0.505l-0.111,0.517l-0.123,0.504l-0.332,1.551l-0.111,0.505l-0.099,0.517l-0.11,0.529l-0.296,1.551l-0.086,0.517l-0.098,0.529l-0.086,0.517l-0.173,1.058l-0.086,0.517l-0.074,0.529l-0.086,0.53l-0.221,1.587l-0.062,0.542l-0.074,0.529l-0.061,0.542l-0.062,0.529l-0.061,0.541l-0.05,0.542l-0.061,0.529l-0.099,1.083l-0.037,0.542l-0.049,0.554l-0.074,1.083l-0.037,0.554l-0.037,0.541l-0.073,1.662l-0.025,0.553l0,0.284l-0.025,0.553l0,0.283l-0.012,0.271l0,0.283l-0.012,0.283l-0,1.12l-0.013,0.283l0,0.284l0.013,0.283l-0,1.132l0.012,0.283l0,0.283l0.012,0.283l0,0.296l0.025,0.566l0,0.283l0.062,1.44l0.012,0.283l0.024,0.295l0.025,0.579l0.025,0.295l0.012,0.283l0.049,0.591l0.013,0.283l0.098,1.182l0.025,0.283l0.049,0.59l0.037,0.296l0.049,0.591l0.037,0.295l0.025,0.308l0.11,0.886l0.025,0.295l0.037,0.308l0.074,0.591l0.049,0.307l0.037,0.296l0.037,0.307l0.049,0.296l0.037,0.307l0.049,0.296l0.037,0.308l0.099,0.615l0.049,0.295l0.037,0.308l0.049,0.308l0.061,0.307l0.099,0.616l0.049,0.295l0.062,0.32l0.049,0.308l0.061,0.308l0.05,0.307l0.184,0.923l0.062,0.32l0.123,0.616l0.061,0.32l0.062,0.307l0.074,0.32l0.061,0.308l0.074,0.32l0.062,0.308l0.147,0.64l0.074,0.307l0.37,1.6l0.086,0.32l0.074,0.32l0.086,0.32l0.074,0.32l0.344,1.28l0.086,0.333l0.086,0.32l0.087,0.332l0.098,0.32l0.086,0.32l0.086,0.332l0.099,0.333l0.098,0.32l0.086,0.332l0.099,0.332l0.098,0.32l0.099,0.333l0.111,0.332l0.197,0.665l0.11,0.332l0.099,0.332l0.111,0.332l0.098,0.333l0.443,1.329l0.111,0.345l0.123,0.332l0.111,0.345l0.111,0.332l0.123,0.344l0.123,0.333l0.11,0.344l0.124,0.333l0.369,1.034l0.123,0.332l0.135,0.357l0.123,0.332l0.136,0.345l0.123,0.344l0.135,0.357l0.677,1.723l0.135,0.357l0.148,0.345l0.136,0.357l0.147,0.344l0.148,0.357l0.135,0.345l0.443,1.071l0.148,0.344l0.16,0.357l0.148,0.357l0.16,0.357l0.147,0.357l0.48,1.071l0.16,0.369l0.32,0.714l0.173,0.369l0.16,0.357l0.172,0.357l0.16,0.369l0.172,0.369l0.173,0.357l0.344,0.739l0.173,0.357l0.184,0.369l0.173,0.369l0.184,0.369l0.172,0.37l0.739,1.477l0.185,0.381l0.184,0.369l0.197,0.37l0.185,0.381l0.197,0.369l0.197,0.382l0.197,0.369l0.393,0.763l0.197,0.369l0.197,0.382l0.209,0.381l0.197,0.382l0.419,0.763l0.197,0.382l0.209,0.381l0.222,0.382l0.209,0.394l0.209,0.381l0.222,0.382l0.209,0.393l0.221,0.382l0.222,0.394l0.221,0.381l0.222,0.394l0.221,0.382l0.444,0.787l0.467,0.788l0.222,0.394l0.935,1.575l0.246,0.406l0.234,0.394l0.246,0.394l0.246,0.406l0.234,0.394l0.246,0.406l0.247,0.394l0.258,0.406l0.492,0.813l0.259,0.393l0.246,0.407l0.775,1.218l0.259,0.419l0.271,0.406l0.258,0.406l0.271,0.406l0.258,0.418l0.271,0.407l0.271,0.418l0.271,0.406l0.27,0.419l0.271,0.406l0.283,0.418l0.271,0.419l1.699,2.511l0.295,0.43l0.283,0.419l0.295,0.418l0.296,0.431l0.295,0.418l0.296,0.431l0.295,0.419l0.308,0.43l0.295,0.431l0.308,0.431l0.295,0.431l0.308,0.418l0.308,0.443l0.307,0.431l0.32,0.431l0.308,0.431l0.32,0.43l0.308,0.431l0.32,0.443l0.32,0.431l0.32,0.443l0.32,0.431l0.332,0.443l0.32,0.443l0.332,0.443l0.32,0.431l0.997,1.329l0.345,0.443l0.332,0.456l0.345,0.443l0.332,0.443l0.345,0.443l0.344,0.455l0.345,0.443l0.357,0.456l0.344,0.455l0.345,0.443l0.357,0.455l9.797,12.542l-1.366,1.157l-10.782,-11.643l-0.357,-0.382l-0.714,-0.787l-0.369,-0.382l-0.357,-0.394l-0.344,-0.394l-0.357,-0.381l-0.357,-0.394l-0.345,-0.382l-0.344,-0.393l-0.357,-0.382l-0.345,-0.394l-0.345,-0.381l-0.332,-0.382l-0.345,-0.394l-0.344,-0.381l-0.332,-0.382l-0.345,-0.394l-1.662,-1.907l-0.32,-0.382l-0.332,-0.394l-0.32,-0.381l-0.332,-0.382l-0.32,-0.369l-0.64,-0.763l-0.308,-0.382l-0.64,-0.763l-0.308,-0.381l-0.32,-0.369l-0.615,-0.764l-0.308,-0.369l-0.615,-0.763l-0.296,-0.369l-0.307,-0.382l-0.296,-0.369l-0.307,-0.381l-0.591,-0.739l-0.295,-0.381l-0.296,-0.37l-0.283,-0.381l-0.591,-0.739l-0.283,-0.369l-0.283,-0.381l-1.698,-2.216l-0.271,-0.381l-0.271,-0.357l-0.283,-0.369l-1.083,-1.477l-0.259,-0.37l-0.27,-0.369l-0.271,-0.357l-0.775,-1.107l-0.271,-0.357l-0.259,-0.37l-0.246,-0.369l-0.258,-0.357l-0.259,-0.369l-0.246,-0.357l-0.258,-0.369l-0.247,-0.357l-0.246,-0.369l-0.492,-0.714l-0.246,-0.369l-0.246,-0.357l-0.246,-0.37l-0.234,-0.356l-0.246,-0.357l-0.234,-0.357l-0.234,-0.37l-0.234,-0.356l-0.246,-0.357l-0.222,-0.357l-0.701,-1.071l-0.222,-0.357l-0.234,-0.357l-1.55,-2.498l-0.21,-0.357l-0.221,-0.357l-0.209,-0.345l-0.21,-0.357l-0.221,-0.357l-0.209,-0.344l-0.419,-0.714l-0.209,-0.345l-0.197,-0.357l-0.209,-0.344l-0.197,-0.357l-0.209,-0.345l-0.197,-0.357l-0.197,-0.344l-0.197,-0.357l-0.197,-0.345l-0.197,-0.357l-0.394,-0.689l-0.185,-0.357l-0.196,-0.345l-0.185,-0.344l-0.197,-0.357l-1.108,-2.068l-0.172,-0.357l-0.185,-0.344l-0.172,-0.345l-0.185,-0.345l-0.861,-1.723l-0.172,-0.332l-0.173,-0.345l-0.16,-0.344l-0.172,-0.345l-0.16,-0.344l-0.172,-0.333l-0.48,-1.034l-0.16,-0.332l-0.16,-0.344l-0.16,-0.333l-0.16,-0.344l-0.148,-0.345l-0.16,-0.332l-0.148,-0.345l-0.16,-0.332l-0.147,-0.345l-0.148,-0.332l-0.148,-0.345l-0.148,-0.332l-0.147,-0.345l-0.296,-0.664l-0.135,-0.345l-0.148,-0.332l-0.135,-0.333l-0.135,-0.344l-0.148,-0.332l-0.271,-0.665l-0.135,-0.345l-0.406,-0.997l-0.124,-0.332l-0.27,-0.665l-0.246,-0.664l-0.136,-0.332l-0.615,-1.662l-0.111,-0.332l-0.246,-0.665l-0.111,-0.32l-0.123,-0.332l-0.332,-0.997l-0.111,-0.32l-0.222,-0.665l-0.11,-0.32l-0.222,-0.664l-0.098,-0.32l-0.111,-0.333l-0.099,-0.32l-0.11,-0.332l-0.099,-0.32l-0.098,-0.332l-0.099,-0.32l-0.098,-0.333l-0.099,-0.32l-0.098,-0.332l-0.197,-0.64l-0.086,-0.332l-0.099,-0.32l-0.086,-0.333l-0.098,-0.32l-0.173,-0.64l-0.098,-0.332l-0.259,-0.96l-0.086,-0.332l-0.074,-0.32l-0.258,-0.96l-0.148,-0.64l-0.086,-0.32l-0.665,-2.88l-0.061,-0.32l-0.074,-0.32l-0.061,-0.308l-0.074,-0.32l-0.123,-0.64l-0.074,-0.32l-0.062,-0.308l-0.123,-0.64l-0.061,-0.307l-0.062,-0.32l-0.049,-0.32l-0.062,-0.308l-0.061,-0.32l-0.049,-0.32l-0.062,-0.308l-0.049,-0.32l-0.062,-0.307l-0.049,-0.32l-0.049,-0.308l-0.062,-0.32l-0.049,-0.308l-0.049,-0.32l-0.099,-0.615l-0.037,-0.32l-0.049,-0.32l-0.049,-0.308l-0.037,-0.307l-0.049,-0.32l-0.049,-0.308l-0.074,-0.616l-0.05,-0.32l-0.036,-0.307l-0.074,-0.628l-0.148,-1.231l-0.074,-0.627l-0.184,-1.847l-0.05,-0.615l-0.061,-0.615l-0.099,-1.231l-0.037,-0.615l-0.049,-0.616l-0.037,-0.603l-0.037,-0.615l-0.024,-0.603l-0.037,-0.616l-0.025,-0.603l-0.024,-0.615l-0.025,-0.603l-0.012,-0.603l-0.025,-0.616l-0.025,-1.206l0,-0.603l-0.012,-0.603l0,-2.4l0.025,-1.206l0.037,-1.785l0.024,-0.603l0.013,-0.591l0.024,-0.603l0.025,-0.591l0.037,-0.59l0.024,-0.603l0.185,-2.954l0.197,-2.363l0.049,-0.579l0.049,-0.591l0.062,-0.59l0.061,-0.579l0.062,-0.591l0.061,-0.578l0.062,-0.591l0.062,-0.578l0.073,-0.591l0.062,-0.578l0.074,-0.591l0.147,-1.157l0.087,-0.579l0.073,-0.59l0.087,-0.579l0.073,-0.578l0.345,-2.314l0.099,-0.579l0.086,-0.578l0.098,-0.566l0.086,-0.579l0.296,-1.735l0.209,-1.145l0.098,-0.578l0.111,-0.566l0.099,-0.579l0.11,-0.566l0.222,-1.145l0.111,-0.578l0.234,-1.145l0.221,-1.132l0.246,-1.145l0.111,-0.566l0.123,-0.566l0.123,-0.578l0.246,-1.133l0.259,-1.132l0.246,-1.145l0.258,-1.132l0.394,-1.698l0.677,-2.831l0.283,-1.12l0.271,-1.132l0.283,-1.133l0.283,-1.12l0.283,-1.132l0.283,-1.12l0.283,-1.132l0.296,-1.12l0.283,-1.12l0.295,-1.133l0.296,-1.12l0.886,-3.372l1.181,-4.492l0.591,-2.253l0.591,-2.24l0.283,-1.132l0.591,-2.24l0.283,-1.132l0.566,-2.24l0.566,-2.265l0.283,-1.12l0.271,-1.132l0.271,-1.12l0.677,-2.831l0.123,-0.566l0.135,-0.566l0.259,-1.132l0.123,-0.567l0.135,-0.566l0.616,-2.831l0.123,-0.578l0.467,-2.265l0.123,-0.578l0.222,-1.132l0.443,-2.29l0.098,-0.566l0.111,-0.578l0.099,-0.579l0.11,-0.566l0.197,-1.144l0.197,-1.157l0.099,-0.567l0.086,-0.578l0.098,-0.578l0.087,-0.579l0.086,-0.566l0.43,-2.892l0.148,-1.157l0.086,-0.579l0.074,-0.591l0.062,-0.578l0.147,-1.157l0.062,-0.591l0.061,-0.578l0.074,-0.579l0.062,-0.59l0.111,-1.17l0.061,-0.578l0.099,-1.182l0.049,-0.578l0.098,-1.182l0.074,-1.181l0.049,-0.591l0.037,-0.591l0.025,-0.59l0.037,-0.591l0.024,-0.591l0.037,-0.591l0.05,-1.181l0.012,-0.603l0.025,-0.591l0.049,-2.388l0.012,-0.603l0,-2.4l-0.012,-0.603l-0,-0.603l-0.025,-1.206l-0.024,-0.603l-0.013,-0.603l-0.049,-1.219l-0.049,-1.206l-0.074,-1.231l-0.037,-0.603l-0.037,-0.615l-0.049,-0.616l-0.037,-0.603l-0.099,-1.23l-0.123,-1.231l-0.049,-0.616l-0.074,-0.627l-0.061,-0.616l-0.074,-0.615l-0.074,-0.628l-0.074,-0.615l-0.074,-0.628l-0.049,-0.307l-0.037,-0.308l-0.037,-0.32l-0.049,-0.308l-0.037,-0.32l-0.098,-0.615l-0.037,-0.32l-0.049,-0.308l-0.05,-0.32l-0.098,-0.615l-0.099,-0.64l-0.049,-0.308l-0.061,-0.32l-0.05,-0.308l-0.049,-0.32l-0.061,-0.307l-0.062,-0.32l-0.049,-0.32l-0.062,-0.308l-0.061,-0.32l-0.049,-0.32l-0.124,-0.64l-0.061,-0.308l-0.123,-0.64l-0.074,-0.32l-0.062,-0.307l-0.061,-0.32l-0.074,-0.333l-0.061,-0.307l-0.074,-0.32l-0.062,-0.32l-0.221,-0.96l-0.074,-0.333l-0.074,-0.307l-0.074,-0.32l-0.074,-0.333l-0.147,-0.64l-0.087,-0.32l-0.073,-0.32l-0.087,-0.332l-0.073,-0.32l-0.173,-0.64l-0.074,-0.332l-0.258,-0.96l-0.086,-0.333l-0.099,-0.32l-0.086,-0.332l-0.086,-0.32l-0.098,-0.332l-0.087,-0.32l-0.098,-0.333l-0.086,-0.32l-0.099,-0.332l-0.098,-0.32l-0.099,-0.332l-0.098,-0.32l-0.197,-0.665l-0.098,-0.32l-0.197,-0.664l-0.111,-0.333l-0.099,-0.332l-0.11,-0.32l-0.111,-0.332l-0.099,-0.333l-0.332,-0.997l-0.111,-0.32l-0.11,-0.332l-0.111,-0.345l-0.123,-0.32l-0.222,-0.664l-0.123,-0.345l-0.123,-0.332l-0.111,-0.332l-0.492,-1.33l-0.123,-0.344l-0.123,-0.333l-0.136,-0.332l-0.123,-0.344l-0.123,-0.333l-0.135,-0.332l-0.136,-0.345l-0.123,-0.332l-0.135,-0.345l-0.271,-0.664l-0.271,-0.689l-0.135,-0.333l-0.148,-0.344l-0.135,-0.333l-0.148,-0.344l-0.135,-0.345l-0.148,-0.332l-0.148,-0.345l-0.135,-0.344l-0.148,-0.345l-0.147,-0.332l-0.148,-0.345l-0.16,-0.345l-0.295,-0.689l-0.16,-0.344l-0.148,-0.345l-0.16,-0.332l-0.16,-0.345l-0.148,-0.345l-0.32,-0.689l-0.16,-0.357l-0.172,-0.344l-0.32,-0.69l-0.172,-0.344l-0.16,-0.345l-0.173,-0.357l-0.172,-0.344l-0.16,-0.345l-0.172,-0.345l-0.185,-0.357l-0.172,-0.344l-0.173,-0.357l-0.172,-0.345l-0.172,-0.357l-0.185,-0.344l-0.184,-0.357l-0.173,-0.345l-0.184,-0.357l-0.185,-0.344l-0.369,-0.714l-0.185,-0.345l-0.184,-0.357l-0.197,-0.357l-0.185,-0.344l-0.197,-0.357l-0.185,-0.357l-1.181,-2.142l-0.172,-0.295l-0.505,-0.726l0.049,-0.086l-0.049,-0.086l0.505,-0.727l0.172,-0.295l1.181,-2.142l0.382,-0.713l0.382,-0.702l0.369,-0.701l0.369,-0.714l0.369,-0.702l0.357,-0.701l0.185,-0.345l0.344,-0.702l0.185,-0.356l0.345,-0.69l0.332,-0.701l0.345,-0.702l0.16,-0.344l0.332,-0.69l0.16,-0.344l0.332,-0.702l0.32,-0.689l0.616,-1.378l0.16,-0.333l0.295,-0.689l0.16,-0.345l0.295,-0.677l0.296,-0.689l0.283,-0.677l0.283,-0.689l0.283,-0.677l0.135,-0.332l0.542,-1.354l0.258,-0.677l0.136,-0.345l0.135,-0.332l0.246,-0.677l0.136,-0.332l0.246,-0.677l0.369,-0.997l0.234,-0.665l0.246,-0.676l0.111,-0.333l0.234,-0.652l0.221,-0.677l0.111,-0.32l0.332,-0.997l0.21,-0.665l0.209,-0.652l0.111,-0.332l0.197,-0.665l0.098,-0.32l0.295,-0.984l0.197,-0.653l0.099,-0.332l0.369,-1.305l0.086,-0.32l0.271,-0.984l0.172,-0.64l0.246,-0.973l0.16,-0.64l0.16,-0.652l0.087,-0.32l0.073,-0.32l0.148,-0.652l0.443,-1.92l0.136,-0.64l0.196,-0.948l0.062,-0.32l0.074,-0.32l0.123,-0.64l0.061,-0.308l0.062,-0.32l0.111,-0.64l0.123,-0.627l0.172,-0.948l0.16,-0.948l0.197,-1.255l0.049,-0.308l0.05,-0.32l0.086,-0.627l0.049,-0.308l0.172,-1.255l0.037,-0.308l0.049,-0.308l0.074,-0.628l0.074,-0.615l0.074,-0.628l0.074,-0.615l0.061,-0.615l0.074,-0.628l0.049,-0.615l0.123,-1.231l0.099,-1.231l0.037,-0.603l0.049,-0.615l0.074,-1.231l0.037,-0.603l0.037,-0.616l0.049,-1.206l0.025,-0.615l0.024,-0.603l0.013,-0.603l0.024,-0.603l0.025,-1.207l-0,-0.603l0.012,-0.603l0,-2.4l-0.037,-1.797l-0.024,-1.194l-0.025,-0.59l-0.012,-0.603l-0.05,-1.182l-0.037,-0.591l-0.024,-0.59l-0.037,-0.604l-0.025,-0.578l-0.037,-0.591l-0.049,-0.591l-0.074,-1.181l-0.098,-1.182l-0.049,-0.578l-0.099,-1.182l-0.061,-0.578l-0.062,-0.591l-0.049,-0.578l-0.062,-0.591l-0.074,-0.579l-0.061,-0.578l-0.062,-0.591l-0.147,-1.157l-0.062,-0.578l-0.074,-0.591l-0.086,-0.578l-0.148,-1.157l-0.43,-2.893l-0.086,-0.566l-0.087,-0.578l-0.098,-0.579l-0.086,-0.578l-0.099,-0.566l-0.197,-1.157l-0.098,-0.566l-0.099,-0.579l-0.11,-0.566l-0.099,-0.578l-0.111,-0.579l-0.098,-0.566l-0.111,-0.566l-0.111,-0.579l-0.11,-0.566l-0.111,-0.578l-0.222,-1.133l-0.123,-0.578l-0.11,-0.566l-0.124,-0.566l-0.11,-0.567l-0.123,-0.566l-0.123,-0.578l-0.616,-2.831l-0.135,-0.566l-0.123,-0.566l-0.136,-0.566l-0.123,-0.566l-0.135,-0.567l-0.123,-0.566l-0.542,-2.264l-0.135,-0.554l-0.542,-2.265l-0.283,-1.12l-0.566,-2.264l-0.566,-2.24l-0.283,-1.133l-0.591,-2.24l-0.283,-1.132l-0.591,-2.24l-0.591,-2.252l-1.181,-4.493l-0.591,-2.24l-0.295,-1.132l-0.591,-2.24l-0.283,-1.132l-0.296,-1.12l-0.283,-1.133l-0.283,-1.12l-0.283,-1.132l-0.283,-1.12l-0.283,-1.132l-0.271,-1.133l-0.283,-1.132l-0.135,-0.554l-0.542,-2.264l-0.123,-0.566l-0.271,-1.133l-0.123,-0.566l-0.135,-0.566l-0.123,-0.566l-0.123,-0.579l-0.136,-0.566l-0.369,-1.698l-0.123,-0.579l-0.123,-0.566l-0.111,-0.566l-0.123,-0.566l-0.123,-0.579l-0.221,-1.132l-0.124,-0.578l-0.11,-0.567l-0.111,-0.578l-0.111,-0.566l-0.111,-0.579l-0.11,-0.566l-0.099,-0.578l-0.111,-0.566l-0.197,-1.157l-0.11,-0.567l-0.296,-1.735l-0.086,-0.578l-0.098,-0.567l-0.086,-0.578l-0.099,-0.578l-0.345,-2.314l-0.073,-0.579l-0.087,-0.591l-0.073,-0.578l-0.087,-0.578l-0.147,-1.157l-0.074,-0.591l-0.062,-0.579l-0.073,-0.59l-0.062,-0.579l-0.062,-0.591l-0.061,-0.578l-0.062,-0.591l-0.061,-0.578l-0.062,-0.591l-0.098,-1.182l-0.049,-0.578l-0.148,-1.772l-0.185,-2.954l-0.024,-0.603l-0.037,-0.591l-0.025,-0.591l-0.024,-0.603l-0.013,-0.591l-0.024,-0.603l-0.062,-2.991l0,-2.4l0.012,-0.603l0,-0.603l0.025,-1.206l0.025,-0.615l0.012,-0.603l0.025,-0.603l0.024,-0.616l0.025,-0.603l0.037,-0.615l0.024,-0.603l0.037,-0.616l0.037,-0.603l0.049,-0.615l0.037,-0.616l0.099,-1.23l0.061,-0.616l0.05,-0.615l0.184,-1.846l0.074,-0.628l0.148,-1.231l0.11,-0.935l0.087,-0.628l0.037,-0.307l0.098,-0.628l0.086,-0.616l0.049,-0.32l0.037,-0.307l0.197,-1.256l0.16,-0.935l0.062,-0.32l0.049,-0.32l0.111,-0.628l0.061,-0.32l0.062,-0.307l0.111,-0.64l0.123,-0.628l0.061,-0.32l0.062,-0.308l0.074,-0.32l0.123,-0.64l0.135,-0.627l0.074,-0.32l0.061,-0.32l0.591,-2.56l0.16,-0.64l0.148,-0.64l0.258,-0.96l0.16,-0.653l0.173,-0.64l0.184,-0.652l0.173,-0.64l0.369,-1.305l0.197,-0.64l0.591,-1.957l0.418,-1.304l0.332,-0.985l0.222,-0.664l0.221,-0.653l0.222,-0.664l0.234,-0.653l0.246,-0.664l0.234,-0.665l0.369,-0.997l0.259,-0.664l0.246,-0.665l0.27,-0.665l0.259,-0.664l0.271,-0.665l0.135,-0.345l0.271,-0.664l0.283,-0.677l0.135,-0.332l0.148,-0.333l0.135,-0.344l0.443,-1.01l0.591,-1.353l0.16,-0.333l0.308,-0.677l0.148,-0.344l0.16,-0.345l0.16,-0.332l0.32,-0.677l0.32,-0.689l0.332,-0.677l0.492,-1.034l0.345,-0.677l0.861,-1.723l0.185,-0.345l0.357,-0.689l0.172,-0.357l1.108,-2.068l0.763,-1.403l0.394,-0.689l0.591,-1.058l0.394,-0.702l0.812,-1.403l0.209,-0.345l0.419,-0.713l0.418,-0.702l0.431,-0.714l0.431,-0.701l1.329,-2.142l0.911,-1.428l0.233,-0.356l0.456,-0.714l0.246,-0.357l0.468,-0.714l0.234,-0.369l0.48,-0.714l0.246,-0.369l0.492,-0.727l0.738,-1.083l0.505,-0.726l0.246,-0.357l0.517,-0.726l0.505,-0.738l0.529,-0.726l0.517,-0.739l0.541,-0.726l0.53,-0.739l0.812,-1.107l0.283,-0.369l0.542,-0.739l1.698,-2.215l0.566,-0.751l0.591,-0.739l0.283,-0.381l0.591,-0.751l0.591,-0.738l0.307,-0.382l0.296,-0.369l0.307,-0.382l0.604,-0.75l0.307,-0.382l0.308,-0.369l0.615,-0.763l0.628,-0.751l0.948,-1.145l0.64,-0.763l0.32,-0.369l0.332,-0.381l0.652,-0.763l0.32,-0.394l1.662,-1.908l0.677,-0.775l0.344,-0.382l0.345,-0.394l0.332,-0.381l0.345,-0.382l0.345,-0.394l0.357,-0.381l0.344,-0.394l0.702,-0.775l0.357,-0.382l0.344,-0.394l0.357,-0.394l0.726,-0.775l0.714,-0.775l10.806,-11.631l1.354,1.157Zm-47.705,353.304l0.123,0.345l0.136,0.344l0.246,0.69l0.135,0.332l0.37,1.034l0.123,0.332l0.123,0.345l0.11,0.344l0.124,0.333l0.123,0.344l0.11,0.345l0.111,0.332l0.123,0.332l0.222,0.69l0.221,0.664l0.111,0.345l0.111,0.332l0.111,0.345l0.11,0.332l0.099,0.332l0.111,0.345l0.098,0.332l0.111,0.333l0.098,0.344l0.493,1.662l0.098,0.344l0.099,0.333l0.086,0.332l0.098,0.332l0.086,0.333l0.099,0.332l0.258,0.997l0.099,0.332l0.086,0.333l0.074,0.32l0.258,0.996l0.074,0.333l0.086,0.32l0.086,0.332l0.148,0.665l0.086,0.32l0.222,0.997l0.074,0.32l0.073,0.332l0.074,0.32l0.074,0.332l0.062,0.32l0.073,0.333l0.062,0.32l0.074,0.332l0.061,0.32l0.074,0.332l0.062,0.32l0.061,0.332l0.062,0.32l0.061,0.333l0.185,0.96l0.062,0.332l0.061,0.32l0.049,0.32l0.062,0.32l0.049,0.332l0.062,0.32l0.098,0.64l0.062,0.32l0.049,0.32l0.049,0.333l0.197,1.28l0.037,0.32l0.098,0.64l0.037,0.307l0.05,0.32l0.036,0.32l0.05,0.32l0.074,0.64l0.086,0.64l0.074,0.628l0.061,0.64l0.074,0.628l0.061,0.627l0.062,0.64l0.123,1.256l0.148,1.883l0.037,0.628l0.049,0.627l0.037,0.628l0.037,0.615l0.024,0.628l0.037,0.615l0.025,0.628l0.049,1.243l0.013,0.616l0.024,0.615l0.025,1.231l-0,0.627l0.012,0.604l0,2.461l-0.049,2.437l-0.012,0.603l-0.025,0.615l-0.012,0.604l-0.05,1.206l-0.037,0.615l-0.024,0.603l-0.074,1.206l-0.037,0.591l-0.037,0.603l-0.049,0.603l-0.037,0.603l-0.049,0.591l-0.099,1.206l-0.049,0.591l-0.062,0.603l-0.049,0.591l-0.061,0.591l-0.062,0.603l-0.184,1.772l-0.074,0.603l-0.074,0.591l-0.062,0.591l-0.074,0.59l-0.086,0.591l-0.074,0.591l-0.073,0.578l-0.087,0.591l-0.073,0.591l-0.087,0.591l-0.086,0.578l-0.086,0.591l-0.086,0.578l-0.098,0.591l-0.087,0.579l-0.098,0.59l-0.099,0.579l-0.098,0.591l-0.086,0.578l-0.111,0.578l-0.098,0.579l-0.099,0.591l-0.111,0.578l-0.098,0.579l-0.111,0.578l-0.098,0.579l-0.333,1.735l-0.123,0.578l-0.11,0.579l-0.111,0.566l-0.123,0.578l-0.111,0.579l-0.246,1.157l-0.123,0.566l-0.111,0.578l-0.135,0.567l-0.247,1.157l-0.123,0.566l-0.123,0.578l-0.135,0.566l-0.123,0.566l-0.136,0.579l-0.123,0.566l-0.135,0.579l-0.406,1.698l-0.136,0.578l-0.541,2.265l-0.283,1.145l-0.271,1.132l-0.566,2.265l-0.283,1.12l-0.296,1.132l-0.283,1.132l-0.295,1.133l-0.295,1.12l-0.296,1.132l-0.283,1.12l-0.295,1.132l-0.591,2.24l-1.182,4.492l-0.59,2.253l-0.887,3.36l-0.566,2.24l-0.295,1.12l-0.283,1.132l-0.566,2.24l-0.271,1.12l-0.283,1.12l-0.271,1.12l-0.135,0.566l-0.136,0.554l-0.135,0.566l-0.123,0.566l-0.136,0.554l-0.135,0.566l-0.123,0.567l-0.135,0.553l-0.124,0.567l-0.135,0.566l-0.123,0.554l-0.246,1.132l-0.136,0.566l-0.123,0.554l-0.123,0.566l-0.11,0.566l-0.124,0.554l-0.123,0.566l-0.11,0.566l-0.123,0.566l-0.333,1.699l-0.123,0.554l-0.111,0.566l-0.098,0.566l-0.222,1.132l-0.098,0.567l-0.111,0.566l-0.394,2.264l-0.098,0.579l-0.197,1.132l-0.172,1.132l-0.099,0.579l-0.258,1.698l-0.074,0.579l-0.086,0.566l-0.074,0.578l-0.086,0.567l-0.074,0.566l-0.074,0.578l-0.074,0.566l-0.061,0.579l-0.074,0.578l-0.062,0.566l-0.074,0.579l-0.061,0.566l-0.123,1.157l-0.05,0.578l-0.061,0.567l-0.246,2.892l-0.037,0.578l-0.049,0.579l-0.074,1.157l-0.025,0.59l-0.074,1.157l-0.024,0.579l-0.025,0.591l-0.025,0.578l-0.024,0.591l-0.025,1.157l-0.024,1.181l-0.025,1.17l0,2.35l0.012,0.591l0,0.591l0.025,1.181l0.025,0.591l0.012,0.603l0.074,1.773l0.024,0.603l0.037,0.59l0.037,0.603l0.037,0.591l0.037,0.603l0.049,0.591l0.037,0.603l0.049,0.603l0.062,0.603l0.049,0.591l0.062,0.603l0.061,0.616l0.123,1.206l0.148,1.206l0.074,0.615l0.037,0.296l0.037,0.307l0.049,0.296l0.037,0.307l0.049,0.308l0.037,0.308l0.049,0.295l0.037,0.308l0.099,0.615l0.037,0.296l0.196,1.23l0.062,0.308l0.148,0.923l0.061,0.308l0.049,0.308l0.062,0.307l0.049,0.308l0.185,0.923l0.049,0.308l0.185,0.923l0.074,0.307l0.061,0.32l0.062,0.308l0.074,0.308l0.061,0.308l0.062,0.32l0.147,0.615l0.062,0.32l0.148,0.615l0.073,0.32l0.148,0.616l0.074,0.32l0.074,0.307l0.086,0.32l0.148,0.616l0.172,0.64l0.074,0.307l0.086,0.32l0.086,0.308l0.172,0.64l0.087,0.308l0.172,0.64l0.086,0.308l0.086,0.32l0.099,0.32l0.086,0.307l0.197,0.64l0.086,0.32l0.295,0.96l0.099,0.308l0.295,0.96l0.111,0.32l0.098,0.32l0.111,0.32l0.099,0.32l0.221,0.64l0.099,0.32l0.11,0.332l0.333,0.96l0.123,0.32l0.11,0.333l0.111,0.32l0.123,0.32l0.111,0.32l0.123,0.332l0.123,0.32l0.111,0.332l0.246,0.64l0.123,0.332l0.123,0.32l0.136,0.333l0.246,0.64l0.135,0.332l0.123,0.332l0.136,0.32l0.135,0.333l0.123,0.32l0.271,0.664l0.135,0.32l0.136,0.333l0.147,0.332l0.136,0.332l0.135,0.32l0.296,0.665l0.135,0.332l1.034,2.326l0.16,0.333l0.147,0.332l0.16,0.332l0.148,0.333l0.64,1.329l0.16,0.344l0.32,0.665l0.173,0.345l0.16,0.332l0.172,0.332l0.16,0.345l0.344,0.664l0.173,0.345l0.172,0.332l0.172,0.345l0.173,0.332l0.172,0.345l0.185,0.332l0.172,0.345l0.185,0.344l0.184,0.333l0.172,0.344l0.185,0.345l0.185,0.332l0.369,0.69l0.197,0.344l0.184,0.345l0.185,0.332l0.197,0.345l0.185,0.344l1.181,2.068l0.209,0.345l0.197,0.344l0.21,0.357l0.196,0.345l0.628,1.034l0.209,0.357l0.628,1.033l0.222,0.357l0.209,0.345l0.221,0.357l0.222,0.344l0.222,0.357l0.209,0.345l0.234,0.357l0.221,0.345l0.443,0.713l0.234,0.345l0.222,0.357l0.233,0.357l0.234,0.344l0.702,1.071l0.234,0.345l0.234,0.357l0.246,0.357l0.037,0.073l-0.148,-0.258l-0.234,-0.406l-0.234,-0.394l-0.443,-0.788l-0.234,-0.394l-0.886,-1.575l-0.209,-0.394l-0.222,-0.381l-0.209,-0.394l-0.221,-0.394l-0.21,-0.381l-0.418,-0.788l-0.419,-0.763l-0.197,-0.394l-0.418,-0.763l-1.378,-2.671l-0.37,-0.763l-0.197,-0.369l-0.369,-0.763l-0.184,-0.37l-0.185,-0.381l-0.369,-0.739l-0.173,-0.381l-0.184,-0.369l-0.345,-0.739l-0.172,-0.381l-0.689,-1.477l-0.16,-0.369l-0.173,-0.357l-0.32,-0.739l-0.172,-0.369l-0.16,-0.357l-0.16,-0.369l-0.16,-0.357l-0.148,-0.369l-0.16,-0.357l-0.16,-0.37l-0.147,-0.356l-0.148,-0.37l-0.16,-0.357l-0.443,-1.07l-0.136,-0.357l-0.295,-0.714l-0.135,-0.357l-0.148,-0.357l-0.271,-0.714l-0.147,-0.357l-0.136,-0.344l-0.123,-0.357l-0.135,-0.345l-0.271,-0.714l-0.123,-0.344l-0.136,-0.345l-0.123,-0.357l-0.246,-0.689l-0.123,-0.357l-0.492,-1.379l-0.111,-0.344l-0.123,-0.345l-0.222,-0.689l-0.123,-0.345l-0.221,-0.689l-0.111,-0.332l-0.098,-0.345l-0.111,-0.344l-0.111,-0.333l-0.098,-0.344l-0.111,-0.333l-0.099,-0.344l-0.197,-0.665l-0.098,-0.344l-0.295,-0.997l-0.099,-0.345l-0.086,-0.332l-0.099,-0.333l-0.086,-0.332l-0.098,-0.332l-0.345,-1.329l-0.086,-0.32l-0.086,-0.333l-0.074,-0.332l-0.086,-0.32l-0.086,-0.332l-0.074,-0.333l-0.074,-0.32l-0.086,-0.332l-0.074,-0.32l-0.074,-0.332l-0.147,-0.64l-0.074,-0.333l-0.074,-0.32l-0.062,-0.32l-0.074,-0.32l-0.061,-0.332l-0.074,-0.32l-0.123,-0.64l-0.074,-0.32l-0.184,-0.96l-0.05,-0.308l-0.123,-0.64l-0.049,-0.32l-0.062,-0.307l-0.049,-0.32l-0.061,-0.32l-0.05,-0.32l-0.098,-0.616l-0.049,-0.32l-0.049,-0.307l-0.05,-0.32l-0.098,-0.616l-0.037,-0.32l-0.099,-0.615l-0.073,-0.616l-0.05,-0.32l-0.184,-1.538l-0.025,-0.308l-0.037,-0.307l-0.037,-0.296l-0.024,-0.307l-0.037,-0.308l-0.025,-0.308l-0.037,-0.308l-0.024,-0.295l-0.05,-0.603l-0.024,-0.308l-0.025,-0.295l-0.024,-0.308l-0.05,-0.603l-0.024,-0.295l-0.013,-0.308l-0.024,-0.295l-0.013,-0.296l-0.024,-0.295l-0.037,-0.899l-0.025,-0.295l-0.037,-0.886l0,-0.295l-0.037,-0.887l0,-0.295l-0.012,-0.295l0,-0.296l-0.012,-0.295l-0,-1.157l-0.012,-0.295l-0,-0.296l0.012,-0.578l-0,-0.862l0.012,-0.295l0.025,-1.145l0.012,-0.283l0.012,-0.578l0.062,-1.416l0.037,-0.566l0.024,-0.566l0.074,-1.132l0.05,-0.554l0.036,-0.566l0.099,-1.108l0.049,-0.566l0.185,-1.662l0.061,-0.541l0.062,-0.554l0.074,-0.554l0.061,-0.542l0.074,-0.553l0.074,-0.542l0.086,-0.541l0.074,-0.542l0.258,-1.625l0.087,-0.529l0.098,-0.541l0.098,-0.53l0.087,-0.541l0.11,-0.529l0.099,-0.542l0.098,-0.529l0.111,-0.529l0.099,-0.53l0.221,-1.058l0.123,-0.517l0.111,-0.529l0.123,-0.529l0.111,-0.517l0.123,-0.53l0.123,-0.517l0.135,-0.516l0.123,-0.53l0.123,-0.517l0.542,-2.067l0.135,-0.505l0.136,-0.517l0.147,-0.517l0.136,-0.504l0.148,-0.517l0.147,-0.505l0.148,-0.517l0.295,-1.009l0.148,-0.517l0.16,-0.505l0.148,-0.504l0.32,-1.009l0.307,-1.01l0.16,-0.504l0.173,-0.505l0.32,-0.997l0.172,-0.504l0.332,-0.997l0.16,-0.493l0.69,-1.994l0.344,-0.984l0.185,-0.505l0.172,-0.492l0.714,-1.969l0.172,-0.493l0.37,-0.984l0.356,-0.985l0.37,-0.984l0.369,-0.973l0.369,-0.984l0.382,-0.985l0.738,-1.945l0.763,-1.957l0.751,-1.944l1.514,-3.902l0.369,-0.972l0.382,-0.972l0.369,-0.973l0.381,-0.972l0.37,-0.985l0.738,-1.944l0.369,-0.985l0.37,-0.972l0.357,-0.985l0.541,-1.477l0.529,-1.464l0.345,-0.985l0.185,-0.492l0.344,-0.997l0.16,-0.492l0.172,-0.493l0.345,-0.997l0.16,-0.492l0.332,-0.997l0.16,-0.492l0.173,-0.492l0.32,-1.01l0.16,-0.492l0.147,-0.505l0.16,-0.504l0.16,-0.493l0.296,-1.009l0.307,-1.009l0.444,-1.514l0.135,-0.504l0.148,-0.505l0.135,-0.517l0.135,-0.505l0.148,-0.517l0.135,-0.504l0.136,-0.517l0.123,-0.505l0.135,-0.517l0.123,-0.517l0.136,-0.504l0.492,-2.068l0.111,-0.529l0.123,-0.517l0.221,-1.034l0.222,-1.058l0.099,-0.517l0.11,-0.529l0.099,-0.53l0.098,-0.517l0.099,-0.529l0.098,-0.541l0.086,-0.53l0.099,-0.529l0.086,-0.529l0.086,-0.542l0.086,-0.529l0.074,-0.541l0.086,-0.53l0.296,-2.166l0.061,-0.541l0.074,-0.542l0.062,-0.554l0.049,-0.541l0.061,-0.542l0.062,-0.554l0.148,-1.661l0.036,-0.554l0.05,-0.554l0.037,-0.554l0.037,-0.566l0.024,-0.554l0.037,-0.566l0.049,-1.132l0.025,-0.554l0.012,-0.578l0.013,-0.284l0.012,-0.566l0.012,-0.283l0,-0.578l0.012,-0.566l0,-2.314l-0.012,-0.296l0,-0.283l-0.012,-0.295l-0,-0.295l-0.012,-0.284l-0,-0.295l-0.124,-2.941l-0.024,-0.296l-0.012,-0.307l-0.025,-0.296l-0.012,-0.295l-0.05,-0.591l-0.024,-0.308l-0.013,-0.295l-0.024,-0.308l-0.025,-0.295l-0.037,-0.308l-0.024,-0.295l-0.05,-0.603l-0.036,-0.308l-0.05,-0.603l-0.11,-0.923l-0.025,-0.296l-0.185,-1.538l-0.049,-0.308l-0.037,-0.307l-0.037,-0.32l-0.049,-0.308l-0.037,-0.308l-0.098,-0.615l-0.05,-0.32l-0.049,-0.308l-0.037,-0.32l-0.049,-0.308l-0.062,-0.307l-0.098,-0.64l-0.049,-0.308l-0.062,-0.32l-0.049,-0.32l-0.062,-0.32l-0.049,-0.308l-0.431,-2.24l-0.073,-0.32l-0.123,-0.64l-0.074,-0.332l-0.074,-0.32l-0.062,-0.32l-0.074,-0.32l-0.073,-0.332l-0.074,-0.32l-0.074,-0.333l-0.074,-0.32l-0.074,-0.332l-0.086,-0.332l-0.074,-0.32l-0.086,-0.332l-0.074,-0.333l-0.086,-0.32l-0.086,-0.332l-0.074,-0.332l-0.345,-1.33l-0.098,-0.332l-0.086,-0.345l-0.099,-0.332l-0.086,-0.332l-0.098,-0.332l-0.086,-0.345l-0.099,-0.332l-0.098,-0.345l-0.099,-0.332l-0.098,-0.345l-0.099,-0.332l-0.111,-0.345l-0.098,-0.332l-0.098,-0.345l-0.222,-0.689l-0.098,-0.332l-0.554,-1.723l-0.123,-0.357l-0.222,-0.69l-0.123,-0.344l-0.123,-0.357l-0.111,-0.345l-0.123,-0.344l-0.123,-0.357l-0.123,-0.345l-0.123,-0.357l-0.136,-0.357l-0.123,-0.344l-0.123,-0.357l-0.135,-0.357l-0.123,-0.357l-0.136,-0.345l-0.541,-1.427l-0.135,-0.37l-0.148,-0.357l-0.136,-0.356l-0.147,-0.357l-0.136,-0.37l-0.295,-0.713l-0.295,-0.739l-0.148,-0.357l-0.148,-0.369l-0.147,-0.357l-0.32,-0.738l-0.148,-0.37l-0.16,-0.357l-0.16,-0.381l-0.64,-1.477l-0.172,-0.369l-0.16,-0.37l-0.173,-0.381l-0.16,-0.369l-0.172,-0.382l-0.172,-0.369l-0.173,-0.382l-0.172,-0.369l-0.172,-0.381l-0.185,-0.382l-0.172,-0.369l-0.185,-0.382l-0.172,-0.381l-0.923,-1.908l-0.197,-0.381l-0.185,-0.394l-0.197,-0.382l-0.184,-0.381l-0.197,-0.394l-0.197,-0.382l-0.197,-0.394l-0.197,-0.381l-0.197,-0.394l-0.209,-0.394l-0.197,-0.381l-0.209,-0.394l-0.197,-0.394l-1.046,-1.969l-0.222,-0.406l-0.209,-0.394l-0.222,-0.394l-0.221,-0.406l-0.21,-0.394l-0.221,-0.406l-0.222,-0.394l-0.233,-0.406l-0.222,-0.406l-0.222,-0.394l-0.233,-0.406l-0.21,-0.37l0.037,0.074Zm12.48,-309.181l-0.467,0.714l-0.234,0.344l-0.702,1.071l-0.234,0.345l-0.233,0.356l-0.222,0.357l-0.234,0.345l-0.443,0.714l-0.221,0.344l-0.222,0.357l-0.221,0.345l-0.222,0.357l-0.222,0.345l-0.221,0.356l-0.209,0.345l-0.222,0.345l-0.209,0.357l-0.419,0.689l-0.209,0.357l-0.628,1.034l-0.196,0.344l-0.21,0.357l-0.197,0.345l-0.209,0.344l-1.181,2.068l-0.185,0.345l-0.197,0.344l-0.185,0.333l-0.184,0.344l-0.197,0.345l-0.369,0.689l-0.185,0.332l-0.369,0.69l-0.172,0.332l-0.185,0.345l-0.172,0.344l-0.185,0.332l-0.172,0.345l-0.173,0.332l-0.172,0.345l-0.345,0.665l-0.172,0.344l-0.172,0.333l-0.16,0.344l-0.172,0.332l-0.16,0.333l-0.173,0.344l-0.32,0.665l-0.16,0.345l-0.64,1.329l-0.148,0.332l-0.16,0.332l-0.147,0.333l-0.16,0.332l-1.034,2.326l-0.135,0.333l-0.296,0.664l-0.135,0.32l-0.136,0.332l-0.147,0.333l-0.136,0.332l-0.135,0.32l-0.271,0.665l-0.123,0.32l-0.135,0.332l-0.136,0.32l-0.123,0.332l-0.135,0.333l-0.246,0.64l-0.136,0.332l-0.123,0.32l-0.123,0.332l-0.246,0.64l-0.111,0.333l-0.123,0.32l-0.123,0.332l-0.111,0.32l-0.123,0.32l-0.111,0.32l-0.11,0.332l-0.123,0.32l-0.443,1.28l-0.099,0.332l-0.221,0.64l-0.099,0.32l-0.111,0.32l-0.098,0.32l-0.111,0.32l-0.394,1.28l-0.098,0.308l-0.197,0.64l-0.086,0.32l-0.197,0.64l-0.086,0.308l-0.099,0.32l-0.086,0.32l-0.086,0.308l-0.259,0.96l-0.086,0.307l-0.086,0.32l-0.086,0.308l-0.086,0.32l-0.074,0.308l-0.172,0.64l-0.148,0.615l-0.086,0.32l-0.074,0.308l-0.074,0.32l-0.148,0.615l-0.073,0.32l-0.148,0.615l-0.062,0.32l-0.147,0.616l-0.062,0.32l-0.061,0.308l-0.074,0.307l-0.062,0.308l-0.061,0.32l-0.074,0.308l-0.185,0.923l-0.049,0.307l-0.185,0.923l-0.049,0.308l-0.062,0.308l-0.049,0.308l-0.061,0.307l-0.148,0.923l-0.062,0.308l-0.196,1.231l-0.037,0.295l-0.099,0.616l-0.037,0.307l-0.049,0.296l-0.037,0.307l-0.049,0.308l-0.037,0.308l-0.049,0.295l-0.037,0.308l-0.037,0.295l-0.074,0.616l-0.148,1.206l-0.061,0.615l-0.062,0.591l-0.061,0.615l-0.062,0.603l-0.049,0.591l-0.062,0.603l-0.049,0.603l-0.037,0.603l-0.049,0.591l-0.037,0.603l-0.037,0.591l-0.037,0.603l-0.037,0.591l-0.049,1.194l-0.049,1.181l-0.012,0.603l-0.025,0.591l-0.025,1.182l0,0.59l-0.012,0.591l0,2.351l0.049,2.351l0.025,1.157l0.024,0.59l0.025,0.579l0.049,1.169l0.074,1.157l0.025,0.591l0.074,1.157l0.049,0.578l0.037,0.579l0.246,2.892l0.061,0.566l0.05,0.578l0.123,1.157l0.061,0.567l0.074,0.578l0.062,0.566l0.074,0.579l0.061,0.578l0.074,0.566l0.074,0.579l0.074,0.566l0.086,0.566l0.074,0.578l0.086,0.567l0.074,0.578l0.258,1.699l0.099,0.578l0.172,1.132l0.197,1.133l0.098,0.578l0.394,2.265l0.111,0.566l0.098,0.566l0.222,1.132l0.098,0.566l0.111,0.567l0.123,0.553l0.333,1.699l0.123,0.566l0.11,0.566l0.123,0.566l0.124,0.554l0.11,0.566l0.123,0.567l0.123,0.553l0.136,0.567l0.246,1.132l0.123,0.554l0.135,0.566l0.124,0.566l0.135,0.554l0.123,0.566l0.135,0.566l0.136,0.554l0.123,0.566l0.135,0.554l0.271,1.132l0.271,1.12l0.283,1.12l0.271,1.12l0.849,3.36l0.295,1.133l0.566,2.24l0.887,3.36l0.59,2.252l1.182,4.492l0.591,2.24l0.295,1.133l0.283,1.12l0.296,1.132l0.295,1.12l0.295,1.132l0.283,1.132l0.296,1.133l0.283,1.12l0.566,2.264l0.271,1.133l0.283,1.144l0.541,2.265l0.136,0.578l0.406,1.699l0.135,0.578l0.123,0.566l0.136,0.579l0.123,0.566l0.135,0.566l0.123,0.579l0.123,0.566l0.247,1.157l0.135,0.566l0.111,0.578l0.123,0.567l0.246,1.156l0.111,0.579l0.123,0.578l0.111,0.566l0.11,0.579l0.123,0.578l0.333,1.736l0.098,0.578l0.111,0.579l0.098,0.578l0.111,0.579l0.099,0.59l0.098,0.579l0.111,0.578l0.086,0.579l0.098,0.591l0.099,0.578l0.098,0.591l0.087,0.578l0.098,0.591l0.086,0.578l0.086,0.591l0.086,0.579l0.087,0.59l0.073,0.591l0.087,0.591l0.073,0.591l0.074,0.578l0.086,0.591l0.074,0.591l0.062,0.591l0.074,0.59l0.074,0.603l0.246,2.363l0.061,0.604l0.049,0.59l0.062,0.603l0.049,0.591l0.099,1.206l0.049,0.591l0.037,0.603l0.049,0.603l0.037,0.603l0.037,0.591l0.037,0.603l0.037,0.616l0.024,0.59l0.037,0.616l0.05,1.206l0.012,0.603l0.025,0.615l0.036,1.822l0.025,1.218l0,2.462l-0.012,0.603l-0,0.628l-0.025,1.23l-0.024,0.616l-0.013,0.615l-0.024,0.628l-0.025,0.615l-0.025,0.628l-0.037,0.615l-0.024,0.628l-0.037,0.615l-0.037,0.628l-0.049,0.628l-0.037,0.627l-0.148,1.884l-0.185,1.883l-0.061,0.64l-0.074,0.627l-0.061,0.64l-0.074,0.628l-0.086,0.64l-0.074,0.64l-0.05,0.32l-0.036,0.32l-0.05,0.32l-0.037,0.308l-0.098,0.64l-0.037,0.32l-0.197,1.28l-0.049,0.332l-0.049,0.32l-0.062,0.32l-0.098,0.64l-0.062,0.32l-0.049,0.332l-0.062,0.32l-0.049,0.32l-0.061,0.32l-0.062,0.333l-0.185,0.96l-0.061,0.332l-0.062,0.32l-0.061,0.332l-0.062,0.32l-0.074,0.333l-0.061,0.32l-0.074,0.332l-0.062,0.32l-0.073,0.332l-0.062,0.32l-0.074,0.332l-0.074,0.32l-0.073,0.333l-0.074,0.32l-0.222,0.997l-0.086,0.32l-0.148,0.664l-0.086,0.333l-0.086,0.32l-0.074,0.332l-0.258,0.997l-0.074,0.32l-0.086,0.332l-0.099,0.332l-0.258,0.997l-0.099,0.333l-0.086,0.332l-0.197,0.665l-0.086,0.332l-0.098,0.345l-0.493,1.661l-0.098,0.345l-0.111,0.332l-0.098,0.332l-0.111,0.345l-0.099,0.332l-0.11,0.333l-0.111,0.344l-0.111,0.332l-0.111,0.345l-0.221,0.665l-0.222,0.689l-0.123,0.332l-0.111,0.333l-0.11,0.344l-0.123,0.345l-0.124,0.332l-0.11,0.345l-0.123,0.344l-0.123,0.333l-0.37,1.033l-0.135,0.333l-0.246,0.689l-0.136,0.345l-0.123,0.344l-0.037,0.074l0.21,-0.369l0.233,-0.406l0.444,-0.8l0.233,-0.406l0.443,-0.8l0.21,-0.394l0.443,-0.8l0.431,-0.8l0.836,-1.576l0.407,-0.787l0.406,-0.776l0.209,-0.394l0.394,-0.775l0.197,-0.394l0.394,-0.775l0.184,-0.382l0.382,-0.775l0.197,-0.382l0.923,-1.907l0.172,-0.382l0.185,-0.381l0.357,-0.751l0.172,-0.382l0.689,-1.501l0.333,-0.751l0.332,-0.739l0.32,-0.738l0.32,-0.751l0.16,-0.357l0.32,-0.738l0.148,-0.369l0.16,-0.37l0.295,-0.726l0.443,-1.095l0.295,-0.714l0.136,-0.369l0.283,-0.714l0.283,-0.726l0.541,-1.428l0.259,-0.701l0.258,-0.714l0.123,-0.345l0.136,-0.357l0.123,-0.344l0.246,-0.714l0.234,-0.69l0.123,-0.356l0.234,-0.69l0.234,-0.701l0.554,-1.723l0.098,-0.333l0.222,-0.689l0.098,-0.332l0.209,-0.689l0.197,-0.677l0.099,-0.333l0.197,-0.677l0.184,-0.676l0.185,-0.665l0.184,-0.677l0.345,-1.329l0.16,-0.665l0.086,-0.32l0.234,-0.984l0.16,-0.665l0.148,-0.652l0.147,-0.64l0.136,-0.653l0.148,-0.652l0.123,-0.64l0.073,-0.32l0.431,-2.24l0.049,-0.308l0.111,-0.64l0.062,-0.32l0.049,-0.307l0.049,-0.32l0.111,-0.628l0.098,-0.628l0.087,-0.627l0.098,-0.616l0.037,-0.308l0.049,-0.307l0.074,-0.628l0.049,-0.308l0.148,-1.23l0.062,-0.603l0.11,-0.924l0.025,-0.295l0.061,-0.615l0.025,-0.296l0.025,-0.307l0.061,-0.603l0.025,-0.296l0.024,-0.308l0.037,-0.603l0.025,-0.295l0.037,-0.591l0.061,-0.898l0.099,-2.363l0.012,-0.283l0.013,-0.591l0.012,-0.283l0.012,-0.591l0,-0.283l0.012,-0.591l0,-2.301l-0.012,-0.283l0,-0.579l-0.012,-0.283l-0,-0.283l-0.037,-0.849l-0,-0.283l-0.012,-0.296l-0.013,-0.271l-0.049,-1.132l-0.037,-0.566l-0.024,-0.554l-0.037,-0.566l-0.037,-0.554l-0.05,-0.554l-0.036,-0.554l-0.148,-1.661l-0.062,-0.554l-0.061,-0.541l-0.049,-0.542l-0.062,-0.554l-0.074,-0.541l-0.061,-0.542l-0.296,-2.166l-0.086,-0.529l-0.074,-0.542l-0.086,-0.529l-0.086,-0.542l-0.086,-0.529l-0.099,-0.529l-0.086,-0.529l-0.098,-0.542l-0.099,-0.529l-0.098,-0.517l-0.099,-0.529l-0.11,-0.529l-0.099,-0.517l-0.222,-1.059l-0.221,-1.034l-0.123,-0.517l-0.111,-0.529l-0.492,-2.067l-0.136,-0.505l-0.123,-0.517l-0.135,-0.517l-0.123,-0.505l-0.136,-0.516l-0.135,-0.505l-0.148,-0.517l-0.27,-1.009l-0.148,-0.517l-0.135,-0.505l-0.739,-2.523l-0.16,-0.504l-0.148,-0.505l-0.16,-0.492l-0.16,-0.505l-0.147,-0.505l-0.16,-0.492l-0.16,-0.505l-0.16,-0.492l-0.173,-0.504l-0.16,-0.493l-0.16,-0.504l-0.172,-0.493l-0.16,-0.492l-0.172,-0.505l-0.345,-0.984l-0.16,-0.493l-0.172,-0.492l-0.172,-0.504l-0.185,-0.493l-0.517,-1.477l-0.185,-0.492l-0.172,-0.48l-0.185,-0.492l-0.172,-0.493l-0.184,-0.492l-0.357,-0.985l-0.37,-0.972l-0.369,-0.984l-1.108,-2.917l-0.381,-0.985l-0.369,-0.972l-0.382,-0.973l-0.369,-0.972l-0.763,-1.957l-1.502,-3.889l-0.381,-0.972l-0.382,-0.985l-0.738,-1.945l-0.382,-0.984l-0.369,-0.985l-0.369,-0.972l-0.37,-0.985l-0.356,-0.984l-0.37,-0.985l-0.172,-0.492l-0.185,-0.493l-0.172,-0.492l-0.185,-0.492l-0.344,-0.985l-0.185,-0.504l-0.517,-1.477l-0.172,-0.505l-0.172,-0.492l-0.173,-0.505l-0.16,-0.492l-0.172,-0.505l-0.16,-0.492l-0.172,-0.505l-0.16,-0.504l-0.16,-0.493l-0.173,-0.504l-0.32,-1.01l-0.147,-0.504l-0.32,-1.009l-0.148,-0.505l-0.16,-0.505l-0.148,-0.517l-0.295,-1.009l-0.148,-0.517l-0.147,-0.504l-0.148,-0.517l-0.136,-0.505l-0.147,-0.517l-0.136,-0.504l-0.677,-2.585l-0.123,-0.517l-0.123,-0.529l-0.135,-0.517l-0.123,-0.517l-0.123,-0.529l-0.111,-0.517l-0.123,-0.529l-0.111,-0.53l-0.123,-0.517l-0.221,-1.058l-0.099,-0.529l-0.111,-0.529l-0.098,-0.53l-0.099,-0.541l-0.11,-0.529l-0.087,-0.53l-0.196,-1.083l-0.087,-0.529l-0.258,-1.625l-0.074,-0.541l-0.086,-0.542l-0.074,-0.541l-0.074,-0.554l-0.061,-0.542l-0.074,-0.553l-0.062,-0.554l-0.061,-0.542l-0.185,-1.661l-0.049,-0.567l-0.099,-1.107l-0.036,-0.566l-0.05,-0.554l-0.074,-1.133l-0.024,-0.566l-0.037,-0.566l-0.049,-1.132l-0.013,-0.296l0,-0.283l-0.024,-0.566l-0.013,-0.295l0,-0.283l-0.012,-0.283l0,-0.283l-0.012,-0.296l-0,-1.157l-0.012,-0.283l-0,-0.295l0.012,-0.579l-0,-0.886l0.012,-0.283l0.025,-1.181l0.024,-0.887l0.025,-0.59l0.037,-0.591l0.025,-0.603l0.036,-0.591l0.013,-0.295l0.037,-0.603l0.098,-1.207l0.074,-0.898l0.086,-0.911l0.062,-0.615l0.024,-0.308l0.074,-0.603l0.025,-0.308l0.184,-1.538l0.05,-0.32l0.073,-0.615l0.099,-0.616l0.037,-0.32l0.098,-0.615l0.05,-0.32l0.049,-0.308l0.049,-0.32l0.098,-0.615l0.05,-0.32l0.11,-0.64l0.111,-0.628l0.123,-0.64l0.111,-0.628l0.062,-0.32l0.135,-0.64l0.123,-0.64l0.074,-0.32l0.135,-0.652l0.062,-0.32l0.148,-0.652l0.073,-0.32l0.148,-0.653l0.074,-0.32l0.16,-0.652l0.074,-0.332l0.172,-0.653l0.074,-0.332l0.258,-0.984l0.173,-0.665l0.369,-1.329l0.086,-0.333l0.099,-0.344l0.295,-0.997l0.394,-1.354l0.111,-0.332l0.209,-0.677l0.111,-0.345l0.209,-0.677l0.221,-0.689l0.123,-0.345l0.222,-0.689l0.234,-0.689l0.369,-1.034l0.246,-0.701l0.246,-0.69l0.123,-0.357l0.136,-0.344l0.258,-0.702l0.136,-0.357l0.135,-0.344l0.259,-0.702l0.147,-0.357l0.136,-0.357l0.849,-2.141l0.443,-1.071l0.308,-0.726l0.147,-0.357l0.32,-0.726l0.308,-0.726l0.32,-0.727l0.332,-0.738l0.333,-0.726l0.16,-0.369l0.861,-1.847l0.345,-0.75l0.357,-0.751l0.369,-0.739l0.369,-0.75l0.185,-0.382l0.381,-0.751l0.37,-0.763l1.181,-2.289l0.406,-0.763l0.406,-0.775l0.419,-0.763l0.418,-0.788l0.862,-1.551l0.431,-0.788l0.664,-1.181l0.234,-0.394l0.443,-0.788l0.234,-0.394l0.234,-0.406l0.148,-0.246l-0.05,0.062Z"/></g><g id="F"><path d="M378.001,808.526c17.949,-12.12 31.354,-21.295 39.988,-27.638c8.633,-6.229 17.721,-14.045 27.037,-23.333c9.315,-9.287 17.153,-19.821 23.515,-31.488c4.998,-8.608 9.315,-18.576 12.837,-29.902c3.521,-11.214 5.339,-22.087 5.68,-32.395c-0,-9.627 -1.25,-18.802 -3.863,-27.41c-2.499,-8.722 -6.816,-15.857 -12.95,-21.634c-6.135,-5.663 -14.087,-8.495 -23.97,-8.495c-9.542,-0 -18.517,1.925 -26.923,5.663c-8.293,3.851 -14.2,9.968 -17.495,18.576c0,0.793 -0.454,1.812 -1.136,3.285c0.228,1.812 1.136,3.171 2.84,4.191c1.704,1.019 3.181,1.472 4.544,1.472c0.682,0 2.613,-0.34 5.567,-1.019c3.067,-0.68 5.566,-1.133 7.611,-1.133c6.021,0 11.36,2.152 16.245,6.343c4.771,4.191 7.157,9.288 7.157,15.291c-0,4.304 -1.25,8.382 -3.635,12.12c-2.386,3.737 -5.68,6.796 -9.884,8.948c-4.203,2.265 -8.861,3.284 -13.859,3.284c-9.088,0 -16.813,-2.718 -23.174,-8.268c-6.248,-5.663 -9.429,-12.799 -9.429,-21.747c-0,-11.44 3.521,-21.295 10.451,-29.676c7.043,-8.382 15.904,-14.612 26.81,-18.803c10.792,-4.304 21.697,-6.343 32.83,-6.343c12.155,0 23.743,3.059 34.535,9.288c10.905,6.117 19.425,14.612 25.787,25.146c6.362,10.647 9.656,21.973 9.656,34.206c-0,21.747 -7.27,41.909 -21.811,60.598c-14.541,18.689 -32.49,34.886 -53.96,48.705c-14.314,9.401 -37.489,22.087 -69.41,38.057l-1.591,-5.889Zm157.791,-175.224c0,-4.078 1.477,-7.476 4.431,-10.194c2.84,-2.832 6.361,-4.191 10.564,-4.191c3.636,-0 7.044,1.586 10.111,4.644c3.067,2.945 4.544,6.456 4.544,10.307c-0,4.078 -1.591,7.589 -4.544,10.421c-3.181,2.718 -6.703,4.077 -10.679,4.077c-4.203,0 -7.611,-1.359 -10.337,-4.417c-2.727,-2.945 -4.09,-6.456 -4.09,-10.647Zm0,59.352c0,-4.078 1.477,-7.589 4.203,-10.308c2.84,-2.831 6.362,-4.191 10.792,-4.191c3.636,0 6.93,1.473 10.111,4.531c2.953,3.058 4.544,6.343 4.544,9.968c-0,4.417 -1.477,7.928 -4.317,10.76c-2.954,2.832 -6.362,4.304 -10.338,4.304c-4.43,0 -7.952,-1.472 -10.792,-4.191c-2.726,-2.718 -4.203,-6.343 -4.203,-10.873Z" style="fill:#131516;stroke:#131516;stroke-width:0.34px;stroke-linecap:butt;stroke-linejoin:miter;stroke-miterlimit:4;"/></g><g id="G"><path d="M450.98,287.037c-5.531,1.134 -10.656,4.168 -15.547,9.002c-4.898,4.922 -7.52,10.537 -7.948,16.748c-0.269,3.905 0.759,8.433 3.014,13.315c2.248,4.969 5.924,8.7 10.841,11.268c1.665,0.472 2.405,1.414 2.319,2.656c-0.031,0.444 -0.684,0.845 -2.221,1.095c-7.954,-2.599 -14.325,-7.407 -19.037,-14.241c-4.706,-6.922 -6.86,-14.56 -6.45,-23.091c0.897,-9.122 4.243,-17.45 10.029,-24.897c5.883,-7.528 13.118,-12.646 21.705,-15.353l-3.964,-31.924c-14.482,10.413 -26.415,21.447 -35.901,33.275c-9.479,11.739 -14.851,24.831 -16.205,39.27c-0.269,6.49 0.631,12.882 2.705,19.088c2.068,6.295 5.425,12.055 10.057,17.456c9.36,10.721 22.074,16.858 37.96,18.489c5.45,0.019 11.299,-0.558 17.636,-1.726l-8.993,-70.43Zm6.465,-0.446l9.168,69.195c14.078,-4.556 21.754,-16.063 23.016,-34.342c-0.378,-6.178 -1.778,-11.803 -4.465,-16.892c-2.593,-5.171 -6.238,-9.346 -11.023,-12.529c-4.785,-3.183 -10.291,-4.989 -16.696,-5.432Zm-11.867,-93.542c3.058,-1.573 6.652,-4.445 10.599,-8.542c3.941,-4.007 7.848,-8.82 11.62,-14.265c3.867,-5.529 7.029,-11.195 9.485,-16.999c2.45,-5.715 3.814,-11.238 4.169,-16.385c0.153,-2.218 0.129,-4.448 -0.182,-6.432c-0.135,-3.219 -0.942,-5.771 -2.516,-7.573c-1.579,-1.714 -3.653,-2.749 -6.322,-2.933c-5.336,-0.368 -10.367,2.584 -15.09,8.855c-3.683,5.453 -6.905,12.006 -9.389,19.502c-2.578,7.579 -4.261,15.13 -4.972,22.838c-0.161,8.815 0.766,16.101 2.598,21.934Zm-5.959,4.76c-3.011,-14.651 -4.224,-29.446 -3.641,-44.384c0.75,-9.578 2.347,-18.472 4.791,-26.684c2.354,-8.219 5.43,-15.229 9.239,-21.207c3.72,-5.984 7.869,-10.423 12.359,-13.323c4.02,-2.576 6.883,-3.894 8.394,-3.789c1.157,0.079 2.105,0.59 2.939,1.451c0.834,0.859 1.899,2.27 3.2,4.143c9.55,15.726 13.638,34.197 12.182,55.315c-0.693,10.028 -2.7,19.697 -6.043,29.274c-3.247,9.493 -7.708,18.458 -13.372,26.715c-5.76,8.341 -12.329,15.466 -19.803,21.459l4.793,35.459c3.944,-0.174 6.638,-0.345 8.15,-0.241c6.76,0.466 12.711,2.304 18.119,5.53c5.408,3.227 9.948,7.374 13.525,12.524c3.583,5.062 6.228,10.771 7.934,17.131c1.618,6.352 2.327,12.909 1.862,19.654c-0.723,10.47 -4.142,19.863 -10.251,28.09c-6.108,8.227 -14.815,13.956 -26.216,17.271c0.411,4.398 1.222,10.783 2.532,18.987c1.217,8.286 2.104,14.856 2.663,19.709c0.559,4.854 0.596,9.492 0.284,14.018c-0.484,7.009 -2.602,13.104 -6.362,18.373c-3.849,5.262 -8.768,9.202 -14.847,11.814c-5.991,2.619 -12.499,3.685 -19.437,3.206c-9.785,-0.675 -18.135,-4.015 -25.055,-9.931c-6.914,-6.005 -10.32,-13.64 -10.027,-23.07c0.555,-4.153 1.802,-7.99 3.839,-11.593c2.037,-3.605 4.646,-6.456 7.919,-8.549c3.189,-2.187 6.922,-3.177 11.121,-3.155c3.469,0.24 6.693,1.443 9.678,3.521c2.889,2.161 5.203,4.906 6.844,8.318c1.552,3.406 2.28,7.112 2.01,11.016c-0.361,5.235 -2.446,9.549 -6.255,12.942c-3.809,3.393 -8.474,4.943 -13.9,4.569l-2.046,-0.142c3.102,5.564 8.605,8.707 16.521,9.254c4.003,0.276 8.156,-0.329 12.358,-1.644c4.297,-1.398 7.919,-3.376 11.051,-6.013c3.131,-2.638 5.296,-5.52 6.317,-8.659c1.763,-3.533 2.824,-8.543 3.259,-14.842c0.293,-4.26 0.143,-8.55 -0.364,-12.864c-0.513,-4.226 -1.373,-9.903 -2.585,-16.94c-1.219,-6.949 -2.097,-12.36 -2.557,-16.047c-5.429,0.963 -10.993,1.293 -16.775,0.894c-9.696,-0.67 -18.723,-3.254 -27.076,-7.842c-8.352,-4.588 -15.534,-10.612 -21.626,-18.165c-6.004,-7.547 -10.523,-15.883 -13.545,-25.186c-2.94,-9.207 -4.159,-18.742 -3.575,-28.509c0.98,-9.026 3.271,-17.606 7.037,-25.548c3.771,-8.032 8.402,-15.558 13.974,-22.485c5.572,-6.926 11.279,-13.22 17.115,-18.79c5.92,-5.476 13.645,-12.521 23.349,-21.035Z" style="fill:#131516;stroke:#131516;stroke-width:0.27px;stroke-linecap:butt;stroke-linejoin:miter;stroke-miterlimit:4;"/></g><g><g><g transform="matrix(1,0,0,1,-7.10543e-15,8.60501e-06)"><text x="43.784px" y="935.724px" style="font-family:'Arial-BoldMT', 'Arial', sans-serif;font-weight:700;font-size:48px;">Horizontal</text></g><g transform="matrix(1,0,0,1,0,8.60501e-06)"><text x="289.995px" y="935.724px" style="font-family:'Arial-BoldMT', 'Arial', sans-serif;font-weight:700;font-size:48px;">Analysis</text></g></g></g><g><g><g transform="matrix(1,0,0,1,-1.42109e-14,9.67176e-06)"><text x="107.652px" y="1051.72px" style="font-family:'Arial-BoldMT', 'Arial', sans-serif;font-weight:700;font-size:48px;">V</text></g><g transform="matrix(1,0,0,1,0,9.67176e-06)"><text x="137.019px" y="1051.72px" style="font-family:'Arial-BoldMT', 'Arial', sans-serif;font-weight:700;font-size:48px;">ertical</text></g><g transform="matrix(1,0,0,1,-5.68434e-14,9.67176e-06)"><text x="289.995px" y="1051.72px" style="font-family:'Arial-BoldMT', 'Arial', sans-serif;font-weight:700;font-size:48px;">Analysis</text></g></g></g><g><g transform="matrix(1,0,0,1,-2.84217e-14,1.06915e-05)"><text x="131.09px" y="1162.61px" style="font-family:'Arial-BoldMT', 'Arial', sans-serif;font-weight:700;font-size:48px;">Chord Function</text></g></g></g></g></svg>