<?xml version="1.0" encoding="UTF-8" standalone="no"?><!DOCTYPE svg PUBLIC "-//W3C//DTD SVG 1.1//EN" "http://www.w3.org/Graphics/SVG/1.1/DTD/svg11.dtd"><svg width="1500.0px" height="1250.0px" viewBox="0 0 1500 1250" version="1.1" xmlns="http://www.w3.org/2000/svg" xmlns:xlink="http://www.w3.org/1999/xlink" xml:space="preserve" xmlns:serif="http://www.serif.com/" style="fill-rule:evenodd;clip-rule:evenodd;stroke-linecap:round;stroke-linejoin:round;stroke-miterlimit:1.5;"><g><g id="melo_modal-chordal-combination2"><rect x="0" y="0" width="1500.01" height="1250" style="fill:none;"/><g id="大譜表"><g id="外枠"><rect x="341.988" y="107.414" width="1090.8" height="700" style="fill:#fff;fill-opacity:0.78;stroke:#000;stroke-width:2.01px;"/></g><g id="_--G線" serif:id="↑ G線"><path d="M342.002,287.413l1090.81,-0" style="fill:none;stroke:#000;stroke-width:1.99px;"/></g><g id="_--E線" serif:id="↑ E線"><path d="M342.002,347.412l1090.81,-0" style="fill:none;stroke:#000;stroke-width:1.99px;"/></g><g id="_--B線" serif:id="↑ B線"><path d="M342.002,227.412l1090.81,-0" style="fill:none;stroke:#000;stroke-width:1.99px;"/></g><g id="_--D線" serif:id="↑ D線"><path d="M342.002,167.413l1090.81,-0" style="fill:none;stroke:#000;stroke-width:1.99px;"/></g><g id="_--B線1" serif:id="↓ B線"><path d="M342.002,747.412l1090.81,0" style="fill:none;stroke:#000;stroke-width:1.99px;"/></g><g id="_--D線1" serif:id="↓ D線"><path d="M342.002,687.412l1090.81,0" style="fill:none;stroke:#000;stroke-width:1.99px;"/></g><g id="_--F線" serif:id="↓ F線"><path d="M342.002,627.412l1090.81,0" style="fill:none;stroke:#000;stroke-width:1.99px;"/></g><g id="_--A線" serif:id="↓ A線"><path d="M342.002,567.413l1090.81,-0" style="fill:none;stroke:#000;stroke-width:1.99px;"/></g></g><g><path d="M934.001,889.991l-420.006,0l0,90.003l420.006,0l40.007,-44.999l-40.007,-45.004Z" style="fill:#f63;"/></g><g><path d="M1404.03,889.991l-460.013,0l40.007,45.004l-40.007,44.999l460.013,0l-0,-90.003Z" style="fill:#49b656;"/></g><g><path d="M934.001,999.991l-420.006,0l0,90.003l420.006,0l40.007,-44.999l-40.007,-45.004Z" style="fill:#49b656;"/></g><g><path d="M1404.03,999.991l-460.013,0l40.007,45.004l-40.007,44.999l460.013,0l-0,-90.003Z" style="fill:#f63;"/></g><g id="bar3"><path d="M1431.72,108.416l-0,698" style="fill:none;stroke:#000;stroke-width:3.99px;"/></g><g><g transform="matrix(1,0,0,1,-1.13687e-13,9.77537e-06)"><text x="624.468px" y="1062.99px" style="font-family:'Arial-BoldMT', 'Arial', sans-serif;font-weight:700;font-size:48px;fill:#fff;">3rd(</text></g><g transform="matrix(1,0,0,1,-1.13687e-13,9.77537e-06)"><text x="715.147px" y="1062.99px" style="font-family:'HiraKakuProN-W6', 'Hiragino Kaku Gothic ProN', sans-serif;font-weight:600;font-size:48px;fill:#fff;">澄明</text></g><g transform="matrix(1,0,0,1,-1.13687e-13,9.77537e-06)"><text x="811.146px" y="1062.99px" style="font-family:'Arial-BoldMT', 'Arial', sans-serif;font-weight:700;font-size:48px;fill:#fff;">)</text></g></g><g><g transform="matrix(1,0,0,1,0,8.75215e-06)"><text x="582.84px" y="951.724px" style="font-family:'NotoSansSC-Bold', 'Noto Sans SC', sans-serif;font-weight:700;font-size:48px;fill:#fff;">导音</text></g><g transform="matrix(1,0,0,1,-1.13687e-13,8.75215e-06)"><text x="678.839px" y="951.724px" style="font-family:'Arial-BoldMT', 'Arial', sans-serif;font-weight:700;font-size:48px;fill:#fff;">(</text></g><g transform="matrix(1,0,0,1,-1.13687e-13,8.75215e-06)"><text x="694.825px" y="951.724px" style="font-family:'NotoSansSC-Bold', 'Noto Sans SC', sans-serif;font-weight:700;font-size:48px;fill:#fff;">强倾向</text></g><g transform="matrix(1,0,0,1,0,8.75215e-06)"><text x="838.824px" y="951.724px" style="font-family:'Arial-BoldMT', 'Arial', sans-serif;font-weight:700;font-size:48px;fill:#fff;">)</text></g></g><g><g><g transform="matrix(1,0,0,1,-7.10543e-15,8.69697e-06)"><text x="45.784px" y="945.724px" style="font-family:'Arial-BoldMT', 'Arial', sans-serif;font-weight:700;font-size:48px;">Horizontal</text></g><g transform="matrix(1,0,0,1,0,8.69697e-06)"><text x="291.995px" y="945.724px" style="font-family:'Arial-BoldMT', 'Arial', sans-serif;font-weight:700;font-size:48px;">Analysis</text></g></g></g><g><g><g transform="matrix(1,0,0,1,-1.42109e-14,9.76372e-06)"><text x="109.652px" y="1061.72px" style="font-family:'Arial-BoldMT', 'Arial', sans-serif;font-weight:700;font-size:48px;">V</text></g><g transform="matrix(1,0,0,1,-2.84217e-14,9.76372e-06)"><text x="139.02px" y="1061.72px" style="font-family:'Arial-BoldMT', 'Arial', sans-serif;font-weight:700;font-size:48px;">ertical</text></g><g transform="matrix(1,0,0,1,0,9.76372e-06)"><text x="291.996px" y="1061.72px" style="font-family:'Arial-BoldMT', 'Arial', sans-serif;font-weight:700;font-size:48px;">Analysis</text></g></g></g><g><rect x="513.89" y="1110.88" width="890.004" height="90" style="fill:#f63;"/></g><g><g transform="matrix(1,0,0,1,-2.84217e-14,1.07834e-05)"><text x="133.091px" y="1172.61px" style="font-family:'Arial-BoldMT', 'Arial', sans-serif;font-weight:700;font-size:48px;">Chord Function</text></g></g><g><g transform="matrix(1,0,0,1,-1.13687e-13,1.07951e-05)"><text x="835.036px" y="1173.88px" style="font-family:'Arial-BoldMT', 'Arial', sans-serif;font-weight:700;font-size:48px;fill:#fff;">Dominant</text></g></g><g><g transform="matrix(1,0,0,1,-2.27374e-13,8.75215e-06)"><text x="1052.84px" y="951.724px" style="font-family:'HiraKakuProN-W6', 'Hiragino Kaku Gothic ProN', sans-serif;font-weight:600;font-size:48px;fill:#fff;">主音</text></g><g transform="matrix(1,0,0,1,0,8.75215e-06)"><text x="1148.84px" y="951.724px" style="font-family:'Arial-BoldMT', 'Arial', sans-serif;font-weight:700;font-size:48px;fill:#fff;">(</text></g><g transform="matrix(1,0,0,1,-2.27374e-13,8.75215e-06)"><text x="1164.83px" y="951.724px" style="font-family:'NotoSansSC-Bold', 'Noto Sans SC', sans-serif;font-weight:700;font-size:48px;fill:#fff;">无倾向</text></g><g transform="matrix(1,0,0,1,-2.27374e-13,8.75215e-06)"><text x="1308.83px" y="951.724px" style="font-family:'Arial-BoldMT', 'Arial', sans-serif;font-weight:700;font-size:48px;fill:#fff;">)</text></g></g><g><g transform="matrix(1,0,0,1,-2.27374e-13,9.77537e-06)"><text x="1027.82px" y="1062.99px" style="font-family:'Arial-BoldMT', 'Arial', sans-serif;font-weight:700;font-size:48px;fill:#fff;">4th(</text></g><g transform="matrix(1,0,0,1,0,9.77537e-06)"><text x="1115.8px" y="1062.99px" style="font-family:'NotoSansSC-Bold', 'Noto Sans SC', sans-serif;font-weight:700;font-size:48px;fill:#fff;">浑浊度强</text></g><g transform="matrix(1,0,0,1,-2.27374e-13,9.77537e-06)"><text x="1307.8px" y="1062.99px" style="font-family:'Arial-BoldMT', 'Arial', sans-serif;font-weight:700;font-size:48px;fill:#fff;">)</text></g></g><g id="path7229"><path d="M729.804,718.041c-27.72,-0 -50.175,13.494 -50.175,30.042c-0,16.544 22.455,29.958 50.175,29.958c27.719,0 50.258,-13.414 50.258,-29.958c-0,-16.548 -22.539,-30.042 -50.258,-30.042Zm-12.261,5.44c7.21,-0.093 16.09,2.726 24.441,8.364c14.843,10.018 22.291,25.108 16.643,33.611c-5.648,8.504 -22.261,7.259 -37.104,-2.759c-14.845,-10.021 -22.291,-25.111 -16.646,-33.614c2.474,-3.721 7.062,-5.529 12.666,-5.602Z" style="fill-rule:nonzero;"/></g><g id="path72291" serif:id="path7229"><path d="M729.804,658.041c-27.72,-0 -50.175,13.494 -50.175,30.042c-0,16.544 22.455,29.958 50.175,29.958c27.719,0 50.258,-13.414 50.258,-29.958c-0,-16.548 -22.539,-30.042 -50.258,-30.042Zm-12.261,5.44c7.21,-0.093 16.09,2.726 24.441,8.364c14.843,10.018 22.291,25.108 16.643,33.611c-5.648,8.504 -22.261,7.259 -37.104,-2.759c-14.845,-10.021 -22.291,-25.111 -16.646,-33.614c2.474,-3.721 7.062,-5.529 12.666,-5.602Z" style="fill-rule:nonzero;"/></g><g><path d="M777.375,213.99l1.356,18.237l289.547,-21.542l1.26,16.938l24.116,-27.995l-27.993,-24.118l1.26,16.938l-289.546,21.542Z" style="fill:#f1ab31;"/></g><g id="_2分音符-Ba." serif:id="2分音符 Ba."><g id="onpu"><path d="M707.806,203.929c-17.818,9.549 -27.309,26.831 -21.47,39.833c6.228,13.872 27.635,17.786 47.777,8.741c20.148,-9.045 31.439,-27.65 25.211,-41.517c-6.228,-13.873 -27.635,-17.787 -47.777,-8.741c-1.259,0.566 -2.555,1.044 -3.741,1.684Zm5.824,11.763c1.264,-0.656 2.545,-1.144 3.888,-1.747c17.172,-7.713 33.757,-8.075 37.021,-0.808c3.263,7.261 -8.028,19.418 -25.2,27.131c-17.173,7.712 -33.758,8.074 -37.021,0.808c-3.007,-6.695 6.374,-17.687 21.312,-25.384Z"/></g><g id="しっぽ"><rect x="684.614" y="237.38" width="5" height="180"/></g></g><g id="_2分音符-Ba.1" serif:id="2分音符 Ba."><g id="onpu1" serif:id="onpu"><path d="M1147.81,173.929c-17.818,9.549 -27.31,26.831 -21.47,39.833c6.228,13.872 27.635,17.786 47.777,8.741c20.147,-9.045 31.438,-27.65 25.211,-41.517c-6.228,-13.873 -27.635,-17.787 -47.777,-8.741c-1.26,0.566 -2.556,1.044 -3.741,1.684Zm5.824,11.763c1.264,-0.656 2.544,-1.144 3.887,-1.747c17.173,-7.713 33.758,-8.075 37.022,-0.808c3.263,7.261 -8.028,19.418 -25.201,27.131c-17.172,7.712 -33.757,8.074 -37.021,0.808c-3.006,-6.695 6.375,-17.687 21.313,-25.384Z"/></g><g id="しっぽ1" serif:id="しっぽ"><rect x="1124.62" y="207.38" width="5" height="180"/></g></g><g id="path72292" serif:id="path7229"><path d="M729.804,778.041c-27.72,-0 -50.175,13.494 -50.175,30.042c-0,16.544 22.455,29.958 50.175,29.958c27.719,0 50.258,-13.414 50.258,-29.958c-0,-16.548 -22.539,-30.042 -50.258,-30.042Zm-12.261,5.44c7.21,-0.093 16.09,2.726 24.441,8.364c14.843,10.018 22.291,25.108 16.643,33.611c-5.648,8.504 -22.261,7.259 -37.104,-2.759c-14.845,-10.021 -22.291,-25.111 -16.646,-33.614c2.474,-3.721 7.062,-5.529 12.666,-5.602Z" style="fill-rule:nonzero;"/></g><g id="bar-0" serif:id="bar 0"><path d="M342.004,109.416l0,698" style="fill:none;stroke:#000;stroke-width:6.02px;"/></g><g id="_-" serif:id="{"><path d="M266.76,453.045c69.33,-122.929 -74.672,-186.966 49.231,-320c-121.773,155.495 56.111,167.938 -49.231,320c69.33,122.929 -74.672,186.966 49.231,320c-121.773,-155.496 56.111,-167.939 -49.231,-320Z" style="fill-rule:nonzero;"/><path d="M326.637,121.906l-9.797,12.542l-0.357,0.455l-0.344,0.443l-0.345,0.456l-0.357,0.455l-0.345,0.443l-0.344,0.456l-0.345,0.443l-0.332,0.443l-0.345,0.443l-0.332,0.443l-0.345,0.455l-0.997,1.33l-0.32,0.43l-0.332,0.443l-0.32,0.443l-0.332,0.444l-0.32,0.43l-0.32,0.443l-0.32,0.431l-0.32,0.443l-0.308,0.431l-0.32,0.431l-0.308,0.43l-0.32,0.431l-0.923,1.293l-0.295,0.43l-0.308,0.431l-0.295,0.431l-0.308,0.431l-0.295,0.418l-0.296,0.431l-0.295,0.418l-0.295,0.431l-0.296,0.419l-0.283,0.418l-0.295,0.431l-1.699,2.511l-0.27,0.418l-0.284,0.406l-0.541,0.837l-0.271,0.406l-0.271,0.419l-0.27,0.406l-0.259,0.418l-0.271,0.406l-0.258,0.407l-0.271,0.406l-0.258,0.418l-0.776,1.219l-0.246,0.394l-0.258,0.406l-0.493,0.812l-0.258,0.406l-0.246,0.394l-0.246,0.406l-0.234,0.394l-0.246,0.406l-0.247,0.394l-0.233,0.394l-0.247,0.406l-0.935,1.575l-0.222,0.394l-0.467,0.788l-0.443,0.788l-0.222,0.381l-0.221,0.394l-0.222,0.382l-0.221,0.393l-0.222,0.382l-0.209,0.394l-0.222,0.381l-0.209,0.394l-0.419,0.763l-0.221,0.382l-0.197,0.381l-0.418,0.763l-0.197,0.382l-0.21,0.381l-0.197,0.382l-0.196,0.369l-0.394,0.763l-0.197,0.37l-0.197,0.381l-0.185,0.369l-0.197,0.382l-0.197,0.369l-0.184,0.369l-0.185,0.382l-0.738,1.477l-0.173,0.369l-0.184,0.369l-0.173,0.369l-0.184,0.37l-0.172,0.357l-0.517,1.107l-0.173,0.357l-0.16,0.357l-0.172,0.369l-0.16,0.37l-0.172,0.357l-0.32,0.713l-0.16,0.37l-0.48,1.07l-0.148,0.357l-0.16,0.357l-0.148,0.357l-0.16,0.357l-0.147,0.345l-0.443,1.07l-0.148,0.345l-0.136,0.357l-0.147,0.345l-0.136,0.357l-0.147,0.344l-0.136,0.357l-0.541,1.379l-0.136,0.356l-0.135,0.345l-0.123,0.345l-0.136,0.344l-0.123,0.345l-0.135,0.345l-0.123,0.332l-0.369,1.034l-0.123,0.332l-0.111,0.345l-0.123,0.332l-0.123,0.345l-0.111,0.332l-0.123,0.344l-0.222,0.665l-0.11,0.345l-0.333,0.997l-0.098,0.332l-0.111,0.332l-0.098,0.333l-0.111,0.332l-0.197,0.664l-0.111,0.333l-0.197,0.664l-0.098,0.32l-0.086,0.333l-0.099,0.32l-0.098,0.332l-0.087,0.332l-0.086,0.32l-0.098,0.32l-0.086,0.333l-0.173,0.64l-0.086,0.332l-0.258,0.96l-0.074,0.32l-0.086,0.32l-0.074,0.32l-0.086,0.32l-0.369,1.6l-0.074,0.308l-0.148,0.64l-0.062,0.307l-0.073,0.32l-0.062,0.308l-0.074,0.32l-0.061,0.308l-0.062,0.32l-0.123,0.615l-0.061,0.32l-0.185,0.923l-0.049,0.308l-0.062,0.308l-0.049,0.307l-0.062,0.32l-0.049,0.296l-0.148,0.923l-0.061,0.307l-0.049,0.308l-0.037,0.295l-0.099,0.616l-0.037,0.308l-0.049,0.295l-0.037,0.295l-0.049,0.308l-0.037,0.308l-0.037,0.295l-0.049,0.295l-0.037,0.308l-0.037,0.296l-0.037,0.307l-0.024,0.296l-0.111,0.886l-0.025,0.307l-0.037,0.296l-0.049,0.591l-0.037,0.295l-0.049,0.591l-0.025,0.283l-0.098,1.181l-0.013,0.283l-0.049,0.591l-0.012,0.296l-0.025,0.283l-0.024,0.578l-0.025,0.296l-0.025,0.566l-0.036,0.874l-0.013,0.283l0,0.283l-0.024,0.578l-0,0.283l-0.013,0.283l0,0.283l-0.012,0.283l-0,1.133l-0.012,0.283l-0,0.283l0.012,0.283l-0,1.12l0.012,0.283l0,0.283l0.013,0.271l-0,0.283l0.024,0.554l0,0.283l0.099,2.215l0.037,0.542l0.037,0.554l0.073,1.083l0.05,0.554l0.037,0.541l0.098,1.083l0.062,0.529l0.049,0.542l0.061,0.542l0.062,0.529l0.061,0.541l0.074,0.53l0.062,0.541l0.221,1.588l0.086,0.529l0.074,0.529l0.086,0.517l0.173,1.059l0.086,0.517l0.098,0.529l0.087,0.517l0.295,1.55l0.111,0.53l0.098,0.517l0.111,0.517l0.111,0.504l0.221,1.034l0.123,0.505l0.111,0.517l0.123,0.504l0.123,0.517l0.111,0.505l0.135,0.517l0.247,1.009l0.135,0.504l0.123,0.505l0.406,1.514l0.148,0.505l0.271,1.009l0.147,0.504l0.148,0.493l0.148,0.504l0.147,0.493l0.148,0.504l0.148,0.493l0.147,0.504l0.16,0.492l0.148,0.493l0.16,0.504l0.16,0.493l0.148,0.492l0.16,0.492l0.172,0.505l0.48,1.477l0.172,0.492l0.16,0.492l0.345,0.985l0.16,0.492l0.172,0.493l0.173,0.48l0.517,1.477l0.184,0.48l0.345,0.984l0.185,0.493l0.172,0.48l0.357,0.984l0.369,0.972l0.357,0.973l1.477,3.889l0.381,0.985l0.37,0.972l0.381,0.972l1.502,3.889l0.763,1.945l0.381,0.985l0.37,0.972l0.381,0.985l0.369,0.972l0.382,0.985l0.369,0.972l1.108,2.954l0.369,0.997l0.172,0.492l0.37,0.985l0.172,0.504l0.185,0.492l0.172,0.493l0.184,0.504l0.173,0.493l0.172,0.504l0.185,0.493l0.172,0.504l0.172,0.493l0.345,1.009l0.16,0.504l0.172,0.493l0.173,0.504l0.16,0.505l0.172,0.505l0.16,0.504l0.172,0.505l0.16,0.517l0.48,1.514l0.16,0.516l0.148,0.505l0.16,0.517l0.148,0.505l0.16,0.517l0.738,2.584l0.135,0.517l0.148,0.517l0.271,1.034l0.148,0.529l0.123,0.517l0.135,0.529l0.135,0.517l0.136,0.529l0.738,3.176l0.111,0.529l0.111,0.542l0.123,0.529l0.098,0.529l0.222,1.083l0.098,0.542l0.111,0.541l0.296,1.625l0.086,0.541l0.098,0.554l0.086,0.542l0.086,0.553l0.087,0.542l0.073,0.554l0.087,0.554l0.221,1.661l0.062,0.566l0.074,0.554l0.061,0.566l0.062,0.554l0.061,0.566l0.049,0.567l0.062,0.566l0.098,1.132l0.037,0.578l0.05,0.567l0.036,0.578l0.037,0.566l0.037,0.579l0.025,0.578l0.037,0.579l0.049,1.169l0,0.283l0.025,0.591l-0,0.295l0.024,0.579l0,0.59l0.013,0.296l-0,2.67l-0.013,0.296l0,0.308l-0.012,0.295l-0,0.295l-0.012,0.308l-0,0.295l-0.05,1.207l-0.049,1.218l-0.012,0.295l-0.025,0.32l-0.012,0.296l-0.025,0.307l-0.012,0.308l-0.049,0.616l-0.012,0.307l-0.124,1.539l-0.036,0.307l-0.025,0.32l-0.025,0.308l-0.037,0.308l-0.024,0.307l-0.037,0.32l-0.037,0.308l-0.025,0.32l-0.037,0.308l-0.037,0.32l-0.036,0.308l-0.037,0.32l-0.037,0.307l-0.074,0.64l-0.049,0.32l-0.037,0.32l-0.05,0.308l-0.036,0.32l-0.099,0.64l-0.037,0.32l-0.148,0.96l-0.061,0.32l-0.049,0.332l-0.099,0.64l-0.061,0.32l-0.05,0.333l-0.123,0.64l-0.049,0.332l-0.061,0.32l-0.124,0.664l-0.061,0.32l-0.074,0.333l-0.061,0.332l-0.062,0.32l-0.074,0.332l-0.061,0.333l-0.074,0.332l-0.062,0.332l-0.074,0.32l-0.073,0.333l-0.074,0.344l-0.222,0.997l-0.086,0.332l-0.074,0.333l-0.074,0.344l-0.172,0.665l-0.074,0.345l-0.172,0.664l-0.172,0.689l-0.087,0.333l-0.098,0.344l-0.086,0.345l-0.086,0.332l-0.197,0.69l-0.086,0.344l-0.591,2.068l-0.111,0.344l-0.098,0.357l-0.111,0.345l-0.099,0.345l-0.11,0.357l-0.222,0.689l-0.111,0.357l-0.111,0.344l-0.221,0.714l-0.123,0.345l-0.111,0.357l-0.123,0.357l-0.111,0.357l-0.492,1.427l-0.123,0.345l-0.123,0.357l-0.136,0.369l-0.123,0.357l-0.135,0.357l-0.123,0.369l-0.271,0.714l-0.135,0.369l-0.136,0.357l-0.135,0.369l-0.135,0.357l-0.148,0.369l-0.136,0.37l-0.147,0.357l-0.136,0.369l-0.886,2.215l-0.16,0.369l-0.147,0.37l-0.16,0.381l-0.148,0.369l-0.32,0.739l-0.16,0.381l-0.16,0.37l-0.16,0.381l-0.173,0.382l-0.16,0.369l-0.16,0.382l-0.172,0.369l-1.206,2.671l-0.185,0.381l-0.172,0.394l-0.369,0.763l-0.185,0.394l-0.369,0.763l-0.185,0.394l-0.197,0.394l-0.184,0.381l-0.185,0.394l-0.197,0.382l-0.984,1.969l-0.21,0.394l-0.393,0.787l-0.21,0.406l-0.418,0.788l-0.209,0.406l-0.21,0.394l-0.209,0.406l-0.221,0.394l-0.21,0.406l-0.221,0.394l-0.222,0.406l-0.209,0.406l-0.443,0.813l-0.234,0.406l-0.221,0.394l-0.222,0.418l-0.234,0.406l-0.221,0.407l-0.468,0.812l-0.234,0.418l-0.234,0.406l-0.234,0.419l-0.246,0.406l-0.234,0.419l-0.246,0.418l-0.246,0.406l-0.234,0.419l-0.492,0.837l-0.258,0.418l-0.247,0.406l-0.246,0.419l-0.258,0.43l-0.517,0.837l-0.246,0.419l-0.259,0.431l-0.271,0.418l-0.258,0.431l-0.258,0.418l-0.271,0.431l-0.271,0.418l-0.258,0.431l-0.542,0.862l-0.283,0.431l-0.271,0.418l-0.271,0.431l-0.283,0.443l-0.27,0.431l-0.567,0.861l-0.283,0.443l-0.295,0.431l-0.283,0.431l-0.283,0.443l-0.296,0.431l-0.295,0.443l-0.283,0.443l-0.296,0.431l-0.295,0.443l-0.308,0.443l-0.59,0.886l-0.616,0.886l-0.307,0.455l-0.013,0.013l0.013,0.012l0.307,0.455l0.616,0.887l0.59,0.886l0.308,0.443l0.295,0.443l0.296,0.431l0.283,0.443l0.295,0.443l0.296,0.431l0.283,0.443l0.283,0.43l0.295,0.431l0.283,0.443l0.567,0.862l0.27,0.431l0.283,0.443l0.271,0.43l0.271,0.419l0.283,0.431l0.542,0.861l0.258,0.431l0.271,0.418l0.271,0.431l0.258,0.419l0.258,0.43l0.271,0.419l0.259,0.431l0.246,0.418l0.517,0.837l0.258,0.431l0.246,0.418l0.247,0.406l0.258,0.419l0.492,0.837l0.234,0.418l0.246,0.406l0.246,0.419l0.234,0.418l0.246,0.406l0.234,0.419l0.234,0.406l0.234,0.419l0.468,0.812l0.221,0.406l0.234,0.406l0.443,0.812l0.234,0.407l0.443,0.812l0.209,0.406l0.222,0.406l0.221,0.394l0.21,0.406l0.221,0.394l0.209,0.406l0.21,0.394l0.209,0.406l0.418,0.788l0.21,0.406l0.393,0.788l0.21,0.394l0.984,1.969l0.197,0.381l0.369,0.788l0.197,0.382l0.185,0.393l0.185,0.382l0.184,0.394l0.554,1.144l0.172,0.394l0.185,0.382l1.034,2.289l0.172,0.369l0.172,0.382l0.16,0.381l0.16,0.37l0.173,0.381l0.16,0.369l0.32,0.763l0.32,0.739l0.148,0.369l0.16,0.382l0.147,0.369l0.16,0.369l0.886,2.216l0.136,0.369l0.147,0.357l0.136,0.369l0.148,0.369l0.135,0.357l0.135,0.369l0.136,0.357l0.135,0.369l0.271,0.714l0.123,0.37l0.135,0.356l0.123,0.357l0.136,0.357l0.123,0.37l0.123,0.344l0.492,1.428l0.111,0.357l0.123,0.357l0.111,0.357l0.123,0.344l0.221,0.714l0.222,0.689l0.111,0.357l0.111,0.345l0.11,0.357l0.099,0.344l0.111,0.345l0.098,0.357l0.111,0.345l0.591,2.067l0.086,0.345l0.098,0.344l0.099,0.333l0.172,0.689l0.098,0.345l0.087,0.332l0.172,0.689l0.172,0.665l0.074,0.344l0.172,0.665l0.074,0.345l0.074,0.332l0.086,0.332l0.148,0.665l0.074,0.344l0.147,0.665l0.074,0.32l0.062,0.332l0.074,0.333l0.061,0.332l0.074,0.332l0.062,0.32l0.061,0.333l0.074,0.332l0.061,0.32l0.124,0.665l0.061,0.32l0.049,0.332l0.123,0.64l0.05,0.332l0.061,0.32l0.099,0.64l0.049,0.332l0.061,0.32l0.148,0.96l0.037,0.32l0.099,0.64l0.036,0.32l0.05,0.308l0.037,0.32l0.049,0.32l0.074,0.64l0.037,0.308l0.037,0.32l0.036,0.308l0.037,0.32l0.037,0.307l0.025,0.32l0.037,0.308l0.037,0.32l0.024,0.308l0.037,0.307l0.05,0.628l0.036,0.308l0.124,1.538l0.012,0.308l0.049,0.615l0.012,0.308l0.025,0.308l0.012,0.295l0.025,0.32l0.037,0.911l0.037,0.898l0.037,0.911l-0,0.295l0.012,0.308l-0,0.295l0.012,0.296l0,0.307l0.013,0.296l-0,2.671l-0.013,0.295l0,0.591l-0.024,0.578l-0,0.296l-0.025,0.59l0,0.283l-0.049,1.17l-0.037,0.578l-0.025,0.579l-0.037,0.578l-0.037,0.566l-0.036,0.579l-0.05,0.566l-0.037,0.578l-0.098,1.133l-0.062,0.566l-0.049,0.566l-0.061,0.566l-0.062,0.554l-0.061,0.566l-0.074,0.554l-0.062,0.566l-0.221,1.662l-0.087,0.553l-0.073,0.554l-0.087,0.542l-0.086,0.554l-0.086,0.541l-0.098,0.554l-0.086,0.542l-0.296,1.624l-0.111,0.542l-0.098,0.541l-0.222,1.083l-0.098,0.53l-0.123,0.529l-0.111,0.541l-0.111,0.53l-0.738,3.175l-0.136,0.529l-0.135,0.517l-0.135,0.529l-0.123,0.517l-0.148,0.53l-0.271,1.033l-0.148,0.517l-0.135,0.517l-0.738,2.585l-0.16,0.517l-0.148,0.504l-0.16,0.517l-0.148,0.505l-0.16,0.517l-0.48,1.514l-0.16,0.517l-0.172,0.504l-0.16,0.505l-0.172,0.504l-0.16,0.505l-0.173,0.505l-0.172,0.492l-0.16,0.505l-0.345,1.009l-0.172,0.492l-0.172,0.505l-0.185,0.492l-0.172,0.505l-0.173,0.492l-0.184,0.505l-0.172,0.492l-0.185,0.492l-0.172,0.505l-0.37,0.984l-0.172,0.493l-0.369,0.997l-1.108,2.954l-0.369,0.972l-0.382,0.984l-0.369,0.973l-0.381,0.984l-0.37,0.973l-0.381,0.984l-0.763,1.945l-1.502,3.889l-0.381,0.972l-0.37,0.985l-0.381,0.972l-1.477,3.89l-0.357,0.972l-0.369,0.972l-0.357,0.985l-0.172,0.48l-0.185,0.492l-0.172,0.492l-0.173,0.48l-0.184,0.493l-0.517,1.477l-0.173,0.48l-0.172,0.492l-0.16,0.492l-0.345,0.985l-0.16,0.492l-0.172,0.493l-0.48,1.476l-0.172,0.505l-0.16,0.492l-0.148,0.493l-0.16,0.492l-0.16,0.505l-0.148,0.492l-0.16,0.492l-0.147,0.505l-0.148,0.492l-0.148,0.505l-0.147,0.492l-0.148,0.505l-0.148,0.492l-0.147,0.505l-0.271,1.009l-0.148,0.504l-0.271,1.01l-0.135,0.492l-0.123,0.517l-0.135,0.505l-0.247,1.009l-0.135,0.517l-0.111,0.504l-0.123,0.517l-0.123,0.505l-0.111,0.517l-0.123,0.504l-0.221,1.034l-0.111,0.505l-0.111,0.517l-0.098,0.517l-0.111,0.529l-0.295,1.551l-0.087,0.517l-0.098,0.529l-0.086,0.517l-0.173,1.058l-0.086,0.517l-0.074,0.529l-0.086,0.53l-0.221,1.587l-0.062,0.542l-0.074,0.529l-0.061,0.542l-0.062,0.529l-0.061,0.541l-0.049,0.542l-0.062,0.529l-0.098,1.083l-0.037,0.554l-0.05,0.542l-0.073,1.083l-0.037,0.554l-0.037,0.541l-0.074,1.662l-0.025,0.553l0,0.284l-0.024,0.553l-0,0.283l-0.013,0.271l0,0.283l-0.012,0.283l-0,1.12l-0.012,0.283l-0,0.284l0.012,0.283l-0,1.132l0.012,0.283l0,0.283l0.013,0.283l-0,0.283l0.024,0.579l0,0.283l0.062,1.44l0.012,0.283l0.025,0.295l0.024,0.579l0.025,0.283l0.012,0.295l0.049,0.591l0.013,0.283l0.098,1.182l0.025,0.283l0.024,0.295l0.025,0.308l0.037,0.283l0.049,0.591l0.037,0.295l0.025,0.308l0.111,0.886l0.024,0.295l0.037,0.308l0.037,0.295l0.037,0.308l0.049,0.295l0.037,0.296l0.037,0.307l0.049,0.296l0.037,0.307l0.049,0.296l0.037,0.308l0.099,0.615l0.037,0.295l0.049,0.308l0.061,0.308l0.148,0.923l0.049,0.295l0.062,0.32l0.049,0.308l0.062,0.308l0.049,0.307l0.185,0.923l0.061,0.32l0.123,0.616l0.062,0.32l0.061,0.307l0.074,0.32l0.062,0.308l0.073,0.32l0.062,0.308l0.148,0.64l0.074,0.307l0.369,1.6l0.086,0.32l0.074,0.32l0.086,0.32l0.074,0.32l0.344,1.28l0.087,0.333l0.086,0.32l0.086,0.332l0.098,0.32l0.086,0.32l0.087,0.332l0.098,0.333l0.099,0.32l0.086,0.332l0.098,0.332l0.099,0.32l0.098,0.333l0.111,0.332l0.197,0.665l0.111,0.332l0.098,0.332l0.111,0.332l0.098,0.333l0.333,0.997l0.11,0.344l0.222,0.665l0.123,0.345l0.111,0.332l0.123,0.344l0.123,0.333l0.111,0.344l0.123,0.333l0.369,1.034l0.123,0.332l0.135,0.357l0.123,0.332l0.136,0.345l0.123,0.344l0.135,0.357l0.677,1.723l0.136,0.357l0.147,0.345l0.136,0.357l0.147,0.344l0.136,0.357l0.148,0.345l0.443,1.071l0.147,0.344l0.16,0.357l0.148,0.357l0.16,0.357l0.148,0.357l0.48,1.071l0.16,0.369l0.32,0.714l0.172,0.357l0.16,0.369l0.172,0.369l0.16,0.357l0.173,0.357l0.517,1.108l0.172,0.357l0.184,0.369l0.173,0.369l0.184,0.369l0.173,0.37l0.738,1.477l0.185,0.381l0.184,0.369l0.197,0.37l0.185,0.381l0.197,0.369l0.197,0.382l0.197,0.369l0.394,0.763l0.196,0.369l0.197,0.382l0.21,0.381l0.197,0.382l0.418,0.763l0.197,0.382l0.221,0.381l0.419,0.763l0.209,0.394l0.222,0.382l0.209,0.393l0.222,0.382l0.221,0.394l0.222,0.381l0.221,0.394l0.222,0.382l0.443,0.787l0.467,0.788l0.222,0.394l0.935,1.575l0.247,0.406l0.233,0.394l0.247,0.394l0.246,0.406l0.234,0.394l0.246,0.406l0.246,0.394l0.258,0.406l0.493,0.813l0.258,0.393l0.246,0.407l0.776,1.218l0.258,0.419l0.271,0.406l0.258,0.406l0.271,0.406l0.259,0.418l0.27,0.407l0.271,0.418l0.271,0.406l0.541,0.837l0.284,0.406l0.27,0.419l1.699,2.511l0.295,0.43l0.283,0.419l0.296,0.418l0.295,0.431l0.295,0.418l0.296,0.431l0.295,0.419l0.308,0.43l0.295,0.431l0.308,0.431l0.295,0.418l0.308,0.431l0.308,0.443l0.307,0.431l0.32,0.431l0.308,0.431l0.32,0.43l0.308,0.431l0.32,0.443l0.32,0.431l0.32,0.443l0.32,0.431l0.332,0.443l0.32,0.443l0.332,0.443l0.32,0.431l0.997,1.329l0.345,0.455l0.332,0.444l0.345,0.443l0.332,0.443l0.345,0.443l0.344,0.455l0.345,0.443l0.357,0.456l0.345,0.455l0.344,0.443l0.357,0.455l9.797,12.542l-1.341,1.145l-10.807,-11.631l-0.357,-0.382l-0.713,-0.787l-0.37,-0.382l-0.357,-0.394l-0.344,-0.394l-0.357,-0.381l-0.357,-0.394l-0.345,-0.382l-0.344,-0.393l-0.357,-0.382l-0.345,-0.394l-0.344,-0.381l-0.333,-0.394l-0.689,-0.763l-0.332,-0.382l-0.345,-0.394l-1.661,-1.907l-0.32,-0.382l-0.333,-0.394l-0.32,-0.381l-0.332,-0.382l-0.32,-0.381l-0.32,-0.37l-0.32,-0.381l-0.308,-0.382l-0.64,-0.763l-0.307,-0.381l-0.32,-0.369l-0.616,-0.764l-0.308,-0.369l-0.307,-0.381l-0.308,-0.37l-0.295,-0.381l-0.308,-0.382l-0.295,-0.369l-0.308,-0.381l-0.296,-0.37l-0.295,-0.381l-0.591,-0.739l-0.283,-0.381l-0.591,-0.739l-0.283,-0.369l-0.283,-0.381l-1.698,-2.216l-0.271,-0.381l-0.271,-0.357l-0.283,-0.369l-1.083,-1.477l-0.258,-0.37l-0.271,-0.369l-0.271,-0.357l-0.775,-1.107l-0.271,-0.357l-0.246,-0.37l-0.259,-0.357l-0.517,-0.738l-0.246,-0.357l-0.258,-0.369l-0.246,-0.357l-0.247,-0.369l-0.492,-0.714l-0.246,-0.369l-0.246,-0.357l-0.246,-0.37l-0.234,-0.356l-0.246,-0.357l-0.234,-0.357l-0.234,-0.37l-0.234,-0.356l-0.246,-0.357l-0.222,-0.357l-0.701,-1.071l-0.222,-0.357l-0.233,-0.369l-0.222,-0.345l-1.329,-2.141l-0.209,-0.357l-0.222,-0.345l-0.418,-0.714l-0.222,-0.357l-0.209,-0.344l-0.419,-0.714l-0.209,-0.345l-0.197,-0.357l-0.209,-0.344l-0.197,-0.357l-0.209,-0.345l-0.197,-0.357l-0.197,-0.344l-0.197,-0.357l-0.197,-0.345l-0.197,-0.357l-0.394,-0.689l-0.184,-0.357l-0.197,-0.345l-0.185,-0.344l-0.197,-0.357l-1.108,-2.068l-0.172,-0.357l-0.184,-0.344l-0.173,-0.345l-0.184,-0.345l-0.69,-1.378l-0.172,-0.332l-0.345,-0.69l-0.16,-0.344l-0.172,-0.345l-0.16,-0.344l-0.172,-0.333l-0.48,-1.034l-0.16,-0.332l-0.16,-0.344l-0.16,-0.333l-0.16,-0.344l-0.148,-0.345l-0.16,-0.332l-0.148,-0.345l-0.16,-0.332l-0.147,-0.345l-0.148,-0.332l-0.148,-0.345l-0.147,-0.332l-0.148,-0.345l-0.295,-0.664l-0.136,-0.345l-0.147,-0.332l-0.136,-0.333l-0.135,-0.344l-0.148,-0.332l-0.271,-0.665l-0.135,-0.345l-0.406,-0.997l-0.123,-0.332l-0.271,-0.665l-0.246,-0.664l-0.136,-0.332l-0.615,-1.662l-0.111,-0.332l-0.246,-0.665l-0.111,-0.32l-0.111,-0.332l-0.123,-0.333l-0.221,-0.664l-0.111,-0.32l-0.221,-0.665l-0.111,-0.32l-0.222,-0.664l-0.098,-0.32l-0.111,-0.333l-0.098,-0.32l-0.111,-0.332l-0.099,-0.32l-0.098,-0.332l-0.099,-0.32l-0.098,-0.333l-0.099,-0.32l-0.098,-0.332l-0.197,-0.64l-0.086,-0.332l-0.099,-0.32l-0.086,-0.333l-0.098,-0.32l-0.172,-0.64l-0.099,-0.332l-0.258,-0.96l-0.087,-0.332l-0.073,-0.32l-0.259,-0.96l-0.148,-0.64l-0.086,-0.32l-0.664,-2.88l-0.062,-0.32l-0.074,-0.32l-0.061,-0.32l-0.074,-0.308l-0.123,-0.64l-0.074,-0.32l-0.062,-0.308l-0.123,-0.64l-0.061,-0.307l-0.062,-0.32l-0.049,-0.308l-0.123,-0.64l-0.049,-0.32l-0.062,-0.308l-0.049,-0.32l-0.062,-0.307l-0.049,-0.32l-0.049,-0.308l-0.062,-0.32l-0.049,-0.308l-0.049,-0.32l-0.098,-0.615l-0.037,-0.32l-0.05,-0.32l-0.049,-0.308l-0.037,-0.307l-0.049,-0.308l-0.049,-0.32l-0.037,-0.308l-0.037,-0.32l-0.049,-0.308l-0.111,-0.923l-0.074,-0.627l-0.074,-0.616l-0.074,-0.627l-0.184,-1.847l-0.049,-0.615l-0.062,-0.615l-0.098,-1.231l-0.037,-0.615l-0.05,-0.616l-0.037,-0.603l-0.036,-0.615l-0.025,-0.603l-0.037,-0.616l-0.025,-0.603l-0.024,-0.615l-0.025,-0.603l-0.012,-0.603l-0.025,-0.616l-0.024,-1.206l-0,-0.603l-0.013,-0.603l0,-2.4l0.025,-1.206l0.037,-1.785l0.024,-0.603l0.013,-0.591l0.024,-0.603l0.025,-0.591l0.037,-0.59l0.025,-0.603l0.184,-2.954l0.197,-2.363l0.049,-0.579l0.05,-0.591l0.061,-0.59l0.062,-0.579l0.061,-0.591l0.062,-0.578l0.061,-0.591l0.062,-0.578l0.074,-0.591l0.061,-0.578l0.074,-0.579l0.074,-0.591l0.074,-0.578l0.086,-0.579l0.074,-0.59l0.086,-0.579l0.074,-0.578l0.344,-2.314l0.099,-0.579l0.086,-0.578l0.098,-0.566l0.087,-0.579l0.295,-1.735l0.209,-1.145l0.099,-0.578l0.11,-0.566l0.099,-0.579l0.111,-0.566l0.221,-1.145l0.111,-0.578l0.234,-1.145l0.221,-1.132l0.246,-1.145l0.111,-0.566l0.123,-0.566l0.123,-0.578l0.247,-1.133l0.258,-1.132l0.246,-1.145l0.259,-1.132l0.393,-1.698l0.271,-1.133l0.271,-1.12l0.135,-0.578l0.283,-1.12l0.271,-1.132l0.283,-1.133l0.283,-1.12l0.283,-1.132l0.284,-1.12l0.283,-1.132l0.295,-1.12l0.283,-1.133l0.591,-2.24l0.886,-3.372l1.182,-4.492l0.59,-2.253l0.296,-1.12l0.578,-2.24l0.591,-2.252l0.283,-1.132l0.566,-2.24l0.283,-1.132l0.283,-1.12l0.283,-1.133l0.271,-1.132l0.271,-1.12l0.677,-2.831l0.123,-0.566l0.135,-0.566l0.259,-1.132l0.123,-0.567l0.135,-0.566l0.739,-3.397l0.467,-2.289l0.124,-0.566l0.221,-1.132l0.443,-2.29l0.099,-0.566l0.11,-0.578l0.099,-0.579l0.111,-0.566l0.197,-1.144l0.197,-1.157l0.098,-0.567l0.086,-0.578l0.099,-0.578l0.086,-0.579l0.086,-0.566l0.431,-2.892l0.147,-1.157l0.087,-0.579l0.073,-0.591l0.062,-0.578l0.148,-1.157l0.061,-0.591l0.062,-0.578l0.074,-0.579l0.061,-0.59l0.111,-1.17l0.061,-0.578l0.099,-1.182l0.049,-0.578l0.099,-1.182l0.073,-1.181l0.05,-0.591l0.037,-0.578l0.024,-0.603l0.037,-0.591l0.025,-0.591l0.037,-0.591l0.049,-1.194l0.012,-0.59l0.025,-0.591l0.037,-1.797l0.024,-1.194l0,-2.4l-0.012,-0.603l-0,-0.603l-0.025,-1.206l-0.024,-0.603l-0.013,-0.603l-0.049,-1.219l-0.049,-1.206l-0.074,-1.231l-0.037,-0.603l-0.037,-0.615l-0.049,-0.616l-0.037,-0.603l-0.098,-1.23l-0.123,-1.231l-0.05,-0.616l-0.073,-0.627l-0.062,-0.616l-0.074,-0.615l-0.074,-0.628l-0.074,-0.615l-0.073,-0.628l-0.05,-0.307l-0.037,-0.308l-0.036,-0.32l-0.05,-0.308l-0.037,-0.308l-0.049,-0.32l-0.049,-0.307l-0.037,-0.32l-0.049,-0.308l-0.049,-0.32l-0.099,-0.615l-0.098,-0.64l-0.05,-0.308l-0.061,-0.32l-0.049,-0.308l-0.05,-0.32l-0.061,-0.307l-0.062,-0.32l-0.049,-0.32l-0.061,-0.308l-0.062,-0.32l-0.049,-0.32l-0.123,-0.64l-0.062,-0.308l-0.123,-0.64l-0.074,-0.32l-0.061,-0.32l-0.062,-0.307l-0.074,-0.32l-0.061,-0.32l-0.074,-0.32l-0.062,-0.32l-0.443,-1.92l-0.074,-0.333l-0.147,-0.64l-0.086,-0.32l-0.074,-0.32l-0.086,-0.332l-0.074,-0.32l-0.173,-0.64l-0.073,-0.332l-0.259,-0.96l-0.086,-0.333l-0.099,-0.32l-0.086,-0.332l-0.086,-0.32l-0.098,-0.332l-0.086,-0.32l-0.099,-0.333l-0.086,-0.32l-0.099,-0.332l-0.098,-0.32l-0.098,-0.332l-0.099,-0.32l-0.197,-0.665l-0.098,-0.32l-0.197,-0.664l-0.111,-0.333l-0.098,-0.332l-0.111,-0.32l-0.111,-0.332l-0.098,-0.333l-0.333,-0.997l-0.111,-0.32l-0.11,-0.332l-0.111,-0.345l-0.123,-0.332l-0.111,-0.32l-0.111,-0.332l-0.123,-0.345l-0.123,-0.332l-0.111,-0.332l-0.492,-1.33l-0.123,-0.344l-0.123,-0.333l-0.135,-0.332l-0.124,-0.332l-0.123,-0.345l-0.135,-0.332l-0.135,-0.345l-0.123,-0.332l-0.136,-0.345l-0.271,-0.664l-0.27,-0.689l-0.136,-0.333l-0.147,-0.344l-0.136,-0.333l-0.148,-0.344l-0.135,-0.345l-0.148,-0.332l-0.135,-0.345l-0.295,-0.689l-0.148,-0.332l-0.148,-0.345l-0.16,-0.345l-0.295,-0.689l-0.16,-0.332l-0.148,-0.345l-0.32,-0.689l-0.148,-0.345l-0.32,-0.689l-0.16,-0.357l-0.172,-0.344l-0.32,-0.69l-0.172,-0.344l-0.16,-0.345l-0.173,-0.357l-0.172,-0.344l-0.16,-0.345l-0.172,-0.357l-0.172,-0.345l-0.185,-0.344l-0.172,-0.357l-0.173,-0.345l-0.172,-0.357l-0.185,-0.344l-0.184,-0.357l-0.173,-0.345l-0.184,-0.357l-0.185,-0.344l-0.369,-0.714l-0.185,-0.345l-0.184,-0.357l-0.197,-0.357l-0.185,-0.357l-0.197,-0.344l-0.184,-0.357l-1.182,-2.142l-0.172,-0.295l-0.505,-0.726l0.049,-0.086l-0.049,-0.086l0.505,-0.727l0.172,-0.295l1.182,-2.142l0.381,-0.713l0.382,-0.702l0.369,-0.701l0.369,-0.714l0.369,-0.702l0.357,-0.701l0.185,-0.345l0.345,-0.702l0.172,-0.356l0.357,-0.69l0.332,-0.701l0.345,-0.689l0.332,-0.702l0.32,-0.689l0.332,-0.702l0.32,-0.689l0.616,-1.378l0.16,-0.333l0.295,-0.689l0.16,-0.345l0.296,-0.677l0.295,-0.689l0.283,-0.677l0.283,-0.689l0.283,-0.677l0.136,-0.332l0.27,-0.689l0.271,-0.665l0.259,-0.677l0.135,-0.345l0.135,-0.332l0.247,-0.677l0.381,-1.009l0.492,-1.329l0.111,-0.333l0.246,-0.676l0.222,-0.665l0.455,-1.317l0.333,-0.997l0.209,-0.665l0.209,-0.652l0.209,-0.664l0.197,-0.653l0.296,-0.984l0.196,-0.653l0.185,-0.652l0.283,-0.985l0.086,-0.32l0.271,-0.984l0.259,-0.96l0.16,-0.653l0.086,-0.32l0.074,-0.32l0.16,-0.652l0.086,-0.32l0.147,-0.64l0.148,-0.652l0.369,-1.6l0.136,-0.64l0.197,-0.948l0.061,-0.32l0.136,-0.64l0.061,-0.32l0.062,-0.308l0.061,-0.32l0.111,-0.64l0.123,-0.627l0.172,-0.948l0.16,-0.948l0.197,-1.255l0.05,-0.32l0.049,-0.308l0.086,-0.627l0.049,-0.308l0.172,-1.255l0.037,-0.308l0.05,-0.308l0.073,-0.628l0.074,-0.615l0.074,-0.628l0.074,-0.615l0.062,-0.615l0.073,-0.628l0.05,-0.615l0.123,-1.231l0.098,-1.231l0.037,-0.603l0.049,-0.615l0.074,-1.231l0.037,-0.603l0.037,-0.616l0.049,-1.206l0.025,-0.615l0.024,-0.603l0.013,-0.603l0.024,-0.603l0.025,-1.207l-0,-0.603l0.012,-0.603l0,-2.4l-0.049,-2.4l-0.012,-0.591l-0.025,-0.59l-0.012,-0.603l-0.049,-1.182l-0.037,-0.591l-0.025,-0.59l-0.037,-0.591l-0.024,-0.591l-0.037,-0.591l-0.05,-0.591l-0.073,-1.181l-0.099,-1.182l-0.049,-0.578l-0.099,-1.182l-0.061,-0.578l-0.062,-0.591l-0.049,-0.578l-0.061,-0.579l-0.074,-0.591l-0.062,-0.578l-0.061,-0.591l-0.148,-1.157l-0.062,-0.578l-0.073,-0.591l-0.087,-0.578l-0.147,-1.157l-0.431,-2.893l-0.086,-0.566l-0.086,-0.578l-0.099,-0.579l-0.086,-0.578l-0.098,-0.566l-0.197,-1.157l-0.099,-0.566l-0.098,-0.579l-0.111,-0.566l-0.099,-0.578l-0.11,-0.579l-0.099,-0.566l-0.111,-0.566l-0.11,-0.579l-0.111,-0.566l-0.111,-0.578l-0.221,-1.133l-0.124,-0.566l-0.11,-0.578l-0.123,-0.566l-0.111,-0.567l-0.123,-0.578l-0.739,-3.397l-0.135,-0.566l-0.123,-0.566l-0.136,-0.566l-0.123,-0.566l-0.135,-0.567l-0.123,-0.566l-0.677,-2.831l-0.271,-1.12l-0.271,-1.132l-0.283,-1.132l-0.283,-1.12l-0.283,-1.132l-0.566,-2.24l-0.283,-1.133l-0.295,-1.12l-0.296,-1.132l-0.283,-1.12l-0.591,-2.24l-0.59,-2.252l-1.182,-4.493l-0.591,-2.24l-0.295,-1.132l-0.591,-2.24l-0.283,-1.132l-0.295,-1.12l-0.283,-1.133l-0.284,-1.12l-0.283,-1.132l-0.283,-1.12l-0.283,-1.132l-0.271,-1.133l-0.283,-1.12l-0.135,-0.578l-0.135,-0.554l-0.407,-1.698l-0.123,-0.566l-0.27,-1.133l-0.123,-0.566l-0.136,-0.566l-0.123,-0.566l-0.123,-0.579l-0.135,-0.566l-0.37,-1.698l-0.123,-0.579l-0.123,-0.566l-0.111,-0.566l-0.123,-0.566l-0.123,-0.579l-0.221,-1.132l-0.123,-0.578l-0.111,-0.567l-0.111,-0.578l-0.111,-0.566l-0.11,-0.579l-0.111,-0.566l-0.099,-0.578l-0.11,-0.566l-0.197,-1.157l-0.111,-0.567l-0.295,-1.735l-0.087,-0.578l-0.098,-0.567l-0.086,-0.578l-0.099,-0.578l-0.344,-2.314l-0.074,-0.579l-0.086,-0.591l-0.074,-0.578l-0.086,-0.578l-0.074,-0.579l-0.074,-0.591l-0.074,-0.578l-0.061,-0.579l-0.074,-0.59l-0.062,-0.579l-0.061,-0.591l-0.062,-0.578l-0.061,-0.591l-0.062,-0.578l-0.061,-0.591l-0.05,-0.591l-0.049,-0.578l-0.197,-2.363l-0.184,-2.954l-0.025,-0.603l-0.037,-0.591l-0.025,-0.591l-0.024,-0.603l-0.013,-0.591l-0.024,-0.603l-0.062,-2.991l0,-2.4l0.013,-0.603l-0,-0.603l0.024,-1.206l0.025,-0.615l0.012,-0.603l0.025,-0.603l0.024,-0.616l0.025,-0.603l0.037,-0.615l0.025,-0.603l0.036,-0.616l0.037,-0.603l0.05,-0.615l0.037,-0.616l0.098,-1.23l0.062,-0.616l0.049,-0.615l0.184,-1.846l0.074,-0.628l0.074,-0.615l0.074,-0.628l0.111,-0.923l0.086,-0.628l0.037,-0.307l0.098,-0.628l0.086,-0.616l0.05,-0.32l0.037,-0.307l0.196,-1.256l0.16,-0.947l0.062,-0.308l0.049,-0.32l0.111,-0.628l0.123,-0.64l0.111,-0.627l0.123,-0.628l0.061,-0.32l0.062,-0.308l0.074,-0.32l0.123,-0.64l0.135,-0.627l0.074,-0.32l0.062,-0.32l0.59,-2.56l0.16,-0.64l0.148,-0.64l0.259,-0.96l0.16,-0.653l0.172,-0.64l0.185,-0.652l0.172,-0.64l0.369,-1.305l0.197,-0.64l0.591,-1.957l0.418,-1.304l0.333,-0.985l0.221,-0.664l0.111,-0.32l0.111,-0.333l0.233,-0.664l0.222,-0.653l0.246,-0.664l0.234,-0.665l0.492,-1.329l0.382,-0.997l0.271,-0.665l0.258,-0.664l0.271,-0.665l0.406,-1.009l0.283,-0.677l0.136,-0.332l0.283,-0.677l0.295,-0.665l0.148,-0.345l0.59,-1.353l0.16,-0.333l0.308,-0.677l0.308,-0.689l0.32,-0.677l0.16,-0.332l0.32,-0.689l0.332,-0.677l0.665,-1.379l0.172,-0.332l0.862,-1.723l0.541,-1.034l0.172,-0.357l1.108,-2.068l0.763,-1.403l0.394,-0.689l0.394,-0.701l0.197,-0.357l0.394,-0.702l0.406,-0.701l0.209,-0.345l0.406,-0.702l0.419,-0.713l0.418,-0.702l0.431,-0.714l0.431,-0.701l1.107,-1.785l0.444,-0.701l0.233,-0.37l0.456,-0.714l0.234,-0.356l0.455,-0.714l0.714,-1.083l0.48,-0.714l0.234,-0.357l0.246,-0.369l0.492,-0.727l0.492,-0.713l0.247,-0.37l0.246,-0.357l0.504,-0.726l0.517,-0.738l0.505,-0.726l0.271,-0.357l0.775,-1.108l0.271,-0.357l0.529,-0.738l1.083,-1.477l0.554,-0.739l0.271,-0.369l1.415,-1.846l0.566,-0.751l0.283,-0.369l0.591,-0.739l0.283,-0.381l0.296,-0.369l0.59,-0.751l0.296,-0.369l0.308,-0.382l0.295,-0.369l0.308,-0.382l0.295,-0.381l0.308,-0.369l0.615,-0.751l0.616,-0.763l0.32,-0.369l0.307,-0.382l0.64,-0.763l0.628,-0.763l0.32,-0.382l0.652,-0.75l0.32,-0.382l0.333,-0.381l0.32,-0.394l1.661,-1.908l0.345,-0.394l0.677,-0.763l1.021,-1.157l0.345,-0.394l0.357,-0.381l0.344,-0.394l0.345,-0.382l0.357,-0.393l0.701,-0.776l0.357,-0.394l0.727,-0.775l0.713,-0.775l10.807,-11.631l1.341,1.144Zm-47.693,353.317l0.124,0.345l0.135,0.344l0.246,0.69l0.135,0.332l0.37,1.034l0.123,0.332l0.123,0.345l0.111,0.344l0.123,0.333l0.123,0.344l0.111,0.345l0.11,0.332l0.123,0.332l0.222,0.69l0.221,0.664l0.111,0.345l0.111,0.332l0.111,0.345l0.111,0.332l0.098,0.332l0.111,0.345l0.098,0.332l0.111,0.333l0.099,0.344l0.492,1.662l0.098,0.344l0.099,0.333l0.086,0.332l0.098,0.332l0.087,0.333l0.098,0.332l0.258,0.997l0.099,0.332l0.086,0.333l0.074,0.32l0.258,0.996l0.074,0.333l0.086,0.332l0.087,0.32l0.147,0.665l0.086,0.32l0.148,0.664l0.074,0.32l0.148,0.665l0.073,0.32l0.074,0.332l0.062,0.32l0.074,0.333l0.061,0.32l0.074,0.332l0.062,0.32l0.073,0.332l0.062,0.32l0.062,0.332l0.123,0.64l0.061,0.333l0.123,0.64l0.062,0.332l0.061,0.32l0.05,0.32l0.061,0.32l0.049,0.332l0.062,0.32l0.098,0.64l0.062,0.32l0.197,1.28l0.049,0.333l0.049,0.32l0.037,0.32l0.099,0.64l0.037,0.307l0.049,0.32l0.037,0.32l0.049,0.32l0.074,0.64l0.086,0.64l0.074,0.628l0.061,0.64l0.074,0.628l0.062,0.627l0.061,0.64l0.123,1.256l0.148,1.883l0.037,0.628l0.049,0.627l0.037,0.628l0.037,0.615l0.025,0.628l0.037,0.615l0.024,0.628l0.049,1.243l0.013,0.616l0.024,0.615l0.025,1.231l-0,0.627l0.012,0.604l0,2.461l-0.037,1.822l-0.024,1.218l-0.025,0.615l-0.012,0.604l-0.049,1.206l-0.037,0.603l-0.025,0.603l-0.037,0.615l-0.074,1.206l-0.037,0.591l-0.049,0.603l-0.037,0.603l-0.049,0.591l-0.099,1.206l-0.049,0.591l-0.061,0.603l-0.05,0.591l-0.061,0.603l-0.246,2.363l-0.074,0.603l-0.074,0.591l-0.061,0.591l-0.074,0.59l-0.086,0.591l-0.074,0.591l-0.074,0.578l-0.086,0.591l-0.074,0.591l-0.086,0.591l-0.086,0.578l-0.087,0.591l-0.086,0.578l-0.098,0.591l-0.086,0.579l-0.099,0.59l-0.098,0.579l-0.099,0.591l-0.086,0.578l-0.111,0.578l-0.098,0.579l-0.099,0.591l-0.11,0.578l-0.099,0.579l-0.111,0.578l-0.098,0.579l-0.332,1.735l-0.123,0.578l-0.222,1.157l-0.123,0.566l-0.111,0.579l-0.246,1.157l-0.123,0.566l-0.111,0.578l-0.135,0.579l-0.123,0.566l-0.123,0.579l-0.123,0.566l-0.124,0.578l-0.135,0.566l-0.123,0.566l-0.135,0.579l-0.123,0.566l-0.136,0.579l-0.406,1.698l-0.135,0.578l-0.542,2.265l-0.283,1.145l-0.271,1.132l-0.566,2.265l-0.283,1.12l-0.295,1.132l-0.284,1.132l-0.295,1.133l-0.295,1.12l-0.296,1.132l-0.283,1.12l-0.295,1.132l-0.591,2.24l-1.181,4.492l-0.591,2.253l-0.886,3.36l-0.567,2.24l-0.295,1.132l-0.849,3.36l-0.271,1.12l-0.283,1.12l-0.271,1.12l-0.135,0.566l-0.136,0.554l-0.135,0.566l-0.123,0.566l-0.135,0.554l-0.136,0.566l-0.123,0.567l-0.135,0.553l-0.123,0.567l-0.136,0.566l-0.123,0.554l-0.246,1.132l-0.135,0.566l-0.123,0.554l-0.124,0.566l-0.11,0.566l-0.123,0.566l-0.123,0.554l-0.111,0.566l-0.123,0.566l-0.333,1.699l-0.123,0.554l-0.11,0.566l-0.099,0.566l-0.221,1.132l-0.099,0.567l-0.111,0.566l-0.394,2.264l-0.098,0.579l-0.197,1.132l-0.172,1.132l-0.099,0.579l-0.258,1.698l-0.074,0.579l-0.086,0.566l-0.074,0.578l-0.086,0.567l-0.074,0.566l-0.148,1.157l-0.061,0.566l-0.074,0.578l-0.062,0.566l-0.073,0.579l-0.062,0.566l-0.123,1.157l-0.049,0.578l-0.062,0.579l-0.049,0.566l-0.197,2.314l-0.037,0.578l-0.049,0.579l-0.074,1.157l-0.025,0.59l-0.073,1.157l-0.025,0.579l-0.025,0.591l-0.024,0.578l-0.025,0.591l-0.025,1.157l-0.024,1.181l-0.025,1.17l0,2.35l0.013,0.591l-0,0.591l0.024,1.181l0.025,0.591l0.012,0.603l0.074,1.773l0.025,0.603l0.036,0.59l0.037,0.603l0.037,0.591l0.037,0.603l0.049,0.591l0.037,0.603l0.05,0.603l0.061,0.603l0.049,0.603l0.062,0.591l0.061,0.616l0.062,0.59l0.062,0.616l0.147,1.206l0.074,0.615l0.037,0.296l0.037,0.307l0.049,0.296l0.037,0.307l0.049,0.308l0.037,0.308l0.049,0.295l0.037,0.308l0.099,0.615l0.037,0.296l0.197,1.23l0.061,0.308l0.148,0.923l0.061,0.308l0.05,0.308l0.061,0.307l0.049,0.308l0.185,0.923l0.049,0.308l0.185,0.923l0.074,0.307l0.061,0.32l0.062,0.308l0.074,0.308l0.061,0.308l0.062,0.32l0.147,0.615l0.062,0.32l0.148,0.615l0.074,0.32l0.147,0.616l0.074,0.32l0.074,0.307l0.086,0.32l0.148,0.616l0.172,0.64l0.074,0.307l0.086,0.32l0.086,0.308l0.173,0.64l0.086,0.308l0.172,0.64l0.086,0.308l0.086,0.32l0.099,0.32l0.086,0.307l0.197,0.64l0.086,0.32l0.295,0.96l0.099,0.308l0.295,0.96l0.111,0.32l0.098,0.32l0.111,0.32l0.099,0.32l0.221,0.64l0.099,0.332l0.443,1.28l0.123,0.32l0.111,0.333l0.11,0.32l0.124,0.32l0.11,0.32l0.123,0.332l0.123,0.32l0.111,0.32l0.123,0.332l0.246,0.64l0.124,0.332l0.135,0.333l0.246,0.64l0.135,0.332l0.124,0.332l0.135,0.32l0.135,0.333l0.123,0.32l0.271,0.664l0.136,0.32l0.135,0.333l0.148,0.332l0.135,0.332l0.135,0.32l0.148,0.333l0.135,0.332l0.887,1.994l0.147,0.32l0.148,0.332l0.16,0.345l0.148,0.332l0.16,0.332l0.147,0.333l0.48,0.996l0.16,0.345l0.48,0.997l0.173,0.345l0.16,0.332l0.172,0.332l0.16,0.345l0.345,0.664l0.172,0.345l0.172,0.332l0.345,0.69l0.172,0.332l0.185,0.332l0.172,0.345l0.185,0.344l0.184,0.333l0.173,0.344l0.369,0.69l0.185,0.332l0.184,0.345l0.197,0.344l0.369,0.689l0.197,0.333l0.185,0.344l1.181,2.068l0.21,0.345l0.197,0.344l0.209,0.357l0.197,0.345l0.627,1.034l0.21,0.357l0.418,0.689l0.209,0.357l0.222,0.344l0.209,0.345l0.222,0.357l0.221,0.344l0.222,0.357l0.221,0.345l0.222,0.357l0.221,0.345l0.443,0.713l0.234,0.345l0.222,0.357l0.234,0.357l0.233,0.344l0.702,1.071l0.234,0.345l0.234,0.357l0.246,0.357l0.037,0.073l-0.148,-0.258l-0.234,-0.406l-0.234,-0.394l-0.443,-0.788l-0.234,-0.394l-0.886,-1.575l-0.209,-0.394l-0.221,-0.381l-0.21,-0.394l-0.221,-0.394l-0.209,-0.381l-0.419,-0.788l-0.418,-0.763l-0.197,-0.394l-0.419,-0.763l-1.378,-2.671l-0.369,-0.763l-0.197,-0.369l-0.37,-0.763l-0.369,-0.739l-0.184,-0.381l-0.185,-0.37l-0.172,-0.381l-0.185,-0.369l-0.345,-0.739l-0.172,-0.381l-0.689,-1.477l-0.16,-0.369l-0.172,-0.357l-0.16,-0.37l-0.173,-0.369l-0.16,-0.369l-0.16,-0.357l-0.16,-0.369l-0.16,-0.357l-0.148,-0.369l-0.16,-0.357l-0.16,-0.37l-0.147,-0.356l-0.148,-0.37l-0.16,-0.357l-0.443,-1.07l-0.135,-0.357l-0.296,-0.714l-0.135,-0.357l-0.148,-0.357l-0.271,-0.714l-0.147,-0.357l-0.136,-0.344l-0.123,-0.357l-0.135,-0.345l-0.271,-0.714l-0.123,-0.344l-0.135,-0.345l-0.123,-0.357l-0.247,-0.689l-0.123,-0.357l-0.492,-1.379l-0.111,-0.344l-0.123,-0.345l-0.221,-0.689l-0.123,-0.345l-0.222,-0.689l-0.111,-0.332l-0.098,-0.345l-0.111,-0.344l-0.111,-0.333l-0.098,-0.344l-0.111,-0.333l-0.098,-0.344l-0.197,-0.665l-0.099,-0.344l-0.295,-0.997l-0.099,-0.345l-0.086,-0.332l-0.098,-0.333l-0.086,-0.332l-0.099,-0.332l-0.345,-1.329l-0.086,-0.32l-0.086,-0.333l-0.074,-0.332l-0.086,-0.32l-0.086,-0.332l-0.074,-0.333l-0.074,-0.32l-0.086,-0.332l-0.074,-0.32l-0.074,-0.332l-0.147,-0.64l-0.074,-0.333l-0.074,-0.32l-0.061,-0.32l-0.074,-0.32l-0.062,-0.32l-0.074,-0.332l-0.123,-0.64l-0.074,-0.32l-0.184,-0.96l-0.049,-0.308l-0.124,-0.64l-0.049,-0.32l-0.061,-0.307l-0.05,-0.32l-0.061,-0.32l-0.049,-0.308l-0.05,-0.32l-0.049,-0.308l-0.049,-0.32l-0.049,-0.307l-0.05,-0.32l-0.098,-0.616l-0.037,-0.32l-0.098,-0.615l-0.037,-0.32l-0.037,-0.296l-0.049,-0.32l-0.185,-1.538l-0.025,-0.308l-0.037,-0.307l-0.037,-0.296l-0.024,-0.307l-0.037,-0.308l-0.025,-0.308l-0.037,-0.308l-0.024,-0.295l-0.049,-0.603l-0.025,-0.308l-0.025,-0.295l-0.024,-0.308l-0.05,-0.603l-0.024,-0.295l-0.012,-0.296l-0.025,-0.307l-0.012,-0.296l-0.025,-0.295l-0.037,-0.899l-0.025,-0.295l-0.036,-0.886l-0,-0.295l-0.037,-0.887l-0,-0.295l-0.013,-0.295l0,-0.296l-0.012,-0.295l0,-1.157l-0.012,-0.295l-0,-0.296l0.012,-0.566l0,-0.874l0.012,-0.295l0.025,-1.145l0.012,-0.283l0.013,-0.578l0.061,-1.416l0.037,-0.566l0.025,-0.566l0.073,-1.132l0.05,-0.554l0.037,-0.566l0.098,-1.108l0.049,-0.566l0.185,-1.662l0.061,-0.541l0.062,-0.554l0.074,-0.554l0.061,-0.542l0.074,-0.553l0.074,-0.542l0.086,-0.541l0.074,-0.542l0.259,-1.625l0.086,-0.529l0.197,-1.083l0.086,-0.529l0.111,-0.529l0.098,-0.542l0.099,-0.529l0.11,-0.529l0.099,-0.53l0.221,-1.058l0.123,-0.517l0.111,-0.529l0.123,-0.529l0.111,-0.517l0.123,-0.53l0.123,-0.517l0.136,-0.516l0.123,-0.53l0.123,-0.517l0.677,-2.584l0.135,-0.505l0.148,-0.517l0.135,-0.504l0.148,-0.517l0.147,-0.505l0.148,-0.517l0.148,-0.504l0.148,-0.517l0.147,-0.505l0.16,-0.505l0.148,-0.504l0.32,-1.009l0.308,-1.01l0.16,-0.504l0.172,-0.505l0.32,-0.997l0.172,-0.504l0.333,-0.997l0.16,-0.493l0.689,-1.994l0.344,-0.984l0.185,-0.505l0.345,-0.984l0.184,-0.493l0.357,-0.984l0.172,-0.493l0.37,-0.984l0.357,-0.985l0.738,-1.969l0.369,-0.972l0.382,-0.985l0.738,-1.945l0.382,-0.984l0.381,-0.973l1.502,-3.889l0.763,-1.957l0.369,-0.972l0.382,-0.972l0.369,-0.973l0.382,-0.972l0.369,-0.985l0.738,-1.944l0.37,-0.985l0.369,-0.972l0.357,-0.985l0.541,-1.477l0.529,-1.464l0.173,-0.493l0.184,-0.504l0.173,-0.48l0.344,-0.997l0.333,-0.985l0.344,-0.997l0.16,-0.492l0.493,-1.489l0.172,-0.505l0.16,-0.492l0.16,-0.505l0.16,-0.492l0.148,-0.505l0.16,-0.504l0.16,-0.493l0.147,-0.504l0.16,-0.505l0.739,-2.523l0.135,-0.504l0.148,-0.505l0.135,-0.517l0.136,-0.505l0.147,-0.517l0.136,-0.504l0.135,-0.517l0.123,-0.505l0.136,-0.517l0.123,-0.517l0.135,-0.504l0.492,-2.068l0.111,-0.529l0.123,-0.517l0.222,-1.034l0.221,-1.058l0.099,-0.517l0.11,-0.529l0.099,-0.53l0.098,-0.517l0.099,-0.529l0.098,-0.541l0.086,-0.53l0.099,-0.529l0.086,-0.529l0.086,-0.542l0.086,-0.529l0.074,-0.541l0.086,-0.53l0.296,-2.166l0.061,-0.541l0.074,-0.542l0.062,-0.554l0.049,-0.541l0.061,-0.554l0.062,-0.542l0.148,-1.661l0.037,-0.554l0.049,-0.554l0.037,-0.554l0.037,-0.566l0.024,-0.554l0.037,-0.566l0.074,-1.698l0.012,-0.566l0.013,-0.284l0.012,-0.566l0.012,-0.283l0,-0.578l0.013,-0.566l-0,-2.314l-0.013,-0.296l0,-0.283l-0.012,-0.295l0,-0.283l-0.012,-0.296l-0,-0.295l-0.123,-2.941l-0.025,-0.296l-0.012,-0.307l-0.025,-0.296l-0.012,-0.295l-0.049,-0.591l-0.025,-0.308l-0.012,-0.295l-0.025,-0.308l-0.025,-0.295l-0.037,-0.308l-0.024,-0.295l-0.049,-0.603l-0.037,-0.308l-0.05,-0.603l-0.11,-0.923l-0.025,-0.296l-0.185,-1.538l-0.049,-0.308l-0.037,-0.307l-0.037,-0.32l-0.049,-0.308l-0.037,-0.308l-0.098,-0.615l-0.049,-0.32l-0.037,-0.308l-0.05,-0.32l-0.049,-0.308l-0.061,-0.307l-0.099,-0.64l-0.049,-0.308l-0.062,-0.32l-0.049,-0.32l-0.061,-0.32l-0.05,-0.308l-0.43,-2.24l-0.074,-0.32l-0.123,-0.64l-0.074,-0.32l-0.074,-0.332l-0.062,-0.32l-0.073,-0.332l-0.148,-0.64l-0.074,-0.333l-0.074,-0.32l-0.074,-0.332l-0.086,-0.32l-0.074,-0.332l-0.086,-0.332l-0.074,-0.333l-0.172,-0.664l-0.074,-0.32l-0.344,-1.33l-0.099,-0.332l-0.086,-0.345l-0.098,-0.332l-0.087,-0.332l-0.098,-0.332l-0.086,-0.345l-0.099,-0.332l-0.098,-0.345l-0.197,-0.665l-0.099,-0.344l-0.11,-0.345l-0.099,-0.332l-0.098,-0.345l-0.222,-0.689l-0.098,-0.332l-0.554,-1.723l-0.123,-0.357l-0.222,-0.69l-0.123,-0.344l-0.123,-0.357l-0.111,-0.345l-0.123,-0.344l-0.246,-0.714l-0.123,-0.345l-0.135,-0.357l-0.123,-0.344l-0.123,-0.357l-0.136,-0.357l-0.123,-0.357l-0.135,-0.345l-0.542,-1.427l-0.135,-0.37l-0.148,-0.357l-0.135,-0.356l-0.148,-0.357l-0.135,-0.37l-0.296,-0.713l-0.295,-0.739l-0.148,-0.357l-0.148,-0.369l-0.147,-0.357l-0.16,-0.369l-0.148,-0.369l-0.48,-1.108l-0.16,-0.357l-0.16,-0.382l-0.32,-0.738l-0.172,-0.369l-0.16,-0.37l-0.173,-0.381l-0.16,-0.369l-0.172,-0.382l-0.345,-0.738l-0.344,-0.763l-0.185,-0.382l-0.172,-0.369l-0.185,-0.382l-0.172,-0.381l-0.923,-1.908l-0.197,-0.381l-0.185,-0.394l-0.197,-0.382l-0.184,-0.381l-0.197,-0.394l-0.197,-0.382l-0.197,-0.394l-0.197,-0.381l-0.197,-0.394l-0.209,-0.394l-0.197,-0.381l-0.209,-0.394l-0.197,-0.394l-1.046,-1.969l-0.222,-0.406l-0.209,-0.394l-0.222,-0.394l-0.221,-0.406l-0.209,-0.394l-0.222,-0.406l-0.221,-0.394l-0.234,-0.406l-0.222,-0.394l-0.221,-0.406l-0.234,-0.406l-0.209,-0.37l0.036,0.074Zm12.53,-309.255l-0.283,0.431l-0.234,0.344l-0.936,1.428l-0.233,0.345l-0.234,0.356l-0.222,0.357l-0.234,0.345l-0.443,0.714l-0.221,0.344l-0.222,0.357l-0.221,0.345l-0.222,0.357l-0.221,0.345l-0.222,0.356l-0.209,0.345l-0.222,0.345l-0.209,0.357l-0.418,0.689l-0.21,0.357l-0.627,1.034l-0.197,0.344l-0.209,0.357l-0.197,0.345l-0.21,0.344l-1.181,2.068l-0.185,0.345l-0.197,0.332l-0.369,0.689l-0.197,0.345l-0.184,0.344l-0.185,0.333l-0.369,0.689l-0.173,0.345l-0.184,0.332l-0.185,0.345l-0.172,0.344l-0.185,0.332l-0.172,0.333l-0.345,0.689l-0.172,0.332l-0.172,0.345l-0.345,0.665l-0.16,0.344l-0.172,0.332l-0.16,0.333l-0.173,0.344l-0.48,0.997l-0.16,0.345l-0.48,0.997l-0.147,0.332l-0.16,0.332l-0.148,0.345l-0.16,0.32l-1.182,2.659l-0.135,0.332l-0.148,0.332l-0.135,0.32l-0.271,0.665l-0.147,0.332l-0.136,0.32l-0.271,0.665l-0.123,0.32l-0.135,0.332l-0.135,0.32l-0.124,0.332l-0.135,0.333l-0.246,0.64l-0.135,0.332l-0.124,0.332l-0.246,0.64l-0.123,0.333l-0.111,0.32l-0.123,0.32l-0.123,0.332l-0.11,0.32l-0.124,0.32l-0.11,0.32l-0.111,0.332l-0.123,0.32l-0.443,1.28l-0.099,0.332l-0.221,0.64l-0.099,0.32l-0.111,0.32l-0.098,0.32l-0.111,0.32l-0.295,0.96l-0.099,0.308l-0.295,0.96l-0.086,0.32l-0.197,0.64l-0.086,0.308l-0.099,0.32l-0.086,0.32l-0.086,0.308l-0.172,0.64l-0.086,0.307l-0.173,0.64l-0.086,0.308l-0.086,0.32l-0.074,0.308l-0.172,0.64l-0.148,0.615l-0.086,0.32l-0.074,0.308l-0.074,0.32l-0.147,0.615l-0.074,0.32l-0.148,0.615l-0.062,0.32l-0.147,0.616l-0.062,0.32l-0.061,0.308l-0.074,0.307l-0.062,0.308l-0.061,0.32l-0.074,0.308l-0.185,0.923l-0.049,0.307l-0.185,0.923l-0.049,0.308l-0.061,0.308l-0.05,0.308l-0.061,0.307l-0.148,0.923l-0.061,0.308l-0.197,1.231l-0.037,0.295l-0.099,0.616l-0.037,0.307l-0.049,0.296l-0.037,0.307l-0.049,0.308l-0.037,0.308l-0.049,0.295l-0.037,0.308l-0.037,0.295l-0.074,0.616l-0.147,1.206l-0.062,0.615l-0.062,0.591l-0.061,0.615l-0.062,0.591l-0.049,0.603l-0.061,0.603l-0.05,0.603l-0.037,0.603l-0.049,0.591l-0.037,0.603l-0.037,0.591l-0.037,0.603l-0.036,0.591l-0.05,1.194l-0.049,1.181l-0.012,0.603l-0.025,0.591l-0.024,1.182l-0,0.59l-0.013,0.591l0,2.351l0.049,2.351l0.025,1.157l0.025,0.59l0.074,1.748l0.073,1.157l0.025,0.591l0.074,1.157l0.049,0.578l0.037,0.579l0.197,2.313l0.049,0.567l0.062,0.578l0.049,0.578l0.123,1.157l0.062,0.567l0.073,0.578l0.062,0.566l0.074,0.579l0.061,0.578l0.074,0.566l0.074,0.579l0.074,0.566l0.086,0.566l0.074,0.578l0.086,0.567l0.074,0.578l0.258,1.699l0.099,0.578l0.172,1.132l0.197,1.133l0.098,0.578l0.394,2.265l0.111,0.566l0.099,0.566l0.221,1.132l0.099,0.566l0.11,0.567l0.123,0.553l0.333,1.699l0.123,0.566l0.111,0.566l0.123,0.554l0.123,0.566l0.11,0.566l0.124,0.567l0.123,0.553l0.135,0.567l0.246,1.132l0.123,0.554l0.136,0.566l0.123,0.566l0.135,0.554l0.123,0.566l0.136,0.566l0.135,0.554l0.123,0.566l0.135,0.566l0.136,0.554l0.135,0.566l0.271,1.12l0.283,1.12l0.271,1.12l0.849,3.36l0.295,1.133l0.567,2.24l0.886,3.36l0.591,2.252l1.181,4.492l0.591,2.24l0.295,1.133l0.283,1.12l0.296,1.132l0.295,1.12l0.295,1.132l0.284,1.132l0.295,1.12l0.849,3.397l0.271,1.145l0.283,1.132l0.542,2.265l0.135,0.578l0.406,1.699l0.136,0.578l0.123,0.566l0.135,0.579l0.123,0.566l0.135,0.566l0.124,0.579l0.123,0.566l0.123,0.578l0.123,0.566l0.135,0.579l0.111,0.578l0.123,0.567l0.246,1.156l0.111,0.579l0.123,0.578l0.111,0.566l0.111,0.579l0.123,0.578l0.332,1.736l0.098,0.578l0.111,0.579l0.099,0.578l0.11,0.579l0.099,0.59l0.098,0.579l0.111,0.578l0.086,0.579l0.099,0.591l0.098,0.578l0.099,0.591l0.086,0.578l0.098,0.591l0.086,0.578l0.087,0.591l0.086,0.579l0.086,0.59l0.074,0.591l0.086,0.591l0.074,0.578l0.074,0.591l0.086,0.591l0.074,0.591l0.061,0.591l0.074,0.59l0.074,0.603l0.246,2.363l0.061,0.604l0.05,0.59l0.061,0.603l0.049,0.591l0.099,1.206l0.049,0.591l0.037,0.603l0.049,0.603l0.037,0.591l0.074,1.206l0.037,0.616l0.025,0.59l0.037,0.616l0.049,1.206l0.012,0.603l0.025,0.615l0.061,3.04l0,2.462l-0.012,0.603l-0,0.628l-0.025,1.23l-0.024,0.616l-0.013,0.615l-0.024,0.628l-0.025,0.615l-0.024,0.628l-0.037,0.615l-0.025,0.628l-0.037,0.615l-0.037,0.628l-0.049,0.628l-0.037,0.627l-0.148,1.884l-0.123,1.255l-0.061,0.64l-0.062,0.628l-0.074,0.627l-0.061,0.64l-0.074,0.628l-0.086,0.64l-0.074,0.64l-0.049,0.32l-0.037,0.32l-0.049,0.32l-0.037,0.308l-0.099,0.64l-0.037,0.32l-0.049,0.32l-0.049,0.332l-0.049,0.308l-0.05,0.32l-0.049,0.332l-0.049,0.32l-0.062,0.32l-0.098,0.64l-0.062,0.32l-0.049,0.332l-0.061,0.32l-0.05,0.32l-0.061,0.32l-0.062,0.333l-0.184,0.96l-0.062,0.332l-0.061,0.32l-0.062,0.332l-0.062,0.32l-0.073,0.333l-0.062,0.32l-0.074,0.332l-0.061,0.32l-0.074,0.332l-0.062,0.32l-0.074,0.332l-0.073,0.32l-0.148,0.665l-0.074,0.32l-0.148,0.665l-0.086,0.32l-0.147,0.664l-0.087,0.333l-0.086,0.32l-0.074,0.332l-0.172,0.665l-0.086,0.32l-0.074,0.332l-0.086,0.332l-0.099,0.332l-0.258,0.997l-0.098,0.333l-0.087,0.332l-0.098,0.332l-0.086,0.333l-0.099,0.332l-0.098,0.345l-0.492,1.661l-0.099,0.345l-0.111,0.332l-0.098,0.332l-0.111,0.345l-0.098,0.332l-0.111,0.333l-0.111,0.344l-0.111,0.332l-0.111,0.345l-0.221,0.665l-0.222,0.689l-0.123,0.332l-0.11,0.333l-0.111,0.344l-0.123,0.345l-0.123,0.332l-0.111,0.345l-0.123,0.344l-0.123,0.333l-0.37,1.033l-0.135,0.333l-0.246,0.689l-0.135,0.345l-0.124,0.344l-0.036,0.074l0.209,-0.369l0.234,-0.406l0.443,-0.8l0.455,-0.8l0.431,-0.8l0.443,-0.8l0.209,-0.394l0.431,-0.8l0.837,-1.576l1.009,-1.956l0.197,-0.382l0.394,-0.775l0.381,-0.776l0.197,-0.381l0.382,-0.776l0.738,-1.526l0.357,-0.763l0.357,-0.751l0.185,-0.381l0.344,-0.763l0.173,-0.37l0.344,-0.75l0.333,-0.751l0.332,-0.739l0.32,-0.738l0.32,-0.751l0.16,-0.357l0.16,-0.369l0.308,-0.738l0.16,-0.37l0.295,-0.726l0.443,-1.095l0.148,-0.357l0.283,-0.726l0.283,-0.714l0.283,-0.726l0.542,-1.428l0.258,-0.701l0.136,-0.357l0.123,-0.357l0.258,-0.702l0.123,-0.344l0.246,-0.714l0.123,-0.345l0.234,-0.701l0.234,-0.69l0.234,-0.701l0.554,-1.723l0.098,-0.333l0.222,-0.689l0.307,-1.021l0.197,-0.677l0.099,-0.333l0.197,-0.677l0.086,-0.344l0.185,-0.665l0.098,-0.332l0.185,-0.677l0.344,-1.329l0.16,-0.653l0.16,-0.664l0.16,-0.652l0.234,-0.985l0.295,-1.305l0.062,-0.32l0.148,-0.652l0.123,-0.64l0.074,-0.32l0.43,-2.24l0.05,-0.308l0.11,-0.64l0.062,-0.32l0.049,-0.307l0.049,-0.32l0.111,-0.628l0.099,-0.628l0.086,-0.627l0.098,-0.616l0.037,-0.308l0.049,-0.307l0.074,-0.628l0.049,-0.308l0.185,-1.538l0.025,-0.295l0.11,-0.924l0.025,-0.295l0.062,-0.615l0.024,-0.296l0.025,-0.307l0.061,-0.603l0.025,-0.296l0.025,-0.308l0.037,-0.603l0.024,-0.295l0.037,-0.591l0.062,-0.898l0.098,-2.363l0.012,-0.283l0.013,-0.591l0.012,-0.296l0.012,-0.578l0,-0.283l0.013,-0.591l-0,-2.301l-0.013,-0.283l0,-0.579l-0.012,-0.283l0,-0.283l-0.037,-0.849l0,-0.283l-0.012,-0.296l-0.013,-0.271l-0.049,-1.132l-0.037,-0.566l-0.024,-0.554l-0.037,-0.566l-0.037,-0.554l-0.049,-0.554l-0.037,-0.554l-0.148,-1.661l-0.062,-0.542l-0.061,-0.553l-0.049,-0.542l-0.062,-0.554l-0.074,-0.541l-0.061,-0.542l-0.296,-2.166l-0.086,-0.529l-0.074,-0.542l-0.086,-0.529l-0.086,-0.542l-0.086,-0.529l-0.099,-0.529l-0.086,-0.542l-0.197,-1.058l-0.098,-0.517l-0.099,-0.529l-0.11,-0.529l-0.099,-0.517l-0.221,-1.059l-0.222,-1.034l-0.123,-0.517l-0.111,-0.529l-0.492,-2.067l-0.135,-0.505l-0.123,-0.517l-0.136,-0.517l-0.123,-0.505l-0.135,-0.516l-0.136,-0.505l-0.147,-0.517l-0.136,-0.505l-0.135,-0.517l-0.148,-0.504l-0.135,-0.505l-0.739,-2.523l-0.16,-0.504l-0.147,-0.505l-0.16,-0.492l-0.16,-0.505l-0.148,-0.505l-0.16,-0.492l-0.16,-0.505l-0.16,-0.492l-0.172,-0.504l-0.16,-0.493l-0.16,-0.504l-0.173,-0.493l-0.16,-0.492l-0.172,-0.505l-0.345,-0.984l-0.16,-0.493l-0.172,-0.492l-0.172,-0.504l-0.173,-0.48l-0.184,-0.505l-0.173,-0.492l-0.172,-0.48l-0.184,-0.505l-0.173,-0.48l-0.184,-0.492l-0.173,-0.493l-0.184,-0.492l-0.357,-0.985l-0.369,-0.972l-0.37,-0.984l-0.738,-1.945l-0.369,-0.985l-0.382,-0.972l-0.369,-0.972l-0.382,-0.973l-0.369,-0.972l-0.763,-1.957l-1.502,-3.889l-0.381,-0.972l-0.382,-0.985l-0.738,-1.945l-0.382,-0.984l-0.369,-0.973l-0.738,-1.969l-0.357,-0.984l-0.37,-0.985l-0.172,-0.492l-0.184,-0.493l-0.173,-0.492l-0.184,-0.492l-0.345,-0.985l-0.185,-0.504l-0.344,-0.985l-0.173,-0.505l-0.344,-0.984l-0.172,-0.505l-0.16,-0.492l-0.173,-0.505l-0.16,-0.492l-0.172,-0.505l-0.16,-0.504l-0.16,-0.493l-0.172,-0.504l-0.32,-1.01l-0.148,-0.504l-0.32,-1.009l-0.148,-0.505l-0.16,-0.505l-0.147,-0.504l-0.148,-0.517l-0.148,-0.505l-0.148,-0.517l-0.147,-0.504l-0.148,-0.517l-0.135,-0.505l-0.148,-0.517l-0.135,-0.504l-0.677,-2.585l-0.123,-0.517l-0.123,-0.529l-0.136,-0.517l-0.123,-0.517l-0.123,-0.529l-0.111,-0.517l-0.123,-0.529l-0.111,-0.53l-0.123,-0.517l-0.221,-1.058l-0.099,-0.529l-0.11,-0.529l-0.099,-0.53l-0.098,-0.541l-0.111,-0.529l-0.086,-0.53l-0.197,-1.083l-0.086,-0.529l-0.259,-1.625l-0.074,-0.541l-0.086,-0.542l-0.074,-0.541l-0.074,-0.554l-0.061,-0.542l-0.074,-0.553l-0.062,-0.554l-0.061,-0.542l-0.185,-1.661l-0.049,-0.567l-0.098,-1.107l-0.037,-0.566l-0.05,-0.554l-0.073,-1.133l-0.025,-0.566l-0.037,-0.566l-0.061,-1.415l-0,-0.296l-0.037,-0.849l-0,-0.295l-0.013,-0.283l0,-0.283l-0.012,-0.296l0,-1.157l-0.012,-0.283l-0,-0.295l0.012,-0.579l0,-0.886l0.012,-0.295l0.025,-1.169l0.025,-0.887l0.024,-0.59l0.037,-0.591l0.025,-0.603l0.037,-0.591l0.012,-0.295l0.037,-0.603l0.098,-1.207l0.074,-0.898l0.086,-0.911l0.062,-0.615l0.024,-0.308l0.074,-0.603l0.025,-0.308l0.185,-1.538l0.049,-0.32l0.074,-0.615l0.098,-0.616l0.037,-0.32l0.098,-0.615l0.05,-0.32l0.049,-0.308l0.049,-0.32l0.099,-0.628l0.049,-0.307l0.061,-0.32l0.05,-0.32l0.11,-0.628l0.124,-0.64l0.11,-0.628l0.062,-0.32l0.135,-0.64l0.123,-0.64l0.074,-0.332l0.136,-0.64l0.061,-0.32l0.148,-0.652l0.147,-0.64l0.148,-0.653l0.16,-0.652l0.074,-0.332l0.086,-0.333l0.16,-0.652l0.259,-0.984l0.172,-0.665l0.185,-0.665l0.086,-0.332l0.098,-0.332l0.185,-0.665l0.197,-0.677l0.098,-0.332l0.394,-1.354l0.111,-0.332l0.209,-0.677l0.111,-0.345l0.209,-0.677l0.111,-0.344l0.234,-0.69l0.221,-0.689l0.234,-0.689l0.492,-1.379l0.37,-1.046l0.123,-0.357l0.135,-0.344l0.258,-0.702l0.136,-0.357l0.135,-0.344l0.259,-0.702l0.283,-0.714l0.135,-0.357l0.283,-0.713l0.148,-0.357l0.283,-0.714l0.295,-0.714l0.308,-0.714l0.295,-0.726l0.32,-0.726l0.308,-0.726l0.32,-0.727l0.333,-0.738l0.332,-0.726l0.332,-0.739l0.689,-1.477l0.345,-0.75l0.357,-0.751l0.369,-0.739l0.369,-0.75l0.37,-0.763l0.197,-0.37l0.369,-0.763l1.378,-2.67l0.209,-0.382l0.407,-0.775l0.837,-1.551l0.861,-1.551l0.431,-0.788l0.664,-1.181l0.234,-0.394l0.443,-0.788l0.234,-0.394l0.234,-0.406l0.148,-0.258Z"/></g><g id="F"><path d="M374.002,778.526c17.949,-12.12 31.353,-21.295 39.987,-27.638c8.634,-6.229 17.722,-14.045 27.037,-23.333c9.315,-9.287 17.154,-19.821 23.515,-31.488c4.999,-8.608 9.315,-18.576 12.837,-29.902c3.522,-11.214 5.339,-22.087 5.68,-32.395c0,-9.627 -1.25,-18.802 -3.862,-27.41c-2.5,-8.722 -6.816,-15.857 -12.951,-21.634c-6.134,-5.663 -14.086,-8.495 -23.969,-8.495c-9.543,-0 -18.517,1.925 -26.924,5.663c-8.293,3.851 -14.2,9.968 -17.494,18.576c-0,0.793 -0.455,1.812 -1.136,3.285c0.227,1.812 1.136,3.171 2.84,4.191c1.704,1.019 3.181,1.472 4.544,1.472c0.681,0 2.613,-0.34 5.566,-1.019c3.067,-0.68 5.567,-1.133 7.611,-1.133c6.021,0 11.36,2.152 16.245,6.343c4.772,4.191 7.157,9.288 7.157,15.291c0,4.304 -1.249,8.382 -3.635,12.12c-2.386,3.737 -5.68,6.796 -9.883,8.948c-4.204,2.265 -8.861,3.284 -13.86,3.284c-9.088,0 -16.812,-2.718 -23.174,-8.268c-6.248,-5.663 -9.429,-12.799 -9.429,-21.747c0,-11.44 3.522,-21.295 10.451,-29.676c7.044,-8.382 15.904,-14.612 26.81,-18.803c10.792,-4.304 21.698,-6.343 32.831,-6.343c12.155,0 23.742,3.059 34.534,9.288c10.906,6.117 19.426,14.612 25.787,25.146c6.362,10.647 9.656,21.973 9.656,34.206c0,21.747 -7.27,41.909 -21.811,60.598c-14.541,18.689 -32.49,34.886 -53.96,48.705c-14.314,9.401 -37.488,22.087 -69.41,38.057l-1.59,-5.889Zm157.791,-175.224c-0,-4.078 1.476,-7.476 4.43,-10.194c2.84,-2.832 6.362,-4.191 10.565,-4.191c3.635,-0 7.043,1.586 10.11,4.644c3.067,2.945 4.544,6.456 4.544,10.307c0,4.078 -1.59,7.589 -4.544,10.421c-3.181,2.718 -6.702,4.077 -10.678,4.077c-4.203,0 -7.611,-1.359 -10.338,-4.417c-2.726,-2.945 -4.089,-6.456 -4.089,-10.647Zm-0,59.352c-0,-4.078 1.476,-7.589 4.203,-10.308c2.84,-2.831 6.361,-4.191 10.792,-4.191c3.635,0 6.929,1.473 10.11,4.531c2.954,3.058 4.544,6.343 4.544,9.968c0,4.417 -1.477,7.928 -4.317,10.76c-2.953,2.832 -6.361,4.304 -10.337,4.304c-4.431,0 -7.952,-1.472 -10.792,-4.191c-2.727,-2.718 -4.203,-6.343 -4.203,-10.873Z" style="fill:#131516;stroke:#131516;stroke-width:0.34px;stroke-linecap:butt;stroke-linejoin:miter;stroke-miterlimit:4;"/></g><g id="G"><path d="M446.979,262.037c-5.531,1.134 -10.656,4.168 -15.547,9.002c-4.898,4.922 -7.52,10.537 -7.948,16.748c-0.269,3.905 0.759,8.433 3.014,13.315c2.249,4.969 5.924,8.7 10.841,11.268c1.665,0.472 2.405,1.414 2.319,2.656c-0.031,0.444 -0.683,0.845 -2.22,1.095c-7.954,-2.599 -14.326,-7.407 -19.038,-14.241c-4.706,-6.922 -6.86,-14.56 -6.45,-23.091c0.898,-9.122 4.243,-17.45 10.029,-24.897c5.883,-7.528 13.118,-12.646 21.706,-15.353l-3.965,-31.924c-14.482,10.413 -26.415,21.447 -35.9,33.275c-9.48,11.739 -14.852,24.831 -16.206,39.27c-0.269,6.49 0.631,12.882 2.705,19.088c2.068,6.295 5.425,12.055 10.057,17.456c9.36,10.721 22.074,16.858 37.96,18.489c5.45,0.019 11.299,-0.558 17.636,-1.726l-8.993,-70.43Zm6.466,-0.446l9.168,69.195c14.078,-4.556 21.754,-16.063 23.015,-34.342c-0.378,-6.178 -1.778,-11.803 -4.465,-16.892c-2.593,-5.171 -6.238,-9.346 -11.022,-12.529c-4.786,-3.183 -10.292,-4.989 -16.696,-5.432Zm-11.868,-93.542c3.058,-1.573 6.652,-4.445 10.599,-8.542c3.941,-4.007 7.849,-8.82 11.62,-14.265c3.868,-5.529 7.029,-11.195 9.485,-16.999c2.45,-5.715 3.814,-11.238 4.169,-16.385c0.153,-2.218 0.129,-4.448 -0.181,-6.432c-0.136,-3.219 -0.943,-5.771 -2.517,-7.573c-1.579,-1.714 -3.653,-2.749 -6.322,-2.933c-5.336,-0.368 -10.367,2.584 -15.089,8.855c-3.684,5.453 -6.906,12.006 -9.39,19.502c-2.578,7.579 -4.261,15.13 -4.972,22.838c-0.161,8.815 0.766,16.101 2.598,21.934Zm-5.959,4.76c-3.011,-14.651 -4.224,-29.446 -3.641,-44.384c0.751,-9.578 2.347,-18.472 4.791,-26.684c2.355,-8.219 5.43,-15.229 9.239,-21.207c3.72,-5.984 7.869,-10.423 12.359,-13.323c4.021,-2.576 6.883,-3.894 8.394,-3.789c1.157,0.079 2.105,0.59 2.94,1.451c0.833,0.859 1.898,2.27 3.199,4.143c9.55,15.726 13.638,34.197 12.182,55.315c-0.692,10.028 -2.7,19.697 -6.042,29.274c-3.248,9.493 -7.709,18.458 -13.373,26.715c-5.76,8.341 -12.328,15.466 -19.803,21.459l4.794,35.459c3.943,-0.174 6.637,-0.345 8.149,-0.241c6.76,0.466 12.711,2.304 18.119,5.53c5.408,3.227 9.948,7.374 13.525,12.524c3.583,5.062 6.228,10.771 7.934,17.131c1.618,6.352 2.327,12.909 1.862,19.654c-0.723,10.47 -4.141,19.863 -10.251,28.09c-6.108,8.227 -14.815,13.956 -26.216,17.271c0.412,4.398 1.222,10.783 2.533,18.987c1.216,8.286 2.103,14.856 2.662,19.709c0.559,4.854 0.597,9.492 0.284,14.018c-0.483,7.009 -2.602,13.104 -6.362,18.373c-3.849,5.262 -8.768,9.202 -14.847,11.814c-5.99,2.619 -12.499,3.685 -19.437,3.206c-9.784,-0.675 -18.134,-4.015 -25.055,-9.931c-6.914,-6.005 -10.319,-13.64 -10.027,-23.07c0.556,-4.153 1.803,-7.99 3.84,-11.593c2.036,-3.605 4.645,-6.456 7.918,-8.549c3.19,-2.187 6.923,-3.177 11.122,-3.155c3.469,0.24 6.692,1.443 9.677,3.521c2.89,2.161 5.203,4.906 6.844,8.318c1.552,3.406 2.28,7.112 2.011,11.016c-0.362,5.235 -2.447,9.549 -6.256,12.942c-3.809,3.393 -8.474,4.943 -13.9,4.569l-2.046,-0.142c3.102,5.564 8.605,8.707 16.522,9.254c4.003,0.276 8.155,-0.329 12.357,-1.644c4.298,-1.398 7.92,-3.376 11.051,-6.013c3.131,-2.638 5.296,-5.52 6.318,-8.659c1.763,-3.533 2.823,-8.543 3.258,-14.842c0.293,-4.26 0.143,-8.55 -0.364,-12.864c-0.513,-4.226 -1.372,-9.903 -2.585,-16.94c-1.219,-6.949 -2.097,-12.36 -2.557,-16.047c-5.429,0.963 -10.993,1.293 -16.775,0.894c-9.696,-0.67 -18.723,-3.254 -27.076,-7.842c-8.352,-4.588 -15.534,-10.612 -21.626,-18.165c-6.004,-7.547 -10.522,-15.883 -13.545,-25.186c-2.94,-9.207 -4.159,-18.742 -3.575,-28.509c0.981,-9.026 3.271,-17.606 7.037,-25.548c3.771,-8.032 8.402,-15.558 13.974,-22.485c5.572,-6.926 11.28,-13.22 17.116,-18.79c5.919,-5.476 13.645,-12.521 23.348,-21.035Z" style="fill:#131516;stroke:#131516;stroke-width:0.27px;stroke-linecap:butt;stroke-linejoin:miter;stroke-miterlimit:4;"/></g></g></g></svg>