<?xml version="1.0" encoding="UTF-8" standalone="no"?><!DOCTYPE svg PUBLIC "-//W3C//DTD SVG 1.1//EN" "http://www.w3.org/Graphics/SVG/1.1/DTD/svg11.dtd"><svg width="2282.0px" height="1035.0px" viewBox="0 0 2282 1035" version="1.1" xmlns="http://www.w3.org/2000/svg" xmlns:xlink="http://www.w3.org/1999/xlink" xml:space="preserve" xmlns:serif="http://www.serif.com/" style="fill-rule:evenodd;clip-rule:evenodd;stroke-linecap:round;stroke-linejoin:round;stroke-miterlimit:1.5;"><g><g id="melo_icd_tendency"><rect x="0" y="0" width="2281.5" height="1034.98" style="fill:none;"/><g id="大譜表"><g id="外枠"><rect x="157.974" y="175.486" width="2085.03" height="700.001" style="fill:#fff;fill-opacity:0.78;stroke:#000;stroke-width:1.98px;"/></g><g id="_--G線" serif:id="↑ G線"><path d="M158,355.484l2085.04,0" style="fill:none;stroke:#000;stroke-width:1.97px;"/></g><g id="_--E線" serif:id="↑ E線"><path d="M158,415.483l2085.04,0" style="fill:none;stroke:#000;stroke-width:1.97px;"/></g><g id="_--B線" serif:id="↑ B線"><path d="M158,295.483l2085.04,0" style="fill:none;stroke:#000;stroke-width:1.97px;"/></g><g id="_--D線" serif:id="↑ D線"><path d="M158,235.484l2085.04,0" style="fill:none;stroke:#000;stroke-width:1.97px;"/></g><g id="_--B線1" serif:id="↓ B線"><path d="M158,815.484l2085.04,0" style="fill:none;stroke:#000;stroke-width:1.97px;"/></g><g id="_--D線1" serif:id="↓ D線"><path d="M158,755.484l2085.04,0" style="fill:none;stroke:#000;stroke-width:1.97px;"/></g><g id="_--F線" serif:id="↓ F線"><path d="M158,695.484l2085.04,0" style="fill:none;stroke:#000;stroke-width:1.97px;"/></g><g id="_--A線" serif:id="↓ A線"><path d="M158,635.484l2085.04,0" style="fill:none;stroke:#000;stroke-width:1.97px;"/></g></g><g id="bar3"><path d="M1177.72,176.488l0,698.002" style="fill:none;stroke:#000;stroke-width:2.99px;stroke-dasharray:11.98,11.98,0,0;"/></g><g id="bar31" serif:id="bar3"><path d="M1437.72,176.488l-0,698.002" style="fill:none;stroke:#000;stroke-width:3.99px;"/></g><g id="path7229"><path d="M800.177,386.486c-27.719,-0 -50.175,13.494 -50.175,30.042c0,16.544 22.456,29.958 50.175,29.958c27.719,0 50.258,-13.414 50.258,-29.958c-0,-16.548 -22.539,-30.042 -50.258,-30.042Zm-12.261,5.44c7.21,-0.093 16.09,2.726 24.441,8.364c14.843,10.018 22.291,25.108 16.643,33.611c-5.648,8.504 -22.26,7.259 -37.103,-2.759c-14.846,-10.021 -22.292,-25.111 -16.646,-33.614c2.473,-3.721 7.061,-5.529 12.665,-5.602Z" style="fill:#49b656;fill-rule:nonzero;"/></g><g id="path72291" serif:id="path7229"><path d="M550.176,446.486c-27.719,0 -50.174,13.495 -50.174,30.042c-0,16.545 22.455,29.959 50.174,29.959c27.72,-0 50.258,-13.414 50.258,-29.959c0,-16.547 -22.538,-30.042 -50.258,-30.042Zm-12.26,5.441c7.21,-0.094 16.09,2.725 24.44,8.363c14.843,10.018 22.292,25.108 16.644,33.612c-5.649,8.503 -22.261,7.259 -37.104,-2.76c-14.845,-10.02 -22.292,-25.11 -16.646,-33.614c2.473,-3.72 7.062,-5.528 12.666,-5.601Z" style="fill:#49b656;fill-rule:nonzero;"/></g><g id="しっぽ"><rect x="480.121" y="474.335" width="138.818" height="2" style="fill:#49b656;"/></g><g id="path72292" serif:id="path7229"><path d="M1300.18,266.486c-27.719,-0 -50.175,13.494 -50.175,30.042c0,16.544 22.456,29.958 50.175,29.958c27.719,0 50.258,-13.414 50.258,-29.958c-0,-16.548 -22.539,-30.042 -50.258,-30.042Zm-12.261,5.44c7.21,-0.093 16.09,2.726 24.441,8.363c14.843,10.019 22.292,25.109 16.643,33.612c-5.648,8.504 -22.26,7.259 -37.103,-2.759c-14.846,-10.021 -22.292,-25.111 -16.646,-33.614c2.473,-3.721 7.061,-5.529 12.665,-5.602Z" style="fill:#f1ab31;fill-rule:nonzero;"/></g><g id="path72293" serif:id="path7229"><path d="M1050.18,326.486c-27.719,-0 -50.174,13.494 -50.174,30.042c-0,16.544 22.455,29.958 50.174,29.958c27.719,0 50.258,-13.414 50.258,-29.958c0,-16.548 -22.539,-30.042 -50.258,-30.042Zm-12.26,5.44c7.209,-0.093 16.09,2.726 24.44,8.363c14.843,10.019 22.292,25.109 16.644,33.612c-5.649,8.504 -22.261,7.259 -37.104,-2.759c-14.846,-10.021 -22.292,-25.111 -16.646,-33.614c2.473,-3.721 7.062,-5.529 12.666,-5.602Z" style="fill:#49b656;fill-rule:nonzero;"/></g><g id="path72294" serif:id="path7229"><path d="M1840.18,356.486c-27.719,-0 -50.175,13.494 -50.175,30.042c0,16.544 22.456,29.958 50.175,29.958c27.719,0 50.258,-13.414 50.258,-29.958c-0,-16.548 -22.539,-30.042 -50.258,-30.042Zm-12.261,5.44c7.21,-0.093 16.09,2.726 24.441,8.363c14.843,10.019 22.292,25.108 16.643,33.612c-5.648,8.504 -22.26,7.259 -37.103,-2.759c-14.846,-10.021 -22.292,-25.111 -16.646,-33.614c2.473,-3.721 7.061,-5.529 12.665,-5.602Z" style="fill:#f63;fill-rule:nonzero;"/></g><g id="path72295" serif:id="path7229"><path d="M2090.18,296.486c-27.719,-0 -50.175,13.494 -50.175,30.042c0,16.544 22.456,29.958 50.175,29.958c27.719,0 50.258,-13.414 50.258,-29.958c-0,-16.548 -22.539,-30.042 -50.258,-30.042Zm-12.26,5.44c7.209,-0.093 16.09,2.726 24.44,8.364c14.843,10.018 22.292,25.108 16.643,33.611c-5.648,8.504 -22.26,7.259 -37.103,-2.759c-14.846,-10.021 -22.292,-25.111 -16.646,-33.614c2.473,-3.721 7.061,-5.529 12.666,-5.602Z" style="fill:#f63;fill-rule:nonzero;"/></g><g id="path72296" serif:id="path7229"><path d="M1590.18,416.486c-27.719,0 -50.174,13.495 -50.174,30.042c-0,16.545 22.455,29.959 50.174,29.959c27.72,-0 50.258,-13.414 50.258,-29.959c0,-16.547 -22.538,-30.042 -50.258,-30.042Zm-12.26,5.441c7.21,-0.094 16.09,2.725 24.44,8.363c14.843,10.018 22.292,25.108 16.644,33.612c-5.648,8.503 -22.261,7.259 -37.104,-2.76c-14.845,-10.02 -22.292,-25.11 -16.646,-33.614c2.474,-3.72 7.062,-5.529 12.666,-5.601Z" style="fill:#f63;fill-rule:nonzero;"/></g><g><g transform="matrix(1,0,0,0.999996,5.68434e-14,0.000486946)"><text x="478.045px" y="132.061px" style="font-family:'Arial-BoldMT', 'Arial', sans-serif;font-weight:700;font-size:56px;fill:#49b656;">Root</text></g></g><g><g transform="matrix(1,0,0,0.999996,1.13687e-13,0.00356162)"><text x="628.022px" y="965.925px" style="font-family:'NotoSansSC-Bold', 'Noto Sans SC', sans-serif;font-weight:700;font-size:72px;fill:#49b656;">倾向性弱</text></g></g><g><g transform="matrix(1,0,0,0.999996,0,0.00356162)"><text x="1658.02px" y="965.925px" style="font-family:'NotoSansSC-Bold', 'Noto Sans SC', sans-serif;font-weight:700;font-size:72px;fill:#f63;">倾向性强</text></g></g><g><g transform="matrix(1,0,0,0.999996,1.13687e-13,0.000486946)"><text x="748.225px" y="132.061px" style="font-family:'Arial-BoldMT', 'Arial', sans-serif;font-weight:700;font-size:56px;fill:#49b656;">3rd</text></g></g><g><g transform="matrix(1,0,0,0.999996,1.13687e-13,0.000486946)"><text x="1009.8px" y="132.061px" style="font-family:'Arial-BoldMT', 'Arial', sans-serif;font-weight:700;font-size:56px;fill:#49b656;">5th</text></g></g><g><g transform="matrix(1,0,0,0.999996,0,0.000486946)"><text x="1259.8px" y="132.061px" style="font-family:'Arial-BoldMT', 'Arial', sans-serif;font-weight:700;font-size:56px;fill:#f1ab31;">7th</text></g></g><g><g transform="matrix(1,0,0,0.999996,2.27374e-13,0.000486946)"><text x="1535.08px" y="132.061px" style="font-family:'ArialMT', 'Arial', sans-serif;font-size:56px;fill:#f63;">2nd</text></g></g><g><g transform="matrix(1,0,0,0.999996,2.27374e-13,0.000486946)"><text x="1802.87px" y="132.061px" style="font-family:'ArialMT', 'Arial', sans-serif;font-size:56px;fill:#f63;">4th</text></g></g><g><g transform="matrix(1,0,0,0.999996,4.54747e-13,0.000486946)"><text x="2052.87px" y="132.061px" style="font-family:'ArialMT', 'Arial', sans-serif;font-size:56px;fill:#f63;">6th</text></g></g><g id="path72297" serif:id="path7229"><path d="M545.8,696.112c-27.719,0 -50.174,13.495 -50.174,30.042c-0,16.545 22.455,29.959 50.174,29.959c27.72,-0 50.258,-13.414 50.258,-29.959c0,-16.547 -22.538,-30.042 -50.258,-30.042Zm-12.26,5.441c7.21,-0.094 16.09,2.725 24.44,8.363c14.843,10.018 22.292,25.108 16.644,33.612c-5.648,8.503 -22.261,7.259 -37.104,-2.76c-14.845,-10.021 -22.291,-25.11 -16.646,-33.614c2.474,-3.72 7.062,-5.529 12.666,-5.601Z" style="fill-rule:nonzero;"/></g><g id="path72298" serif:id="path7229"><path d="M545.8,636.112c-27.719,0 -50.174,13.495 -50.174,30.042c-0,16.545 22.455,29.959 50.174,29.959c27.72,-0 50.258,-13.414 50.258,-29.959c0,-16.547 -22.538,-30.042 -50.258,-30.042Zm-12.26,5.44c7.21,-0.093 16.09,2.726 24.44,8.364c14.843,10.018 22.292,25.108 16.644,33.611c-5.648,8.504 -22.261,7.259 -37.104,-2.759c-14.845,-10.021 -22.291,-25.11 -16.646,-33.614c2.474,-3.72 7.062,-5.529 12.666,-5.602Z" style="fill-rule:nonzero;"/></g><g id="path72299" serif:id="path7229"><path d="M545.8,756.111c-27.719,0 -50.174,13.495 -50.174,30.042c-0,16.545 22.455,29.959 50.174,29.959c27.72,-0 50.258,-13.414 50.258,-29.959c0,-16.547 -22.538,-30.042 -50.258,-30.042Zm-12.26,5.44c7.21,-0.093 16.09,2.726 24.44,8.364c14.843,10.018 22.292,25.108 16.644,33.611c-5.648,8.504 -22.261,7.259 -37.104,-2.759c-14.845,-10.021 -22.291,-25.11 -16.646,-33.614c2.474,-3.72 7.062,-5.529 12.666,-5.602Z" style="fill-rule:nonzero;"/></g><g id="bar-0" serif:id="bar 0"><path d="M158.003,177.488l0,698.002" style="fill:none;stroke:#000;stroke-width:6.02px;"/></g><g id="_-" serif:id="{"><path d="M82.755,521.109c69.329,-122.929 -74.671,-186.966 49.231,-320c-121.773,155.496 56.111,167.939 -49.231,320c69.329,122.929 -74.671,186.966 49.231,320c-121.773,-155.495 56.111,-167.938 -49.231,-320Z" style="fill-rule:nonzero;"/><path d="M142.632,189.971l-9.797,12.541l-0.357,0.456l-0.344,0.443l-0.357,0.455l-0.345,0.456l-0.689,0.886l-0.345,0.455l-0.332,0.443l-0.345,0.443l-0.332,0.456l-0.345,0.443l-0.997,1.329l-0.32,0.431l-0.332,0.443l-0.32,0.443l-0.332,0.443l-0.32,0.431l-0.32,0.443l-0.32,0.431l-0.32,0.443l-0.308,0.43l-0.32,0.431l-0.308,0.431l-0.32,0.431l-0.307,0.443l-0.308,0.418l-0.308,0.431l-0.295,0.431l-0.308,0.431l-0.295,0.43l-0.308,0.431l-0.295,0.419l-0.296,0.43l-0.295,0.419l-0.295,0.431l-0.296,0.418l-0.283,0.419l-0.295,0.43l-1.699,2.511l-0.27,0.419l-0.284,0.406l-0.541,0.837l-0.271,0.406l-0.271,0.418l-0.27,0.406l-0.259,0.419l-0.271,0.406l-0.258,0.406l-0.271,0.406l-0.258,0.419l-0.776,1.218l-0.246,0.406l-0.258,0.394l-0.247,0.406l-0.258,0.407l-0.246,0.406l-0.246,0.394l-0.246,0.406l-0.247,0.394l-0.233,0.406l-0.247,0.394l-0.233,0.393l-0.247,0.407l-0.935,1.575l-0.222,0.394l-0.467,0.787l-0.222,0.394l-0.221,0.382l-0.443,0.787l-0.222,0.382l-0.221,0.394l-0.222,0.381l-0.209,0.394l-0.222,0.382l-0.209,0.381l-0.209,0.394l-0.222,0.382l-0.197,0.381l-0.627,1.145l-0.197,0.381l-0.21,0.382l-0.196,0.381l-0.197,0.37l-0.394,0.763l-0.197,0.369l-0.197,0.382l-0.197,0.369l-0.185,0.381l-0.184,0.37l-0.197,0.369l-0.185,0.381l-0.738,1.477l-0.173,0.369l-0.184,0.37l-0.172,0.369l-0.185,0.369l-0.172,0.369l-0.173,0.357l-0.344,0.739l-0.173,0.357l-0.16,0.369l-0.172,0.357l-0.16,0.369l-0.172,0.357l-0.32,0.714l-0.16,0.369l-0.48,1.071l-0.148,0.357l-0.16,0.357l-0.295,0.714l-0.16,0.356l-0.148,0.345l-0.295,0.714l-0.148,0.345l-0.135,0.356l-0.148,0.345l-0.136,0.357l-0.147,0.345l-0.136,0.357l-0.406,1.033l-0.135,0.357l-0.271,0.69l-0.123,0.344l-0.135,0.345l-0.123,0.344l-0.136,0.333l-0.369,1.034l-0.123,0.332l-0.246,0.689l-0.111,0.332l-0.123,0.345l-0.111,0.332l-0.111,0.345l-0.123,0.332l-0.111,0.333l-0.11,0.344l-0.333,0.997l-0.098,0.332l-0.111,0.345l-0.111,0.332l-0.098,0.32l-0.197,0.665l-0.111,0.332l-0.197,0.665l-0.086,0.32l-0.098,0.332l-0.099,0.32l-0.098,0.332l-0.086,0.32l-0.087,0.333l-0.098,0.332l-0.258,0.96l-0.087,0.332l-0.258,0.96l-0.074,0.32l-0.086,0.32l-0.074,0.32l-0.086,0.333l-0.074,0.307l-0.295,1.28l-0.074,0.308l-0.074,0.32l-0.074,0.308l-0.061,0.32l-0.074,0.32l-0.062,0.307l-0.074,0.32l-0.061,0.308l-0.062,0.32l-0.123,0.616l-0.061,0.32l-0.185,0.923l-0.049,0.307l-0.062,0.308l-0.049,0.308l-0.061,0.307l-0.05,0.308l-0.049,0.32l-0.061,0.295l-0.099,0.616l-0.037,0.295l-0.148,0.923l-0.036,0.296l-0.05,0.307l-0.037,0.308l-0.049,0.295l-0.037,0.308l-0.074,0.591l-0.049,0.308l-0.074,0.59l-0.024,0.308l-0.074,0.591l-0.037,0.308l-0.025,0.295l-0.037,0.295l-0.024,0.283l-0.025,0.308l-0.037,0.295l-0.074,0.887l-0.049,0.578l-0.049,0.591l-0.012,0.283l-0.05,0.591l-0.012,0.295l-0.025,0.283l-0.024,0.579l-0.025,0.295l-0.049,1.145l-0.025,0.578l0,0.283l-0.024,0.579l-0,0.283l-0.013,0.283l0,0.283l-0.012,0.283l0,3.101l0.012,0.284l0,0.283l0.013,0.27l-0,0.283l0.024,0.554l0,0.283l0.074,1.662l0.025,0.541l0.074,1.108l0.074,1.083l0.049,0.554l0.037,0.542l0.098,1.083l0.062,0.529l0.049,0.541l0.061,0.542l0.062,0.529l0.062,0.542l0.073,0.529l0.062,0.529l0.074,0.542l0.221,1.587l0.086,0.517l0.259,1.588l0.086,0.517l0.099,0.529l0.086,0.517l0.295,1.551l0.111,0.517l0.098,0.517l0.443,2.067l0.123,0.505l0.111,0.517l0.123,0.505l0.123,0.517l0.123,0.504l0.124,0.517l0.246,1.009l0.135,0.505l0.123,0.505l0.406,1.513l0.148,0.505l0.271,1.009l0.147,0.493l0.296,1.009l0.148,0.492l0.147,0.505l0.148,0.492l0.148,0.505l0.16,0.492l0.147,0.492l0.16,0.505l0.32,0.984l0.148,0.505l0.16,0.492l0.172,0.493l0.32,0.984l0.173,0.493l0.16,0.492l0.344,0.985l0.16,0.492l0.173,0.492l0.172,0.48l0.517,1.477l0.184,0.492l0.173,0.48l0.172,0.493l0.185,0.492l0.172,0.48l0.357,0.985l0.369,0.972l0.357,0.972l1.477,3.889l0.381,0.985l0.37,0.972l0.381,0.973l0.751,1.944l0.763,1.945l0.751,1.945l0.381,0.984l0.37,0.972l0.381,0.985l0.369,0.972l0.382,0.985l0.369,0.985l0.369,0.972l0.37,0.985l0.369,0.996l0.369,0.985l0.172,0.492l0.37,0.985l0.172,0.505l0.185,0.492l0.172,0.492l0.184,0.505l0.173,0.492l0.172,0.505l0.185,0.492l0.172,0.505l0.172,0.492l0.345,1.009l0.16,0.505l0.172,0.492l0.173,0.505l0.16,0.504l0.172,0.505l0.16,0.505l0.172,0.504l0.16,0.517l0.48,1.514l0.16,0.517l0.148,0.505l0.16,0.516l0.148,0.505l0.16,0.517l0.295,1.034l0.148,0.504l0.147,0.53l0.148,0.517l0.135,0.517l0.148,0.516l0.271,1.034l0.135,0.53l0.136,0.516l0.135,0.53l0.135,0.517l0.124,0.529l0.135,0.529l0.615,2.646l0.222,1.059l0.123,0.541l0.111,0.542l0.098,0.529l0.111,0.542l0.098,0.541l0.111,0.542l0.296,1.624l0.086,0.542l0.098,0.554l0.086,0.541l0.086,0.554l0.087,0.542l0.073,0.553l0.087,0.554l0.147,1.108l0.074,0.566l0.062,0.554l0.074,0.554l0.061,0.566l0.062,0.554l0.061,0.566l0.049,0.566l0.062,0.566l0.098,1.133l0.037,0.578l0.05,0.566l0.036,0.579l0.037,0.566l0.037,0.578l0.025,0.579l0.037,0.578l0.049,1.169l0,0.283l0.025,0.591l-0,0.296l0.012,0.283l-0,0.295l0.012,0.295l0,0.296l0.013,0.295l-0,2.671l-0.013,0.295l0,0.308l-0.012,0.295l-0,0.296l-0.012,0.295l-0,0.308l-0.037,0.898l-0.025,0.616l-0.037,0.911l-0.024,0.307l-0.025,0.603l-0.025,0.308l-0.012,0.308l-0.049,0.615l-0.012,0.295l-0.025,0.32l-0.099,1.231l-0.036,0.308l-0.025,0.32l-0.025,0.308l-0.037,0.307l-0.024,0.32l-0.074,0.616l-0.025,0.32l-0.037,0.307l-0.037,0.32l-0.036,0.308l-0.074,0.64l-0.037,0.308l-0.037,0.32l-0.049,0.32l-0.037,0.32l-0.05,0.307l-0.036,0.32l-0.148,0.96l-0.037,0.32l-0.099,0.64l-0.061,0.32l-0.049,0.333l-0.099,0.64l-0.061,0.32l-0.05,0.332l-0.123,0.64l-0.049,0.332l-0.061,0.32l-0.062,0.333l-0.061,0.32l-0.062,0.332l-0.074,0.332l-0.061,0.32l-0.062,0.333l-0.074,0.332l-0.061,0.332l-0.074,0.333l-0.062,0.32l-0.074,0.344l-0.369,1.662l-0.086,0.332l-0.148,0.665l-0.086,0.344l-0.086,0.333l-0.074,0.344l-0.086,0.332l-0.086,0.345l-0.086,0.332l-0.086,0.345l-0.087,0.332l-0.098,0.345l-0.086,0.345l-0.086,0.332l-0.197,0.689l-0.086,0.345l-0.591,2.067l-0.111,0.345l-0.098,0.357l-0.111,0.345l-0.099,0.344l-0.11,0.357l-0.222,0.689l-0.111,0.357l-0.111,0.345l-0.221,0.714l-0.123,0.344l-0.111,0.357l-0.123,0.357l-0.111,0.357l-0.738,2.142l-0.136,0.357l-0.123,0.356l-0.135,0.357l-0.123,0.37l-0.271,0.713l-0.135,0.37l-0.136,0.357l-0.135,0.369l-0.135,0.357l-0.148,0.369l-0.136,0.369l-0.147,0.357l-0.136,0.369l-0.886,2.216l-0.16,0.369l-0.147,0.369l-0.16,0.382l-0.148,0.369l-0.16,0.369l-0.16,0.382l-0.32,0.738l-0.16,0.382l-0.172,0.381l-0.16,0.37l-0.16,0.381l-0.173,0.382l-0.172,0.369l-1.034,2.289l-0.185,0.382l-0.172,0.393l-0.369,0.764l-0.185,0.393l-0.369,0.763l-0.369,0.788l-0.197,0.382l-0.185,0.394l-0.197,0.393l-0.197,0.382l-0.787,1.575l-0.209,0.394l-0.197,0.394l-0.21,0.394l-0.197,0.406l-0.418,0.788l-0.209,0.406l-0.419,0.788l-0.221,0.406l-0.209,0.406l-0.222,0.394l-0.209,0.406l-0.443,0.812l-0.222,0.394l-0.234,0.418l-0.443,0.813l-0.234,0.406l-0.221,0.406l-0.468,0.812l-0.234,0.419l-0.234,0.406l-0.233,0.418l-0.247,0.407l-0.233,0.418l-0.247,0.406l-0.246,0.419l-0.234,0.418l-0.246,0.419l-0.258,0.418l-0.246,0.406l-0.246,0.419l-0.247,0.43l-0.517,0.837l-0.246,0.419l-0.258,0.418l-0.271,0.431l-0.258,0.418l-0.259,0.431l-0.258,0.419l-0.271,0.43l-0.271,0.419l-0.258,0.431l-0.542,0.861l-0.271,0.419l-0.283,0.443l-0.27,0.431l-0.567,0.861l-0.27,0.431l-0.283,0.431l-0.284,0.443l-0.295,0.43l-0.283,0.431l-0.283,0.443l-0.295,0.431l-0.296,0.443l-0.283,0.443l-0.295,0.443l-0.296,0.431l-0.307,0.443l-0.591,0.886l-0.616,0.886l-0.307,0.456l-0.013,0.012l0.013,0.012l0.307,0.456l0.616,0.886l0.591,0.886l0.307,0.443l0.296,0.431l0.295,0.443l0.283,0.443l0.296,0.443l0.295,0.431l0.283,0.443l0.283,0.431l0.295,0.431l0.284,0.443l0.283,0.43l0.27,0.431l0.567,0.862l0.27,0.443l0.283,0.431l0.271,0.418l0.542,0.862l0.258,0.43l0.271,0.419l0.271,0.431l0.258,0.418l0.259,0.431l0.258,0.418l0.271,0.431l0.258,0.419l0.246,0.418l0.517,0.837l0.247,0.418l0.246,0.431l0.246,0.406l0.258,0.419l0.246,0.418l0.234,0.419l0.246,0.418l0.247,0.406l0.233,0.419l0.234,0.406l0.246,0.418l0.234,0.407l0.234,0.418l0.468,0.812l0.221,0.406l0.234,0.407l0.443,0.812l0.234,0.406l0.443,0.812l0.209,0.407l0.222,0.406l0.222,0.394l0.209,0.406l0.221,0.394l0.21,0.406l0.209,0.394l0.209,0.406l0.418,0.787l0.197,0.407l0.21,0.393l0.197,0.394l0.209,0.394l0.787,1.575l0.197,0.382l0.197,0.394l0.185,0.394l0.197,0.394l0.184,0.381l0.185,0.394l0.185,0.381l0.184,0.394l0.554,1.145l0.172,0.394l0.185,0.381l1.034,2.29l0.172,0.369l0.173,0.381l0.16,0.382l0.16,0.369l0.172,0.382l0.16,0.381l0.32,0.739l0.16,0.381l0.16,0.369l0.148,0.37l0.16,0.381l0.147,0.369l0.16,0.37l0.886,2.215l0.136,0.369l0.147,0.357l0.136,0.369l0.148,0.37l0.135,0.357l0.135,0.369l0.136,0.357l0.135,0.369l0.135,0.357l0.136,0.369l0.123,0.357l0.135,0.357l0.246,0.714l0.136,0.357l0.615,1.784l0.111,0.357l0.123,0.357l0.111,0.357l0.123,0.345l0.221,0.714l0.111,0.344l0.111,0.357l0.222,0.689l0.11,0.357l0.099,0.345l0.111,0.344l0.098,0.357l0.111,0.345l0.591,2.068l0.086,0.344l0.197,0.69l0.086,0.332l0.086,0.344l0.098,0.345l0.087,0.332l0.086,0.345l0.086,0.332l0.086,0.345l0.086,0.332l0.074,0.345l0.086,0.332l0.086,0.345l0.148,0.664l0.086,0.333l0.148,0.664l0.074,0.345l0.074,0.32l0.073,0.332l0.074,0.345l0.062,0.32l0.074,0.332l0.061,0.332l0.074,0.333l0.062,0.332l0.061,0.32l0.074,0.332l0.062,0.333l0.061,0.32l0.062,0.332l0.061,0.32l0.049,0.332l0.123,0.64l0.05,0.333l0.061,0.32l0.099,0.64l0.049,0.332l0.061,0.32l0.099,0.64l0.037,0.32l0.148,0.96l0.036,0.32l0.05,0.308l0.037,0.32l0.049,0.32l0.037,0.32l0.037,0.307l0.074,0.64l0.036,0.308l0.037,0.32l0.037,0.308l0.025,0.32l0.074,0.615l0.024,0.32l0.037,0.308l0.05,0.627l0.036,0.308l0.099,1.231l0.025,0.32l0.012,0.295l0.049,0.616l0.012,0.307l0.025,0.308l0.025,0.603l0.024,0.308l0.025,0.615l0.037,0.911l0.024,0.591l0.013,0.307l-0,0.308l0.012,0.296l-0,0.295l0.012,0.295l0,0.308l0.013,0.295l-0,2.671l-0.013,0.296l0,0.295l-0.012,0.295l-0,0.296l-0.012,0.283l-0,0.295l-0.025,0.591l0,0.283l-0.049,1.169l-0.037,0.579l-0.025,0.578l-0.037,0.579l-0.037,0.566l-0.036,0.578l-0.05,0.566l-0.037,0.579l-0.098,1.132l-0.062,0.566l-0.049,0.566l-0.061,0.567l-0.062,0.553l-0.061,0.567l-0.074,0.553l-0.062,0.554l-0.074,0.566l-0.147,1.108l-0.087,0.554l-0.073,0.554l-0.087,0.541l-0.086,0.554l-0.086,0.542l-0.098,0.554l-0.086,0.541l-0.296,1.625l-0.111,0.541l-0.098,0.542l-0.111,0.541l-0.098,0.53l-0.111,0.541l-0.123,0.542l-0.222,1.058l-0.246,1.059l-0.123,0.541l-0.123,0.517l-0.123,0.529l-0.135,0.53l-0.124,0.529l-0.135,0.517l-0.135,0.529l-0.136,0.517l-0.135,0.529l-0.271,1.034l-0.148,0.517l-0.135,0.517l-0.148,0.529l-0.147,0.517l-0.148,0.505l-0.295,1.033l-0.16,0.517l-0.148,0.505l-0.16,0.517l-0.148,0.504l-0.16,0.517l-0.48,1.514l-0.16,0.517l-0.172,0.505l-0.16,0.504l-0.172,0.505l-0.16,0.505l-0.173,0.504l-0.172,0.493l-0.16,0.504l-0.345,1.009l-0.172,0.493l-0.172,0.504l-0.185,0.493l-0.172,0.504l-0.173,0.493l-0.184,0.504l-0.172,0.492l-0.185,0.493l-0.172,0.504l-0.37,0.985l-0.172,0.492l-0.369,0.997l-1.108,2.954l-0.369,0.972l-0.382,0.985l-0.369,0.985l-0.381,0.972l-0.37,0.972l-0.381,0.985l-0.751,1.944l-0.763,1.945l-0.751,1.945l-0.381,0.972l-0.37,0.985l-0.381,0.972l-1.477,3.889l-0.357,0.972l-0.369,0.973l-0.357,0.984l-0.172,0.48l-0.185,0.493l-0.172,0.492l-0.173,0.48l-0.184,0.492l-0.517,1.477l-0.172,0.48l-0.345,0.985l-0.16,0.492l-0.172,0.492l-0.16,0.493l-0.173,0.492l-0.32,0.985l-0.172,0.492l-0.16,0.492l-0.148,0.505l-0.32,0.985l-0.16,0.504l-0.147,0.492l-0.16,0.493l-0.148,0.504l-0.148,0.493l-0.147,0.504l-0.148,0.493l-0.148,0.504l-0.148,0.493l-0.147,0.504l-0.271,1.009l-0.148,0.505l-0.406,1.514l-0.123,0.504l-0.135,0.505l-0.246,1.009l-0.124,0.517l-0.123,0.505l-0.123,0.517l-0.123,0.504l-0.111,0.505l-0.123,0.517l-0.221,1.034l-0.111,0.504l-0.111,0.53l-0.098,0.517l-0.111,0.516l-0.295,1.551l-0.086,0.517l-0.099,0.529l-0.086,0.517l-0.259,1.588l-0.086,0.517l-0.295,2.117l-0.062,0.541l-0.073,0.53l-0.062,0.541l-0.062,0.529l-0.061,0.542l-0.049,0.541l-0.062,0.53l-0.098,1.083l-0.037,0.541l-0.049,0.554l-0.074,1.083l-0.074,1.108l-0.025,0.541l-0.049,1.108l-0.025,0.554l0,0.283l-0.024,0.554l-0,0.283l-0.013,0.271l0,0.283l-0.012,0.283l0,3.101l0.012,0.284l0,0.283l0.013,0.283l-0,0.283l0.024,0.578l0,0.283l0.05,1.145l0.024,0.578l0.025,0.296l0.024,0.578l0.025,0.296l0.012,0.283l0.05,0.59l0.012,0.284l0.074,0.886l0.024,0.283l0.074,0.886l0.037,0.295l0.025,0.308l0.024,0.283l0.037,0.295l0.025,0.296l0.037,0.308l0.074,0.59l0.024,0.308l0.074,0.591l0.049,0.307l0.074,0.591l0.037,0.308l0.049,0.295l0.037,0.308l0.05,0.308l0.036,0.295l0.099,0.615l0.049,0.296l0.037,0.308l0.099,0.615l0.061,0.295l0.049,0.32l0.05,0.308l0.061,0.308l0.049,0.307l0.062,0.308l0.049,0.308l0.185,0.923l0.061,0.32l0.123,0.615l0.062,0.32l0.061,0.308l0.074,0.32l0.062,0.308l0.074,0.32l0.061,0.32l0.074,0.307l0.074,0.32l0.074,0.308l0.295,1.28l0.074,0.308l0.086,0.332l0.074,0.32l0.086,0.32l0.074,0.32l0.345,1.28l0.086,0.332l0.172,0.64l0.098,0.333l0.087,0.332l0.086,0.32l0.098,0.32l0.197,0.665l0.086,0.332l0.099,0.32l0.098,0.332l0.111,0.332l0.197,0.665l0.098,0.32l0.111,0.345l0.111,0.332l0.098,0.332l0.333,0.997l0.11,0.345l0.111,0.332l0.123,0.332l0.111,0.345l0.111,0.332l0.123,0.345l0.111,0.332l0.246,0.689l0.123,0.333l0.369,1.034l0.136,0.332l0.123,0.345l0.135,0.344l0.123,0.345l0.271,0.689l0.135,0.357l0.406,1.034l0.136,0.357l0.147,0.344l0.136,0.357l0.148,0.345l0.135,0.357l0.148,0.344l0.295,0.714l0.148,0.345l0.16,0.357l0.295,0.714l0.16,0.357l0.148,0.356l0.32,0.714l0.16,0.37l0.48,1.07l0.172,0.37l0.16,0.356l0.172,0.357l0.16,0.37l0.173,0.369l0.172,0.357l0.172,0.369l0.173,0.357l0.172,0.369l0.185,0.369l0.172,0.37l0.184,0.369l0.173,0.369l0.738,1.477l0.185,0.382l0.197,0.369l0.184,0.369l0.185,0.382l0.197,0.369l0.197,0.381l0.197,0.37l0.394,0.763l0.197,0.369l0.196,0.381l0.21,0.382l0.197,0.381l0.627,1.145l0.197,0.382l0.222,0.381l0.209,0.394l0.209,0.382l0.222,0.381l0.209,0.394l0.222,0.381l0.221,0.394l0.222,0.382l0.443,0.788l0.221,0.381l0.222,0.394l0.467,0.788l0.222,0.393l0.702,1.182l0.246,0.394l0.234,0.406l0.233,0.394l0.247,0.394l0.233,0.406l0.247,0.394l0.246,0.406l0.246,0.394l0.246,0.406l0.258,0.406l0.247,0.406l0.258,0.394l0.259,0.406l0.246,0.406l0.517,0.813l0.258,0.418l0.271,0.406l0.258,0.406l0.271,0.407l0.259,0.418l0.27,0.406l0.271,0.419l0.271,0.406l0.541,0.837l0.284,0.406l0.27,0.418l1.699,2.511l0.295,0.431l0.283,0.418l0.296,0.419l0.295,0.431l0.295,0.418l0.296,0.431l0.295,0.418l0.308,0.431l0.295,0.431l0.308,0.431l0.295,0.43l0.308,0.419l0.308,0.431l0.307,0.443l0.32,0.43l0.308,0.431l0.32,0.431l0.308,0.431l0.32,0.443l0.32,0.431l0.32,0.443l0.32,0.43l0.332,0.443l0.32,0.444l0.332,0.43l0.32,0.443l0.997,1.33l0.345,0.443l0.332,0.455l0.345,0.443l0.332,0.443l0.345,0.456l0.689,0.886l0.357,0.455l0.345,0.456l0.344,0.443l0.357,0.455l9.797,12.542l-1.329,1.132l-10.819,-11.619l-0.357,-0.381l-0.713,-0.788l-0.37,-0.381l-0.344,-0.394l-0.357,-0.394l-0.357,-0.382l-0.357,-0.393l-0.345,-0.382l-0.344,-0.394l-0.357,-0.381l-0.345,-0.394l-0.344,-0.382l-0.345,-0.394l-0.332,-0.381l-0.345,-0.382l-0.332,-0.381l-0.345,-0.394l-1.661,-1.908l-0.32,-0.394l-0.333,-0.381l-0.32,-0.382l-0.332,-0.369l-0.32,-0.394l-0.32,-0.369l-0.64,-0.763l-0.308,-0.382l-0.32,-0.381l-0.307,-0.369l-0.32,-0.382l-0.616,-0.763l-0.308,-0.369l-0.615,-0.763l-0.295,-0.37l-0.308,-0.381l-0.295,-0.369l-0.308,-0.382l-0.295,-0.369l-0.296,-0.382l-0.591,-0.738l-0.283,-0.382l-0.295,-0.369l-0.283,-0.369l-0.296,-0.369l-0.283,-0.382l-1.698,-2.215l-0.542,-0.739l-0.283,-0.369l-1.354,-1.846l-0.258,-0.369l-0.271,-0.357l-0.775,-1.108l-0.271,-0.357l-0.246,-0.369l-0.259,-0.357l-0.517,-0.738l-0.246,-0.357l-0.258,-0.37l-0.246,-0.357l-0.246,-0.369l-0.493,-0.714l-0.246,-0.369l-0.246,-0.357l-0.246,-0.369l-0.234,-0.357l-0.246,-0.357l-0.234,-0.357l-0.234,-0.369l-0.246,-0.357l-0.234,-0.357l-0.221,-0.357l-0.702,-1.071l-0.222,-0.356l-0.233,-0.357l-1.551,-2.499l-0.209,-0.357l-0.222,-0.344l-0.209,-0.357l-0.222,-0.357l-0.209,-0.357l-0.209,-0.345l-0.419,-0.714l-0.209,-0.344l-0.197,-0.357l-0.209,-0.345l-0.197,-0.357l-0.209,-0.357l-0.394,-0.689l-0.197,-0.357l-0.197,-0.344l-0.197,-0.357l-0.394,-0.69l-0.197,-0.356l-0.369,-0.69l-0.197,-0.357l-0.923,-1.723l-0.184,-0.357l-0.173,-0.344l-0.369,-0.689l-0.861,-1.724l-0.173,-0.332l-0.344,-0.689l-0.16,-0.345l-0.173,-0.344l-0.16,-0.345l-0.172,-0.332l-0.48,-1.034l-0.16,-0.332l-0.32,-0.69l-0.16,-0.332l-0.148,-0.345l-0.16,-0.332l-0.147,-0.344l-0.16,-0.333l-0.148,-0.344l-0.148,-0.333l-0.147,-0.344l-0.148,-0.333l-0.148,-0.344l-0.148,-0.333l-0.147,-0.344l-0.136,-0.332l-0.147,-0.333l-0.136,-0.332l-0.147,-0.345l-0.542,-1.329l-0.135,-0.345l-0.271,-0.664l-0.123,-0.332l-0.271,-0.665l-0.246,-0.665l-0.135,-0.332l-0.616,-1.662l-0.111,-0.332l-0.246,-0.664l-0.111,-0.333l-0.11,-0.32l-0.123,-0.332l-0.222,-0.665l-0.111,-0.32l-0.221,-0.664l-0.111,-0.32l-0.222,-0.665l-0.098,-0.32l-0.111,-0.332l-0.098,-0.32l-0.111,-0.332l-0.098,-0.32l-0.099,-0.333l-0.098,-0.32l-0.099,-0.332l-0.098,-0.32l-0.099,-0.332l-0.197,-0.64l-0.086,-0.333l-0.098,-0.32l-0.086,-0.332l-0.099,-0.32l-0.172,-0.64l-0.099,-0.332l-0.344,-1.28l-0.074,-0.333l-0.172,-0.64l-0.074,-0.32l-0.086,-0.32l-0.074,-0.32l-0.086,-0.32l-0.296,-1.28l-0.086,-0.32l-0.062,-0.32l-0.221,-0.96l-0.062,-0.32l-0.073,-0.307l-0.062,-0.32l-0.074,-0.32l-0.123,-0.64l-0.074,-0.308l-0.184,-0.96l-0.062,-0.308l-0.061,-0.32l-0.05,-0.32l-0.061,-0.307l-0.062,-0.32l-0.049,-0.32l-0.062,-0.308l-0.049,-0.32l-0.061,-0.308l-0.05,-0.32l-0.049,-0.307l-0.049,-0.32l-0.062,-0.308l-0.049,-0.32l-0.049,-0.308l-0.049,-0.32l-0.037,-0.308l-0.049,-0.307l-0.05,-0.32l-0.049,-0.308l-0.037,-0.32l-0.049,-0.308l-0.037,-0.307l-0.037,-0.32l-0.049,-0.308l-0.037,-0.308l-0.074,-0.627l-0.148,-1.231l-0.073,-0.628l-0.185,-1.846l-0.049,-0.615l-0.062,-0.616l-0.098,-1.231l-0.037,-0.615l-0.049,-0.615l-0.037,-0.603l-0.037,-0.616l-0.025,-0.603l-0.037,-0.615l-0.024,-0.603l-0.025,-0.616l-0.025,-0.603l-0.012,-0.603l-0.025,-0.615l-0.024,-1.206l-0,-0.603l-0.012,-0.604l-0,-2.4l0.024,-1.206l0.037,-1.797l0.025,-0.59l0.012,-0.591l0.025,-0.603l0.024,-0.591l0.037,-0.591l0.025,-0.603l0.184,-2.954l0.148,-1.772l0.049,-0.578l0.099,-1.182l0.061,-0.591l0.062,-0.578l0.061,-0.591l0.062,-0.578l0.061,-0.591l0.062,-0.579l0.074,-0.59l0.061,-0.579l0.148,-1.169l0.074,-0.579l0.086,-0.578l0.074,-0.579l0.074,-0.59l0.431,-2.893l0.098,-0.578l0.086,-0.579l0.099,-0.566l0.086,-0.578l0.197,-1.157l0.098,-0.566l0.099,-0.579l0.11,-0.578l0.099,-0.579l0.111,-0.566l0.098,-0.578l0.111,-0.566l0.111,-0.579l0.11,-0.566l0.222,-1.145l0.468,-2.289l0.123,-0.566l0.234,-1.132l0.123,-0.579l0.369,-1.698l0.258,-1.133l0.123,-0.578l0.136,-0.566l0.258,-1.132l0.136,-0.567l0.258,-1.132l0.135,-0.566l0.271,-1.12l0.136,-0.579l0.283,-1.12l0.27,-1.132l0.284,-1.132l0.283,-1.12l0.283,-1.132l0.283,-1.12l0.283,-1.133l0.295,-1.12l0.579,-2.252l0.295,-1.12l0.295,-1.132l0.591,-2.24l1.182,-4.493l0.591,-2.252l0.59,-2.24l0.283,-1.12l0.296,-1.132l0.283,-1.12l0.295,-1.133l0.566,-2.252l0.567,-2.24l0.283,-1.132l0.27,-1.133l0.271,-1.12l0.542,-2.264l0.258,-1.132l0.136,-0.567l0.258,-1.132l0.123,-0.566l0.135,-0.566l0.37,-1.699l0.369,-1.71l0.123,-0.567l0.234,-1.132l0.111,-0.566l0.233,-1.145l0.444,-2.289l0.11,-0.566l0.099,-0.566l0.111,-0.579l0.098,-0.578l0.111,-0.566l0.098,-0.579l0.099,-0.566l0.197,-1.157l0.184,-1.144l0.099,-0.579l0.086,-0.578l0.086,-0.567l0.431,-2.892l0.147,-1.157l0.087,-0.591l0.073,-0.566l0.136,-1.169l0.074,-0.578l0.061,-0.591l0.062,-0.579l0.074,-0.578l0.061,-0.591l0.049,-0.578l0.062,-0.591l0.061,-0.579l0.099,-1.181l0.049,-0.579l0.099,-1.181l0.073,-1.182l0.05,-0.59l0.037,-0.579l0.024,-0.603l0.037,-0.591l0.025,-0.59l0.037,-0.591l0.049,-1.182l0.012,-0.603l0.025,-0.591l0.037,-1.797l0.024,-1.193l0,-2.4l-0.012,-0.603l0,-0.604l-0.037,-1.809l-0.049,-1.206l-0.049,-1.218l-0.025,-0.603l-0.074,-1.231l-0.037,-0.603l-0.037,-0.616l-0.049,-0.615l-0.037,-0.603l-0.098,-1.231l-0.185,-1.846l-0.061,-0.628l-0.062,-0.615l-0.074,-0.616l-0.074,-0.627l-0.073,-0.616l-0.074,-0.627l-0.05,-0.308l-0.036,-0.308l-0.037,-0.32l-0.05,-0.307l-0.037,-0.308l-0.049,-0.32l-0.049,-0.308l-0.037,-0.32l-0.049,-0.307l-0.049,-0.32l-0.099,-0.616l-0.098,-0.64l-0.05,-0.308l-0.061,-0.32l-0.049,-0.307l-0.05,-0.32l-0.061,-0.32l-0.049,-0.308l-0.123,-0.64l-0.05,-0.308l-0.184,-0.96l-0.062,-0.307l-0.123,-0.64l-0.074,-0.32l-0.123,-0.64l-0.074,-0.32l-0.061,-0.308l-0.074,-0.32l-0.062,-0.32l-0.369,-1.6l-0.074,-0.332l-0.221,-0.96l-0.086,-0.32l-0.074,-0.32l-0.086,-0.32l-0.074,-0.333l-0.172,-0.64l-0.074,-0.32l-0.086,-0.332l-0.087,-0.32l-0.086,-0.332l-0.086,-0.32l-0.098,-0.32l-0.087,-0.333l-0.086,-0.32l-0.098,-0.332l-0.086,-0.32l-0.099,-0.332l-0.086,-0.32l-0.098,-0.332l-0.099,-0.32l-0.098,-0.333l-0.099,-0.32l-0.197,-0.664l-0.098,-0.32l-0.197,-0.665l-0.111,-0.332l-0.098,-0.32l-0.222,-0.665l-0.098,-0.332l-0.222,-0.665l-0.111,-0.32l-0.11,-0.344l-0.111,-0.333l-0.111,-0.32l-0.123,-0.332l-0.111,-0.345l-0.123,-0.332l-0.111,-0.332l-0.123,-0.333l-0.11,-0.332l-0.37,-0.997l-0.123,-0.344l-0.246,-0.665l-0.135,-0.332l-0.123,-0.345l-0.123,-0.332l-0.136,-0.333l-0.135,-0.344l-0.123,-0.333l-0.136,-0.344l-0.27,-0.665l-0.271,-0.689l-0.136,-0.332l-0.147,-0.345l-0.136,-0.332l-0.147,-0.345l-0.136,-0.344l-0.147,-0.333l-0.148,-0.344l-0.136,-0.345l-0.147,-0.332l-0.296,-0.69l-0.16,-0.344l-0.295,-0.689l-0.16,-0.345l-0.148,-0.332l-0.32,-0.69l-0.147,-0.344l-0.32,-0.689l-0.16,-0.357l-0.173,-0.345l-0.32,-0.689l-0.172,-0.345l-0.16,-0.344l-0.172,-0.357l-0.345,-0.69l-0.16,-0.356l-0.172,-0.345l-0.185,-0.345l-0.172,-0.357l-0.172,-0.344l-0.173,-0.357l-0.184,-0.345l-0.173,-0.357l-0.184,-0.344l-0.185,-0.357l-0.185,-0.345l-0.369,-0.714l-0.184,-0.344l-0.185,-0.357l-0.197,-0.357l-0.185,-0.345l-0.184,-0.357l-1.379,-2.498l-0.172,-0.296l-0.505,-0.726l0.05,-0.086l-0.05,-0.086l0.505,-0.726l0.369,-0.652l1.182,-2.142l0.381,-0.702l0.185,-0.356l0.369,-0.702l0.369,-0.714l0.185,-0.344l0.369,-0.702l0.357,-0.702l0.173,-0.356l0.344,-0.702l0.185,-0.345l0.172,-0.344l0.332,-0.702l0.345,-0.689l0.332,-0.702l0.32,-0.689l0.493,-1.046l0.307,-0.689l0.32,-0.677l0.308,-0.689l0.295,-0.69l0.16,-0.344l0.443,-1.022l0.284,-0.689l0.283,-0.677l0.147,-0.344l0.283,-0.677l0.136,-0.333l0.406,-1.021l0.271,-0.677l0.123,-0.332l0.135,-0.345l0.136,-0.332l0.246,-0.665l0.258,-0.677l0.123,-0.332l0.369,-1.009l0.124,-0.333l0.233,-0.664l0.234,-0.677l0.234,-0.665l0.111,-0.32l0.221,-0.677l0.111,-0.32l0.222,-0.664l0.209,-0.665l0.209,-0.652l0.209,-0.665l0.197,-0.652l0.099,-0.333l0.197,-0.652l0.098,-0.332l0.197,-0.652l0.086,-0.32l0.554,-1.957l0.345,-1.305l0.074,-0.32l0.172,-0.64l0.16,-0.652l0.16,-0.64l0.148,-0.64l0.147,-0.653l0.296,-1.28l0.135,-0.64l0.074,-0.32l0.135,-0.627l0.123,-0.64l0.136,-0.64l0.123,-0.628l0.184,-0.96l0.05,-0.308l0.123,-0.64l0.049,-0.307l0.111,-0.64l0.049,-0.308l0.111,-0.628l0.049,-0.32l0.049,-0.307l0.099,-0.64l0.098,-0.616l0.135,-0.948l0.037,-0.307l0.05,-0.308l0.073,-0.628l0.05,-0.307l0.074,-0.628l0.073,-0.615l0.074,-0.628l0.074,-0.615l0.062,-0.616l0.061,-0.628l0.185,-1.846l0.098,-1.23l0.037,-0.604l0.049,-0.615l0.074,-1.231l0.037,-0.603l0.037,-0.615l0.049,-1.206l0.025,-0.616l0.049,-1.206l0.037,-1.809l0,-0.603l0.012,-0.603l0,-2.4l-0.049,-2.4l-0.012,-0.591l-0.025,-0.591l-0.012,-0.603l-0.049,-1.181l-0.037,-0.591l-0.025,-0.591l-0.037,-0.591l-0.024,-0.59l-0.037,-0.591l-0.05,-0.591l-0.073,-1.182l-0.099,-1.181l-0.049,-0.579l-0.099,-1.181l-0.061,-0.579l-0.062,-0.59l-0.049,-0.579l-0.061,-0.591l-0.074,-0.578l-0.062,-0.578l-0.061,-0.591l-0.148,-1.157l-0.062,-0.579l-0.073,-0.59l-0.087,-0.579l-0.147,-1.157l-0.431,-2.892l-0.086,-0.566l-0.086,-0.579l-0.099,-0.578l-0.086,-0.579l-0.098,-0.566l-0.197,-1.157l-0.099,-0.566l-0.098,-0.578l-0.111,-0.566l-0.098,-0.579l-0.111,-0.578l-0.099,-0.567l-0.11,-0.566l-0.111,-0.578l-0.111,-0.566l-0.111,-0.579l-0.221,-1.132l-0.123,-0.579l-0.111,-0.566l-0.123,-0.566l-0.111,-0.566l-0.246,-1.132l-0.123,-0.579l-0.493,-2.264l-0.135,-0.567l-0.123,-0.566l-0.135,-0.566l-0.123,-0.566l-0.136,-0.566l-0.123,-0.566l-0.677,-2.831l-0.271,-1.12l-0.27,-1.132l-0.283,-1.133l-0.567,-2.24l-0.283,-1.132l-0.283,-1.12l-0.283,-1.132l-0.591,-2.24l-0.283,-1.133l-0.59,-2.24l-0.591,-2.252l-1.182,-4.492l-0.591,-2.24l-0.295,-1.133l-0.295,-1.12l-0.283,-1.12l-0.296,-1.132l-0.295,-1.12l-0.283,-1.132l-0.283,-1.12l-0.283,-1.132l-0.283,-1.12l-0.284,-1.133l-0.27,-1.132l-0.283,-1.12l-0.136,-0.579l-0.135,-0.553l-0.271,-1.133l-0.123,-0.566l-0.406,-1.698l-0.123,-0.566l-0.136,-0.567l-0.123,-0.578l-0.123,-0.566l-0.135,-0.566l-0.369,-1.699l-0.123,-0.578l-0.124,-0.566l-0.11,-0.567l-0.123,-0.566l-0.123,-0.578l-0.222,-1.133l-0.123,-0.578l-0.111,-0.566l-0.111,-0.579l-0.11,-0.566l-0.111,-0.578l-0.111,-0.566l-0.098,-0.579l-0.111,-0.566l-0.099,-0.578l-0.11,-0.579l-0.099,-0.578l-0.098,-0.567l-0.197,-1.156l-0.086,-0.579l-0.099,-0.566l-0.086,-0.579l-0.098,-0.578l-0.345,-2.314l-0.086,-0.591l-0.148,-1.157l-0.086,-0.578l-0.074,-0.578l-0.074,-0.591l-0.074,-0.579l-0.061,-0.578l-0.074,-0.591l-0.062,-0.578l-0.061,-0.591l-0.062,-0.579l-0.061,-0.59l-0.062,-0.579l-0.061,-0.591l-0.099,-1.181l-0.049,-0.579l-0.148,-1.772l-0.184,-2.954l-0.025,-0.603l-0.037,-0.591l-0.024,-0.59l-0.025,-0.603l-0.012,-0.591l-0.025,-0.591l-0.061,-3.003l-0,-2.4l0.012,-0.603l-0,-0.603l0.024,-1.206l0.025,-0.616l0.012,-0.603l0.05,-1.206l0.024,-0.615l0.037,-0.616l0.025,-0.603l0.037,-0.615l0.037,-0.603l0.049,-0.616l0.037,-0.615l0.098,-1.231l0.062,-0.615l0.049,-0.616l0.185,-1.846l0.073,-0.627l0.148,-1.231l0.074,-0.628l0.086,-0.628l0.123,-0.923l0.037,-0.32l0.049,-0.307l0.099,-0.628l0.086,-0.628l0.049,-0.307l0.049,-0.32l0.111,-0.628l0.049,-0.308l0.222,-1.255l0.111,-0.64l0.111,-0.628l0.061,-0.32l0.062,-0.308l0.184,-0.96l0.136,-0.627l0.061,-0.32l0.074,-0.32l0.135,-0.628l0.062,-0.32l0.665,-2.88l0.32,-1.28l0.172,-0.64l0.246,-0.972l0.172,-0.64l0.185,-0.653l0.185,-0.64l0.369,-1.304l0.098,-0.32l0.296,-0.985l0.197,-0.652l0.418,-1.305l0.098,-0.32l0.222,-0.664l0.443,-1.305l0.222,-0.665l0.233,-0.652l0.111,-0.332l0.246,-0.665l0.234,-0.664l0.493,-1.33l0.775,-1.994l0.271,-0.664l0.135,-0.345l0.542,-1.329l0.147,-0.345l0.419,-0.997l0.295,-0.689l0.296,-0.664l0.295,-0.677l0.148,-0.345l0.307,-0.677l0.16,-0.332l0.468,-1.022l0.16,-0.344l0.32,-0.677l0.32,-0.689l0.332,-0.677l0.173,-0.345l0.16,-0.345l0.344,-0.677l1.034,-2.067l0.369,-0.689l0.357,-0.702l0.554,-1.034l0.566,-1.046l0.369,-0.689l0.788,-1.403l0.197,-0.345l0.394,-0.701l0.812,-1.404l0.616,-1.058l0.209,-0.357l0.418,-0.701l0.222,-0.357l0.209,-0.357l0.431,-0.702l1.329,-2.141l0.455,-0.714l0.222,-0.357l0.702,-1.071l0.455,-0.714l0.246,-0.357l0.234,-0.369l0.48,-0.714l0.234,-0.357l0.246,-0.369l0.246,-0.357l0.492,-0.726l0.247,-0.357l0.492,-0.726l0.258,-0.369l0.505,-0.726l0.258,-0.357l0.505,-0.739l0.271,-0.357l0.775,-1.107l0.271,-0.357l0.529,-0.739l1.083,-1.477l1.108,-1.477l1.415,-1.846l0.283,-0.381l0.579,-0.739l0.295,-0.369l0.283,-0.382l0.296,-0.369l0.591,-0.751l0.295,-0.369l0.308,-0.381l0.295,-0.37l0.308,-0.381l0.295,-0.382l1.231,-1.501l0.308,-0.382l0.32,-0.369l0.307,-0.381l0.32,-0.382l0.308,-0.382l0.96,-1.144l0.332,-0.382l0.64,-0.75l0.653,-0.776l1.329,-1.526l0.677,-0.775l1.009,-1.145l0.689,-0.775l0.345,-0.394l0.701,-0.776l0.345,-0.381l0.357,-0.394l0.357,-0.382l0.701,-0.775l0.37,-0.394l0.713,-0.787l0.357,-0.382l10.819,-11.606l1.329,1.12Zm-47.692,353.317l0.123,0.344l0.135,0.345l0.123,0.344l0.136,0.345l0.123,0.345l0.123,0.332l0.246,0.689l0.123,0.333l0.123,0.344l0.111,0.345l0.123,0.332l0.123,0.345l0.111,0.332l0.123,0.345l0.111,0.344l0.221,0.665l0.222,0.689l0.221,0.665l0.111,0.344l0.111,0.333l0.098,0.332l0.111,0.345l0.197,0.664l0.111,0.345l0.492,1.661l0.098,0.345l0.087,0.332l0.196,0.665l0.173,0.664l0.098,0.333l0.259,0.997l0.086,0.32l0.431,1.661l0.073,0.333l0.087,0.32l0.147,0.664l0.086,0.332l0.074,0.32l0.074,0.333l0.074,0.32l0.148,0.664l0.074,0.32l0.073,0.333l0.062,0.32l0.148,0.664l0.123,0.64l0.074,0.333l0.061,0.32l0.062,0.332l0.123,0.64l0.061,0.332l0.123,0.64l0.062,0.333l0.061,0.32l0.05,0.32l0.061,0.32l0.049,0.32l0.062,0.332l0.049,0.32l0.062,0.32l0.246,1.6l0.049,0.332l0.049,0.32l0.037,0.32l0.099,0.64l0.037,0.32l0.049,0.32l0.037,0.308l0.049,0.32l0.148,1.28l0.086,0.628l0.061,0.64l0.074,0.627l0.062,0.628l0.061,0.64l0.123,1.255l0.148,1.883l0.037,0.628l0.049,0.628l0.037,0.627l0.037,0.616l0.025,0.628l0.037,0.627l0.049,1.231l0.024,0.628l0.013,0.615l0.024,0.615l0.025,1.231l0,0.616l0.012,0.615l0,2.462l-0.037,1.821l-0.024,1.219l-0.025,0.615l-0.012,0.603l-0.025,0.603l-0.037,0.603l-0.049,1.219l-0.111,1.809l-0.037,0.591l-0.049,0.603l-0.037,0.603l-0.049,0.591l-0.098,1.206l-0.05,0.59l-0.049,0.604l-0.123,1.181l-0.062,0.603l-0.123,1.182l-0.061,0.603l-0.074,0.578l-0.074,0.603l-0.061,0.591l-0.148,1.182l-0.086,0.59l-0.074,0.579l-0.086,0.591l-0.074,0.59l-0.086,0.591l-0.086,0.579l-0.087,0.59l-0.098,0.579l-0.086,0.591l-0.086,0.578l-0.099,0.591l-0.098,0.578l-0.086,0.591l-0.111,0.579l-0.197,1.156l-0.099,0.591l-0.11,0.579l-0.099,0.578l-0.221,1.157l-0.099,0.579l-0.221,1.156l-0.123,0.579l-0.222,1.157l-0.123,0.566l-0.111,0.578l-0.123,0.579l-0.123,0.566l-0.246,1.157l-0.123,0.566l-0.246,1.157l-0.246,1.132l-0.136,0.579l-0.123,0.566l-0.135,0.578l-0.123,0.567l-0.136,0.578l-0.406,1.699l-0.135,0.578l-0.542,2.265l-0.271,1.144l-0.849,3.397l-0.283,1.12l-0.295,1.132l-0.283,1.133l-0.296,1.132l-0.295,1.12l-0.283,1.132l-0.296,1.12l-0.295,1.133l-0.591,2.24l-1.181,4.492l-0.591,2.252l-0.591,2.24l-0.283,1.12l-0.295,1.12l-0.283,1.12l-0.296,1.12l-0.283,1.133l-0.566,2.24l-0.271,1.12l-0.283,1.12l-0.271,1.12l-0.135,0.566l-0.135,0.554l-0.136,0.566l-0.123,0.566l-0.135,0.554l-0.136,0.566l-0.123,0.566l-0.135,0.554l-0.123,0.566l-0.136,0.566l-0.123,0.554l-0.123,0.566l-0.135,0.566l-0.123,0.554l-0.123,0.566l-0.111,0.567l-0.246,1.132l-0.123,0.554l-0.111,0.566l-0.123,0.566l-0.222,1.132l-0.123,0.566l-0.11,0.554l-0.111,0.566l-0.099,0.567l-0.221,1.132l-0.099,0.566l-0.11,0.566l-0.394,2.265l-0.099,0.578l-0.197,1.133l-0.172,1.132l-0.098,0.566l-0.087,0.579l-0.172,1.132l-0.074,0.578l-0.086,0.566l-0.074,0.567l-0.086,0.578l-0.074,0.566l-0.147,1.157l-0.062,0.566l-0.074,0.566l-0.061,0.579l-0.074,0.578l-0.062,0.567l-0.123,1.156l-0.049,0.579l-0.062,0.566l-0.246,2.892l-0.037,0.579l-0.049,0.578l-0.074,1.157l-0.037,0.591l-0.024,0.578l-0.037,0.579l-0.025,0.578l-0.024,0.591l-0.025,0.579l-0.012,0.578l-0.025,0.591l-0.012,0.591l-0.025,0.578l0,0.591l-0.025,1.169l0,2.351l0.013,0.591l-0,0.59l0.037,1.773l0.024,0.59l0.025,0.604l0.049,1.181l0.025,0.603l0.074,1.182l0.073,1.206l0.05,0.591l0.037,0.603l0.049,0.603l0.061,0.603l0.05,0.603l0.061,0.591l0.123,1.206l0.062,0.615l0.221,1.809l0.074,0.616l0.049,0.295l0.037,0.308l0.05,0.308l0.036,0.307l0.05,0.296l0.037,0.307l0.098,0.616l0.037,0.307l0.049,0.296l0.197,1.231l0.062,0.307l0.098,0.616l0.062,0.307l0.049,0.308l0.061,0.308l0.05,0.307l0.184,0.924l0.05,0.307l0.123,0.616l0.073,0.307l0.062,0.32l0.123,0.616l0.074,0.307l0.061,0.308l0.062,0.32l0.148,0.615l0.061,0.32l0.222,0.924l0.074,0.32l0.073,0.307l0.074,0.32l0.074,0.308l0.086,0.32l0.074,0.308l0.086,0.32l0.074,0.307l0.086,0.32l0.074,0.308l0.086,0.32l0.086,0.308l0.173,0.64l0.086,0.307l0.086,0.32l0.086,0.308l0.086,0.32l0.099,0.32l0.086,0.32l0.086,0.308l0.197,0.64l0.086,0.32l0.099,0.32l0.098,0.307l0.492,1.6l0.111,0.32l0.099,0.32l0.11,0.32l0.099,0.32l0.221,0.64l0.099,0.333l0.443,1.28l0.123,0.32l0.111,0.332l0.111,0.32l0.123,0.32l0.11,0.32l0.124,0.332l0.123,0.32l0.11,0.32l0.123,0.333l0.124,0.32l0.123,0.332l0.123,0.32l0.135,0.332l0.246,0.64l0.136,0.333l0.123,0.332l0.135,0.32l0.135,0.332l0.124,0.32l0.406,0.997l0.135,0.32l0.148,0.332l0.135,0.333l0.148,0.332l0.135,0.32l0.136,0.332l0.738,1.662l0.148,0.32l0.295,0.664l0.16,0.345l0.148,0.332l0.16,0.333l0.148,0.332l0.64,1.329l0.16,0.345l0.32,0.664l0.172,0.333l0.16,0.344l0.172,0.333l0.16,0.344l0.345,0.665l0.172,0.345l0.172,0.332l0.173,0.344l0.172,0.333l0.172,0.344l0.185,0.345l0.172,0.332l0.185,0.345l0.184,0.332l0.173,0.345l0.369,0.689l0.185,0.332l0.184,0.345l0.197,0.345l0.369,0.689l0.197,0.332l0.185,0.345l1.181,2.067l0.21,0.345l0.197,0.345l0.209,0.357l0.197,0.344l0.627,1.034l0.21,0.357l0.418,0.689l0.209,0.357l0.222,0.345l0.209,0.344l0.222,0.357l0.221,0.345l0.222,0.357l0.209,0.344l0.234,0.357l0.221,0.345l0.443,0.714l0.234,0.344l0.222,0.357l0.234,0.357l0.234,0.345l0.935,1.428l0.234,0.344l0.234,0.357l0.061,0.086l-0.16,-0.27l-0.234,-0.407l-0.234,-0.393l-0.443,-0.788l-0.233,-0.394l-0.887,-1.575l-0.209,-0.394l-0.221,-0.394l-0.21,-0.382l-0.221,-0.393l-0.209,-0.394l-0.419,-0.763l-0.209,-0.394l-0.209,-0.382l-0.21,-0.394l-0.196,-0.381l-0.21,-0.382l-1.378,-2.67l-0.369,-0.764l-0.197,-0.369l-0.37,-0.763l-0.184,-0.369l-0.185,-0.382l-0.184,-0.369l-0.173,-0.369l-0.184,-0.382l-0.185,-0.369l-0.345,-0.738l-0.172,-0.382l-0.689,-1.477l-0.16,-0.369l-0.172,-0.357l-0.16,-0.369l-0.173,-0.369l-0.16,-0.37l-0.16,-0.357l-0.16,-0.369l-0.16,-0.357l-0.147,-0.369l-0.16,-0.357l-0.16,-0.369l-0.296,-0.714l-0.16,-0.369l-0.591,-1.428l-0.135,-0.357l-0.148,-0.357l-0.135,-0.357l-0.148,-0.357l-0.27,-0.713l-0.136,-0.345l-0.148,-0.357l-0.135,-0.357l-0.123,-0.357l-0.135,-0.344l-0.136,-0.357l-0.123,-0.345l-0.135,-0.357l-0.246,-0.689l-0.123,-0.357l-0.616,-1.723l-0.111,-0.345l-0.123,-0.344l-0.332,-1.034l-0.123,-0.345l-0.111,-0.344l-0.098,-0.333l-0.111,-0.344l-0.111,-0.333l-0.111,-0.344l-0.098,-0.345l-0.099,-0.332l-0.11,-0.345l-0.197,-0.664l-0.099,-0.345l-0.295,-0.997l-0.099,-0.344l-0.086,-0.333l-0.098,-0.332l-0.086,-0.332l-0.099,-0.333l-0.344,-1.329l-0.087,-0.32l-0.086,-0.332l-0.074,-0.333l-0.086,-0.332l-0.086,-0.32l-0.074,-0.332l-0.074,-0.32l-0.086,-0.332l-0.074,-0.32l-0.073,-0.333l-0.148,-0.64l-0.074,-0.332l-0.074,-0.32l-0.061,-0.32l-0.074,-0.32l-0.062,-0.32l-0.074,-0.332l-0.123,-0.64l-0.073,-0.32l-0.185,-0.96l-0.049,-0.308l-0.185,-0.96l-0.049,-0.32l-0.049,-0.308l-0.062,-0.32l-0.049,-0.307l-0.099,-0.64l-0.098,-0.616l-0.049,-0.32l-0.05,-0.308l-0.049,-0.32l-0.037,-0.307l-0.049,-0.308l-0.037,-0.308l-0.049,-0.307l-0.037,-0.32l-0.037,-0.308l-0.049,-0.308l-0.148,-1.23l-0.024,-0.308l-0.037,-0.296l-0.037,-0.307l-0.025,-0.308l-0.037,-0.308l-0.024,-0.307l-0.037,-0.296l-0.05,-0.615l-0.024,-0.295l-0.025,-0.308l-0.024,-0.296l-0.025,-0.307l-0.049,-0.603l-0.013,-0.296l-0.024,-0.295l-0.025,-0.308l-0.012,-0.295l-0.025,-0.308l-0.037,-0.886l-0.024,-0.295l-0.037,-0.887l-0,-0.295l-0.037,-0.886l-0,-0.295l-0.012,-0.296l-0,-0.295l-0.013,-0.296l0,-2.904l0.013,-0.862l0.012,-0.283l-0,-0.295l0.024,-0.849l0.025,-0.579l0.049,-1.132l0.037,-0.566l0.025,-0.567l0.074,-1.132l0.049,-0.554l0.037,-0.566l0.049,-0.554l0.049,-0.566l0.062,-0.554l0.049,-0.554l0.123,-1.107l0.062,-0.542l0.061,-0.554l0.074,-0.553l0.062,-0.542l0.073,-0.542l0.074,-0.553l0.086,-0.542l0.074,-0.541l0.259,-1.625l0.086,-0.529l0.197,-1.083l0.197,-1.059l0.098,-0.541l0.099,-0.53l0.221,-1.058l0.099,-0.529l0.123,-0.53l0.111,-0.516l0.233,-1.059l0.111,-0.517l0.123,-0.529l0.123,-0.517l0.136,-0.517l0.123,-0.529l0.258,-1.034l0.406,-1.551l0.136,-0.504l0.135,-0.517l0.148,-0.517l0.135,-0.505l0.148,-0.517l0.148,-0.504l0.147,-0.517l0.148,-0.505l0.148,-0.517l0.147,-0.504l0.16,-0.505l0.148,-0.505l0.16,-0.504l0.308,-1.01l0.16,-0.504l0.332,-0.997l0.16,-0.505l0.332,-1.009l0.665,-1.994l0.172,-0.492l0.173,-0.505l0.344,-0.984l0.357,-0.997l0.345,-0.985l0.184,-0.492l0.357,-0.985l0.173,-0.492l0.369,-0.985l0.357,-0.984l0.738,-1.97l0.369,-0.972l0.382,-0.984l0.369,-0.973l0.751,-1.957l0.382,-0.972l1.501,-3.889l0.763,-1.957l0.369,-0.972l0.763,-1.945l0.37,-0.972l0.369,-0.985l0.738,-1.945l0.37,-0.984l0.369,-0.973l0.357,-0.984l0.184,-0.492l0.173,-0.493l0.357,-0.984l0.184,-0.48l0.517,-1.477l0.357,-0.997l0.172,-0.493l0.16,-0.492l0.345,-0.984l0.332,-0.997l0.173,-0.493l0.16,-0.504l0.16,-0.493l0.172,-0.504l0.16,-0.493l0.16,-0.504l0.308,-0.997l0.16,-0.505l0.16,-0.492l0.307,-1.009l0.739,-2.523l0.135,-0.505l0.148,-0.505l0.135,-0.516l0.148,-0.505l0.135,-0.517l0.136,-0.505l0.123,-0.517l0.135,-0.504l0.136,-0.517l0.123,-0.517l0.135,-0.517l0.123,-0.505l0.246,-1.033l0.234,-1.047l0.111,-0.516l0.123,-0.517l0.111,-0.517l0.11,-0.53l0.111,-0.516l0.099,-0.53l0.111,-0.529l0.098,-0.529l0.098,-0.517l0.099,-0.529l0.098,-0.542l0.087,-0.529l0.098,-0.529l0.172,-1.059l0.086,-0.541l0.074,-0.542l0.086,-0.529l0.296,-2.166l0.123,-1.083l0.074,-0.554l0.049,-0.542l0.062,-0.554l0.061,-0.541l0.148,-1.662l0.037,-0.553l0.049,-0.554l0.037,-0.554l0.037,-0.566l0.024,-0.554l0.037,-0.566l0.074,-1.699l0.012,-0.566l0.013,-0.283l0.024,-1.132l0,-0.296l0.013,-0.283l-0,-2.597l-0.013,-0.283l0,-0.295l-0.012,-0.296l0,-0.283l-0.012,-0.295l-0,-0.295l-0.111,-2.647l-0.025,-0.295l-0.024,-0.603l-0.025,-0.295l-0.012,-0.296l-0.025,-0.295l-0.024,-0.308l-0.05,-0.591l-0.012,-0.307l-0.049,-0.603l-0.037,-0.296l-0.049,-0.603l-0.037,-0.308l-0.025,-0.295l-0.037,-0.308l-0.024,-0.307l-0.037,-0.308l-0.037,-0.295l-0.025,-0.308l-0.184,-1.539l-0.05,-0.307l-0.074,-0.616l-0.049,-0.32l-0.049,-0.307l-0.037,-0.308l-0.049,-0.308l-0.049,-0.32l-0.037,-0.307l-0.05,-0.308l-0.049,-0.32l-0.049,-0.308l-0.062,-0.32l-0.049,-0.32l-0.049,-0.307l-0.062,-0.32l-0.049,-0.32l-0.061,-0.308l-0.05,-0.32l-0.43,-2.24l-0.074,-0.32l-0.123,-0.64l-0.074,-0.332l-0.074,-0.32l-0.062,-0.32l-0.073,-0.32l-0.074,-0.333l-0.074,-0.32l-0.074,-0.332l-0.074,-0.32l-0.074,-0.332l-0.086,-0.333l-0.074,-0.32l-0.073,-0.332l-0.173,-0.665l-0.074,-0.32l-0.344,-1.329l-0.099,-0.332l-0.086,-0.345l-0.086,-0.32l-0.098,-0.344l-0.087,-0.333l-0.098,-0.332l-0.086,-0.345l-0.197,-0.664l-0.099,-0.345l-0.098,-0.332l-0.099,-0.345l-0.11,-0.344l-0.099,-0.333l-0.098,-0.344l-0.222,-0.69l-0.098,-0.344l-0.111,-0.332l-0.443,-1.379l-0.111,-0.357l-0.123,-0.344l-0.111,-0.345l-0.123,-0.345l-0.123,-0.357l-0.111,-0.344l-0.123,-0.345l-0.123,-0.357l-0.123,-0.344l-0.123,-0.357l-0.135,-0.357l-0.123,-0.345l-0.123,-0.357l-0.136,-0.357l-0.123,-0.357l-0.135,-0.344l-0.406,-1.071l-0.136,-0.369l-0.135,-0.357l-0.148,-0.357l-0.135,-0.357l-0.148,-0.357l-0.135,-0.357l-0.148,-0.369l-0.148,-0.357l-0.147,-0.369l-0.148,-0.357l-0.296,-0.739l-0.147,-0.357l-0.16,-0.369l-0.148,-0.369l-1.28,-2.954l-0.172,-0.369l-0.173,-0.382l-0.16,-0.369l-0.172,-0.381l-0.172,-0.37l-0.172,-0.381l-0.173,-0.369l-0.172,-0.382l-0.185,-0.369l-0.172,-0.382l-0.185,-0.381l-0.172,-0.382l-0.923,-1.907l-0.197,-0.382l-0.185,-0.394l-0.196,-0.381l-0.185,-0.382l-0.197,-0.394l-0.197,-0.381l-0.197,-0.394l-0.197,-0.382l-0.197,-0.394l-0.209,-0.393l-0.197,-0.382l-0.209,-0.394l-0.197,-0.394l-1.046,-1.969l-0.222,-0.406l-0.209,-0.394l-0.221,-0.394l-0.222,-0.406l-0.209,-0.394l-0.222,-0.406l-0.221,-0.394l-0.234,-0.406l-0.222,-0.394l-0.221,-0.406l-0.234,-0.406l-0.209,-0.369l0.037,0.074Zm12.48,-309.182l-0.234,0.357l-0.234,0.345l-0.935,1.427l-0.234,0.345l-0.234,0.357l-0.222,0.357l-0.234,0.344l-0.443,0.714l-0.221,0.345l-0.234,0.357l-0.209,0.344l-0.222,0.357l-0.221,0.345l-0.222,0.357l-0.209,0.345l-0.222,0.344l-0.209,0.357l-0.418,0.689l-0.21,0.357l-0.627,1.034l-0.197,0.345l-0.209,0.357l-0.197,0.344l-0.21,0.345l-1.181,2.068l-0.185,0.344l-0.197,0.332l-0.369,0.69l-0.197,0.344l-0.184,0.345l-0.185,0.332l-0.369,0.689l-0.173,0.345l-0.184,0.332l-0.185,0.345l-0.172,0.332l-0.185,0.345l-0.172,0.345l-0.345,0.664l-0.344,0.689l-0.345,0.665l-0.16,0.345l-0.172,0.332l-0.16,0.345l-0.172,0.332l-0.48,0.997l-0.16,0.344l-0.48,0.997l-0.148,0.333l-0.16,0.332l-0.148,0.345l-0.16,0.32l-0.148,0.332l-0.147,0.344l-0.148,0.333l-0.148,0.32l-0.59,1.329l-0.136,0.332l-0.135,0.32l-0.148,0.333l-0.135,0.332l-0.148,0.332l-0.135,0.32l-0.406,0.997l-0.124,0.32l-0.135,0.332l-0.135,0.32l-0.123,0.333l-0.136,0.32l-0.123,0.332l-0.123,0.32l-0.135,0.332l-0.123,0.32l-0.123,0.333l-0.124,0.32l-0.123,0.332l-0.11,0.32l-0.123,0.32l-0.124,0.332l-0.11,0.32l-0.123,0.32l-0.111,0.32l-0.111,0.333l-0.123,0.32l-0.443,1.28l-0.099,0.332l-0.221,0.64l-0.099,0.32l-0.11,0.32l-0.099,0.32l-0.111,0.32l-0.393,1.28l-0.099,0.308l-0.197,0.64l-0.086,0.32l-0.197,0.64l-0.086,0.307l-0.086,0.32l-0.099,0.32l-0.086,0.32l-0.086,0.308l-0.086,0.32l-0.086,0.308l-0.173,0.64l-0.086,0.307l-0.086,0.32l-0.074,0.308l-0.086,0.32l-0.074,0.308l-0.086,0.32l-0.074,0.307l-0.086,0.32l-0.074,0.308l-0.074,0.32l-0.073,0.308l-0.074,0.32l-0.222,0.923l-0.061,0.32l-0.148,0.615l-0.062,0.32l-0.061,0.308l-0.074,0.308l-0.123,0.615l-0.062,0.32l-0.073,0.308l-0.123,0.615l-0.05,0.308l-0.184,0.923l-0.05,0.308l-0.061,0.307l-0.049,0.308l-0.062,0.308l-0.098,0.615l-0.062,0.308l-0.197,1.231l-0.049,0.295l-0.037,0.308l-0.098,0.615l-0.037,0.308l-0.05,0.295l-0.036,0.308l-0.05,0.307l-0.037,0.308l-0.049,0.296l-0.074,0.615l-0.221,1.809l-0.062,0.616l-0.123,1.206l-0.061,0.59l-0.05,0.604l-0.061,0.603l-0.049,0.603l-0.037,0.603l-0.05,0.591l-0.073,1.206l-0.074,1.181l-0.049,1.194l-0.025,0.591l-0.049,1.194l-0.037,1.772l-0,0.591l-0.013,0.591l0,2.35l0.025,1.17l0,0.59l0.025,0.579l0.012,0.591l0.025,0.59l0.012,0.579l0.025,0.578l0.049,1.169l0.037,0.579l0.024,0.578l0.037,0.591l0.074,1.157l0.049,0.579l0.037,0.578l0.197,2.314l0.049,0.566l0.062,0.578l0.049,0.579l0.123,1.157l0.062,0.566l0.074,0.578l0.061,0.567l0.074,0.578l0.062,0.579l0.147,1.132l0.074,0.578l0.086,0.566l0.074,0.579l0.086,0.566l0.074,0.579l0.259,1.698l0.098,0.578l0.172,1.133l0.197,1.132l0.099,0.579l0.394,2.264l0.11,0.566l0.099,0.566l0.221,1.133l0.099,0.566l0.111,0.566l0.11,0.554l0.123,0.566l0.222,1.132l0.123,0.567l0.111,0.566l0.123,0.554l0.246,1.132l0.111,0.566l0.123,0.566l0.123,0.554l0.135,0.566l0.123,0.566l0.123,0.554l0.136,0.566l0.123,0.566l0.135,0.554l0.123,0.566l0.136,0.567l0.135,0.553l0.123,0.567l0.136,0.566l0.135,0.554l0.135,0.566l0.271,1.12l0.283,1.12l0.271,1.12l0.566,2.24l0.283,1.132l0.296,1.12l0.283,1.12l0.295,1.12l0.283,1.12l0.591,2.24l0.591,2.252l1.181,4.493l0.591,2.24l0.295,1.132l0.296,1.12l0.283,1.132l0.295,1.12l0.296,1.133l0.283,1.132l0.295,1.12l0.849,3.397l0.283,1.144l0.813,3.397l0.135,0.579l0.406,1.698l0.136,0.579l0.123,0.566l0.135,0.578l0.123,0.567l0.136,0.566l0.123,0.578l0.123,0.566l0.246,1.157l0.123,0.566l0.246,1.157l0.123,0.566l0.123,0.579l0.111,0.578l0.123,0.567l0.222,1.156l0.123,0.579l0.221,1.157l0.099,0.578l0.221,1.157l0.099,0.579l0.11,0.578l0.099,0.591l0.197,1.157l0.111,0.578l0.086,0.591l0.098,0.579l0.099,0.59l0.086,0.579l0.086,0.591l0.098,0.578l0.087,0.591l0.086,0.578l0.086,0.591l0.074,0.591l0.086,0.591l0.074,0.578l0.086,0.591l0.148,1.181l0.061,0.591l0.148,1.182l0.061,0.603l0.185,1.772l0.062,0.603l0.061,0.591l0.049,0.603l0.05,0.591l0.049,0.603l0.049,0.591l0.049,0.603l0.037,0.603l0.049,0.603l0.037,0.591l0.111,1.809l0.025,0.603l0.024,0.615l0.037,0.603l0.025,0.603l0.012,0.603l0.025,0.616l0.037,1.821l0.024,1.219l0,2.461l-0.012,0.616l0,0.615l-0.025,1.231l-0.024,0.615l-0.013,0.616l-0.024,0.627l-0.025,0.616l-0.024,0.627l-0.037,0.616l-0.025,0.628l-0.037,0.615l-0.037,0.628l-0.049,0.627l-0.037,0.628l-0.148,1.883l-0.123,1.255l-0.061,0.64l-0.062,0.628l-0.074,0.628l-0.061,0.64l-0.086,0.628l-0.148,1.28l-0.049,0.32l-0.037,0.307l-0.049,0.32l-0.037,0.32l-0.05,0.333l-0.049,0.307l-0.037,0.32l-0.049,0.32l-0.049,0.333l-0.049,0.307l-0.05,0.32l-0.049,0.333l-0.098,0.64l-0.062,0.32l-0.049,0.32l-0.062,0.32l-0.049,0.332l-0.061,0.32l-0.05,0.32l-0.061,0.32l-0.062,0.332l-0.123,0.64l-0.061,0.332l-0.123,0.64l-0.062,0.333l-0.061,0.32l-0.074,0.332l-0.123,0.64l-0.148,0.665l-0.062,0.32l-0.073,0.332l-0.074,0.32l-0.074,0.332l-0.074,0.32l-0.148,0.665l-0.074,0.32l-0.086,0.332l-0.147,0.665l-0.087,0.32l-0.073,0.332l-0.259,0.997l-0.074,0.32l-0.098,0.345l-0.086,0.32l-0.259,0.997l-0.098,0.332l-0.173,0.665l-0.196,0.664l-0.087,0.332l-0.098,0.345l-0.394,1.329l-0.098,0.345l-0.111,0.332l-0.197,0.665l-0.111,0.344l-0.098,0.333l-0.111,0.332l-0.111,0.345l-0.221,0.664l-0.111,0.345l-0.111,0.332l-0.111,0.345l-0.11,0.332l-0.111,0.345l-0.123,0.344l-0.111,0.333l-0.123,0.344l-0.123,0.333l-0.111,0.344l-0.123,0.345l-0.123,0.332l-0.246,0.689l-0.123,0.333l-0.123,0.344l-0.136,0.345l-0.123,0.345l-0.135,0.344l-0.123,0.345l-0.037,0.074l0.443,-0.776l0.221,-0.406l0.456,-0.8l0.221,-0.394l0.222,-0.406l0.431,-0.8l0.43,-0.788l0.431,-0.8l0.837,-1.575l0.197,-0.394l0.406,-0.775l0.603,-1.169l0.394,-0.776l0.197,-0.394l0.185,-0.381l0.381,-0.776l0.382,-0.763l0.738,-1.526l0.529,-1.144l0.185,-0.37l0.172,-0.381l0.345,-0.751l0.172,-0.369l0.332,-0.751l0.345,-0.751l1.28,-2.954l0.148,-0.369l0.307,-0.726l0.444,-1.095l0.295,-0.727l0.283,-0.726l0.283,-0.714l0.283,-0.726l0.542,-1.427l0.258,-0.702l0.259,-0.714l0.258,-0.701l0.246,-0.702l0.123,-0.357l0.123,-0.344l0.234,-0.702l0.234,-0.689l0.234,-0.702l0.443,-1.378l0.32,-1.022l0.111,-0.344l0.197,-0.677l0.209,-0.677l0.197,-0.689l0.197,-0.665l0.369,-1.354l0.172,-0.664l0.185,-0.665l0.258,-0.997l0.074,-0.32l0.173,-0.665l0.073,-0.332l0.234,-0.985l0.148,-0.652l0.074,-0.32l0.418,-1.944l0.062,-0.32l0.135,-0.64l0.369,-1.92l0.111,-0.628l0.111,-0.64l0.049,-0.308l0.111,-0.628l0.098,-0.64l0.05,-0.307l0.037,-0.308l0.098,-0.628l0.086,-0.615l0.086,-0.628l0.087,-0.615l0.184,-1.539l0.062,-0.603l0.061,-0.615l0.185,-1.809l0.049,-0.603l0.037,-0.603l0.049,-0.603l0.037,-0.591l0.025,-0.296l0.012,-0.307l0.037,-0.591l0.086,-2.068l0.025,-0.578l0.012,-0.874l0.012,-0.295l0,-0.296l0.013,-0.578l-0,-2.302l-0.013,-0.283l0,-0.578l-0.024,-0.567l-0,-0.283l-0.025,-0.566l0,-0.283l-0.012,-0.295l-0.012,-0.271l-0.05,-1.132l-0.037,-0.566l-0.024,-0.554l-0.037,-0.566l-0.037,-0.554l-0.049,-0.554l-0.037,-0.554l-0.148,-1.662l-0.061,-0.541l-0.062,-0.554l-0.049,-0.541l-0.074,-0.554l-0.123,-1.083l-0.296,-2.167l-0.086,-0.529l-0.074,-0.541l-0.086,-0.542l-0.172,-1.058l-0.098,-0.53l-0.087,-0.541l-0.098,-0.517l-0.099,-0.542l-0.098,-0.516l-0.098,-0.53l-0.111,-0.529l-0.099,-0.529l-0.111,-0.517l-0.11,-0.529l-0.111,-0.517l-0.123,-0.517l-0.111,-0.517l-0.123,-0.529l-0.111,-0.517l-0.246,-1.034l-0.123,-0.505l-0.135,-0.517l-0.123,-0.517l-0.271,-1.033l-0.123,-0.505l-0.136,-0.505l-0.135,-0.517l-0.148,-0.504l-0.135,-0.517l-0.148,-0.505l-0.135,-0.504l-0.739,-2.523l-0.16,-0.505l-0.147,-0.505l-0.16,-0.492l-0.16,-0.505l-0.148,-0.504l-0.16,-0.492l-0.32,-1.01l-0.172,-0.492l-0.16,-0.492l-0.16,-0.505l-0.173,-0.492l-0.16,-0.493l-0.172,-0.504l-0.345,-0.985l-0.16,-0.492l-0.172,-0.492l-0.172,-0.505l-0.185,-0.492l-0.517,-1.477l-0.184,-0.48l-0.173,-0.493l-0.184,-0.492l-0.173,-0.492l-0.184,-0.492l-0.357,-0.985l-0.369,-0.972l-0.37,-0.985l-0.738,-1.945l-0.369,-0.984l-0.37,-0.973l-0.763,-1.944l-0.369,-0.972l-0.763,-1.957l-1.501,-3.89l-0.382,-0.972l-0.382,-0.985l-0.738,-1.944l-0.382,-0.985l-0.369,-0.972l-0.738,-1.969l-0.357,-0.985l-0.369,-0.985l-0.173,-0.492l-0.184,-0.492l-0.173,-0.492l-0.184,-0.493l-0.345,-0.984l-0.184,-0.493l-0.173,-0.504l-0.344,-0.985l-0.173,-0.505l-0.172,-0.492l-0.16,-0.504l-0.172,-0.493l-0.173,-0.504l-0.16,-0.493l-0.172,-0.504l-0.32,-1.01l-0.172,-0.492l-0.32,-1.009l-0.148,-0.505l-0.32,-1.009l-0.148,-0.505l-0.16,-0.504l-0.147,-0.517l-0.296,-1.009l-0.147,-0.517l-0.148,-0.505l-0.148,-0.517l-0.135,-0.504l-0.148,-0.517l-0.135,-0.517l-0.136,-0.505l-0.541,-2.068l-0.123,-0.516l-0.123,-0.53l-0.136,-0.517l-0.123,-0.517l-0.123,-0.529l-0.111,-0.517l-0.123,-0.529l-0.11,-0.529l-0.111,-0.517l-0.123,-0.529l-0.099,-0.53l-0.221,-1.058l-0.099,-0.529l-0.098,-0.542l-0.197,-1.058l-0.197,-1.083l-0.086,-0.53l-0.259,-1.624l-0.074,-0.542l-0.086,-0.541l-0.074,-0.554l-0.073,-0.542l-0.062,-0.541l-0.074,-0.554l-0.061,-0.554l-0.062,-0.541l-0.123,-1.108l-0.049,-0.554l-0.062,-0.554l-0.049,-0.566l-0.049,-0.554l-0.037,-0.566l-0.049,-0.554l-0.074,-1.132l-0.025,-0.566l-0.037,-0.566l-0.049,-1.133l-0.025,-0.578l0,-0.283l-0.024,-0.566l-0,-0.296l-0.012,-0.283l-0,-0.578l-0.013,-0.283l0,-2.917l0.013,-0.283l0.012,-0.591l-0,-0.296l0.037,-0.886l0.012,-0.59l0.025,-0.591l0.037,-0.591l0.024,-0.591l0.025,-0.307l0.012,-0.296l0.025,-0.308l0.037,-0.59l0.074,-0.911l0.098,-1.206l0.025,-0.308l0.061,-0.603l0.037,-0.308l0.025,-0.307l0.037,-0.308l0.061,-0.603l0.111,-0.923l0.086,-0.616l0.074,-0.627l0.086,-0.616l0.049,-0.307l0.086,-0.628l0.099,-0.628l0.098,-0.615l0.099,-0.64l0.111,-0.628l0.098,-0.628l0.123,-0.64l0.111,-0.627l0.123,-0.64l0.135,-0.64l0.123,-0.64l0.074,-0.333l0.062,-0.32l0.135,-0.64l0.074,-0.32l0.074,-0.332l0.148,-0.64l0.233,-0.984l0.074,-0.32l0.16,-0.665l0.16,-0.652l0.173,-0.653l0.344,-1.329l0.099,-0.332l0.086,-0.333l0.098,-0.332l0.086,-0.332l0.197,-0.677l0.197,-0.665l0.099,-0.344l0.197,-0.665l0.209,-0.677l0.098,-0.344l0.111,-0.345l0.222,-0.677l0.098,-0.332l0.111,-0.345l0.234,-0.689l0.221,-0.689l0.234,-0.69l0.616,-1.723l0.123,-0.357l0.381,-1.046l0.517,-1.403l0.283,-0.714l0.271,-0.701l0.135,-0.357l0.148,-0.357l0.566,-1.428l0.296,-0.714l0.307,-0.726l0.296,-0.714l0.16,-0.369l0.16,-0.357l0.147,-0.369l0.16,-0.357l0.16,-0.369l0.16,-0.357l0.333,-0.739l0.332,-0.726l0.332,-0.738l0.517,-1.108l0.345,-0.751l0.184,-0.369l0.357,-0.751l0.173,-0.369l0.369,-0.751l0.184,-0.369l0.37,-0.763l0.197,-0.369l0.369,-0.763l1.378,-2.671l0.406,-0.763l0.419,-0.775l0.209,-0.394l0.209,-0.382l0.419,-0.775l0.431,-0.776l0.221,-0.393l0.431,-0.788l0.443,-0.788l0.455,-0.788l0.443,-0.787l0.468,-0.8l0.16,-0.271l-0.061,0.086Z"/></g><g id="F"><path d="M190,846.597c17.949,-12.12 31.354,-21.295 39.987,-27.638c8.634,-6.229 17.722,-14.045 27.037,-23.332c9.315,-9.288 17.154,-19.822 23.515,-31.489c4.999,-8.608 9.315,-18.575 12.837,-29.902c3.522,-11.214 5.339,-22.087 5.68,-32.394c-0,-9.628 -1.25,-18.803 -3.862,-27.411c-2.5,-8.722 -6.816,-15.857 -12.951,-21.634c-6.134,-5.663 -14.086,-8.495 -23.969,-8.495c-9.543,-0 -18.517,1.926 -26.924,5.663c-8.292,3.851 -14.2,9.968 -17.494,18.576c0,0.793 -0.454,1.812 -1.136,3.285c0.227,1.812 1.136,3.171 2.84,4.191c1.704,1.019 3.181,1.472 4.544,1.472c0.682,0 2.613,-0.34 5.566,-1.019c3.068,-0.68 5.567,-1.133 7.612,-1.133c6.02,0 11.36,2.152 16.244,6.343c4.772,4.191 7.157,9.288 7.157,15.291c0,4.304 -1.249,8.382 -3.635,12.12c-2.386,3.737 -5.68,6.796 -9.883,8.948c-4.203,2.265 -8.861,3.284 -13.859,3.284c-9.088,0 -16.813,-2.718 -23.175,-8.268c-6.248,-5.663 -9.429,-12.799 -9.429,-21.747c0,-11.44 3.522,-21.294 10.452,-29.676c7.043,-8.382 15.904,-14.612 26.809,-18.802c10.792,-4.305 21.698,-6.343 32.831,-6.343c12.155,-0 23.742,3.058 34.534,9.287c10.906,6.117 19.426,14.612 25.787,25.146c6.362,10.647 9.656,21.973 9.656,34.206c0,21.748 -7.27,41.909 -21.811,60.598c-14.541,18.689 -32.49,34.886 -53.96,48.705c-14.314,9.401 -37.488,22.087 -69.41,38.057l-1.59,-5.889Zm157.79,-175.224c0,-4.078 1.477,-7.476 4.431,-10.194c2.84,-2.832 6.361,-4.191 10.564,-4.191c3.636,-0 7.044,1.586 10.111,4.644c3.067,2.945 4.544,6.456 4.544,10.307c-0,4.078 -1.591,7.589 -4.544,10.421c-3.181,2.718 -6.703,4.077 -10.679,4.077c-4.203,0 -7.611,-1.359 -10.337,-4.417c-2.726,-2.945 -4.09,-6.456 -4.09,-10.647Zm0,59.352c0,-4.078 1.477,-7.589 4.204,-10.308c2.84,-2.831 6.361,-4.191 10.791,-4.191c3.636,0 6.93,1.473 10.111,4.531c2.953,3.058 4.544,6.343 4.544,9.968c-0,4.417 -1.477,7.928 -4.317,10.76c-2.954,2.832 -6.362,4.304 -10.338,4.304c-4.43,0 -7.951,-1.472 -10.791,-4.191c-2.727,-2.718 -4.204,-6.343 -4.204,-10.873Z" style="fill:#131516;stroke:#131516;stroke-width:0.34px;stroke-linecap:butt;stroke-linejoin:miter;stroke-miterlimit:4;"/></g><g id="G"><path d="M262.978,328.108c-5.531,1.134 -10.656,4.168 -15.547,9.002c-4.898,4.923 -7.52,10.537 -7.948,16.749c-0.269,3.904 0.759,8.432 3.014,13.314c2.249,4.969 5.924,8.7 10.841,11.269c1.665,0.471 2.405,1.414 2.319,2.655c-0.031,0.444 -0.684,0.845 -2.221,1.096c-7.953,-2.6 -14.325,-7.408 -19.037,-14.241c-4.706,-6.923 -6.86,-14.561 -6.45,-23.092c0.897,-9.122 4.243,-17.449 10.029,-24.896c5.883,-7.529 13.118,-12.647 21.705,-15.354l-3.964,-31.924c-14.482,10.413 -26.415,21.448 -35.9,33.275c-9.48,11.739 -14.852,24.831 -16.206,39.271c-0.269,6.49 0.631,12.882 2.705,19.088c2.068,6.294 5.425,12.054 10.057,17.455c9.36,10.721 22.074,16.858 37.96,18.49c5.45,0.019 11.299,-0.559 17.636,-1.726l-8.993,-70.431Zm6.465,-0.445l9.168,69.195c14.078,-4.557 21.754,-16.064 23.016,-34.343c-0.378,-6.178 -1.778,-11.803 -4.466,-16.891c-2.592,-5.172 -6.237,-9.346 -11.022,-12.529c-4.785,-3.184 -10.291,-4.99 -16.696,-5.432Zm-11.867,-93.543c3.058,-1.572 6.652,-4.445 10.599,-8.541c3.941,-4.008 7.848,-8.82 11.62,-14.266c3.867,-5.529 7.028,-11.194 9.485,-16.999c2.45,-5.715 3.814,-11.238 4.169,-16.385c0.153,-2.218 0.128,-4.448 -0.182,-6.432c-0.135,-3.218 -0.942,-5.771 -2.516,-7.573c-1.58,-1.714 -3.654,-2.749 -6.322,-2.933c-5.337,-0.368 -10.367,2.584 -15.09,8.855c-3.683,5.453 -6.905,12.006 -9.389,19.502c-2.578,7.579 -4.261,15.13 -4.972,22.838c-0.161,8.816 0.766,16.101 2.598,21.934Zm-5.959,4.76c-3.011,-14.651 -4.224,-29.446 -3.641,-44.384c0.75,-9.577 2.347,-18.472 4.791,-26.684c2.354,-8.219 5.43,-15.228 9.239,-21.207c3.719,-5.984 7.869,-10.423 12.359,-13.323c4.02,-2.576 6.882,-3.894 8.394,-3.789c1.157,0.079 2.105,0.59 2.939,1.451c0.834,0.86 1.899,2.271 3.199,4.143c9.551,15.727 13.639,34.197 12.182,55.316c-0.692,10.027 -2.699,19.696 -6.042,29.273c-3.247,9.494 -7.708,18.459 -13.372,26.716c-5.76,8.34 -12.329,15.465 -19.803,21.458l4.793,35.459c3.944,-0.174 6.638,-0.344 8.149,-0.24c6.761,0.466 12.712,2.303 18.12,5.529c5.408,3.227 9.947,7.374 13.524,12.524c3.584,5.062 6.228,10.772 7.935,17.131c1.618,6.353 2.327,12.91 1.862,19.654c-0.723,10.471 -4.142,19.864 -10.251,28.091c-6.108,8.226 -14.816,13.956 -26.217,17.27c0.412,4.398 1.223,10.783 2.533,18.988c1.217,8.286 2.103,14.855 2.662,19.709c0.559,4.853 0.597,9.491 0.285,14.017c-0.484,7.01 -2.603,13.105 -6.362,18.373c-3.849,5.263 -8.768,9.203 -14.847,11.814c-5.991,2.619 -12.499,3.685 -19.437,3.206c-9.785,-0.674 -18.135,-4.014 -25.055,-9.931c-6.914,-6.005 -10.319,-13.64 -10.027,-23.07c0.556,-4.152 1.803,-7.989 3.84,-11.593c2.036,-3.604 4.645,-6.455 7.918,-8.548c3.19,-2.188 6.922,-3.178 11.121,-3.155c3.47,0.239 6.693,1.442 9.678,3.52c2.889,2.161 5.203,4.906 6.844,8.319c1.552,3.406 2.28,7.111 2.01,11.015c-0.361,5.236 -2.446,9.549 -6.255,12.942c-3.809,3.393 -8.474,4.943 -13.9,4.569l-2.046,-0.141c3.102,5.564 8.605,8.707 16.521,9.253c4.003,0.277 8.156,-0.329 12.358,-1.644c4.297,-1.397 7.919,-3.376 11.051,-6.013c3.131,-2.637 5.296,-5.519 6.317,-8.658c1.763,-3.534 2.824,-8.543 3.258,-14.843c0.294,-4.259 0.144,-8.55 -0.363,-12.864c-0.513,-4.225 -1.373,-9.902 -2.585,-16.94c-1.219,-6.949 -2.097,-12.359 -2.558,-16.047c-5.428,0.963 -10.992,1.293 -16.774,0.894c-9.696,-0.669 -18.723,-3.253 -27.076,-7.842c-8.352,-4.588 -15.534,-10.611 -21.626,-18.164c-6.004,-7.547 -10.522,-15.884 -13.545,-25.186c-2.94,-9.208 -4.159,-18.743 -3.575,-28.51c0.981,-9.026 3.271,-17.606 7.037,-25.548c3.771,-8.032 8.402,-15.558 13.974,-22.484c5.572,-6.927 11.28,-13.22 17.116,-18.791c5.919,-5.476 13.644,-12.521 23.348,-21.035Z" style="fill:#131516;stroke:#131516;stroke-width:0.27px;stroke-linecap:butt;stroke-linejoin:miter;stroke-miterlimit:4;"/></g></g></g></svg>