<?xml version="1.0" encoding="UTF-8" standalone="no"?><!DOCTYPE svg PUBLIC "-//W3C//DTD SVG 1.1//EN" "http://www.w3.org/Graphics/SVG/1.1/DTD/svg11.dtd"><svg width="660.0px" height="720.0px" viewBox="0 0 660 720" version="1.1" xmlns="http://www.w3.org/2000/svg" xmlns:xlink="http://www.w3.org/1999/xlink" xml:space="preserve" xmlns:serif="http://www.serif.com/" style="fill-rule:evenodd;clip-rule:evenodd;stroke-linejoin:round;stroke-miterlimit:2;"><g id="melody-categorize"><path id="Combined-Shape" d="M563,117c4.418,0 8,3.582 8,8l0,164c0,4.418 -3.582,8 -8,8l-168,0l0,-178l-5,0l0,178l-175,0l0,-178l-5,0l0,178l-171,0c-4.418,0 -8,-3.582 -8,-8l0,-164c0,-4.418 3.582,-8 8,-8l524,0Z" style="fill:#f2f2f2;"/><path id="Rectangle" d="M191,273c0,-3.311 -2.689,-6 -6,-6l-70,0c-3.311,0 -6,2.689 -6,6l0,59c0,3.311 2.689,6 6,6l70,0c3.311,0 6,-2.689 6,-6l0,-59Z" style="fill:#e3e3e3;"/><path id="Rectangle1" serif:id="Rectangle" d="M621,207c0,-3.311 -2.689,-6 -6,-6l-70,0c-3.311,0 -6,2.689 -6,6l0,59c0,3.311 2.689,6 6,6l70,0c3.311,0 6,-2.689 6,-6l0,-59Z" style="fill:#e3e3e3;"/><path id="Combined-Shape1" serif:id="Combined-Shape" d="M412,502c4.418,0 8,3.582 8,8l0,184c0,4.418 -3.582,8 -8,8l-187,0l0,-198l-5,0l0,198l-181,0c-4.418,0 -8,-3.582 -8,-8l0,-184c0,-4.418 3.582,-8 8,-8l373,0Z" style="fill:#f2f2f2;"/><g id="ピッチについて"><text x="68px" y="69px" style="font-family:'NotoSansSC-Bold', 'Noto Sans SC', sans-serif;font-weight:700;font-size:36px;fill:#2060db;">关于音高</text></g><g id="長さとタイミングについて"><text x="69px" y="455px" style="font-family:'NotoSansSC-Bold', 'Noto Sans SC', sans-serif;font-weight:700;font-size:36px;fill:#2060db;">关于长度和时间</text></g><g id="上行"><text x="282px" y="193px" style="font-family:'HiraginoSans-W4', 'Hiragino Sans', sans-serif;font-size:28px;fill:#0e1517;">上行</text></g><g id="下行"><text x="282px" y="245px" style="font-family:'HiraginoSans-W4', 'Hiragino Sans', sans-serif;font-size:28px;fill:#0e1517;">下行</text></g><g id="跳躍"><g transform="matrix(1,0,0,1,470,193)"><text x="0px" y="0px" style="font-family:'HiraginoSans-W4', 'Hiragino Sans', sans-serif;font-size:28px;">跳</text><text x="28px" y="0px" style="font-family:'STHeitiSC-Medium', 'Heiti SC';font-size:28px;">跃</text></g></g><g id="順次"><g transform="matrix(1,0,0,1,470,245)"><text x="0px" y="0px" style="font-family:'STHeitiSC-Medium', 'Heiti SC';font-size:28px;fill:#0e1517;">顺</text><text x="28px" y="0px" style="font-family:'HiraginoSans-W4', 'Hiragino Sans', sans-serif;font-size:28px;fill:#0e1517;">序</text></g></g><g id="全音-半音"><text x="570px" y="230px" style="font-family:'HiraginoSans-W3', 'Hiragino Sans', sans-serif;font-weight:300;font-size:20px;fill:#0e1517;">全音</text><text x="570px" y="260px" style="font-family:'HiraginoSans-W3', 'Hiragino Sans', sans-serif;font-weight:300;font-size:20px;fill:#0e1517;">半音</text></g><path id="_-" serif:id="{" d="M275,245l0,-1.867l-3.308,0c-4.461,0 -7.23,-1.322 -7.23,-7.234l-0,-22.248c-0,-4.045 -1.693,-6.379 -5.385,-6.612l-0,-0.078c3.692,-0.233 5.385,-2.567 5.385,-6.612l-0,-22.325c-0,-5.912 2.769,-7.157 7.23,-7.157l3.308,-0l0,-1.867l-3.538,-0c-5.924,-0 -9.154,2.023 -9.154,9.257l-0,21.859c-0,3.5 -1.385,5.756 -6.308,5.912l0,1.944c4.923,0.156 6.308,2.412 6.308,5.912l-0,21.859c-0,7.157 3.23,9.257 9.154,9.257l3.538,-0Z" style="fill-rule:nonzero;"/><path id="_-1" serif:id="{" d="M456,245l0,-1.867l-3.308,0c-4.461,0 -7.23,-1.322 -7.23,-7.234l-0,-22.248c-0,-4.045 -1.693,-6.379 -5.385,-6.612l-0,-0.078c3.692,-0.233 5.385,-2.567 5.385,-6.612l-0,-22.325c-0,-5.912 2.769,-7.157 7.23,-7.157l3.308,-0l0,-1.867l-3.538,-0c-5.924,-0 -9.154,2.023 -9.154,9.257l-0,21.859c-0,3.5 -1.385,5.756 -6.308,5.912l0,1.944c4.923,0.156 6.308,2.412 6.308,5.912l-0,21.859c-0,7.157 3.23,9.257 9.154,9.257l3.538,-0Z" style="fill-rule:nonzero;"/><path id="_-2" serif:id="×" d="M406.077,223l3.923,-3.933l-11.538,-11.567l11.538,-11.567l-3.923,-3.933l-11.539,11.567l-11.615,-11.567l-3.923,3.933l11.538,11.567l-11.538,11.567l3.923,3.933l11.615,-11.567l11.539,11.567Z" style="fill-opacity:0.3;fill-rule:nonzero;"/><g id="発散"><g transform="matrix(1,0,0,1,98,193)"><text x="0px" y="0px" style="font-family:'STHeitiSC-Medium', 'Heiti SC';font-size:28px;fill:#0e1517;">发</text><text x="28px" y="0px" style="font-family:'HiraginoSans-W4', 'Hiragino Sans', sans-serif;font-size:28px;fill:#0e1517;">散</text></g></g><g id="収束"><g transform="matrix(1,0,0,1,98,245)"><text x="0px" y="0px" style="font-family:'HiraginoSans-W4', 'Hiragino Sans', sans-serif;font-size:28px;fill:#0e1517;">收</text><text x="28px" y="0px" style="font-family:'STHeitiSC-Medium', 'Heiti SC';font-size:28px;fill:#0e1517;">敛</text></g></g><g id="跳越-終止"><text x="136px" y="295px" style="font-family:'HiraginoSans-W4', 'Hiragino Sans', sans-serif;font-size:20px;fill:#0e1517;">跨越</text><g transform="matrix(1,0,0,1,136,325)"><text x="0px" y="0px" style="font-family:'STHeitiSC-Medium', 'Heiti SC';font-size:20px;fill:#0e1517;">终</text><text x="20px" y="0px" style="font-family:'HiraginoSans-W4', 'Hiragino Sans', sans-serif;font-size:20px;fill:#0e1517;">止</text></g></g><path id="_-3" serif:id="{" d="M91,245l0,-1.867l-3.308,0c-4.461,0 -7.23,-1.322 -7.23,-7.234l-0,-22.248c-0,-4.045 -1.693,-6.379 -5.385,-6.612l-0,-0.078c3.692,-0.233 5.385,-2.567 5.385,-6.612l-0,-22.325c-0,-5.912 2.769,-7.157 7.23,-7.157l3.308,-0l0,-1.867l-3.538,-0c-5.924,-0 -9.154,2.023 -9.154,9.257l-0,21.859c-0,3.5 -1.385,5.756 -6.308,5.912l0,1.944c4.923,0.156 6.308,2.412 6.308,5.912l-0,21.859c-0,7.157 3.23,9.257 9.154,9.257l3.538,-0Z" style="fill-rule:nonzero;"/><path id="_-4" serif:id="{" d="M130,326l0,-1.13l-2.089,0c-2.818,0 -4.567,-0.8 -4.567,-4.379l0,-13.465c0,-2.449 -1.069,-3.861 -3.401,-4.002l0,-0.048c2.332,-0.141 3.401,-1.553 3.401,-4.002l0,-13.512c0,-3.579 1.749,-4.332 4.567,-4.332l2.089,-0l0,-1.13l-2.235,0c-3.741,0 -5.781,1.224 -5.781,5.603l-0,13.23c-0,2.119 -0.875,3.484 -3.984,3.578l0,1.178c3.109,0.094 3.984,1.459 3.984,3.578l-0,13.23c-0,4.332 2.04,5.603 5.781,5.603l2.235,0Z" style="fill-rule:nonzero;"/><path id="_-5" serif:id="{" d="M564,260l0,-1.13l-2.089,0c-2.818,0 -4.567,-0.8 -4.567,-4.379l0,-13.465c0,-2.449 -1.069,-3.861 -3.401,-4.002l0,-0.048c2.332,-0.141 3.401,-1.553 3.401,-4.002l0,-13.512c0,-3.579 1.749,-4.332 4.567,-4.332l2.089,-0l0,-1.13l-2.235,0c-3.741,0 -5.781,1.224 -5.781,5.603l-0,13.23c-0,2.119 -0.875,3.484 -3.984,3.578l0,1.178c3.109,0.094 3.984,1.459 3.984,3.578l-0,13.23c-0,4.332 2.04,5.603 5.781,5.603l2.235,0Z" style="fill-rule:nonzero;"/><g id="長い"><text x="98px" y="580px" style="font-family:'STHeitiSC-Light', 'Heiti SC';font-weight:300;font-size:28px;fill:#0e1517;">长</text></g><g id="短い"><text x="98px" y="634px" style="font-family:'HiraginoSans-W3', 'Hiragino Sans', sans-serif;font-weight:300;font-size:28px;fill:#0e1517;">短</text></g><path id="_-6" serif:id="{" d="M91,637l0,-1.867l-3.308,0c-4.461,0 -7.23,-1.322 -7.23,-7.234l-0,-22.248c-0,-4.045 -1.693,-6.379 -5.385,-6.612l-0,-0.078c3.692,-0.233 5.385,-2.567 5.385,-6.612l-0,-22.325c-0,-5.912 2.769,-7.157 7.23,-7.157l3.308,-0l0,-1.867l-3.538,0c-5.924,0 -9.154,2.023 -9.154,9.257l-0,21.859c-0,3.5 -1.385,5.756 -6.308,5.912l0,1.944c4.923,0.156 6.308,2.412 6.308,5.912l-0,21.859c-0,7.157 3.23,9.257 9.154,9.257l3.538,0Z" style="fill-rule:nonzero;"/><path id="_-7" serif:id="×" d="M225.077,223l3.923,-3.933l-11.538,-11.567l11.538,-11.567l-3.923,-3.933l-11.539,11.567l-11.615,-11.567l-3.923,3.933l11.538,11.567l-11.538,11.567l3.923,3.933l11.615,-11.567l11.539,11.567Z" style="fill-opacity:0.3;fill-rule:nonzero;"/><g id="先発"><g transform="matrix(1,0,0,1,297,567)"><text x="0px" y="0px" style="font-family:'HiraginoSans-W3', 'Hiragino Sans', sans-serif;font-weight:300;font-size:28px;fill:#0e1517;">先</text><text x="28px" y="0px" style="font-family:'STHeitiSC-Light', 'Heiti SC';font-weight:300;font-size:28px;fill:#0e1517;">发</text></g></g><g id="同時"><g transform="matrix(1,0,0,1,297,615)"><text x="0px" y="0px" style="font-family:'HiraginoSans-W3', 'Hiragino Sans', sans-serif;font-weight:300;font-size:28px;fill:#0e1517;">同</text><text x="28px" y="0px" style="font-family:'STHeitiSC-Light', 'Heiti SC';font-weight:300;font-size:28px;fill:#0e1517;">时</text></g></g><g id="後発"><g transform="matrix(1,0,0,1,297,662)"><text x="0px" y="0px" style="font-family:'HiraginoSans-W3', 'Hiragino Sans', sans-serif;font-weight:300;font-size:28px;fill:#0e1517;">后</text><text x="28px" y="0px" style="font-family:'STHeitiSC-Light', 'Heiti SC';font-weight:300;font-size:28px;fill:#0e1517;">发</text></g></g><path id="_-8" serif:id="{" d="M290,664l0,-1.869l-3.308,-0c-4.461,-0 -7.23,-1.324 -7.23,-7.243l-0,-42.229c-0,-4.05 -1.693,-6.386 -5.385,-6.62l-0,-0.078c3.692,-0.234 5.385,-2.57 5.385,-6.62l-0,-42.307c-0,-5.919 2.769,-7.165 7.23,-7.165l3.308,0l0,-1.869l-3.538,0c-5.924,0 -9.154,2.025 -9.154,9.268l-0,41.839c-0,3.505 -1.385,5.764 -6.308,5.919l0,1.948c4.923,0.155 6.308,2.414 6.308,5.919l-0,41.839c-0,7.165 3.23,9.268 9.154,9.268l3.538,0Z" style="fill-rule:nonzero;"/><path id="_-9" serif:id="×" d="M234.077,618l3.923,-3.933l-11.538,-11.567l11.538,-11.567l-3.923,-3.933l-11.539,11.567l-11.615,-11.567l-3.923,3.933l11.538,11.567l-11.538,11.567l3.923,3.933l11.615,-11.567l11.539,11.567Z" style="fill-opacity:0.3;fill-rule:nonzero;"/><path id="Triangle" d="M52.5,56.5l-17,11l0,-22l17,11Z" style="fill:#2060db;"/><path id="Triangle1" serif:id="Triangle" d="M52.5,443.5l-17,11l-0,-22l17,11Z" style="fill:#2060db;"/></g></svg>