<?xml version="1.0" encoding="UTF-8"?>
<svg width="1060px" height="290px" viewBox="0 0 1060 290" version="1.1" xmlns="http://www.w3.org/2000/svg" xmlns:xlink="http://www.w3.org/1999/xlink">
    <title>nex-cannon</title>
    <g id="nex-cannon" stroke="none" stroke-width="1" fill="none" fill-rule="evenodd">
        <g id="Group-5" transform="translate(604.000000, -110.000000)">
            <rect id="Rectangle-Copy" fill="#58C322" x="2" y="140" width="120" height="80" rx="10"></rect>
            <g id="Group" transform="translate(28.000000, 164.000000)" fill="#FFFFFF" fill-rule="nonzero">
                <g id="CS-A">
                    <path d="M15.688,32 L25.768,-0.016 L19,-0.016 L12.232,21.44 L5.752,-0.016 L-1.016,-0.016 L8.68,32 L15.688,32 Z M33.8,32 L33.8,-0.016 L27.224,-0.016 L27.224,32 L33.8,32 Z" id="Combined-Shape"></path>
                </g>
            </g>
            <g id="Group" transform="translate(66.000000, 160.000000)" fill="#FFFFFF" fill-rule="nonzero">
                <g id="CS-minor">
                    <path d="M8.935725,35 L8.935725,22.9 C8.935725,20.084 10.035725,18.632 12.147725,18.632 C14.171725,18.632 15.227725,20.084 15.227725,22.9 L15.227725,35 L20.815725,35 L20.815725,22.724 C20.815725,20.128 22.003725,18.632 24.071725,18.632 C26.183725,18.632 27.195725,19.952 27.195725,22.724 L27.195725,35 L32.783725,35 L32.783725,21.668 C32.783725,18.588 32.387725,17.18 31.155725,15.816 C30.011725,14.584 28.295725,13.924 26.227725,13.924 C23.323725,13.924 21.431725,14.98 20.067725,17.312 C19.099725,15.112 17.163725,13.924 14.523725,13.924 C11.927725,13.924 10.211725,14.936 8.935725,17.18 L8.935725,14.628 L3.347725,14.628 L3.347725,35 L8.935725,35 Z" id="Combined-Shape"></path>
                </g>
            </g>
        </g>
        <g id="Group-3" transform="translate(368.000000, 30.000000)">
            <rect id="Rectangle-Copy" fill="#FF5500" x="0" y="0" width="120" height="80" rx="10"></rect>
            <g id="Group" transform="translate(42.000000, 26.000000)" fill="#FFFFFF" fill-rule="nonzero">
                <g id="CS-A">
                    <path d="M21.312,32 L31.392,-0.016 L24.624,-0.016 L17.856,21.44 L11.376,-0.016 L4.608,-0.016 L14.304,32 L21.312,32 Z" id="Combined-Shape"></path>
                </g>
            </g>
        </g>
        <g id="Group-3" transform="translate(850.000000, 168.000000)">
            <rect id="Rectangle-Copy" fill="#FF5500" x="0" y="0" width="120" height="80" rx="10"></rect>
            <g id="Group" transform="translate(42.000000, 26.000000)" fill="#FFFFFF" fill-rule="nonzero">
                <g id="CS-A">
                    <path d="M21.312,32 L31.392,-0.016 L24.624,-0.016 L17.856,21.44 L11.376,-0.016 L4.608,-0.016 L14.304,32 L21.312,32 Z" id="Combined-Shape"></path>
                </g>
            </g>
        </g>
        <g id="Group" transform="translate(605.000000, 170.000000)">
            <rect id="Rectangle-Copy" fill="#FFBF00" x="0" y="0" width="120" height="80" rx="10"></rect>
            <g transform="translate(42.000000, 24.000000)" fill="#FFFFFF" fill-rule="nonzero" id="CS-A">
                <g>
                    <path d="M8.824,32 L8.824,-0.016 L2.248,-0.016 L2.248,32 L8.824,32 Z M26.936,32 L37.016,-0.016 L30.248,-0.016 L23.48,21.44 L17,-0.016 L10.232,-0.016 L19.928,32 L26.936,32 Z" id="Combined-Shape"></path>
                </g>
            </g>
        </g>
        <g id="Group-6" transform="translate(850.000000, 30.000000)">
            <rect id="Rectangle-Copy" fill="#FF5500" x="0" y="0" width="120" height="80" rx="10"></rect>
            <g id="Group" transform="translate(61.000000, 23.000000)" fill="#FFFFFF" fill-rule="nonzero">
                <g id="CS-minor">
                    <path d="M8.935725,35 L8.935725,22.9 C8.935725,20.084 10.035725,18.632 12.147725,18.632 C14.171725,18.632 15.227725,20.084 15.227725,22.9 L15.227725,35 L20.815725,35 L20.815725,22.724 C20.815725,20.128 22.003725,18.632 24.071725,18.632 C26.183725,18.632 27.195725,19.952 27.195725,22.724 L27.195725,35 L32.783725,35 L32.783725,21.668 C32.783725,18.588 32.387725,17.18 31.155725,15.816 C30.011725,14.584 28.295725,13.924 26.227725,13.924 C23.323725,13.924 21.431725,14.98 20.067725,17.312 C19.099725,15.112 17.163725,13.924 14.523725,13.924 C11.927725,13.924 10.211725,14.936 8.935725,17.18 L8.935725,14.628 L3.347725,14.628 L3.347725,35 L8.935725,35 Z" id="Combined-Shape"></path>
                </g>
            </g>
            <g id="Group" transform="translate(28.000000, 26.000000)" fill="#FFFFFF" fill-rule="nonzero">
                <g id="CS-A">
                    <path d="M10.064,32 L10.064,-0.016 L3.488,-0.016 L3.488,32 L10.064,32 Z M21.312,32 L21.312,-0.016 L14.736,-0.016 L14.736,32 L21.312,32 Z M32.56,32 L32.56,-0.016 L25.984,-0.016 L25.984,32 L32.56,32 Z" id="Combined-Shape"></path>
                </g>
            </g>
        </g>
        <g id="Group-2" transform="translate(128.000000, 30.000000)">
            <rect id="Rectangle-Copy" fill="#58C322" x="0" y="0" width="120" height="80" rx="10"></rect>
            <g id="Group" transform="translate(42.000000, 24.000000)" fill="#FFFFFF" fill-rule="nonzero">
                <g id="CS-A">
                    <path d="M21.312,32 L21.312,-0.016 L14.736,-0.016 L14.736,32 L21.312,32 Z" id="Combined-Shape"></path>
                </g>
            </g>
        </g>
        <g id="Group" transform="translate(128.000000, 170.000000)">
            <rect id="Rectangle-Copy" fill="#FFBF00" x="0" y="0" width="120" height="80" rx="10"></rect>
            <g transform="translate(42.000000, 24.000000)" fill="#FFFFFF" fill-rule="nonzero" id="CS-A">
                <g>
                    <path d="M8.824,32 L8.824,-0.016 L2.248,-0.016 L2.248,32 L8.824,32 Z M26.936,32 L37.016,-0.016 L30.248,-0.016 L23.48,21.44 L17,-0.016 L10.232,-0.016 L19.928,32 L26.936,32 Z" id="Combined-Shape"></path>
                </g>
            </g>
        </g>
        <g id="Group-2" transform="translate(368.000000, 170.000000)">
            <rect id="Rectangle-Copy" fill="#58C322" x="0" y="0" width="120" height="80" rx="10"></rect>
            <g id="Group" transform="translate(42.000000, 24.000000)" fill="#FFFFFF" fill-rule="nonzero">
                <g id="CS-A">
                    <path d="M21.312,32 L21.312,-0.016 L14.736,-0.016 L14.736,32 L21.312,32 Z" id="Combined-Shape"></path>
                </g>
            </g>
        </g>
        <path id="Path-26" d="M588.143072,213.223844 L598.492075,206.665233 L601.767643,238.922335 L573.99662,222.188529 L583.892453,215.916867 C562.99345,190.060839 534.84268,177.282421 496.299116,178.457085 L495.094405,178.498217 L492.596188,178.592622 L492.407378,173.596188 L494.905595,173.501783 C535.866616,171.953915 566.000909,185.569973 588.143072,213.223844 Z" fill="#000000" fill-rule="nonzero"></path>
        <g id="Group" transform="translate(516.511641, 203.125934)" fill="#0C0C0C" fill-rule="nonzero">
            <g id="Nexus">
                <path d="M38.216,16.48 L31,29.04 L23.8,16.48 L38.216,16.48 Z M19.3597224,2.14893407 L19.3597224,6.67293407 L10.6627224,6.67293407 L10.6627224,12.2499341 C11.8717224,11.7429341 12.7297224,11.5479341 13.8607224,11.5479341 C18.1897224,11.5479341 21.4267224,15.0579341 21.4267224,19.6989341 C21.4267224,24.8469341 17.8387224,28.5129341 12.8857224,28.5129341 C10.5457224,28.5129341 8.43972235,27.6939341 6.87972235,26.1729341 C5.94372235,25.1979341 5.43672235,24.4179341 4.73472235,22.5849341 L4.73472235,22.5849341 L9.10272235,20.9469341 C9.84372235,22.8969341 10.9747224,23.7939341 12.7297224,23.7939341 C14.8747224,23.7939341 16.5517224,22.0779341 16.5517224,19.8159341 C16.5517224,17.5539341 14.8747224,15.7989341 12.6907224,15.7989341 C11.3257224,15.7989341 10.3117224,16.3059341 9.37572235,17.5539341 L9.37572235,17.5539341 L6.09972235,17.5539341 L6.09972235,2.14893407 L19.3597224,2.14893407 Z" id="Combined-Shape"></path>
            </g>
        </g>
        <path id="Path-26" d="M827.225268,218.912605 L844.5,239.445107 L817.709159,240.945391 L821.609728,231.916282 C802.605107,225.47817 783.060077,223.538157 740.724493,223.500602 L738.001936,223.500752 L736.001936,223.502688 L735.998065,219.50269 L737.998064,219.500754 L740.746237,219.500626 C783.705706,219.539509 803.59461,221.537881 823.200828,228.232294 L827.225268,218.912605 Z" transform="translate(791.250000, 230.472553) scale(1, -1) translate(-791.250000, -230.472553) " fill="#999999" fill-rule="nonzero"></path>
        <g id="Group" transform="translate(760.511641, 191.125934)" fill="#999999" fill-rule="nonzero">
            <g id="Nexus">
                <path d="M20.2567224,28.0059341 L20.2567224,23.5989341 L12.8857224,23.5989341 L17.7607224,16.4619341 C20.0617224,13.0689341 20.9587224,10.8849341 20.9587224,8.50593407 C20.9587224,4.48893407 17.7217224,1.60293407 13.1587224,1.60293407 C8.01072235,1.60293407 4.89072235,4.95693407 4.92972235,10.4559341 L9.53172235,10.4559341 C9.57072235,9.12993407 9.64872235,8.66193407 9.92172235,7.95993407 C10.3507224,6.82893407 11.4427224,6.12693407 12.8467224,6.12693407 C14.6407224,6.12693407 15.9277224,7.33593407 15.9277224,9.01293407 C15.9277224,10.2609341 15.5377224,11.0799341 13.5487224,14.1219341 L4.46172235,28.0059341 L20.2567224,28.0059341 Z M30.7104906,3.56 L37.9264906,16.12 L23.5104906,16.12 L30.7104906,3.56 Z" id="Combined-Shape"></path>
            </g>
        </g>
        <path id="Path-26" d="M107.725268,218.912605 L125,239.445107 L98.2091593,240.945391 L102.109728,231.916282 C83.105107,225.47817 63.5600766,223.538157 21.2244934,223.500602 L18.5019355,223.500752 L16.5019365,223.502688 L16.4980654,219.50269 L18.4980645,219.500754 L21.2462367,219.500626 C64.2057063,219.539509 84.0946104,221.537881 103.700828,228.232294 L107.725268,218.912605 Z" transform="translate(71.750000, 230.472553) scale(1, -1) translate(-71.750000, -230.472553) " fill="#999999" fill-rule="nonzero"></path>
        <g id="Group" transform="translate(41.011641, 191.125934)" fill="#999999" fill-rule="nonzero">
            <g id="Nexus">
                <path d="M20.2567224,28.0059341 L20.2567224,23.5989341 L12.8857224,23.5989341 L17.7607224,16.4619341 C20.0617224,13.0689341 20.9587224,10.8849341 20.9587224,8.50593407 C20.9587224,4.48893407 17.7217224,1.60293407 13.1587224,1.60293407 C8.01072235,1.60293407 4.89072235,4.95693407 4.92972235,10.4559341 L9.53172235,10.4559341 C9.57072235,9.12993407 9.64872235,8.66193407 9.92172235,7.95993407 C10.3507224,6.82893407 11.4427224,6.12693407 12.8467224,6.12693407 C14.6407224,6.12693407 15.9277224,7.33593407 15.9277224,9.01293407 C15.9277224,10.2609341 15.5377224,11.0799341 13.5487224,14.1219341 L4.46172235,28.0059341 L20.2567224,28.0059341 Z M30.7104906,3.56 L37.9264906,16.12 L23.5104906,16.12 L30.7104906,3.56 Z" id="Combined-Shape"></path>
            </g>
        </g>
        <path id="Path-26" d="M587.225268,78.5934319 L604.5,99.1259341 L577.709159,100.626218 L581.609432,91.5970092 C562.403523,85.0907565 542.645578,83.1783752 499.370971,83.1808728 L498.001936,83.1815798 L496.001936,83.1835154 L495.998065,79.1835172 L497.998064,79.1815817 C542.866871,79.1381591 563.181192,81.0775624 583.20075,87.9130948 L587.225268,78.5934319 Z" transform="translate(551.250000, 90.153381) scale(1, -1) translate(-551.250000, -90.153381) " fill="#999999" fill-rule="nonzero"></path>
        <g id="Group" transform="translate(520.511641, 40.806761)" fill="#999999" fill-rule="nonzero">
            <g id="Nexus">
                <path d="M20.2567224,28.0059341 L20.2567224,23.5989341 L12.8857224,23.5989341 L17.7607224,16.4619341 C20.0617224,13.0689341 20.9587224,10.8849341 20.9587224,8.50593407 C20.9587224,4.48893407 17.7217224,1.60293407 13.1587224,1.60293407 C8.01072235,1.60293407 4.89072235,4.95693407 4.92972235,10.4559341 L9.53172235,10.4559341 C9.57072235,9.12993407 9.64872235,8.66193407 9.92172235,7.95993407 C10.3507224,6.82893407 11.4427224,6.12693407 12.8467224,6.12693407 C14.6407224,6.12693407 15.9277224,7.33593407 15.9277224,9.01293407 C15.9277224,10.2609341 15.5377224,11.0799341 13.5487224,14.1219341 L4.46172235,28.0059341 L20.2567224,28.0059341 Z M30.7104906,3.56 L37.9264906,16.12 L23.5104906,16.12 L30.7104906,3.56 Z" id="Combined-Shape"></path>
            </g>
        </g>
        <path id="Path-26" d="M349.143072,214.223844 L359.492075,207.665233 L362.767643,239.922335 L334.99662,223.188529 L344.892453,216.916867 C323.99345,191.060839 295.84268,178.282421 257.299116,179.457085 L256.094405,179.498217 L253.596188,179.592622 L253.407378,174.596188 L255.905595,174.501783 C296.866616,172.953915 327.000909,186.569973 349.143072,214.223844 Z" transform="translate(309.250000, 208.191927) scale(1, -1) translate(-309.250000, -208.191927) " fill="#000000" fill-rule="nonzero"></path>
        <g id="Group" transform="translate(277.511641, 181.125934)" fill="#0C0C0C" fill-rule="nonzero">
            <g id="Nexus">
                <path d="M12.8857224,28.5129341 C17.8387224,28.5129341 21.4267224,24.8469341 21.4267224,19.6989341 C21.4267224,15.0579341 18.1897224,11.5479341 13.8607224,11.5479341 C12.7297224,11.5479341 11.8717224,11.7429341 10.6627224,12.2499341 L10.6627224,6.67293407 L19.3597224,6.67293407 L19.3597224,2.14893407 L6.09972235,2.14893407 L6.09972235,17.5539341 L9.37572235,17.5539341 C10.3117224,16.3059341 11.3257224,15.7989341 12.6907224,15.7989341 C14.8747224,15.7989341 16.5517224,17.5539341 16.5517224,19.8159341 C16.5517224,22.0779341 14.8747224,23.7939341 12.7297224,23.7939341 C10.9747224,23.7939341 9.84372235,22.8969341 9.10272235,20.9469341 L4.73472235,22.5849341 C5.43672235,24.4179341 5.94372235,25.1979341 6.87972235,26.1729341 C8.43972235,27.6939341 10.5457224,28.5129341 12.8857224,28.5129341 Z M30.7104906,3.56 L37.9264906,16.12 L23.5104906,16.12 L30.7104906,3.56 Z" id="Combined-Shape"></path>
            </g>
        </g>
        <path id="Path-26" d="M350.643072,74.2238439 L360.992075,67.6652331 L364.267643,99.9223354 L336.49662,83.1885288 L346.392453,76.9168665 C325.49345,51.0608386 297.34268,38.2824215 258.799116,39.4570852 L257.594405,39.4982169 L255.096188,39.5926216 L254.907378,34.5961877 L257.405595,34.5017831 C298.366616,32.953915 328.500909,46.5699726 350.643072,74.2238439 Z" transform="translate(310.750000, 68.191927) scale(1, -1) translate(-310.750000, -68.191927) " fill="#000000" fill-rule="nonzero"></path>
        <g id="Group" transform="translate(279.011641, 41.125934)" fill="#0C0C0C" fill-rule="nonzero">
            <g id="Nexus">
                <path d="M12.8857224,28.5129341 C17.8387224,28.5129341 21.4267224,24.8469341 21.4267224,19.6989341 C21.4267224,15.0579341 18.1897224,11.5479341 13.8607224,11.5479341 C12.7297224,11.5479341 11.8717224,11.7429341 10.6627224,12.2499341 L10.6627224,6.67293407 L19.3597224,6.67293407 L19.3597224,2.14893407 L6.09972235,2.14893407 L6.09972235,17.5539341 L9.37572235,17.5539341 C10.3117224,16.3059341 11.3257224,15.7989341 12.6907224,15.7989341 C14.8747224,15.7989341 16.5517224,17.5539341 16.5517224,19.8159341 C16.5517224,22.0779341 14.8747224,23.7939341 12.7297224,23.7939341 C10.9747224,23.7939341 9.84372235,22.8969341 9.10272235,20.9469341 L4.73472235,22.5849341 C5.43672235,24.4179341 5.94372235,25.1979341 6.87972235,26.1729341 C8.43972235,27.6939341 10.5457224,28.5129341 12.8857224,28.5129341 Z M30.7104906,3.56 L37.9264906,16.12 L23.5104906,16.12 L30.7104906,3.56 Z" id="Combined-Shape"></path>
            </g>
        </g>
        <path id="Path-26" d="M831.143072,74.2238439 L841.492075,67.6652331 L844.767643,99.9223354 L816.99662,83.1885288 L826.892453,76.9168665 C805.99345,51.0608386 777.84268,38.2824215 739.299116,39.4570852 L738.094405,39.4982169 L735.596188,39.5926216 L735.407378,34.5961877 L737.905595,34.5017831 C778.866616,32.953915 809.000909,46.5699726 831.143072,74.2238439 Z" transform="translate(791.250000, 68.191927) scale(1, -1) translate(-791.250000, -68.191927) " fill="#000000" fill-rule="nonzero"></path>
        <g id="Group" transform="translate(759.511641, 41.125934)" fill="#0C0C0C" fill-rule="nonzero">
            <g id="Nexus">
                <path d="M12.8857224,28.5129341 C17.8387224,28.5129341 21.4267224,24.8469341 21.4267224,19.6989341 C21.4267224,15.0579341 18.1897224,11.5479341 13.8607224,11.5479341 C12.7297224,11.5479341 11.8717224,11.7429341 10.6627224,12.2499341 L10.6627224,6.67293407 L19.3597224,6.67293407 L19.3597224,2.14893407 L6.09972235,2.14893407 L6.09972235,17.5539341 L9.37572235,17.5539341 C10.3117224,16.3059341 11.3257224,15.7989341 12.6907224,15.7989341 C14.8747224,15.7989341 16.5517224,17.5539341 16.5517224,19.8159341 C16.5517224,22.0779341 14.8747224,23.7939341 12.7297224,23.7939341 C10.9747224,23.7939341 9.84372235,22.8969341 9.10272235,20.9469341 L4.73472235,22.5849341 C5.43672235,24.4179341 5.94372235,25.1979341 6.87972235,26.1729341 C8.43972235,27.6939341 10.5457224,28.5129341 12.8857224,28.5129341 Z M30.7104906,3.56 L37.9264906,16.12 L23.5104906,16.12 L30.7104906,3.56 Z" id="Combined-Shape"></path>
            </g>
        </g>
    </g>
</svg>