<?xml version="1.0" encoding="UTF-8"?>
<svg width="420px" height="180px" viewBox="0 0 420 180" version="1.1" xmlns="http://www.w3.org/2000/svg" xmlns:xlink="http://www.w3.org/1999/xlink">
    <title>nex-31</title>
    <g id="nex-31" stroke="none" stroke-width="1" fill="none" fill-rule="evenodd">
        <g id="Group-2" transform="translate(274.000000, 50.000000)">
            <rect id="Rectangle-Copy" fill="#58C322" x="0" y="0" width="120" height="80" rx="10"></rect>
            <g id="Group" transform="translate(42.000000, 24.000000)" fill="#FFFFFF" fill-rule="nonzero">
                <g id="CS-A">
                    <path d="M21.312,32 L21.312,-0.016 L14.736,-0.016 L14.736,32 L21.312,32 Z" id="Combined-Shape"></path>
                </g>
            </g>
        </g>
        <path id="Path-26" d="M265.483241,77.2174198 L269.274364,109.418 L241.239226,93.1305507 L265.483241,77.2174198 Z M236.325282,71.9978472 L238.568201,73.1020742 C241.430279,74.5111244 244.134338,76.049205 246.679798,77.7165176 L247.522411,78.2770751 L249.593904,79.6766879 L246.794678,83.8196743 L244.723185,82.4200616 C242.414207,80.8599915 239.955146,79.4139123 237.345446,78.0820183 L236.359747,77.5879109 L234.116828,76.4836839 L236.325282,71.9978472 Z M211.851405,64.463897 L214.297491,64.980291 C217.306684,65.6155628 220.208428,66.3380469 223.002694,67.1479417 L224.193656,67.5003918 L226.586833,68.223373 L225.140871,73.0097278 L222.747693,72.2867466 C220.105283,71.4884718 217.354854,70.7724666 214.496379,70.1389294 L213.264703,69.8724632 L210.818617,69.3560692 L211.851405,64.463897 Z M186.627991,61.6814625 L189.124402,61.8153704 C192.098373,61.9748948 194.996947,62.1949679 197.82016,62.4756581 L199.225486,62.6210549 L201.711155,62.8883557 L201.176553,67.8596936 L198.690884,67.5923929 C195.969968,67.2997945 193.172853,67.0659192 190.299573,66.8908351 L188.856586,66.8081927 L186.360175,66.6742848 L186.627991,61.6814625 Z M176.468342,61.488389 L176.527093,66.4880438 L174.027265,66.5174193 C171.34129,66.5489821 168.600085,66.6234404 165.803675,66.740816 L164.119204,66.8163917 L161.622048,66.9355959 L161.383639,61.941283 L163.880796,61.8220787 C166.748571,61.6851827 169.561645,61.5919147 172.320039,61.5422969 L173.968514,61.5177644 L176.468342,61.488389 Z" fill="#FF5500" fill-rule="nonzero"></path>
        <g id="Nexus" transform="translate(186.011641, 83.125934)" fill="#FF5500">
            <path d="M38.216,16.48 L31,29.04 L23.8,16.48 L38.216,16.48 Z M21.4657224,2.14893407 L14.2507224,11.8599341 C18.4627224,12.2109341 21.1927224,15.2919341 21.1927224,19.6989341 C21.1927224,24.7689341 17.5267224,28.5129341 12.5347224,28.5129341 C9.64872235,28.5129341 7.11372235,27.2649341 5.67072235,25.0809341 C4.89072235,23.9109341 4.57872235,22.8969341 4.34472235,20.9469341 L4.34472235,20.9469341 L8.82972235,20.7909341 C9.14172235,22.8189341 10.5067224,24.0279341 12.4177224,24.0279341 C14.6407224,24.0279341 16.3957224,22.3119341 16.3957224,20.0499341 C16.3957224,17.7489341 14.7187224,16.0719341 12.3787224,16.0719341 C11.4817224,16.0719341 10.7407224,16.2669341 9.99972235,16.7349341 L9.99972235,16.7349341 L7.19172235,14.3559341 L13.1197224,6.43893407 L5.63172235,6.43893407 L5.63172235,2.14893407 L21.4657224,2.14893407 Z" id="Combined-Shape"></path>
        </g>
        <g id="Group-6" transform="translate(32.000000, 50.000000)">
            <rect id="Rectangle-Copy" fill="#FF5500" x="0" y="0" width="120" height="80" rx="10"></rect>
            <g id="Group" transform="translate(61.000000, 23.000000)" fill="#FFFFFF" fill-rule="nonzero">
                <g id="CS-minor">
                    <path d="M8.935725,35 L8.935725,22.9 C8.935725,20.084 10.035725,18.632 12.147725,18.632 C14.171725,18.632 15.227725,20.084 15.227725,22.9 L15.227725,35 L20.815725,35 L20.815725,22.724 C20.815725,20.128 22.003725,18.632 24.071725,18.632 C26.183725,18.632 27.195725,19.952 27.195725,22.724 L27.195725,35 L32.783725,35 L32.783725,21.668 C32.783725,18.588 32.387725,17.18 31.155725,15.816 C30.011725,14.584 28.295725,13.924 26.227725,13.924 C23.323725,13.924 21.431725,14.98 20.067725,17.312 C19.099725,15.112 17.163725,13.924 14.523725,13.924 C11.927725,13.924 10.211725,14.936 8.935725,17.18 L8.935725,14.628 L3.347725,14.628 L3.347725,35 L8.935725,35 Z" id="Combined-Shape"></path>
                </g>
            </g>
            <g id="Group" transform="translate(28.000000, 26.000000)" fill="#FFFFFF" fill-rule="nonzero">
                <g id="CS-A">
                    <path d="M10.064,32 L10.064,-0.016 L3.488,-0.016 L3.488,32 L10.064,32 Z M21.312,32 L21.312,-0.016 L14.736,-0.016 L14.736,32 L21.312,32 Z M32.56,32 L32.56,-0.016 L25.984,-0.016 L25.984,32 L32.56,32 Z" id="Combined-Shape"></path>
                </g>
            </g>
        </g>
    </g>
</svg>