<?xml version="1.0" encoding="UTF-8"?>
<svg width="840px" height="330px" viewBox="0 0 840 330" version="1.1" xmlns="http://www.w3.org/2000/svg" xmlns:xlink="http://www.w3.org/1999/xlink">
    <title>nex-rootmotion-5th-leader-and-otomo</title>
    <g id="nex-rootmotion-5th-leader-and-otomo" stroke="none" stroke-width="1" fill="none" fill-rule="evenodd">
        <g id="Group-7" transform="translate(40.000000, 30.251868)">
            <g id="Group-2" transform="translate(112.000000, 0.000000)">
                <rect id="Rectangle-Copy" fill="#58C322" x="0" y="0" width="120" height="80" rx="10"></rect>
                <g id="Group" transform="translate(42.000000, 24.000000)" fill="#FFFFFF" fill-rule="nonzero">
                    <g id="CS-A">
                        <path d="M21.312,32 L21.312,-0.016 L14.736,-0.016 L14.736,32 L21.312,32 Z" id="Combined-Shape"></path>
                    </g>
                </g>
            </g>
            <path id="Line-8" d="M135.781483,94.8348915 L132.936712,115.886193 L126.324,111.382 L100.154,149.802 L106.766421,154.306408 L88.2185175,164.661372 L91.0632879,143.610071 L97.674,148.113 L123.845,109.693 L117.233579,105.189856 L135.781483,94.8348915 Z" fill="#000000" fill-rule="nonzero"></path>
            <path id="Line-8" d="M250.781483,94.8348915 L247.936712,115.886193 L241.324,111.382 L215.154,149.802 L221.766421,154.306408 L203.218517,164.661372 L206.063288,143.610071 L212.674,148.113 L238.845,109.693 L232.233579,105.189856 L250.781483,94.8348915 Z" transform="translate(227.000000, 130.000000) scale(-1, 1) translate(-227.000000, -130.000000) " fill="#000000" fill-rule="nonzero"></path>
            <g id="Group" transform="translate(73.511641, 93.874066)" fill="#0C0C0C" fill-rule="nonzero">
                <g id="Nexus">
                    <path d="M12.8857224,28.5129341 C17.8387224,28.5129341 21.4267224,24.8469341 21.4267224,19.6989341 C21.4267224,15.0579341 18.1897224,11.5479341 13.8607224,11.5479341 C12.7297224,11.5479341 11.8717224,11.7429341 10.6627224,12.2499341 L10.6627224,6.67293407 L19.3597224,6.67293407 L19.3597224,2.14893407 L6.09972235,2.14893407 L6.09972235,17.5539341 L9.37572235,17.5539341 C10.3117224,16.3059341 11.3257224,15.7989341 12.6907224,15.7989341 C14.8747224,15.7989341 16.5517224,17.5539341 16.5517224,19.8159341 C16.5517224,22.0779341 14.8747224,23.7939341 12.7297224,23.7939341 C10.9747224,23.7939341 9.84372235,22.8969341 9.10272235,20.9469341 L4.73472235,22.5849341 C5.43672235,24.4179341 5.94372235,25.1979341 6.87972235,26.1729341 C8.43972235,27.6939341 10.5457224,28.5129341 12.8857224,28.5129341 Z M29.9690672,13.8879341 C33.2450672,13.8879341 35.9360672,11.1969341 35.9360672,7.95993407 C35.9360672,4.56693407 33.2840672,1.87593407 29.9690672,1.87593407 C26.6150672,1.87593407 23.9240672,4.56693407 23.9240672,7.88193407 C23.9240672,11.1969341 26.6150672,13.8879341 29.9690672,13.8879341 Z M29.9300672,11.7819341 C27.8240672,11.7819341 26.1080672,10.0269341 26.1080672,7.88193407 C26.1080672,5.77593407 27.8240672,3.98193407 29.8910672,3.98193407 C32.0360672,3.98193407 33.7520672,5.73693407 33.7520672,7.95993407 C33.7520672,10.0269341 31.9970672,11.7819341 29.9300672,11.7819341 Z" id="Combined-Shape"></path>
                </g>
            </g>
            <g id="Group" transform="translate(232.511641, 93.874066)" fill="#0C0C0C" fill-rule="nonzero">
                <g id="Nexus">
                    <path d="M12.8857224,28.5129341 C17.8387224,28.5129341 21.4267224,24.8469341 21.4267224,19.6989341 C21.4267224,15.0579341 18.1897224,11.5479341 13.8607224,11.5479341 C12.7297224,11.5479341 11.8717224,11.7429341 10.6627224,12.2499341 L10.6627224,6.67293407 L19.3597224,6.67293407 L19.3597224,2.14893407 L6.09972235,2.14893407 L6.09972235,17.5539341 L9.37572235,17.5539341 C10.3117224,16.3059341 11.3257224,15.7989341 12.6907224,15.7989341 C14.8747224,15.7989341 16.5517224,17.5539341 16.5517224,19.8159341 C16.5517224,22.0779341 14.8747224,23.7939341 12.7297224,23.7939341 C10.9747224,23.7939341 9.84372235,22.8969341 9.10272235,20.9469341 L4.73472235,22.5849341 C5.43672235,24.4179341 5.94372235,25.1979341 6.87972235,26.1729341 C8.43972235,27.6939341 10.5457224,28.5129341 12.8857224,28.5129341 Z M29.9690672,13.8879341 C33.2450672,13.8879341 35.9360672,11.1969341 35.9360672,7.95993407 C35.9360672,4.56693407 33.2840672,1.87593407 29.9690672,1.87593407 C26.6150672,1.87593407 23.9240672,4.56693407 23.9240672,7.88193407 C23.9240672,11.1969341 26.6150672,13.8879341 29.9690672,13.8879341 Z M29.9300672,11.7819341 C27.8240672,11.7819341 26.1080672,10.0269341 26.1080672,7.88193407 C26.1080672,5.77593407 27.8240672,3.98193407 29.8910672,3.98193407 C32.0360672,3.98193407 33.7520672,5.73693407 33.7520672,7.95993407 C33.7520672,10.0269341 31.9970672,11.7819341 29.9300672,11.7819341 Z" id="Combined-Shape"></path>
                </g>
            </g>
            <g id="Group-3" transform="translate(220.000000, 182.000000)">
                <rect id="Rectangle-Copy" fill="#FF5500" x="0" y="0" width="120" height="80" rx="10"></rect>
                <g id="Group" transform="translate(42.000000, 26.000000)" fill="#FFFFFF" fill-rule="nonzero">
                    <g id="CS-A">
                        <path d="M21.312,32 L31.392,-0.016 L24.624,-0.016 L17.856,21.44 L11.376,-0.016 L4.608,-0.016 L14.304,32 L21.312,32 Z" id="Combined-Shape"></path>
                    </g>
                </g>
            </g>
            <g id="Group" transform="translate(0.000000, 182.000000)">
                <rect id="Rectangle-Copy" fill="#FFBF00" x="0" y="0" width="120" height="80" rx="10"></rect>
                <g transform="translate(42.000000, 24.000000)" fill="#FFFFFF" fill-rule="nonzero" id="CS-A">
                    <g>
                        <path d="M8.824,32 L8.824,-0.016 L2.248,-0.016 L2.248,32 L8.824,32 Z M26.936,32 L37.016,-0.016 L30.248,-0.016 L23.48,21.44 L17,-0.016 L10.232,-0.016 L19.928,32 L26.936,32 Z" id="Combined-Shape"></path>
                    </g>
                </g>
            </g>
        </g>
        <g id="Group-5" transform="translate(569.000000, 30.251868)">
            <rect id="Rectangle-Copy" fill="#58C322" x="0" y="0" width="120" height="80" rx="10"></rect>
            <g id="Group" transform="translate(26.000000, 24.000000)" fill="#FFFFFF" fill-rule="nonzero">
                <g id="CS-A">
                    <path d="M15.688,32 L25.768,-0.016 L19,-0.016 L12.232,21.44 L5.752,-0.016 L-1.016,-0.016 L8.68,32 L15.688,32 Z M33.8,32 L33.8,-0.016 L27.224,-0.016 L27.224,32 L33.8,32 Z" id="Combined-Shape"></path>
                </g>
            </g>
            <g id="Group" transform="translate(64.000000, 20.000000)" fill="#FFFFFF" fill-rule="nonzero">
                <g id="CS-minor">
                    <path d="M8.935725,35 L8.935725,22.9 C8.935725,20.084 10.035725,18.632 12.147725,18.632 C14.171725,18.632 15.227725,20.084 15.227725,22.9 L15.227725,35 L20.815725,35 L20.815725,22.724 C20.815725,20.128 22.003725,18.632 24.071725,18.632 C26.183725,18.632 27.195725,19.952 27.195725,22.724 L27.195725,35 L32.783725,35 L32.783725,21.668 C32.783725,18.588 32.387725,17.18 31.155725,15.816 C30.011725,14.584 28.295725,13.924 26.227725,13.924 C23.323725,13.924 21.431725,14.98 20.067725,17.312 C19.099725,15.112 17.163725,13.924 14.523725,13.924 C11.927725,13.924 10.211725,14.936 8.935725,17.18 L8.935725,14.628 L3.347725,14.628 L3.347725,35 L8.935725,35 Z" id="Combined-Shape"></path>
                </g>
            </g>
        </g>
        <path id="Line-8" d="M595.781483,125.08676 L592.936712,146.138061 L586.324,141.634 L560.154,180.054 L566.766421,184.558276 L548.218517,194.91324 L551.063288,173.861939 L557.675,178.365 L583.845,139.945 L577.233579,135.441724 L595.781483,125.08676 Z" fill="#000000" fill-rule="nonzero"></path>
        <path id="Line-8" d="M710.781483,125.08676 L707.936712,146.138061 L701.324,141.634 L675.154,180.054 L681.766421,184.558276 L663.218517,194.91324 L666.063288,173.861939 L672.675,178.365 L698.845,139.945 L692.233579,135.441724 L710.781483,125.08676 Z" transform="translate(687.000000, 160.251868) scale(-1, 1) translate(-687.000000, -160.251868) " fill="#000000" fill-rule="nonzero"></path>
        <g id="Group" transform="translate(533.511641, 124.125934)" fill="#0C0C0C" fill-rule="nonzero">
            <g id="Nexus">
                <path d="M12.8857224,28.5129341 C17.8387224,28.5129341 21.4267224,24.8469341 21.4267224,19.6989341 C21.4267224,15.0579341 18.1897224,11.5479341 13.8607224,11.5479341 C12.7297224,11.5479341 11.8717224,11.7429341 10.6627224,12.2499341 L10.6627224,6.67293407 L19.3597224,6.67293407 L19.3597224,2.14893407 L6.09972235,2.14893407 L6.09972235,17.5539341 L9.37572235,17.5539341 C10.3117224,16.3059341 11.3257224,15.7989341 12.6907224,15.7989341 C14.8747224,15.7989341 16.5517224,17.5539341 16.5517224,19.8159341 C16.5517224,22.0779341 14.8747224,23.7939341 12.7297224,23.7939341 C10.9747224,23.7939341 9.84372235,22.8969341 9.10272235,20.9469341 L4.73472235,22.5849341 C5.43672235,24.4179341 5.94372235,25.1979341 6.87972235,26.1729341 C8.43972235,27.6939341 10.5457224,28.5129341 12.8857224,28.5129341 Z M29.9690672,13.8879341 C33.2450672,13.8879341 35.9360672,11.1969341 35.9360672,7.95993407 C35.9360672,4.56693407 33.2840672,1.87593407 29.9690672,1.87593407 C26.6150672,1.87593407 23.9240672,4.56693407 23.9240672,7.88193407 C23.9240672,11.1969341 26.6150672,13.8879341 29.9690672,13.8879341 Z M29.9300672,11.7819341 C27.8240672,11.7819341 26.1080672,10.0269341 26.1080672,7.88193407 C26.1080672,5.77593407 27.8240672,3.98193407 29.8910672,3.98193407 C32.0360672,3.98193407 33.7520672,5.73693407 33.7520672,7.95993407 C33.7520672,10.0269341 31.9970672,11.7819341 29.9300672,11.7819341 Z" id="Combined-Shape"></path>
            </g>
        </g>
        <g id="Group" transform="translate(692.511641, 124.125934)" fill="#0C0C0C" fill-rule="nonzero">
            <g id="Nexus">
                <path d="M12.8857224,28.5129341 C17.8387224,28.5129341 21.4267224,24.8469341 21.4267224,19.6989341 C21.4267224,15.0579341 18.1897224,11.5479341 13.8607224,11.5479341 C12.7297224,11.5479341 11.8717224,11.7429341 10.6627224,12.2499341 L10.6627224,6.67293407 L19.3597224,6.67293407 L19.3597224,2.14893407 L6.09972235,2.14893407 L6.09972235,17.5539341 L9.37572235,17.5539341 C10.3117224,16.3059341 11.3257224,15.7989341 12.6907224,15.7989341 C14.8747224,15.7989341 16.5517224,17.5539341 16.5517224,19.8159341 C16.5517224,22.0779341 14.8747224,23.7939341 12.7297224,23.7939341 C10.9747224,23.7939341 9.84372235,22.8969341 9.10272235,20.9469341 L4.73472235,22.5849341 C5.43672235,24.4179341 5.94372235,25.1979341 6.87972235,26.1729341 C8.43972235,27.6939341 10.5457224,28.5129341 12.8857224,28.5129341 Z M29.9690672,13.8879341 C33.2450672,13.8879341 35.9360672,11.1969341 35.9360672,7.95993407 C35.9360672,4.56693407 33.2840672,1.87593407 29.9690672,1.87593407 C26.6150672,1.87593407 23.9240672,4.56693407 23.9240672,7.88193407 C23.9240672,11.1969341 26.6150672,13.8879341 29.9690672,13.8879341 Z M29.9300672,11.7819341 C27.8240672,11.7819341 26.1080672,10.0269341 26.1080672,7.88193407 C26.1080672,5.77593407 27.8240672,3.98193407 29.8910672,3.98193407 C32.0360672,3.98193407 33.7520672,5.73693407 33.7520672,7.95993407 C33.7520672,10.0269341 31.9970672,11.7819341 29.9300672,11.7819341 Z" id="Combined-Shape"></path>
            </g>
        </g>
        <g id="Group-4" transform="translate(462.000000, 211.251868)">
            <rect id="Rectangle-Copy" fill="#FFBF00" x="0" y="0" width="120" height="80" rx="10"></rect>
            <g id="Group" transform="translate(23.000000, 24.000000)" fill="#FFFFFF" fill-rule="nonzero">
                <g id="CS-A">
                    <path d="M15.688,32 L15.688,-0.016 L9.112,-0.016 L9.112,32 L15.688,32 Z M26.936,32 L26.936,-0.016 L20.36,-0.016 L20.36,32 L26.936,32 Z" id="Combined-Shape"></path>
                </g>
            </g>
            <g id="Group" transform="translate(54.000000, 21.000000)" fill="#FFFFFF" fill-rule="nonzero">
                <g id="CS-minor">
                    <path d="M8.935725,35 L8.935725,22.9 C8.935725,20.084 10.035725,18.632 12.147725,18.632 C14.171725,18.632 15.227725,20.084 15.227725,22.9 L15.227725,35 L20.815725,35 L20.815725,22.724 C20.815725,20.128 22.003725,18.632 24.071725,18.632 C26.183725,18.632 27.195725,19.952 27.195725,22.724 L27.195725,35 L32.783725,35 L32.783725,21.668 C32.783725,18.588 32.387725,17.18 31.155725,15.816 C30.011725,14.584 28.295725,13.924 26.227725,13.924 C23.323725,13.924 21.431725,14.98 20.067725,17.312 C19.099725,15.112 17.163725,13.924 14.523725,13.924 C11.927725,13.924 10.211725,14.936 8.935725,17.18 L8.935725,14.628 L3.347725,14.628 L3.347725,35 L8.935725,35 Z" id="Combined-Shape"></path>
                </g>
            </g>
        </g>
        <g id="Group-6" transform="translate(682.000000, 211.251868)">
            <rect id="Rectangle-Copy" fill="#FF5500" x="0" y="0" width="120" height="80" rx="10"></rect>
            <g id="Group" transform="translate(61.000000, 23.000000)" fill="#FFFFFF" fill-rule="nonzero">
                <g id="CS-minor">
                    <path d="M8.935725,35 L8.935725,22.9 C8.935725,20.084 10.035725,18.632 12.147725,18.632 C14.171725,18.632 15.227725,20.084 15.227725,22.9 L15.227725,35 L20.815725,35 L20.815725,22.724 C20.815725,20.128 22.003725,18.632 24.071725,18.632 C26.183725,18.632 27.195725,19.952 27.195725,22.724 L27.195725,35 L32.783725,35 L32.783725,21.668 C32.783725,18.588 32.387725,17.18 31.155725,15.816 C30.011725,14.584 28.295725,13.924 26.227725,13.924 C23.323725,13.924 21.431725,14.98 20.067725,17.312 C19.099725,15.112 17.163725,13.924 14.523725,13.924 C11.927725,13.924 10.211725,14.936 8.935725,17.18 L8.935725,14.628 L3.347725,14.628 L3.347725,35 L8.935725,35 Z" id="Combined-Shape"></path>
                </g>
            </g>
            <g id="Group" transform="translate(28.000000, 26.000000)" fill="#FFFFFF" fill-rule="nonzero">
                <g id="CS-A">
                    <path d="M10.064,32 L10.064,-0.016 L3.488,-0.016 L3.488,32 L10.064,32 Z M21.312,32 L21.312,-0.016 L14.736,-0.016 L14.736,32 L21.312,32 Z M32.56,32 L32.56,-0.016 L25.984,-0.016 L25.984,32 L32.56,32 Z" id="Combined-Shape"></path>
                </g>
            </g>
        </g>
    </g>
</svg>