<?xml version="1.0" encoding="UTF-8"?>
<svg width="890px" height="180px" viewBox="0 0 890 180" version="1.1" xmlns="http://www.w3.org/2000/svg" xmlns:xlink="http://www.w3.org/1999/xlink">
    <title>nex-6451</title>
    <g id="nex-6451" stroke="none" stroke-width="1" fill="none" fill-rule="evenodd">
        <g id="Group-5" transform="translate(21.000000, 50.000000)">
            <rect id="Rectangle-Copy" fill="#58C322" x="0" y="0" width="120" height="80" rx="10"></rect>
            <g id="Group" transform="translate(26.000000, 24.000000)" fill="#FFFFFF" fill-rule="nonzero">
                <g id="CS-A">
                    <path d="M15.688,32 L25.768,-0.016 L19,-0.016 L12.232,21.44 L5.752,-0.016 L-1.016,-0.016 L8.68,32 L15.688,32 Z M33.8,32 L33.8,-0.016 L27.224,-0.016 L27.224,32 L33.8,32 Z" id="Combined-Shape"></path>
                </g>
            </g>
            <g id="Group" transform="translate(64.000000, 20.000000)" fill="#FFFFFF" fill-rule="nonzero">
                <g id="CS-minor">
                    <path d="M8.935725,35 L8.935725,22.9 C8.935725,20.084 10.035725,18.632 12.147725,18.632 C14.171725,18.632 15.227725,20.084 15.227725,22.9 L15.227725,35 L20.815725,35 L20.815725,22.724 C20.815725,20.128 22.003725,18.632 24.071725,18.632 C26.183725,18.632 27.195725,19.952 27.195725,22.724 L27.195725,35 L32.783725,35 L32.783725,21.668 C32.783725,18.588 32.387725,17.18 31.155725,15.816 C30.011725,14.584 28.295725,13.924 26.227725,13.924 C23.323725,13.924 21.431725,14.98 20.067725,17.312 C19.099725,15.112 17.163725,13.924 14.523725,13.924 C11.927725,13.924 10.211725,14.936 8.935725,17.18 L8.935725,14.628 L3.347725,14.628 L3.347725,35 L8.935725,35 Z" id="Combined-Shape"></path>
                </g>
            </g>
        </g>
        <rect id="Rectangle-Copy" fill="#FFBF00" x="266" y="50" width="120" height="80" rx="10"></rect>
        <g id="Group" transform="translate(308.000000, 74.000000)" fill="#FFFFFF" fill-rule="nonzero">
            <g id="CS-A">
                <path d="M8.824,32 L8.824,-0.016 L2.248,-0.016 L2.248,32 L8.824,32 Z M26.936,32 L37.016,-0.016 L30.248,-0.016 L23.48,21.44 L17,-0.016 L10.232,-0.016 L19.928,32 L26.936,32 Z" id="Combined-Shape"></path>
            </g>
        </g>
        <path id="Path-26" d="M245.897215,87.6608136 L254.758109,82.2610036 L257,109 L234.263669,94.7501147 L242.395661,89.7938028 C225.257236,72.3335759 195.632564,64.4322686 153.421994,66.2566185 L152.095363,66.3169604 L150.097638,66.4123237 L149.906911,62.4168734 L151.904637,62.32151 C196.371227,60.1988534 227.737544,68.5859589 245.897215,87.6608136 Z" fill="#666666" fill-rule="nonzero"></path>
        <g id="Group" transform="translate(174.011641, 83.125934)" fill="#666666" fill-rule="nonzero">
            <g id="Nexus">
                <path d="M38.216,16.48 L31,29.04 L23.8,16.48 L38.216,16.48 Z M21.4657224,2.14893407 L14.2507224,11.8599341 C18.4627224,12.2109341 21.1927224,15.2919341 21.1927224,19.6989341 C21.1927224,24.7689341 17.5267224,28.5129341 12.5347224,28.5129341 C9.64872235,28.5129341 7.11372235,27.2649341 5.67072235,25.0809341 C4.89072235,23.9109341 4.57872235,22.8969341 4.34472235,20.9469341 L4.34472235,20.9469341 L8.82972235,20.7909341 C9.14172235,22.8189341 10.5067224,24.0279341 12.4177224,24.0279341 C14.6407224,24.0279341 16.3957224,22.3119341 16.3957224,20.0499341 C16.3957224,17.7489341 14.7187224,16.0719341 12.3787224,16.0719341 C11.4817224,16.0719341 10.7407224,16.2669341 9.99972235,16.7349341 L9.99972235,16.7349341 L7.19172235,14.3559341 L13.1197224,6.43893407 L5.63172235,6.43893407 L5.63172235,2.14893407 L21.4657224,2.14893407 Z" id="Combined-Shape"></path>
            </g>
        </g>
        <path id="Path-26" d="M485.225268,98.9126046 L502.5,119.445107 L475.709159,120.945391 L479.609728,111.916282 C460.605107,105.47817 441.060077,103.538157 398.724493,103.500602 L396.001936,103.500752 L394.001936,103.502688 L393.998065,99.5026899 L395.998064,99.5007544 L398.746237,99.5006263 C441.705706,99.5395091 461.59461,101.537881 481.200828,108.232294 L485.225268,98.9126046 Z" transform="translate(449.250000, 110.472553) scale(1, -1) translate(-449.250000, -110.472553) " fill="#999999" fill-rule="nonzero"></path>
        <g id="Group" transform="translate(418.511641, 71.125934)" fill="#999999" fill-rule="nonzero">
            <g id="Nexus">
                <path d="M20.2567224,28.0059341 L20.2567224,23.5989341 L12.8857224,23.5989341 L17.7607224,16.4619341 C20.0617224,13.0689341 20.9587224,10.8849341 20.9587224,8.50593407 C20.9587224,4.48893407 17.7217224,1.60293407 13.1587224,1.60293407 C8.01072235,1.60293407 4.89072235,4.95693407 4.92972235,10.4559341 L9.53172235,10.4559341 C9.57072235,9.12993407 9.64872235,8.66193407 9.92172235,7.95993407 C10.3507224,6.82893407 11.4427224,6.12693407 12.8467224,6.12693407 C14.6407224,6.12693407 15.9277224,7.33593407 15.9277224,9.01293407 C15.9277224,10.2609341 15.5377224,11.0799341 13.5487224,14.1219341 L4.46172235,28.0059341 L20.2567224,28.0059341 Z M30.7104906,3.56 L37.9264906,16.12 L23.5104906,16.12 L30.7104906,3.56 Z" id="Combined-Shape"></path>
            </g>
        </g>
        <g id="Group-3" transform="translate(506.000000, 50.000000)">
            <rect id="Rectangle-Copy" fill="#FF5500" x="0" y="0" width="120" height="80" rx="10"></rect>
            <g id="Group" transform="translate(42.000000, 26.000000)" fill="#FFFFFF" fill-rule="nonzero">
                <g id="CS-A">
                    <path d="M21.312,32 L31.392,-0.016 L24.624,-0.016 L17.856,21.44 L11.376,-0.016 L4.608,-0.016 L14.304,32 L21.312,32 Z" id="Combined-Shape"></path>
                </g>
            </g>
        </g>
        <g id="Group-2" transform="translate(748.500000, 50.000000)">
            <rect id="Rectangle-Copy" fill="#58C322" x="0" y="0" width="120" height="80" rx="10"></rect>
            <g id="Group" transform="translate(42.000000, 24.000000)" fill="#FFFFFF" fill-rule="nonzero">
                <g id="CS-A">
                    <path d="M21.312,32 L21.312,-0.016 L14.736,-0.016 L14.736,32 L21.312,32 Z" id="Combined-Shape"></path>
                </g>
            </g>
        </g>
        <path id="Path-26" d="M729.143072,94.2238439 L739.492075,87.6652331 L742.767643,119.922335 L714.99662,103.188529 L724.892453,96.9168665 C703.99345,71.0608386 675.84268,58.2824215 637.299116,59.4570852 L636.094405,59.4982169 L633.596188,59.5926216 L633.407378,54.5961877 L635.905595,54.5017831 C676.866616,52.953915 707.000909,66.5699726 729.143072,94.2238439 Z" fill="#000000" fill-rule="nonzero"></path>
        <g id="Group" transform="translate(657.511641, 84.125934)" fill="#0C0C0C" fill-rule="nonzero">
            <g id="Nexus">
                <path d="M38.216,16.48 L31,29.04 L23.8,16.48 L38.216,16.48 Z M19.3597224,2.14893407 L19.3597224,6.67293407 L10.6627224,6.67293407 L10.6627224,12.2499341 C11.8717224,11.7429341 12.7297224,11.5479341 13.8607224,11.5479341 C18.1897224,11.5479341 21.4267224,15.0579341 21.4267224,19.6989341 C21.4267224,24.8469341 17.8387224,28.5129341 12.8857224,28.5129341 C10.5457224,28.5129341 8.43972235,27.6939341 6.87972235,26.1729341 C5.94372235,25.1979341 5.43672235,24.4179341 4.73472235,22.5849341 L4.73472235,22.5849341 L9.10272235,20.9469341 C9.84372235,22.8969341 10.9747224,23.7939341 12.7297224,23.7939341 C14.8747224,23.7939341 16.5517224,22.0779341 16.5517224,19.8159341 C16.5517224,17.5539341 14.8747224,15.7989341 12.6907224,15.7989341 C11.3257224,15.7989341 10.3117224,16.3059341 9.37572235,17.5539341 L9.37572235,17.5539341 L6.09972235,17.5539341 L6.09972235,2.14893407 L19.3597224,2.14893407 Z" id="Combined-Shape"></path>
            </g>
        </g>
    </g>
</svg>