<?xml version="1.0" encoding="UTF-8"?>
<svg width="1400px" height="150px" viewBox="0 0 1400 150" version="1.1" xmlns="http://www.w3.org/2000/svg" xmlns:xlink="http://www.w3.org/1999/xlink">
    <title>nexus-3b</title>
    <g id="nexus-3b" stroke="none" stroke-width="1" fill="none" fill-rule="evenodd">
        <g id="Group-5" transform="translate(766.000000, 35.000000)">
            <rect id="Rectangle-Copy" fill="#58C322" x="0" y="0" width="120" height="80" rx="10"></rect>
            <g id="Group" transform="translate(26.000000, 24.000000)" fill="#FFFFFF" fill-rule="nonzero">
                <g id="CS-A">
                    <path d="M15.688,32 L25.768,-0.016 L19,-0.016 L12.232,21.44 L5.752,-0.016 L-1.016,-0.016 L8.68,32 L15.688,32 Z M33.8,32 L33.8,-0.016 L27.224,-0.016 L27.224,32 L33.8,32 Z" id="Combined-Shape"></path>
                </g>
            </g>
            <g id="Group" transform="translate(64.000000, 20.000000)" fill="#FFFFFF" fill-rule="nonzero">
                <g id="CS-minor">
                    <path d="M8.935725,35 L8.935725,22.9 C8.935725,20.084 10.035725,18.632 12.147725,18.632 C14.171725,18.632 15.227725,20.084 15.227725,22.9 L15.227725,35 L20.815725,35 L20.815725,22.724 C20.815725,20.128 22.003725,18.632 24.071725,18.632 C26.183725,18.632 27.195725,19.952 27.195725,22.724 L27.195725,35 L32.783725,35 L32.783725,21.668 C32.783725,18.588 32.387725,17.18 31.155725,15.816 C30.011725,14.584 28.295725,13.924 26.227725,13.924 C23.323725,13.924 21.431725,14.98 20.067725,17.312 C19.099725,15.112 17.163725,13.924 14.523725,13.924 C11.927725,13.924 10.211725,14.936 8.935725,17.18 L8.935725,14.628 L3.347725,14.628 L3.347725,35 L8.935725,35 Z" id="Combined-Shape"></path>
                </g>
            </g>
        </g>
        <g id="Group-2" transform="translate(524.000000, 35.000000)">
            <rect id="Rectangle-Copy" fill="#58C322" x="0" y="0" width="120" height="80" rx="10"></rect>
            <g id="Group" transform="translate(42.000000, 24.000000)" fill="#FFFFFF" fill-rule="nonzero">
                <g id="CS-A">
                    <path d="M21.312,32 L21.312,-0.016 L14.736,-0.016 L14.736,32 L21.312,32 Z" id="Combined-Shape"></path>
                </g>
            </g>
        </g>
        <g id="Group-3" transform="translate(38.000000, 35.000000)">
            <rect id="Rectangle-Copy" fill="#FF5500" x="0" y="0" width="120" height="80" rx="10"></rect>
            <g id="Group" transform="translate(42.000000, 26.000000)" fill="#FFFFFF" fill-rule="nonzero">
                <g id="CS-A">
                    <path d="M21.312,32 L31.392,-0.016 L24.624,-0.016 L17.856,21.44 L11.376,-0.016 L4.608,-0.016 L14.304,32 L21.312,32 Z" id="Combined-Shape"></path>
                </g>
            </g>
        </g>
        <path id="Path-26" d="M262.897215,72.6608136 L271.758109,67.2610036 L274,94 L251.263669,79.7501147 L259.395661,74.7938028 C242.257236,57.3335759 212.632564,49.4322686 170.421994,51.2566185 L169.095363,51.3169604 L167.097638,51.4123237 L166.906911,47.4168734 L168.904637,47.32151 C213.371227,45.1988534 244.737544,53.5859589 262.897215,72.6608136 Z" fill="#666666" fill-rule="nonzero"></path>
        <g id="Group" transform="translate(191.011641, 68.125934)" fill="#666666" fill-rule="nonzero">
            <g id="Nexus">
                <path d="M38.216,16.48 L31,29.04 L23.8,16.48 L38.216,16.48 Z M21.4657224,2.14893407 L14.2507224,11.8599341 C18.4627224,12.2109341 21.1927224,15.2919341 21.1927224,19.6989341 C21.1927224,24.7689341 17.5267224,28.5129341 12.5347224,28.5129341 C9.64872235,28.5129341 7.11372235,27.2649341 5.67072235,25.0809341 C4.89072235,23.9109341 4.57872235,22.8969341 4.34472235,20.9469341 L4.34472235,20.9469341 L8.82972235,20.7909341 C9.14172235,22.8189341 10.5067224,24.0279341 12.4177224,24.0279341 C14.6407224,24.0279341 16.3957224,22.3119341 16.3957224,20.0499341 C16.3957224,17.7489341 14.7187224,16.0719341 12.3787224,16.0719341 C11.4817224,16.0719341 10.7407224,16.2669341 9.99972235,16.7349341 L9.99972235,16.7349341 L7.19172235,14.3559341 L13.1197224,6.43893407 L5.63172235,6.43893407 L5.63172235,2.14893407 L21.4657224,2.14893407 Z" id="Combined-Shape"></path>
            </g>
        </g>
        <path id="Path-26" d="M515.483241,62.2174198 L519.274364,94.4180003 L491.239226,78.1305507 L515.483241,62.2174198 Z M486.325282,56.9978472 L488.568201,58.1020742 C491.430279,59.5111244 494.134338,61.049205 496.679798,62.7165176 L497.522411,63.2770751 L499.593904,64.6766879 L496.794678,68.8196743 L494.723185,67.4200616 C492.414207,65.8599915 489.955146,64.4139123 487.345446,63.0820183 L486.359747,62.5879109 L484.116828,61.4836839 L486.325282,56.9978472 Z M461.851405,49.463897 L464.297491,49.980291 C467.306684,50.6155628 470.208428,51.3380469 473.002694,52.1479417 L474.193656,52.5003918 L476.586833,53.223373 L475.140871,58.0097278 L472.747693,57.2867466 C470.105283,56.4884718 467.354854,55.7724666 464.496379,55.1389294 L463.264703,54.8724632 L460.818617,54.3560692 L461.851405,49.463897 Z M436.627991,46.6814625 L439.124402,46.8153704 C442.098373,46.9748948 444.996947,47.1949679 447.82016,47.4756581 L449.225486,47.6210549 L451.711155,47.8883557 L451.176553,52.8596936 L448.690884,52.5923929 C445.969968,52.2997945 443.172853,52.0659192 440.299573,51.8908351 L438.856586,51.8081927 L436.360175,51.6742848 L436.627991,46.6814625 Z M426.468342,46.488389 L426.527093,51.4880438 L424.027265,51.5174193 C421.34129,51.5489821 418.600085,51.6234404 415.803675,51.740816 L414.119204,51.8163917 L411.622048,51.9355959 L411.383639,46.941283 L413.880796,46.8220787 C416.748571,46.6851827 419.561645,46.5919147 422.320039,46.5422969 L423.968514,46.5177644 L426.468342,46.488389 Z" fill="#FF5500" fill-rule="nonzero"></path>
        <g id="Nexus" transform="translate(436.011641, 68.125934)" fill="#FF5500">
            <path d="M38.216,16.48 L31,29.04 L23.8,16.48 L38.216,16.48 Z M21.4657224,2.14893407 L14.2507224,11.8599341 C18.4627224,12.2109341 21.1927224,15.2919341 21.1927224,19.6989341 C21.1927224,24.7689341 17.5267224,28.5129341 12.5347224,28.5129341 C9.64872235,28.5129341 7.11372235,27.2649341 5.67072235,25.0809341 C4.89072235,23.9109341 4.57872235,22.8969341 4.34472235,20.9469341 L4.34472235,20.9469341 L8.82972235,20.7909341 C9.14172235,22.8189341 10.5067224,24.0279341 12.4177224,24.0279341 C14.6407224,24.0279341 16.3957224,22.3119341 16.3957224,20.0499341 C16.3957224,17.7489341 14.7187224,16.0719341 12.3787224,16.0719341 C11.4817224,16.0719341 10.7407224,16.2669341 9.99972235,16.7349341 L9.99972235,16.7349341 L7.19172235,14.3559341 L13.1197224,6.43893407 L5.63172235,6.43893407 L5.63172235,2.14893407 L21.4657224,2.14893407 Z" id="Combined-Shape"></path>
        </g>
        <path id="Path-26" d="M747.897215,72.6608136 L756.758109,67.2610036 L759,94 L736.263669,79.7501147 L744.395661,74.7938028 C727.257236,57.3335759 697.632564,49.4322686 655.421994,51.2566185 L654.095363,51.3169604 L652.097638,51.4123237 L651.906911,47.4168734 L653.904637,47.32151 C698.371227,45.1988534 729.737544,53.5859589 747.897215,72.6608136 Z" fill="#666666" fill-rule="nonzero"></path>
        <g id="Group" transform="translate(676.011641, 68.125934)" fill="#666666" fill-rule="nonzero">
            <g id="Nexus">
                <path d="M38.216,16.48 L31,29.04 L23.8,16.48 L38.216,16.48 Z M21.4657224,2.14893407 L14.2507224,11.8599341 C18.4627224,12.2109341 21.1927224,15.2919341 21.1927224,19.6989341 C21.1927224,24.7689341 17.5267224,28.5129341 12.5347224,28.5129341 C9.64872235,28.5129341 7.11372235,27.2649341 5.67072235,25.0809341 C4.89072235,23.9109341 4.57872235,22.8969341 4.34472235,20.9469341 L4.34472235,20.9469341 L8.82972235,20.7909341 C9.14172235,22.8189341 10.5067224,24.0279341 12.4177224,24.0279341 C14.6407224,24.0279341 16.3957224,22.3119341 16.3957224,20.0499341 C16.3957224,17.7489341 14.7187224,16.0719341 12.3787224,16.0719341 C11.4817224,16.0719341 10.7407224,16.2669341 9.99972235,16.7349341 L9.99972235,16.7349341 L7.19172235,14.3559341 L13.1197224,6.43893407 L5.63172235,6.43893407 L5.63172235,2.14893407 L21.4657224,2.14893407 Z" id="Combined-Shape"></path>
            </g>
        </g>
        <path id="Path-26" d="M990.897215,72.6608136 L999.758109,67.2610036 L1002,94 L979.263669,79.7501147 L987.395661,74.7938028 C970.257236,57.3335759 940.632564,49.4322686 898.421994,51.2566185 L897.095363,51.3169604 L895.097638,51.4123237 L894.906911,47.4168734 L896.904637,47.32151 C941.371227,45.1988534 972.737544,53.5859589 990.897215,72.6608136 Z" fill="#666666" fill-rule="nonzero"></path>
        <g id="Group" transform="translate(919.011641, 68.125934)" fill="#666666" fill-rule="nonzero">
            <g id="Nexus">
                <path d="M38.216,16.48 L31,29.04 L23.8,16.48 L38.216,16.48 Z M21.4657224,2.14893407 L14.2507224,11.8599341 C18.4627224,12.2109341 21.1927224,15.2919341 21.1927224,19.6989341 C21.1927224,24.7689341 17.5267224,28.5129341 12.5347224,28.5129341 C9.64872235,28.5129341 7.11372235,27.2649341 5.67072235,25.0809341 C4.89072235,23.9109341 4.57872235,22.8969341 4.34472235,20.9469341 L4.34472235,20.9469341 L8.82972235,20.7909341 C9.14172235,22.8189341 10.5067224,24.0279341 12.4177224,24.0279341 C14.6407224,24.0279341 16.3957224,22.3119341 16.3957224,20.0499341 C16.3957224,17.7489341 14.7187224,16.0719341 12.3787224,16.0719341 C11.4817224,16.0719341 10.7407224,16.2669341 9.99972235,16.7349341 L9.99972235,16.7349341 L7.19172235,14.3559341 L13.1197224,6.43893407 L5.63172235,6.43893407 L5.63172235,2.14893407 L21.4657224,2.14893407 Z" id="Combined-Shape"></path>
            </g>
        </g>
        <path id="Path-26" d="M1229.89722,72.6608136 L1238.75811,67.2610036 L1241,94 L1218.26367,79.7501147 L1226.39566,74.7938028 C1209.25724,57.3335759 1179.63256,49.4322686 1137.42199,51.2566185 L1136.09536,51.3169604 L1134.09764,51.4123237 L1133.90691,47.4168734 L1135.90464,47.32151 C1180.37123,45.1988534 1211.73754,53.5859589 1229.89722,72.6608136 Z" fill="#666666" fill-rule="nonzero"></path>
        <g id="Group" transform="translate(1158.011641, 68.125934)" fill="#666666" fill-rule="nonzero">
            <g id="Nexus">
                <path d="M38.216,16.48 L31,29.04 L23.8,16.48 L38.216,16.48 Z M21.4657224,2.14893407 L14.2507224,11.8599341 C18.4627224,12.2109341 21.1927224,15.2919341 21.1927224,19.6989341 C21.1927224,24.7689341 17.5267224,28.5129341 12.5347224,28.5129341 C9.64872235,28.5129341 7.11372235,27.2649341 5.67072235,25.0809341 C4.89072235,23.9109341 4.57872235,22.8969341 4.34472235,20.9469341 L4.34472235,20.9469341 L8.82972235,20.7909341 C9.14172235,22.8189341 10.5067224,24.0279341 12.4177224,24.0279341 C14.6407224,24.0279341 16.3957224,22.3119341 16.3957224,20.0499341 C16.3957224,17.7489341 14.7187224,16.0719341 12.3787224,16.0719341 C11.4817224,16.0719341 10.7407224,16.2669341 9.99972235,16.7349341 L9.99972235,16.7349341 L7.19172235,14.3559341 L13.1197224,6.43893407 L5.63172235,6.43893407 L5.63172235,2.14893407 L21.4657224,2.14893407 Z" id="Combined-Shape"></path>
            </g>
        </g>
        <g id="Group" transform="translate(1009.000000, 35.000000)">
            <rect id="Rectangle-Copy" fill="#FFBF00" x="0" y="0" width="120" height="80" rx="10"></rect>
            <g transform="translate(42.000000, 24.000000)" fill="#FFFFFF" fill-rule="nonzero" id="CS-A">
                <g>
                    <path d="M8.824,32 L8.824,-0.016 L2.248,-0.016 L2.248,32 L8.824,32 Z M26.936,32 L37.016,-0.016 L30.248,-0.016 L23.48,21.44 L17,-0.016 L10.232,-0.016 L19.928,32 L26.936,32 Z" id="Combined-Shape"></path>
                </g>
            </g>
        </g>
        <g id="Group-4" transform="translate(1246.000000, 35.000000)">
            <rect id="Rectangle-Copy" fill="#FFBF00" x="0" y="0" width="120" height="80" rx="10"></rect>
            <g id="Group" transform="translate(23.000000, 24.000000)" fill="#FFFFFF" fill-rule="nonzero">
                <g id="CS-A">
                    <path d="M15.688,32 L15.688,-0.016 L9.112,-0.016 L9.112,32 L15.688,32 Z M26.936,32 L26.936,-0.016 L20.36,-0.016 L20.36,32 L26.936,32 Z" id="Combined-Shape"></path>
                </g>
            </g>
            <g id="Group" transform="translate(54.000000, 21.000000)" fill="#FFFFFF" fill-rule="nonzero">
                <g id="CS-minor">
                    <path d="M8.935725,35 L8.935725,22.9 C8.935725,20.084 10.035725,18.632 12.147725,18.632 C14.171725,18.632 15.227725,20.084 15.227725,22.9 L15.227725,35 L20.815725,35 L20.815725,22.724 C20.815725,20.128 22.003725,18.632 24.071725,18.632 C26.183725,18.632 27.195725,19.952 27.195725,22.724 L27.195725,35 L32.783725,35 L32.783725,21.668 C32.783725,18.588 32.387725,17.18 31.155725,15.816 C30.011725,14.584 28.295725,13.924 26.227725,13.924 C23.323725,13.924 21.431725,14.98 20.067725,17.312 C19.099725,15.112 17.163725,13.924 14.523725,13.924 C11.927725,13.924 10.211725,14.936 8.935725,17.18 L8.935725,14.628 L3.347725,14.628 L3.347725,35 L8.935725,35 Z" id="Combined-Shape"></path>
                </g>
            </g>
        </g>
        <g id="Group-6" transform="translate(282.000000, 35.000000)">
            <rect id="Rectangle-Copy" fill="#FF5500" x="0" y="0" width="120" height="80" rx="10"></rect>
            <g id="Group" transform="translate(61.000000, 23.000000)" fill="#FFFFFF" fill-rule="nonzero">
                <g id="CS-minor">
                    <path d="M8.935725,35 L8.935725,22.9 C8.935725,20.084 10.035725,18.632 12.147725,18.632 C14.171725,18.632 15.227725,20.084 15.227725,22.9 L15.227725,35 L20.815725,35 L20.815725,22.724 C20.815725,20.128 22.003725,18.632 24.071725,18.632 C26.183725,18.632 27.195725,19.952 27.195725,22.724 L27.195725,35 L32.783725,35 L32.783725,21.668 C32.783725,18.588 32.387725,17.18 31.155725,15.816 C30.011725,14.584 28.295725,13.924 26.227725,13.924 C23.323725,13.924 21.431725,14.98 20.067725,17.312 C19.099725,15.112 17.163725,13.924 14.523725,13.924 C11.927725,13.924 10.211725,14.936 8.935725,17.18 L8.935725,14.628 L3.347725,14.628 L3.347725,35 L8.935725,35 Z" id="Combined-Shape"></path>
                </g>
            </g>
            <g id="Group" transform="translate(28.000000, 26.000000)" fill="#FFFFFF" fill-rule="nonzero">
                <g id="CS-A">
                    <path d="M10.064,32 L10.064,-0.016 L3.488,-0.016 L3.488,32 L10.064,32 Z M21.312,32 L21.312,-0.016 L14.736,-0.016 L14.736,32 L21.312,32 Z M32.56,32 L32.56,-0.016 L25.984,-0.016 L25.984,32 L32.56,32 Z" id="Combined-Shape"></path>
                </g>
            </g>
        </g>
    </g>
</svg>