<?xml version="1.0" encoding="UTF-8"?>
<svg width="1400px" height="150px" viewBox="0 0 1400 150" version="1.1" xmlns="http://www.w3.org/2000/svg" xmlns:xlink="http://www.w3.org/1999/xlink">
    <title>nexus-3a</title>
    <g id="nexus-3a" stroke="none" stroke-width="1" fill="none" fill-rule="evenodd">
        <g id="Group-5" transform="translate(518.000000, 35.000000)">
            <rect id="Rectangle-Copy" fill="#58C322" x="0" y="0" width="120" height="80" rx="10"></rect>
            <g id="Group" transform="translate(26.000000, 24.000000)" fill="#FFFFFF" fill-rule="nonzero">
                <g id="CS-A">
                    <path d="M15.688,32 L25.768,-0.016 L19,-0.016 L12.232,21.44 L5.752,-0.016 L-1.016,-0.016 L8.68,32 L15.688,32 Z M33.8,32 L33.8,-0.016 L27.224,-0.016 L27.224,32 L33.8,32 Z" id="Combined-Shape"></path>
                </g>
            </g>
            <g id="Group" transform="translate(64.000000, 20.000000)" fill="#FFFFFF" fill-rule="nonzero">
                <g id="CS-minor">
                    <path d="M8.935725,35 L8.935725,22.9 C8.935725,20.084 10.035725,18.632 12.147725,18.632 C14.171725,18.632 15.227725,20.084 15.227725,22.9 L15.227725,35 L20.815725,35 L20.815725,22.724 C20.815725,20.128 22.003725,18.632 24.071725,18.632 C26.183725,18.632 27.195725,19.952 27.195725,22.724 L27.195725,35 L32.783725,35 L32.783725,21.668 C32.783725,18.588 32.387725,17.18 31.155725,15.816 C30.011725,14.584 28.295725,13.924 26.227725,13.924 C23.323725,13.924 21.431725,14.98 20.067725,17.312 C19.099725,15.112 17.163725,13.924 14.523725,13.924 C11.927725,13.924 10.211725,14.936 8.935725,17.18 L8.935725,14.628 L3.347725,14.628 L3.347725,35 L8.935725,35 Z" id="Combined-Shape"></path>
                </g>
            </g>
        </g>
        <g id="Group-2" transform="translate(760.000000, 35.000000)">
            <rect id="Rectangle-Copy" fill="#58C322" x="0" y="0" width="120" height="80" rx="10"></rect>
            <g id="Group" transform="translate(42.000000, 24.000000)" fill="#FFFFFF" fill-rule="nonzero">
                <g id="CS-A">
                    <path d="M21.312,32 L21.312,-0.016 L14.736,-0.016 L14.736,32 L21.312,32 Z" id="Combined-Shape"></path>
                </g>
            </g>
        </g>
        <g id="Group-3" transform="translate(1246.000000, 35.000000)">
            <rect id="Rectangle-Copy" fill="#FF5500" x="0" y="0" width="120" height="80" rx="10"></rect>
            <g id="Group" transform="translate(42.000000, 26.000000)" fill="#FFFFFF" fill-rule="nonzero">
                <g id="CS-A">
                    <path d="M21.312,32 L31.392,-0.016 L24.624,-0.016 L17.856,21.44 L11.376,-0.016 L4.608,-0.016 L14.304,32 L21.312,32 Z" id="Combined-Shape"></path>
                </g>
            </g>
        </g>
        <path id="Path-26" d="M1236.48324,75.2174198 L1240.27436,107.418 L1212.23923,91.1305507 L1236.48324,75.2174198 Z M1207.32528,69.9978472 L1209.5682,71.1020742 C1212.43028,72.5111244 1215.13434,74.049205 1217.6798,75.7165176 L1218.52241,76.2770751 L1220.5939,77.6766879 L1217.79468,81.8196743 L1215.72319,80.4200616 C1213.41421,78.8599915 1210.95515,77.4139123 1208.34545,76.0820183 L1207.35975,75.5879109 L1205.11683,74.4836839 L1207.32528,69.9978472 Z M1182.8514,62.463897 L1185.29749,62.980291 C1188.30668,63.6155628 1191.20843,64.3380469 1194.00269,65.1479417 L1195.19366,65.5003918 L1197.58683,66.223373 L1196.14087,71.0097278 L1193.74769,70.2867466 C1191.10528,69.4884718 1188.35485,68.7724666 1185.49638,68.1389294 L1184.2647,67.8724632 L1181.81862,67.3560692 L1182.8514,62.463897 Z M1157.62799,59.6814625 L1160.1244,59.8153704 C1163.09837,59.9748948 1165.99695,60.1949679 1168.82016,60.4756581 L1170.22549,60.6210549 L1172.71115,60.8883557 L1172.17655,65.8596936 L1169.69088,65.5923929 C1166.96997,65.2997945 1164.17285,65.0659192 1161.29957,64.8908351 L1159.85659,64.8081927 L1157.36017,64.6742848 L1157.62799,59.6814625 Z M1147.46834,59.488389 L1147.52709,64.4880438 L1145.02727,64.5174193 C1142.34129,64.5489821 1139.60009,64.6234404 1136.80367,64.740816 L1135.1192,64.8163917 L1132.62205,64.9355959 L1132.38364,59.941283 L1134.8808,59.8220787 C1137.74857,59.6851827 1140.56164,59.5919147 1143.32004,59.5422969 L1144.96851,59.5177644 L1147.46834,59.488389 Z" transform="translate(1187.500000, 84.500000) scale(1, -1) translate(-1187.500000, -84.500000) " fill="#FF5500" fill-rule="nonzero"></path>
        <g id="Nexus" transform="translate(1152.988359, 53.125934)" fill="#FF5500">
            <path d="M12.5347224,28.5129341 C17.5267224,28.5129341 21.1927224,24.7689341 21.1927224,19.6989341 C21.1927224,15.2919341 18.4627224,12.2109341 14.2507224,11.8599341 L21.4657224,2.14893407 L5.63172235,2.14893407 L5.63172235,6.43893407 L13.1197224,6.43893407 L7.19172235,14.3559341 L9.99972235,16.7349341 C10.7407224,16.2669341 11.4817224,16.0719341 12.3787224,16.0719341 C14.7187224,16.0719341 16.3957224,17.7489341 16.3957224,20.0499341 C16.3957224,22.3119341 14.6407224,24.0279341 12.4177224,24.0279341 C10.5067224,24.0279341 9.14172235,22.8189341 8.82972235,20.7909341 L4.34472235,20.9469341 C4.57872235,22.8969341 4.89072235,23.9109341 5.67072235,25.0809341 C7.11372235,27.2649341 9.64872235,28.5129341 12.5347224,28.5129341 Z M30.7104906,3.56 L37.9264906,16.12 L23.5104906,16.12 L30.7104906,3.56 Z" id="Combined-Shape"></path>
        </g>
        <path id="Path-26" d="M983.897215,85.6608136 L992.758109,80.2610036 L995,107 L972.263669,92.7501147 L980.395661,87.7938028 C963.257236,70.3335759 933.632564,62.4322686 891.421994,64.2566185 L890.095363,64.3169604 L888.097638,64.4123237 L887.906911,60.4168734 L889.904637,60.32151 C934.371227,58.1988534 965.737544,66.5859589 983.897215,85.6608136 Z" transform="translate(942.500000, 84.500000) scale(1, -1) translate(-942.500000, -84.500000) " fill="#666666" fill-rule="nonzero"></path>
        <g id="Nexus" transform="translate(907.988359, 53.125934)" fill="#666666">
            <path d="M12.5347224,28.5129341 C17.5267224,28.5129341 21.1927224,24.7689341 21.1927224,19.6989341 C21.1927224,15.2919341 18.4627224,12.2109341 14.2507224,11.8599341 L21.4657224,2.14893407 L5.63172235,2.14893407 L5.63172235,6.43893407 L13.1197224,6.43893407 L7.19172235,14.3559341 L9.99972235,16.7349341 C10.7407224,16.2669341 11.4817224,16.0719341 12.3787224,16.0719341 C14.7187224,16.0719341 16.3957224,17.7489341 16.3957224,20.0499341 C16.3957224,22.3119341 14.6407224,24.0279341 12.4177224,24.0279341 C10.5067224,24.0279341 9.14172235,22.8189341 8.82972235,20.7909341 L4.34472235,20.9469341 C4.57872235,22.8969341 4.89072235,23.9109341 5.67072235,25.0809341 C7.11372235,27.2649341 9.64872235,28.5129341 12.5347224,28.5129341 Z M30.7104906,3.56 L37.9264906,16.12 L23.5104906,16.12 L30.7104906,3.56 Z" id="Combined-Shape"></path>
        </g>
        <path id="Path-26" d="M751.483241,75.2174198 L755.274364,107.418 L727.239226,91.1305507 L751.483241,75.2174198 Z M722.325282,69.9978472 L724.568201,71.1020742 C727.430279,72.5111244 730.134338,74.049205 732.679798,75.7165176 L733.522411,76.2770751 L735.593904,77.6766879 L732.794678,81.8196743 L730.723185,80.4200616 C728.414207,78.8599915 725.955146,77.4139123 723.345446,76.0820183 L722.359747,75.5879109 L720.116828,74.4836839 L722.325282,69.9978472 Z M697.851405,62.463897 L700.297491,62.980291 C703.306684,63.6155628 706.208428,64.3380469 709.002694,65.1479417 L710.193656,65.5003918 L712.586833,66.223373 L711.140871,71.0097278 L708.747693,70.2867466 C706.105283,69.4884718 703.354854,68.7724666 700.496379,68.1389294 L699.264703,67.8724632 L696.818617,67.3560692 L697.851405,62.463897 Z M672.627991,59.6814625 L675.124402,59.8153704 C678.098373,59.9748948 680.996947,60.1949679 683.82016,60.4756581 L685.225486,60.6210549 L687.711155,60.8883557 L687.176553,65.8596936 L684.690884,65.5923929 C681.969968,65.2997945 679.172853,65.0659192 676.299573,64.8908351 L674.856586,64.8081927 L672.360175,64.6742848 L672.627991,59.6814625 Z M662.468342,59.488389 L662.527093,64.4880438 L660.027265,64.5174193 C657.34129,64.5489821 654.600085,64.6234404 651.803675,64.740816 L650.119204,64.8163917 L647.622048,64.9355959 L647.383639,59.941283 L649.880796,59.8220787 C652.748571,59.6851827 655.561645,59.5919147 658.320039,59.5422969 L659.968514,59.5177644 L662.468342,59.488389 Z" transform="translate(702.500000, 84.500000) scale(1, -1) translate(-702.500000, -84.500000) " fill="#FF5500" fill-rule="nonzero"></path>
        <g id="Nexus" transform="translate(667.988359, 53.125934)" fill="#FF5500">
            <path d="M12.5347224,28.5129341 C17.5267224,28.5129341 21.1927224,24.7689341 21.1927224,19.6989341 C21.1927224,15.2919341 18.4627224,12.2109341 14.2507224,11.8599341 L21.4657224,2.14893407 L5.63172235,2.14893407 L5.63172235,6.43893407 L13.1197224,6.43893407 L7.19172235,14.3559341 L9.99972235,16.7349341 C10.7407224,16.2669341 11.4817224,16.0719341 12.3787224,16.0719341 C14.7187224,16.0719341 16.3957224,17.7489341 16.3957224,20.0499341 C16.3957224,22.3119341 14.6407224,24.0279341 12.4177224,24.0279341 C10.5067224,24.0279341 9.14172235,22.8189341 8.82972235,20.7909341 L4.34472235,20.9469341 C4.57872235,22.8969341 4.89072235,23.9109341 5.67072235,25.0809341 C7.11372235,27.2649341 9.64872235,28.5129341 12.5347224,28.5129341 Z M30.7104906,3.56 L37.9264906,16.12 L23.5104906,16.12 L30.7104906,3.56 Z" id="Combined-Shape"></path>
        </g>
        <path id="Path-26" d="M500.897215,85.6608136 L509.758109,80.2610036 L512,107 L489.263669,92.7501147 L497.395661,87.7938028 C480.257236,70.3335759 450.632564,62.4322686 408.421994,64.2566185 L407.095363,64.3169604 L405.097638,64.4123237 L404.906911,60.4168734 L406.904637,60.32151 C451.371227,58.1988534 482.737544,66.5859589 500.897215,85.6608136 Z" transform="translate(459.500000, 84.500000) scale(1, -1) translate(-459.500000, -84.500000) " fill="#666666" fill-rule="nonzero"></path>
        <g id="Group" transform="translate(424.988359, 53.125934)" fill="#666666" fill-rule="nonzero">
            <g id="Nexus">
                <path d="M12.5347224,28.5129341 C17.5267224,28.5129341 21.1927224,24.7689341 21.1927224,19.6989341 C21.1927224,15.2919341 18.4627224,12.2109341 14.2507224,11.8599341 L21.4657224,2.14893407 L5.63172235,2.14893407 L5.63172235,6.43893407 L13.1197224,6.43893407 L7.19172235,14.3559341 L9.99972235,16.7349341 C10.7407224,16.2669341 11.4817224,16.0719341 12.3787224,16.0719341 C14.7187224,16.0719341 16.3957224,17.7489341 16.3957224,20.0499341 C16.3957224,22.3119341 14.6407224,24.0279341 12.4177224,24.0279341 C10.5067224,24.0279341 9.14172235,22.8189341 8.82972235,20.7909341 L4.34472235,20.9469341 C4.57872235,22.8969341 4.89072235,23.9109341 5.67072235,25.0809341 C7.11372235,27.2649341 9.64872235,28.5129341 12.5347224,28.5129341 Z M30.7104906,3.56 L37.9264906,16.12 L23.5104906,16.12 L30.7104906,3.56 Z" id="Combined-Shape"></path>
            </g>
        </g>
        <path id="Path-26" d="M269.483241,75.2174198 L273.274364,107.418 L245.239226,91.1305507 L269.483241,75.2174198 Z M240.325282,69.9978472 L242.568201,71.1020742 C245.430279,72.5111244 248.134338,74.049205 250.679798,75.7165176 L251.522411,76.2770751 L253.593904,77.6766879 L250.794678,81.8196743 L248.723185,80.4200616 C246.414207,78.8599915 243.955146,77.4139123 241.345446,76.0820183 L240.359747,75.5879109 L238.116828,74.4836839 L240.325282,69.9978472 Z M215.851405,62.463897 L218.297491,62.980291 C221.306684,63.6155628 224.208428,64.3380469 227.002694,65.1479417 L228.193656,65.5003918 L230.586833,66.223373 L229.140871,71.0097278 L226.747693,70.2867466 C224.105283,69.4884718 221.354854,68.7724666 218.496379,68.1389294 L217.264703,67.8724632 L214.818617,67.3560692 L215.851405,62.463897 Z M190.627991,59.6814625 L193.124402,59.8153704 C196.098373,59.9748948 198.996947,60.1949679 201.82016,60.4756581 L203.225486,60.6210549 L205.711155,60.8883557 L205.176553,65.8596936 L202.690884,65.5923929 C199.969968,65.2997945 197.172853,65.0659192 194.299573,64.8908351 L192.856586,64.8081927 L190.360175,64.6742848 L190.627991,59.6814625 Z M180.468342,59.488389 L180.527093,64.4880438 L178.027265,64.5174193 C175.34129,64.5489821 172.600085,64.6234404 169.803675,64.740816 L168.119204,64.8163917 L165.622048,64.9355959 L165.383639,59.941283 L167.880796,59.8220787 C170.748571,59.6851827 173.561645,59.5919147 176.320039,59.5422969 L177.968514,59.5177644 L180.468342,59.488389 Z" transform="translate(220.500000, 84.500000) scale(1, -1) translate(-220.500000, -84.500000) " fill="#FF5500" fill-rule="nonzero"></path>
        <g id="Nexus" transform="translate(185.988359, 53.125934)" fill="#FF5500">
            <path d="M12.5347224,28.5129341 C17.5267224,28.5129341 21.1927224,24.7689341 21.1927224,19.6989341 C21.1927224,15.2919341 18.4627224,12.2109341 14.2507224,11.8599341 L21.4657224,2.14893407 L5.63172235,2.14893407 L5.63172235,6.43893407 L13.1197224,6.43893407 L7.19172235,14.3559341 L9.99972235,16.7349341 C10.7407224,16.2669341 11.4817224,16.0719341 12.3787224,16.0719341 C14.7187224,16.0719341 16.3957224,17.7489341 16.3957224,20.0499341 C16.3957224,22.3119341 14.6407224,24.0279341 12.4177224,24.0279341 C10.5067224,24.0279341 9.14172235,22.8189341 8.82972235,20.7909341 L4.34472235,20.9469341 C4.57872235,22.8969341 4.89072235,23.9109341 5.67072235,25.0809341 C7.11372235,27.2649341 9.64872235,28.5129341 12.5347224,28.5129341 Z M30.7104906,3.56 L37.9264906,16.12 L23.5104906,16.12 L30.7104906,3.56 Z" id="Combined-Shape"></path>
        </g>
        <g id="Group" transform="translate(275.000000, 35.000000)">
            <rect id="Rectangle-Copy" fill="#FFBF00" x="0" y="0" width="120" height="80" rx="10"></rect>
            <g transform="translate(42.000000, 24.000000)" fill="#FFFFFF" fill-rule="nonzero" id="CS-A">
                <g>
                    <path d="M8.824,32 L8.824,-0.016 L2.248,-0.016 L2.248,32 L8.824,32 Z M26.936,32 L37.016,-0.016 L30.248,-0.016 L23.48,21.44 L17,-0.016 L10.232,-0.016 L19.928,32 L26.936,32 Z" id="Combined-Shape"></path>
                </g>
            </g>
        </g>
        <g id="Group-4" transform="translate(38.000000, 35.000000)">
            <rect id="Rectangle-Copy" fill="#FFBF00" x="0" y="0" width="120" height="80" rx="10"></rect>
            <g id="Group" transform="translate(23.000000, 24.000000)" fill="#FFFFFF" fill-rule="nonzero">
                <g id="CS-A">
                    <path d="M15.688,32 L15.688,-0.016 L9.112,-0.016 L9.112,32 L15.688,32 Z M26.936,32 L26.936,-0.016 L20.36,-0.016 L20.36,32 L26.936,32 Z" id="Combined-Shape"></path>
                </g>
            </g>
            <g id="Group" transform="translate(54.000000, 21.000000)" fill="#FFFFFF" fill-rule="nonzero">
                <g id="CS-minor">
                    <path d="M8.935725,35 L8.935725,22.9 C8.935725,20.084 10.035725,18.632 12.147725,18.632 C14.171725,18.632 15.227725,20.084 15.227725,22.9 L15.227725,35 L20.815725,35 L20.815725,22.724 C20.815725,20.128 22.003725,18.632 24.071725,18.632 C26.183725,18.632 27.195725,19.952 27.195725,22.724 L27.195725,35 L32.783725,35 L32.783725,21.668 C32.783725,18.588 32.387725,17.18 31.155725,15.816 C30.011725,14.584 28.295725,13.924 26.227725,13.924 C23.323725,13.924 21.431725,14.98 20.067725,17.312 C19.099725,15.112 17.163725,13.924 14.523725,13.924 C11.927725,13.924 10.211725,14.936 8.935725,17.18 L8.935725,14.628 L3.347725,14.628 L3.347725,35 L8.935725,35 Z" id="Combined-Shape"></path>
                </g>
            </g>
        </g>
        <g id="Group-6" transform="translate(1002.000000, 35.000000)">
            <rect id="Rectangle-Copy" fill="#FF5500" x="0" y="0" width="120" height="80" rx="10"></rect>
            <g id="Group" transform="translate(61.000000, 23.000000)" fill="#FFFFFF" fill-rule="nonzero">
                <g id="CS-minor">
                    <path d="M8.935725,35 L8.935725,22.9 C8.935725,20.084 10.035725,18.632 12.147725,18.632 C14.171725,18.632 15.227725,20.084 15.227725,22.9 L15.227725,35 L20.815725,35 L20.815725,22.724 C20.815725,20.128 22.003725,18.632 24.071725,18.632 C26.183725,18.632 27.195725,19.952 27.195725,22.724 L27.195725,35 L32.783725,35 L32.783725,21.668 C32.783725,18.588 32.387725,17.18 31.155725,15.816 C30.011725,14.584 28.295725,13.924 26.227725,13.924 C23.323725,13.924 21.431725,14.98 20.067725,17.312 C19.099725,15.112 17.163725,13.924 14.523725,13.924 C11.927725,13.924 10.211725,14.936 8.935725,17.18 L8.935725,14.628 L3.347725,14.628 L3.347725,35 L8.935725,35 Z" id="Combined-Shape"></path>
                </g>
            </g>
            <g id="Group" transform="translate(28.000000, 26.000000)" fill="#FFFFFF" fill-rule="nonzero">
                <g id="CS-A">
                    <path d="M10.064,32 L10.064,-0.016 L3.488,-0.016 L3.488,32 L10.064,32 Z M21.312,32 L21.312,-0.016 L14.736,-0.016 L14.736,32 L21.312,32 Z M32.56,32 L32.56,-0.016 L25.984,-0.016 L25.984,32 L32.56,32 Z" id="Combined-Shape"></path>
                </g>
            </g>
        </g>
    </g>
</svg>