<?xml version="1.0" encoding="UTF-8"?>
<svg width="1170px" height="600px" viewBox="0 0 1170 600" version="1.1" xmlns="http://www.w3.org/2000/svg" xmlns:xlink="http://www.w3.org/1999/xlink">
    <title>nexus-commontone_3ab</title>
    <g id="nexus-commontone_3ab" stroke="none" stroke-width="1" fill="none" fill-rule="evenodd">
        <g id="Group" transform="translate(40.500000, 295.500000)" stroke="#000000" stroke-width="1.5">
            <line x1="0" y1="15.75" x2="1099.5" y2="15.75" id="horizon"></line>
            <line x1="0" y1="45.75" x2="1099.5" y2="45.75" id="horizon"></line>
            <line x1="0" y1="75.75" x2="1099.5" y2="75.75" id="horizon"></line>
            <line x1="0" y1="105.75" x2="1099.5" y2="105.75" id="horizon"></line>
            <line x1="0" y1="135.75" x2="1099.5" y2="135.75" id="horizon"></line>
        </g>
        <line x1="-137.25" y1="251.25" x2="220.5" y2="250.5" id="bar" stroke="#000000" stroke-width="4.08251221" stroke-linecap="round" stroke-linejoin="round" transform="translate(42.000000, 251.250000) rotate(90.000000) translate(-42.000000, -251.250000) "></line>
        <g id="F" transform="translate(58.500000, 315.000000)" fill="#131516" stroke="#131516" stroke-width="0.75">
            <path d="M0,101.39333 C8.66160122,95.5447656 15.130392,91.117348 19.2967318,88.0564173 C23.4630717,85.0501461 27.8486925,81.2786422 32.3439539,76.7965651 C36.8392153,72.3144879 40.6218133,67.2311566 43.691748,61.6012305 C46.1038394,57.4471102 48.1870093,52.6370763 49.8864374,47.1711286 C51.5858655,41.7598404 52.4629897,36.5125306 52.6274505,31.5385182 C52.6274505,26.8924626 52.0244276,22.465045 50.7635616,18.3109248 C49.5575159,14.102145 47.474346,10.658598 44.5140519,7.87096467 C41.5537578,5.13799083 37.7163395,3.77150391 32.9469768,3.77150391 C28.3420749,3.77150391 24.0112743,4.70071501 19.954575,6.50447775 C15.9526959,8.36289997 13.1020424,11.3145117 11.5122548,15.468632 C11.5122548,15.8512483 11.2929737,16.3431836 10.9640522,17.0537568 C11.0736927,17.9283084 11.5122548,18.5842221 12.3345587,19.0761574 C13.1568626,19.5680927 13.869526,19.7867306 14.5273691,19.7867306 C14.8562907,19.7867306 15.7882351,19.6227522 17.2135619,19.2947953 C18.693709,18.9668385 19.8997547,18.7482006 20.8865194,18.7482006 C23.7919932,18.7482006 26.3685455,19.7867306 28.7258167,21.8091313 C31.0282677,23.8315319 32.1794932,26.2912084 32.1794932,29.1881607 C32.1794932,31.2652208 31.5764703,33.232962 30.4252448,35.0367247 C29.2740193,36.8404874 27.6842318,38.3162933 25.6558821,39.3548234 C23.6275325,40.4480129 21.3799018,40.9399482 18.9678103,40.9399482 C14.5821894,40.9399482 10.8544117,39.6281208 7.78447705,36.9498064 C4.7693627,34.2168325 3.23439539,30.7732855 3.23439539,26.4551868 C3.23439539,20.9345797 4.93382348,16.1792052 8.2778594,12.1344039 C11.6767156,8.08960258 15.9526959,5.08333135 21.215441,3.06093071 C26.4233658,0.983870584 31.6861108,0 37.0584964,0 C42.9242643,0 48.5159309,1.47580588 53.7238557,4.48207711 C58.9866007,7.43368886 63.0981203,11.5331496 66.1680549,16.616481 C69.2379895,21.7544718 70.8277771,27.2204195 70.8277771,33.123643 C70.8277771,43.6182626 67.3192804,53.3476495 60.302287,62.3664632 C53.2852936,71.3852768 44.6236924,79.201582 34.2626631,85.8700382 C27.3553102,90.4067748 16.171977,96.5286362 0.767483653,104.235622 L0,101.39333 Z M76.1453424,13.8351189 C76.1453424,11.8673777 76.8580058,10.2275934 78.2833326,8.91576597 C79.6538391,7.54927904 81.3532672,6.89336532 83.3816169,6.89336532 C85.1358652,6.89336532 86.780473,7.658598 88.2606201,9.13440387 C89.7407671,10.5555503 90.4534305,12.2499941 90.4534305,14.1084163 C90.4534305,16.0761574 89.6859469,17.7706012 88.2606201,19.1370881 C86.7256528,20.4489156 85.0262247,21.1048293 83.1075156,21.1048293 C81.0791659,21.1048293 79.4345581,20.4489156 78.1188718,18.9731097 C76.8031855,17.5519633 76.1453424,15.8575195 76.1453424,13.8351189 Z M76.1453424,42.4766848 C76.1453424,40.5089436 76.8580058,38.8144998 78.1736921,37.5026724 C79.5441986,36.1361855 81.2436267,35.4802717 83.3816169,35.4802717 C85.1358652,35.4802717 86.7256528,36.1908449 88.2606201,37.6666508 C89.6859469,39.1424567 90.4534305,40.7275815 90.4534305,42.4766848 C90.4534305,44.6084044 89.7407671,46.3028482 88.3702606,47.6693351 C86.9449338,49.035822 85.300326,49.7463952 83.3816169,49.7463952 C81.2436267,49.7463952 79.5441986,49.035822 78.1736921,47.7239946 C76.8580058,46.4121671 76.1453424,44.6630639 76.1453424,42.4766848 Z" id="Shape"></path>
        </g>
        <path d="M84.2431186,223.444169 C82.8993606,223.344301 81.6056988,223.126407 80.3857079,222.793514 C74.0617939,221.077598 69.6827928,216.311166 68.6631869,210.028554 C68.3626094,208.18856 68.4628019,205.307516 68.8841997,203.664232 C69.2054051,202.405288 69.9833703,200.607662 70.6110467,199.669507 C71.6689615,198.092802 73.4753731,196.600833 75.2788379,195.823072 C76.7610973,195.181495 77.5596904,195.012022 79.4279856,194.945443 C80.910245,194.89097 81.2756529,194.91518 82.1331827,195.136101 C85.8638795,196.09544 88.8873351,199.294246 90.198678,203.676337 C90.4933617,204.665939 90.5198833,204.917123 90.525777,206.863037 C90.5316706,208.712111 90.4992554,209.096451 90.2664552,209.919607 C89.7507586,211.744469 88.8696541,213.215254 87.4610656,214.592224 C85.3982791,216.613796 82.981872,217.827345 79.7197225,218.48708 L78.3199746,218.771553 L79.3130589,219.204314 C84.6144202,221.53457 90.4845212,221.310623 95.9567991,218.574843 C100.745411,216.184061 104.449586,211.856443 105.72262,207.165668 C106.032038,206.030803 106.049719,205.821988 106.040878,203.664232 L106.032038,201.370292 L104.243307,192.497162 C103.26201,187.61573 102.431002,183.533243 102.398587,183.421269 C102.345544,183.24877 102.221776,183.27298 101.373087,183.627058 C95.8890219,185.917972 87.5907265,185.887709 80.0173532,183.5514 C69.6415371,180.352595 61.1723251,173.331564 56.757962,164.270803 C55.3817887,161.441207 54.577302,158.735689 54.1323294,155.427936 C53.9319445,153.938994 53.9643597,149.995717 54.194213,148.122433 C55.4230444,138.099307 60.5976917,128.048944 70.351725,116.730559 C73.386968,113.207938 80.0320874,106.616643 84.4847594,102.709682 C85.6693882,101.671659 85.7194844,101.60508 85.6281324,101.26916 C85.4218538,100.491399 84.7057722,96.7175953 84.4847594,95.2377316 C83.4592598,88.3407796 83.4622066,80.3331733 84.490653,73.324248 C86.1055202,62.3145459 89.8922068,53.0631277 95.4027936,46.6715689 C96.4076653,45.5034147 98.5352822,43.5 98.7680824,43.5 C98.8417534,43.5 99.4871109,44.3836814 100.197299,45.4640728 C106.792322,55.456936 110.281378,64.3573026 111.236153,73.6056945 C111.4719,75.9177925 111.40707,81.3439596 111.112386,83.4593477 C110.145823,90.4440625 107.891492,96.5057539 104.025241,102.509945 C101.496854,106.441117 97.6895398,110.907945 93.8026607,114.50925 C92.9156625,115.332405 91.9815149,116.197929 91.7280868,116.433981 L91.2683801,116.863716 L93.3046451,126.877763 L95.3379632,136.894837 L96.3457817,136.816153 C99.1806397,136.58918 102.174627,136.755627 104.314031,137.254967 C107.163623,137.923781 110.369783,139.44904 112.768509,141.273902 C114.106373,142.293767 116.334183,144.572576 117.274224,145.885993 C119.522661,149.021246 120.990187,152.758734 121.399797,156.387276 C121.603129,158.181875 121.482309,161.674233 121.169944,163.12686 C119.935219,168.873815 116.28114,174.278798 110.714563,178.585232 C109.33839,179.650492 107.331593,180.936672 105.872909,181.690222 C104.885718,182.201668 104.80026,182.271273 104.86509,182.537588 C104.988857,183.042981 106.571309,190.735851 107.163623,193.704658 C107.473041,195.263206 107.950429,197.844645 108.224485,199.439508 C108.707767,202.24792 108.722501,202.393183 108.65767,204.208967 C108.539797,207.658956 107.673426,210.355395 105.716726,213.384727 C101.988976,219.149841 95.3114416,222.826803 87.5229492,223.398775 C85.8786137,223.519827 85.3481828,223.528906 84.2431186,223.444169 Z M94.1179723,182.828113 C95.5825507,182.655614 97.4390586,182.256141 98.6413684,181.850616 C100.114787,181.357328 101.891731,180.4797 101.821006,180.279963 C101.788591,180.1922 100.282757,172.847355 98.4733987,163.956067 C96.6640402,155.06478 95.1552592,147.762303 95.1198972,147.725987 C95.0845351,147.689671 94.4833802,147.774408 93.7849796,147.916644 C88.6604286,148.954667 84.455291,151.893211 82.6135173,155.724514 C82.0329903,156.932011 81.8119774,157.721877 81.6616887,159.101872 C81.3434302,162.034363 82.2864183,165.254353 84.2165971,167.808555 C85.3393423,169.297498 87.0514551,170.889335 88.6221197,171.9092 C89.2232746,172.299594 89.3382013,172.490251 88.9168035,172.399462 C88.7694616,172.369199 88.253765,172.257226 87.7704836,172.154331 C83.9720096,171.334202 80.2973028,169.185525 78.2138884,166.570796 C76.3839021,164.270803 75.4556482,161.880021 75.1904328,158.772005 C74.8515464,154.81057 75.8888333,150.991372 78.3170277,147.247831 C79.8847455,144.829812 82.5899426,142.196926 85.3010334,140.453773 C87.2636275,139.188777 90.2399337,137.899571 92.2673581,137.43352 C92.6386597,137.348783 92.942184,137.239836 92.942184,137.194441 C92.942184,137.06431 89.1849657,118.685552 89.1230821,118.510027 C89.0317302,118.252791 83.9395944,122.429093 80.5094751,125.570399 C78.6176052,127.304473 74.5922247,131.495907 73.1305931,133.254191 C68.7191768,138.559305 65.8695846,143.33179 64.2753453,148.074012 C62.6722655,152.855576 62.2744424,157.458588 63.0936634,161.813443 C64.0896946,167.109479 67.5050796,172.650645 72.0726783,176.382081 C78.275772,181.448118 86.1762443,183.757189 94.1179723,182.828113 Z M105.757982,177.79234 C109.986694,174.160772 112.488559,170.029864 113.228216,165.469221 C113.47575,163.940936 113.41092,160.71792 113.107395,159.29253 C111.869724,153.518337 108.091877,149.060588 103.111721,147.499014 C102.130424,147.190331 101.903518,147.16612 99.9703923,147.163094 C98.7445077,147.163094 97.8457222,147.208489 97.7838386,147.28112 C97.721955,147.350725 98.9861484,153.693863 100.951689,163.157123 C102.74926,171.821437 104.222679,178.927204 104.225626,178.948389 C104.237413,179.04523 104.75311,178.654837 105.757982,177.79234 Z M91.9255249,96.0245712 C100.43894,87.5024928 105.469192,79.2043611 106.518266,71.9442524 C106.754013,70.310047 106.751066,67.6438712 106.509425,66.1912442 C106.026144,63.2920428 104.844462,60.7469193 102.834719,58.2925849 C102.036126,57.3181143 101.915305,57.2666671 100.406524,57.2695816 C98.7445077,57.2727197 97.2327799,58.0625857 95.6650622,59.7452119 C93.0659512,62.5263874 90.8941317,67.0718993 89.2939987,73.0609594 C87.0691362,81.3984331 86.3854698,91.8270844 87.6054606,98.8904832 L87.7970051,100.00719 L88.9875276,98.8904832 C89.6417256,98.276143 90.961909,96.9869366 91.9255249,96.0245712 Z" id="G-Clef" fill="#000000"></path>
        <g id="Group" transform="translate(42.000000, 55.500000)" stroke="#000000" stroke-width="1.5">
            <line x1="0" y1="15.75" x2="1099.5" y2="15.75" id="horizon"></line>
            <line x1="0" y1="45.75" x2="1099.5" y2="45.75" id="horizon"></line>
            <line x1="0" y1="75.75" x2="1099.5" y2="75.75" id="horizon"></line>
            <line x1="0" y1="105.75" x2="1099.5" y2="105.75" id="horizon"></line>
            <line x1="0" y1="135.75" x2="1099.5" y2="135.75" id="horizon"></line>
        </g>
        <line x1="442.5" y1="252.75" x2="801" y2="252.75" id="bar" stroke="#000000" stroke-width="1.5" stroke-linecap="round" stroke-linejoin="round" transform="translate(621.750000, 252.750000) rotate(90.000000) translate(-621.750000, -252.750000) "></line>
        <line x1="963" y1="252.75" x2="1321.5" y2="252.75" id="bar" stroke="#000000" stroke-width="1.5" stroke-linecap="round" stroke-linejoin="round" transform="translate(1142.250000, 252.750000) rotate(90.000000) translate(-1142.250000, -252.750000) "></line>
        <g id="Group" transform="translate(247.500000, 325.500000)" fill="#0C0C0C" fill-rule="nonzero">
            <g id="Note">
                <path d="M13.7897587,3.44148254 C4.34688178,8.45468647 -0.683201976,17.5280347 2.4115925,24.3537047 C5.7121505,31.6366229 17.0569497,33.6914856 27.7316271,28.9427144 C38.4090852,24.1939432 44.3929106,14.4264591 41.0923526,7.14629534 C37.7917946,-0.136622903 26.4469955,-2.19148561 15.772318,2.55728558 C15.1049769,2.85477241 14.4181716,3.10543261 13.7897587,3.44148254 Z" id="note" transform="translate(21.750000, 15.750000) rotate(-180.000000) translate(-21.750000, -15.750000) "></path>
            </g>
        </g>
        <g id="Note" transform="translate(247.500000, 130.500000)" fill="#FF5500">
            <path d="M13.7897587,3.44148254 C4.34688178,8.45468647 -0.683201976,17.5280347 2.4115925,24.3537047 C5.7121505,31.6366229 17.0569497,33.6914856 27.7316271,28.9427144 C38.4090852,24.1939432 44.3929106,14.4264591 41.0923526,7.14629534 C37.7917946,-0.136622903 26.4469955,-2.19148561 15.772318,2.55728558 C15.1049769,2.85477241 14.4181716,3.10543261 13.7897587,3.44148254 Z" id="note" transform="translate(21.750000, 15.750000) rotate(-180.000000) translate(-21.750000, -15.750000) "></path>
        </g>
        <path d="M414,501 L395.37931,487.5 L395.37931,496.78125 L371.793103,496.78125 L371.793103,505.21875 L395.37931,505.21875 L395.37931,514.5 L414,501 Z M364.344828,496.78125 C362.97931,496.78125 361.862069,497.540625 361.862069,498.46875 L361.862069,503.53125 C361.862069,504.459375 362.97931,505.21875 364.344828,505.21875 C365.710345,505.21875 366.827586,504.459375 366.827586,503.53125 L366.827586,498.46875 C366.827586,497.540625 365.710345,496.78125 364.344828,496.78125 M354.413793,496.78125 C353.048276,496.78125 351.931034,497.540625 351.931034,498.46875 L351.931034,503.53125 C351.931034,504.459375 353.048276,505.21875 354.413793,505.21875 C355.77931,505.21875 356.896552,504.459375 356.896552,503.53125 L356.896552,498.46875 C356.896552,497.540625 355.77931,496.78125 354.413793,496.78125 M344.482759,496.78125 C343.117241,496.78125 342,497.540625 342,498.46875 L342,503.53125 C342,504.459375 343.117241,505.21875 344.482759,505.21875 C345.848276,505.21875 346.965517,504.459375 346.965517,503.53125 L346.965517,498.46875 C346.965517,497.540625 345.848276,496.78125 344.482759,496.78125" id="Combined-Shape" fill="#000000" transform="translate(378.000000, 501.000000) scale(-1, 1) translate(-378.000000, -501.000000) "></path>
        <path d="M420,525 L401.37931,511.5 L401.37931,520.78125 L377.793103,520.78125 L377.793103,529.21875 L401.37931,529.21875 L401.37931,538.5 L420,525 Z M370.344828,520.78125 C368.97931,520.78125 367.862069,521.540625 367.862069,522.46875 L367.862069,527.53125 C367.862069,528.459375 368.97931,529.21875 370.344828,529.21875 C371.710345,529.21875 372.827586,528.459375 372.827586,527.53125 L372.827586,522.46875 C372.827586,521.540625 371.710345,520.78125 370.344828,520.78125 M360.413793,520.78125 C359.048276,520.78125 357.931034,521.540625 357.931034,522.46875 L357.931034,527.53125 C357.931034,528.459375 359.048276,529.21875 360.413793,529.21875 C361.77931,529.21875 362.896552,528.459375 362.896552,527.53125 L362.896552,522.46875 C362.896552,521.540625 361.77931,520.78125 360.413793,520.78125 M350.482759,520.78125 C349.117241,520.78125 348,521.540625 348,522.46875 L348,527.53125 C348,528.459375 349.117241,529.21875 350.482759,529.21875 C351.848276,529.21875 352.965517,528.459375 352.965517,527.53125 L352.965517,522.46875 C352.965517,521.540625 351.848276,520.78125 350.482759,520.78125" id="Combined-Shape" fill="#000000"></path>
        <path d="M919.5,501 L900.87931,487.5 L900.87931,496.78125 L877.293103,496.78125 L877.293103,505.21875 L900.87931,505.21875 L900.87931,514.5 L919.5,501 Z M869.844828,496.78125 C868.47931,496.78125 867.362069,497.540625 867.362069,498.46875 L867.362069,503.53125 C867.362069,504.459375 868.47931,505.21875 869.844828,505.21875 C871.210345,505.21875 872.327586,504.459375 872.327586,503.53125 L872.327586,498.46875 C872.327586,497.540625 871.210345,496.78125 869.844828,496.78125 M859.913793,496.78125 C858.548276,496.78125 857.431034,497.540625 857.431034,498.46875 L857.431034,503.53125 C857.431034,504.459375 858.548276,505.21875 859.913793,505.21875 C861.27931,505.21875 862.396552,504.459375 862.396552,503.53125 L862.396552,498.46875 C862.396552,497.540625 861.27931,496.78125 859.913793,496.78125 M849.982759,496.78125 C848.617241,496.78125 847.5,497.540625 847.5,498.46875 L847.5,503.53125 C847.5,504.459375 848.617241,505.21875 849.982759,505.21875 C851.348276,505.21875 852.465517,504.459375 852.465517,503.53125 L852.465517,498.46875 C852.465517,497.540625 851.348276,496.78125 849.982759,496.78125" id="Combined-Shape" fill="#000000" transform="translate(883.500000, 501.000000) scale(-1, 1) translate(-883.500000, -501.000000) "></path>
        <path d="M925.5,525 L906.87931,511.5 L906.87931,520.78125 L883.293103,520.78125 L883.293103,529.21875 L906.87931,529.21875 L906.87931,538.5 L925.5,525 Z M875.844828,520.78125 C874.47931,520.78125 873.362069,521.540625 873.362069,522.46875 L873.362069,527.53125 C873.362069,528.459375 874.47931,529.21875 875.844828,529.21875 C877.210345,529.21875 878.327586,528.459375 878.327586,527.53125 L878.327586,522.46875 C878.327586,521.540625 877.210345,520.78125 875.844828,520.78125 M865.913793,520.78125 C864.548276,520.78125 863.431034,521.540625 863.431034,522.46875 L863.431034,527.53125 C863.431034,528.459375 864.548276,529.21875 865.913793,529.21875 C867.27931,529.21875 868.396552,528.459375 868.396552,527.53125 L868.396552,522.46875 C868.396552,521.540625 867.27931,520.78125 865.913793,520.78125 M855.982759,520.78125 C854.617241,520.78125 853.5,521.540625 853.5,522.46875 L853.5,527.53125 C853.5,528.459375 854.617241,529.21875 855.982759,529.21875 C857.348276,529.21875 858.465517,528.459375 858.465517,527.53125 L858.465517,522.46875 C858.465517,521.540625 857.348276,520.78125 855.982759,520.78125" id="Combined-Shape" fill="#000000"></path>
        <g id="ChBlock" transform="translate(945.000000, 477.000000)" fill="#58C322">
            <rect id="Rectangle-Copy" x="0" y="0" width="90" height="60" rx="7.5"></rect>
        </g>
        <g id="Group" transform="translate(976.500000, 495.000000)" fill="#FFFFFF" fill-rule="nonzero">
            <g id="CS-Root">
                <path d="M15.984,24 L15.984,-0.012 L11.052,-0.012 L11.052,24 L15.984,24 Z" id="Combined-Shape"></path>
            </g>
        </g>
        <g id="Group" transform="translate(247.500000, 160.500000)" fill="#0C0C0C" fill-rule="nonzero">
            <g id="Note">
                <path d="M13.7897587,3.44148254 C4.34688178,8.45468647 -0.683201976,17.5280347 2.4115925,24.3537047 C5.7121505,31.6366229 17.0569497,33.6914856 27.7316271,28.9427144 C38.4090852,24.1939432 44.3929106,14.4264591 41.0923526,7.14629534 C37.7917946,-0.136622903 26.4469955,-2.19148561 15.772318,2.55728558 C15.1049769,2.85477241 14.4181716,3.10543261 13.7897587,3.44148254 Z" id="note" transform="translate(21.750000, 15.750000) rotate(-180.000000) translate(-21.750000, -15.750000) "></path>
            </g>
        </g>
        <g id="Note" transform="translate(247.500000, 100.500000)" fill="#FF5500">
            <path d="M13.7897587,3.44148254 C4.34688178,8.45468647 -0.683201976,17.5280347 2.4115925,24.3537047 C5.7121505,31.6366229 17.0569497,33.6914856 27.7316271,28.9427144 C38.4090852,24.1939432 44.3929106,14.4264591 41.0923526,7.14629534 C37.7917946,-0.136622903 26.4469955,-2.19148561 15.772318,2.55728558 C15.1049769,2.85477241 14.4181716,3.10543261 13.7897587,3.44148254 Z" id="note" transform="translate(21.750000, 15.750000) rotate(-180.000000) translate(-21.750000, -15.750000) "></path>
        </g>
        <path d="M300,111.45586 C341,92.6978948 418.5,90.5453442 460.5,111.75" id="Path-25" stroke="#FF5500" stroke-width="3" stroke-linecap="square" stroke-dasharray="9,12" fill-rule="nonzero"></path>
        <path d="M300,141.597004 C341,122.839039 418.5,120.686489 460.5,141.891144" id="Path-25" stroke="#FF5500" stroke-width="3" stroke-linecap="square" stroke-dasharray="9,12" fill-rule="nonzero"></path>
        <path d="M807,186.45586 C848,167.697895 925.5,165.545344 967.5,186.75" id="Path-25" stroke="#FF5500" stroke-width="3" stroke-linecap="square" stroke-dasharray="9,12" fill-rule="nonzero"></path>
        <path d="M807,216.597004 C848,197.839039 925.5,195.686489 967.5,216.891144" id="Path-25" stroke="#FF5500" stroke-width="3" stroke-linecap="square" stroke-dasharray="9,12" fill-rule="nonzero"></path>
        <g id="Group" transform="translate(472.500000, 400.500000)" fill="#0C0C0C" fill-rule="nonzero">
            <g id="Note">
                <path d="M13.7897587,3.44148254 C4.34688178,8.45468647 -0.683201976,17.5280347 2.4115925,24.3537047 C5.7121505,31.6366229 17.0569497,33.6914856 27.7316271,28.9427144 C38.4090852,24.1939432 44.3929106,14.4264591 41.0923526,7.14629534 C37.7917946,-0.136622903 26.4469955,-2.19148561 15.772318,2.55728558 C15.1049769,2.85477241 14.4181716,3.10543261 13.7897587,3.44148254 Z" id="note" transform="translate(21.750000, 15.750000) rotate(-180.000000) translate(-21.750000, -15.750000) "></path>
            </g>
        </g>
        <g id="Group" transform="translate(472.500000, 175.500000)" fill="#0C0C0C" fill-rule="nonzero">
            <g id="Note">
                <path d="M13.7897587,3.44148254 C4.34688178,8.45468647 -0.683201976,17.5280347 2.4115925,24.3537047 C5.7121505,31.6366229 17.0569497,33.6914856 27.7316271,28.9427144 C38.4090852,24.1939432 44.3929106,14.4264591 41.0923526,7.14629534 C37.7917946,-0.136622903 26.4469955,-2.19148561 15.772318,2.55728558 C15.1049769,2.85477241 14.4181716,3.10543261 13.7897587,3.44148254 Z" id="note" transform="translate(21.750000, 15.750000) rotate(-180.000000) translate(-21.750000, -15.750000) "></path>
            </g>
        </g>
        <g id="Note" transform="translate(472.500000, 130.500000)" fill="#FF5500">
            <path d="M13.7897587,3.44148254 C4.34688178,8.45468647 -0.683201976,17.5280347 2.4115925,24.3537047 C5.7121505,31.6366229 17.0569497,33.6914856 27.7316271,28.9427144 C38.4090852,24.1939432 44.3929106,14.4264591 41.0923526,7.14629534 C37.7917946,-0.136622903 26.4469955,-2.19148561 15.772318,2.55728558 C15.1049769,2.85477241 14.4181716,3.10543261 13.7897587,3.44148254 Z" id="note" transform="translate(21.750000, 15.750000) rotate(-180.000000) translate(-21.750000, -15.750000) "></path>
        </g>
        <g id="Note" transform="translate(472.500000, 100.500000)" fill="#FF5500">
            <path d="M13.7897587,3.44148254 C4.34688178,8.45468647 -0.683201976,17.5280347 2.4115925,24.3537047 C5.7121505,31.6366229 17.0569497,33.6914856 27.7316271,28.9427144 C38.4090852,24.1939432 44.3929106,14.4264591 41.0923526,7.14629534 C37.7917946,-0.136622903 26.4469955,-2.19148561 15.772318,2.55728558 C15.1049769,2.85477241 14.4181716,3.10543261 13.7897587,3.44148254 Z" id="note" transform="translate(21.750000, 15.750000) rotate(-180.000000) translate(-21.750000, -15.750000) "></path>
        </g>
        <g id="Group" transform="translate(757.500000, 400.500000)" fill="#0C0C0C" fill-rule="nonzero">
            <g id="Note">
                <path d="M13.7897587,3.44148254 C4.34688178,8.45468647 -0.683201976,17.5280347 2.4115925,24.3537047 C5.7121505,31.6366229 17.0569497,33.6914856 27.7316271,28.9427144 C38.4090852,24.1939432 44.3929106,14.4264591 41.0923526,7.14629534 C37.7917946,-0.136622903 26.4469955,-2.19148561 15.772318,2.55728558 C15.1049769,2.85477241 14.4181716,3.10543261 13.7897587,3.44148254 Z" id="note" transform="translate(21.750000, 15.750000) rotate(-180.000000) translate(-21.750000, -15.750000) "></path>
            </g>
        </g>
        <g id="Note" transform="translate(757.500000, 205.500000)" fill="#FF5500">
            <path d="M13.7897587,3.44148254 C4.34688178,8.45468647 -0.683201976,17.5280347 2.4115925,24.3537047 C5.7121505,31.6366229 17.0569497,33.6914856 27.7316271,28.9427144 C38.4090852,24.1939432 44.3929106,14.4264591 41.0923526,7.14629534 C37.7917946,-0.136622903 26.4469955,-2.19148561 15.772318,2.55728558 C15.1049769,2.85477241 14.4181716,3.10543261 13.7897587,3.44148254 Z" id="note" transform="translate(21.750000, 15.750000) rotate(-180.000000) translate(-21.750000, -15.750000) "></path>
        </g>
        <g id="ChBlock" transform="translate(735.000000, 475.500000)" fill="#58C322">
            <rect id="Rectangle-Copy" x="0" y="0" width="90" height="60" rx="7.5"></rect>
        </g>
        <g id="Group" transform="translate(225.000000, 476.000000)">
            <rect id="Rectangle-Copy" fill="#FFBF00" x="0" y="0" width="90" height="60" rx="7.5"></rect>
            <g transform="translate(31.500000, 18.000000)" fill="#FFFFFF" fill-rule="nonzero" id="CS-A">
                <g>
                    <path d="M6.618,24 L6.618,-0.012 L1.686,-0.012 L1.686,24 L6.618,24 Z M20.202,24 L27.762,-0.012 L22.686,-0.012 L17.61,16.08 L12.75,-0.012 L7.674,-0.012 L14.946,24 L20.202,24 Z" id="Combined-Shape"></path>
                </g>
            </g>
        </g>
        <g id="Group" transform="translate(754.500000, 493.500000)" fill="#FFFFFF" fill-rule="nonzero">
            <g id="CS-Root">
                <path d="M11.766,24 L19.326,-0.012 L14.25,-0.012 L9.174,16.08 L4.314,-0.012 L-0.762,-0.012 L6.51,24 L11.766,24 Z M25.35,24 L25.35,-0.012 L20.418,-0.012 L20.418,24 L25.35,24 Z" id="Combined-Shape"></path>
            </g>
        </g>
        <g id="Group" transform="translate(781.500000, 490.500000)" fill="#FFFFFF" fill-rule="nonzero">
            <g id="CS-minor">
                <path d="M6.70179375,26.5 L6.70179375,17.425 C6.70179375,15.313 7.52679375,14.224 9.11079375,14.224 C10.6287938,14.224 11.4207938,15.313 11.4207938,17.425 L11.4207938,26.5 L15.6117938,26.5 L15.6117938,17.293 C15.6117938,15.346 16.5027938,14.224 18.0537938,14.224 C19.6377938,14.224 20.3967938,15.214 20.3967938,17.293 L20.3967938,26.5 L24.5877938,26.5 L24.5877938,16.501 C24.5877938,14.191 24.2907938,13.135 23.3667938,12.112 C22.5087938,11.188 21.2217938,10.693 19.6707938,10.693 C17.4927938,10.693 16.0737938,11.485 15.0507938,13.234 C14.3247938,11.584 12.8727938,10.693 10.8927938,10.693 C8.94579375,10.693 7.65879375,11.452 6.70179375,13.135 L6.70179375,11.221 L2.51079375,11.221 L2.51079375,26.5 L6.70179375,26.5 Z" id="Combined-Shape"></path>
            </g>
        </g>
        <g id="ChBlock" transform="translate(447.000000, 475.500000)" fill="#58C322">
            <rect id="Rectangle-Copy" x="0" y="0" width="90" height="60" rx="7.5"></rect>
        </g>
        <g id="Group" transform="translate(466.500000, 493.500000)" fill="#FFFFFF" fill-rule="nonzero">
            <g id="CS-Root">
                <path d="M11.766,24 L19.326,-0.012 L14.25,-0.012 L9.174,16.08 L4.314,-0.012 L-0.762,-0.012 L6.51,24 L11.766,24 Z M25.35,24 L25.35,-0.012 L20.418,-0.012 L20.418,24 L25.35,24 Z" id="Combined-Shape"></path>
            </g>
        </g>
        <g id="Group" transform="translate(493.500000, 490.500000)" fill="#FFFFFF" fill-rule="nonzero">
            <g id="CS-minor">
                <path d="M6.70179375,26.5 L6.70179375,17.425 C6.70179375,15.313 7.52679375,14.224 9.11079375,14.224 C10.6287938,14.224 11.4207938,15.313 11.4207938,17.425 L11.4207938,26.5 L15.6117938,26.5 L15.6117938,17.293 C15.6117938,15.346 16.5027938,14.224 18.0537938,14.224 C19.6377938,14.224 20.3967938,15.214 20.3967938,17.293 L20.3967938,26.5 L24.5877938,26.5 L24.5877938,16.501 C24.5877938,14.191 24.2907938,13.135 23.3667938,12.112 C22.5087938,11.188 21.2217938,10.693 19.6707938,10.693 C17.4927938,10.693 16.0737938,11.485 15.0507938,13.234 C14.3247938,11.584 12.8727938,10.693 10.8927938,10.693 C8.94579375,10.693 7.65879375,11.452 6.70179375,13.135 L6.70179375,11.221 L2.51079375,11.221 L2.51079375,26.5 L6.70179375,26.5 Z" id="Combined-Shape"></path>
            </g>
        </g>
        <g id="Group" transform="translate(757.500000, 130.500000)" fill="#0C0C0C" fill-rule="nonzero">
            <g id="Note">
                <path d="M13.7897587,3.44148254 C4.34688178,8.45468647 -0.683201976,17.5280347 2.4115925,24.3537047 C5.7121505,31.6366229 17.0569497,33.6914856 27.7316271,28.9427144 C38.4090852,24.1939432 44.3929106,14.4264591 41.0923526,7.14629534 C37.7917946,-0.136622903 26.4469955,-2.19148561 15.772318,2.55728558 C15.1049769,2.85477241 14.4181716,3.10543261 13.7897587,3.44148254 Z" id="note" transform="translate(21.750000, 15.750000) rotate(-180.000000) translate(-21.750000, -15.750000) "></path>
            </g>
        </g>
        <g id="Note" transform="translate(757.500000, 175.500000)" fill="#FF5500">
            <path d="M13.7897587,3.44148254 C4.34688178,8.45468647 -0.683201976,17.5280347 2.4115925,24.3537047 C5.7121505,31.6366229 17.0569497,33.6914856 27.7316271,28.9427144 C38.4090852,24.1939432 44.3929106,14.4264591 41.0923526,7.14629534 C37.7917946,-0.136622903 26.4469955,-2.19148561 15.772318,2.55728558 C15.1049769,2.85477241 14.4181716,3.10543261 13.7897587,3.44148254 Z" id="note" transform="translate(21.750000, 15.750000) rotate(-180.000000) translate(-21.750000, -15.750000) "></path>
        </g>
        <g id="Group" transform="translate(967.500000, 370.500000)" fill="#0C0C0C" fill-rule="nonzero">
            <g id="Note">
                <path d="M13.7897587,3.44148254 C4.34688178,8.45468647 -0.683201976,17.5280347 2.4115925,24.3537047 C5.7121505,31.6366229 17.0569497,33.6914856 27.7316271,28.9427144 C38.4090852,24.1939432 44.3929106,14.4264591 41.0923526,7.14629534 C37.7917946,-0.136622903 26.4469955,-2.19148561 15.772318,2.55728558 C15.1049769,2.85477241 14.4181716,3.10543261 13.7897587,3.44148254 Z" id="note" transform="translate(21.750000, 15.750000) rotate(-180.000000) translate(-21.750000, -15.750000) "></path>
            </g>
        </g>
        <g id="Note" transform="translate(967.500000, 205.500000)" fill="#FF5500">
            <path d="M13.7897587,3.44148254 C4.34688178,8.45468647 -0.683201976,17.5280347 2.4115925,24.3537047 C5.7121505,31.6366229 17.0569497,33.6914856 27.7316271,28.9427144 C38.4090852,24.1939432 44.3929106,14.4264591 41.0923526,7.14629534 C37.7917946,-0.136622903 26.4469955,-2.19148561 15.772318,2.55728558 C15.1049769,2.85477241 14.4181716,3.10543261 13.7897587,3.44148254 Z" id="note" transform="translate(21.750000, 15.750000) rotate(-180.000000) translate(-21.750000, -15.750000) "></path>
        </g>
        <g id="Note" transform="translate(967.500000, 175.500000)" fill="#FF5500">
            <path d="M13.7897587,3.44148254 C4.34688178,8.45468647 -0.683201976,17.5280347 2.4115925,24.3537047 C5.7121505,31.6366229 17.0569497,33.6914856 27.7316271,28.9427144 C38.4090852,24.1939432 44.3929106,14.4264591 41.0923526,7.14629534 C37.7917946,-0.136622903 26.4469955,-2.19148561 15.772318,2.55728558 C15.1049769,2.85477241 14.4181716,3.10543261 13.7897587,3.44148254 Z" id="note" transform="translate(21.750000, 15.750000) rotate(-180.000000) translate(-21.750000, -15.750000) "></path>
        </g>
        <g id="Group" transform="translate(967.500000, 145.500000)" fill="#0C0C0C" fill-rule="nonzero">
            <g id="Note">
                <path d="M13.7897587,3.44148254 C4.34688178,8.45468647 -0.683201976,17.5280347 2.4115925,24.3537047 C5.7121505,31.6366229 17.0569497,33.6914856 27.7316271,28.9427144 C38.4090852,24.1939432 44.3929106,14.4264591 41.0923526,7.14629534 C37.7917946,-0.136622903 26.4469955,-2.19148561 15.772318,2.55728558 C15.1049769,2.85477241 14.4181716,3.10543261 13.7897587,3.44148254 Z" id="note" transform="translate(21.750000, 15.750000) rotate(-180.000000) translate(-21.750000, -15.750000) "></path>
            </g>
        </g>
        <g id="Group" transform="translate(367.511641, 543.125934)" fill="#0C0C0C" fill-rule="nonzero">
            <g id="Nexus">
                <path d="M12.5347224,28.5129341 C17.5267224,28.5129341 21.1927224,24.7689341 21.1927224,19.6989341 C21.1927224,15.2919341 18.4627224,12.2109341 14.2507224,11.8599341 L21.4657224,2.14893407 L5.63172235,2.14893407 L5.63172235,6.43893407 L13.1197224,6.43893407 L7.19172235,14.3559341 L9.99972235,16.7349341 C10.7407224,16.2669341 11.4817224,16.0719341 12.3787224,16.0719341 C14.7187224,16.0719341 16.3957224,17.7489341 16.3957224,20.0499341 C16.3957224,22.3119341 14.6407224,24.0279341 12.4177224,24.0279341 C10.5067224,24.0279341 9.14172235,22.8189341 8.82972235,20.7909341 L4.34472235,20.9469341 C4.57872235,22.8969341 4.89072235,23.9109341 5.67072235,25.0809341 C7.11372235,27.2649341 9.64872235,28.5129341 12.5347224,28.5129341 Z M29.9690672,13.8879341 C33.2450672,13.8879341 35.9360672,11.1969341 35.9360672,7.95993407 C35.9360672,4.56693407 33.2840672,1.87593407 29.9690672,1.87593407 C26.6150672,1.87593407 23.9240672,4.56693407 23.9240672,7.88193407 C23.9240672,11.1969341 26.6150672,13.8879341 29.9690672,13.8879341 Z M29.9300672,11.7819341 C27.8240672,11.7819341 26.1080672,10.0269341 26.1080672,7.88193407 C26.1080672,5.77593407 27.8240672,3.98193407 29.8910672,3.98193407 C32.0360672,3.98193407 33.7520672,5.73693407 33.7520672,7.95993407 C33.7520672,10.0269341 31.9970672,11.7819341 29.9300672,11.7819341 Z" id="Combined-Shape"></path>
            </g>
        </g>
        <g id="Group" transform="translate(879.511641, 543.125934)" fill="#0C0C0C" fill-rule="nonzero">
            <g id="Nexus">
                <path d="M12.5347224,28.5129341 C17.5267224,28.5129341 21.1927224,24.7689341 21.1927224,19.6989341 C21.1927224,15.2919341 18.4627224,12.2109341 14.2507224,11.8599341 L21.4657224,2.14893407 L5.63172235,2.14893407 L5.63172235,6.43893407 L13.1197224,6.43893407 L7.19172235,14.3559341 L9.99972235,16.7349341 C10.7407224,16.2669341 11.4817224,16.0719341 12.3787224,16.0719341 C14.7187224,16.0719341 16.3957224,17.7489341 16.3957224,20.0499341 C16.3957224,22.3119341 14.6407224,24.0279341 12.4177224,24.0279341 C10.5067224,24.0279341 9.14172235,22.8189341 8.82972235,20.7909341 L4.34472235,20.9469341 C4.57872235,22.8969341 4.89072235,23.9109341 5.67072235,25.0809341 C7.11372235,27.2649341 9.64872235,28.5129341 12.5347224,28.5129341 Z M29.9690672,13.8879341 C33.2450672,13.8879341 35.9360672,11.1969341 35.9360672,7.95993407 C35.9360672,4.56693407 33.2840672,1.87593407 29.9690672,1.87593407 C26.6150672,1.87593407 23.9240672,4.56693407 23.9240672,7.88193407 C23.9240672,11.1969341 26.6150672,13.8879341 29.9690672,13.8879341 Z M29.9300672,11.7819341 C27.8240672,11.7819341 26.1080672,10.0269341 26.1080672,7.88193407 C26.1080672,5.77593407 27.8240672,3.98193407 29.8910672,3.98193407 C32.0360672,3.98193407 33.7520672,5.73693407 33.7520672,7.95993407 C33.7520672,10.0269341 31.9970672,11.7819341 29.9300672,11.7819341 Z" id="Combined-Shape"></path>
            </g>
        </g>
        <g id="do-line" transform="translate(744.000000, 220.000000)" fill="#FF5500">
            <rect id="Rectangle" x="0" y="0" width="68" height="3"></rect>
        </g>
        <g id="do-line" transform="translate(955.000000, 220.000000)" fill="#FF5500">
            <rect id="Rectangle" x="0" y="0" width="68" height="3"></rect>
        </g>
    </g>
</svg>