<?xml version="1.0" encoding="UTF-8"?>
<svg width="1400px" height="180px" viewBox="0 0 1400 180" version="1.1" xmlns="http://www.w3.org/2000/svg" xmlns:xlink="http://www.w3.org/1999/xlink">
    <title>nexus-5b</title>
    <g id="nexus-5b" stroke="none" stroke-width="1" fill="none" fill-rule="evenodd">
        <path id="Path-26" d="M259.143072,94.2238439 L269.492075,87.6652331 L272.767643,119.922335 L244.99662,103.188529 L254.892453,96.9168665 C233.99345,71.0608386 205.84268,58.2824215 167.299116,59.4570852 L166.094405,59.4982169 L163.596188,59.5926216 L163.407378,54.5961877 L165.905595,54.5017831 C206.866616,52.953915 237.000909,66.5699726 259.143072,94.2238439 Z" fill="#000000" fill-rule="nonzero"></path>
        <g id="Group-5" transform="translate(280.000000, 50.000000)">
            <rect id="Rectangle-Copy" fill="#58C322" x="0" y="0" width="120" height="80" rx="10"></rect>
            <g id="Group" transform="translate(26.000000, 24.000000)" fill="#FFFFFF" fill-rule="nonzero">
                <g id="CS-A">
                    <path d="M15.688,32 L25.768,-0.016 L19,-0.016 L12.232,21.44 L5.752,-0.016 L-1.016,-0.016 L8.68,32 L15.688,32 Z M33.8,32 L33.8,-0.016 L27.224,-0.016 L27.224,32 L33.8,32 Z" id="Combined-Shape"></path>
                </g>
            </g>
            <g id="Group" transform="translate(64.000000, 20.000000)" fill="#FFFFFF" fill-rule="nonzero">
                <g id="CS-minor">
                    <path d="M8.935725,35 L8.935725,22.9 C8.935725,20.084 10.035725,18.632 12.147725,18.632 C14.171725,18.632 15.227725,20.084 15.227725,22.9 L15.227725,35 L20.815725,35 L20.815725,22.724 C20.815725,20.128 22.003725,18.632 24.071725,18.632 C26.183725,18.632 27.195725,19.952 27.195725,22.724 L27.195725,35 L32.783725,35 L32.783725,21.668 C32.783725,18.588 32.387725,17.18 31.155725,15.816 C30.011725,14.584 28.295725,13.924 26.227725,13.924 C23.323725,13.924 21.431725,14.98 20.067725,17.312 C19.099725,15.112 17.163725,13.924 14.523725,13.924 C11.927725,13.924 10.211725,14.936 8.935725,17.18 L8.935725,14.628 L3.347725,14.628 L3.347725,35 L8.935725,35 Z" id="Combined-Shape"></path>
                </g>
            </g>
        </g>
        <g id="Group-2" transform="translate(996.000000, 50.000000)">
            <rect id="Rectangle-Copy" fill="#58C322" x="0" y="0" width="120" height="80" rx="10"></rect>
            <g id="Group" transform="translate(42.000000, 24.000000)" fill="#FFFFFF" fill-rule="nonzero">
                <g id="CS-A">
                    <path d="M21.312,32 L21.312,-0.016 L14.736,-0.016 L14.736,32 L21.312,32 Z" id="Combined-Shape"></path>
                </g>
            </g>
        </g>
        <g id="Group-3" transform="translate(758.000000, 50.000000)">
            <rect id="Rectangle-Copy" fill="#FF5500" x="0" y="0" width="120" height="80" rx="10"></rect>
            <g id="Group" transform="translate(42.000000, 26.000000)" fill="#FFFFFF" fill-rule="nonzero">
                <g id="CS-A">
                    <path d="M21.312,32 L31.392,-0.016 L24.624,-0.016 L17.856,21.44 L11.376,-0.016 L4.608,-0.016 L14.304,32 L21.312,32 Z" id="Combined-Shape"></path>
                </g>
            </g>
        </g>
        <g id="Group" transform="translate(1240.000000, 50.000000)">
            <rect id="Rectangle-Copy" fill="#FFBF00" x="0" y="0" width="120" height="80" rx="10"></rect>
            <g transform="translate(42.000000, 24.000000)" fill="#FFFFFF" fill-rule="nonzero" id="CS-A">
                <g>
                    <path d="M8.824,32 L8.824,-0.016 L2.248,-0.016 L2.248,32 L8.824,32 Z M26.936,32 L37.016,-0.016 L30.248,-0.016 L23.48,21.44 L17,-0.016 L10.232,-0.016 L19.928,32 L26.936,32 Z" id="Combined-Shape"></path>
                </g>
            </g>
        </g>
        <g id="Group-4" transform="translate(518.000000, 50.000000)">
            <rect id="Rectangle-Copy" fill="#FFBF00" x="0" y="0" width="120" height="80" rx="10"></rect>
            <g id="Group" transform="translate(23.000000, 24.000000)" fill="#FFFFFF" fill-rule="nonzero">
                <g id="CS-A">
                    <path d="M15.688,32 L15.688,-0.016 L9.112,-0.016 L9.112,32 L15.688,32 Z M26.936,32 L26.936,-0.016 L20.36,-0.016 L20.36,32 L26.936,32 Z" id="Combined-Shape"></path>
                </g>
            </g>
            <g id="Group" transform="translate(54.000000, 21.000000)" fill="#FFFFFF" fill-rule="nonzero">
                <g id="CS-minor">
                    <path d="M8.935725,35 L8.935725,22.9 C8.935725,20.084 10.035725,18.632 12.147725,18.632 C14.171725,18.632 15.227725,20.084 15.227725,22.9 L15.227725,35 L20.815725,35 L20.815725,22.724 C20.815725,20.128 22.003725,18.632 24.071725,18.632 C26.183725,18.632 27.195725,19.952 27.195725,22.724 L27.195725,35 L32.783725,35 L32.783725,21.668 C32.783725,18.588 32.387725,17.18 31.155725,15.816 C30.011725,14.584 28.295725,13.924 26.227725,13.924 C23.323725,13.924 21.431725,14.98 20.067725,17.312 C19.099725,15.112 17.163725,13.924 14.523725,13.924 C11.927725,13.924 10.211725,14.936 8.935725,17.18 L8.935725,14.628 L3.347725,14.628 L3.347725,35 L8.935725,35 Z" id="Combined-Shape"></path>
                </g>
            </g>
        </g>
        <g id="Group" transform="translate(187.511641, 84.125934)" fill="#0C0C0C" fill-rule="nonzero">
            <g id="Nexus">
                <path d="M38.216,16.48 L31,29.04 L23.8,16.48 L38.216,16.48 Z M19.3597224,2.14893407 L19.3597224,6.67293407 L10.6627224,6.67293407 L10.6627224,12.2499341 C11.8717224,11.7429341 12.7297224,11.5479341 13.8607224,11.5479341 C18.1897224,11.5479341 21.4267224,15.0579341 21.4267224,19.6989341 C21.4267224,24.8469341 17.8387224,28.5129341 12.8857224,28.5129341 C10.5457224,28.5129341 8.43972235,27.6939341 6.87972235,26.1729341 C5.94372235,25.1979341 5.43672235,24.4179341 4.73472235,22.5849341 L4.73472235,22.5849341 L9.10272235,20.9469341 C9.84372235,22.8969341 10.9747224,23.7939341 12.7297224,23.7939341 C14.8747224,23.7939341 16.5517224,22.0779341 16.5517224,19.8159341 C16.5517224,17.5539341 14.8747224,15.7989341 12.6907224,15.7989341 C11.3257224,15.7989341 10.3117224,16.3059341 9.37572235,17.5539341 L9.37572235,17.5539341 L6.09972235,17.5539341 L6.09972235,2.14893407 L19.3597224,2.14893407 Z" id="Combined-Shape"></path>
            </g>
        </g>
        <path id="Path-26" d="M500.643072,94.2238439 L510.992075,87.6652331 L514.267643,119.922335 L486.49662,103.188529 L496.392453,96.9168665 C475.49345,71.0608386 447.34268,58.2824215 408.799116,59.4570852 L407.594405,59.4982169 L405.096188,59.5926216 L404.907378,54.5961877 L407.405595,54.5017831 C448.366616,52.953915 478.500909,66.5699726 500.643072,94.2238439 Z" fill="#000000" fill-rule="nonzero"></path>
        <g id="Group" transform="translate(429.011641, 84.125934)" fill="#0C0C0C" fill-rule="nonzero">
            <g id="Nexus">
                <path d="M38.216,16.48 L31,29.04 L23.8,16.48 L38.216,16.48 Z M19.3597224,2.14893407 L19.3597224,6.67293407 L10.6627224,6.67293407 L10.6627224,12.2499341 C11.8717224,11.7429341 12.7297224,11.5479341 13.8607224,11.5479341 C18.1897224,11.5479341 21.4267224,15.0579341 21.4267224,19.6989341 C21.4267224,24.8469341 17.8387224,28.5129341 12.8857224,28.5129341 C10.5457224,28.5129341 8.43972235,27.6939341 6.87972235,26.1729341 C5.94372235,25.1979341 5.43672235,24.4179341 4.73472235,22.5849341 L4.73472235,22.5849341 L9.10272235,20.9469341 C9.84372235,22.8969341 10.9747224,23.7939341 12.7297224,23.7939341 C14.8747224,23.7939341 16.5517224,22.0779341 16.5517224,19.8159341 C16.5517224,17.5539341 14.8747224,15.7989341 12.6907224,15.7989341 C11.3257224,15.7989341 10.3117224,16.3059341 9.37572235,17.5539341 L9.37572235,17.5539341 L6.09972235,17.5539341 L6.09972235,2.14893407 L19.3597224,2.14893407 Z" id="Combined-Shape"></path>
            </g>
        </g>
        <path id="Path-26" d="M737.143072,94.2238439 L747.492075,87.6652331 L750.767643,119.922335 L722.99662,103.188529 L732.892453,96.9168665 C711.99345,71.0608386 683.84268,58.2824215 645.299116,59.4570852 L644.094405,59.4982169 L641.596188,59.5926216 L641.407378,54.5961877 L643.905595,54.5017831 C684.866616,52.953915 715.000909,66.5699726 737.143072,94.2238439 Z" fill="#000000" fill-rule="nonzero"></path>
        <g id="Group" transform="translate(665.511641, 84.125934)" fill="#0C0C0C" fill-rule="nonzero">
            <g id="Nexus">
                <path d="M38.216,16.48 L31,29.04 L23.8,16.48 L38.216,16.48 Z M19.3597224,2.14893407 L19.3597224,6.67293407 L10.6627224,6.67293407 L10.6627224,12.2499341 C11.8717224,11.7429341 12.7297224,11.5479341 13.8607224,11.5479341 C18.1897224,11.5479341 21.4267224,15.0579341 21.4267224,19.6989341 C21.4267224,24.8469341 17.8387224,28.5129341 12.8857224,28.5129341 C10.5457224,28.5129341 8.43972235,27.6939341 6.87972235,26.1729341 C5.94372235,25.1979341 5.43672235,24.4179341 4.73472235,22.5849341 L4.73472235,22.5849341 L9.10272235,20.9469341 C9.84372235,22.8969341 10.9747224,23.7939341 12.7297224,23.7939341 C14.8747224,23.7939341 16.5517224,22.0779341 16.5517224,19.8159341 C16.5517224,17.5539341 14.8747224,15.7989341 12.6907224,15.7989341 C11.3257224,15.7989341 10.3117224,16.3059341 9.37572235,17.5539341 L9.37572235,17.5539341 L6.09972235,17.5539341 L6.09972235,2.14893407 L19.3597224,2.14893407 Z" id="Combined-Shape"></path>
            </g>
        </g>
        <path id="Path-26" d="M976.643072,94.2238439 L986.992075,87.6652331 L990.267643,119.922335 L962.49662,103.188529 L972.392453,96.9168665 C951.49345,71.0608386 923.34268,58.2824215 884.799116,59.4570852 L883.594405,59.4982169 L881.096188,59.5926216 L880.907378,54.5961877 L883.405595,54.5017831 C924.366616,52.953915 954.500909,66.5699726 976.643072,94.2238439 Z" fill="#000000" fill-rule="nonzero"></path>
        <g id="Group" transform="translate(905.011641, 84.125934)" fill="#0C0C0C" fill-rule="nonzero">
            <g id="Nexus">
                <path d="M38.216,16.48 L31,29.04 L23.8,16.48 L38.216,16.48 Z M19.3597224,2.14893407 L19.3597224,6.67293407 L10.6627224,6.67293407 L10.6627224,12.2499341 C11.8717224,11.7429341 12.7297224,11.5479341 13.8607224,11.5479341 C18.1897224,11.5479341 21.4267224,15.0579341 21.4267224,19.6989341 C21.4267224,24.8469341 17.8387224,28.5129341 12.8857224,28.5129341 C10.5457224,28.5129341 8.43972235,27.6939341 6.87972235,26.1729341 C5.94372235,25.1979341 5.43672235,24.4179341 4.73472235,22.5849341 L4.73472235,22.5849341 L9.10272235,20.9469341 C9.84372235,22.8969341 10.9747224,23.7939341 12.7297224,23.7939341 C14.8747224,23.7939341 16.5517224,22.0779341 16.5517224,19.8159341 C16.5517224,17.5539341 14.8747224,15.7989341 12.6907224,15.7989341 C11.3257224,15.7989341 10.3117224,16.3059341 9.37572235,17.5539341 L9.37572235,17.5539341 L6.09972235,17.5539341 L6.09972235,2.14893407 L19.3597224,2.14893407 Z" id="Combined-Shape"></path>
            </g>
        </g>
        <path id="Path-26" d="M1220.14307,94.2238439 L1230.49207,87.6652331 L1233.76764,119.922335 L1205.99662,103.188529 L1215.89245,96.9168665 C1194.99345,71.0608386 1166.84268,58.2824215 1128.29912,59.4570852 L1127.0944,59.4982169 L1124.59619,59.5926216 L1124.40738,54.5961877 L1126.9056,54.5017831 C1167.86662,52.953915 1198.00091,66.5699726 1220.14307,94.2238439 Z" fill="#000000" fill-rule="nonzero"></path>
        <g id="Group" transform="translate(1148.511641, 84.125934)" fill="#0C0C0C" fill-rule="nonzero">
            <g id="Nexus">
                <path d="M38.216,16.48 L31,29.04 L23.8,16.48 L38.216,16.48 Z M19.3597224,2.14893407 L19.3597224,6.67293407 L10.6627224,6.67293407 L10.6627224,12.2499341 C11.8717224,11.7429341 12.7297224,11.5479341 13.8607224,11.5479341 C18.1897224,11.5479341 21.4267224,15.0579341 21.4267224,19.6989341 C21.4267224,24.8469341 17.8387224,28.5129341 12.8857224,28.5129341 C10.5457224,28.5129341 8.43972235,27.6939341 6.87972235,26.1729341 C5.94372235,25.1979341 5.43672235,24.4179341 4.73472235,22.5849341 L4.73472235,22.5849341 L9.10272235,20.9469341 C9.84372235,22.8969341 10.9747224,23.7939341 12.7297224,23.7939341 C14.8747224,23.7939341 16.5517224,22.0779341 16.5517224,19.8159341 C16.5517224,17.5539341 14.8747224,15.7989341 12.6907224,15.7989341 C11.3257224,15.7989341 10.3117224,16.3059341 9.37572235,17.5539341 L9.37572235,17.5539341 L6.09972235,17.5539341 L6.09972235,2.14893407 L19.3597224,2.14893407 Z" id="Combined-Shape"></path>
            </g>
        </g>
        <g id="Group-6" transform="translate(34.000000, 50.000000)">
            <rect id="Rectangle-Copy" fill="#FF5500" x="0" y="0" width="120" height="80" rx="10"></rect>
            <g id="Group" transform="translate(61.000000, 23.000000)" fill="#FFFFFF" fill-rule="nonzero">
                <g id="CS-minor">
                    <path d="M8.935725,35 L8.935725,22.9 C8.935725,20.084 10.035725,18.632 12.147725,18.632 C14.171725,18.632 15.227725,20.084 15.227725,22.9 L15.227725,35 L20.815725,35 L20.815725,22.724 C20.815725,20.128 22.003725,18.632 24.071725,18.632 C26.183725,18.632 27.195725,19.952 27.195725,22.724 L27.195725,35 L32.783725,35 L32.783725,21.668 C32.783725,18.588 32.387725,17.18 31.155725,15.816 C30.011725,14.584 28.295725,13.924 26.227725,13.924 C23.323725,13.924 21.431725,14.98 20.067725,17.312 C19.099725,15.112 17.163725,13.924 14.523725,13.924 C11.927725,13.924 10.211725,14.936 8.935725,17.18 L8.935725,14.628 L3.347725,14.628 L3.347725,35 L8.935725,35 Z" id="Combined-Shape"></path>
                </g>
            </g>
            <g id="Group" transform="translate(28.000000, 26.000000)" fill="#FFFFFF" fill-rule="nonzero">
                <g id="CS-A">
                    <path d="M10.064,32 L10.064,-0.016 L3.488,-0.016 L3.488,32 L10.064,32 Z M21.312,32 L21.312,-0.016 L14.736,-0.016 L14.736,32 L21.312,32 Z M32.56,32 L32.56,-0.016 L25.984,-0.016 L25.984,32 L32.56,32 Z" id="Combined-Shape"></path>
                </g>
            </g>
        </g>
    </g>
</svg>