<?xml version="1.0" encoding="UTF-8"?>
<svg width="970px" height="440px" viewBox="0 0 970 440" version="1.1" xmlns="http://www.w3.org/2000/svg" xmlns:xlink="http://www.w3.org/1999/xlink">
    <title>nx-251-chart</title>
    <g id="nx-251-chart" stroke="none" stroke-width="1" fill="none" fill-rule="evenodd">
        <rect id="Rectangle-Copy" fill="#58C322" x="556" y="190" width="120" height="80" rx="10"></rect>
        <g id="Group" transform="translate(582.000000, 214.000000)" fill="#FFFFFF" fill-rule="nonzero">
            <g id="CS-A">
                <path d="M15.688,32 L25.768,-0.016 L19,-0.016 L12.232,21.44 L5.752,-0.016 L-1.016,-0.016 L8.68,32 L15.688,32 Z M33.8,32 L33.8,-0.016 L27.224,-0.016 L27.224,32 L33.8,32 Z" id="Combined-Shape"></path>
            </g>
        </g>
        <g id="Group" transform="translate(620.000000, 210.000000)" fill="#FFFFFF" fill-rule="nonzero">
            <g id="CS-minor">
                <path d="M8.935725,35 L8.935725,22.9 C8.935725,20.084 10.035725,18.632 12.147725,18.632 C14.171725,18.632 15.227725,20.084 15.227725,22.9 L15.227725,35 L20.815725,35 L20.815725,22.724 C20.815725,20.128 22.003725,18.632 24.071725,18.632 C26.183725,18.632 27.195725,19.952 27.195725,22.724 L27.195725,35 L32.783725,35 L32.783725,21.668 C32.783725,18.588 32.387725,17.18 31.155725,15.816 C30.011725,14.584 28.295725,13.924 26.227725,13.924 C23.323725,13.924 21.431725,14.98 20.067725,17.312 C19.099725,15.112 17.163725,13.924 14.523725,13.924 C11.927725,13.924 10.211725,14.936 8.935725,17.18 L8.935725,14.628 L3.347725,14.628 L3.347725,35 L8.935725,35 Z" id="Combined-Shape"></path>
            </g>
        </g>
        <rect id="Rectangle-Copy" fill="#58C322" x="816" y="30" width="120" height="80" rx="10"></rect>
        <g id="Group" transform="translate(842.000000, 54.000000)" fill="#FFFFFF" fill-rule="nonzero">
            <g id="CS-A">
                <path d="M15.688,32 L25.768,-0.016 L19,-0.016 L12.232,21.44 L5.752,-0.016 L-1.016,-0.016 L8.68,32 L15.688,32 Z M33.8,32 L33.8,-0.016 L27.224,-0.016 L27.224,32 L33.8,32 Z" id="Combined-Shape"></path>
            </g>
        </g>
        <g id="Group" transform="translate(880.000000, 50.000000)" fill="#FFFFFF" fill-rule="nonzero">
            <g id="CS-minor">
                <path d="M8.935725,35 L8.935725,22.9 C8.935725,20.084 10.035725,18.632 12.147725,18.632 C14.171725,18.632 15.227725,20.084 15.227725,22.9 L15.227725,35 L20.815725,35 L20.815725,22.724 C20.815725,20.128 22.003725,18.632 24.071725,18.632 C26.183725,18.632 27.195725,19.952 27.195725,22.724 L27.195725,35 L32.783725,35 L32.783725,21.668 C32.783725,18.588 32.387725,17.18 31.155725,15.816 C30.011725,14.584 28.295725,13.924 26.227725,13.924 C23.323725,13.924 21.431725,14.98 20.067725,17.312 C19.099725,15.112 17.163725,13.924 14.523725,13.924 C11.927725,13.924 10.211725,14.936 8.935725,17.18 L8.935725,14.628 L3.347725,14.628 L3.347725,35 L8.935725,35 Z" id="Combined-Shape"></path>
            </g>
        </g>
        <rect id="Rectangle-Copy" fill="#58C322" x="816" y="190" width="120" height="80" rx="10"></rect>
        <g id="Group" transform="translate(857.000000, 214.000000)" fill="#FFFFFF" fill-rule="nonzero">
            <g id="CS-A">
                <path d="M15.688,32 L25.768,-0.016 L19,-0.016 L12.232,21.44 L5.752,-0.016 L-1.016,-0.016 L8.68,32 L15.688,32 Z M33.8,32 L33.8,-0.016 L27.224,-0.016 L27.224,32 L33.8,32 Z" id="Combined-Shape"></path>
            </g>
        </g>
        <rect id="Rectangle-Copy" fill="#FF5500" x="309" y="30" width="120" height="80" rx="10"></rect>
        <g id="Group" transform="translate(351.000000, 56.000000)" fill="#FFFFFF" fill-rule="nonzero">
            <g id="CS-A">
                <path d="M21.312,32 L31.392,-0.016 L24.624,-0.016 L17.856,21.44 L11.376,-0.016 L4.608,-0.016 L14.304,32 L21.312,32 Z" id="Combined-Shape"></path>
            </g>
        </g>
        <rect id="Rectangle-Copy" fill="#FF5500" x="816" y="348" width="120" height="80" rx="10"></rect>
        <g id="Group" transform="translate(877.000000, 371.000000)" fill="#FFFFFF" fill-rule="nonzero">
            <g id="CS-minor">
                <path d="M8.935725,35 L8.935725,22.9 C8.935725,20.084 10.035725,18.632 12.147725,18.632 C14.171725,18.632 15.227725,20.084 15.227725,22.9 L15.227725,35 L20.815725,35 L20.815725,22.724 C20.815725,20.128 22.003725,18.632 24.071725,18.632 C26.183725,18.632 27.195725,19.952 27.195725,22.724 L27.195725,35 L32.783725,35 L32.783725,21.668 C32.783725,18.588 32.387725,17.18 31.155725,15.816 C30.011725,14.584 28.295725,13.924 26.227725,13.924 C23.323725,13.924 21.431725,14.98 20.067725,17.312 C19.099725,15.112 17.163725,13.924 14.523725,13.924 C11.927725,13.924 10.211725,14.936 8.935725,17.18 L8.935725,14.628 L3.347725,14.628 L3.347725,35 L8.935725,35 Z" id="Combined-Shape"></path>
            </g>
        </g>
        <g id="Group" transform="translate(844.000000, 374.000000)" fill="#FFFFFF" fill-rule="nonzero">
            <g id="CS-A">
                <path d="M10.064,32 L10.064,-0.016 L3.488,-0.016 L3.488,32 L10.064,32 Z M21.312,32 L21.312,-0.016 L14.736,-0.016 L14.736,32 L21.312,32 Z M32.56,32 L32.56,-0.016 L25.984,-0.016 L25.984,32 L32.56,32 Z" id="Combined-Shape"></path>
            </g>
        </g>
        <rect id="Rectangle-Copy" fill="#FFBF00" x="44" y="190" width="120" height="80" rx="10"></rect>
        <g id="Group" transform="translate(86.000000, 214.000000)" fill="#FFFFFF" fill-rule="nonzero">
            <g id="CS-A">
                <path d="M8.824,32 L8.824,-0.016 L2.248,-0.016 L2.248,32 L8.824,32 Z M26.936,32 L37.016,-0.016 L30.248,-0.016 L23.48,21.44 L17,-0.016 L10.232,-0.016 L19.928,32 L26.936,32 Z" id="Combined-Shape"></path>
            </g>
        </g>
        <rect id="Rectangle-Copy" fill="#FFBF00" x="44" y="30" width="120" height="80" rx="10"></rect>
        <g id="Group" transform="translate(67.000000, 54.000000)" fill="#FFFFFF" fill-rule="nonzero">
            <g id="CS-A">
                <path d="M15.688,32 L15.688,-0.016 L9.112,-0.016 L9.112,32 L15.688,32 Z M26.936,32 L26.936,-0.016 L20.36,-0.016 L20.36,32 L26.936,32 Z" id="Combined-Shape"></path>
            </g>
        </g>
        <g id="Group" transform="translate(98.000000, 51.000000)" fill="#FFFFFF" fill-rule="nonzero">
            <g id="CS-minor">
                <path d="M8.935725,35 L8.935725,22.9 C8.935725,20.084 10.035725,18.632 12.147725,18.632 C14.171725,18.632 15.227725,20.084 15.227725,22.9 L15.227725,35 L20.815725,35 L20.815725,22.724 C20.815725,20.128 22.003725,18.632 24.071725,18.632 C26.183725,18.632 27.195725,19.952 27.195725,22.724 L27.195725,35 L32.783725,35 L32.783725,21.668 C32.783725,18.588 32.387725,17.18 31.155725,15.816 C30.011725,14.584 28.295725,13.924 26.227725,13.924 C23.323725,13.924 21.431725,14.98 20.067725,17.312 C19.099725,15.112 17.163725,13.924 14.523725,13.924 C11.927725,13.924 10.211725,14.936 8.935725,17.18 L8.935725,14.628 L3.347725,14.628 L3.347725,35 L8.935725,35 Z" id="Combined-Shape"></path>
            </g>
        </g>
        <path id="Path-7" d="M267,56 L291,68 L267,80 L266.999,70 L191,70 L191,66 L266.999,66 L267,56 Z" fill="#000000" fill-rule="nonzero"></path>
        <path id="Path-7" d="M291,100 L284.184783,125.952896 L276.669,119.355 L177.503019,232.319444 L174.496981,229.680556 L273.663,116.716 L266.148553,110.119564 L291,100 Z" fill="#000000" fill-rule="nonzero"></path>
        <rect id="Rectangle-Copy" fill="#58C322" x="555" y="30" width="120" height="80" rx="10"></rect>
        <g id="Group" transform="translate(597.000000, 54.000000)" fill="#FFFFFF" fill-rule="nonzero">
            <g id="CS-A">
                <path d="M21.312,32 L21.312,-0.016 L14.736,-0.016 L14.736,32 L21.312,32 Z" id="Combined-Shape"></path>
            </g>
        </g>
        <path id="Path-7" d="M518.875,57 L542.875,69 L518.875,81 L518.875,71 L442.875,71 L442.875,67 L518.875,67 L518.875,57 Z" fill="#000000" fill-rule="nonzero"></path>
        <path id="Path-7" d="M444.441666,108.613783 L527.806,195.313 L535.015388,188.382702 L543,214 L517.715394,205.017311 L524.923,198.086 L441.558334,111.386217 L444.441666,108.613783 Z" fill="#000000" fill-rule="nonzero"></path>
        <path id="Path-7" d="M771.875,219 L795.875,231 L771.875,243 L771.875,233 L696,233 L696,229 L771.875,229 L771.875,219 Z" fill="#000000" fill-rule="nonzero"></path>
        <path id="Path-7" d="M697.616015,255.821656 L788.475,380.429 L796.555959,374.537753 L801,401 L777.163778,388.677885 L785.243,382.785 L694.383985,258.178344 L697.616015,255.821656 Z" fill="#000000" fill-rule="nonzero"></path>
        <path id="Path-7" d="M771.887865,58.226939 L796,70 L772.11427,82.2258711 L772.019,72.226 L696.023317,72.9432653 L695.985583,68.9434432 L771.982,68.226 L771.887865,58.226939 Z" fill="#000000" fill-rule="nonzero"></path>
        <path id="Path-7" d="M697.524588,89.7055384 L771.991,177.41 L779.613989,170.938172 L786,197 L761.318931,186.471712 L768.941,179.999 L694.475412,92.2944616 L697.524588,89.7055384 Z" fill="#000000" fill-rule="nonzero"></path>
        <path id="Path-7" d="M691.840471,109.217271 L793.447,348.131 L802.650078,344.217968 L801,371 L780.564421,353.610718 L789.766,349.696 L688.159529,110.782729 L691.840471,109.217271 Z" fill="#000000" fill-rule="nonzero"></path>
    </g>
</svg>