<?xml version="1.0" encoding="UTF-8" standalone="no"?><!DOCTYPE svg PUBLIC "-//W3C//DTD SVG 1.1//EN" "http://www.w3.org/Graphics/SVG/1.1/DTD/svg11.dtd"><svg width="870.0px" height="630.0px" viewBox="0 0 870 630" version="1.1" xmlns="http://www.w3.org/2000/svg" xmlns:xlink="http://www.w3.org/1999/xlink" xml:space="preserve" xmlns:serif="http://www.serif.com/" style="fill-rule:evenodd;clip-rule:evenodd;"><g id="nx-2zoku-anki"><path id="Rectangle-Copy" d="M598,124c0,-5.519 -4.481,-10 -10,-10l-100,0c-5.519,0 -10,4.481 -10,10l0,60c0,5.519 4.481,10 10,10l100,0c5.519,0 10,-4.481 10,-10l0,-60Z" style="fill:#58c322;"/><g id="CS-Root"><path id="Combined-Shape" d="M521.688,170l10.08,-32.016l-6.768,0l-6.768,21.456l-6.48,-21.456l-6.768,0l9.696,32.016l7.008,0Zm18.112,0l0,-32.016l-6.576,0l0,32.016l6.576,0Z" style="fill:#fff;fill-rule:nonzero;"/></g><g id="CS-minor"><path id="Combined-Shape1" serif:id="Combined-Shape" d="M552.936,169l-0,-12.1c-0,-2.816 1.1,-4.268 3.212,-4.268c2.024,0 3.08,1.452 3.08,4.268l-0,12.1l5.588,0l-0,-12.276c-0,-2.596 1.188,-4.092 3.256,-4.092c2.112,0 3.124,1.32 3.124,4.092l-0,12.276l5.588,0l-0,-13.332c-0,-3.08 -0.396,-4.488 -1.628,-5.852c-1.144,-1.232 -2.86,-1.892 -4.928,-1.892c-2.904,0 -4.796,1.056 -6.16,3.388c-0.968,-2.2 -2.904,-3.388 -5.544,-3.388c-2.596,0 -4.312,1.012 -5.588,3.256l-0,-2.552l-5.588,-0l-0,20.372l5.588,0Z" style="fill:#fff;fill-rule:nonzero;"/></g><path id="Rectangle-Copy1" serif:id="Rectangle-Copy" d="M818,124c0,-5.519 -4.481,-10 -10,-10l-100,0c-5.519,0 -10,4.481 -10,10l0,60c0,5.519 4.481,10 10,10l100,0c5.519,0 10,-4.481 10,-10l0,-60Z" style="fill:#58c322;"/><g id="CS-Root1" serif:id="CS-Root"><rect id="Combined-Shape2" serif:id="Combined-Shape" x="754.736" y="137.984" width="6.576" height="32.016" style="fill:#fff;fill-rule:nonzero;"/></g><path id="Rectangle-Copy2" serif:id="Rectangle-Copy" d="M818,244c0,-5.519 -4.481,-10 -10,-10l-100,0c-5.519,0 -10,4.481 -10,10l0,60c0,5.519 4.481,10 10,10l100,0c5.519,0 10,-4.481 10,-10l0,-60Z" style="fill:#ffbf00;"/><g id="CS-Root2" serif:id="CS-Root"><path id="Combined-Shape3" serif:id="Combined-Shape" d="M748.824,290l-0,-32.016l-6.576,0l0,32.016l6.576,0Zm18.112,0l10.08,-32.016l-6.768,0l-6.768,21.456l-6.48,-21.456l-6.768,0l9.696,32.016l7.008,0Z" style="fill:#fff;fill-rule:nonzero;"/></g><path id="Rectangle-Copy3" serif:id="Rectangle-Copy" d="M598,248c0,-5.519 -4.481,-10 -10,-10l-100,0c-5.519,0 -10,4.481 -10,10l0,60c0,5.519 4.481,10 10,10l100,0c5.519,0 10,-4.481 10,-10l0,-60Z" style="fill:#ffbf00;"/><g id="CS-Root3" serif:id="CS-Root"><path id="Combined-Shape4" serif:id="Combined-Shape" d="M517.688,294l0,-32.016l-6.576,0l0,32.016l6.576,0Zm11.248,0l0,-32.016l-6.576,0l0,32.016l6.576,0Z" style="fill:#fff;fill-rule:nonzero;"/></g><path id="Rectangle-Copy4" serif:id="Rectangle-Copy" d="M598,364c0,-5.519 -4.481,-10 -10,-10l-100,0c-5.519,0 -10,4.481 -10,10l0,60c0,5.519 4.481,10 10,10l100,0c5.519,0 10,-4.481 10,-10l0,-60Z" style="fill:#f50;"/><g id="CS-Root4" serif:id="CS-Root"><path id="Combined-Shape5" serif:id="Combined-Shape" d="M516.064,410l0,-32.016l-6.576,0l0,32.016l6.576,0Zm11.248,0l0,-32.016l-6.576,0l0,32.016l6.576,0Zm11.248,0l-0,-32.016l-6.576,0l0,32.016l6.576,0Z" style="fill:#fff;fill-rule:nonzero;"/></g><g id="CS-minor1" serif:id="CS-minor"><path id="Combined-Shape6" serif:id="Combined-Shape" d="M550.936,409l-0,-12.1c-0,-2.816 1.1,-4.268 3.212,-4.268c2.024,0 3.08,1.452 3.08,4.268l-0,12.1l5.588,0l-0,-12.276c-0,-2.596 1.188,-4.092 3.256,-4.092c2.112,0 3.124,1.32 3.124,4.092l-0,12.276l5.588,0l-0,-13.332c-0,-3.08 -0.396,-4.488 -1.628,-5.852c-1.144,-1.232 -2.86,-1.892 -4.928,-1.892c-2.904,-0 -4.796,1.056 -6.16,3.388c-0.968,-2.2 -2.904,-3.388 -5.544,-3.388c-2.596,-0 -4.312,1.012 -5.588,3.256l-0,-2.552l-5.588,-0l-0,20.372l5.588,-0Z" style="fill:#fff;fill-rule:nonzero;"/></g><path id="Rectangle-Copy5" serif:id="Rectangle-Copy" d="M169,364c0,-5.519 -4.481,-10 -10,-10l-100,0c-5.519,0 -10,4.481 -10,10l0,60c0,5.519 4.481,10 10,10l100,0c5.519,0 10,-4.481 10,-10l0,-60Z" style="fill:#f50;"/><g id="CS-Root5" serif:id="CS-Root"><path id="Combined-Shape7" serif:id="Combined-Shape" d="M87.064,410l-0,-32.016l-6.576,0l0,32.016l6.576,0Zm11.248,0l0,-32.016l-6.576,0l0,32.016l6.576,0Zm11.248,0l0,-32.016l-6.576,0l0,32.016l6.576,0Z" style="fill:#fff;fill-rule:nonzero;"/></g><g id="CS-minor2" serif:id="CS-minor"><path id="Combined-Shape8" serif:id="Combined-Shape" d="M121.936,409l-0,-12.1c-0,-2.816 1.1,-4.268 3.212,-4.268c2.024,0 3.08,1.452 3.08,4.268l-0,12.1l5.588,0l-0,-12.276c-0,-2.596 1.188,-4.092 3.256,-4.092c2.112,0 3.124,1.32 3.124,4.092l-0,12.276l5.588,0l-0,-13.332c-0,-3.08 -0.396,-4.488 -1.628,-5.852c-1.144,-1.232 -2.86,-1.892 -4.928,-1.892c-2.904,-0 -4.796,1.056 -6.16,3.388c-0.968,-2.2 -2.904,-3.388 -5.544,-3.388c-2.596,-0 -4.312,1.012 -5.588,3.256l-0,-2.552l-5.588,-0l-0,20.372l5.588,-0Z" style="fill:#fff;fill-rule:nonzero;"/></g><path id="Rectangle-Copy6" serif:id="Rectangle-Copy" d="M598,484c0,-5.519 -4.481,-10 -10,-10l-100,0c-5.519,0 -10,4.481 -10,10l0,60c0,5.519 4.481,10 10,10l100,0c5.519,0 10,-4.481 10,-10l0,-60Z" style="fill:#58c322;"/><g id="CS-Root6" serif:id="CS-Root"><path id="Combined-Shape9" serif:id="Combined-Shape" d="M516.064,530l0,-32.016l-6.576,0l0,32.016l6.576,0Zm11.248,0l0,-32.016l-6.576,0l0,32.016l6.576,0Zm11.248,0l-0,-32.016l-6.576,0l0,32.016l6.576,0Z" style="fill:#fff;fill-rule:nonzero;"/></g><g id="CS-minor3" serif:id="CS-minor"><path id="Combined-Shape10" serif:id="Combined-Shape" d="M550.936,529l-0,-12.1c-0,-2.816 1.1,-4.268 3.212,-4.268c2.024,0 3.08,1.452 3.08,4.268l-0,12.1l5.588,0l-0,-12.276c-0,-2.596 1.188,-4.092 3.256,-4.092c2.112,-0 3.124,1.32 3.124,4.092l-0,12.276l5.588,0l-0,-13.332c-0,-3.08 -0.396,-4.488 -1.628,-5.852c-1.144,-1.232 -2.86,-1.892 -4.928,-1.892c-2.904,-0 -4.796,1.056 -6.16,3.388c-0.968,-2.2 -2.904,-3.388 -5.544,-3.388c-2.596,-0 -4.312,1.012 -5.588,3.256l-0,-2.552l-5.588,-0l-0,20.372l5.588,0Z" style="fill:#fff;fill-rule:nonzero;"/></g><g id="CS-minor4" serif:id="CS-minor"><path id="Combined-Shape11" serif:id="Combined-Shape" d="M540.936,295l-0,-12.1c-0,-2.816 1.1,-4.268 3.212,-4.268c2.024,0 3.08,1.452 3.08,4.268l-0,12.1l5.588,0l-0,-12.276c-0,-2.596 1.188,-4.092 3.256,-4.092c2.112,0 3.124,1.32 3.124,4.092l-0,12.276l5.588,0l-0,-13.332c-0,-3.08 -0.396,-4.488 -1.628,-5.852c-1.144,-1.232 -2.86,-1.892 -4.928,-1.892c-2.904,-0 -4.796,1.056 -6.16,3.388c-0.968,-2.2 -2.904,-3.388 -5.544,-3.388c-2.596,-0 -4.312,1.012 -5.588,3.256l-0,-2.552l-5.588,-0l-0,20.372l5.588,-0Z" style="fill:#fff;fill-rule:nonzero;"/></g><path id="Rectangle-Copy7" serif:id="Rectangle-Copy" d="M818,482c0,-5.519 -4.481,-10 -10,-10l-100,0c-5.519,0 -10,4.481 -10,10l0,60c0,5.519 4.481,10 10,10l100,0c5.519,0 10,-4.481 10,-10l0,-60Z" style="fill:#58c322;"/><g id="CS-Root7" serif:id="CS-Root"><rect id="Combined-Shape12" serif:id="Combined-Shape" x="754.736" y="495.984" width="6.576" height="32.016" style="fill:#fff;fill-rule:nonzero;"/></g><path id="Rectangle-Copy8" serif:id="Rectangle-Copy" d="M388,482c0,-5.519 -4.481,-10 -10,-10l-100,0c-5.519,0 -10,4.481 -10,10l0,60c0,5.519 4.481,10 10,10l100,0c5.519,0 10,-4.481 10,-10l0,-60Z" style="fill:#58c322;"/><g id="CS-Root8" serif:id="CS-Root"><rect id="Combined-Shape13" serif:id="Combined-Shape" x="324.736" y="495.984" width="6.576" height="32.016" style="fill:#fff;fill-rule:nonzero;"/></g><path id="Rectangle-Copy9" serif:id="Rectangle-Copy" d="M818,364c0,-5.519 -4.481,-10 -10,-10l-100,0c-5.519,0 -10,4.481 -10,10l0,60c0,5.519 4.481,10 10,10l100,0c5.519,0 10,-4.481 10,-10l0,-60Z" style="fill:#f50;"/><g id="CS-Root9" serif:id="CS-Root"><path id="Combined-Shape14" serif:id="Combined-Shape" d="M761.312,410l10.08,-32.016l-6.768,0l-6.768,21.456l-6.48,-21.456l-6.768,0l9.696,32.016l7.008,0Z" style="fill:#fff;fill-rule:nonzero;"/></g><path id="Rectangle-Copy10" serif:id="Rectangle-Copy" d="M168,125c0,-5.519 -4.481,-10 -10,-10l-100,0c-5.519,0 -10,4.481 -10,10l0,60c0,5.519 4.481,10 10,10l100,0c5.519,0 10,-4.481 10,-10l0,-60Z" style="fill:#f50;"/><g id="CS-Root10" serif:id="CS-Root"><path id="Combined-Shape15" serif:id="Combined-Shape" d="M111.312,171l10.08,-32.016l-6.768,0l-6.768,21.456l-6.48,-21.456l-6.768,0l9.696,32.016l7.008,0Z" style="fill:#fff;fill-rule:nonzero;"/></g><path id="Rectangle-Copy11" serif:id="Rectangle-Copy" d="M388,125c0,-5.519 -4.481,-10 -10,-10l-100,0c-5.519,0 -10,4.481 -10,10l0,60c0,5.519 4.481,10 10,10l100,0c5.519,0 10,-4.481 10,-10l0,-60Z" style="fill:#ffbf00;"/><g id="CS-Root11" serif:id="CS-Root"><path id="Combined-Shape16" serif:id="Combined-Shape" d="M318.824,171l0,-32.016l-6.576,0l0,32.016l6.576,0Zm18.112,0l10.08,-32.016l-6.768,0l-6.768,21.456l-6.48,-21.456l-6.768,0l9.696,32.016l7.008,0Z" style="fill:#fff;fill-rule:nonzero;"/></g><path id="Line" d="M229,146l24,12l-24,12l0,-10l-50,0l0,-4l50,0l0,-10Z" style="fill:#979797;fill-rule:nonzero;"/><path id="Rectangle-Copy12" serif:id="Rectangle-Copy" d="M168,248c0,-5.519 -4.481,-10 -10,-10l-100,0c-5.519,0 -10,4.481 -10,10l0,60c0,5.519 4.481,10 10,10l100,0c5.519,0 10,-4.481 10,-10l0,-60Z" style="fill:#f50;"/><g id="CS-Root12" serif:id="CS-Root"><path id="Combined-Shape17" serif:id="Combined-Shape" d="M111.312,294l10.08,-32.016l-6.768,0l-6.768,21.456l-6.48,-21.456l-6.768,0l9.696,32.016l7.008,0Z" style="fill:#fff;fill-rule:nonzero;"/></g><path id="Rectangle-Copy13" serif:id="Rectangle-Copy" d="M388,248c0,-5.519 -4.481,-10 -10,-10l-100,0c-5.519,0 -10,4.481 -10,10l0,60c0,5.519 4.481,10 10,10l100,0c5.519,0 10,-4.481 10,-10l0,-60Z" style="fill:#ffbf00;"/><g id="CS-minor5" serif:id="CS-minor"><path id="Combined-Shape18" serif:id="Combined-Shape" d="M333.936,295l-0,-12.1c-0,-2.816 1.1,-4.268 3.212,-4.268c2.024,0 3.08,1.452 3.08,4.268l-0,12.1l5.588,0l-0,-12.276c-0,-2.596 1.188,-4.092 3.256,-4.092c2.112,0 3.124,1.32 3.124,4.092l-0,12.276l5.588,0l-0,-13.332c-0,-3.08 -0.396,-4.488 -1.628,-5.852c-1.144,-1.232 -2.86,-1.892 -4.928,-1.892c-2.904,-0 -4.796,1.056 -6.16,3.388c-0.968,-2.2 -2.904,-3.388 -5.544,-3.388c-2.596,-0 -4.312,1.012 -5.588,3.256l-0,-2.552l-5.588,-0l-0,20.372l5.588,-0Z" style="fill:#fff;fill-rule:nonzero;"/></g><g id="CS-Root13" serif:id="CS-Root"><path id="Combined-Shape19" serif:id="Combined-Shape" d="M310.688,294l0,-32.016l-6.576,0l0,32.016l6.576,0Zm11.248,0l0,-32.016l-6.576,0l0,32.016l6.576,0Z" style="fill:#fff;fill-rule:nonzero;"/></g><path id="Line1" serif:id="Line" d="M229,269l24,12l-24,12l0,-10l-50,0l0,-4l50,0l0,-10Z" style="fill:#979797;fill-rule:nonzero;"/><path id="Rectangle-Copy14" serif:id="Rectangle-Copy" d="M388,364c0,-5.519 -4.481,-10 -10,-10l-100,0c-5.519,0 -10,4.481 -10,10l0,60c0,5.519 4.481,10 10,10l100,0c5.519,0 10,-4.481 10,-10l0,-60Z" style="fill:#ffbf00;"/><g id="CS-minor6" serif:id="CS-minor"><path id="Combined-Shape20" serif:id="Combined-Shape" d="M333.936,411l-0,-12.1c-0,-2.816 1.1,-4.268 3.212,-4.268c2.024,0 3.08,1.452 3.08,4.268l-0,12.1l5.588,0l-0,-12.276c-0,-2.596 1.188,-4.092 3.256,-4.092c2.112,0 3.124,1.32 3.124,4.092l-0,12.276l5.588,0l-0,-13.332c-0,-3.08 -0.396,-4.488 -1.628,-5.852c-1.144,-1.232 -2.86,-1.892 -4.928,-1.892c-2.904,-0 -4.796,1.056 -6.16,3.388c-0.968,-2.2 -2.904,-3.388 -5.544,-3.388c-2.596,-0 -4.312,1.012 -5.588,3.256l-0,-2.552l-5.588,-0l-0,20.372l5.588,-0Z" style="fill:#fff;fill-rule:nonzero;"/></g><g id="CS-Root14" serif:id="CS-Root"><path id="Combined-Shape21" serif:id="Combined-Shape" d="M310.688,410l0,-32.016l-6.576,0l0,32.016l6.576,0Zm11.248,0l0,-32.016l-6.576,0l0,32.016l6.576,0Z" style="fill:#fff;fill-rule:nonzero;"/></g><path id="Line2" serif:id="Line" d="M229,385l24,12l-24,12l0,-10l-50,0l0,-4l50,0l0,-10Z" style="fill:#979797;fill-rule:nonzero;"/><path id="Rectangle-Copy15" serif:id="Rectangle-Copy" d="M169,484c0,-5.519 -4.481,-10 -10,-10l-100,0c-5.519,0 -10,4.481 -10,10l0,60c0,5.519 4.481,10 10,10l100,0c5.519,0 10,-4.481 10,-10l0,-60Z" style="fill:#f50;"/><g id="CS-Root15" serif:id="CS-Root"><path id="Combined-Shape22" serif:id="Combined-Shape" d="M87.064,530l-0,-32.016l-6.576,0l0,32.016l6.576,0Zm11.248,0l0,-32.016l-6.576,0l0,32.016l6.576,0Zm11.248,0l0,-32.016l-6.576,0l0,32.016l6.576,0Z" style="fill:#fff;fill-rule:nonzero;"/></g><g id="CS-minor7" serif:id="CS-minor"><path id="Combined-Shape23" serif:id="Combined-Shape" d="M121.936,529l-0,-12.1c-0,-2.816 1.1,-4.268 3.212,-4.268c2.024,0 3.08,1.452 3.08,4.268l-0,12.1l5.588,0l-0,-12.276c-0,-2.596 1.188,-4.092 3.256,-4.092c2.112,-0 3.124,1.32 3.124,4.092l-0,12.276l5.588,0l-0,-13.332c-0,-3.08 -0.396,-4.488 -1.628,-5.852c-1.144,-1.232 -2.86,-1.892 -4.928,-1.892c-2.904,-0 -4.796,1.056 -6.16,3.388c-0.968,-2.2 -2.904,-3.388 -5.544,-3.388c-2.596,-0 -4.312,1.012 -5.588,3.256l-0,-2.552l-5.588,-0l-0,20.372l5.588,0Z" style="fill:#fff;fill-rule:nonzero;"/></g><path id="Path-6" d="M426.115,50.937l0.385,519.181" style="fill:none;stroke:#979797;stroke-width:1px;stroke-dasharray:4,4;"/><g id="禁則タイプ--緊張のイレギュラーな緩和" serif:id="禁則タイプ①-緊張のイレギュラーな緩和"><text x="158.772px" y="34px" style="font-family:'NotoSansSC-Bold', 'Noto Sans SC', sans-serif;font-weight:700;font-size:24px;">禁则T<tspan x="221.052px " y="34px ">y</tspan>pe①</text><text x="128.34px" y="66px" style="font-family:'NotoSansSC-Bold', 'Noto Sans SC', sans-serif;font-weight:700;font-size:24px;">紧张的不规则缓和</text></g><g id="禁則タイプ--同機能内でマイナーからメジ" serif:id="禁則タイプ②-同機能内でマイナーからメジ"><text x="581.272px" y="34px" style="font-family:'NotoSansSC-Bold', 'Noto Sans SC', sans-serif;font-weight:700;font-size:24px;">禁则T<tspan x="643.552px " y="34px ">y</tspan>pe②</text><text x="562.24px" y="66px" style="font-family:'NotoSansSC-Bold', 'Noto Sans SC', sans-serif;font-weight:700;font-size:24px;">同功能从小到大</text></g><path id="Combined-Shape24" serif:id="Combined-Shape" d="M462.928,471.176l4.128,2.592c-5.28,8.256 -7.392,12.576 -9.504,19.488c-2.208,7.104 -3.264,14.4 -3.264,21.984c0,7.68 1.056,15.072 3.264,22.176c2.112,6.912 4.224,11.232 9.504,19.488l-4.128,2.592c-5.472,-8.736 -7.776,-13.44 -9.984,-20.832c-2.208,-7.296 -3.36,-15.072 -3.36,-23.328c0,-8.352 1.056,-16.032 3.36,-23.328c2.208,-7.392 4.512,-12.096 9.984,-20.832Zm374.144,-0c5.472,8.736 7.776,13.44 9.984,20.832c2.304,7.296 3.36,14.976 3.36,23.232c0,8.352 -1.056,16.128 -3.36,23.424c-2.208,7.296 -4.512,12.096 -9.984,20.832l-4.128,-2.592c5.28,-8.256 7.392,-12.576 9.504,-19.488c2.208,-7.104 3.264,-14.4 3.264,-22.176c0,-7.68 -1.056,-14.88 -3.264,-21.984c-2.112,-6.912 -4.224,-11.232 -9.504,-19.488l4.128,-2.592Z" style="fill:#979797;"/><path id="Line3" serif:id="Line" d="M229,505l24,12l-24,12l0,-10l-50,0l0,-4l50,0l0,-10Z" style="fill:#979797;fill-rule:nonzero;"/><path id="Line4" serif:id="Line" d="M659,143l24,12l-24,12l0,-10l-50,0l0,-4l50,0l0,-10Z" style="fill:#979797;fill-rule:nonzero;"/><path id="Line5" serif:id="Line" d="M659,265l24,12l-24,12l0,-10l-50,0l0,-4l50,0l0,-10Z" style="fill:#979797;fill-rule:nonzero;"/><path id="Line6" serif:id="Line" d="M659,385l24,12l-24,12l0,-10l-50,0l0,-4l50,0l0,-10Z" style="fill:#979797;fill-rule:nonzero;"/><path id="Line7" serif:id="Line" d="M659,501l24,12l-24,12l0,-10l-50,0l0,-4l50,0l0,-10Z" style="fill:#979797;fill-rule:nonzero;"/></g></svg>