<?xml version="1.0" encoding="UTF-8"?>
<svg width="970px" height="311px" viewBox="0 0 970 311" version="1.1" xmlns="http://www.w3.org/2000/svg" xmlns:xlink="http://www.w3.org/1999/xlink">
    <title>nx-4536-variation</title>
    <g id="nx-4536-variation" stroke="none" stroke-width="1" fill="none" fill-rule="evenodd">
        <rect id="Rectangle-Copy" fill="#58C322" x="816" y="30" width="120" height="80" rx="10"></rect>
        <g id="Group" transform="translate(842.000000, 54.000000)" fill="#FFFFFF" fill-rule="nonzero">
            <g id="CS-A">
                <path d="M15.688,32 L25.768,-0.016 L19,-0.016 L12.232,21.44 L5.752,-0.016 L-1.016,-0.016 L8.68,32 L15.688,32 Z M33.8,32 L33.8,-0.016 L27.224,-0.016 L27.224,32 L33.8,32 Z" id="Combined-Shape"></path>
            </g>
        </g>
        <g id="Group" transform="translate(880.000000, 50.000000)" fill="#FFFFFF" fill-rule="nonzero">
            <g id="CS-minor">
                <path d="M8.935725,35 L8.935725,22.9 C8.935725,20.084 10.035725,18.632 12.147725,18.632 C14.171725,18.632 15.227725,20.084 15.227725,22.9 L15.227725,35 L20.815725,35 L20.815725,22.724 C20.815725,20.128 22.003725,18.632 24.071725,18.632 C26.183725,18.632 27.195725,19.952 27.195725,22.724 L27.195725,35 L32.783725,35 L32.783725,21.668 C32.783725,18.588 32.387725,17.18 31.155725,15.816 C30.011725,14.584 28.295725,13.924 26.227725,13.924 C23.323725,13.924 21.431725,14.98 20.067725,17.312 C19.099725,15.112 17.163725,13.924 14.523725,13.924 C11.927725,13.924 10.211725,14.936 8.935725,17.18 L8.935725,14.628 L3.347725,14.628 L3.347725,35 L8.935725,35 Z" id="Combined-Shape"></path>
            </g>
        </g>
        <rect id="Rectangle-Copy" fill="#58C322" x="816" y="190" width="120" height="80" rx="10"></rect>
        <g id="Group" transform="translate(857.000000, 214.000000)" fill="#FFFFFF" fill-rule="nonzero">
            <g id="CS-A">
                <path d="M15.688,32 L25.768,-0.016 L19,-0.016 L12.232,21.44 L5.752,-0.016 L-1.016,-0.016 L8.68,32 L15.688,32 Z M33.8,32 L33.8,-0.016 L27.224,-0.016 L27.224,32 L33.8,32 Z" id="Combined-Shape"></path>
            </g>
        </g>
        <rect id="Rectangle-Copy" fill="#FF5500" x="309" y="30" width="120" height="80" rx="10"></rect>
        <g id="Group" transform="translate(351.000000, 56.000000)" fill="#FFFFFF" fill-rule="nonzero">
            <g id="CS-A">
                <path d="M21.312,32 L31.392,-0.016 L24.624,-0.016 L17.856,21.44 L11.376,-0.016 L4.608,-0.016 L14.304,32 L21.312,32 Z" id="Combined-Shape"></path>
            </g>
        </g>
        <rect id="Rectangle-Copy" fill="#FF5500" x="309" y="190" width="120" height="80" rx="10"></rect>
        <g id="Group" transform="translate(331.000000, 216.000000)" fill="#FFFFFF" fill-rule="nonzero">
            <g id="CS-A">
                <path d="M13.0054737,32 L23.0854737,-0.016 L16.3174737,-0.016 L9.54947368,21.44 L3.06947368,-0.016 L-3.69852632,-0.016 L5.99747368,32 L13.0054737,32 Z M22.8614737,41.936 L38.7974737,-0.016 L34.5734737,-0.016 L18.6374737,41.936 L22.8614737,41.936 Z M49.0854737,32 L49.0854737,-0.016 L42.5094737,-0.016 L42.5094737,32 L49.0854737,32 Z M67.1974737,32 L77.2774737,-0.016 L70.5094737,-0.016 L63.7414737,21.44 L57.2614737,-0.016 L50.4934737,-0.016 L60.1894737,32 L67.1974737,32 Z" id="Combined-Shape"></path>
            </g>
        </g>
        <rect id="Rectangle-Copy" fill="#FF5500" x="558" y="29" width="120" height="80" rx="10"></rect>
        <g id="Group" transform="translate(619.000000, 52.000000)" fill="#FFFFFF" fill-rule="nonzero">
            <g id="CS-minor">
                <path d="M8.935725,35 L8.935725,22.9 C8.935725,20.084 10.035725,18.632 12.147725,18.632 C14.171725,18.632 15.227725,20.084 15.227725,22.9 L15.227725,35 L20.815725,35 L20.815725,22.724 C20.815725,20.128 22.003725,18.632 24.071725,18.632 C26.183725,18.632 27.195725,19.952 27.195725,22.724 L27.195725,35 L32.783725,35 L32.783725,21.668 C32.783725,18.588 32.387725,17.18 31.155725,15.816 C30.011725,14.584 28.295725,13.924 26.227725,13.924 C23.323725,13.924 21.431725,14.98 20.067725,17.312 C19.099725,15.112 17.163725,13.924 14.523725,13.924 C11.927725,13.924 10.211725,14.936 8.935725,17.18 L8.935725,14.628 L3.347725,14.628 L3.347725,35 L8.935725,35 Z" id="Combined-Shape"></path>
            </g>
        </g>
        <g id="Group" transform="translate(586.000000, 55.000000)" fill="#FFFFFF" fill-rule="nonzero">
            <g id="CS-A">
                <path d="M10.064,32 L10.064,-0.016 L3.488,-0.016 L3.488,32 L10.064,32 Z M21.312,32 L21.312,-0.016 L14.736,-0.016 L14.736,32 L21.312,32 Z M32.56,32 L32.56,-0.016 L25.984,-0.016 L25.984,32 L32.56,32 Z" id="Combined-Shape"></path>
            </g>
        </g>
        <rect id="Rectangle-Copy" fill="#FF5500" x="558" y="189" width="120" height="80" rx="10"></rect>
        <g id="Group" transform="translate(599.000000, 215.000000)" fill="#FFFFFF" fill-rule="nonzero">
            <g id="CS-A">
                <path d="M10.064,32 L10.064,-0.016 L3.488,-0.016 L3.488,32 L10.064,32 Z M21.312,32 L21.312,-0.016 L14.736,-0.016 L14.736,32 L21.312,32 Z M32.56,32 L32.56,-0.016 L25.984,-0.016 L25.984,32 L32.56,32 Z" id="Combined-Shape"></path>
            </g>
        </g>
        <rect id="Rectangle-Copy" fill="#FFBF00" x="44" y="190" width="120" height="80" rx="10"></rect>
        <g id="Group" transform="translate(86.000000, 214.000000)" fill="#FFFFFF" fill-rule="nonzero">
            <g id="CS-A">
                <path d="M8.824,32 L8.824,-0.016 L2.248,-0.016 L2.248,32 L8.824,32 Z M26.936,32 L37.016,-0.016 L30.248,-0.016 L23.48,21.44 L17,-0.016 L10.232,-0.016 L19.928,32 L26.936,32 Z" id="Combined-Shape"></path>
            </g>
        </g>
        <rect id="Rectangle-Copy" fill="#FFBF00" x="44" y="30" width="120" height="80" rx="10"></rect>
        <g id="Group" transform="translate(67.000000, 54.000000)" fill="#FFFFFF" fill-rule="nonzero">
            <g id="CS-A">
                <path d="M15.688,32 L15.688,-0.016 L9.112,-0.016 L9.112,32 L15.688,32 Z M26.936,32 L26.936,-0.016 L20.36,-0.016 L20.36,32 L26.936,32 Z" id="Combined-Shape"></path>
            </g>
        </g>
        <g id="Group" transform="translate(98.000000, 51.000000)" fill="#FFFFFF" fill-rule="nonzero">
            <g id="CS-minor">
                <path d="M8.935725,35 L8.935725,22.9 C8.935725,20.084 10.035725,18.632 12.147725,18.632 C14.171725,18.632 15.227725,20.084 15.227725,22.9 L15.227725,35 L20.815725,35 L20.815725,22.724 C20.815725,20.128 22.003725,18.632 24.071725,18.632 C26.183725,18.632 27.195725,19.952 27.195725,22.724 L27.195725,35 L32.783725,35 L32.783725,21.668 C32.783725,18.588 32.387725,17.18 31.155725,15.816 C30.011725,14.584 28.295725,13.924 26.227725,13.924 C23.323725,13.924 21.431725,14.98 20.067725,17.312 C19.099725,15.112 17.163725,13.924 14.523725,13.924 C11.927725,13.924 10.211725,14.936 8.935725,17.18 L8.935725,14.628 L3.347725,14.628 L3.347725,35 L8.935725,35 Z" id="Combined-Shape"></path>
            </g>
        </g>
        <path id="Path-7" d="M267,56 L291,68 L267,80 L266.999,70 L191,70 L191,66 L266.999,66 L267,56 Z" fill="#000000" fill-rule="nonzero"></path>
        <path id="Path-7" d="M267.146563,221.209141 L291.25,233 L267.355251,245.208234 L267.268,235.209 L191.271171,235.869457 L191.23639,231.869608 L267.233,231.209 L267.146563,221.209141 Z" fill="#000000" fill-rule="nonzero"></path>
        <path id="Path-7" d="M518.875,57 L542.875,69 L518.875,81 L518.875,71 L442.875,71 L442.875,67 L518.875,67 L518.875,57 Z" fill="#000000" fill-rule="nonzero"></path>
        <path id="Path-7" d="M444.634011,93.8138212 L527.806,180.313 L535.015388,173.382702 L543,199 L517.715394,190.017311 L524.923,183.086 L441.750679,96.5862561 L444.634011,93.8138212 Z" fill="#000000" fill-rule="nonzero"></path>
        <path id="Path-7" d="M520.5,221 L544.5,233 L520.5,245 L520.5,235 L444.5,235 L444.5,231 L520.5,231 L520.5,221 Z" fill="#000000" fill-rule="nonzero"></path>
        <path id="Path-7" d="M773.375,221 L797.375,233 L773.375,245 L773.375,235 L697.375,235 L697.375,231 L773.375,231 L773.375,221 Z" fill="#000000" fill-rule="nonzero"></path>
        <path id="Path-7" d="M798,98 L791.405925,124.009963 L783.834,117.476 L705.438723,208.328646 L702.410333,205.715438 L780.806,114.863 L773.235585,108.330718 L798,98 Z" fill="#000000" fill-rule="nonzero"></path>
        <path id="Path-7" d="M541,98 L534.405925,124.009963 L526.834,117.476 L448.438723,208.328646 L445.410333,205.715438 L523.806,114.863 L516.235585,108.330718 L541,98 Z" fill="#000000" fill-rule="nonzero"></path>
        <path id="Path-7" d="M291,98 L284.405925,124.009963 L276.834,117.476 L198.438723,208.328646 L195.410333,205.715438 L273.806,114.863 L266.235585,108.330718 L291,98 Z" fill="#000000" fill-rule="nonzero"></path>
        <path id="Path-7" d="M771.887865,58.226939 L796,70 L772.11427,82.2258711 L772.019,72.226 L696.023317,72.9432653 L695.985583,68.9434432 L771.982,68.226 L771.887865,58.226939 Z" fill="#000000" fill-rule="nonzero"></path>
        <path id="Path-7" d="M695.124731,96.2178023 L780.36,180.685 L787.399622,173.582811 L796,199 L770.506022,190.629989 L777.544,183.526 L692.309131,99.0589986 L695.124731,96.2178023 Z" fill="#000000" fill-rule="nonzero"></path>
    </g>
</svg>