<?xml version="1.0" encoding="UTF-8"?>
<svg width="920px" height="285px" viewBox="0 0 920 285" version="1.1" xmlns="http://www.w3.org/2000/svg" xmlns:xlink="http://www.w3.org/1999/xlink">
    <title>nx-6341-chart</title>
    <g id="nx-6341-chart" stroke="none" stroke-width="1" fill="none" fill-rule="evenodd">
        <rect id="Rectangle-Copy" fill="#58C322" x="29" y="110" width="120" height="80" rx="10"></rect>
        <g id="Group" transform="translate(55.000000, 134.000000)" fill="#FFFFFF" fill-rule="nonzero">
            <g id="CS-A">
                <path d="M15.688,32 L25.768,-0.016 L19,-0.016 L12.232,21.44 L5.752,-0.016 L-1.016,-0.016 L8.68,32 L15.688,32 Z M33.8,32 L33.8,-0.016 L27.224,-0.016 L27.224,32 L33.8,32 Z" id="Combined-Shape"></path>
            </g>
        </g>
        <g id="Group" transform="translate(93.000000, 130.000000)" fill="#FFFFFF" fill-rule="nonzero">
            <g id="CS-minor">
                <path d="M8.935725,35 L8.935725,22.9 C8.935725,20.084 10.035725,18.632 12.147725,18.632 C14.171725,18.632 15.227725,20.084 15.227725,22.9 L15.227725,35 L20.815725,35 L20.815725,22.724 C20.815725,20.128 22.003725,18.632 24.071725,18.632 C26.183725,18.632 27.195725,19.952 27.195725,22.724 L27.195725,35 L32.783725,35 L32.783725,21.668 C32.783725,18.588 32.387725,17.18 31.155725,15.816 C30.011725,14.584 28.295725,13.924 26.227725,13.924 C23.323725,13.924 21.431725,14.98 20.067725,17.312 C19.099725,15.112 17.163725,13.924 14.523725,13.924 C11.927725,13.924 10.211725,14.936 8.935725,17.18 L8.935725,14.628 L3.347725,14.628 L3.347725,35 L8.935725,35 Z" id="Combined-Shape"></path>
            </g>
        </g>
        <rect id="Rectangle-Copy" fill="#FF5500" x="265" y="24" width="120" height="80" rx="10"></rect>
        <g id="Group" transform="translate(293.000000, 48.000000)" fill="#FFFFFF" fill-rule="nonzero">
            <g id="CS-A">
                <path d="M10.064,32 L10.064,-0.016 L3.488,-0.016 L3.488,32 L10.064,32 Z M21.312,32 L21.312,-0.016 L14.736,-0.016 L14.736,32 L21.312,32 Z M32.56,32 L32.56,-0.016 L25.984,-0.016 L25.984,32 L32.56,32 Z" id="Combined-Shape"></path>
            </g>
        </g>
        <g id="Group" transform="translate(329.000000, 44.000000)" fill="#FFFFFF" fill-rule="nonzero">
            <g id="CS-minor">
                <path d="M8.935725,35 L8.935725,22.9 C8.935725,20.084 10.035725,18.632 12.147725,18.632 C14.171725,18.632 15.227725,20.084 15.227725,22.9 L15.227725,35 L20.815725,35 L20.815725,22.724 C20.815725,20.128 22.003725,18.632 24.071725,18.632 C26.183725,18.632 27.195725,19.952 27.195725,22.724 L27.195725,35 L32.783725,35 L32.783725,21.668 C32.783725,18.588 32.387725,17.18 31.155725,15.816 C30.011725,14.584 28.295725,13.924 26.227725,13.924 C23.323725,13.924 21.431725,14.98 20.067725,17.312 C19.099725,15.112 17.163725,13.924 14.523725,13.924 C11.927725,13.924 10.211725,14.936 8.935725,17.18 L8.935725,14.628 L3.347725,14.628 L3.347725,35 L8.935725,35 Z" id="Combined-Shape"></path>
            </g>
        </g>
        <rect id="Rectangle-Copy" fill="#FF5500" x="265" y="190" width="120" height="80" rx="10"></rect>
        <g id="Group" transform="translate(307.000000, 214.000000)" fill="#FFFFFF" fill-rule="nonzero">
            <g id="CS-A">
                <path d="M21.312,32 L31.392,-0.016 L24.624,-0.016 L17.856,21.44 L11.376,-0.016 L4.608,-0.016 L14.304,32 L21.312,32 Z" id="Combined-Shape"></path>
            </g>
        </g>
        <rect id="Rectangle-Copy" fill="#FF5500" x="755" y="189" width="120" height="80" rx="10"></rect>
        <g id="Group" transform="translate(797.000000, 213.000000)" fill="#FFFFFF" fill-rule="nonzero">
            <g id="CS-A">
                <path d="M21.312,32 L31.392,-0.016 L24.624,-0.016 L17.856,21.44 L11.376,-0.016 L4.608,-0.016 L14.304,32 L21.312,32 Z" id="Combined-Shape"></path>
            </g>
        </g>
        <path d="M563,20 L613,20 C618.522847,20 623,24.4771525 623,30 L623,90 C623,95.5228475 618.522847,100 613,100 L563,100 L563,100 L563,20 Z" id="Rectangle-Copy" fill="#FF5500"></path>
        <g id="Group" transform="translate(574.000000, 46.000000)" fill="#FFFFFF" fill-rule="nonzero">
            <g id="CS-A">
                <path d="M21.312,32 L31.392,-0.016 L24.624,-0.016 L17.856,21.44 L11.376,-0.016 L4.608,-0.016 L14.304,32 L21.312,32 Z" id="Combined-Shape"></path>
            </g>
        </g>
        <rect id="Rectangle-Copy" fill="#FFBF00" x="503" y="190" width="120" height="80" rx="10"></rect>
        <g id="Group" transform="translate(545.000000, 214.000000)" fill="#FFFFFF" fill-rule="nonzero">
            <g id="CS-A">
                <path d="M8.824,32 L8.824,-0.016 L2.248,-0.016 L2.248,32 L8.824,32 Z M26.936,32 L37.016,-0.016 L30.248,-0.016 L23.48,21.44 L17,-0.016 L10.232,-0.016 L19.928,32 L26.936,32 Z" id="Combined-Shape"></path>
            </g>
        </g>
        <path d="M513,20 L563,20 L563,20 L563,100 L513,100 C507.477153,100 503,95.5228475 503,90 L503,30 C503,24.4771525 507.477153,20 513,20 Z" id="Rectangle-Copy" fill="#FFBF00"></path>
        <g id="Group" transform="translate(517.000000, 45.000000)" fill="#FFFFFF" fill-rule="nonzero">
            <g id="CS-A">
                <path d="M8.824,32 L8.824,-0.016 L2.248,-0.016 L2.248,32 L8.824,32 Z M26.936,32 L37.016,-0.016 L30.248,-0.016 L23.48,21.44 L17,-0.016 L10.232,-0.016 L19.928,32 L26.936,32 Z" id="Combined-Shape"></path>
            </g>
        </g>
        <path id="Path-7" d="M257,65 L242.808315,87.7727044 L237.582,79.246 L165.045124,123.705203 L162.954876,120.294797 L235.492,75.836 L230.266825,67.3102744 L257,65 Z" fill="#000000" fill-rule="nonzero"></path>
        <path id="Path-7" d="M165.0714,177.311183 L237.805,223.454 L243.162598,215.0103 L257,238 L230.305799,235.276102 L235.662,226.831 L162.9286,180.688817 L165.0714,177.311183 Z" fill="#000000" fill-rule="nonzero"></path>
        <rect id="Rectangle-Copy" fill="#58C322" x="755" y="20" width="120" height="80" rx="10"></rect>
        <g id="Group" transform="translate(797.000000, 44.000000)" fill="#FFFFFF" fill-rule="nonzero">
            <g id="CS-A">
                <path d="M21.312,32 L21.312,-0.016 L14.736,-0.016 L14.736,32 L21.312,32 Z" id="Combined-Shape"></path>
            </g>
        </g>
        <path id="Path-7" d="M465,49 L489,61 L465,73 L464.999,63 L402,63 L402,59 L464.999,59 L465,49 Z" fill="#000000" fill-rule="nonzero"></path>
        <path id="Path-7" d="M465,218 L489,230 L465,242 L464.999,232 L402,232 L402,228 L464.999,228 L465,218 Z" fill="#000000" fill-rule="nonzero"></path>
        <path id="Path-7" d="M403.362837,102.536212 L472.797,167.182 L479.611567,159.863228 L489,185 L463.257522,177.428683 L470.071,170.109 L400.637163,105.463788 L403.362837,102.536212 Z" fill="#000000" fill-rule="nonzero"></path>
        <path id="Path-7" d="M718.875,49 L742.875,61 L718.875,73 L718.875,63 L643,63 L643,59 L718.875,59 L718.875,49 Z" fill="#000000" fill-rule="nonzero"></path>
        <path id="Path-7" d="M718.875,219 L742.875,231 L718.875,243 L718.875,233 L643,233 L643,229 L718.875,229 L718.875,219 Z" fill="#000000" fill-rule="nonzero"></path>
        <path id="Path-7" d="M740,94 L730.871571,119.232356 L723.982,111.983 L640.377876,191.44964 L637.622124,188.55036 L721.226,109.085 L714.337058,101.83667 L740,94 Z" fill="#000000" fill-rule="nonzero"></path>
    </g>
</svg>