<?xml version="1.0" encoding="UTF-8" standalone="no"?><!DOCTYPE svg PUBLIC "-//W3C//DTD SVG 1.1//EN" "http://www.w3.org/Graphics/SVG/1.1/DTD/svg11.dtd"><svg width="660.0px" height="540.0px" viewBox="0 0 660 540" version="1.1" xmlns="http://www.w3.org/2000/svg" xmlns:xlink="http://www.w3.org/1999/xlink" xml:space="preserve" xmlns:serif="http://www.serif.com/" style="fill-rule:evenodd;clip-rule:evenodd;stroke-linecap:square;"><g id="nx-us-royal-cycle"><circle id="Oval" cx="346.5" cy="276" r="160" style="fill:none;stroke:#000;stroke-width:3px;"/><path id="Triangle" d="M472.899,176.899l-29.698,-9.899l19.799,-19.799l9.899,29.698Z" style="fill-rule:nonzero;"/><path id="Triangle1" serif:id="Triangle" d="M457.575,392.181l5.67,-30.787l22.361,16.851l-28.031,13.936Z" style="fill-rule:nonzero;"/><path id="Triangle2" serif:id="Triangle" d="M210,358.876l26.124,17.248l-24.248,14l-1.876,-31.248Z" style="fill-rule:nonzero;"/><path id="Triangle3" serif:id="Triangle" d="M238.899,157.101l-9.899,29.698l-19.799,-19.799l29.698,-9.899Z" style="fill-rule:nonzero;"/><path id="Rectangle-Copy" d="M392,405c0,-4.415 -3.585,-8 -8,-8l-80,0c-4.415,0 -8,3.585 -8,8l0,48c0,4.415 3.585,8 8,8l80,0c4.415,0 8,-3.585 8,-8l0,-48Z" style="fill:#58c322;"/><g id="Group"><g id="CS-A"><path id="Combined-Shape" d="M329.371,442l8.064,-25.613l-5.414,0l-5.414,17.165l-5.184,-17.165l-5.415,0l7.757,25.613l5.606,0Zm14.49,0l0,-25.613l-5.261,0l0,25.613l5.261,0Z" style="fill:#fff;fill-rule:nonzero;"/></g></g><g id="Group1" serif:id="Group"><g id="CS-minor"><path id="Combined-Shape1" serif:id="Combined-Shape" d="M354.149,440.8l-0,-9.68c-0,-2.253 0.88,-3.414 2.569,-3.414c1.619,-0 2.464,1.161 2.464,3.414l0,9.68l4.471,0l-0,-9.821c-0,-2.077 0.95,-3.273 2.604,-3.273c1.69,-0 2.5,1.056 2.5,3.273l-0,9.821l4.47,0l-0,-10.666c-0,-2.464 -0.317,-3.59 -1.302,-4.681c-0.916,-0.986 -2.288,-1.514 -3.943,-1.514c-2.323,0 -3.837,0.845 -4.928,2.711c-0.774,-1.76 -2.323,-2.711 -4.435,-2.711c-2.077,0 -3.45,0.81 -4.47,2.605l-0,-2.042l-4.471,0l0,16.298l4.471,-0Z" style="fill:#fff;fill-rule:nonzero;"/></g></g><path id="Rectangle-Copy1" serif:id="Rectangle-Copy" d="M552,240c0,-4.415 -3.585,-8 -8,-8l-80,0c-4.415,0 -8,3.585 -8,8l0,48c0,4.415 3.585,8 8,8l80,0c4.415,0 8,-3.585 8,-8l0,-48Z" style="fill:#f50;"/><g id="Group2" serif:id="Group"><g id="CS-A1" serif:id="CS-A"><path id="Combined-Shape2" serif:id="Combined-Shape" d="M506.871,277l8.064,-25.613l-5.415,0l-5.414,17.165l-5.184,-17.165l-5.415,0l7.757,25.613l5.607,0Z" style="fill:#fff;fill-rule:nonzero;"/></g></g><path id="Rectangle-Copy2" serif:id="Rectangle-Copy" d="M232,240c0,-4.415 -3.585,-8 -8,-8l-80,0c-4.415,0 -8,3.585 -8,8l0,48c0,4.415 3.585,8 8,8l80,0c4.415,0 8,-3.585 8,-8l0,-48Z" style="fill:#ffbf00;"/><g id="Group3" serif:id="Group"><g id="CS-A2" serif:id="CS-A"><path id="Combined-Shape3" serif:id="Combined-Shape" d="M176.88,277l0,-25.613l-5.261,0l0,25.613l5.261,0Zm14.49,0l8.064,-25.613l-5.415,0l-5.414,17.165l-5.184,-17.165l-5.414,0l7.756,25.613l5.607,0Z" style="fill:#fff;fill-rule:nonzero;"/></g></g><path id="Rectangle-Copy3" serif:id="Rectangle-Copy" d="M392,90c0,-4.415 -3.585,-8 -8,-8l-80,0c-4.415,0 -8,3.585 -8,8l0,48c0,4.415 3.585,8 8,8l80,0c4.415,0 8,-3.585 8,-8l0,-48Z" style="fill:#58c322;"/><g id="Group4" serif:id="Group"><g id="CS-A3" serif:id="CS-A"><rect id="Combined-Shape4" serif:id="Combined-Shape" x="341.61" y="101.387" width="5.261" height="25.613" style="fill:#fff;fill-rule:nonzero;"/></g></g><g id="ここ始まりなら-1-5-6-4"><text x="296px" y="40px" style="font-family:'NotoSansSC-Bold', 'Noto Sans SC', sans-serif;font-weight:700;font-size:16px;">从这里开始是</text><text x="311.328px" y="61px" style="font-family:'NotoSansSC-Bold', 'Noto Sans SC', sans-serif;font-weight:700;font-size:16px;">1-5-6-4</text></g><g id="USポップスの-王道サイクル-" serif:id="USポップスの-王道サイクル?"><g transform="matrix(1,0,0,1,291.648,265)"><text x="0px" y="0px" style="font-family:'NotoSansSC-Bold', 'Noto Sans SC', sans-serif;font-weight:700;font-size:16px;">欧美流行乐的</text><text x="0px" y="20px" style="font-family:'NotoSansSC-Bold', 'Noto Sans SC', sans-serif;font-weight:700;font-size:16px;">王道进行循环</text></g></g><g id="ここ始まりなら-6-4-1-5"><text x="296px" y="493px" style="font-family:'NotoSansSC-Bold', 'Noto Sans SC', sans-serif;font-weight:700;font-size:16px;">从这里开始是</text><text x="311.328px" y="514px" style="font-family:'NotoSansSC-Bold', 'Noto Sans SC', sans-serif;font-weight:700;font-size:16px;">6-4-1-5</text></g><g id="ここ始まりなら-4-1-5-6"><text x="46px" y="329px" style="font-family:'NotoSansSC-Bold', 'Noto Sans SC', sans-serif;font-weight:700;font-size:16px;">从这里开始是</text><text x="61.328px" y="350px" style="font-family:'NotoSansSC-Bold', 'Noto Sans SC', sans-serif;font-weight:700;font-size:16px;">4-1-5-6</text></g></g></svg>