<?xml version="1.0" encoding="UTF-8" standalone="no"?><!DOCTYPE svg PUBLIC "-//W3C//DTD SVG 1.1//EN" "http://www.w3.org/Graphics/SVG/1.1/DTD/svg11.dtd"><svg width="420.0px" height="280.0px" viewBox="0 0 420 280" version="1.1" xmlns="http://www.w3.org/2000/svg" xmlns:xlink="http://www.w3.org/1999/xlink" xml:space="preserve" xmlns:serif="http://www.serif.com/" style="fill-rule:evenodd;clip-rule:evenodd;stroke-linecap:square;"><g id="nx-what-is-nexus"><g id="Group-2"><path id="Rectangle-Copy" d="M144,115c0,-5.519 -4.481,-10 -10,-10l-100,0c-5.519,0 -10,4.481 -10,10l0,60c0,5.519 4.481,10 10,10l100,0c5.519,0 10,-4.481 10,-10l0,-60Z" style="fill:#58c322;"/><g id="Group"><g id="CS-A"><rect id="Combined-Shape" x="80.736" y="128.984" width="6.576" height="32.016" style="fill:#fff;fill-rule:nonzero;"/></g></g></g><g id="Group-3"><path id="Rectangle-Copy1" serif:id="Rectangle-Copy" d="M391,115c0,-5.519 -4.481,-10 -10,-10l-100,0c-5.519,0 -10,4.481 -10,10l0,60c0,5.519 4.481,10 10,10l100,0c5.519,0 10,-4.481 10,-10l0,-60Z" style="fill:#f50;"/><g id="Group1" serif:id="Group"><g id="CS-A1" serif:id="CS-A"><path id="Combined-Shape1" serif:id="Combined-Shape" d="M334.312,163l10.08,-32.016l-6.768,0l-6.768,21.456l-6.48,-21.456l-6.768,0l9.696,32.016l7.008,0Z" style="fill:#fff;fill-rule:nonzero;"/></g></g></g><path id="Line-7" d="M234,133l24,12l-24,12l0,-10l-79,0l0,-4l79,0l0,-10Z" style="fill-rule:nonzero;"/><path id="Path-3" d="M198.5,145l19.52,-41.587c2.257,-4.807 2.865,-10.225 1.73,-15.413c-1.022,-4.671 -5.158,-8 -9.939,-8l-3.311,0c-4.418,0 -8,3.582 -8,8l0,3.634c0,2.652 1.57,5.053 4,6.116c2.494,1.091 5.371,0.844 7.642,-0.658l11.108,-7.342c9.351,-6.181 15.492,-16.179 16.777,-27.315l0.973,-8.435" style="fill:none;fill-rule:nonzero;stroke:#000;stroke-width:2px;"/><g id="コードの「接続」"><text x="155px" y="46px" style="font-family:'NotoSansSC-Bold', 'Noto Sans SC', sans-serif;font-weight:700;font-size:20px;">和弦的“连接”</text></g><g id="「コード進行」"><text x="152px" y="250px" style="font-family:'NotoSansSC-Bold', 'Noto Sans SC', sans-serif;font-weight:700;font-size:20px;">“和弦进行”</text></g><path id="Path-4" d="M24,195.5l0,28l367,0l0,-28" style="fill:none;fill-rule:nonzero;stroke:#000;stroke-width:2px;"/></g></svg>