<?xml version="1.0" encoding="UTF-8" standalone="no"?><!DOCTYPE svg PUBLIC "-//W3C//DTD SVG 1.1//EN" "http://www.w3.org/Graphics/SVG/1.1/DTD/svg11.dtd"><svg width="720.0px" height="340.0px" viewBox="0 0 720 340" version="1.1" xmlns="http://www.w3.org/2000/svg" xmlns:xlink="http://www.w3.org/1999/xlink" xml:space="preserve" xmlns:serif="http://www.serif.com/" style="fill-rule:evenodd;clip-rule:evenodd;"><g id="p-note-names-in-minor"><g id="五線"><path id="horizon" d="M22,80.5l670,0" style="fill:none;stroke:#000;stroke-width:1px;"/><path id="horizon1" serif:id="horizon" d="M22,100.5l670,0" style="fill:none;stroke:#000;stroke-width:1px;"/><path id="horizon2" serif:id="horizon" d="M22,120.5l670,0" style="fill:none;stroke:#000;stroke-width:1px;"/><path id="horizon3" serif:id="horizon" d="M22,140.5l670,0" style="fill:none;stroke:#000;stroke-width:1px;"/><path id="horizon4" serif:id="horizon" d="M22,160.5l670,0" style="fill:none;stroke:#000;stroke-width:1px;"/></g><path id="bar" d="M690.5,80.5l0,79" style="fill:none;stroke:#000;stroke-width:1px;stroke-linecap:round;stroke-linejoin:round;"/><path id="bar1" serif:id="bar" d="M23.5,79.5l-0,81" style="fill:none;stroke:#000;stroke-width:2px;stroke-linecap:round;stroke-linejoin:round;"/><path id="G-Clef" d="M51.162,180.963c-0.896,-0.067 -1.758,-0.212 -2.572,-0.434c-4.215,-1.144 -7.135,-4.322 -7.815,-8.51c-0.2,-1.227 -0.133,-3.147 0.148,-4.243c0.214,-0.839 0.733,-2.038 1.151,-2.663c0.705,-1.051 1.91,-2.046 3.112,-2.564c0.988,-0.428 1.52,-0.541 2.766,-0.585c0.988,-0.037 1.232,-0.021 1.803,0.127c2.488,0.639 4.503,2.772 5.377,5.693c0.197,0.66 0.215,0.827 0.219,2.125c0.003,1.232 -0.018,1.489 -0.173,2.037c-0.344,1.217 -0.932,2.198 -1.871,3.115c-1.375,1.348 -2.986,2.157 -5.161,2.597l-0.933,0.19l0.662,0.288c3.535,1.554 7.448,1.404 11.096,-0.419c3.193,-1.594 5.662,-4.479 6.511,-7.607c0.206,-0.756 0.218,-0.895 0.212,-2.334l-0.006,-1.529l-1.192,-5.916c-0.655,-3.254 -1.209,-5.976 -1.23,-6.05c-0.036,-0.115 -0.118,-0.099 -0.684,0.137c-3.656,1.527 -9.188,1.507 -14.237,-0.05c-6.917,-2.133 -12.563,-6.814 -15.506,-12.854c-0.918,-1.887 -1.454,-3.69 -1.751,-5.895c-0.133,-0.993 -0.112,-3.622 0.041,-4.871c0.82,-6.682 4.269,-13.382 10.772,-20.928c2.024,-2.348 6.454,-6.742 9.422,-9.347c0.79,-0.692 0.823,-0.736 0.762,-0.96c-0.137,-0.519 -0.614,-3.035 -0.762,-4.021c-0.683,-4.598 -0.682,-9.937 0.004,-14.609c1.077,-7.34 3.601,-13.508 7.275,-17.769c0.67,-0.778 2.088,-2.114 2.243,-2.114c0.05,-0 0.48,0.589 0.953,1.309c4.397,6.662 6.723,12.596 7.359,18.761c0.158,1.542 0.114,5.159 -0.082,6.57c-0.644,4.656 -2.147,8.697 -4.725,12.7c-1.685,2.621 -4.224,5.599 -6.815,7.999c-0.591,0.549 -1.214,1.126 -1.383,1.284l-0.306,0.286l1.357,6.676l1.356,6.678l0.672,-0.052c1.889,-0.152 3.885,-0.041 5.312,0.292c1.899,0.446 4.037,1.463 5.636,2.68c0.892,0.68 2.377,2.199 3.004,3.074c1.499,2.09 2.477,4.582 2.75,7.001c0.136,1.197 0.055,3.525 -0.153,4.493c-0.823,3.832 -3.259,7.435 -6.97,10.306c-0.918,0.71 -2.256,1.567 -3.228,2.07c-0.658,0.341 -0.715,0.387 -0.672,0.565c0.083,0.337 1.138,5.465 1.532,7.444c0.207,1.039 0.525,2.76 0.708,3.824c0.322,1.872 0.332,1.969 0.288,3.179c-0.078,2.3 -0.656,4.098 -1.96,6.117c-2.485,3.844 -6.937,6.295 -12.129,6.677c-1.097,0.08 -1.45,0.086 -2.187,0.03Zm6.583,-27.078c0.977,-0.115 2.214,-0.381 3.016,-0.651c0.982,-0.329 2.167,-0.914 2.12,-1.047c-0.022,-0.059 -1.026,-4.955 -2.232,-10.883c-1.206,-5.927 -2.212,-10.796 -2.236,-10.82c-0.023,-0.024 -0.424,0.032 -0.89,0.127c-3.416,0.692 -6.219,2.651 -7.447,5.205c-0.387,0.805 -0.535,1.332 -0.635,2.252c-0.212,1.955 0.417,4.102 1.703,5.804c0.749,0.993 1.89,2.054 2.937,2.734c0.401,0.26 0.478,0.388 0.197,0.327c-0.098,-0.02 -0.442,-0.095 -0.764,-0.163c-2.533,-0.547 -4.982,-1.98 -6.371,-3.723c-1.22,-1.533 -1.839,-3.127 -2.016,-5.199c-0.226,-2.641 0.466,-5.187 2.084,-7.683c1.045,-1.612 2.849,-3.367 4.656,-4.529c1.309,-0.843 3.293,-1.703 4.645,-2.014c0.247,-0.056 0.449,-0.129 0.449,-0.159c0,-0.087 -2.504,-12.339 -2.546,-12.456c-0.061,-0.172 -3.455,2.612 -5.742,4.707c-1.261,1.156 -3.945,3.95 -4.919,5.122c-2.941,3.537 -4.841,6.719 -5.904,9.88c-1.068,3.188 -1.334,6.256 -0.788,9.16c0.664,3.53 2.941,7.224 5.986,9.712c4.136,3.377 9.403,4.917 14.697,4.297Zm7.76,-3.357c2.819,-2.421 4.487,-5.175 4.98,-8.215c0.166,-1.019 0.122,-3.168 -0.08,-4.118c-0.825,-3.849 -3.344,-6.821 -6.664,-7.862c-0.654,-0.206 -0.805,-0.222 -2.094,-0.224c-0.817,-0 -1.417,0.03 -1.458,0.078c-0.041,0.047 0.802,4.276 2.112,10.584c1.199,5.777 2.181,10.514 2.183,10.528c0.008,0.064 0.351,-0.196 1.021,-0.771Zm-9.221,-54.512c5.675,-5.681 9.029,-11.213 9.728,-16.053c0.157,-1.09 0.155,-2.867 -0.006,-3.836c-0.322,-1.932 -1.11,-3.629 -2.45,-5.265c-0.532,-0.65 -0.612,-0.684 -1.618,-0.682c-1.108,0.002 -2.116,0.528 -3.161,1.65c-1.733,1.854 -3.181,4.885 -4.248,8.877c-1.483,5.559 -1.939,12.511 -1.125,17.22l0.127,0.744l0.794,-0.744c0.436,-0.41 1.316,-1.269 1.959,-1.911Z"/><g id="Group"><g id="Rectangle"><rect x="122" y="200" width="45" height="2" style="fill:#0c0c0c;"/></g></g><g id="Group1" serif:id="Group"><g id="Rectangle1" serif:id="Rectangle"><rect x="122" y="178" width="45" height="2" style="fill:#0c0c0c;"/></g></g><g id="Group2" serif:id="Group"><g id="Rectangle2" serif:id="Rectangle"><rect x="202" y="178" width="45" height="2" style="fill:#0c0c0c;"/></g></g><g id="Group3" serif:id="Group"><g id="Rectangle3" serif:id="Rectangle"><rect x="282" y="178" width="45" height="2" style="fill:#0c0c0c;"/></g></g><path id="Path" d="M228.807,198.706c6.295,-3.342 9.648,-9.391 7.585,-13.942c-2.2,-4.855 -9.763,-6.225 -16.88,-3.059c-7.118,3.166 -11.107,9.677 -8.907,14.531c2.2,4.855 9.764,6.225 16.88,3.059c0.445,-0.198 0.903,-0.365 1.322,-0.589Z"/><path id="Path1" serif:id="Path" d="M308.807,188.706c6.295,-3.342 9.648,-9.391 7.585,-13.942c-2.2,-4.855 -9.763,-6.225 -16.88,-3.059c-7.118,3.166 -11.107,9.677 -8.907,14.531c2.2,4.855 9.764,6.225 16.88,3.059c0.445,-0.198 0.903,-0.365 1.322,-0.589Z"/><path id="Path2" serif:id="Path" d="M388.807,178.706c6.295,-3.342 9.648,-9.391 7.585,-13.942c-2.2,-4.855 -9.763,-6.225 -16.88,-3.059c-7.118,3.166 -11.107,9.677 -8.907,14.531c2.2,4.855 9.764,6.225 16.88,3.059c0.445,-0.198 0.903,-0.365 1.322,-0.589Z"/><path id="Path3" serif:id="Path" d="M468.807,168.706c6.295,-3.342 9.648,-9.391 7.585,-13.942c-2.2,-4.855 -9.763,-6.225 -16.88,-3.059c-7.118,3.166 -11.107,9.677 -8.907,14.531c2.2,4.855 9.764,6.225 16.88,3.059c0.445,-0.198 0.903,-0.365 1.322,-0.589Z"/><path id="Path4" serif:id="Path" d="M148.807,208.706c6.295,-3.342 9.648,-9.391 7.585,-13.942c-2.2,-4.855 -9.763,-6.225 -16.88,-3.059c-7.118,3.166 -11.107,9.677 -8.907,14.531c2.2,4.855 9.764,6.225 16.88,3.059c0.445,-0.198 0.903,-0.365 1.322,-0.589Z"/><path id="Path5" serif:id="Path" d="M548.807,158.706c6.295,-3.342 9.648,-9.391 7.585,-13.942c-2.2,-4.855 -9.763,-6.225 -16.88,-3.059c-7.118,3.166 -11.107,9.677 -8.907,14.531c2.2,4.855 9.764,6.225 16.88,3.059c0.445,-0.198 0.903,-0.365 1.322,-0.589Z"/><path id="Path6" serif:id="Path" d="M628.807,148.706c6.295,-3.342 9.648,-9.391 7.585,-13.942c-2.2,-4.855 -9.763,-6.225 -16.88,-3.059c-7.118,3.166 -11.107,9.677 -8.907,14.531c2.2,4.855 9.764,6.225 16.88,3.059c0.445,-0.198 0.903,-0.365 1.322,-0.589Z"/><g id="Degree"><g><path d="M143.425,234.29c1.23,0 2.34,-1.08 2.34,-2.25c-0,-0.84 -0.63,-1.47 -1.5,-1.47c-1.2,0 -2.31,1.08 -2.31,2.25c-0,0.84 0.63,1.47 1.47,1.47Zm0.18,16.71l0.24,-1.14l-0.27,0c-0.9,0 -1.26,-0.21 -1.26,-0.78c-0,-0.36 0.06,-0.81 0.33,-2.04l1.05,-4.92c0.42,-1.92 0.69,-2.94 1.08,-3.99l-0.54,-0.39c-1.23,0.6 -3.72,1.41 -5.19,1.68l-0.21,1.05l0.15,-0c1.08,-0 1.41,0.18 1.41,0.84c-0,0.42 -0.12,1.17 -0.42,2.55l-0.66,3.18c-0.54,2.61 -0.63,2.73 -2.28,2.82l-0.39,-0l-0.24,1.14c1.38,-0.12 2.25,-0.15 3.45,-0.15c1.2,-0 2.19,0.03 3.75,0.15Z" style="fill:#888;"/></g></g><g id="Degree1" serif:id="Degree"><path d="M122.867,319.913c0.494,-0 1.034,-0.09 1.543,-0.27c0.12,-0.03 0.195,-0.06 0.225,-0.06c0.015,-0.015 0.06,-0.03 0.105,-0.03l0.045,-0.539c-0.285,0.09 -0.435,0.12 -0.645,0.12c-0.509,-0 -0.764,-0.21 -0.764,-0.63c0,-0.224 0.105,-0.854 0.285,-1.678l0.479,-2.293l1.574,0l0.3,-0.689l-1.694,0l0.45,-2.023l-0.54,-0.045c-0.569,1.004 -1.468,1.798 -2.442,2.188l-0.21,0.569l0.794,0l-0.704,3.312c-0.12,0.569 -0.15,0.779 -0.15,1.004c0,0.689 0.48,1.064 1.349,1.064Zm5.994,-0c2.397,-0 4.405,-1.843 4.405,-4.016c0,-1.558 -1.123,-2.592 -2.802,-2.592c-2.427,-0 -4.465,1.843 -4.465,4.031c-0,1.558 1.124,2.577 2.862,2.577Zm0.3,-0.614c-0.885,-0 -1.349,-0.675 -1.349,-1.948c-0,-1.949 1.004,-3.417 2.323,-3.417c0.869,-0 1.348,0.674 1.348,1.918c0,1.963 -0.989,3.447 -2.322,3.447Zm12.093,0.464l0.12,-0.569l-0.12,-0c-0.51,-0 -0.705,-0.105 -0.705,-0.405c0,-0.18 0.03,-0.36 0.165,-1.004l0.405,-1.918c0.105,-0.435 0.18,-1.079 0.18,-1.364c-0,-0.689 -0.63,-1.168 -1.559,-1.168c-0.494,-0 -0.644,0.059 -2.098,0.764c-0.09,0.03 -0.15,0.06 -0.269,0.135c0.119,-0.435 0.149,-0.51 0.284,-0.884l-0.269,-0.195c-0.54,0.254 -1.754,0.644 -2.578,0.824l-0.105,0.524l0.075,0c0.525,0 0.689,0.09 0.689,0.42c0,0.225 -0.06,0.569 -0.194,1.244l-0.345,1.618c-0.27,1.304 -0.33,1.364 -1.139,1.409l-0.165,-0l-0.12,0.569c0.525,-0.039 0.877,-0.056 1.459,-0.059l0.265,-0.001c0.749,0 1.124,0.015 1.768,0.06l0.12,-0.569l-0.06,-0c-0.45,-0 -0.63,-0.105 -0.63,-0.39l0.001,-0.06c0.003,-0.12 0.023,-0.219 0.179,-0.959l0.63,-2.922c0.614,-0.405 1.094,-0.584 1.603,-0.584c0.42,-0 0.704,0.284 0.704,0.719c0,0.18 -0.045,0.524 -0.12,0.854l-0.404,1.933c-0.27,1.289 -0.33,1.364 -1.034,1.409l-0.09,-0l-0.12,0.569c0.669,-0.039 1.062,-0.056 1.522,-0.059l0.201,-0.001c0.555,0 0.974,0.015 1.754,0.06Zm4.345,-8.347c0.615,0 1.169,-0.539 1.169,-1.123c0,-0.42 -0.314,-0.735 -0.749,-0.735c-0.599,0 -1.154,0.54 -1.154,1.124c0,0.42 0.315,0.734 0.734,0.734Zm0.09,8.347l0.12,-0.569l-0.135,-0c-0.449,-0 -0.629,-0.105 -0.629,-0.39c0,-0.18 0.03,-0.405 0.165,-1.019l0.524,-2.457c0.21,-0.96 0.345,-1.469 0.54,-1.993l-0.27,-0.195c-0.614,0.299 -1.858,0.704 -2.592,0.839l-0.105,0.524l0.075,0c0.539,0 0.704,0.09 0.704,0.42c0,0.21 -0.06,0.584 -0.21,1.274l-0.329,1.588c-0.27,1.304 -0.315,1.364 -1.139,1.409l-0.195,-0l-0.12,0.569c0.689,-0.06 1.124,-0.075 1.723,-0.075c0.6,0 1.094,0.015 1.873,0.075Zm4.047,0.15c1.078,-0 2.082,-0.39 3.086,-1.229l-0.254,-0.404c-0.69,0.404 -1.184,0.569 -1.739,0.569c-1.049,0 -1.693,-0.734 -1.693,-1.963c0,-1.603 0.959,-2.967 2.068,-2.967c0.375,-0 0.659,0.225 0.794,0.629c0.165,0.555 0.255,0.66 0.51,0.66c0.539,-0 1.154,-0.405 1.154,-0.765c-0,-0.104 -0.075,-0.254 -0.21,-0.419c-0.33,-0.42 -1.079,-0.689 -1.858,-0.689c-2.383,-0 -4.331,1.888 -4.331,4.18c0,1.454 0.974,2.398 2.473,2.398Z" style="fill:#aaa;"/></g><g id="Degree2" serif:id="Degree"><path d="M204.413,314.913c1.708,-0 3.056,-1.079 3.056,-2.458c0,-0.674 -0.374,-1.153 -1.333,-1.678c-0.689,-0.375 -0.989,-0.674 -0.989,-0.989c-0,-0.494 0.494,-0.899 1.094,-0.899c0.644,-0 1.004,0.435 1.004,1.229l0.539,-0.06l0.18,-1.394c-0.569,-0.225 -1.064,-0.329 -1.633,-0.329c-1.634,-0 -2.848,0.989 -2.848,2.322c0,0.69 0.42,1.214 1.364,1.708c0.644,0.345 0.959,0.66 0.959,0.96c0,0.554 -0.584,1.004 -1.304,1.004c-0.794,-0 -1.123,-0.405 -1.168,-1.469l-0.57,0.075l-0.15,1.618c0.645,0.255 1.169,0.36 1.799,0.36Zm8.661,0.09c1.064,-0.285 1.798,-0.42 2.533,-0.48l0.104,-0.524l-0.075,-0c-0.524,-0 -0.749,-0.12 -0.749,-0.375l0,-0.032l0.002,-0.062c0.006,-0.106 0.027,-0.234 0.101,-0.584l0.051,-0.237c0.038,-0.179 0.086,-0.399 0.146,-0.673l0.345,-1.649c0.164,-0.794 0.269,-1.228 0.479,-2.023c-0.554,0.075 -1.588,0.165 -2.143,0.165c-0.075,0 -0.269,0 -0.479,-0.015l-0.12,0.555l0.075,-0c0.479,-0 0.659,0.12 0.659,0.434c0,0.135 -0.03,0.27 -0.165,0.914l-0.629,2.952c-0.659,0.39 -1.124,0.555 -1.588,0.555c-0.465,-0 -0.75,-0.285 -0.75,-0.749c0,-0.24 0.045,-0.495 0.255,-1.499l0.225,-1.034c0.075,-0.374 0.15,-0.704 0.195,-0.884c0.075,-0.33 0.149,-0.644 0.224,-0.959l0.105,-0.435c-0.569,0.09 -1.468,0.15 -2.128,0.15l-0.479,0l-0.12,0.555l0.075,-0c0.479,-0 0.659,0.12 0.659,0.419l-0.001,0.069c-0.007,0.127 -0.037,0.29 -0.164,0.86l-0.464,2.203c-0.15,0.66 -0.165,0.779 -0.165,1.049c0,0.749 0.54,1.274 1.349,1.274c0.779,-0 1.678,-0.315 2.652,-0.959c-0.09,0.27 -0.15,0.419 -0.315,0.764l0.3,0.255Zm6.339,3.072l0.12,-0.57l-0.21,0c-0.48,0 -0.704,-0.12 -0.704,-0.374c-0,-0.18 0.045,-0.495 0.165,-1.034l0.329,-1.514c0.585,0.24 1.034,0.33 1.559,0.33c2.113,-0 3.971,-2.023 3.971,-4.331c-0,-1.333 -0.869,-2.247 -2.113,-2.247c-0.57,-0 -1.079,0.179 -2.263,0.824c0.12,-0.36 0.135,-0.42 0.285,-0.824l-0.285,-0.18c-0.869,0.404 -1.648,0.659 -2.502,0.824l-0.105,0.524c0.584,0 0.704,0.075 0.704,0.405c-0,0.195 -0.045,0.42 -0.225,1.274l-1.034,4.915c-0.27,1.303 -0.329,1.363 -1.064,1.408l-0.195,0l-0.119,0.57c0.726,-0.042 1.1,-0.062 1.436,-0.07l0.221,-0.004c0.074,-0.001 0.15,-0.001 0.231,-0.001c0.554,-0 0.914,0.015 1.798,0.075Zm1.064,-3.821c-0.525,-0 -0.944,-0.18 -1.184,-0.525l0.854,-4.016c0.42,-0.21 0.914,-0.33 1.334,-0.33c0.779,0 1.348,0.69 1.348,1.649c0,1.768 -1.063,3.222 -2.352,3.222Zm7.552,0.659c1.094,-0 2.203,-0.48 3.177,-1.349l-0.284,-0.389c-0.72,0.464 -1.214,0.644 -1.739,0.644c-1.034,0 -1.663,-0.704 -1.663,-1.843c-0,-0.345 0.06,-0.689 0.15,-0.914l3.341,-0c0.36,-0 0.465,-0.03 0.57,-0.15c0.165,-0.18 0.27,-0.584 0.27,-0.989c-0,-0.974 -0.765,-1.588 -1.978,-1.588c-2.248,-0 -4.181,1.963 -4.181,4.225c-0,1.409 0.944,2.353 2.337,2.353Zm1.679,-4.451l-1.858,0c0.449,-1.004 1.019,-1.498 1.753,-1.498c0.494,-0 0.794,0.285 0.794,0.764c0,0.51 -0.21,0.734 -0.689,0.734Zm5.559,4.301l0.135,-0.584l-0.195,-0c-0.509,-0 -0.704,-0.105 -0.704,-0.405l0.001,-0.065c0.002,-0.13 0.023,-0.227 0.179,-0.954l0.21,-0.989c0.299,-1.394 0.734,-2.023 1.393,-2.023c0.18,0 0.39,0.045 0.63,0.135c0.18,0.075 0.329,0.12 0.434,0.12c0.33,-0 0.929,-0.809 0.929,-1.259c0,-0.24 -0.284,-0.404 -0.719,-0.404c-0.794,-0 -1.468,0.419 -2.293,1.423c0.15,-0.764 0.21,-1.109 0.255,-1.498l-0.09,-0.03c-0.584,0.269 -1.378,0.524 -2.457,0.809l-0.105,0.524l0.105,0c0.419,0 0.599,0.12 0.599,0.405c0,0.15 -0.075,0.584 -0.165,1.049l-0.374,1.738c-0.27,1.319 -0.315,1.394 -1.064,1.424l-0.195,-0l-0.12,0.584c0.629,-0.045 1.004,-0.06 1.708,-0.06c0.75,0 1.184,0.015 1.903,0.06Zm6.099,-2.967l0.255,-1.214l-3.761,0l-0.255,1.214l3.761,0Zm-33.499,18.117c0.494,-0 1.034,-0.09 1.543,-0.27c0.12,-0.03 0.195,-0.06 0.225,-0.06c0.015,-0.015 0.06,-0.03 0.105,-0.03l0.045,-0.539c-0.285,0.09 -0.435,0.12 -0.645,0.12c-0.509,-0 -0.764,-0.21 -0.764,-0.63c0,-0.224 0.105,-0.854 0.285,-1.678l0.479,-2.293l1.574,0l0.3,-0.689l-1.694,0l0.45,-2.023l-0.54,-0.045c-0.569,1.004 -1.468,1.798 -2.442,2.188l-0.21,0.569l0.794,0l-0.704,3.312c-0.12,0.569 -0.15,0.779 -0.15,1.004c0,0.689 0.48,1.064 1.349,1.064Zm5.994,-0c2.397,-0 4.405,-1.843 4.405,-4.016c0,-1.558 -1.123,-2.592 -2.802,-2.592c-2.427,-0 -4.465,1.843 -4.465,4.031c-0,1.558 1.124,2.577 2.862,2.577Zm0.3,-0.614c-0.885,-0 -1.349,-0.675 -1.349,-1.948c-0,-1.949 1.004,-3.417 2.323,-3.417c0.869,-0 1.348,0.674 1.348,1.918c0,1.963 -0.989,3.447 -2.322,3.447Zm12.093,0.464l0.12,-0.569l-0.12,-0c-0.51,-0 -0.705,-0.105 -0.705,-0.405c0,-0.18 0.03,-0.36 0.165,-1.004l0.405,-1.918c0.105,-0.435 0.18,-1.079 0.18,-1.364c-0,-0.689 -0.63,-1.168 -1.559,-1.168c-0.494,-0 -0.644,0.059 -2.098,0.764c-0.09,0.03 -0.15,0.06 -0.269,0.135c0.119,-0.435 0.149,-0.51 0.284,-0.884l-0.269,-0.195c-0.54,0.254 -1.754,0.644 -2.578,0.824l-0.105,0.524l0.075,0c0.525,0 0.689,0.09 0.689,0.42c0,0.225 -0.06,0.569 -0.194,1.244l-0.345,1.618c-0.27,1.304 -0.33,1.364 -1.139,1.409l-0.165,-0l-0.12,0.569c0.525,-0.039 0.877,-0.056 1.459,-0.059l0.265,-0.001c0.749,0 1.124,0.015 1.768,0.06l0.12,-0.569l-0.06,-0c-0.45,-0 -0.63,-0.105 -0.63,-0.39l0.001,-0.06c0.003,-0.12 0.023,-0.219 0.179,-0.959l0.63,-2.922c0.614,-0.405 1.094,-0.584 1.603,-0.584c0.42,-0 0.704,0.284 0.704,0.719c0,0.18 -0.045,0.524 -0.12,0.854l-0.404,1.933c-0.27,1.289 -0.33,1.364 -1.034,1.409l-0.09,-0l-0.12,0.569c0.669,-0.039 1.062,-0.056 1.522,-0.059l0.201,-0.001c0.555,0 0.974,0.015 1.754,0.06Zm4.345,-8.347c0.615,0 1.169,-0.539 1.169,-1.123c0,-0.42 -0.314,-0.735 -0.749,-0.735c-0.599,0 -1.154,0.54 -1.154,1.124c0,0.42 0.315,0.734 0.734,0.734Zm0.09,8.347l0.12,-0.569l-0.135,-0c-0.449,-0 -0.629,-0.105 -0.629,-0.39c0,-0.18 0.03,-0.405 0.165,-1.019l0.524,-2.457c0.21,-0.96 0.345,-1.469 0.54,-1.993l-0.27,-0.195c-0.614,0.299 -1.858,0.704 -2.592,0.839l-0.105,0.524l0.075,0c0.539,0 0.704,0.09 0.704,0.42c0,0.21 -0.06,0.584 -0.21,1.274l-0.329,1.588c-0.27,1.304 -0.315,1.364 -1.139,1.409l-0.195,-0l-0.12,0.569c0.689,-0.06 1.124,-0.075 1.723,-0.075c0.6,0 1.094,0.015 1.873,0.075Zm4.047,0.15c1.078,-0 2.082,-0.39 3.086,-1.229l-0.254,-0.404c-0.69,0.404 -1.184,0.569 -1.739,0.569c-1.049,0 -1.693,-0.734 -1.693,-1.963c0,-1.603 0.959,-2.967 2.068,-2.967c0.375,-0 0.659,0.225 0.794,0.629c0.165,0.555 0.255,0.66 0.51,0.66c0.539,-0 1.154,-0.405 1.154,-0.765c-0,-0.104 -0.075,-0.254 -0.21,-0.419c-0.33,-0.42 -1.079,-0.689 -1.858,-0.689c-2.383,-0 -4.331,1.888 -4.331,4.18c0,1.454 0.974,2.398 2.473,2.398Z" style="fill:#aaa;"/></g><g id="Degree3" serif:id="Degree"><path d="M285.394,321.763l0.12,-0.569l-0.09,-0c-0.449,-0 -0.644,-0.105 -0.644,-0.375l0,-0.034l0.003,-0.065c0.009,-0.129 0.045,-0.288 0.177,-0.935l0.39,-1.828c0.104,-0.48 0.164,-1.019 0.164,-1.379c0,-0.779 -0.629,-1.243 -1.648,-1.243c-0.569,-0 -1.394,0.314 -2.562,0.959c-0.165,-0.63 -0.69,-0.959 -1.529,-0.959c-0.614,-0 -0.989,0.134 -2.398,0.824c0.12,-0.375 0.135,-0.435 0.285,-0.809l-0.285,-0.195c-0.524,0.254 -2.037,0.749 -2.562,0.824l-0.12,0.524c0.645,0.015 0.779,0.09 0.779,0.435c0,0.18 -0.06,0.494 -0.209,1.244l-0.345,1.603c-0.255,1.304 -0.315,1.364 -1.139,1.409l-0.195,-0l-0.12,0.569c0.51,-0.06 0.84,-0.075 1.499,-0.075c0.644,0 1.214,0.015 2.008,0.075l0.12,-0.569l-0.06,-0c-0.42,-0 -0.6,-0.12 -0.6,-0.39c0,-0.18 0.015,-0.3 0.18,-1.019l0.63,-3.012c0.584,-0.345 1.049,-0.494 1.528,-0.494c0.48,-0 0.824,0.299 0.824,0.734c0,0.165 -0.075,0.659 -0.18,1.124l-0.344,1.648c-0.27,1.289 -0.33,1.364 -1.109,1.409l-0.06,-0l-0.12,0.569c0.54,-0.045 0.869,-0.06 1.484,-0.06c0.659,0 1.138,0.015 1.858,0.06l0.12,-0.569l-0.06,-0c-0.42,-0 -0.615,-0.12 -0.615,-0.375c0,-0.18 0.015,-0.255 0.18,-1.034l0.42,-1.963c0.135,-0.674 0.15,-0.719 0.18,-1.019c0.809,-0.42 1.183,-0.539 1.573,-0.539c0.539,-0 0.839,0.269 0.839,0.749c0,0.255 -0.045,0.584 -0.135,1.049l-0.374,1.723c-0.255,1.289 -0.315,1.364 -1.109,1.409l-0.09,-0l-0.12,0.569c0.434,-0.06 0.794,-0.075 1.079,-0.075l0.584,0c0.54,0 1.094,0.03 1.798,0.075Zm3.957,0.15c1.094,-0 2.202,-0.48 3.177,-1.349l-0.285,-0.389c-0.719,0.464 -1.214,0.644 -1.738,0.644c-1.034,0 -1.664,-0.704 -1.664,-1.843c0,-0.345 0.06,-0.689 0.15,-0.914l3.342,-0c0.359,-0 0.464,-0.03 0.569,-0.15c0.165,-0.18 0.27,-0.584 0.27,-0.989c-0,-0.974 -0.764,-1.588 -1.978,-1.588c-2.248,-0 -4.181,1.963 -4.181,4.225c0,1.409 0.944,2.353 2.338,2.353Zm1.678,-4.451l-1.858,0c0.449,-1.004 1.019,-1.498 1.753,-1.498c0.495,-0 0.794,0.285 0.794,0.764c0,0.51 -0.209,0.734 -0.689,0.734Zm6.983,4.481c0.719,-0.24 1.469,-0.36 2.473,-0.42l0.12,-0.524l-0.06,-0c-0.465,-0 -0.615,-0.105 -0.615,-0.42c0,-0.21 0.045,-0.479 0.255,-1.483l1.124,-5.23c0.27,-1.214 0.539,-2.188 0.719,-2.667l-0.285,-0.195c-0.584,0.3 -2.023,0.764 -2.547,0.824l-0.105,0.525c0.57,-0 0.719,0.089 0.719,0.419c0,0.18 -0.06,0.54 -0.224,1.289l-0.375,1.753c-0.48,-0.345 -0.914,-0.479 -1.498,-0.479c-2.098,-0 -3.957,2.052 -3.957,4.375c0,1.364 0.75,2.203 1.949,2.203c0.704,-0 1.348,-0.255 2.382,-0.944c-0.09,0.225 -0.135,0.375 -0.27,0.689l0.195,0.285Zm-1.154,-1.139c-0.809,0 -1.288,-0.629 -1.288,-1.648c-0,-1.634 1.094,-3.132 2.262,-3.132c0.645,-0 1.064,0.389 1.064,0.974c0,0.195 -0.06,0.539 -0.179,1.094l-0.45,2.143c-0.54,0.419 -0.929,0.569 -1.409,0.569Zm7.838,-7.388c0.614,0 1.169,-0.539 1.169,-1.123c-0,-0.42 -0.315,-0.735 -0.75,-0.735c-0.599,0 -1.154,0.54 -1.154,1.124c0,0.42 0.315,0.734 0.735,0.734Zm0.09,8.347l0.119,-0.569l-0.134,-0c-0.45,-0 -0.63,-0.105 -0.63,-0.39c0,-0.18 0.03,-0.405 0.165,-1.019l0.525,-2.457c0.209,-0.96 0.344,-1.469 0.539,-1.993l-0.27,-0.195c-0.614,0.299 -1.858,0.704 -2.592,0.839l-0.105,0.524l0.075,0c0.539,0 0.704,0.09 0.704,0.42c0,0.21 -0.06,0.584 -0.21,1.274l-0.329,1.588c-0.27,1.304 -0.315,1.364 -1.139,1.409l-0.195,-0l-0.12,0.569c0.69,-0.06 1.124,-0.075 1.723,-0.075c0.6,0 1.094,0.015 1.874,0.075Zm2.397,0.18c0.72,-0 1.514,-0.315 2.443,-0.959c-0,0.255 -0,0.255 0.03,0.36c0.09,0.344 0.42,0.569 0.839,0.569c0.495,-0 1.034,-0.21 1.813,-0.689l-0.195,-0.39c-0.284,0.165 -0.404,0.21 -0.494,0.21c-0.165,-0 -0.24,-0.105 -0.24,-0.3c0,-0.12 0.03,-0.33 0.06,-0.509l0.255,-1.169c0.4,-1.792 0.432,-1.936 0.434,-2.332l0,-0.111c0,-0.734 -0.629,-1.288 -1.453,-1.288c-0.135,-0 -0.33,0.015 -0.54,0.044l-1.153,0.465c-0.525,0.21 -1.364,0.734 -1.724,1.079c-0.239,0.225 -0.359,0.479 -0.359,0.734c-0,0.12 0.06,0.195 0.15,0.195c0.194,0 0.764,-0.18 1.048,-0.33c0.18,-0.09 0.255,-0.179 0.375,-0.464c0.135,-0.33 0.225,-0.465 0.405,-0.585c0.314,-0.194 0.629,-0.299 0.914,-0.299c0.359,-0 0.629,0.299 0.629,0.674c0,0.195 -0.045,0.599 -0.105,0.869l-0.105,0.48l-2.113,0.689c-0.959,0.3 -1.363,0.479 -1.633,0.749c-0.3,0.3 -0.479,0.719 -0.479,1.184c-0,0.704 0.449,1.124 1.198,1.124Zm1.214,-0.989c-0.389,-0 -0.629,-0.225 -0.629,-0.6c-0,-0.599 0.449,-1.018 1.423,-1.303c0.21,-0.06 0.42,-0.12 0.48,-0.15l0.419,-0.135l-0.299,1.394l-0.03,0.15l-0.015,0.119c-0.615,0.39 -0.974,0.525 -1.349,0.525Zm12.123,0.809l0.12,-0.569l-0.12,-0c-0.509,-0 -0.704,-0.105 -0.704,-0.405c-0,-0.18 0.03,-0.36 0.165,-1.004l0.404,-1.918c0.105,-0.435 0.18,-1.079 0.18,-1.364c0,-0.689 -0.629,-1.168 -1.558,-1.168c-0.495,-0 -0.645,0.059 -2.098,0.764c-0.09,0.03 -0.15,0.06 -0.27,0.135c0.12,-0.435 0.15,-0.51 0.285,-0.884l-0.27,-0.195c-0.539,0.254 -1.753,0.644 -2.577,0.824l-0.105,0.524l0.075,0c0.524,0 0.689,0.09 0.689,0.42c0,0.225 -0.06,0.569 -0.195,1.244l-0.344,1.618c-0.27,1.304 -0.33,1.364 -1.139,1.409l-0.165,-0l-0.12,0.569c0.524,-0.039 0.877,-0.056 1.459,-0.059l0.264,-0.001c0.75,0 1.124,0.015 1.769,0.06l0.119,-0.569l-0.06,-0c-0.449,-0 -0.629,-0.105 -0.629,-0.39l0,-0.06c0.003,-0.12 0.024,-0.219 0.18,-0.959l0.629,-2.922c0.615,-0.405 1.094,-0.584 1.604,-0.584c0.419,-0 0.704,0.284 0.704,0.719c-0,0.18 -0.045,0.524 -0.12,0.854l-0.405,1.933c-0.269,1.289 -0.329,1.364 -1.033,1.409l-0.09,-0l-0.12,0.569c0.668,-0.039 1.062,-0.056 1.521,-0.059l0.202,-0.001c0.554,0 0.974,0.015 1.753,0.06Zm3.252,0.15c0.495,-0 1.034,-0.09 1.544,-0.27c0.12,-0.03 0.194,-0.06 0.224,-0.06c0.015,-0.015 0.06,-0.03 0.105,-0.03l0.045,-0.539c-0.284,0.09 -0.434,0.12 -0.644,0.12c-0.51,-0 -0.764,-0.21 -0.764,-0.63c-0,-0.224 0.105,-0.854 0.284,-1.678l0.48,-2.293l1.573,0l0.3,-0.689l-1.693,0l0.449,-2.023l-0.539,-0.045c-0.57,1.004 -1.469,1.798 -2.443,2.188l-0.21,0.569l0.795,0l-0.705,3.312c-0.12,0.569 -0.149,0.779 -0.149,1.004c-0,0.689 0.479,1.064 1.348,1.064Z" style="fill:#aaa;"/></g><g id="Degree4" serif:id="Degree"><path d="M367.549,314.913c1.708,-0 3.057,-1.079 3.057,-2.458c0,-0.674 -0.375,-1.153 -1.334,-1.678c-0.689,-0.375 -0.989,-0.674 -0.989,-0.989c0,-0.494 0.495,-0.899 1.094,-0.899c0.645,-0 1.004,0.435 1.004,1.229l0.54,-0.06l0.18,-1.394c-0.57,-0.225 -1.064,-0.329 -1.634,-0.329c-1.633,-0 -2.847,0.989 -2.847,2.322c0,0.69 0.42,1.214 1.364,1.708c0.644,0.345 0.959,0.66 0.959,0.96c-0,0.554 -0.585,1.004 -1.304,1.004c-0.794,-0 -1.124,-0.405 -1.169,-1.469l-0.569,0.075l-0.15,1.618c0.644,0.255 1.169,0.36 1.798,0.36Zm8.662,0.09c1.064,-0.285 1.798,-0.42 2.532,-0.48l0.105,-0.524l-0.075,-0c-0.524,-0 -0.749,-0.12 -0.749,-0.375l-0,-0.032l0.002,-0.062c0.005,-0.096 0.023,-0.209 0.08,-0.485l0.071,-0.336c0.039,-0.179 0.087,-0.399 0.146,-0.673l0.345,-1.649c0.165,-0.794 0.27,-1.228 0.48,-2.023c-0.555,0.075 -1.589,0.165 -2.143,0.165c-0.075,0 -0.27,0 -0.48,-0.015l-0.12,0.555l0.075,-0c0.48,-0 0.66,0.12 0.66,0.434c-0,0.135 -0.03,0.27 -0.165,0.914l-0.63,2.952c-0.659,0.39 -1.123,0.555 -1.588,0.555c-0.464,-0 -0.749,-0.285 -0.749,-0.749c-0,-0.24 0.045,-0.495 0.255,-1.499l0.224,-1.034c0.075,-0.374 0.15,-0.704 0.195,-0.884c0.075,-0.33 0.15,-0.644 0.225,-0.959l0.105,-0.435c-0.57,0.09 -1.469,0.15 -2.128,0.15l-0.48,0l-0.119,0.555l0.074,-0c0.48,-0 0.66,0.12 0.66,0.419c-0,0.15 -0.015,0.255 -0.165,0.929l-0.465,2.203c-0.149,0.66 -0.164,0.779 -0.164,1.049c-0,0.749 0.539,1.274 1.348,1.274c0.779,-0 1.679,-0.315 2.653,-0.959c-0.09,0.27 -0.15,0.419 -0.315,0.764l0.3,0.255Zm7.268,-0.09c2.262,-0 4.18,-1.993 4.18,-4.361c0,-1.288 -0.839,-2.217 -1.993,-2.217c-0.584,-0 -1.154,0.209 -2.412,0.854l0.449,-2.113c0.27,-1.274 0.54,-2.278 0.765,-2.877l-0.285,-0.195c-0.615,0.3 -2.068,0.779 -2.548,0.824l-0.09,0.525c0.57,-0 0.72,0.089 0.72,0.404c-0,0.195 -0.03,0.375 -0.24,1.349l-1.304,6.144c-0.21,1.004 -0.224,1.064 -0.404,1.663c0.914,-0.18 1.183,-0.225 1.453,-0.225c0.165,0 0.39,0.03 0.705,0.09c0.524,0.12 0.659,0.135 1.004,0.135Zm-0.03,-0.659c-0.6,-0 -1.004,-0.405 -1.004,-0.974c-0,-0.18 0.059,-0.54 0.179,-1.109l0.51,-2.383c0.554,-0.27 0.899,-0.36 1.349,-0.36c0.794,0 1.348,0.675 1.348,1.664c0,1.648 -1.139,3.162 -2.382,3.162Zm8.781,-2.458l0.255,-1.214l-3.762,0l-0.254,1.214l3.761,0Zm-39.801,18.147c0.719,-0.24 1.468,-0.36 2.472,-0.42l0.12,-0.524l-0.06,-0c-0.464,-0 -0.614,-0.105 -0.614,-0.42c-0,-0.21 0.045,-0.479 0.255,-1.483l1.124,-5.23c0.269,-1.214 0.539,-2.188 0.719,-2.667l-0.285,-0.195c-0.584,0.3 -2.023,0.764 -2.547,0.824l-0.105,0.525c0.569,-0 0.719,0.089 0.719,0.419c0,0.18 -0.06,0.54 -0.225,1.289l-0.374,1.753c-0.48,-0.345 -0.914,-0.479 -1.499,-0.479c-2.098,-0 -3.956,2.052 -3.956,4.375c0,1.364 0.749,2.203 1.948,2.203c0.704,-0 1.349,-0.255 2.383,-0.944c-0.09,0.225 -0.135,0.375 -0.27,0.689l0.195,0.285Zm-1.154,-1.139c-0.809,0 -1.289,-0.629 -1.289,-1.648c0,-1.634 1.094,-3.132 2.263,-3.132c0.644,-0 1.064,0.389 1.064,0.974c-0,0.195 -0.06,0.539 -0.18,1.094l-0.449,2.143c-0.54,0.419 -0.929,0.569 -1.409,0.569Zm8.002,1.109c2.398,-0 4.406,-1.843 4.406,-4.016c-0,-1.558 -1.124,-2.592 -2.802,-2.592c-2.428,-0 -4.466,1.843 -4.466,4.031c0,1.558 1.124,2.577 2.862,2.577Zm0.3,-0.614c-0.884,-0 -1.349,-0.675 -1.349,-1.948c0,-1.949 1.004,-3.417 2.323,-3.417c0.869,-0 1.349,0.674 1.349,1.918c-0,1.963 -0.989,3.447 -2.323,3.447Zm16.259,0.464l0.12,-0.569l-0.09,-0c-0.45,-0 -0.645,-0.105 -0.645,-0.375c0,-0.18 0.015,-0.225 0.18,-1.034l0.39,-1.828c0.105,-0.48 0.165,-1.019 0.165,-1.379c-0,-0.779 -0.63,-1.243 -1.649,-1.243c-0.569,-0 -1.393,0.314 -2.562,0.959c-0.165,-0.63 -0.689,-0.959 -1.529,-0.959c-0.614,-0 -0.989,0.134 -2.397,0.824c0.12,-0.375 0.135,-0.435 0.285,-0.809l-0.285,-0.195c-0.525,0.254 -2.038,0.749 -2.563,0.824l-0.119,0.524c0.644,0.015 0.779,0.09 0.779,0.435c-0,0.18 -0.06,0.494 -0.21,1.244l-0.345,1.603c-0.254,1.304 -0.314,1.364 -1.139,1.409l-0.194,-0l-0.12,0.569c0.509,-0.06 0.839,-0.075 1.498,-0.075c0.645,0 1.214,0.015 2.008,0.075l0.12,-0.569l-0.06,-0c-0.419,-0 -0.599,-0.12 -0.599,-0.39c-0,-0.18 0.015,-0.3 0.18,-1.019l0.629,-3.012c0.584,-0.345 1.049,-0.494 1.528,-0.494c0.48,-0 0.825,0.299 0.825,0.734c-0,0.165 -0.075,0.659 -0.18,1.124l-0.345,1.648c-0.27,1.289 -0.33,1.364 -1.109,1.409l-0.06,-0l-0.12,0.569c0.54,-0.045 0.87,-0.06 1.484,-0.06c0.659,0 1.139,0.015 1.858,0.06l0.12,-0.569l-0.06,-0c-0.42,-0 -0.614,-0.12 -0.614,-0.375c-0,-0.18 0.015,-0.255 0.179,-1.034l0.42,-1.963c0.135,-0.674 0.15,-0.719 0.18,-1.019c0.809,-0.42 1.184,-0.539 1.573,-0.539c0.54,-0 0.839,0.269 0.839,0.749c0,0.255 -0.045,0.584 -0.134,1.049l-0.375,1.723c-0.255,1.289 -0.315,1.364 -1.109,1.409l-0.09,-0l-0.12,0.569c0.435,-0.06 0.794,-0.075 1.079,-0.075l0.585,0c0.539,0 1.093,0.03 1.798,0.075Zm4.346,-8.347c0.614,0 1.168,-0.539 1.168,-1.123c0,-0.42 -0.314,-0.735 -0.749,-0.735c-0.599,0 -1.154,0.54 -1.154,1.124c0,0.42 0.315,0.734 0.735,0.734Zm0.09,8.347l0.119,-0.569l-0.134,-0c-0.45,-0 -0.63,-0.105 -0.63,-0.39c0,-0.18 0.03,-0.405 0.165,-1.019l0.524,-2.457c0.21,-0.96 0.345,-1.469 0.54,-1.993l-0.27,-0.195c-0.614,0.299 -1.858,0.704 -2.592,0.839l-0.105,0.524l0.075,0c0.539,0 0.704,0.09 0.704,0.42c0,0.21 -0.06,0.584 -0.21,1.274l-0.329,1.588c-0.27,1.304 -0.315,1.364 -1.139,1.409l-0.195,-0l-0.12,0.569c0.689,-0.06 1.124,-0.075 1.723,-0.075c0.6,0 1.094,0.015 1.874,0.075Zm8.541,0l0.12,-0.569l-0.12,-0c-0.509,-0 -0.704,-0.105 -0.704,-0.405c-0,-0.18 0.03,-0.36 0.165,-1.004l0.404,-1.918c0.105,-0.435 0.18,-1.079 0.18,-1.364c0,-0.689 -0.629,-1.168 -1.558,-1.168c-0.495,-0 -0.645,0.059 -2.098,0.764c-0.09,0.03 -0.15,0.06 -0.27,0.135c0.12,-0.435 0.15,-0.51 0.285,-0.884l-0.27,-0.195c-0.539,0.254 -1.753,0.644 -2.577,0.824l-0.105,0.524l0.075,0c0.524,0 0.689,0.09 0.689,0.42c-0,0.225 -0.06,0.569 -0.195,1.244l-0.344,1.618c-0.27,1.304 -0.33,1.364 -1.139,1.409l-0.165,-0l-0.12,0.569c0.524,-0.039 0.877,-0.056 1.459,-0.059l0.264,-0.001c0.749,0 1.124,0.015 1.768,0.06l0.12,-0.569l-0.06,-0c-0.449,-0 -0.629,-0.105 -0.629,-0.39l0,-0.06c0.003,-0.12 0.024,-0.219 0.18,-0.959l0.629,-2.922c0.615,-0.405 1.094,-0.584 1.604,-0.584c0.419,-0 0.704,0.284 0.704,0.719c-0,0.18 -0.045,0.524 -0.12,0.854l-0.405,1.933c-0.269,1.289 -0.329,1.364 -1.034,1.409l-0.089,-0l-0.12,0.569c0.668,-0.039 1.062,-0.056 1.521,-0.059l0.202,-0.001c0.554,0 0.974,0.015 1.753,0.06Zm2.443,0.18c0.719,-0 1.513,-0.315 2.442,-0.959c0,0.255 0,0.255 0.03,0.36c0.09,0.344 0.42,0.569 0.84,0.569c0.494,-0 1.034,-0.21 1.813,-0.689l-0.195,-0.39c-0.285,0.165 -0.405,0.21 -0.495,0.21c-0.164,-0 -0.239,-0.105 -0.239,-0.3c-0,-0.12 0.03,-0.33 0.06,-0.509l0.254,-1.169c0.383,-1.714 0.429,-1.92 0.434,-2.282l0.001,-0.161c-0,-0.734 -0.629,-1.288 -1.454,-1.288c-0.134,-0 -0.329,0.015 -0.539,0.044l-1.154,0.465c-0.524,0.21 -1.364,0.734 -1.723,1.079c-0.24,0.225 -0.36,0.479 -0.36,0.734c0,0.12 0.06,0.195 0.15,0.195c0.195,0 0.764,-0.18 1.049,-0.33c0.18,-0.09 0.255,-0.179 0.375,-0.464c0.134,-0.33 0.224,-0.465 0.404,-0.585c0.315,-0.194 0.63,-0.299 0.914,-0.299c0.36,-0 0.63,0.299 0.63,0.674c-0,0.195 -0.045,0.599 -0.105,0.869l-0.105,0.48l-2.113,0.689c-0.959,0.3 -1.364,0.479 -1.633,0.749c-0.3,0.3 -0.48,0.719 -0.48,1.184c0,0.704 0.45,1.124 1.199,1.124Zm1.214,-0.989c-0.39,-0 -0.63,-0.225 -0.63,-0.6c0,-0.599 0.45,-1.018 1.424,-1.303c0.21,-0.06 0.419,-0.12 0.479,-0.15l0.42,-0.135l-0.3,1.394l-0.03,0.15l-0.015,0.119c-0.614,0.39 -0.974,0.525 -1.348,0.525Zm12.123,0.809l0.12,-0.569l-0.12,-0c-0.51,-0 -0.705,-0.105 -0.705,-0.405c0,-0.18 0.03,-0.36 0.165,-1.004l0.405,-1.918c0.105,-0.435 0.18,-1.079 0.18,-1.364c-0,-0.689 -0.63,-1.168 -1.559,-1.168c-0.494,-0 -0.644,0.059 -2.098,0.764c-0.09,0.03 -0.149,0.06 -0.269,0.135c0.12,-0.435 0.149,-0.51 0.284,-0.884l-0.269,-0.195c-0.54,0.254 -1.754,0.644 -2.578,0.824l-0.105,0.524l0.075,0c0.525,0 0.69,0.09 0.69,0.42c-0,0.225 -0.06,0.569 -0.195,1.244l-0.345,1.618c-0.27,1.304 -0.33,1.364 -1.139,1.409l-0.165,-0l-0.119,0.569c0.524,-0.039 0.876,-0.056 1.458,-0.059l0.265,-0.001c0.749,0 1.124,0.015 1.768,0.06l0.12,-0.569l-0.06,-0c-0.45,-0 -0.629,-0.105 -0.629,-0.39l-0,-0.031l0.001,-0.056c0.006,-0.112 0.035,-0.249 0.178,-0.932l0.63,-2.922c0.614,-0.405 1.094,-0.584 1.603,-0.584c0.42,-0 0.704,0.284 0.704,0.719c0,0.18 -0.044,0.524 -0.119,0.854l-0.405,1.933c-0.27,1.289 -0.33,1.364 -1.034,1.409l-0.09,-0l-0.12,0.569c0.669,-0.039 1.062,-0.056 1.522,-0.059l0.202,-0.001c0.554,0 0.974,0.015 1.753,0.06Zm3.252,0.15c0.494,-0 1.034,-0.09 1.543,-0.27c0.12,-0.03 0.195,-0.06 0.225,-0.06c0.015,-0.015 0.06,-0.03 0.105,-0.03l0.045,-0.539c-0.285,0.09 -0.435,0.12 -0.645,0.12c-0.509,-0 -0.764,-0.21 -0.764,-0.63c0,-0.224 0.105,-0.854 0.285,-1.678l0.479,-2.293l1.574,0l0.3,-0.689l-1.694,0l0.45,-2.023l-0.54,-0.045c-0.569,1.004 -1.468,1.798 -2.442,2.188l-0.21,0.569l0.794,0l-0.704,3.312c-0.12,0.569 -0.15,0.779 -0.15,1.004c0,0.689 0.48,1.064 1.349,1.064Z" style="fill:#aaa;"/></g><g id="Degree5" serif:id="Degree"><path d="M527.549,314.913c1.708,-0 3.057,-1.079 3.057,-2.458c0,-0.674 -0.375,-1.153 -1.334,-1.678c-0.689,-0.375 -0.989,-0.674 -0.989,-0.989c0,-0.494 0.495,-0.899 1.094,-0.899c0.645,-0 1.004,0.435 1.004,1.229l0.54,-0.06l0.18,-1.394c-0.57,-0.225 -1.064,-0.329 -1.634,-0.329c-1.633,-0 -2.847,0.989 -2.847,2.322c0,0.69 0.42,1.214 1.364,1.708c0.644,0.345 0.959,0.66 0.959,0.96c-0,0.554 -0.585,1.004 -1.304,1.004c-0.794,-0 -1.124,-0.405 -1.169,-1.469l-0.569,0.075l-0.15,1.618c0.644,0.255 1.169,0.36 1.798,0.36Zm8.662,0.09c1.064,-0.285 1.798,-0.42 2.532,-0.48l0.105,-0.524l-0.075,-0c-0.524,-0 -0.749,-0.12 -0.749,-0.375l-0,-0.032l0.002,-0.062c0.005,-0.096 0.023,-0.209 0.08,-0.485l0.071,-0.336c0.039,-0.179 0.087,-0.399 0.146,-0.673l0.345,-1.649c0.165,-0.794 0.27,-1.228 0.48,-2.023c-0.555,0.075 -1.589,0.165 -2.143,0.165c-0.075,0 -0.27,0 -0.48,-0.015l-0.12,0.555l0.075,-0c0.48,-0 0.66,0.12 0.66,0.434c-0,0.135 -0.03,0.27 -0.165,0.914l-0.63,2.952c-0.659,0.39 -1.123,0.555 -1.588,0.555c-0.464,-0 -0.749,-0.285 -0.749,-0.749c-0,-0.24 0.045,-0.495 0.255,-1.499l0.224,-1.034c0.075,-0.374 0.15,-0.704 0.195,-0.884c0.075,-0.33 0.15,-0.644 0.225,-0.959l0.105,-0.435c-0.57,0.09 -1.469,0.15 -2.128,0.15l-0.48,0l-0.119,0.555l0.074,-0c0.48,-0 0.66,0.12 0.66,0.419c-0,0.15 -0.015,0.255 -0.165,0.929l-0.465,2.203c-0.149,0.66 -0.164,0.779 -0.164,1.049c-0,0.749 0.539,1.274 1.348,1.274c0.779,-0 1.679,-0.315 2.653,-0.959c-0.09,0.27 -0.15,0.419 -0.315,0.764l0.3,0.255Zm7.268,-0.09c2.262,-0 4.18,-1.993 4.18,-4.361c0,-1.288 -0.839,-2.217 -1.993,-2.217c-0.584,-0 -1.154,0.209 -2.412,0.854l0.449,-2.113c0.27,-1.274 0.54,-2.278 0.765,-2.877l-0.285,-0.195c-0.615,0.3 -2.068,0.779 -2.548,0.824l-0.09,0.525c0.57,-0 0.72,0.089 0.72,0.404c-0,0.195 -0.03,0.375 -0.24,1.349l-1.304,6.144c-0.21,1.004 -0.224,1.064 -0.404,1.663c0.914,-0.18 1.183,-0.225 1.453,-0.225c0.165,0 0.39,0.03 0.705,0.09c0.524,0.12 0.659,0.135 1.004,0.135Zm-0.03,-0.659c-0.6,-0 -1.004,-0.405 -1.004,-0.974c-0,-0.18 0.059,-0.54 0.179,-1.109l0.51,-2.383c0.554,-0.27 0.899,-0.36 1.349,-0.36c0.794,0 1.348,0.675 1.348,1.664c0,1.648 -1.139,3.162 -2.382,3.162Zm8.781,-2.458l0.255,-1.214l-3.762,0l-0.254,1.214l3.761,0Zm-27.836,17.967l0.12,-0.569l-0.09,-0c-0.449,-0 -0.644,-0.105 -0.644,-0.375l0,-0.034l0.003,-0.065c0.009,-0.129 0.045,-0.288 0.177,-0.935l0.39,-1.828c0.104,-0.48 0.164,-1.019 0.164,-1.379c0,-0.779 -0.629,-1.243 -1.648,-1.243c-0.569,-0 -1.394,0.314 -2.562,0.959c-0.165,-0.63 -0.69,-0.959 -1.529,-0.959c-0.614,-0 -0.989,0.134 -2.398,0.824c0.12,-0.375 0.135,-0.435 0.285,-0.809l-0.285,-0.195c-0.524,0.254 -2.037,0.749 -2.562,0.824l-0.12,0.524c0.645,0.015 0.779,0.09 0.779,0.435c0,0.18 -0.06,0.494 -0.209,1.244l-0.345,1.603c-0.255,1.304 -0.315,1.364 -1.139,1.409l-0.195,-0l-0.12,0.569c0.51,-0.06 0.84,-0.075 1.499,-0.075c0.644,0 1.214,0.015 2.008,0.075l0.12,-0.569l-0.06,-0c-0.42,-0 -0.6,-0.12 -0.6,-0.39c0,-0.18 0.015,-0.3 0.18,-1.019l0.63,-3.012c0.584,-0.345 1.049,-0.494 1.528,-0.494c0.48,-0 0.824,0.299 0.824,0.734c0,0.165 -0.075,0.659 -0.18,1.124l-0.344,1.648c-0.27,1.289 -0.33,1.364 -1.109,1.409l-0.06,-0l-0.12,0.569c0.54,-0.045 0.869,-0.06 1.484,-0.06c0.659,0 1.138,0.015 1.858,0.06l0.12,-0.569l-0.06,-0c-0.42,-0 -0.615,-0.12 -0.615,-0.375c0,-0.18 0.015,-0.255 0.18,-1.034l0.42,-1.963c0.135,-0.674 0.15,-0.719 0.18,-1.019c0.809,-0.42 1.183,-0.539 1.573,-0.539c0.539,-0 0.839,0.269 0.839,0.749c0,0.255 -0.045,0.584 -0.135,1.049l-0.374,1.723c-0.255,1.289 -0.315,1.364 -1.109,1.409l-0.09,-0l-0.12,0.569c0.434,-0.06 0.794,-0.075 1.079,-0.075l0.584,0c0.54,0 1.094,0.03 1.798,0.075Zm3.957,0.15c1.094,-0 2.202,-0.48 3.177,-1.349l-0.285,-0.389c-0.719,0.464 -1.214,0.644 -1.738,0.644c-1.034,0 -1.664,-0.704 -1.664,-1.843c0,-0.345 0.06,-0.689 0.15,-0.914l3.342,-0c0.359,-0 0.464,-0.03 0.569,-0.15c0.165,-0.18 0.27,-0.584 0.27,-0.989c-0,-0.974 -0.764,-1.588 -1.978,-1.588c-2.248,-0 -4.181,1.963 -4.181,4.225c0,1.409 0.944,2.353 2.338,2.353Zm1.678,-4.451l-1.858,0c0.449,-1.004 1.019,-1.498 1.753,-1.498c0.495,-0 0.794,0.285 0.794,0.764c0,0.51 -0.209,0.734 -0.689,0.734Zm6.983,4.481c0.719,-0.24 1.469,-0.36 2.473,-0.42l0.12,-0.524l-0.06,-0c-0.465,-0 -0.615,-0.105 -0.615,-0.42c0,-0.21 0.045,-0.479 0.255,-1.483l1.124,-5.23c0.27,-1.214 0.539,-2.188 0.719,-2.667l-0.285,-0.195c-0.584,0.3 -2.023,0.764 -2.547,0.824l-0.105,0.525c0.57,-0 0.719,0.089 0.719,0.419c0,0.18 -0.06,0.54 -0.224,1.289l-0.375,1.753c-0.48,-0.345 -0.914,-0.479 -1.498,-0.479c-2.098,-0 -3.957,2.052 -3.957,4.375c0,1.364 0.75,2.203 1.949,2.203c0.704,-0 1.348,-0.255 2.382,-0.944c-0.09,0.225 -0.135,0.375 -0.27,0.689l0.195,0.285Zm-1.154,-1.139c-0.809,0 -1.288,-0.629 -1.288,-1.648c-0,-1.634 1.094,-3.132 2.262,-3.132c0.645,-0 1.064,0.389 1.064,0.974c0,0.195 -0.06,0.539 -0.179,1.094l-0.45,2.143c-0.54,0.419 -0.929,0.569 -1.409,0.569Zm7.838,-7.388c0.614,0 1.169,-0.539 1.169,-1.123c-0,-0.42 -0.315,-0.735 -0.75,-0.735c-0.599,0 -1.154,0.54 -1.154,1.124c0,0.42 0.315,0.734 0.735,0.734Zm0.09,8.347l0.119,-0.569l-0.134,-0c-0.45,-0 -0.63,-0.105 -0.63,-0.39c0,-0.18 0.03,-0.405 0.165,-1.019l0.525,-2.457c0.209,-0.96 0.344,-1.469 0.539,-1.993l-0.27,-0.195c-0.614,0.299 -1.858,0.704 -2.592,0.839l-0.105,0.524l0.075,0c0.539,0 0.704,0.09 0.704,0.42c0,0.21 -0.06,0.584 -0.21,1.274l-0.329,1.588c-0.27,1.304 -0.315,1.364 -1.139,1.409l-0.195,-0l-0.12,0.569c0.69,-0.06 1.124,-0.075 1.723,-0.075c0.6,0 1.094,0.015 1.874,0.075Zm2.397,0.18c0.72,-0 1.514,-0.315 2.443,-0.959c-0,0.255 -0,0.255 0.03,0.36c0.09,0.344 0.42,0.569 0.839,0.569c0.495,-0 1.034,-0.21 1.813,-0.689l-0.195,-0.39c-0.284,0.165 -0.404,0.21 -0.494,0.21c-0.165,-0 -0.24,-0.105 -0.24,-0.3c0,-0.12 0.03,-0.33 0.06,-0.509l0.255,-1.169c0.4,-1.792 0.432,-1.936 0.434,-2.332l0,-0.111c0,-0.734 -0.629,-1.288 -1.453,-1.288c-0.135,-0 -0.33,0.015 -0.54,0.044l-1.153,0.465c-0.525,0.21 -1.364,0.734 -1.724,1.079c-0.239,0.225 -0.359,0.479 -0.359,0.734c-0,0.12 0.06,0.195 0.15,0.195c0.194,0 0.764,-0.18 1.048,-0.33c0.18,-0.09 0.255,-0.179 0.375,-0.464c0.135,-0.33 0.225,-0.465 0.405,-0.585c0.314,-0.194 0.629,-0.299 0.914,-0.299c0.359,-0 0.629,0.299 0.629,0.674c0,0.195 -0.045,0.599 -0.105,0.869l-0.105,0.48l-2.113,0.689c-0.959,0.3 -1.363,0.479 -1.633,0.749c-0.3,0.3 -0.479,0.719 -0.479,1.184c-0,0.704 0.449,1.124 1.198,1.124Zm1.214,-0.989c-0.389,-0 -0.629,-0.225 -0.629,-0.6c-0,-0.599 0.449,-1.018 1.423,-1.303c0.21,-0.06 0.42,-0.12 0.48,-0.15l0.419,-0.135l-0.299,1.394l-0.03,0.15l-0.015,0.119c-0.615,0.39 -0.974,0.525 -1.349,0.525Zm12.123,0.809l0.12,-0.569l-0.12,-0c-0.509,-0 -0.704,-0.105 -0.704,-0.405c-0,-0.18 0.03,-0.36 0.165,-1.004l0.404,-1.918c0.105,-0.435 0.18,-1.079 0.18,-1.364c0,-0.689 -0.629,-1.168 -1.558,-1.168c-0.495,-0 -0.645,0.059 -2.098,0.764c-0.09,0.03 -0.15,0.06 -0.27,0.135c0.12,-0.435 0.15,-0.51 0.285,-0.884l-0.27,-0.195c-0.539,0.254 -1.753,0.644 -2.577,0.824l-0.105,0.524l0.075,0c0.524,0 0.689,0.09 0.689,0.42c0,0.225 -0.06,0.569 -0.195,1.244l-0.344,1.618c-0.27,1.304 -0.33,1.364 -1.139,1.409l-0.165,-0l-0.12,0.569c0.524,-0.039 0.877,-0.056 1.459,-0.059l0.264,-0.001c0.75,0 1.124,0.015 1.769,0.06l0.119,-0.569l-0.06,-0c-0.449,-0 -0.629,-0.105 -0.629,-0.39l0,-0.06c0.003,-0.12 0.024,-0.219 0.18,-0.959l0.629,-2.922c0.615,-0.405 1.094,-0.584 1.604,-0.584c0.419,-0 0.704,0.284 0.704,0.719c-0,0.18 -0.045,0.524 -0.12,0.854l-0.405,1.933c-0.269,1.289 -0.329,1.364 -1.033,1.409l-0.09,-0l-0.12,0.569c0.668,-0.039 1.062,-0.056 1.521,-0.059l0.202,-0.001c0.554,0 0.974,0.015 1.753,0.06Zm3.252,0.15c0.495,-0 1.034,-0.09 1.544,-0.27c0.12,-0.03 0.194,-0.06 0.224,-0.06c0.015,-0.015 0.06,-0.03 0.105,-0.03l0.045,-0.539c-0.284,0.09 -0.434,0.12 -0.644,0.12c-0.51,-0 -0.764,-0.21 -0.764,-0.63c-0,-0.224 0.105,-0.854 0.284,-1.678l0.48,-2.293l1.573,0l0.3,-0.689l-1.693,0l0.449,-2.023l-0.539,-0.045c-0.57,1.004 -1.469,1.798 -2.443,2.188l-0.21,0.569l0.795,0l-0.705,3.312c-0.12,0.569 -0.149,0.779 -0.149,1.004c-0,0.689 0.479,1.064 1.348,1.064Z" style="fill:#aaa;"/></g><g id="Degree6" serif:id="Degree"><path d="M614.549,314.913c1.708,-0 3.057,-1.079 3.057,-2.458c0,-0.674 -0.375,-1.153 -1.334,-1.678c-0.689,-0.375 -0.989,-0.674 -0.989,-0.989c0,-0.494 0.495,-0.899 1.094,-0.899c0.645,-0 1.004,0.435 1.004,1.229l0.54,-0.06l0.18,-1.394c-0.57,-0.225 -1.064,-0.329 -1.634,-0.329c-1.633,-0 -2.847,0.989 -2.847,2.322c0,0.69 0.42,1.214 1.364,1.708c0.644,0.345 0.959,0.66 0.959,0.96c-0,0.554 -0.585,1.004 -1.304,1.004c-0.794,-0 -1.124,-0.405 -1.169,-1.469l-0.569,0.075l-0.15,1.618c0.644,0.255 1.169,0.36 1.798,0.36Zm8.662,0.09c1.064,-0.285 1.798,-0.42 2.532,-0.48l0.105,-0.524l-0.075,-0c-0.524,-0 -0.749,-0.12 -0.749,-0.375l-0,-0.032l0.002,-0.062c0.005,-0.096 0.023,-0.209 0.08,-0.485l0.071,-0.336c0.039,-0.179 0.087,-0.399 0.146,-0.673l0.345,-1.649c0.165,-0.794 0.27,-1.228 0.48,-2.023c-0.555,0.075 -1.589,0.165 -2.143,0.165c-0.075,0 -0.27,0 -0.48,-0.015l-0.12,0.555l0.075,-0c0.48,-0 0.66,0.12 0.66,0.434c-0,0.135 -0.03,0.27 -0.165,0.914l-0.63,2.952c-0.659,0.39 -1.123,0.555 -1.588,0.555c-0.464,-0 -0.749,-0.285 -0.749,-0.749c-0,-0.24 0.045,-0.495 0.255,-1.499l0.224,-1.034c0.075,-0.374 0.15,-0.704 0.195,-0.884c0.075,-0.33 0.15,-0.644 0.225,-0.959l0.105,-0.435c-0.57,0.09 -1.469,0.15 -2.128,0.15l-0.48,0l-0.119,0.555l0.074,-0c0.48,-0 0.66,0.12 0.66,0.419c-0,0.15 -0.015,0.255 -0.165,0.929l-0.465,2.203c-0.149,0.66 -0.164,0.779 -0.164,1.049c-0,0.749 0.539,1.274 1.348,1.274c0.779,-0 1.679,-0.315 2.653,-0.959c-0.09,0.27 -0.15,0.419 -0.315,0.764l0.3,0.255Zm7.268,-0.09c2.262,-0 4.18,-1.993 4.18,-4.361c0,-1.288 -0.839,-2.217 -1.993,-2.217c-0.584,-0 -1.154,0.209 -2.412,0.854l0.449,-2.113c0.27,-1.274 0.54,-2.278 0.765,-2.877l-0.285,-0.195c-0.615,0.3 -2.068,0.779 -2.548,0.824l-0.09,0.525c0.57,-0 0.72,0.089 0.72,0.404c-0,0.195 -0.03,0.375 -0.24,1.349l-1.304,6.144c-0.21,1.004 -0.224,1.064 -0.404,1.663c0.914,-0.18 1.183,-0.225 1.453,-0.225c0.165,0 0.39,0.03 0.705,0.09c0.524,0.12 0.659,0.135 1.004,0.135Zm-0.03,-0.659c-0.6,-0 -1.004,-0.405 -1.004,-0.974c-0,-0.18 0.059,-0.54 0.179,-1.109l0.51,-2.383c0.554,-0.27 0.899,-0.36 1.349,-0.36c0.794,0 1.348,0.675 1.348,1.664c0,1.648 -1.139,3.162 -2.382,3.162Zm8.781,-2.458l0.255,-1.214l-3.762,0l-0.254,1.214l3.761,0Zm-27.363,18.117c0.494,-0 1.034,-0.09 1.543,-0.27c0.12,-0.03 0.195,-0.06 0.225,-0.06c0.015,-0.015 0.06,-0.03 0.105,-0.03l0.045,-0.539c-0.285,0.09 -0.435,0.12 -0.645,0.12c-0.509,-0 -0.764,-0.21 -0.764,-0.63c0,-0.224 0.105,-0.854 0.285,-1.678l0.479,-2.293l1.574,0l0.3,-0.689l-1.694,0l0.45,-2.023l-0.54,-0.045c-0.569,1.004 -1.468,1.798 -2.442,2.188l-0.21,0.569l0.794,0l-0.704,3.312c-0.12,0.569 -0.15,0.779 -0.15,1.004c0,0.689 0.48,1.064 1.349,1.064Zm5.994,-0c2.397,-0 4.405,-1.843 4.405,-4.016c0,-1.558 -1.123,-2.592 -2.802,-2.592c-2.427,-0 -4.465,1.843 -4.465,4.031c-0,1.558 1.124,2.577 2.862,2.577Zm0.3,-0.614c-0.885,-0 -1.349,-0.675 -1.349,-1.948c-0,-1.949 1.004,-3.417 2.323,-3.417c0.869,-0 1.348,0.674 1.348,1.918c0,1.963 -0.989,3.447 -2.322,3.447Zm12.093,0.464l0.12,-0.569l-0.12,-0c-0.51,-0 -0.705,-0.105 -0.705,-0.405c0,-0.18 0.03,-0.36 0.165,-1.004l0.405,-1.918c0.105,-0.435 0.18,-1.079 0.18,-1.364c-0,-0.689 -0.63,-1.168 -1.559,-1.168c-0.494,-0 -0.644,0.059 -2.098,0.764c-0.09,0.03 -0.15,0.06 -0.269,0.135c0.119,-0.435 0.149,-0.51 0.284,-0.884l-0.269,-0.195c-0.54,0.254 -1.754,0.644 -2.578,0.824l-0.105,0.524l0.075,0c0.525,0 0.689,0.09 0.689,0.42c0,0.225 -0.06,0.569 -0.194,1.244l-0.345,1.618c-0.27,1.304 -0.33,1.364 -1.139,1.409l-0.165,-0l-0.12,0.569c0.525,-0.039 0.877,-0.056 1.459,-0.059l0.265,-0.001c0.749,0 1.124,0.015 1.768,0.06l0.12,-0.569l-0.06,-0c-0.45,-0 -0.63,-0.105 -0.63,-0.39l0.001,-0.06c0.003,-0.12 0.023,-0.219 0.179,-0.959l0.63,-2.922c0.614,-0.405 1.094,-0.584 1.603,-0.584c0.42,-0 0.704,0.284 0.704,0.719c0,0.18 -0.045,0.524 -0.12,0.854l-0.404,1.933c-0.27,1.289 -0.33,1.364 -1.034,1.409l-0.09,-0l-0.12,0.569c0.669,-0.039 1.062,-0.056 1.522,-0.059l0.201,-0.001c0.555,0 0.974,0.015 1.754,0.06Zm4.345,-8.347c0.615,0 1.169,-0.539 1.169,-1.123c0,-0.42 -0.314,-0.735 -0.749,-0.735c-0.599,0 -1.154,0.54 -1.154,1.124c0,0.42 0.315,0.734 0.734,0.734Zm0.09,8.347l0.12,-0.569l-0.135,-0c-0.449,-0 -0.629,-0.105 -0.629,-0.39c0,-0.18 0.03,-0.405 0.165,-1.019l0.524,-2.457c0.21,-0.96 0.345,-1.469 0.54,-1.993l-0.27,-0.195c-0.614,0.299 -1.858,0.704 -2.592,0.839l-0.105,0.524l0.075,0c0.539,0 0.704,0.09 0.704,0.42c0,0.21 -0.06,0.584 -0.21,1.274l-0.329,1.588c-0.27,1.304 -0.315,1.364 -1.139,1.409l-0.195,-0l-0.12,0.569c0.689,-0.06 1.124,-0.075 1.723,-0.075c0.6,0 1.094,0.015 1.873,0.075Zm4.047,0.15c1.078,-0 2.082,-0.39 3.086,-1.229l-0.254,-0.404c-0.69,0.404 -1.184,0.569 -1.739,0.569c-1.049,0 -1.693,-0.734 -1.693,-1.963c0,-1.603 0.959,-2.967 2.068,-2.967c0.375,-0 0.659,0.225 0.794,0.629c0.165,0.555 0.255,0.66 0.51,0.66c0.539,-0 1.154,-0.405 1.154,-0.765c-0,-0.104 -0.075,-0.254 -0.21,-0.419c-0.33,-0.42 -1.079,-0.689 -1.858,-0.689c-2.383,-0 -4.331,1.888 -4.331,4.18c0,1.454 0.974,2.398 2.473,2.398Z" style="fill:#aaa;"/></g><g id="Degree7" serif:id="Degree"><path d="M433.429,321.943c0.719,-0.24 1.468,-0.36 2.472,-0.42l0.12,-0.524l-0.06,-0c-0.464,-0 -0.614,-0.105 -0.614,-0.42c-0,-0.21 0.045,-0.479 0.255,-1.483l1.124,-5.23c0.269,-1.214 0.539,-2.188 0.719,-2.667l-0.285,-0.195c-0.584,0.3 -2.023,0.764 -2.547,0.824l-0.105,0.525c0.569,-0 0.719,0.089 0.719,0.419c0,0.18 -0.06,0.54 -0.225,1.289l-0.374,1.753c-0.48,-0.345 -0.914,-0.479 -1.499,-0.479c-2.098,-0 -3.956,2.052 -3.956,4.375c0,1.364 0.749,2.203 1.948,2.203c0.704,-0 1.349,-0.255 2.383,-0.944c-0.09,0.225 -0.135,0.375 -0.27,0.689l0.195,0.285Zm-1.154,-1.139c-0.809,0 -1.289,-0.629 -1.289,-1.648c0,-1.634 1.094,-3.132 2.263,-3.132c0.644,-0 1.064,0.389 1.064,0.974c-0,0.195 -0.06,0.539 -0.18,1.094l-0.449,2.143c-0.54,0.419 -0.929,0.569 -1.409,0.569Zm8.002,1.109c2.398,-0 4.406,-1.843 4.406,-4.016c-0,-1.558 -1.124,-2.592 -2.802,-2.592c-2.428,-0 -4.466,1.843 -4.466,4.031c0,1.558 1.124,2.577 2.862,2.577Zm0.3,-0.614c-0.884,-0 -1.349,-0.675 -1.349,-1.948c0,-1.949 1.004,-3.417 2.323,-3.417c0.869,-0 1.349,0.674 1.349,1.918c-0,1.963 -0.989,3.447 -2.323,3.447Zm16.259,0.464l0.12,-0.569l-0.09,-0c-0.45,-0 -0.645,-0.105 -0.645,-0.375c0,-0.18 0.015,-0.225 0.18,-1.034l0.39,-1.828c0.105,-0.48 0.165,-1.019 0.165,-1.379c-0,-0.779 -0.63,-1.243 -1.649,-1.243c-0.569,-0 -1.393,0.314 -2.562,0.959c-0.165,-0.63 -0.689,-0.959 -1.529,-0.959c-0.614,-0 -0.989,0.134 -2.397,0.824c0.12,-0.375 0.135,-0.435 0.285,-0.809l-0.285,-0.195c-0.525,0.254 -2.038,0.749 -2.563,0.824l-0.119,0.524c0.644,0.015 0.779,0.09 0.779,0.435c-0,0.18 -0.06,0.494 -0.21,1.244l-0.345,1.603c-0.254,1.304 -0.314,1.364 -1.139,1.409l-0.194,-0l-0.12,0.569c0.509,-0.06 0.839,-0.075 1.498,-0.075c0.645,0 1.214,0.015 2.008,0.075l0.12,-0.569l-0.06,-0c-0.419,-0 -0.599,-0.12 -0.599,-0.39c-0,-0.18 0.015,-0.3 0.18,-1.019l0.629,-3.012c0.584,-0.345 1.049,-0.494 1.528,-0.494c0.48,-0 0.825,0.299 0.825,0.734c-0,0.165 -0.075,0.659 -0.18,1.124l-0.345,1.648c-0.27,1.289 -0.33,1.364 -1.109,1.409l-0.06,-0l-0.12,0.569c0.54,-0.045 0.87,-0.06 1.484,-0.06c0.659,0 1.139,0.015 1.858,0.06l0.12,-0.569l-0.06,-0c-0.42,-0 -0.614,-0.12 -0.614,-0.375c-0,-0.18 0.015,-0.255 0.179,-1.034l0.42,-1.963c0.135,-0.674 0.15,-0.719 0.18,-1.019c0.809,-0.42 1.184,-0.539 1.573,-0.539c0.54,-0 0.839,0.269 0.839,0.749c0,0.255 -0.045,0.584 -0.134,1.049l-0.375,1.723c-0.255,1.289 -0.315,1.364 -1.109,1.409l-0.09,-0l-0.12,0.569c0.435,-0.06 0.794,-0.075 1.079,-0.075l0.585,0c0.539,0 1.093,0.03 1.798,0.075Zm4.346,-8.347c0.614,0 1.168,-0.539 1.168,-1.123c0,-0.42 -0.314,-0.735 -0.749,-0.735c-0.599,0 -1.154,0.54 -1.154,1.124c0,0.42 0.315,0.734 0.735,0.734Zm0.09,8.347l0.119,-0.569l-0.134,-0c-0.45,-0 -0.63,-0.105 -0.63,-0.39c0,-0.18 0.03,-0.405 0.165,-1.019l0.524,-2.457c0.21,-0.96 0.345,-1.469 0.54,-1.993l-0.27,-0.195c-0.614,0.299 -1.858,0.704 -2.592,0.839l-0.105,0.524l0.075,0c0.539,0 0.704,0.09 0.704,0.42c0,0.21 -0.06,0.584 -0.21,1.274l-0.329,1.588c-0.27,1.304 -0.315,1.364 -1.139,1.409l-0.195,-0l-0.12,0.569c0.689,-0.06 1.124,-0.075 1.723,-0.075c0.6,0 1.094,0.015 1.874,0.075Zm8.541,0l0.12,-0.569l-0.12,-0c-0.509,-0 -0.704,-0.105 -0.704,-0.405c-0,-0.18 0.03,-0.36 0.165,-1.004l0.404,-1.918c0.105,-0.435 0.18,-1.079 0.18,-1.364c0,-0.689 -0.629,-1.168 -1.558,-1.168c-0.495,-0 -0.645,0.059 -2.098,0.764c-0.09,0.03 -0.15,0.06 -0.27,0.135c0.12,-0.435 0.15,-0.51 0.285,-0.884l-0.27,-0.195c-0.539,0.254 -1.753,0.644 -2.577,0.824l-0.105,0.524l0.075,0c0.524,0 0.689,0.09 0.689,0.42c-0,0.225 -0.06,0.569 -0.195,1.244l-0.344,1.618c-0.27,1.304 -0.33,1.364 -1.139,1.409l-0.165,-0l-0.12,0.569c0.524,-0.039 0.877,-0.056 1.459,-0.059l0.264,-0.001c0.749,0 1.124,0.015 1.768,0.06l0.12,-0.569l-0.06,-0c-0.449,-0 -0.629,-0.105 -0.629,-0.39l0,-0.06c0.003,-0.12 0.024,-0.219 0.18,-0.959l0.629,-2.922c0.615,-0.405 1.094,-0.584 1.604,-0.584c0.419,-0 0.704,0.284 0.704,0.719c-0,0.18 -0.045,0.524 -0.12,0.854l-0.405,1.933c-0.269,1.289 -0.329,1.364 -1.034,1.409l-0.089,-0l-0.12,0.569c0.668,-0.039 1.062,-0.056 1.521,-0.059l0.202,-0.001c0.554,0 0.974,0.015 1.753,0.06Zm2.443,0.18c0.719,-0 1.513,-0.315 2.442,-0.959c0,0.255 0,0.255 0.03,0.36c0.09,0.344 0.42,0.569 0.84,0.569c0.494,-0 1.034,-0.21 1.813,-0.689l-0.195,-0.39c-0.285,0.165 -0.405,0.21 -0.495,0.21c-0.164,-0 -0.239,-0.105 -0.239,-0.3c-0,-0.12 0.03,-0.33 0.06,-0.509l0.254,-1.169c0.383,-1.714 0.429,-1.92 0.434,-2.282l0.001,-0.161c-0,-0.734 -0.629,-1.288 -1.454,-1.288c-0.134,-0 -0.329,0.015 -0.539,0.044l-1.154,0.465c-0.524,0.21 -1.364,0.734 -1.723,1.079c-0.24,0.225 -0.36,0.479 -0.36,0.734c0,0.12 0.06,0.195 0.15,0.195c0.195,0 0.764,-0.18 1.049,-0.33c0.18,-0.09 0.255,-0.179 0.375,-0.464c0.134,-0.33 0.224,-0.465 0.404,-0.585c0.315,-0.194 0.63,-0.299 0.914,-0.299c0.36,-0 0.63,0.299 0.63,0.674c-0,0.195 -0.045,0.599 -0.105,0.869l-0.105,0.48l-2.113,0.689c-0.959,0.3 -1.364,0.479 -1.633,0.749c-0.3,0.3 -0.48,0.719 -0.48,1.184c0,0.704 0.45,1.124 1.199,1.124Zm1.214,-0.989c-0.39,-0 -0.63,-0.225 -0.63,-0.6c0,-0.599 0.45,-1.018 1.424,-1.303c0.21,-0.06 0.419,-0.12 0.479,-0.15l0.42,-0.135l-0.3,1.394l-0.03,0.15l-0.015,0.119c-0.614,0.39 -0.974,0.525 -1.348,0.525Zm12.123,0.809l0.12,-0.569l-0.12,-0c-0.51,-0 -0.705,-0.105 -0.705,-0.405c0,-0.18 0.03,-0.36 0.165,-1.004l0.405,-1.918c0.105,-0.435 0.18,-1.079 0.18,-1.364c-0,-0.689 -0.63,-1.168 -1.559,-1.168c-0.494,-0 -0.644,0.059 -2.098,0.764c-0.09,0.03 -0.149,0.06 -0.269,0.135c0.12,-0.435 0.149,-0.51 0.284,-0.884l-0.269,-0.195c-0.54,0.254 -1.754,0.644 -2.578,0.824l-0.105,0.524l0.075,0c0.525,0 0.69,0.09 0.69,0.42c-0,0.225 -0.06,0.569 -0.195,1.244l-0.345,1.618c-0.27,1.304 -0.33,1.364 -1.139,1.409l-0.165,-0l-0.119,0.569c0.524,-0.039 0.876,-0.056 1.458,-0.059l0.265,-0.001c0.749,0 1.124,0.015 1.768,0.06l0.12,-0.569l-0.06,-0c-0.45,-0 -0.629,-0.105 -0.629,-0.39l-0,-0.031l0.001,-0.056c0.006,-0.112 0.035,-0.249 0.178,-0.932l0.63,-2.922c0.614,-0.405 1.094,-0.584 1.603,-0.584c0.42,-0 0.704,0.284 0.704,0.719c0,0.18 -0.044,0.524 -0.119,0.854l-0.405,1.933c-0.27,1.289 -0.33,1.364 -1.034,1.409l-0.09,-0l-0.12,0.569c0.669,-0.039 1.062,-0.056 1.522,-0.059l0.202,-0.001c0.554,0 0.974,0.015 1.753,0.06Zm3.252,0.15c0.494,-0 1.034,-0.09 1.543,-0.27c0.12,-0.03 0.195,-0.06 0.225,-0.06c0.015,-0.015 0.06,-0.03 0.105,-0.03l0.045,-0.539c-0.285,0.09 -0.435,0.12 -0.645,0.12c-0.509,-0 -0.764,-0.21 -0.764,-0.63c0,-0.224 0.105,-0.854 0.285,-1.678l0.479,-2.293l1.574,0l0.3,-0.689l-1.694,0l0.45,-2.023l-0.54,-0.045c-0.569,1.004 -1.468,1.798 -2.442,2.188l-0.21,0.569l0.794,0l-0.704,3.312c-0.12,0.569 -0.15,0.779 -0.15,1.004c0,0.689 0.48,1.064 1.349,1.064Z" style="fill:#aaa;"/></g><g id="Degree8" serif:id="Degree"><g><path d="M219.03,234.29c1.23,0 2.34,-1.08 2.34,-2.25c-0,-0.84 -0.63,-1.47 -1.5,-1.47c-1.2,0 -2.31,1.08 -2.31,2.25c-0,0.84 0.63,1.47 1.47,1.47Zm0.18,16.71l0.24,-1.14l-0.27,0c-0.9,0 -1.26,-0.21 -1.26,-0.78c-0,-0.36 0.06,-0.81 0.33,-2.04l1.05,-4.92c0.42,-1.92 0.69,-2.94 1.08,-3.99l-0.54,-0.39c-1.23,0.6 -3.72,1.41 -5.19,1.68l-0.21,1.05l0.15,-0c1.08,-0 1.41,0.18 1.41,0.84c-0,0.42 -0.12,1.17 -0.42,2.55l-0.66,3.18c-0.54,2.61 -0.63,2.73 -2.28,2.82l-0.39,-0l-0.24,1.14c1.38,-0.12 2.25,-0.15 3.45,-0.15c1.2,-0 2.19,0.03 3.75,0.15Zm8.61,-16.71c1.23,-0 2.34,-1.08 2.34,-2.25c-0,-0.84 -0.63,-1.47 -1.5,-1.47c-1.2,-0 -2.31,1.08 -2.31,2.25c-0,0.84 0.63,1.47 1.47,1.47Zm0.18,16.71l0.24,-1.14l-0.27,-0c-0.9,-0 -1.26,-0.21 -1.26,-0.78c-0,-0.36 0.06,-0.81 0.33,-2.04l1.05,-4.92c0.42,-1.92 0.69,-2.94 1.08,-3.99l-0.54,-0.39c-1.23,0.6 -3.72,1.41 -5.19,1.68l-0.21,1.05l0.15,-0c1.08,-0 1.41,0.18 1.41,0.84c-0,0.42 -0.12,1.17 -0.42,2.55l-0.66,3.18c-0.54,2.61 -0.63,2.73 -2.28,2.82l-0.39,-0l-0.24,1.14c1.38,-0.12 2.25,-0.15 3.45,-0.15c1.2,-0 2.19,0.03 3.75,0.15Z" style="fill:#888;"/></g></g><g id="Degree9" serif:id="Degree"><g><path d="M294.634,234.29c1.23,0 2.34,-1.08 2.34,-2.25c0,-0.84 -0.63,-1.47 -1.5,-1.47c-1.2,0 -2.31,1.08 -2.31,2.25c0,0.84 0.63,1.47 1.47,1.47Zm0.18,16.71l0.24,-1.14l-0.27,0c-0.9,0 -1.26,-0.21 -1.26,-0.78c0,-0.36 0.06,-0.81 0.33,-2.04l1.05,-4.92c0.42,-1.92 0.69,-2.94 1.08,-3.99l-0.54,-0.39c-1.23,0.6 -3.72,1.41 -5.19,1.68l-0.21,1.05l0.15,-0c1.08,-0 1.41,0.18 1.41,0.84c0,0.42 -0.12,1.17 -0.42,2.55l-0.66,3.18c-0.54,2.61 -0.63,2.73 -2.28,2.82l-0.39,-0l-0.24,1.14c1.38,-0.12 2.25,-0.15 3.45,-0.15c1.2,-0 2.19,0.03 3.75,0.15Zm8.611,-16.71c1.23,-0 2.34,-1.08 2.34,-2.25c-0,-0.84 -0.63,-1.47 -1.5,-1.47c-1.2,-0 -2.31,1.08 -2.31,2.25c-0,0.84 0.63,1.47 1.47,1.47Zm0.18,16.71l0.24,-1.14l-0.27,-0c-0.9,-0 -1.26,-0.21 -1.26,-0.78c-0,-0.36 0.06,-0.81 0.33,-2.04l1.05,-4.92c0.42,-1.92 0.69,-2.94 1.08,-3.99l-0.54,-0.39c-1.23,0.6 -3.72,1.41 -5.19,1.68l-0.21,1.05l0.15,-0c1.08,-0 1.41,0.18 1.41,0.84c-0,0.42 -0.12,1.17 -0.42,2.55l-0.66,3.18c-0.54,2.61 -0.63,2.73 -2.28,2.82l-0.39,-0l-0.24,1.14c1.38,-0.12 2.25,-0.15 3.45,-0.15c1.2,-0 2.19,0.03 3.75,0.15Zm8.61,-16.71c1.23,-0 2.34,-1.08 2.34,-2.25c0,-0.84 -0.63,-1.47 -1.5,-1.47c-1.2,-0 -2.31,1.08 -2.31,2.25c0,0.84 0.63,1.47 1.47,1.47Zm0.18,16.71l0.24,-1.14l-0.27,-0c-0.9,-0 -1.26,-0.21 -1.26,-0.78c0,-0.36 0.06,-0.81 0.33,-2.04l1.05,-4.92c0.42,-1.92 0.69,-2.94 1.08,-3.99l-0.54,-0.39c-1.23,0.6 -3.72,1.41 -5.19,1.68l-0.21,1.05l0.15,-0c1.08,-0 1.41,0.18 1.41,0.84c0,0.42 -0.12,1.17 -0.42,2.55l-0.66,3.18c-0.54,2.61 -0.63,2.73 -2.28,2.82l-0.39,-0l-0.24,1.14c1.38,-0.12 2.25,-0.15 3.45,-0.15c1.2,-0 2.19,0.03 3.75,0.15Z" style="fill:#888;"/></g></g><g id="Degree10" serif:id="Degree"><g><path d="M376.39,234.29c1.23,0 2.34,-1.08 2.34,-2.25c-0,-0.84 -0.63,-1.47 -1.5,-1.47c-1.2,0 -2.31,1.08 -2.31,2.25c-0,0.84 0.63,1.47 1.47,1.47Zm0.18,16.71l0.24,-1.14l-0.27,0c-0.9,0 -1.26,-0.21 -1.26,-0.78c-0,-0.36 0.06,-0.81 0.33,-2.04l1.05,-4.92c0.42,-1.92 0.69,-2.94 1.08,-3.99l-0.54,-0.39c-1.23,0.6 -3.72,1.41 -5.19,1.68l-0.21,1.05l0.15,-0c1.08,-0 1.41,0.18 1.41,0.84c-0,0.42 -0.12,1.17 -0.42,2.55l-0.66,3.18c-0.54,2.61 -0.63,2.73 -2.28,2.82l-0.39,-0l-0.24,1.14c1.38,-0.12 2.25,-0.15 3.45,-0.15c1.2,-0 2.19,0.03 3.75,0.15Zm8.61,0.24c0.18,-0.27 0.27,-0.48 0.3,-0.51c0.6,-0.9 1.2,-1.8 1.77,-2.7l3.27,-4.92c0.116,-0.178 0.228,-0.347 0.334,-0.508l0.304,-0.457c1.45,-2.159 1.893,-2.496 2.872,-2.575l0.24,-1.14c-0.42,0.03 -0.42,0.03 -0.81,0.06c-0.589,0.049 -0.777,0.058 -1.039,0.06l-0.191,-0c-0.84,-0 -2.31,-0.06 -2.67,-0.12l-0.27,1.14l0.21,-0c0.6,-0 0.93,0.24 0.93,0.6c0,0.3 -0.45,1.2 -1.11,2.25l-2.97,4.68l-1.08,-5.4c-0.06,-0.42 -0.12,-0.84 -0.12,-1.14c0,-0.69 0.48,-0.96 1.62,-0.99l0.24,-1.14c-1.153,0.084 -2.043,0.116 -3.781,0.12l-0.359,-0c-1.5,-0 -2.16,-0.03 -3.15,-0.12l-0.24,1.14c1.23,0.09 1.38,0.33 2.28,3.81l1.17,4.65c0.27,1.23 0.36,1.56 0.45,1.98c0.15,0.69 0.15,0.72 0.24,1.23l1.56,-0Z" style="fill:#888;"/></g></g><g id="Degree11" serif:id="Degree"><g><path d="M460.77,251.24c0.18,-0.27 0.27,-0.48 0.3,-0.51c0.6,-0.9 1.2,-1.8 1.77,-2.7l3.27,-4.92c0.116,-0.178 0.227,-0.347 0.333,-0.508l0.305,-0.457c1.45,-2.159 1.892,-2.496 2.872,-2.575l0.24,-1.14c-0.42,0.03 -0.42,0.03 -0.81,0.06c-0.589,0.049 -0.777,0.058 -1.039,0.06l-0.191,-0c-0.84,-0 -2.31,-0.06 -2.67,-0.12l-0.27,1.14l0.21,-0c0.6,-0 0.93,0.24 0.93,0.6c-0,0.3 -0.45,1.2 -1.11,2.25l-2.97,4.68l-1.08,-5.4c-0.06,-0.42 -0.12,-0.84 -0.12,-1.14c-0,-0.69 0.48,-0.96 1.62,-0.99l0.24,-1.14c-1.153,0.084 -2.043,0.116 -3.781,0.12l-0.359,-0c-1.5,-0 -2.16,-0.03 -3.15,-0.12l-0.24,1.14c1.23,0.09 1.38,0.33 2.28,3.81l1.17,4.65c0.219,0.999 0.32,1.405 0.398,1.747l0.035,0.155c0.006,0.026 0.011,0.052 0.017,0.078c0.15,0.69 0.15,0.72 0.24,1.23l1.56,-0Z" style="fill:#888;"/></g></g><g id="Degree12" serif:id="Degree"><g><path d="M536.045,251.24c0.18,-0.27 0.27,-0.48 0.3,-0.51c0.6,-0.9 1.2,-1.8 1.77,-2.7l3.27,-4.92c1.98,-3.03 2.4,-3.45 3.51,-3.54l0.24,-1.14c-0.42,0.03 -0.42,0.03 -0.81,0.06c-0.589,0.049 -0.777,0.058 -1.039,0.06l-0.191,-0c-0.84,-0 -2.31,-0.06 -2.67,-0.12l-0.27,1.14l0.21,-0c0.6,-0 0.93,0.24 0.93,0.6c-0,0.3 -0.45,1.2 -1.11,2.25l-2.97,4.68l-1.08,-5.4c-0.06,-0.42 -0.12,-0.84 -0.12,-1.14c-0,-0.69 0.48,-0.96 1.62,-0.99l0.24,-1.14c-1.153,0.084 -2.043,0.116 -3.781,0.12l-0.359,-0c-1.5,-0 -2.16,-0.03 -3.15,-0.12l-0.24,1.14c1.23,0.09 1.38,0.33 2.28,3.81l1.17,4.65c0.27,1.23 0.36,1.56 0.45,1.98c0.15,0.69 0.15,0.72 0.24,1.23l1.56,-0Zm14.73,-16.95c1.23,-0 2.34,-1.08 2.34,-2.25c0,-0.84 -0.63,-1.47 -1.5,-1.47c-1.2,-0 -2.31,1.08 -2.31,2.25c0,0.84 0.63,1.47 1.47,1.47Zm0.18,16.71l0.24,-1.14l-0.27,-0c-0.9,-0 -1.26,-0.21 -1.26,-0.78c0,-0.36 0.06,-0.81 0.33,-2.04l1.05,-4.92c0.42,-1.92 0.69,-2.94 1.08,-3.99l-0.54,-0.39c-1.23,0.6 -3.72,1.41 -5.19,1.68l-0.21,1.05l0.15,-0c1.08,-0 1.41,0.18 1.41,0.84c0,0.42 -0.12,1.17 -0.42,2.55l-0.66,3.18c-0.54,2.61 -0.63,2.73 -2.28,2.82l-0.39,-0l-0.24,1.14c1.38,-0.12 2.25,-0.15 3.45,-0.15c1.2,-0 2.19,0.03 3.75,0.15Z" style="fill:#888;"/></g></g><g id="Degree13" serif:id="Degree"><g><path d="M613.649,250.755c0.18,-0.27 0.27,-0.48 0.3,-0.51c0.6,-0.9 1.2,-1.8 1.77,-2.7l3.27,-4.92c1.98,-3.03 2.4,-3.45 3.51,-3.54l0.24,-1.14c-0.42,0.03 -0.42,0.03 -0.81,0.06c-0.589,0.049 -0.776,0.058 -1.038,0.06l-0.192,-0c-0.84,-0 -2.31,-0.06 -2.67,-0.12l-0.27,1.14l0.21,-0c0.6,-0 0.93,0.24 0.93,0.6c0,0.3 -0.45,1.2 -1.11,2.25l-2.97,4.68l-1.08,-5.4c-0.06,-0.42 -0.12,-0.84 -0.12,-1.14c0,-0.69 0.48,-0.96 1.62,-0.99l0.24,-1.14c-1.153,0.084 -2.042,0.116 -3.78,0.12l-0.36,-0c-1.5,-0 -2.16,-0.03 -3.15,-0.12l-0.24,1.14c1.23,0.09 1.38,0.33 2.28,3.81l1.17,4.65c0.27,1.23 0.36,1.56 0.45,1.98c0.15,0.69 0.15,0.72 0.24,1.23l1.56,-0Zm14.731,-16.95c1.23,-0 2.34,-1.08 2.34,-2.25c-0,-0.84 -0.63,-1.47 -1.5,-1.47c-1.2,-0 -2.31,1.08 -2.31,2.25c-0,0.84 0.63,1.47 1.47,1.47Zm0.18,16.71l0.24,-1.14l-0.27,-0c-0.9,-0 -1.26,-0.21 -1.26,-0.78c-0,-0.36 0.06,-0.81 0.33,-2.04l1.05,-4.92c0.42,-1.92 0.69,-2.94 1.08,-3.99l-0.54,-0.39c-1.23,0.6 -3.72,1.41 -5.19,1.68l-0.21,1.05l0.15,-0c1.08,-0 1.41,0.18 1.41,0.84c-0,0.42 -0.12,1.17 -0.42,2.55l-0.66,3.18c-0.54,2.61 -0.63,2.73 -2.28,2.82l-0.39,-0l-0.24,1.14c1.38,-0.12 2.25,-0.15 3.45,-0.15c1.2,-0 2.19,0.03 3.75,0.15Zm8.61,-16.71c1.23,-0 2.34,-1.08 2.34,-2.25c0,-0.84 -0.63,-1.47 -1.5,-1.47c-1.2,-0 -2.31,1.08 -2.31,2.25c0,0.84 0.63,1.47 1.47,1.47Zm0.18,16.71l0.24,-1.14l-0.27,-0c-0.9,-0 -1.26,-0.21 -1.26,-0.78c0,-0.36 0.06,-0.81 0.33,-2.04l1.05,-4.92c0.42,-1.92 0.69,-2.94 1.08,-3.99l-0.54,-0.39c-1.23,0.6 -3.72,1.41 -5.19,1.68l-0.21,1.05l0.15,-0c1.08,-0 1.41,0.18 1.41,0.84c0,0.42 -0.12,1.17 -0.42,2.55l-0.66,3.18c-0.54,2.61 -0.63,2.73 -2.28,2.82l-0.39,-0l-0.24,1.14c1.38,-0.12 2.25,-0.15 3.45,-0.15c1.2,-0 2.19,0.03 3.75,0.15Z" style="fill:#888;"/></g></g><g id="主音"><text x="119px" y="293px" style="font-family:'HiraginoSans-W6', 'Hiragino Sans', sans-serif;font-weight:600;font-size:20px;">主音</text></g><g id="上主音"><text x="190px" y="293px" style="font-family:'HiraginoSans-W6', 'Hiragino Sans', sans-serif;font-weight:600;font-size:20px;">上主音</text></g><g id="中音"><text x="280px" y="293px" style="font-family:'HiraginoSans-W6', 'Hiragino Sans', sans-serif;font-weight:600;font-size:20px;">中音</text></g><g id="下属音"><text x="350px" y="293px" style="font-family:'HiraginoSans-W6', 'Hiragino Sans', sans-serif;font-weight:600;font-size:20px;">下属音</text></g><g id="属音"><text x="440px" y="293px" style="font-family:'HiraginoSans-W6', 'Hiragino Sans', sans-serif;font-weight:600;font-size:20px;">属音</text></g><g id="下中音"><text x="510px" y="293px" style="font-family:'HiraginoSans-W6', 'Hiragino Sans', sans-serif;font-weight:600;font-size:20px;">下中音</text></g><g id="下主音"><text x="595px" y="293px" style="font-family:'HiraginoSans-W6', 'Hiragino Sans', sans-serif;font-weight:600;font-size:20px;">下主音</text></g><g id="Aマイナーキーの場合"><text x="22.32px" y="34px" style="font-family:'NotoSansSC-Bold', 'Noto Sans SC', sans-serif;font-weight:700;font-size:20px;">A小调的情况</text></g></g></svg>